<svg xmlns="http://www.w3.org/2000/svg" width="75" height="75" viewBox="0 0 75 75">
  <g id="Group_87" data-name="Group 87" transform="translate(-25 -47)">
    <rect id="Rectangle_130" data-name="Rectangle 130" width="75" height="75" rx="5" transform="translate(25 47)" fill="#2d8ed6" opacity="0.1"/>
    <g id="app" transform="translate(-67.637 43.63)">
      <path id="Path_103" data-name="Path 103" d="M113.694,148.427V112H112v36.427a4.235,4.235,0,0,0,4.236,4.236H135.72v-1.694H116.236A2.549,2.549,0,0,1,113.694,148.427Z" transform="translate(0 -86.674)" fill="#2d8ed6"/>
      <path id="Path_104" data-name="Path 104" d="M216,448h8.471v1.694H216Z" transform="translate(-93.222 -387.093)" fill="#2d8ed6"/>
      <path id="Path_105" data-name="Path 105" d="M144,117.93a.85.85,0,0,0,.847.847h.921a1.269,1.269,0,0,0,2.393,0H150a1.269,1.269,0,0,0,2.393,0h.921a.85.85,0,0,0,.847-.847v-2.541a.863.863,0,0,0-.466-.762l-1.44-.72-.72-1.44a.851.851,0,0,0-.762-.466h-3.389a.863.863,0,0,0-.762.466l-.72,1.44-1.44.72a.851.851,0,0,0-.466.762Zm1.694-2.023,1.228-.614a.884.884,0,0,0,.381-.381l.614-1.228h2.34l.614,1.228a.884.884,0,0,0,.381.381l1.228.614v1.175H145.7v-1.175Z" transform="translate(-28.611 -86.032)" fill="#2d8ed6"/>
      <path id="Path_106" data-name="Path 106" d="M278.742,104v1.122l-1.165-.932a.859.859,0,0,0-1.059,0l-4.236,3.389a.849.849,0,0,0,.519,1.514v2.541a.85.85,0,0,0,.847.847h6.777a.85.85,0,0,0,.847-.847v-2.541a.829.829,0,0,0,.794-.572.846.846,0,0,0-.275-.942l-1.377-1.1V104Zm.847,4.236v2.541h-1.694v-1.694H276.2v1.694h-1.694v-2.541a.9.9,0,0,0-.032-.244l2.573-2.065,2.573,2.065A.9.9,0,0,0,279.589,108.236Z" transform="translate(-143.406 -78.866)" fill="#2d8ed6"/>
      <path id="Path_107" data-name="Path 107" d="M280.41,210.817l.561-1.122h1.175V208h-1.694a.863.863,0,0,0-.762.466l-.614,1.228h-6.248a.862.862,0,0,0-.657.307.874.874,0,0,0-.18.7l.847,4.236a.963.963,0,0,0,.2.4,1.245,1.245,0,0,0-.212.709,1.271,1.271,0,1,0,2.541,0,1.423,1.423,0,0,0-.074-.424h1.843a1.424,1.424,0,0,0-.074.424,1.271,1.271,0,1,0,2.541,0,1.331,1.331,0,0,0-.212-.709.852.852,0,0,0,.2-.4Zm-1.843.572-.508,2.541h-3.7l-.508-2.541Z" transform="translate(-143.423 -172.079)" fill="#2d8ed6"/>
      <path id="Path_108" data-name="Path 108" d="M144,330.541a.85.85,0,0,0,.847.847h.847v4.236a.847.847,0,0,0,1.694,0v-.847h4.236v.847a.847.847,0,0,0,1.694,0V333.6l.466.233.762-1.514-1.472-.741a2.526,2.526,0,0,0-2.3-1.461h-2.012l-.032-.212A2.213,2.213,0,0,0,146.541,328a.85.85,0,0,0-.847.847V329l-1.006.191a.842.842,0,0,0-.688.837Zm3.389.985a.834.834,0,0,0,.635.286h2.753a.85.85,0,0,1,.847.847v.424h-4.236Z" transform="translate(-28.611 -279.616)" fill="#2d8ed6"/>
      <path id="Path_109" data-name="Path 109" d="M146.764,46.879l-4.77-5.363V20.166A4.165,4.165,0,0,0,137.828,16H116.166A4.165,4.165,0,0,0,112,20.166v4.166h1.666V20.166a2.507,2.507,0,0,1,2.5-2.5h21.662a2.507,2.507,0,0,1,2.5,2.5v29.65L137.609,47.1a3.748,3.748,0,0,0-2.677-1.1,3.785,3.785,0,0,0-2.677,6.457l.219.219h-1.312V51H129.5v2.5a.836.836,0,0,0,.833.833h1.989l-1.062,2.125,1.489.75,1.427-2.854,2.583,2.583a7.53,7.53,0,0,0-.3,7.332l.552,1.094V66h1.666v-.833a.936.936,0,0,0-.083-.375l-.635-1.271a5.865,5.865,0,0,1,.562-6.186.84.84,0,0,0-.073-1.094l-4.968-4.968a2.114,2.114,0,0,1,2.989-2.989l4.135,4.135,2.5,2.5,1.177-1.177-2.281-2.26V44.015l3.531,3.968a5.845,5.845,0,0,1,1.468,3.874V65.99h1.666V51.857a7.509,7.509,0,0,0-1.9-4.978Z" fill="#2d8ed6"/>
      <path id="Path_110" data-name="Path 110" d="M144,64h1.694v1.694H144Z" transform="translate(-28.611 -42.917)" fill="#2d8ed6"/>
      <path id="Path_111" data-name="Path 111" d="M176,64h1.694v1.694H176Z" transform="translate(-57.34 -42.917)" fill="#2d8ed6"/>
      <path id="Path_112" data-name="Path 112" d="M208,64h1.694v1.694H208Z" transform="translate(-86.01 -42.917)" fill="#2d8ed6"/>
      <path id="Path_113" data-name="Path 113" d="M164.236,230.777v-2.541h2.541v-1.694h-2.541V224h-1.694v2.541H160v1.694h2.541v2.541Z" transform="translate(-42.917 -186.394)" fill="#2d8ed6"/>
    </g>
  </g>
</svg>
