<svg xmlns="http://www.w3.org/2000/svg" width="75" height="75" viewBox="0 0 75 75">
  <g id="Group_85" data-name="Group 85" transform="translate(-25 -47)">
    <rect id="Rectangle_130" data-name="Rectangle 130" width="75" height="75" rx="5" transform="translate(25 47)" fill="#2d8ed6" opacity="0.1"/>
    <g id="idea" transform="translate(40.883 59.615)">
      <path id="Path_133" data-name="Path 133" d="M100.3,46.014a4.092,4.092,0,0,0-2.658,3.821,4.046,4.046,0,0,0,.469,1.863,3.261,3.261,0,0,0,0,6.1,4.046,4.046,0,0,0-.469,1.863,4.091,4.091,0,0,0,2.658,3.821,3.23,3.23,0,0,0-.2,1.092,3.253,3.253,0,0,0,4.431,3.055,3.268,3.268,0,0,0,6.216-1.418V43.283a3.268,3.268,0,0,0-6.216-1.418,3.246,3.246,0,0,0-4.229,4.148Zm3.074-2.73a1.639,1.639,0,0,1,1.638,1.638h1.638a3.244,3.244,0,0,0-.755-2.066,1.634,1.634,0,0,1,3.212.428v22.93a1.634,1.634,0,0,1-3.212.428,3.243,3.243,0,0,0,.755-2.066h-1.638a1.638,1.638,0,1,1-1.638-1.638V61.3a3.245,3.245,0,0,0-2.088.773,2.455,2.455,0,1,1,2.907-2.411h1.638a4.1,4.1,0,0,0-4.095-4.095,4.051,4.051,0,0,0-2.457.841v-.022a1.638,1.638,0,1,1,0-3.276v-.021a4.051,4.051,0,0,0,2.457.84,4.1,4.1,0,0,0,4.095-4.095h-1.638a2.457,2.457,0,1,1-2.907-2.411,3.244,3.244,0,0,0,2.088.773V46.559a1.638,1.638,0,0,1,0-3.276Zm0,0" transform="translate(-86.398 -35.911)" fill="#2d8ed6"/>
      <path id="Path_134" data-name="Path 134" d="M263.374,41.646a3.258,3.258,0,0,0-1.154.22A3.268,3.268,0,0,0,256,43.284v22.93a3.268,3.268,0,0,0,6.216,1.418,3.253,3.253,0,0,0,4.43-3.055,3.221,3.221,0,0,0-.2-1.092,4.091,4.091,0,0,0,2.658-3.821,4.045,4.045,0,0,0-.469-1.863,3.262,3.262,0,0,0,0-6.1,4.045,4.045,0,0,0,.469-1.863,4.092,4.092,0,0,0-2.658-3.821,3.219,3.219,0,0,0,.2-1.092,3.279,3.279,0,0,0-3.276-3.276Zm4.095,8.189a2.457,2.457,0,0,1-4.914,0h-1.638a4.1,4.1,0,0,0,4.095,4.095,4.051,4.051,0,0,0,2.457-.84v.021a1.638,1.638,0,1,1,0,3.276v.022a4.051,4.051,0,0,0-2.457-.841,4.1,4.1,0,0,0-4.095,4.095h1.638a2.457,2.457,0,1,1,2.907,2.411,3.247,3.247,0,0,0-2.089-.773v1.638a1.638,1.638,0,1,1-1.638,1.638H260.1a3.243,3.243,0,0,0,.755,2.066,1.634,1.634,0,0,1-3.212-.428V43.284a1.634,1.634,0,0,1,3.212-.428,3.244,3.244,0,0,0-.755,2.066h1.638a1.638,1.638,0,1,1,1.638,1.638V48.2a3.246,3.246,0,0,0,2.089-.773A2.457,2.457,0,0,1,267.469,49.835Zm0,0" transform="translate(-230.469 -35.911)" fill="#2d8ed6"/>
      <path id="Path_135" data-name="Path 135" d="M95.171,5.031A18.315,18.315,0,0,0,81.325.039l.1,1.609A16.91,16.91,0,0,1,99.4,18.55a16.914,16.914,0,0,1-7.569,14.119A9.964,9.964,0,0,0,88.193,37.1H76.787a10.128,10.128,0,0,0-3.652-4.463A16.873,16.873,0,0,1,65.626,18.01l-1.608-.05a18.476,18.476,0,0,0,8.223,16.016A8.49,8.49,0,0,1,75.023,37.1H72.855v1.613h2.809a9.328,9.328,0,0,1,.344,1.613H74.464v1.613h1.609v2.419a.805.805,0,0,0,.8.806h.8a4.826,4.826,0,1,0,9.651,0h.8a.8.8,0,0,0,.8-.806V41.937h1.609V40.324H89a9.011,9.011,0,0,1,.323-1.613h2.837V37.1h-2.2a8.308,8.308,0,0,1,2.761-3.084A18.576,18.576,0,0,0,95.171,5.031ZM82.506,48.388a3.225,3.225,0,0,1-3.217-3.226h6.434A3.225,3.225,0,0,1,82.506,48.388Zm4.826-4.839H77.681V41.937h9.651Zm.057-3.226H77.616a11.008,11.008,0,0,0-.273-1.613h10.3a10.741,10.741,0,0,0-.25,1.613Zm0,0" transform="translate(-57.453 0)" fill="#2d8ed6"/>
      <path id="Path_136" data-name="Path 136" d="M48.823,5.74A3.279,3.279,0,0,1,52.1,9.016a.819.819,0,0,0,1.638,0A3.279,3.279,0,0,1,57.012,5.74a.819.819,0,0,0,0-1.638A3.279,3.279,0,0,1,53.736.827a.819.819,0,0,0-1.638,0A3.279,3.279,0,0,1,48.823,4.1a.819.819,0,0,0,0,1.638Zm4.095-2.2A4.956,4.956,0,0,0,54.3,4.921,4.962,4.962,0,0,0,52.917,6.3a4.956,4.956,0,0,0-1.382-1.382A4.951,4.951,0,0,0,52.917,3.54Zm0,0" transform="translate(-43.086 -0.006)" fill="#2d8ed6"/>
      <path id="Path_137" data-name="Path 137" d="M9.012,85.74a.819.819,0,1,0,0-1.638,3.279,3.279,0,0,1-3.276-3.276.819.819,0,0,0-1.638,0A3.279,3.279,0,0,1,.823,84.1a.819.819,0,1,0,0,1.638A3.279,3.279,0,0,1,4.1,89.016a.819.819,0,1,0,1.638,0A3.279,3.279,0,0,1,9.012,85.74ZM4.917,86.3a4.956,4.956,0,0,0-1.382-1.382A4.962,4.962,0,0,0,4.917,83.54,4.967,4.967,0,0,0,6.3,84.922,4.961,4.961,0,0,0,4.917,86.3Zm0,0" transform="translate(0 -71.972)" fill="#2d8ed6"/>
    </g>
  </g>
</svg>
