<svg xmlns="http://www.w3.org/2000/svg" width="75" height="75" viewBox="0 0 75 75">
  <g id="Group_86" data-name="Group 86" transform="translate(-25 -47)">
    <rect id="Rectangle_130" data-name="Rectangle 130" width="75" height="75" rx="5" transform="translate(25 47)" fill="#2d8ed6" opacity="0.1"/>
    <g id="smartphone-money-pay_in-pay_out-security" data-name="smartphone-money-pay in-pay out-security" transform="translate(35.834 57.808)">
      <path id="Path_138" data-name="Path 138" d="M49.495,2H26.162a2.507,2.507,0,0,0-2.5,2.5V16.608a13.333,13.333,0,1,0,0,20.783V49.5a2.507,2.507,0,0,0,2.5,2.5H49.495a2.507,2.507,0,0,0,2.5-2.5V4.5a2.507,2.507,0,0,0-2.5-2.5ZM45.928,3.667l-.417,1.667H30.145l-.417-1.667Zm-30.6,35A11.666,11.666,0,1,1,27,27,11.666,11.666,0,0,1,15.329,38.666Zm35,10.833a.833.833,0,0,1-.833.833H26.162a.833.833,0,0,1-.833-.833V35.791a13.26,13.26,0,0,0,0-17.583V4.5a.833.833,0,0,1,.833-.833h1.85l.675,2.7A.833.833,0,0,0,29.5,7H46.161a.833.833,0,0,0,.808-.633l.675-2.7h1.85a.833.833,0,0,1,.833.833Z" transform="translate(0 0)" fill="#2d8ed6"/>
      <path id="Path_139" data-name="Path 139" d="M21.635,4.519H10.718V2.84a.84.84,0,0,0-1.377-.647L4.3,6.392a.84.84,0,0,0,0,1.293l5.039,4.2a.84.84,0,0,0,.537.193A.859.859,0,0,0,10.231,12a.84.84,0,0,0,.487-.764V9.558H21.635a.84.84,0,0,0,.84-.84V5.359A.84.84,0,0,0,21.635,4.519ZM20.8,7.878H9.878a.84.84,0,0,0-.84.84v.731L6.15,7.038l2.889-2.41v.731a.84.84,0,0,0,.84.84H20.8Z" transform="translate(-0.324)" fill="#2d8ed6"/>
      <path id="Path_140" data-name="Path 140" d="M22.173,54.392l-5.039-4.2a.84.84,0,0,0-1.377.647v1.68H4.84a.84.84,0,0,0-.84.84v3.359a.84.84,0,0,0,.84.84H15.757v1.68a.84.84,0,0,0,.487.764.859.859,0,0,0,.353.076.84.84,0,0,0,.537-.193l5.039-4.2a.84.84,0,0,0,0-1.293Zm-4.736,3.057v-.731a.84.84,0,0,0-.84-.84H5.68V54.2H16.6a.84.84,0,0,0,.84-.84v-.731l2.889,2.41Z" transform="translate(-0.324 -8.079)" fill="#2d8ed6"/>
      <path id="Path_141" data-name="Path 141" d="M17.359,26.359a1.68,1.68,0,0,1,1.68,1.68h1.68A3.359,3.359,0,0,0,18.2,24.8V23h-1.68v1.8a3.352,3.352,0,0,0,.84,6.6,1.68,1.68,0,1,1-1.68,1.68H14a3.359,3.359,0,0,0,2.519,3.24v1.8H18.2v-1.8a3.352,3.352,0,0,0-.84-6.6,1.68,1.68,0,0,1,0-3.359Z" transform="translate(-2.016 -3.559)" fill="#2d8ed6"/>
      <path id="Path_142" data-name="Path 142" d="M8.953,23.515a10.088,10.088,0,0,0,0,14.251l1.187-1.187a8.407,8.407,0,0,1,0-11.876Z" transform="translate(-0.646 -3.641)" fill="#2d8ed6"/>
      <path id="Path_143" data-name="Path 143" d="M26.258,23.515,25.071,24.7a8.407,8.407,0,0,1,0,11.876l1.187,1.187a10.088,10.088,0,0,0,0-14.251Z" transform="translate(-3.863 -3.641)" fill="#2d8ed6"/>
      <path id="Path_144" data-name="Path 144" d="M49.928,25.587l-5.878-2.519a.846.846,0,0,0-.662,0l-5.878,2.519a.84.84,0,0,0-.509.772v2.952a5.843,5.843,0,0,0,1.722,4.157l4.4,4.4a.84.84,0,0,0,1.187,0l4.4-4.4a5.843,5.843,0,0,0,1.722-4.157V26.359a.84.84,0,0,0-.509-.772Zm-1.171,3.724a4.176,4.176,0,0,1-1.229,2.969l-3.809,3.808L39.91,32.281a4.174,4.174,0,0,1-1.23-2.969v-2.4l5.039-2.159,5.039,2.159Z" transform="translate(-6 -3.559)" fill="#2d8ed6"/>
      <path id="Path_145" data-name="Path 145" d="M43.48,29.973,42.293,31.16l1.68,1.68a.84.84,0,0,0,1.187,0l3.359-3.359-1.187-1.187-2.765,2.765Z" transform="translate(-6.757 -4.401)" fill="#2d8ed6"/>
    </g>
  </g>
</svg>
