<svg xmlns="http://www.w3.org/2000/svg" width="50" height="30.177" viewBox="0 0 50 30.177">
  <g id="AWS_Partner_Network_APN_" data-name="AWS Partner Network (APN)" transform="translate(-4.608 -25.468)">
    <path id="Path_52" data-name="Path 52" d="M38.548,38.033q.834-3.524,1.667-7.047c.284-1.2.591-2.4.841-3.615a1.136,1.136,0,0,1,1.264-1.052c2.048-.031,2.042-.055,2.5,1.932q1.1,4.726,2.215,9.447c.037.162.1.318.213.653l2.1-8.1c.254-.98.524-1.956.756-2.942a1.126,1.126,0,0,1,1.237-.989c2.107-.04,2.1-.066,1.481,1.924-1.259,4.026-2.536,8.047-3.752,12.087-.267.886-.7,1.3-1.622,1.167a2.484,2.484,0,0,0-.338,0c-1.49,0-1.488,0-1.843-1.469Q44.176,35.512,43.082,31a1.834,1.834,0,0,0-.38-.809c-.25,1.015-.508,2.028-.751,3.045C41.38,35.619,40.8,38,40.258,40.384a1.218,1.218,0,0,1-1.383,1.124c-1.98-.019-1.976.013-2.542-1.86Q34.527,33.672,32.718,27.7c-.4-1.327-.365-1.366,1.044-1.367,1.69,0,1.685,0,2.093,1.614Q37.126,32.972,38.408,38Z" transform="translate(-12.546 -0.364)" fill="#fff"/>
    <path id="Path_53" data-name="Path 53" d="M30.248,71.914C20.215,71.837,12.2,68.827,5.279,62.822a4.488,4.488,0,0,1-.671-1.037,4.507,4.507,0,0,1,1.167.288A49.482,49.482,0,0,0,24.2,68.058a48.028,48.028,0,0,0,24.43-3.411,1.548,1.548,0,0,1,.712-.182c.24.029.581.167.655.351a.985.985,0,0,1-.2.739,2.048,2.048,0,0,1-.585.46A33.305,33.305,0,0,1,35,71.462C33.116,71.746,31.207,71.827,30.248,71.914Z" transform="translate(0 -16.269)" fill="#fff"/>
    <path id="Path_54" data-name="Path 54" d="M17.45,32.342c-.054-.675-.071-1.545-.2-2.4a2.208,2.208,0,0,0-1.92-1.87,8.847,8.847,0,0,0-5.032.628c-.4.147-.887.589-1.271-.006a1.834,1.834,0,0,1,.419-1.992,9.707,9.707,0,0,1,8.391-.5c1.854.811,2.373,2.549,2.443,4.4.072,1.941-.038,3.888.053,5.826a8.931,8.931,0,0,0,.6,2.672c.242.642.256,1.059-.369,1.4a4.246,4.246,0,0,0-.56.376.957.957,0,0,1-1.563-.3c-.276-.413-.53-.842-.829-1.319a6.616,6.616,0,0,1-4.345,2.224c-2.928.248-4.928-1.184-5.29-3.848a4.615,4.615,0,0,1,4.117-5.325A42.277,42.277,0,0,1,17.45,32.342Zm-3.185,1.811a12.174,12.174,0,0,0-1.951.454A2.352,2.352,0,0,0,11,37.356a2,2,0,0,0,1.641,1.8,3.818,3.818,0,0,0,4.777-3.823c0-.534-.1-.839-.7-.88C15.962,34.406,15.211,34.274,14.265,34.153Z" transform="translate(-1.439)" fill="#fff"/>
    <path id="Path_55" data-name="Path 55" d="M75.417,41.661c-.736-.184-2.166-.471-3.549-.909a1.624,1.624,0,0,1-.885-2.171c.228-.58.632-.33.98-.181a9.356,9.356,0,0,0,4.524.827,5.01,5.01,0,0,0,1.854-.479,1.725,1.725,0,0,0,.008-3.161A32.822,32.822,0,0,0,75.109,34.4a12.362,12.362,0,0,1-1.793-.73A4.087,4.087,0,0,1,73,26.6a8.368,8.368,0,0,1,7.775-.181c.557.35.917,1.637.508,2.094a.982.982,0,0,1-.873.069,8.44,8.44,0,0,0-3.965-.638,5.487,5.487,0,0,0-1.236.244A1.63,1.63,0,0,0,74,29.667a1.554,1.554,0,0,0,.905,1.671c.916.419,1.878.742,2.825,1.093.632.235,1.286.419,1.906.677A3.819,3.819,0,0,1,82.2,36.48a4.26,4.26,0,0,1-1.965,4.052C79.009,41.376,77.6,41.6,75.417,41.661Z" transform="translate(-29.589 -0.037)" fill="#fff"/>
    <path id="Path_56" data-name="Path 56" d="M77.871,61.342a17.188,17.188,0,0,1,1.9-.98,11.353,11.353,0,0,1,6.222-.489c1.069.2,1.273.444,1.239,1.529A10.558,10.558,0,0,1,84.5,68.221a4.483,4.483,0,0,1-.563.507,3.23,3.23,0,0,1-.531.217c.124-.5.194-.852.295-1.192.437-1.477.948-2.937,1.3-4.433.261-1.1-.115-1.648-1.254-1.712-1.532-.085-3.075.039-4.614.076-.395.01-.79.036-1.185.053Z" transform="translate(-32.629 -15.344)" fill="#fff"/>
  </g>
</svg>
