<svg xmlns="http://www.w3.org/2000/svg" width="66.504" height="50" viewBox="0 0 66.504 50">
  <g id="clock_1_" data-name="clock (1)" transform="translate(0 -63.529)">
    <path id="Path_57" data-name="Path 57" d="M32.346,136.159H42.624a.974.974,0,0,0,0-1.949H32.346a.974.974,0,0,0,0,1.949Z" transform="translate(-27.296 -61.5)" fill="#fff"/>
    <path id="Path_58" data-name="Path 58" d="M81.546,185.317h-4.06a.974.974,0,1,0,0,1.949h4.06a.974.974,0,0,0,0-1.949Z" transform="translate(-66.571 -105.969)" fill="#fff"/>
    <path id="Path_59" data-name="Path 59" d="M.974,224.276h9.941a.974.974,0,1,0,0-1.949H.974a.974.974,0,0,0,0,1.949Z" transform="translate(0 -138.172)" fill="#fff"/>
    <path id="Path_60" data-name="Path 60" d="M43.6,363.763a.974.974,0,0,0-.974-.974H32.346a.974.974,0,1,0,0,1.949H42.624A.974.974,0,0,0,43.6,363.763Z" transform="translate(-27.296 -260.39)" fill="#fff"/>
    <path id="Path_61" data-name="Path 61" d="M81.546,311.683h-4.06a.974.974,0,1,0,0,1.949h4.06a.974.974,0,1,0,0-1.949Z" transform="translate(-66.571 -215.922)" fill="#fff"/>
    <path id="Path_62" data-name="Path 62" d="M11.89,275.647a.974.974,0,0,0-.974-.974H.974a.974.974,0,0,0,0,1.949h9.941A.974.974,0,0,0,11.89,275.647Z" transform="translate(0 -183.719)" fill="#fff"/>
    <path id="Path_63" data-name="Path 63" d="M313,142.818a.974.974,0,0,0,.974-.974v-1.487a.974.974,0,1,0-1.949,0v1.487A.974.974,0,0,0,313,142.818Z" transform="translate(-271.5 -66.001)" fill="#fff"/>
    <path id="Path_64" data-name="Path 64" d="M383.807,171.627a.975.975,0,0,0-1.378,0l-1.052,1.052a.975.975,0,0,0,1.378,1.378l1.052-1.052A.975.975,0,0,0,383.807,171.627Z" transform="translate(-331.592 -93.809)" fill="#fff"/>
    <path id="Path_65" data-name="Path 65" d="M410.673,248.5a.974.974,0,0,0,0,1.949h1.487a.974.974,0,1,0,0-1.949Z" transform="translate(-356.487 -160.945)" fill="#fff"/>
    <path id="Path_66" data-name="Path 66" d="M382.755,317.848a.975.975,0,1,0-1.378,1.378l1.052,1.052a.975.975,0,0,0,1.378-1.378Z" transform="translate(-331.592 -221.038)" fill="#fff"/>
    <path id="Path_67" data-name="Path 67" d="M312.029,347.144v1.487a.974.974,0,0,0,1.949,0v-1.487a.974.974,0,0,0-1.949,0Z" transform="translate(-271.5 -245.93)" fill="#fff"/>
    <path id="Path_68" data-name="Path 68" d="M236.207,317.848l-1.052,1.052a.974.974,0,0,0,1.378,1.378l1.052-1.052a.974.974,0,1,0-1.378-1.378Z" transform="translate(-204.363 -221.038)" fill="#fff"/>
    <path id="Path_69" data-name="Path 69" d="M203.885,248.5a.974.974,0,1,0,0,1.949h1.487a.974.974,0,1,0,0-1.949Z" transform="translate(-176.555 -160.945)" fill="#fff"/>
    <path id="Path_70" data-name="Path 70" d="M237.586,172.679l-1.052-1.052a.974.974,0,0,0-1.378,1.378l1.052,1.052a.974.974,0,0,0,1.378-1.378Z" transform="translate(-204.364 -93.809)" fill="#fff"/>
    <path id="Path_71" data-name="Path 71" d="M318.244,194.5a.974.974,0,0,0-.974-.974h-3.291V186.29a.974.974,0,1,0-1.949,0V194.5a.974.974,0,0,0,.974.974h4.266A.974.974,0,0,0,318.244,194.5Z" transform="translate(-271.501 -105.969)" fill="#fff"/>
    <path id="Path_72" data-name="Path 72" d="M207.9,125.728a.974.974,0,0,0,.914-1.031,19.408,19.408,0,1,0-.179,4.1.974.974,0,0,0-1.927-.289,17.485,17.485,0,1,1,.161-3.691.975.975,0,0,0,1.032.913Z" transform="translate(-147.929 -37.36)" fill="#fff"/>
    <path id="Path_73" data-name="Path 73" d="M131.715,63.529a24.986,24.986,0,0,0-9.873,2.04H104.655a.974.974,0,0,0,0,1.948h13.522a24.972,24.972,0,0,0-5,4.235.974.974,0,1,0,1.444,1.308,23.006,23.006,0,1,1-2.284,2.975.974.974,0,1,0-1.636-1.057,24.995,24.995,0,0,0,7.478,34.562H104.655a.974.974,0,0,0,0,1.948h17.173a25,25,0,1,0,9.887-47.96Z" transform="translate(-90.21)" fill="#fff"/>
  </g>
</svg>
