<svg xmlns="http://www.w3.org/2000/svg" width="52.788" height="50" viewBox="0 0 52.788 50">
  <g id="cost" transform="translate(-10 -22.989)">
    <path id="Path_191" data-name="Path 191" d="M56.918,270.722l-.3.161a3.7,3.7,0,0,0-4.42-1.129l-.014.008-.7.376a4.934,4.934,0,0,0-5.519-.536l-3.462,1.885H37.9a6.663,6.663,0,0,1-2.888-.663l-.632-.306a10.793,10.793,0,0,0-11.247,1.1l-.041.033-1.526,1.36a5.332,5.332,0,0,1-2.048,1.137l-.881-2.9a.643.643,0,0,0-.617-.452h-7.38a.648.648,0,0,0-.482.214.629.629,0,0,0-.158.5l2.46,20.2a.641.641,0,0,0,.639.559H24.173a.647.647,0,0,0,.517-.256.628.628,0,0,0,.1-.561l-1.468-4.822,4.564-2.89a2.759,2.759,0,0,1,2.015-.262l.041.009,9.212,1.7a11.871,11.871,0,0,0,7.345-1.038.637.637,0,0,0,.079-.046l15.935-10.957a.629.629,0,0,0,.186-.844A4.331,4.331,0,0,0,56.918,270.722Zm-4.123.158a2.379,2.379,0,0,1,2.671.627l-6.114,3.3-.394.208a5.194,5.194,0,0,0-.879-1.594Zm-6.2-.17.015-.009a3.578,3.578,0,0,1,3.626.11L47.111,272.5a5.177,5.177,0,0,0-2.109-.92ZM13.675,291,11.37,272.071h6.175L23.308,291Zm32.206-7.967a10.559,10.559,0,0,1-6.491.9L30.2,282.244a4.056,4.056,0,0,0-2.962.4l-.03.018-4.27,2.7-3.045-10a6.625,6.625,0,0,0,2.542-1.412l1.506-1.343a9.5,9.5,0,0,1,9.877-.953l.632.306a7.972,7.972,0,0,0,3.456.794h6.129a3.924,3.924,0,0,1,3.856,3.261l-4.5-.2a26.523,26.523,0,0,0-4.828.223.635.635,0,1,0,.179,1.257,25.2,25.2,0,0,1,4.59-.212l5.228.237h.03a.639.639,0,0,0,.644-.635c0-.123-.006-.244-.014-.365l.746-.394,7.573-4.091a3.037,3.037,0,0,1,3.7.639Z" transform="translate(0 -219.282)" fill="#fff"/>
    <path id="Path_192" data-name="Path 192" d="M65.35,431.737a2.09,2.09,0,1,0,2.09-2.113A2.09,2.09,0,0,0,65.35,431.737Zm2.09-.843a.844.844,0,1,1-.821.843A.833.833,0,0,1,67.44,430.894Z" transform="translate(-49.494 -362.917)" fill="#fff"/>
    <path id="Path_193" data-name="Path 193" d="M182.66,38.8c-.059.164-.115.331-.166.5a8.052,8.052,0,0,0,7.717,10.4h5.776a8.041,8.041,0,0,0,6.421-3.165,7.9,7.9,0,0,0,1.391-6.9q-.027-.1-.057-.2a9.77,9.77,0,0,0-5.3-6.263,1.762,1.762,0,0,0-.461-2.208,16.5,16.5,0,0,1,1.386-2.526,6.717,6.717,0,0,1,1.621-1.672c.212-.167.431-.34.652-.539A1.22,1.22,0,0,0,202,24.979a1.13,1.13,0,0,0-1.229-.8,3.532,3.532,0,0,1-1.7-.662,5.661,5.661,0,0,0-.694-.372,2.044,2.044,0,0,0-2.385.713,2.937,2.937,0,0,1-.727.432c-.025.01-.05.019-.075.026a1.23,1.23,0,0,1-1.442-.353,2.049,2.049,0,0,0-2.6-.36,1.918,1.918,0,0,0-.621.9,4.815,4.815,0,0,1-.223.455.559.559,0,0,1-.092.13l-.025.006c-.109.018-.132.022-.354-.143l-.088-.066a7.731,7.731,0,0,0-1.608-.948l-.078-.037c-.087-.042-.2-.095-.319-.143a4.508,4.508,0,0,0-2.19-.088,1.3,1.3,0,0,0-.42.187,1.361,1.361,0,0,0-.5.736,1.57,1.57,0,0,0,.641,1.726,7.961,7.961,0,0,1,2.083,2.038,9.18,9.18,0,0,1,1.194,2.415,1.764,1.764,0,0,0-.67,2.571A10,10,0,0,0,182.66,38.8Zm6.681-5.957a.5.5,0,1,1,0-1h7.536a.5.5,0,0,1,0,1Zm-3.352-7.578a.308.308,0,0,1-.139-.326.29.29,0,0,1,.017-.046l.031-.009a3.494,3.494,0,0,1,1.377.049c.078.031.16.07.232.1l.1.048a6.507,6.507,0,0,1,1.373.807l.1.072a1.59,1.59,0,0,0,1.316.374A1.386,1.386,0,0,0,191.4,25.6a5.884,5.884,0,0,0,.286-.577,2.9,2.9,0,0,1,.184-.37c.3-.181.633-.1,1.021.255a2.482,2.482,0,0,0,2.656.63c.059-.017.119-.038.18-.062a4.035,4.035,0,0,0,1.188-.745c.433-.462.635-.546.979-.405a5.173,5.173,0,0,1,.528.289,4.944,4.944,0,0,0,2.177.839c-.13.109-.263.214-.4.323a7.974,7.974,0,0,0-1.886,1.957,17.852,17.852,0,0,0-1.55,2.85h-1.718a3.218,3.218,0,0,1,.684-1.906,2.682,2.682,0,0,1,.737-.6.635.635,0,0,0-.615-1.111,3.947,3.947,0,0,0-1.084.877,4.509,4.509,0,0,0-.993,2.735h-.656a17.218,17.218,0,0,0-1.141-2.726.635.635,0,1,0-1.077.672,15.254,15.254,0,0,1,.877,2.054h-1.953a10.415,10.415,0,0,0-1.432-2.961A9.3,9.3,0,0,0,185.989,25.27Zm2.913,8.983c.11-.053.207-.1.294-.143.048,0,.1.007.146.007h7.536a1.762,1.762,0,0,0,.418-.052,8.448,8.448,0,0,1,5.228,5.724c.017.06.034.12.05.18a6.643,6.643,0,0,1-1.171,5.8,6.781,6.781,0,0,1-5.414,2.669h-5.776a6.751,6.751,0,0,1-5.484-2.771,6.672,6.672,0,0,1-1.02-5.986c.046-.148.1-.3.148-.443A9.062,9.062,0,0,1,188.9,34.253Z" transform="translate(-153.486)" fill="#fff"/>
    <path id="Path_194" data-name="Path 194" d="M244.23,158.151a5.069,5.069,0,1,0-5.149-5.067A5.115,5.115,0,0,0,244.23,158.151Zm0-8.867a3.8,3.8,0,1,1-3.88,3.8A3.844,3.844,0,0,1,244.23,149.284Z" transform="translate(-204.418 -111.563)" fill="#fff"/>
    <path id="Path_195" data-name="Path 195" d="M273.124,168.836c-.121-.005-.431-.142-.449-.3a.635.635,0,0,0-1.262.141,1.657,1.657,0,0,0,1.16,1.329.635.635,0,0,0,1.269-.012v-.005a1.711,1.711,0,0,0,.642-.395,1.587,1.587,0,0,0,.45-1.232,1.911,1.911,0,0,0-.958-1.459l-.032-.019-.042-.024c-.04-.023-.059-.035-.122-.066a1.144,1.144,0,0,0-.107-.047l-.072-.028a1.093,1.093,0,0,0-.106-.038,1.779,1.779,0,0,0-.182-.047l-.183-.036c-.225-.044-.307-.181-.308-.286a.515.515,0,0,1,.114-.345.411.411,0,0,1,.307-.077.511.511,0,0,1,.513.366l0-.014,1.235-.294a1.8,1.8,0,0,0-1.146-1.227v-.031a.635.635,0,1,0-1.27,0v.039a1.5,1.5,0,0,0-.522.33,1.762,1.762,0,0,0-.5,1.272,1.589,1.589,0,0,0,1.335,1.514l.179.035.053.015.016.006.075.029.05.028.039.023.017.011c.136.082.34.263.346.426.008.194-.055.258-.079.281A.683.683,0,0,1,273.124,168.836Z" transform="translate(-233.333 -125.893)" fill="#fff"/>
  </g>
</svg>
