<svg xmlns="http://www.w3.org/2000/svg" width="52.788" height="50" viewBox="0 0 52.788 50">
  <g id="cost-io" transform="translate(-10 -22.989)">
    <path id="Path_148" data-name="Path 148" d="M56.918,270.741l-.3.163a3.677,3.677,0,0,0-4.42-1.141l-.014.008-.7.38a4.891,4.891,0,0,0-5.519-.542l-3.462,1.906H37.9a6.6,6.6,0,0,1-2.888-.67l-.632-.309a10.7,10.7,0,0,0-11.247,1.111l-.041.034-1.526,1.375a5.317,5.317,0,0,1-2.048,1.15l-.881-2.927a.644.644,0,0,0-.617-.457h-7.38a.642.642,0,0,0-.639.718l2.46,20.422a.643.643,0,0,0,.639.565H24.173a.642.642,0,0,0,.617-.826l-1.468-4.875,4.564-2.922a2.733,2.733,0,0,1,2.015-.265l.041.009,9.212,1.718a11.756,11.756,0,0,0,7.345-1.05.637.637,0,0,0,.079-.047l15.935-11.077a.641.641,0,0,0,.186-.854A4.3,4.3,0,0,0,56.918,270.741ZM52.8,270.9a2.361,2.361,0,0,1,2.671.634l-6.114,3.34-.394.211a5.267,5.267,0,0,0-.879-1.611Zm-6.2-.172.015-.009a3.545,3.545,0,0,1,3.626.111l-3.129,1.707A5.149,5.149,0,0,0,45,271.607ZM13.675,291.243,11.37,272.1h6.175l5.763,19.139Zm32.206-8.054a10.456,10.456,0,0,1-6.491.914L30.2,282.389a4.017,4.017,0,0,0-2.962.406l-.03.018-4.27,2.733-3.045-10.112a6.607,6.607,0,0,0,2.542-1.427l1.506-1.357a9.413,9.413,0,0,1,9.877-.963l.632.309a7.9,7.9,0,0,0,3.456.8h6.129a3.936,3.936,0,0,1,3.856,3.3l-4.5-.206a26.237,26.237,0,0,0-4.828.226.642.642,0,1,0,.179,1.271,24.933,24.933,0,0,1,4.59-.215l5.228.24h.03a.643.643,0,0,0,.644-.642c0-.124-.006-.247-.014-.369l.746-.4,7.573-4.136a3.013,3.013,0,0,1,3.7.646Z" transform="translate(0 -219.538)" fill="#fff"/>
    <path id="Path_149" data-name="Path 149" d="M65.35,431.76a2.113,2.113,0,1,0,2.113-2.136A2.113,2.113,0,0,0,65.35,431.76Zm2.113-.853a.853.853,0,1,1-.83.853A.842.842,0,0,1,67.463,430.908Z" transform="translate(-49.429 -362.986)" fill="#fff"/>
    <path id="Path_150" data-name="Path 150" d="M182.666,38.978c-.059.166-.116.335-.168.5A8.14,8.14,0,0,0,190.3,50h5.839a8.129,8.129,0,0,0,6.491-3.2,7.99,7.99,0,0,0,1.407-6.973q-.027-.1-.057-.206a9.877,9.877,0,0,0-5.363-6.331,1.782,1.782,0,0,0-.466-2.233,16.684,16.684,0,0,1,1.4-2.554,6.792,6.792,0,0,1,1.638-1.69c.214-.169.435-.344.659-.544A1.233,1.233,0,0,0,202.219,25a1.143,1.143,0,0,0-1.243-.809,3.571,3.571,0,0,1-1.724-.669,5.723,5.723,0,0,0-.7-.376,2.067,2.067,0,0,0-2.411.721,2.969,2.969,0,0,1-.735.437c-.025.01-.051.019-.076.026a1.244,1.244,0,0,1-1.457-.357,2.072,2.072,0,0,0-2.625-.364,1.939,1.939,0,0,0-.628.907,4.867,4.867,0,0,1-.226.46.565.565,0,0,1-.093.132l-.025.006c-.11.018-.133.022-.358-.144l-.089-.066a7.816,7.816,0,0,0-1.625-.958l-.079-.038c-.088-.043-.2-.1-.322-.144a4.558,4.558,0,0,0-2.214-.089,1.313,1.313,0,0,0-.425.19,1.376,1.376,0,0,0-.5.744,1.587,1.587,0,0,0,.648,1.745,8.048,8.048,0,0,1,2.106,2.06,9.28,9.28,0,0,1,1.208,2.441,1.784,1.784,0,0,0-.678,2.6,10.113,10.113,0,0,0-5.276,5.523Zm6.755-6.022a.5.5,0,1,1,0-1.008h7.618a.5.5,0,1,1,0,1.008Zm-3.389-7.661a.311.311,0,0,1-.14-.33.29.29,0,0,1,.018-.046l.031-.009a3.533,3.533,0,0,1,1.392.05c.079.031.162.071.234.106l.1.048a6.579,6.579,0,0,1,1.388.816l.1.073a1.607,1.607,0,0,0,1.331.379,1.4,1.4,0,0,0,1.017-.756,5.95,5.95,0,0,0,.289-.583,2.932,2.932,0,0,1,.186-.374c.3-.183.64-.1,1.033.258a2.509,2.509,0,0,0,2.685.637c.059-.018.121-.039.182-.063a4.079,4.079,0,0,0,1.2-.753c.438-.468.642-.552.99-.41a5.23,5.23,0,0,1,.533.292,5,5,0,0,0,2.2.849c-.132.11-.266.216-.406.327a8.061,8.061,0,0,0-1.907,1.979,18.047,18.047,0,0,0-1.567,2.881h-1.736a3.254,3.254,0,0,1,.692-1.927,2.712,2.712,0,0,1,.745-.6A.642.642,0,1,0,196,27.011a3.99,3.99,0,0,0-1.1.887,4.558,4.558,0,0,0-1,2.765h-.663a17.4,17.4,0,0,0-1.153-2.756.642.642,0,1,0-1.089.679,15.42,15.42,0,0,1,.887,2.077h-1.975a10.53,10.53,0,0,0-1.448-2.993,9.406,9.406,0,0,0-2.427-2.375Zm2.945,9.082c.111-.053.209-.1.3-.145.049,0,.1.007.148.007h7.618a1.781,1.781,0,0,0,.422-.053,8.541,8.541,0,0,1,5.286,5.787c.017.061.034.121.05.182a6.716,6.716,0,0,1-1.184,5.86,6.856,6.856,0,0,1-5.474,2.7H190.3a6.825,6.825,0,0,1-5.545-2.8,6.745,6.745,0,0,1-1.031-6.052c.046-.15.1-.3.15-.448A9.161,9.161,0,0,1,188.976,34.377Z" transform="translate(-153.632)" fill="#fff"/>
    <path id="Path_151" data-name="Path 151" d="M244.287,158.262a5.124,5.124,0,1,0-5.206-5.123A5.171,5.171,0,0,0,244.287,158.262Zm0-8.965a3.841,3.841,0,1,1-3.922,3.841A3.887,3.887,0,0,1,244.287,149.3Z" transform="translate(-204.483 -111.601)" fill="#fff"/>
    <path id="Path_152" data-name="Path 152" d="M273.143,168.889c-.122-.005-.436-.143-.454-.308a.642.642,0,1,0-1.276.143,1.675,1.675,0,0,0,1.173,1.344.642.642,0,0,0,1.283-.012v-.005a1.73,1.73,0,0,0,.649-.4,1.6,1.6,0,0,0,.455-1.246,1.932,1.932,0,0,0-.969-1.475l-.032-.02-.043-.025c-.041-.024-.06-.035-.123-.067a1.166,1.166,0,0,0-.108-.048l-.073-.028a1.105,1.105,0,0,0-.107-.038,1.8,1.8,0,0,0-.184-.048l-.185-.036c-.227-.044-.31-.183-.311-.289a.52.52,0,0,1,.115-.348.416.416,0,0,1,.31-.078.516.516,0,0,1,.519.37l0-.014,1.249-.3a1.819,1.819,0,0,0-1.158-1.241v-.031a.642.642,0,1,0-1.284,0v.039a1.518,1.518,0,0,0-.528.334,1.781,1.781,0,0,0-.5,1.286,1.606,1.606,0,0,0,1.35,1.53l.181.035.054.015.016.006.076.029.051.028.039.023.018.011c.137.083.343.266.35.43.008.2-.056.26-.08.284a.69.69,0,0,1-.467.146Z" transform="translate(-233.355 -125.918)" fill="#fff"/>
  </g>
</svg>
