<svg xmlns="http://www.w3.org/2000/svg" width="50" height="50" viewBox="0 0 50 50">
  <path id="digital" d="M41.979,25a16.979,16.979,0,1,0-29.5,11.451L8.864,40.062a.833.833,0,0,0,1.179,1.179l3.616-3.616A16.97,16.97,0,0,0,41.979,25Zm-8.785-.833h-7.36V10.47A18.857,18.857,0,0,1,33.194,24.167ZM24.167,9.71V24.167H16.807a18.1,18.1,0,0,1,4.6-11.051.833.833,0,1,0-1.255-1.1,19.729,19.729,0,0,0-5.012,12.148H9.71A15.334,15.334,0,0,1,24.167,9.71ZM9.71,25.833h5.428a20.275,20.275,0,0,0,7.076,14.225A15.342,15.342,0,0,1,9.71,25.833Zm7.1,0h7.361V39.522A18.682,18.682,0,0,1,16.806,25.833ZM25.833,40.29V25.833h7.359A18.159,18.159,0,0,1,28.31,37.2a.833.833,0,1,0,1.232,1.122,19.789,19.789,0,0,0,5.319-12.491H37.5a.833.833,0,0,0,0-1.667H34.862A20.279,20.279,0,0,0,27.789,9.943,15.313,15.313,0,0,1,25.833,40.29Zm17.91,2.379L39.7,38.629a.833.833,0,1,0-1.178,1.178l4.062,4.062a4.009,4.009,0,1,0,1.156-1.2Zm2.246,5.664a2.344,2.344,0,1,1,2.344-2.344A2.346,2.346,0,0,1,45.99,48.333ZM6.13,7.413l4.062,4.062A.833.833,0,0,0,11.37,10.3L7.331,6.257a4.01,4.01,0,1,0-1.2,1.156ZM4.01,1.667A2.344,2.344,0,1,1,1.667,4.01,2.346,2.346,0,0,1,4.01,1.667Zm0,40.313a4.01,4.01,0,1,0,4.01,4.01A4.015,4.015,0,0,0,4.01,41.979Zm0,6.354A2.344,2.344,0,1,1,6.354,45.99,2.346,2.346,0,0,1,4.01,48.333ZM39.7,11.371l4.039-4.039a4.01,4.01,0,1,0-1.156-1.2l-4.062,4.062A.833.833,0,0,0,39.7,11.371Zm6.286-9.7A2.344,2.344,0,1,1,43.646,4.01,2.346,2.346,0,0,1,45.99,1.667Z" transform="translate(0 0)" fill="#2d8ed6"/>
</svg>
