<svg xmlns="http://www.w3.org/2000/svg" width="50" height="50" viewBox="0 0 50 50">
  <g id="software-development" transform="translate(-1 -1)">
    <path id="Path_78" data-name="Path 78" d="M43.91,7a8.91,8.91,0,1,0,8.91,8.91A8.92,8.92,0,0,0,43.91,7Zm0,16.2a7.29,7.29,0,1,1,7.29-7.29A7.3,7.3,0,0,1,43.91,23.2Z" transform="translate(-6.679 -1.14)" fill="#2d8ed6"/>
    <path id="Path_79" data-name="Path 79" d="M48.8,11a12.045,12.045,0,0,0-.741-1.8l1.058-2.056L44.859,2.889,42.8,3.947a12.044,12.044,0,0,0-1.8-.741L40.3,1H34.282l-.706,2.2a12.044,12.044,0,0,0-1.8.741L29.723,2.888,25.469,7.141l.989,1.923H3.419A2.422,2.422,0,0,0,1,11.484V45.355a2.422,2.422,0,0,0,2.419,2.419H32.2a5.641,5.641,0,1,0,5.9-8V30.032H36.484v9.742a5.59,5.59,0,0,0-4.774,6.387H3.419a.808.808,0,0,1-.806-.806v-25H26.459l-.99,1.923,4.253,4.253,2.056-1.058a12.044,12.044,0,0,0,1.8.741l.707,2.206H40.3l.706-2.2a12.045,12.045,0,0,0,1.8-.741l2.056,1.058,4.253-4.253-1.058-2.055a12.059,12.059,0,0,0,.741-1.8L51,17.717V11.7ZM37.29,41.323a4.032,4.032,0,1,1-4.032,4.032A4.037,4.037,0,0,1,37.29,41.323ZM2.613,11.484a.808.808,0,0,1,.806-.806H25.9c-.038.106-.081.21-.116.318l-2.206.707v6.015l2.2.706c.035.108.079.211.116.318H2.613Zm46.774,5.057-1.9.609-.118.417a10.382,10.382,0,0,1-.93,2.254l-.212.378.911,1.77-2.59,2.59-1.77-.91-.377.211a10.415,10.415,0,0,1-2.255.93l-.417.118-.608,1.9H35.46l-.609-1.9-.417-.118a10.456,10.456,0,0,1-2.255-.93l-.377-.211-1.77.91-2.59-2.59.911-1.77-.212-.378a10.4,10.4,0,0,1-.93-2.254l-.118-.417-1.9-.608V12.879l1.9-.609.118-.417a10.455,10.455,0,0,1,.93-2.255l.211-.377-.91-1.77,2.59-2.59,1.77.91.377-.211a10.415,10.415,0,0,1,2.255-.93l.417-.118.608-1.9h3.662l.609,1.9.417.118a10.455,10.455,0,0,1,2.255.93l.377.211,1.77-.91,2.59,2.59-.91,1.77.211.377a10.415,10.415,0,0,1,.93,2.255l.118.417,1.9.608Z" fill="#2d8ed6"/>
    <path id="Path_80" data-name="Path 80" d="M48.2,14.372l2.065,2.754L48.2,19.88l1.3.972,2.794-3.726L49.5,13.4Z" transform="translate(-9.15 -2.408)" fill="#2d8ed6"/>
    <path id="Path_81" data-name="Path 81" d="M41.544,13.4,38.75,17.126l2.794,3.726,1.3-.972-2.065-2.754,2.065-2.754Z" transform="translate(-7.318 -2.408)" fill="#2d8ed6"/>
    <path id="Path_82" data-name="Path 82" d="M0,0H11.455V1.62H0Z" transform="translate(35.687 20.282) rotate(-81.837)" fill="#2d8ed6"/>
    <path id="Path_83" data-name="Path 83" d="M14.72,15H6.62A1.622,1.622,0,0,0,5,16.62v1.62a1.622,1.622,0,0,0,1.62,1.62h8.1a1.622,1.622,0,0,0,1.62-1.62V16.62A1.622,1.622,0,0,0,14.72,15Zm-3.24,1.62v1.62H9.86V16.62Zm-4.86,0H8.24v1.62H6.62Zm6.48,1.62V16.62h1.62v1.62Z" transform="translate(-0.76 -2.715)" fill="#2d8ed6"/>
    <path id="Path_84" data-name="Path 84" d="M45.43,57.86A2.43,2.43,0,1,0,43,55.43,2.433,2.433,0,0,0,45.43,57.86Zm0-3.24a.81.81,0,1,1-.81.81A.811.811,0,0,1,45.43,54.62Z" transform="translate(-8.145 -10.1)" fill="#2d8ed6"/>
    <path id="Path_85" data-name="Path 85" d="M57.86,46.3V43.384l-3.24-3.24V34H53v6.815l3.24,3.24V46.3a2.43,2.43,0,1,0,1.62,0Zm-.81,3.091a.81.81,0,1,1,.81-.81A.811.811,0,0,1,57.05,49.389Z" transform="translate(-10.1 -6.489)" fill="#2d8ed6"/>
    <path id="Path_86" data-name="Path 86" d="M37.48,40.815V34H35.86v6.144l-3.24,3.24V46.3a2.43,2.43,0,1,0,1.62,0V44.055Zm-4.05,8.574a.81.81,0,1,1,.81-.81A.811.811,0,0,1,33.43,49.389Z" transform="translate(-5.822 -6.489)" fill="#2d8ed6"/>
    <path id="Path_87" data-name="Path 87" d="M9.05,28.62h.81V27H9.05a2.433,2.433,0,0,0-2.43,2.43.811.811,0,0,1-.81.81H5v1.62h.81a.811.811,0,0,1,.81.81A2.433,2.433,0,0,0,9.05,35.1h.81V33.48H9.05a.811.811,0,0,1-.81-.81,2.414,2.414,0,0,0-.632-1.62,2.414,2.414,0,0,0,.632-1.62A.811.811,0,0,1,9.05,28.62Z" transform="translate(-0.76 -5.05)" fill="#2d8ed6"/>
    <path id="Path_88" data-name="Path 88" d="M13,27h9.72v1.62H13Z" transform="translate(-2.333 -5.035)" fill="#2d8ed6"/>
    <path id="Path_89" data-name="Path 89" d="M13,31h9.72v1.62H13Z" transform="translate(-2.333 -5.81)" fill="#2d8ed6"/>
    <path id="Path_90" data-name="Path 90" d="M23,35h1.62v1.62H23Z" transform="translate(-4.261 -6.585)" fill="#2d8ed6"/>
    <path id="Path_91" data-name="Path 91" d="M13,35h6.48v1.62H13Z" transform="translate(-2.329 -6.585)" fill="#2d8ed6"/>
    <path id="Path_92" data-name="Path 92" d="M26.24,48.67a.811.811,0,0,1,.81-.81h.81V46.24h-.81a.811.811,0,0,1-.81-.81A2.433,2.433,0,0,0,23.81,43H23v1.62h.81a.811.811,0,0,1,.81.81,2.414,2.414,0,0,0,.632,1.62,2.41,2.41,0,0,0-.632,1.62.811.811,0,0,1-.81.81H23V51.1h.81A2.433,2.433,0,0,0,26.24,48.67Z" transform="translate(-4.266 -8.157)" fill="#2d8ed6"/>
    <path id="Path_93" data-name="Path 93" d="M9,51h9.72v1.62H9Z" transform="translate(-1.52 -9.72)" fill="#2d8ed6"/>
    <path id="Path_94" data-name="Path 94" d="M13,47h6.48v1.62H13Z" transform="translate(-2.329 -8.909)" fill="#2d8ed6"/>
    <path id="Path_95" data-name="Path 95" d="M9,47h1.62v1.62H9Z" transform="translate(-1.52 -8.909)" fill="#2d8ed6"/>
    <path id="Path_96" data-name="Path 96" d="M9,43h9.72v1.62H9Z" transform="translate(-1.52 -8.134)" fill="#2d8ed6"/>
    <path id="Path_97" data-name="Path 97" d="M5,39H21.2v1.62H5Z" transform="translate(-0.76 -7.359)" fill="#2d8ed6"/>
  </g>
</svg>
