<svg xmlns="http://www.w3.org/2000/svg" width="50" height="50" viewBox="0 0 50 50">
  <g id="system" transform="translate(-1 -1)">
    <path id="Path_161" data-name="Path 161" d="M21,13.427A2.427,2.427,0,1,0,23.427,11,2.43,2.43,0,0,0,21,13.427Zm2.427-.809a.809.809,0,1,1-.809.809A.81.81,0,0,1,23.427,12.618Z" transform="translate(-3.876 -1.938)" fill="#fff"/>
    <path id="Path_162" data-name="Path 162" d="M41,11h1.618v4.854H41Z" transform="translate(-7.745 -1.938)" fill="#fff"/>
    <path id="Path_163" data-name="Path 163" d="M37,11h1.618v4.854H37Z" transform="translate(-6.971 -1.938)" fill="#fff"/>
    <path id="Path_164" data-name="Path 164" d="M39.427,23a2.427,2.427,0,1,0,2.427,2.427A2.43,2.43,0,0,0,39.427,23Zm0,3.236a.809.809,0,1,1,.809-.809A.81.81,0,0,1,39.427,26.236Z" transform="translate(-6.978 -4.264)" fill="#fff"/>
    <path id="Path_165" data-name="Path 165" d="M21,23h1.618v4.854H21Z" transform="translate(-3.873 -4.264)" fill="#fff"/>
    <path id="Path_166" data-name="Path 166" d="M25,23h1.618v4.854H25Z" transform="translate(-4.647 -4.264)" fill="#fff"/>
    <path id="Path_167" data-name="Path 167" d="M4.236,41.048V32H2.618v9.048a2.427,2.427,0,1,0,1.618,0Zm-.809,3.087a.809.809,0,1,1,.809-.809A.81.81,0,0,1,3.427,44.135Z" transform="translate(0 -6.03)" fill="#fff"/>
    <path id="Path_168" data-name="Path 168" d="M10.618,33v4.194a2.427,2.427,0,1,0,1.618,0V33Zm.809,7.281a.809.809,0,1,1,.809-.809A.81.81,0,0,1,11.427,40.281Z" transform="translate(-1.528 -6.211)" fill="#fff"/>
    <path id="Path_169" data-name="Path 169" d="M49.387,31.5a2.419,2.419,0,1,0-1.613,0v6.215a7.215,7.215,0,0,0-4.032-1.227h-.127a11.125,11.125,0,0,0-.68-2.517v-7.31a2.419,2.419,0,1,0-1.613,0v4.493A11.413,11.413,0,0,0,38.1,28.34V20.355h7.258a2.422,2.422,0,0,0,2.419-2.419V5.69a2.419,2.419,0,1,0-1.613,0V17.935a.808.808,0,0,1-.806.806H38.1V15.516h2.419A2.422,2.422,0,0,0,42.935,13.1v-.955a2.419,2.419,0,1,0-1.613,0V13.1a.808.808,0,0,1-.806.806H38.1V9.871a4.037,4.037,0,0,0-4.032-4.032H28.791a11.266,11.266,0,0,0-20.406,4.84H8.258a7.258,7.258,0,0,0,0,14.516H13.9V35.578a7.286,7.286,0,0,0-.4.927c-.135-.008-.27-.021-.408-.021A7.258,7.258,0,0,0,13.1,51H43.742a7.25,7.25,0,0,0,5.645-11.81Zm-7.258-7.916a.806.806,0,1,1-.806.806A.808.808,0,0,1,42.129,23.581ZM46.968,2.613a.806.806,0,1,1-.806.806A.808.808,0,0,1,46.968,2.613ZM42.129,9.065a.806.806,0,1,1-.806.806A.808.808,0,0,1,42.129,9.065Zm6.452,19.355a.806.806,0,1,1-.806.806A.808.808,0,0,1,48.581,28.419ZM32.452,26.806a11.289,11.289,0,0,0-9.571,5.3,7.214,7.214,0,0,0-1.107-.321,2.42,2.42,0,1,0-4.217.42,7.225,7.225,0,0,0-2.04,1.283V26.806H36.484v.752A11.169,11.169,0,0,0,32.452,26.806Zm-13.71,4.032a.806.806,0,1,1,.806.806A.808.808,0,0,1,18.742,30.839Zm-3.226-13.71H36.484v8.065H15.516ZM36.484,9.871v5.645H15.516V9.871a2.422,2.422,0,0,1,2.419-2.419H34.065A2.422,2.422,0,0,1,36.484,9.871ZM8.258,23.581a5.645,5.645,0,0,1,0-11.29,5.549,5.549,0,0,1,.74.055l.848.11.06-.854A9.656,9.656,0,0,1,26.744,5.839H17.935A4.037,4.037,0,0,0,13.9,9.871v13.71ZM43.742,49.387H13.1a5.645,5.645,0,1,1,5.645-5.645h1.613a7.267,7.267,0,0,0-5.223-6.962A5.64,5.64,0,0,1,26,38.9h1.613a7.253,7.253,0,0,0-3.267-6.056,9.653,9.653,0,0,1,17.748,4.56l.06.854.848-.11a5.549,5.549,0,0,1,.74-.055,5.645,5.645,0,1,1,0,11.29Z" fill="#fff"/>
    <path id="Path_170" data-name="Path 170" d="M40,37v1.618a6.48,6.48,0,0,1,6.472,6.472H48.09A8.1,8.1,0,0,0,40,37Z" transform="translate(-7.568 -6.985)" fill="#fff"/>
    <path id="Path_171" data-name="Path 171" d="M12.618,53.045a2.43,2.43,0,0,1,2.427-2.427V49a4.045,4.045,0,0,0,0,8.09H26.371V55.472H15.045A2.43,2.43,0,0,1,12.618,53.045Z" transform="translate(-1.947 -9.326)" fill="#fff"/>
    <path id="Path_172" data-name="Path 172" d="M32,57h1.618v1.618H32Z" transform="translate(-6.003 -10.854)" fill="#fff"/>
    <path id="Path_173" data-name="Path 173" d="M36,57h1.618v1.618H36Z" transform="translate(-6.777 -10.854)" fill="#fff"/>
    <path id="Path_174" data-name="Path 174" d="M55,50v1.618a1.62,1.62,0,0,1,1.618,1.618h1.618A3.239,3.239,0,0,0,55,50Z" transform="translate(-10.472 -9.517)" fill="#fff"/>
    <path id="Path_175" data-name="Path 175" d="M6.618,22H5a4.05,4.05,0,0,0,4.045,4.045h.809V24.427H9.045A2.43,2.43,0,0,1,6.618,22Z" transform="translate(-0.764 -4.069)" fill="#fff"/>
    <path id="Path_176" data-name="Path 176" d="M13,25h1.618v1.618H13Z" transform="translate(-2.324 -4.647)" fill="#fff"/>
  </g>
</svg>
