<svg xmlns="http://www.w3.org/2000/svg" width="50.02" height="50" viewBox="0 0 50.02 50">
  <g id="trend" transform="translate(0 -0.011)">
    <path id="Path_177" data-name="Path 177" d="M1.29,37.371c-.167,0-.261,0-.277,0A1.045,1.045,0,0,1,0,36.3a1.091,1.091,0,0,1,1.071-1.014c.336,0,35.748.626,43.775-30.5a1.042,1.042,0,1,1,2.018.521C38.806,36.551,4.726,37.371,1.29,37.371Z" transform="translate(0 4.315)" fill="#fff"/>
    <path id="Path_178" data-name="Path 178" d="M28.474,11.49a1.04,1.04,0,0,1-.9-.52l-2.6-4.507-4.507,2.6a1.041,1.041,0,1,1-1.041-1.8L24.829,4.14a1.039,1.039,0,0,1,1.422.381l3.122,5.408a1.041,1.041,0,0,1-.381,1.422A1.016,1.016,0,0,1,28.474,11.49Z" transform="translate(20.507 4.327)" fill="#fff"/>
    <path id="Path_179" data-name="Path 179" d="M22.041,39.142A1.041,1.041,0,0,1,21,38.1V11.041a1.041,1.041,0,1,1,2.082,0V38.1A1.041,1.041,0,0,1,22.041,39.142Z" transform="translate(22.777 10.868)" fill="#fff"/>
    <path id="Path_180" data-name="Path 180" d="M16.041,31.571A1.041,1.041,0,0,1,15,30.53V18.041a1.041,1.041,0,1,1,2.082,0V30.53A1.041,1.041,0,0,1,16.041,31.571Z" transform="translate(16.266 18.439)" fill="#fff"/>
    <path id="Path_181" data-name="Path 181" d="M10.041,28.326A1.041,1.041,0,0,1,9,27.286V21.041a1.041,1.041,0,1,1,2.082,0v6.245A1.041,1.041,0,0,1,10.041,28.326Z" transform="translate(9.759 21.684)" fill="#fff"/>
    <path id="Path_182" data-name="Path 182" d="M4.041,26.7A1.041,1.041,0,0,1,3,25.663V22.541a1.041,1.041,0,1,1,2.082,0v3.122A1.041,1.041,0,0,1,4.041,26.7Z" transform="translate(3.245 23.307)" fill="#fff"/>
    <path id="Path_183" data-name="Path 183" d="M19.775,27.049H1.041A1.041,1.041,0,0,1,0,26.008V23.571a5.171,5.171,0,0,1,1.524-3.68l2.639-2.639V11.335A11.507,11.507,0,0,1,6.538,4.354L9.584.395a1.079,1.079,0,0,1,1.651,0L14.28,4.354a11.514,11.514,0,0,1,2.373,6.982v5.916l2.639,2.639a5.171,5.171,0,0,1,1.524,3.68v2.438a1.041,1.041,0,0,1-1.041,1.041ZM2.082,24.968H18.734v-1.4a3.107,3.107,0,0,0-.914-2.209l-2.945-2.943a1.048,1.048,0,0,1-.3-.737V11.335a9.42,9.42,0,0,0-1.944-5.712L10.408,2.736,8.189,5.623a9.415,9.415,0,0,0-1.944,5.712v6.347a1.048,1.048,0,0,1-.3.737L3,21.362a3.1,3.1,0,0,0-.916,2.209Z" transform="translate(0)" fill="#fff"/>
    <path id="Path_184" data-name="Path 184" d="M8.041,18.245A1.041,1.041,0,0,1,7,17.2V13.041a1.041,1.041,0,0,1,2.082,0V17.2A1.041,1.041,0,0,1,8.041,18.245Z" transform="translate(7.591 13.004)" fill="#fff"/>
    <path id="Path_185" data-name="Path 185" d="M3.041,18.245A1.041,1.041,0,0,1,2,17.2V13.041a1.041,1.041,0,1,1,2.082,0V17.2A1.041,1.041,0,0,1,3.041,18.245Z" transform="translate(2.163 13.004)" fill="#fff"/>
  </g>
</svg>
