<svg xmlns="http://www.w3.org/2000/svg" width="80" height="80" viewBox="0 0 80 80">
  <path id="Icon_awesome-app-store-ios" data-name="Icon awesome-app-store-ios" d="M71.429,2.25H8.571A8.574,8.574,0,0,0,0,10.821V73.679A8.574,8.574,0,0,0,8.571,82.25H71.429A8.574,8.574,0,0,0,80,73.679V10.821A8.574,8.574,0,0,0,71.429,2.25ZM22.679,65.2A3.568,3.568,0,1,1,16.5,61.625l2.554-4.411a6.128,6.128,0,0,1,7.071,2.036Zm24.8-9.625H15a3.571,3.571,0,1,1,0-7.143h9.107L35.786,28.214l-3.661-6.321A3.568,3.568,0,0,1,38.3,18.321l1.589,2.75,1.589-2.75a3.568,3.568,0,0,1,6.179,3.571L32.339,48.429H43.429c3.607,0,5.625,4.232,4.054,7.143Zm17.518,0H59.821l3.5,6.054A3.568,3.568,0,1,1,57.143,65.2Q48.33,49.955,43.929,42.321c-2.982-5.179-.857-10.357,1.268-12.107q3.509,6.08,10.518,18.214H65a3.571,3.571,0,1,1,0,7.143Z" transform="translate(0 -2.25)" fill="#ed3232"/>
</svg>
