<svg xmlns="http://www.w3.org/2000/svg" width="69.739" height="80.001" viewBox="0 0 69.739 80.001">
  <g id="np_women_884339_000000" transform="translate(-7.785 -1.615)">
    <path id="Path_860" data-name="Path 860" d="M45.7,43.272a9.827,9.827,0,0,1-2.711-.387c-4.131-1.162-7.359-4.26-10.071-9.424a16.811,16.811,0,0,1-1.033-2.195,3.934,3.934,0,0,1-2.066-1.033c-1.678-1.807-1.937-5.035-2.195-7.359L27.5,22.1v-.387A26.341,26.341,0,0,1,32.405,7.381C34.987,4.154,39.893,1.055,44.8,1.7a8.38,8.38,0,0,1,2.711.9c.387.129.775.387,1.162.516,6.068-1.42,12.006,4,13.943,8.65,1.549,3.744,1.678,7.875,1.807,11.232v.258c-.129,1.937-.516,4.906-2.195,6.972a3.354,3.354,0,0,1-2.066,1.162c-.646,1.291-1.937,3.486-2.066,3.744-1.807,2.84-5.681,7.746-11.49,8.263a2.2,2.2,0,0,0-.9-.129Zm-13.3-15.1a2.55,2.55,0,0,1,2.324,1.549c.387.775.775,1.549,1.033,2.195,2.195,4.39,4.777,6.972,8,7.875a8.364,8.364,0,0,0,2.582.258c4.648-.387,7.875-4.777,9.038-6.713.129-.258,1.42-2.453,2.066-3.615a2.779,2.779,0,0,1,2.324-1.549c1.033-1.42,1.291-3.615,1.42-5.164-.129-3.228-.258-6.842-1.549-10.071-1.549-3.615-6.326-8-10.586-6.713l-.387.129-.387-.129a9.784,9.784,0,0,1-2.066-.775A11.359,11.359,0,0,0,44.284,4.8c-3.357-.387-7.23,1.937-9.167,4.519A24.224,24.224,0,0,0,30.857,22.1v.646c.129,1.807.387,4.39,1.291,5.422h.258Z" transform="translate(-3.425 0)" fill="#ed3232"/>
    <path id="Path_861" data-name="Path 861" d="M58.9,29.681a.692.692,0,0,1-.646-.646A23.88,23.88,0,0,0,58,23.743c-.129-.775-.9-1.291-2.453-1.678-1.291-.258-2.582-.516-3.873-.646a29.877,29.877,0,0,1-10.716-3.1c-.775-.516-1.807-.9-2.195-.516a10.6,10.6,0,0,0-2.711,4.777,21.667,21.667,0,0,0-.387,5.81v.387a.646.646,0,0,1-1.291,0V28.39a19.02,19.02,0,0,1,.516-6.068,13.681,13.681,0,0,1,3.1-5.422c1.162-1.291,2.969-.258,3.744.258a28.159,28.159,0,0,0,10.2,2.969c1.291.258,2.582.387,3.873.646.775.129,3.228.646,3.486,2.711a26.272,26.272,0,0,1,.258,5.552.61.61,0,0,1-.646.646Z" transform="translate(-4.617 -2.547)" fill="#ed3232"/>
    <path id="Path_862" data-name="Path 862" d="M77.524,83.783c-.516-5.681-1.807-15.75-5.81-19.882a20.171,20.171,0,0,0-6.842-4.39,32.586,32.586,0,0,0-13.685-1.937,2.273,2.273,0,0,0-1.678.775,2.719,2.719,0,0,0-.646,1.678c.129,2.84-1.807,5.035-2.969,6.068A1.555,1.555,0,1,0,47.96,68.42a10.679,10.679,0,0,0,4-7.746,29.331,29.331,0,0,1,11.619,1.807A14.838,14.838,0,0,1,69.262,66.1c2.324,2.324,4.131,8.779,4.906,17.3-2.066,1.033-10.2,2.84-13.3,3.357a120.333,120.333,0,0,1-18.462,1.42,122.942,122.942,0,0,1-18.462-1.42c-3.1-.516-11.232-2.324-13.3-3.357.775-8.52,2.582-14.847,4.906-17.3,4.131-4.131,10.457-4.906,16.009-5.552l.775-.129a11.723,11.723,0,0,0,4.39,7.23c.387.387.9.646,1.291,1.033,1.549,1.162,2.711,2.066,3.1,3.744.516,1.807.129,6.713,0,8.52V82.1a1.549,1.549,0,0,0,3.1,0v-.9c.258-3.615.387-7.488-.129-9.553-.775-2.84-2.582-4.131-4.26-5.552-.387-.258-.775-.646-1.162-.9-1.937-1.678-3.357-4-3.228-5.939A2.138,2.138,0,0,0,34.79,57.7a2.254,2.254,0,0,0-1.549-.516l-1.937.258C25.495,58.091,18.265,59,13.488,63.9,9.615,68.032,8.324,78.1,7.808,83.783c-.129.775-.258,3.357,16.009,5.939a110.32,110.32,0,0,0,18.849,1.549,125.519,125.519,0,0,0,18.849-1.42c16.268-2.711,16.009-5.293,16.009-6.068Z" transform="translate(0 -9.655)" fill="#ed3232"/>
    <path id="Path_863" data-name="Path 863" d="M45.4,77.7a1.291,1.291,0,0,1-2.582,0,1.291,1.291,0,0,1,2.582,0" transform="translate(-6.086 -12.994)" fill="#ed3232"/>
    <path id="Path_864" data-name="Path 864" d="M45.4,84.885a1.291,1.291,0,0,1-2.582,0,1.291,1.291,0,0,1,2.582,0" transform="translate(-6.086 -14.243)" fill="#ed3232"/>
  </g>
</svg>
