<svg xmlns="http://www.w3.org/2000/svg" width="88.881" height="80" viewBox="0 0 88.881 80">
  <path id="np_astrology_877226_000000" d="M68.885,82.771a54.213,54.213,0,0,0,13.888-4.887,34.243,34.243,0,0,1-10.889,11A33.558,33.558,0,0,1,25.555,78.105c-.113-.221-.221-.334-.334-.556.221.113.334.221.443.221,1.224.556,2.335,1.224,3.554,1.667a46.648,46.648,0,0,0,7.556,2.556,60.951,60.951,0,0,0,7.89,1.554c1.332.113,2.778.334,4.11.443l3.776.221h4.218c1.332,0,2.665-.113,4-.221s2.665-.334,4-.443c1.45-.221,2.782-.443,4.114-.777Zm22.107-13C89.768,71,88.436,71.995,87.1,73.106c-1.445.89-2.778,1.888-4.331,2.665a52.685,52.685,0,0,1-9.331,3.78A66.19,66.19,0,0,1,53,82.215c-1.888-.113-3.333-.113-5.113-.334s-3.554-.334-5.221-.668a59.872,59.872,0,0,1-10-2.556,54.275,54.275,0,0,1-9.222-4.331,46.878,46.878,0,0,1-4.223-2.89,36.14,36.14,0,0,1-3.667-3.446,22.142,22.142,0,0,1-5.113-8.667c-.113-.777-.334-1.667-.443-2.443v-3.22l.113-.556.221-1.111A9.936,9.936,0,0,1,11,49.77l.443-1.111a4.5,4.5,0,0,1,.556-1,10.637,10.637,0,0,1,1.111-1.888c.443-.556.89-1.224,1.332-1.779s1-1,1.445-1.554a5.826,5.826,0,0,1,1.554-1.332A15.316,15.316,0,0,1,19,39.883a33.334,33.334,0,0,1,3.333-2.109A53.3,53.3,0,0,1,34.551,33a11.276,11.276,0,0,1,1.888-1.224,33.2,33.2,0,0,1,39.112,2.561,52.939,52.939,0,0,1,10.333,4.778,28.029,28.029,0,0,1,3.22,2.222c.556.443,1,.89,1.554,1.332A8.926,8.926,0,0,1,92.1,44.11a17.763,17.763,0,0,1,4.444,7.556A18.035,18.035,0,0,1,97.1,54l.113,1.224.113.556v.668a15.416,15.416,0,0,1-.221,2.222c-.221.89-.443,1.667-.668,2.556a20.545,20.545,0,0,1-5.447,8.545Zm1.892-9.778c.221-.556.443-1.111.668-1.667a14.3,14.3,0,0,0,.334-2.109V54.444a11.143,11.143,0,0,0-.221-1.888,16.362,16.362,0,0,0-3.22-6.888,7.681,7.681,0,0,0-1.224-1.445,15.423,15.423,0,0,0-1.332-1.332A29.667,29.667,0,0,0,85,40.556,34.3,34.3,0,0,0,77,36a31.727,31.727,0,0,1,5.442,6.666A33.538,33.538,0,0,1,87.329,64a32.586,32.586,0,0,1-8.111,5.113,54.928,54.928,0,0,1-12.556,3.667,17.216,17.216,0,0,1-3.333.443c-1.111.113-2.335.334-3.446.334s-2.335.221-3.446.113H53.1l-3.776-.221c-1.224-.113-2.222-.221-3.333-.334-2.222-.334-4.557-.668-6.779-1.111a52.12,52.12,0,0,1-12.335-4.331,37.811,37.811,0,0,1-6.445-4.223A33.691,33.691,0,0,1,32.879,34.116,44.313,44.313,0,0,0,22.766,39a29.155,29.155,0,0,0-2.89,2.222l-1.332,1.332A16.831,16.831,0,0,0,17.211,44a17.577,17.577,0,0,0-3.554,6.666,8.165,8.165,0,0,0-.334,1.888l-.113,1.111v.89c.113.668.113,1.224.221,1.888.221.668.334,1.224.556,1.888a17.711,17.711,0,0,0,4.778,6.445A38.286,38.286,0,0,0,22.1,67.442a32.8,32.8,0,0,0,3.889,2.222A55.649,55.649,0,0,0,34.432,73c1.445.443,3,.777,4.557,1.111.777.113,1.554.334,2.335.443l2.335.334c1.554.334,3.112.334,4.557.556,1.554.113,3.333.221,4.778.221a79.046,79.046,0,0,0,18.553-1.888,51.314,51.314,0,0,0,8.554-2.89,31.635,31.635,0,0,0,3.889-2,27.058,27.058,0,0,0,3.446-2.443,18.17,18.17,0,0,0,5.447-6.445ZM81.105,30.222a8.111,8.111,0,1,0-8.111-8.111A8.158,8.158,0,0,0,81.105,30.222ZM14.33,78.995a4,4,0,1,0,4,4,3.851,3.851,0,0,0-4-4Zm79.218-.777a5.334,5.334,0,1,0,5.334,5.334A5.335,5.335,0,0,0,93.547,78.218Z" transform="translate(-10 -14)" fill="#ed3232"/>
</svg>
