<svg xmlns="http://www.w3.org/2000/svg" width="72.001" height="80" viewBox="0 0 72.001 80">
  <path id="np_development_4449624_000000" d="M74.48,15.125H71.813V8.459A5.326,5.326,0,0,0,66.48,3.125H21.146a5.337,5.337,0,0,0-5.333,5.333v6.667H13.146a5.337,5.337,0,0,0-5.333,5.333v40a5.337,5.337,0,0,0,5.333,5.333h24v3.427c-4.963,1.207-8,3.673-8,6.573,0,4.18,6.307,7.333,14.667,7.333s14.667-3.153,14.667-7.333c0-2.9-3.037-5.367-8-6.573V65.792h24a5.337,5.337,0,0,0,5.333-5.333v-40a5.326,5.326,0,0,0-5.333-5.333Zm-23.613-1.72a1.339,1.339,0,0,1,1.893-1.893l6.667,6.667a1.344,1.344,0,0,1,0,1.893L52.76,26.739a1.36,1.36,0,0,1-.947.387,1.345,1.345,0,0,1-.947-2.28l5.733-5.72ZM36.76,24.845a1.339,1.339,0,0,1-1.893,1.893L28.2,20.072a1.344,1.344,0,0,1,0-1.893l6.667-6.667a1.339,1.339,0,0,1,1.893,1.893l-5.733,5.72Zm3.053,8.946a1.333,1.333,0,0,1,0,2.667h-16a1.333,1.333,0,0,1,0-2.667Zm1.227-4.813a1.333,1.333,0,0,1-2.453-1.04l8-18.667a1.327,1.327,0,0,1,.727-.72,1.331,1.331,0,0,1,1.727,1.76ZM23.813,39.125c.11,0,10.7,0,10.667,0a1.333,1.333,0,0,1,0,2.667H23.813a1.333,1.333,0,0,1,0-2.667Zm32,36.667c0,2.2-5.133,4.667-12,4.667-10.343-.093-17.493-5.33-6.33-8.563a6.694,6.694,0,0,0,12.66,0c3.717.967,5.67,2.623,5.67,3.9ZM77.146,60.459a2.674,2.674,0,0,1-2.667,2.667H13.146a2.674,2.674,0,0,1-2.667-2.667v-40a2.674,2.674,0,0,1,2.667-2.667h2.667V43.126a5.337,5.337,0,0,0,5.333,5.333H66.479a5.337,5.337,0,0,0,5.333-5.333V17.792h2.667a2.674,2.674,0,0,1,2.667,2.667Z" transform="translate(-7.813 -3.125)" fill="#ed3232"/>
</svg>
