<svg xmlns="http://www.w3.org/2000/svg" xmlns:xlink="http://www.w3.org/1999/xlink" width="125.577" height="68" viewBox="0 0 125.577 68">
  <defs>
    <linearGradient id="linear-gradient" x1="0.5" x2="0.962" y2="1" gradientUnits="objectBoundingBox">
      <stop offset="0" stop-color="#fff"/>
      <stop offset="1" stop-color="#00baff"/>
    </linearGradient>
  </defs>
  <path id="Union_1" data-name="Union 1" d="M-337.091,67.256a5.29,5.29,0,0,1-1.941-2.022,5.732,5.732,0,0,1-.7-2.808,6.311,6.311,0,0,1,.619-2.787,5.138,5.138,0,0,1,1.71-2.033,4.216,4.216,0,0,1,2.456-.755,3.984,3.984,0,0,1,2.2.65,4.579,4.579,0,0,1,1.595,1.781,5.455,5.455,0,0,1,.588,2.556h-6.463l-.021.67a8.222,8.222,0,0,0,.682,3.573,2.41,2.41,0,0,0,2.361,1.414,4.81,4.81,0,0,0,3.2-1.226,9.861,9.861,0,0,0,2.361-3.007v-4.17a.868.868,0,0,0-.157-.566,1.743,1.743,0,0,0-.377-.335,1.133,1.133,0,0,1-.263-.21l3.4-.8V58.7a5.565,5.565,0,0,1,1.532-1.383,3.062,3.062,0,0,1,1.532-.461,2.3,2.3,0,0,1,1.144.335,2.076,2.076,0,0,1,.787.859l-1.595,1.006a2.081,2.081,0,0,0-.619-.88,1.407,1.407,0,0,0-.913-.335,2.567,2.567,0,0,0-1.91,1.195l-.168.21a8.475,8.475,0,0,0-.765,1.195q-.347.65-.829,1.676l-.356.755Q-330.481,68-334.342,68A5.241,5.241,0,0,1-337.091,67.256Zm.64-8.948a10.359,10.359,0,0,0-.577,3.321h3.987a11.6,11.6,0,0,0-.377-3.457,1.49,1.49,0,0,0-1.532-1.11Q-335.958,57.061-336.451,58.308Zm-12.938,9a2.21,2.21,0,0,1-.756-1.7V58.654a3.872,3.872,0,0,1,2.539-.964h.063V65.8a1.734,1.734,0,0,0,.388,1.2,1.384,1.384,0,0,0,1.081.43,2.985,2.985,0,0,0,1.133-.23,4.542,4.542,0,0,1-2.6.8A2.634,2.634,0,0,1-349.388,67.308Zm-11.2.272a3.232,3.232,0,0,1-1.259-1.194,3.357,3.357,0,0,1-.472-1.781V58.884a.916.916,0,0,0-.147-.555,1.39,1.39,0,0,0-.377-.346,1.112,1.112,0,0,1-.273-.209l3.4-.587V65a1.847,1.847,0,0,0,.619,1.425,2.144,2.144,0,0,0,1.5.566,2.687,2.687,0,0,0,1.175-.284,3.488,3.488,0,0,0,1.091-.849V58.884a.917.917,0,0,0-.147-.555,1.392,1.392,0,0,0-.378-.346,1.113,1.113,0,0,1-.273-.209l3.4-.587v4.631q.42-1.048.692-1.624A6.777,6.777,0,0,1-351.288,59a4.6,4.6,0,0,1,1.144-1.058v-1.76a.914.914,0,0,0-.157-.576,1.607,1.607,0,0,0-.378-.346,1.164,1.164,0,0,1-.262-.209l3.4-.8v2.934h1.595v.189h-1.658a3.96,3.96,0,0,0-3.022,1.152,9.083,9.083,0,0,0-1.825,3.143,10.5,10.5,0,0,1-1.186,2.347q-.661.943-1.69,2.158a5.033,5.033,0,0,1-1.679,1.373,4.221,4.221,0,0,1-1.868.451A3.578,3.578,0,0,1-360.585,67.58Zm-12.077-.524-1.657.755V52.2a.868.868,0,0,0-.157-.566,1.765,1.765,0,0,0-.378-.335,1.127,1.127,0,0,1-.262-.209l3.4-.8v8.592a5.487,5.487,0,0,1,1.51-1.561,3.222,3.222,0,0,1,1.742-.472,3.7,3.7,0,0,1,2.213.755,5.387,5.387,0,0,1,1.669,2.043,6.243,6.243,0,0,1,.63,2.777,5.384,5.384,0,0,1-.756,2.787,5.68,5.68,0,0,1-2.036,2.033,5.4,5.4,0,0,1-2.791.755A5.623,5.623,0,0,1-372.662,67.057Zm2.067-8.938a3.777,3.777,0,0,0-1.122,1.058v7.167a2.313,2.313,0,0,0,2.182,1.467,2.3,2.3,0,0,0,2.214-1.5,9.447,9.447,0,0,0,.682-3.887,7.878,7.878,0,0,0-.42-2.84,2.885,2.885,0,0,0-1.406-1.561,1.914,1.914,0,0,0-.966-.251A2.325,2.325,0,0,0-370.595,58.119Zm15.267,8.54.231-.293.209-.231q.756-.88,1.239-1.519a9.8,9.8,0,0,0,.924-1.52V65.9a.916.916,0,0,0,.147.555,1.39,1.39,0,0,0,.377.346,1.133,1.133,0,0,1,.273.209l-3.4.8Zm-80.293,1.122a.992.992,0,0,1-.953-.529l-8.266-15.875a.958.958,0,0,1,0-1.059,1.268,1.268,0,0,1,.954-.529h39.638V45.766h-36.037a1.2,1.2,0,0,1-.847-.317,1.132,1.132,0,0,1-.213-.846,53.948,53.948,0,0,1,8.692-23.919h15.688a3.186,3.186,0,0,0,3.181-3.176,3.122,3.122,0,0,0-3.181-3.176h-9.963c3.921-4.125,10.6-9.948,23.423-14.287a1.06,1.06,0,0,1,1.378,1.059V49.788h23.953a1.113,1.113,0,0,1,.954.529,1.229,1.229,0,0,1,0,1.059l-8.162,15.875a1.115,1.115,0,0,1-.954.529ZM-404.248,40.9V6.609C-409.124,19.943-409.124,31.48-404.248,40.9Zm75.006,26.766a1.144,1.144,0,0,1,.273-.21,1.38,1.38,0,0,0,.378-.345.921.921,0,0,0,.147-.555v-2.2a13.737,13.737,0,0,0,.735-1.341l.336-.712q.461-.985.8-1.614a9.844,9.844,0,0,1,.735-1.174v7.041a.868.868,0,0,0,.157.566,1.74,1.74,0,0,0,.377.335,1.152,1.152,0,0,1,.263.21Zm-15.7,0a1.127,1.127,0,0,1,.273-.21,1.391,1.391,0,0,0,.378-.345.921.921,0,0,0,.147-.555V52.2a.868.868,0,0,0-.157-.566,1.782,1.782,0,0,0-.378-.335,1.127,1.127,0,0,1-.262-.209l3.4-.8V66.554a.864.864,0,0,0,.157.566,1.741,1.741,0,0,0,.377.335,1.144,1.144,0,0,1,.262.21ZM-376.6,37.607V13.049q0-8.431,8.321-8.431,8.341,0,8.341,8.431V37.607q0,8.431-8.341,8.451Q-376.6,46.058-376.6,37.607Zm5.8-24.557V37.607q0,2.722,2.521,2.722,2.541,0,2.541-2.722V13.049q0-2.7-2.521-2.721h-.041Q-370.8,10.328-370.8,13.049ZM-330.653,45.4V10.962h-5.431V5.253h16.661v5.709h-5.431V45.4Zm-12.174,0-4.1-30.942-4.1,30.942h-5.84l5.984-40.15h7.952l5.964,40.15Zm-54.739,0V5.253h8.935q7.726.02,7.726,8.451V25.1a5.772,5.772,0,0,1-3.177,5.587,5.772,5.772,0,0,1,3.177,5.587v.7q0,8.411-8.1,8.431Zm5.8-5.709h2.541q2.521,0,2.521-2.722v-.7a2.447,2.447,0,0,0-1.578-2.538,5.01,5.01,0,0,0-1.66-.184h-1.824Zm0-11.869h1.824a5.615,5.615,0,0,0,1.66-.164A2.486,2.486,0,0,0-386.7,25.1V13.7q0-2.742-2.521-2.742h-2.541Zm-44.7-9.256a1.061,1.061,0,0,1-1.06-1.058,1.062,1.062,0,0,1,1.06-1.059h19.5a1.061,1.061,0,0,1,1.06,1.059,1.139,1.139,0,0,1-1.06,1.058Zm-7.418-6.878a1.063,1.063,0,0,1-1.06-1.059,1.061,1.061,0,0,1,1.06-1.058h14.1a1,1,0,0,1,1.06,1.058,1.061,1.061,0,0,1-1.06,1.059Zm7.419-6.775a1.14,1.14,0,0,1-1.061-1.059A1.061,1.061,0,0,1-436.467,2.8h15.687a1.061,1.061,0,0,1,1.06,1.058,1,1,0,0,1-1.06,1.059Z" transform="translate(445 0)" fill="url(#linear-gradient)"/>
</svg>
