<svg xmlns="http://www.w3.org/2000/svg" width="85.788" height="80.001" viewBox="0 0 85.788 80.001">
  <path id="np_community_4955552_000000" d="M50.4,10.367A15.151,15.151,0,0,0,41,37.526a24.549,24.549,0,0,0-11.48,9.564,15.271,15.271,0,0,0-14.6,15.17,15.114,15.114,0,0,0,5.9,11.965A24.534,24.534,0,0,0,7.724,86.806a2.521,2.521,0,1,0,4.6,2.07,19.691,19.691,0,0,1,35.762.016l0,0a2.219,2.219,0,0,0,.15.268.1.1,0,0,1,.016.028,2.58,2.58,0,0,0,.268.351.607.607,0,0,1,.047.051,2.981,2.981,0,0,0,.315.276l.059.047a2.46,2.46,0,0,0,.343.193c.02.012.043.028.067.039a.165.165,0,0,1,.039.016,2.747,2.747,0,0,0,.3.1c.067.02.134.035.205.051s.154.02.229.028a1.917,1.917,0,0,0,.256.02,1.766,1.766,0,0,0,.252-.02c.079,0,.158-.016.237-.028s.138-.035.209-.055a2.887,2.887,0,0,0,.3-.1.118.118,0,0,1,.039-.016c.063-.032.13-.063.189-.1a2.452,2.452,0,0,0,.371-.252.039.039,0,0,0,.02-.016,2.192,2.192,0,0,0,.331-.331.419.419,0,0,0,.035-.043,2.594,2.594,0,0,0,.24-.371.146.146,0,0,0,.02-.043c.02-.032.039-.067.059-.1a19.706,19.706,0,0,1,35.782-.016,2.522,2.522,0,0,0,4.6-2.07,24.544,24.544,0,0,0-13.1-12.581A15.119,15.119,0,0,0,85.88,62.257,15.282,15.282,0,0,0,71.254,47.091a24.516,24.516,0,0,0-11.468-9.564,15.157,15.157,0,0,0-9.391-27.159Zm0,5.046A10.143,10.143,0,1,1,40.132,25.545,10.14,10.14,0,0,1,50.4,15.413Zm0,25.331A19.55,19.55,0,0,1,65.616,47.9a15.117,15.117,0,0,0-4.439,26.327,24.6,24.6,0,0,0-10.79,8.563,24.6,24.6,0,0,0-10.8-8.563A15.117,15.117,0,0,0,35.161,47.9,19.6,19.6,0,0,1,50.4,40.744ZM29.937,52.129c.087,0,.181,0,.272,0a10.13,10.13,0,1,1-.272,0Zm40.367,0c.087,0,.177,0,.268,0a10.112,10.112,0,1,1-.268,0Z" transform="translate(-7.499 -10.367)" fill="#ed3232"/>
</svg>
