<svg xmlns="http://www.w3.org/2000/svg" width="112.424" height="80" viewBox="0 0 112.424 80">
  <path id="np_community_2429177_000000" d="M49.369,74.142h3.185l8.035,11.119,8.035-11.119h3.185A13.351,13.351,0,0,1,85.121,87.454v9.917H36.06V87.454A13.351,13.351,0,0,1,49.372,74.142Zm11.22-56.771a9.951,9.951,0,1,0,9.951,9.951A9.949,9.949,0,0,0,60.589,17.371ZM84,30.032a9.951,9.951,0,1,0,9.951,9.951A9.956,9.956,0,0,0,84,30.032Zm-45.962,0a9.951,9.951,0,1,0,9.951,9.951A9.952,9.952,0,0,0,38.034,30.032Zm-22.526,47.5H34.663a11.329,11.329,0,0,1,2.294.235,14.964,14.964,0,0,0-3.548,9.683v9.917H4.145V88.9A11.4,11.4,0,0,1,15.513,77.536Zm9.577-26.721c6.192,0,11.21,3.347,11.21,10.439s-5.019,15.233-11.21,15.233S13.871,68.342,13.871,61.254s5.019-10.439,11.215-10.439ZM86.05,77.541h19.155A11.4,11.4,0,0,1,116.569,88.9v8.466H87.3V87.454a14.964,14.964,0,0,0-3.548-9.683,11.329,11.329,0,0,1,2.294-.235Zm9.577-26.726c6.192,0,11.21,3.347,11.21,10.439s-5.019,15.233-11.21,15.233-11.21-8.146-11.21-15.233,5.019-10.439,11.21-10.439ZM60.584,42.842c7.25,0,13.131,3.922,13.131,12.226S67.834,72.911,60.584,72.911,47.453,63.372,47.453,55.067,53.334,42.842,60.584,42.842Z" transform="translate(-4.145 -17.371)" fill="#ed3232" fill-rule="evenodd"/>
</svg>
