<svg xmlns="http://www.w3.org/2000/svg" width="40" height="40" viewBox="0 0 40 40">
  <path id="Union_10" data-name="Union 10" d="M.084,36.14a.743.743,0,0,1,.5-1.061c1.61-.356,4.732-1.432,4.69-4.408-.069-4.919,4.832-5.374,6.719-4.745h0c2.273.758,6.381,5.058,1.9,10.559a9.17,9.17,0,0,1-4.271,2.952A10.971,10.971,0,0,1,6.3,40,6.712,6.712,0,0,1,.084,36.14Zm24.048,3.735a.48.48,0,0,1-.413-.476V36.968a11.262,11.262,0,0,1-3.887-1.613l-1.719,1.719a.478.478,0,0,1-.631.044,12.133,12.133,0,0,1-1.087-.926,8.182,8.182,0,0,0,1.076-6.726,7.219,7.219,0,0,0-.463-1.2l1.85-2.543c-.006.088-.006.176-.006.263a7.119,7.119,0,1,0,4.68-6.706l4.724-6.512v2.243a11.056,11.056,0,0,1,3.887,1.613L33.862,14.9a.486.486,0,0,1,.631-.043,13.912,13.912,0,0,1,2.626,2.626.476.476,0,0,1-.043.631L35.355,19.83a11.239,11.239,0,0,1,1.613,3.887H39.4a.479.479,0,0,1,.476.413h0A13.765,13.765,0,0,1,40,25.986a14.01,14.01,0,0,1-.124,1.855.48.48,0,0,1-.476.413H36.97a11.263,11.263,0,0,1-1.613,3.887l1.719,1.719a.476.476,0,0,1,.043.631,13.708,13.708,0,0,1-2.626,2.626.476.476,0,0,1-.631-.043l-1.719-1.719a11.245,11.245,0,0,1-3.887,1.613V39.4a.479.479,0,0,1-.413.476A13.82,13.82,0,0,1,25.988,40,14.076,14.076,0,0,1,24.131,39.875ZM21.166,25.951a4.859,4.859,0,1,1,4.86,4.86A4.859,4.859,0,0,1,21.166,25.951Zm-8.622-1.668a3.48,3.48,0,0,0-.624-.161L22.833,2.39A4.337,4.337,0,1,1,30.22,6.876L15.84,26.688h0A7.485,7.485,0,0,0,12.544,24.283Z" transform="translate(0)"/>
</svg>
