<svg xmlns="http://www.w3.org/2000/svg" width="76.67" height="80.001" viewBox="0 0 76.67 80.001">
  <g id="np_dating_3168996_000000" transform="translate(-5.075 -3.125)">
    <path id="Path_842" data-name="Path 842" d="M50.261,81.25a4.167,4.167,0,1,0,4.167,4.167A4.173,4.173,0,0,0,50.261,81.25Zm0,5a.833.833,0,1,1,.833-.833A.834.834,0,0,1,50.261,86.25Z" transform="translate(-6.016 -11.458)" fill="#ed3232"/>
    <path id="Path_843" data-name="Path 843" d="M69.324,31.459V10.791a7.676,7.676,0,0,0-7.667-7.667H31.99a7.676,7.676,0,0,0-7.667,7.667v7.333a1.667,1.667,0,0,0-1.667,1.667v1.667a1.667,1.667,0,0,0,1.667,1.667v1.667a1.667,1.667,0,0,0-1.667,1.667v1.667a1.667,1.667,0,0,0,1.667,1.667V75.459a7.676,7.676,0,0,0,7.667,7.667H61.657a7.676,7.676,0,0,0,7.667-7.667V39.322a1.667,1.667,0,0,0,1.667-1.667v-4.53a1.667,1.667,0,0,0-1.667-1.667ZM65.99,23.612a1.667,1.667,0,0,1-1.667,1.667h-.277a1.667,1.667,0,0,1-1.667-1.667v-3.82a1.667,1.667,0,0,0-3.333,0v3.82a1.667,1.667,0,0,1-1.667,1.667H57.1a1.667,1.667,0,0,1-1.667-1.667l0-3.82a1.667,1.667,0,1,0-3.333,0v3.82a1.667,1.667,0,0,1-1.667,1.667h-.277a1.667,1.667,0,0,1-1.667-1.667v-3.82a1.667,1.667,0,1,0-3.333,0v3.82a1.667,1.667,0,0,1-1.667,1.667h-.277a1.667,1.667,0,0,1-1.667-1.667v-3.82a1.667,1.667,0,1,0-3.333,0v3.82a1.667,1.667,0,0,1-1.667,1.667H36.27A1.667,1.667,0,0,1,34.6,23.612l0-3.82a1.667,1.667,0,1,0-3.333,0v3.82A1.667,1.667,0,0,1,29.6,25.278h-.277a1.667,1.667,0,0,1-1.667-1.667V16.458H65.991v7.153ZM27.656,61.459h30a1.667,1.667,0,0,0,0-3.333h-30v-29.8a5.38,5.38,0,0,0,1.943.287,4.981,4.981,0,0,0,3.333-1.277,5.353,5.353,0,0,0,6.943,0,5.353,5.353,0,0,0,6.943,0,5.353,5.353,0,0,0,6.943,0,5.353,5.353,0,0,0,6.943,0,4.982,4.982,0,0,0,3.333,1.277,5.3,5.3,0,0,0,1.943-.287V64.792H27.649Zm4.333-55H61.657a4.337,4.337,0,0,1,4.333,4.333v2.333H27.657V10.792A4.337,4.337,0,0,1,31.99,6.459ZM61.657,79.793H31.99a4.337,4.337,0,0,1-4.333-4.333V68.127H65.99V75.46a4.337,4.337,0,0,1-4.333,4.333Z" transform="translate(-2.578)" fill="#ed3232"/>
    <path id="Path_844" data-name="Path 844" d="M47.761,12.318h5a1.667,1.667,0,0,0,0-3.333h-5a1.667,1.667,0,0,0,0,3.333Z" transform="translate(-6.016 -0.859)" fill="#ed3232"/>
    <path id="Path_845" data-name="Path 845" d="M14.271,18.463a1.667,1.667,0,1,1-3.333,0,1.667,1.667,0,1,1,3.333,0" transform="translate(-0.86 -2.005)" fill="#ed3232"/>
    <path id="Path_846" data-name="Path 846" d="M22.083,57.525a1.667,1.667,0,1,1-3.333,0,1.667,1.667,0,1,1,3.333,0" transform="translate(-2.006 -7.734)" fill="#ed3232"/>
    <path id="Path_847" data-name="Path 847" d="M16.224,84.869a1.667,1.667,0,1,1-3.333,0,1.667,1.667,0,1,1,3.333,0" transform="translate(-1.146 -11.744)" fill="#ed3232"/>
    <path id="Path_848" data-name="Path 848" d="M84.583,28.229a1.667,1.667,0,1,1-3.333,0,1.667,1.667,0,1,1,3.333,0" transform="translate(-11.172 -3.437)" fill="#ed3232"/>
    <path id="Path_849" data-name="Path 849" d="M92.4,49.713a1.667,1.667,0,1,1-3.333,0,1.667,1.667,0,1,1,3.333,0" transform="translate(-12.317 -6.588)" fill="#ed3232"/>
    <path id="Path_850" data-name="Path 850" d="M86.536,84.869a1.667,1.667,0,1,1-3.333,0,1.667,1.667,0,1,1,3.333,0" transform="translate(-11.458 -11.744)" fill="#ed3232"/>
    <path id="Path_851" data-name="Path 851" d="M84.182,17.652,87.1,20.569a1.666,1.666,0,0,0,2.357-2.357l-1.74-1.74,1.737-1.737a1.668,1.668,0,0,0,0-2.357l-1.737-1.74L89.452,8.9A1.666,1.666,0,1,0,87.1,6.546L84.178,9.462a1.668,1.668,0,0,0,0,2.357l1.74,1.737-1.737,1.737A1.666,1.666,0,0,0,84.182,17.652Z" transform="translate(-11.53 -0.43)" fill="#ed3232"/>
    <path id="Path_852" data-name="Path 852" d="M15.028,75.205a1.665,1.665,0,0,0-1.213-2.02l-1.59-.4,1.253-1.253a1.668,1.668,0,0,0-.853-2.813l-5.557-1.11a1.666,1.666,0,1,0-.653,3.267l2.5.5-1.13,1.13a1.67,1.67,0,0,0,.773,2.8L13,76.415a1.662,1.662,0,0,0,2.023-1.21Z" transform="translate(0 -9.453)" fill="#ed3232"/>
    <path id="Path_853" data-name="Path 853" d="M45.521,41.9a1.667,1.667,0,1,1-3.333,0,1.667,1.667,0,1,1,3.333,0" transform="translate(-5.443 -5.442)" fill="#ed3232"/>
    <path id="Path_854" data-name="Path 854" d="M61.146,59.479a1.667,1.667,0,1,1-3.333,0,1.667,1.667,0,1,1,3.333,0" transform="translate(-7.734 -8.02)" fill="#ed3232"/>
    <path id="Path_855" data-name="Path 855" d="M70.911,69.244a1.667,1.667,0,1,1-3.333,0,1.667,1.667,0,1,1,3.333,0" transform="translate(-9.166 -9.452)" fill="#ed3232"/>
    <path id="Path_856" data-name="Path 856" d="M60.757,41.616a4.48,4.48,0,0,0-3.367-.237,4.441,4.441,0,0,0-2.4-2.367,4.835,4.835,0,0,0-6.39,2.417c-1.66,3.68.827,7.163,2.387,11.293a1.672,1.672,0,0,0,2.15.97c4.177-1.58,8.39-2.007,10.046-5.683a4.834,4.834,0,0,0-2.423-6.393Zm-.617,5.023c-.8,1.78-3.3,2.277-6.65,3.39-1.387-3.267-2.657-5.453-1.857-7.23a1.5,1.5,0,0,1,1.983-.75c.567.257.867.463.93,2.013a1.667,1.667,0,0,0,2.717,1.227c.873-.71,1.257-.8,1.493-.8a1.556,1.556,0,0,1,.63.167,1.505,1.505,0,0,1,.753,1.987Z" transform="translate(-6.302 -5.2)" fill="#ed3232"/>
    <path id="Path_857" data-name="Path 857" d="M42.958,49.383a4.041,4.041,0,0,0-5.343,2.023,3.774,3.774,0,0,0-.29,2.47,4.065,4.065,0,0,0-1.757,4.943,4.015,4.015,0,0,0,2.117,2.253c2.947,1.33,5.653-.593,8.783-1.78a1.671,1.671,0,0,0,.97-2.15c-1.19-3.14-1.52-6.423-4.48-7.76Zm-3.9,8.654A.708.708,0,0,1,38.7,57.1c.127-.283.187-.413,1.143-.45a1.667,1.667,0,0,0,1.227-2.717c-.607-.743-.547-.873-.42-1.157a.706.706,0,0,1,.933-.357c1.08.487,1.47,2.12,2.2,4.37-2.19.953-3.643,1.73-4.727,1.243Z" transform="translate(-4.434 -6.732)" fill="#ed3232"/>
    <path id="Path_858" data-name="Path 858" d="M13.985,46.328a5,5,0,1,0-5-5,5.006,5.006,0,0,0,5,5Zm0-6.667a1.667,1.667,0,1,1-1.667,1.667A1.667,1.667,0,0,1,13.985,39.662Z" transform="translate(-0.573 -4.87)" fill="#ed3232"/>
    <path id="Path_859" data-name="Path 859" d="M87.083,63.672a5.833,5.833,0,1,0,5.833,5.833,5.84,5.84,0,0,0-5.833-5.833Zm0,8.333a2.5,2.5,0,1,1,2.5-2.5A2.5,2.5,0,0,1,87.083,72.005Z" transform="translate(-11.172 -8.88)" fill="#ed3232"/>
  </g>
</svg>
