<svg xmlns="http://www.w3.org/2000/svg" width="77.577" height="79.999" viewBox="0 0 77.577 79.999">
  <path id="Union_5" data-name="Union 5" d="M1.668,80A1.663,1.663,0,0,1,0,78.331V18.3H16.633A1.672,1.672,0,0,0,18.3,16.633V0H57.6A1.672,1.672,0,0,1,59.27,1.668l0,10.633a4.873,4.873,0,0,0-1.714-.3,5.005,5.005,0,0,0-5,5l0,2.21A15.879,15.879,0,0,0,41.657,34.3a15.891,15.891,0,0,0,2.617,8.735l-.6,1.684a5.011,5.011,0,0,0-5.5,1.066,5,5,0,0,0,0,7.066c.617.617,1.265,1.219,1.949,1.786L34.606,70.081a5.031,5.031,0,0,0,3.016,6.4,5.346,5.346,0,0,0,1.7.284,5,5,0,0,0,4.7-3.316L49,59.514a27.335,27.335,0,0,0,8.551,1.367c.567,0,1.148-.015,1.715-.05v17.5A1.673,1.673,0,0,1,57.6,80Zm7-17.73a1.672,1.672,0,0,0,1.669,1.668H26.2a1.668,1.668,0,1,0,0-3.335H10.337A1.66,1.66,0,0,0,8.668,62.269Zm0-7.918a1.672,1.672,0,0,0,1.669,1.668H26.2a1.668,1.668,0,1,0,0-3.335H10.337A1.663,1.663,0,0,0,8.668,54.351Zm0-7.918A1.673,1.673,0,0,0,10.337,48.1H30.8a1.668,1.668,0,1,0,0-3.336H10.337A1.663,1.663,0,0,0,8.668,46.433Zm0-7.917a1.672,1.672,0,0,0,1.669,1.668l20.464,0a1.668,1.668,0,1,0,0-3.335H10.337A1.659,1.659,0,0,0,8.668,38.515Zm0-7.918a1.672,1.672,0,0,0,1.669,1.668l20.464,0a1.668,1.668,0,1,0,0-3.335H10.337A1.662,1.662,0,0,0,8.668,30.6Zm30.113,42.77a1.661,1.661,0,0,1-1-2.133l6.351-17.766a25.07,25.07,0,0,1-3.567-2.949,1.663,1.663,0,1,1,2.352-2.352A21.039,21.039,0,0,0,45.3,50.183l2.75-7.7a12.553,12.553,0,0,1,7.863-20.617V17a1.668,1.668,0,0,1,3.336,0v4.852A12.556,12.556,0,0,1,67.2,42.382l2.75,7.715a19.856,19.856,0,0,0,2.317-1.965,1.663,1.663,0,0,1,2.352,2.352,25.066,25.066,0,0,1-3.5,2.883L77.484,71.2a1.675,1.675,0,0,1-1.015,2.132,1.764,1.764,0,0,1-.566.1h0a1.625,1.625,0,0,1-1.554-1.063L68.18,55.121a23.986,23.986,0,0,1-21.119.031L40.914,72.367a1.671,1.671,0,0,1-1.567,1.1A1.694,1.694,0,0,1,38.781,73.367ZM52.535,34.729a1.663,1.663,0,0,1,1,2.133l-5.383,15.1a20.7,20.7,0,0,0,9.4,2.25h0a20.6,20.6,0,0,0,9.472-2.285L61.64,36.862a1.683,1.683,0,0,1,1.015-2.133,1.661,1.661,0,0,1,2.133,1l.965,2.715A9.1,9.1,0,0,0,64.089,27.76,9.234,9.234,0,0,0,48.32,34.3a9.135,9.135,0,0,0,1.082,4.25l1-2.816a1.687,1.687,0,0,1,2.133-1ZM.986,14.964,14.969.984V14.964Z" fill="#ed3232"/>
</svg>
