<svg xmlns="http://www.w3.org/2000/svg" width="80" height="80" viewBox="0 0 80 80">
  <path id="Union_7" data-name="Union 7" d="M12,80A12,12,0,0,1,0,68V12A12,12,0,0,1,12,0H68A12,12,0,0,1,80,12V68A12,12,0,0,1,68,80ZM8,68a4,4,0,0,0,4,4H68a4,4,0,0,0,4-4V32H8ZM24,16a4,4,0,1,0,4-4A4,4,0,0,0,24,16ZM42,67.872a4.088,4.088,0,0,1-2.854-4.942l.079-.3H35.485l-.63,2.434A3.921,3.921,0,0,1,30,67.872a4.088,4.088,0,0,1-2.854-4.942l.1-.367A4,4,0,0,1,28,54.636h1.294l1.144-4.424H28a4,4,0,1,1,0-8h4.507l.852-3.281a3.918,3.918,0,0,1,4.855-2.805,4.087,4.087,0,0,1,2.85,4.943l-.3,1.144h3.738l.852-3.281a3.918,3.918,0,0,1,4.856-2.805,4.087,4.087,0,0,1,2.85,4.943l-.311,1.215A4,4,0,0,1,52,50.21H50.7l-1.144,4.425H52a4,4,0,1,1,0,8H47.485l-.631,2.434a3.92,3.92,0,0,1-3.794,2.95A3.971,3.971,0,0,1,42,67.872ZM37.555,54.636h3.738l1.144-4.424H38.7Z" fill="#ed3232"/>
</svg>
