<svg xmlns="http://www.w3.org/2000/svg" width="80.051" height="80" viewBox="0 0 80.051 80">
  <path id="np_launch_4724607_000000" d="M81.93,61.244H7.4V47.45a1.379,1.379,0,1,0-2.759,0V68.142A4.139,4.139,0,0,0,8.779,72.28H37.489l-4.021,9.656H30.936a1.379,1.379,0,0,0,0,2.759H58.525a1.379,1.379,0,1,0,0-2.759H56L51.972,72.28H80.554a4.137,4.137,0,0,0,4.138-4.138V24a4.137,4.137,0,0,0-4.138-4.138H59.822a1.379,1.379,0,1,0,0,2.759H80.554A1.379,1.379,0,0,1,81.933,24V61.245ZM35.806,21.034a1.361,1.361,0,0,0-.076.31,38.667,38.667,0,0,0-.655,14.408l.362,2.521c-1.766,1.114-6.425,5.111-6.049,16.122a1.379,1.379,0,0,0,2.062,1.152l6.276-3.573a19.983,19.983,0,0,0,6.256,7.635,1.372,1.372,0,0,0,1.6,0,19.4,19.4,0,0,0,6.2-7.694l6.38,3.635A1.379,1.379,0,0,0,60.232,54.4c.386-11.3-4.538-15.215-6.183-16.2L54.4,35.76A38.62,38.62,0,0,0,48.075,8.523c-1.283-1.883-2.2-3.224-2.2-3.224a1.375,1.375,0,0,0-2.276,0s-.914,1.341-2.2,3.224a38.622,38.622,0,0,0-5.59,12.518ZM40.2,50.754a17.309,17.309,0,0,0,4.583,5.99,16.679,16.679,0,0,0,4.5-5.976l-4.587-3.042L40.2,50.75Zm13.4-9.429-1.117,7.8,4.99,2.842c-.255-6.249-2.459-9.311-3.873-10.649Zm-17.705.124c-1.414,1.4-3.5,4.459-3.742,10.521l4.856-2.766L35.9,41.449ZM29.422,19.862H8.779A4.139,4.139,0,0,0,4.641,24V41.932a1.379,1.379,0,1,0,2.759,0V24A1.378,1.378,0,0,1,8.779,22.62H29.422a1.379,1.379,0,0,0,0-2.759Zm15.263,8.276A5.211,5.211,0,1,0,49.9,33.349a5.213,5.213,0,0,0-5.211-5.211Zm0,2.759a2.452,2.452,0,1,1-2.452,2.452A2.455,2.455,0,0,1,44.685,30.9Zm6.1-9.952a35.878,35.878,0,0,0-5-10.876L44.734,8.517l-1.059,1.552a35.871,35.871,0,0,0-4.99,10.845,11.673,11.673,0,0,0,12.1.031Z" transform="translate(-4.641 -4.695)" fill="#ed3232" fill-rule="evenodd"/>
</svg>
