<svg xmlns="http://www.w3.org/2000/svg" width="52.922" height="60" viewBox="0 0 52.922 60">
  <g id="Group_4661" data-name="Group 4661" transform="translate(-500.999 -1652)">
    <path id="Path_902" data-name="Path 902" d="M43.388,28.121H43.3A21.258,21.258,0,1,0,64.555,49.754H43.388Z" transform="translate(484.438 1637.463)" fill="#6f77fb"/>
    <path id="Path_903" data-name="Path 903" d="M60,17.75a.745.745,0,0,0-1.043,0l-2.408,2.408a.745.745,0,0,0,0,1.043l1.283,1.283L56,24.316a25.3,25.3,0,0,0-4.741-2.64,24.849,24.849,0,0,0-5.342-1.582V16.425h2.678a.738.738,0,0,0,.735-.735V10.747a.738.738,0,0,0-.735-.735H34.307a.738.738,0,0,0-.735.735V15.69a.738.738,0,0,0,.735.735h2.617v3.692a25.458,25.458,0,0,0-5.251,1.568,24.8,24.8,0,0,0-5.429,3.15L24.512,23.1l1.321-1.321a.745.745,0,0,0,0-1.043L23.425,18.33a.745.745,0,0,0-1.043,0l-7.434,7.434a.745.745,0,0,0,0,1.043l2.408,2.408a.745.745,0,0,0,1.043,0l1.283-1.283,1.732,1.732A25.172,25.172,0,1,0,61,28.981l1.673-1.673,1.321,1.321a.745.745,0,0,0,1.043,0l2.408-2.408a.745.745,0,0,0,0-1.043Zm4.433,27.1A22.967,22.967,0,1,1,41.466,21.884,22.992,22.992,0,0,1,64.432,44.853Z" transform="translate(486.264 1641.988)" fill="#ff6c45"/>
  </g>
</svg>
