<svg xmlns="http://www.w3.org/2000/svg" width="84.367" height="80" viewBox="0 0 84.367 80">
  <path id="Union_1" data-name="Union 1" d="M29.214,67.037A12.967,12.967,0,1,1,42.182,80,12.926,12.926,0,0,1,29.214,67.037Zm6.13-1.423a1.985,1.985,0,0,0,0,2.84L38.98,72.1a1.77,1.77,0,0,0,1.422.62,2.1,2.1,0,0,0,1.423-.62l6.75-6.751a2.159,2.159,0,0,0,0-2.84,1.985,1.985,0,0,0-2.841,0l-5.328,5.328-2.219-2.219a1.985,1.985,0,0,0-2.841,0Zm31.436,9.5L60.3,68.635a2.094,2.094,0,0,1,0-2.931l6.483-6.483a2.072,2.072,0,0,1,2.931,2.931l-2.84,2.841H82.234a2.086,2.086,0,0,1,2.13,2.044,2.16,2.16,0,0,1-2.13,2.13H66.87l2.84,2.84a2.228,2.228,0,0,1,.087,3.111,2.144,2.144,0,0,1-3.018,0Zm-52.127-.094a2.041,2.041,0,0,1,0-3.018l2.84-2.844H2.13a2.13,2.13,0,1,1,0-4.26H17.494l-2.84-2.841a2.072,2.072,0,0,1,2.931-2.931l6.571,6.479a2.1,2.1,0,0,1,0,2.932l-6.483,6.483a2.146,2.146,0,0,1-3.018,0Zm39.163-19.71a15.648,15.648,0,0,0-5.6-3.643h-.09V47.405a20.775,20.775,0,0,0-3.729-11.9,17.808,17.808,0,0,1,6.307-4.173,15.861,15.861,0,0,0,22.554,0,17.211,17.211,0,0,1,11.1,16.075v6.04A1.875,1.875,0,0,1,82.5,55.315Zm-51.949,0h0A1.744,1.744,0,0,1,.091,53.448V47.409A17.132,17.132,0,0,1,8.7,32.489c1.686.086,3.286.177,4.885.177h.267a13.922,13.922,0,0,0,8.526,3.285,13.917,13.917,0,0,0,8.527-3.285h.267c1.6,0,3.2-.086,4.884-.177a17.134,17.134,0,0,1,8.613,14.92v3.285c-.888-.087-1.69-.177-2.487-.177a16.673,16.673,0,0,0-11.635,4.795ZM48.932,18.28h0V15.974c-.444-1.953-2.844-10.747,1.686-10.924C49.905-.364,58.235.04,64.881.443c3.277.2,6.145.4,7.318-.1,4-1.69,5.062,9.5,2.932,15.718a18.244,18.244,0,0,1,.09,2.219c0,7.816-5.95,14.209-13.144,14.209C54.8,32.489,48.932,26.1,48.932,18.28ZM61.982,29.2c5.329,0,9.682-4.7,9.859-10.566l-.8.09a.815.815,0,0,1-.8-.888c.267-2.133.711-7.371-1.155-6.928a34.267,34.267,0,0,1-7.1,1.242,28.454,28.454,0,0,1-7.1-1.242c-1.776-.444-1.422,4.8-1.155,6.928a.771.771,0,0,1-.8.888l-.8-.09C52.3,24.493,56.654,29.2,61.982,29.2ZM15.1,29.027a58.353,58.353,0,0,1-10.924-.711h0a1.107,1.107,0,0,1-.268-2.133c2.311-1.241,4.531-3.728,4.531-9.057C8.437.787,18.2-1.256,22.291.611,26.374-1.343,36.233.7,36.233,17.039c0,5.328,2.219,7.816,4.53,9.057a1.184,1.184,0,0,1-.354,2.22,66.747,66.747,0,0,1-10.923.711,10.934,10.934,0,0,1-7.195,3.285A11.105,11.105,0,0,1,15.1,29.027ZM13.41,17.837c0,6.216,5.328,11.368,8.88,11.364s8.971-5.148,8.971-11.454c0-1.065,0-2.04-.09-3.018A9.556,9.556,0,0,1,26.2,9.845c-3.285,3.816-8.79,5.858-12.786,6.125h0Z" transform="translate(0 0)" fill="#ed3232"/>
</svg>
