<svg width="30" height="26" viewBox="0 0 30 26" fill="none" xmlns="http://www.w3.org/2000/svg">
<path fill-rule="evenodd" clip-rule="evenodd" d="M1.1786 11.6286C0.513007 11.7202 0 12.2992 0 12.9998C0 13.7641 0.610521 14.3837 1.36364 14.3837L25.3332 14.3837L16.6745 23.1356L16.5421 23.2905C16.1449 23.8314 16.1874 24.6003 16.6705 25.0926C17.2019 25.6342 18.0653 25.636 18.599 25.0967L29.5795 13.9993C29.6449 13.9358 29.7041 13.8656 29.756 13.79C30.1277 13.2496 30.0754 12.4999 29.5989 12.0184L18.5989 0.903221L18.4457 0.769564C17.911 0.368755 17.1535 0.415075 16.6704 0.907436C16.139 1.44903 16.1409 2.32524 16.6746 2.86451L25.3354 11.6159L1.36364 11.6159L1.1786 11.6286Z" fill="#1A0A0B"/>
</svg>
