<svg xmlns="http://www.w3.org/2000/svg" width="76.971" height="80" viewBox="0 0 76.971 80">
  <path id="Union_4" data-name="Union 4" d="M24.673,80a1.511,1.511,0,0,1-1.517-1.517V75.789a1.91,1.91,0,0,0-.842-1.6,47.162,47.162,0,0,1-8.335-7.244C10.019,62.4,8.588,48.924,8.42,44.966a3.093,3.093,0,0,1,6.062-1.178c.421,1.263,1.263,3.283,2.27,5.47a6.648,6.648,0,0,0,.589,5.389,7.973,7.973,0,0,0,1.01,1.517,48.532,48.532,0,0,0,3.7,4.3c.086.082.168.25.253.336a1.054,1.054,0,0,0,1.349.253,1.1,1.1,0,0,0,.167-1.6l-.335-.336a33.111,33.111,0,0,1-4.378-5.388c-1.431-2.694-.507-4.55.842-5.306a2.461,2.461,0,0,1,3.454.589A41.477,41.477,0,0,0,27.785,54.4,37.988,37.988,0,0,1,32.5,60.378a28.023,28.023,0,0,1,2.951,11.368c.167,2.359.253,5.053.253,6.737A1.511,1.511,0,0,1,34.19,80Zm18.1-.083A1.511,1.511,0,0,1,41.259,78.4c0-1.684.086-4.378.254-6.737.335-4.8,1.77-9.43,2.947-11.368a57.817,57.817,0,0,1,4.717-5.98,48.783,48.783,0,0,0,4.378-5.389,2.463,2.463,0,0,1,3.454-.589c1.263.76,2.19,2.612.842,5.306a29.966,29.966,0,0,1-4.378,5.389l-.336.335a1.035,1.035,0,0,0,.168,1.6,1.167,1.167,0,0,0,1.348-.254c.086-.082.167-.249.253-.335,1.431-1.6,2.776-3.033,3.7-4.3a7.9,7.9,0,0,0,1.01-1.517,6.34,6.34,0,0,0,.589-5.388,52.347,52.347,0,0,0,2.273-5.388h0a3.083,3.083,0,0,1,6.062,1.1c-.253,3.961-1.684,17.435-5.559,21.98a47.052,47.052,0,0,1-8.335,7.243,1.91,1.91,0,0,0-.842,1.6V78.4a1.511,1.511,0,0,1-1.517,1.517Zm-6.9-28.8V35.033H17.516A9.562,9.562,0,0,1,8,25.516V21.052H4.043A4.044,4.044,0,0,1,0,17.009V4.043A4.044,4.044,0,0,1,4.043,0H17.009a4.043,4.043,0,0,1,4.043,4.043V17.092a4.043,4.043,0,0,1-4.043,4.043H13.22V25.6a4.315,4.315,0,0,0,4.3,4.3H35.871l0-8.842H32a4.043,4.043,0,0,1-4.043-4.043V4.043A4.043,4.043,0,0,1,32,0H44.966a4.044,4.044,0,0,1,4.043,4.043l0,12.967a4.044,4.044,0,0,1-4.043,4.043H41.094v8.756l18.355,0a4.315,4.315,0,0,0,4.3-4.3V21.052H59.957a4.044,4.044,0,0,1-4.043-4.043V4.043A4.044,4.044,0,0,1,59.957,0H72.925a4.1,4.1,0,0,1,4.043,4.043l0,12.967a4.043,4.043,0,0,1-4.043,4.043H68.971v4.464a9.563,9.563,0,0,1-9.517,9.517H41.1l0,16.085a2.612,2.612,0,1,1-5.223,0ZM32.923,9.852a1.453,1.453,0,0,0-.167,2.02l3.2,3.874a1.437,1.437,0,0,0,2.191,0L44.035,8.5a1.433,1.433,0,1,0-2.187-1.852l-4.885,5.894-2.02-2.526a1.454,1.454,0,0,0-1.105-.5A1.4,1.4,0,0,0,32.923,9.852ZM69.136,15.24a1.421,1.421,0,0,0,2.02,0,1.375,1.375,0,0,0,0-2.02l-2.694-2.694,2.694-2.694a1.375,1.375,0,0,0,0-2.02,1.375,1.375,0,0,0-2.02,0L66.443,8.507,63.749,5.812a1.375,1.375,0,0,0-2.02,0,1.375,1.375,0,0,0,0,2.02l2.694,2.694L61.729,13.22a1.375,1.375,0,0,0,0,2.02,1.421,1.421,0,0,0,2.02,0l2.694-2.694Zm-56,0a1.421,1.421,0,0,0,2.02,0,1.375,1.375,0,0,0,0-2.02L12.46,10.526l2.694-2.694a1.375,1.375,0,0,0,0-2.02,1.375,1.375,0,0,0-2.02,0L10.44,8.507,7.746,5.812a1.375,1.375,0,0,0-2.019,0,1.375,1.375,0,0,0,0,2.02L8.42,10.526,5.727,13.22a1.375,1.375,0,0,0,0,2.02,1.552,1.552,0,0,0,1.01.421,1.552,1.552,0,0,0,1.01-.421l2.694-2.694Z" fill="#ed3232"/>
</svg>
