<svg xmlns="http://www.w3.org/2000/svg" width="28.8" height="40" viewBox="0 0 28.8 40">
  <path id="np_premium_791002_000000" d="M32.657,40.846,30.4,34.312a5.974,5.974,0,0,0,3.961-2.438.189.189,0,0,1,.156-.082h.061a5.914,5.914,0,0,0,4.91-.5l2.219,6.431a1,1,0,0,1-1.325,1.238L37.264,37.67a.9.9,0,0,0-1.13.387l-1.65,2.938a1,1,0,0,1-1.827-.148ZM15.7,18.351a3.082,3.082,0,0,0,0-3.679,3.082,3.082,0,0,1,1.55-4.781,3.082,3.082,0,0,0,2.163-2.975,3.072,3.072,0,0,1,4.067-2.954,3.063,3.063,0,0,0,.986.161,3.08,3.08,0,0,0,2.512-1.3,3.081,3.081,0,0,1,5.024,0,3.08,3.08,0,0,0,2.512,1.3,3.063,3.063,0,0,0,.986-.161A3.072,3.072,0,0,1,39.57,6.916a3.082,3.082,0,0,0,2.163,2.975,3.082,3.082,0,0,1,1.55,4.781,3.082,3.082,0,0,0,0,3.679,3.081,3.081,0,0,1-1.55,4.781,3.082,3.082,0,0,0-2.163,2.975A3.072,3.072,0,0,1,35.5,29.06,3.082,3.082,0,0,0,32,30.187a3.081,3.081,0,0,1-5.024,0,3.084,3.084,0,0,0-3.5-1.139,3.072,3.072,0,0,1-4.067-2.954,3.081,3.081,0,0,0-2.163-2.973,3.083,3.083,0,0,1-1.55-4.77Zm8.9-2.528,1.877,1.827-.445,2.583a.784.784,0,0,0,1.138.825l2.319-1.238,2.319,1.238a.784.784,0,0,0,1.138-.825L32.5,17.65l1.877-1.827a.783.783,0,0,0-.433-1.336L31.354,14.1l-1.16-2.34a.785.785,0,0,0-1.407,0L27.628,14.1l-2.591.375A.783.783,0,0,0,24.6,15.81Zm1.724,25.024,2.258-6.534a5.974,5.974,0,0,1-3.961-2.438.189.189,0,0,0-.156-.082h-.061a5.9,5.9,0,0,1-4.905-.5l-2.224,6.434A1,1,0,0,0,18.6,38.961l3.118-1.288a.9.9,0,0,1,1.13.388L24.5,41a1,1,0,0,0,1.827-.153Z" transform="translate(-15.092 -1.528)"/>
</svg>
