<svg xmlns="http://www.w3.org/2000/svg" width="45.779" height="89.994" viewBox="0 0 45.779 89.994">
  <path id="np_next_890011_000000" d="M27.345,50.922c-.027-.055-.062-.109-.086-.168a1.789,1.789,0,0,1-.059-.191c-.016-.059-.039-.117-.051-.176s-.016-.129-.023-.2a1.133,1.133,0,0,1,0-.375,1.664,1.664,0,0,1,.023-.2,1.488,1.488,0,0,1,.051-.176c.02-.066.035-.129.059-.191a1.36,1.36,0,0,1,.086-.168,2.033,2.033,0,0,1,.1-.18,1.564,1.564,0,0,1,.125-.156,1.2,1.2,0,0,1,.109-.137l41.777-43A2,2,0,0,1,72.321,8.4L31.9,50l40.426,41.6a2,2,0,1,1-2.867,2.789l-41.777-43c-.043-.043-.07-.09-.109-.137a1.564,1.564,0,0,1-.125-.156c-.043-.059-.066-.121-.1-.18Z" transform="translate(-27.111 -5.006)" opacity="0.5"/>
</svg>
