<svg width="30" height="26" viewBox="0 0 30 26" fill="none" xmlns="http://www.w3.org/2000/svg">
<path fill-rule="evenodd" clip-rule="evenodd" d="M28.8214 14.3714C29.487 14.2798 30 13.7008 30 13.0002C30 12.2359 29.3895 11.6163 28.6364 11.6163L4.66678 11.6163L13.3255 2.86443L13.4579 2.7095C13.8551 2.16857 13.8126 1.39967 13.3295 0.907352C12.7981 0.365801 11.9347 0.363986 11.401 0.903299L0.42051 12.0007C0.355115 12.0642 0.295947 12.1344 0.244027 12.21C-0.127727 12.7504 -0.0753605 13.5001 0.401114 13.9816L11.4011 25.0968L11.5543 25.2304C12.089 25.6312 12.8465 25.5849 13.3296 25.0926C13.861 24.551 13.8591 23.6748 13.3254 23.1355L4.66462 14.384L28.6364 14.3841L28.8214 14.3714Z" fill="#1A0A0B"/>
</svg>
