<svg xmlns="http://www.w3.org/2000/svg" xmlns:xlink="http://www.w3.org/1999/xlink" width="372.645" height="143.895" viewBox="0 0 372.645 143.895">
  <defs>
    <filter id="logo" x="0" y="0" width="372.645" height="143.895" filterUnits="userSpaceOnUse">
      <feOffset input="SourceAlpha"/>
      <feGaussianBlur stdDeviation="15" result="blur"/>
      <feFlood flood-color="#f0b"/>
      <feComposite operator="in" in2="blur"/>
      <feComposite in="SourceGraphic"/>
    </filter>
  </defs>
  <g transform="matrix(1, 0, 0, 1, 0, 0)" filter="url(#logo)">
    <path id="logo-2" data-name="logo" d="M5761.546,4633.761c4.357-.714,8.487-1.8,11.863-4.75a7.062,7.062,0,0,0,1.746-2.366c1.011-2.274-.3-4.016-2.759-3.826C5768.109,4623.149,5762.052,4629.157,5761.546,4633.761Zm143-20.266a2.689,2.689,0,0,1-2.59,2c-1.4-.042-2.317-.7-2.3-2.2.011-1.358,1.657-3.149,2.889-2.867C5904.221,4610.813,5905.127,4611.841,5904.542,4613.495ZM5757.1,4600.879c-2.746,2.213-5.137,4.673-4.964,8.541a3.613,3.613,0,0,0,1.45,2.753,4.052,4.052,0,0,0,3.317-.414C5760.2,4609.574,5760.306,4603.607,5757.1,4600.879Zm-39.146,27.4c-.634,9.946,5.921,17.161,15.2,17.158,9.073,0,14.772-7.219,12.236-15.937-1.021-3.509-3-6.731-4.463-10.123a36.8,36.8,0,0,1-2.553-6.752c-1.907-9.057,4.5-16.771,13.747-16.024,3.848.311,7.292.209,10.739-1.432a5,5,0,0,1,2.5-.383c1.421.132,2.017,1.5.309,2.129-1.828.673-3.7,1.212-5.874,1.9,2.566,3.03,3.546,6.165,2.468,9.475a14.042,14.042,0,0,1-3.318,5.512,5.9,5.9,0,0,1-7.152.858,5.544,5.544,0,0,1-2.787-6.373c1.119-3.921,2.6-6.278,5.853-8.358-6.973-2.332-13.691,2.93-13.216,9.531a19.928,19.928,0,0,0,1.72,6.314c1.382,3.192,3.216,6.185,4.662,9.353,6.337,13.9-4.419,24.229-16.545,23.242-11.025-.9-17.642-8.916-17.334-20.356a3.154,3.154,0,0,1,5.482-2.491,27.488,27.488,0,0,0,14.194,6.9c1.861.272,1.369,3.034-.562,2.824a27.315,27.315,0,0,1-13.29-5.38C5719.368,4629.417,5718.787,4628.931,5717.958,4628.278Zm105.153-2.373-.781.07c-2.257,3.767-4.474,7.558-6.784,11.293-2.024,3.273-.6,6.554,3.236,7.277,4.665.879,8.67-2.546,7.884-7.414C5826.048,4633.3,5824.337,4629.641,5823.112,4625.905Zm155.265-.058c-.32.254-.459.316-.523.423q-3.435,5.762-6.856,11.532a3.918,3.918,0,0,0,1.237,5.731,6.574,6.574,0,0,0,10.315-5.143c.305-4.738-2.4-8.429-4.173-12.544Zm-137.144,13.771c.083,1.622.383,3.469,2.239,4.481a4.524,4.524,0,0,0,5.021-.566,17.143,17.143,0,0,0,4.328-4.032c2.437-3.721,4.626-7.618,6.693-11.561,1.211-2.308.251-4.259-2.291-4.774a9.144,9.144,0,0,0-4.563.187c-5.865,2-11.271,9.728-11.428,16.264Zm85.407-9.979c.1-6.027-3.559-8.409-8.162-5.863a16.8,16.8,0,0,0-9.065,14.05c-.2,2.553.416,4.925,2.87,6.187a6.093,6.093,0,0,0,6.8-.976c1.313-1.041,2.016-2.849,3.322-3.9,3.338-2.7,3.663-6.508,4.236-9.494Zm9.452,11.91a41.152,41.152,0,0,1-5.125,2.183c-1.331.37-3.023.71-4.171.2-2.493-1.108-4.066-.091-6.044,1.2a13.461,13.461,0,0,1-5.938,2.035c-4.7.424-7.492-1.91-9.157-7.315-.7.766-1.233,1.452-1.868,2.029a37.255,37.255,0,0,1-4.508,3.89c-5.091,3.312-9.2,1.45-10.695-5.008a17.127,17.127,0,0,1-2.562,2.618c-2.1,1.376-4.207,3.12-6.556,3.676-4.115.976-6.536-1.306-7.506-6.433-.547.515-.958.926-1.4,1.308a41.474,41.474,0,0,1-4.521,3.872c-5.164,3.341-9.586,1.162-10.768-5.454a18.31,18.31,0,0,1-2.675,2.816c-2.136,1.45-4.274,3.291-6.677,3.867-4.41,1.057-7.224-1.527-8.515-7.183-3.644,3.747-7.845,6.34-12.891,7.079-4.985.73-9.945.909-12.96-4.363-1.593,1.205-3.03,2.462-4.628,3.458-2.384,1.488-4.993,1.945-7.424.212-2.521-1.8-2.656-4.557-1.827-7.157a80.026,80.026,0,0,1,3.414-7.8,38.907,38.907,0,0,0,2.046-4.91c.75-2.634-.75-4.159-3.358-3.3a21.584,21.584,0,0,0-12.5,10.413c-1.828,3.347-2.991,7.057-4.448,10.606a7.321,7.321,0,0,1-.91,2.14c-1.109,1.239-2.824.767-2.6-.885a31.819,31.819,0,0,1,1.153-4.116c-1.2.888-1.923,1.449-2.672,1.975a19.856,19.856,0,0,1-11.053,4.06c-7.2.171-10.724-3.673-9.928-10.808a19.091,19.091,0,0,1,14.3-16.031c3.106-.7,6.026.261,7.2,2.372,1.341,2.422.695,5.386-1.854,7.672-3.686,3.3-8.226,4.7-12.985,5.529-.907.158-1.815.314-2.684.464-1.424,4.567.992,8.06,5.627,8.022,5.5-.045,9.824-2.83,13.407-6.639a28.936,28.936,0,0,0,4.47-6.9c1.432-2.854,2.431-5.922,3.666-8.876.489-1.17,1.26-2.323,2.714-1.642,1.43.67.764,1.938.338,2.982a13.7,13.7,0,0,0-1.068,3.045,60.672,60.672,0,0,1,4.879-3.828c2.391-1.528,4.883-3.053,7.959-2.133,2.634.788,3.973,2.521,3.7,5.228a15.9,15.9,0,0,1-1.248,4.478c-.855,2.029-1.977,3.945-2.918,5.939a15.742,15.742,0,0,0-1.293,3.377c-.345,1.639-.954,3.566.8,4.717s3.444.178,4.888-.958c4.411-3.473,7.077-8.317,9.968-12.961a42.038,42.038,0,0,0,2.987-5.9c.62-1.473.834-3.111,1.354-4.633a23.588,23.588,0,0,1,2.075-5.031c.791-1.253,4.19-1.193,3.614,1.793-.277,1.435-1.162,2.744-1.559,4.17a5.312,5.312,0,0,0-.148,3.113c.946,2.372,2.266,4.591,3.347,6.912,1.952,4.194,3.211,8.42-.06,12.69a22.077,22.077,0,0,0,10.829-10.765c2.65-5.478,6.548-9.624,12.372-11.73,3.628-1.311,7-1.051,9.946,1.945a12.354,12.354,0,0,1,1.907-2.156,2.17,2.17,0,0,1,1.881-.139,1.758,1.758,0,0,1,.645,1.573,24.648,24.648,0,0,1-1.412,3.31c-1.609,3.636-3.346,7.223-4.765,10.931a13.131,13.131,0,0,0-.67,5.033c.1,2.815,2.262,4.117,4.772,2.8a16.372,16.372,0,0,0,4.309-3.417,26.306,26.306,0,0,0,6.1-9.672c.894-2.753,2.089-5.409,3.231-8.319a14.438,14.438,0,0,1-2.841-.187c-2.588-.688-.477-2.605.6-2.392,3.239.648,4.6-1.4,5.748-4.065a59.528,59.528,0,0,1,3.317-6.211c.63-1.09,1.382-2.535,2.94-1.629s.615,2.3.061,3.392c-1.373,2.715-2.853,5.376-4.5,8.457a23.505,23.505,0,0,1,3.687.054c2.635.458.435,2.69-.559,2.458-3.761-.885-5.325,1.255-6.34,4.413-.957,2.976-2.2,5.859-3.183,8.827a17.514,17.514,0,0,0-.7,3.981c-.144,1.658-.13,3.419,1.575,4.346,1.794.975,3.487.283,4.964-.854a26.825,26.825,0,0,0,8.048-10.079c1.528-3.289,3.007-6.6,4.57-9.871a8.968,8.968,0,0,1,1.664-2.46,1.5,1.5,0,0,1,2.617,1.333c-.46,1.475-1.318,2.821-1.912,4.261-1.542,3.735-3.055,7.483-4.509,11.253a4.153,4.153,0,0,0-.269,2.3c.346,1.437.565,3.29,1.551,4.1,1.471,1.2,3.286.2,4.646-.939a26.87,26.87,0,0,0,8.139-10.776c2.438-6.2,6.6-10.583,13.3-12.114,5.432-1.24,9.7,1.951,10.052,7.512.249,3.916-1.077,7.414-3.008,10.729-.354.609-.75,1.2-1.119,1.782,1.807,1.584,4.343,1.6,6.841-.11a19.811,19.811,0,0,0,6.959-8.473c1.295-2.926,2.4-5.937,3.6-8.9,1.419-3.5,4.35-2.7,3.686-.309a30.428,30.428,0,0,1-1.812,4.125c2.279-1.731,4.141-3.376,6.223-4.665,2.169-1.342,4.5-2.513,7.247-1.583,2.709.917,4.278,3.218,3.47,5.964-.8,2.7-2.125,5.25-3.2,7.875a34.711,34.711,0,0,0-2.25,5.954c-.245,1.2.12,3.287.919,3.75a4.754,4.754,0,0,0,4.057-.375,18.089,18.089,0,0,0,4.522-4.161,75.156,75.156,0,0,0,10.139-17.008,27.581,27.581,0,0,0,.535-2.909,17.95,17.95,0,0,1,1.8-4.679c.931-1.406,4.206-1.553,3.758,1.791a8.99,8.99,0,0,1-1.428,3.522,3.842,3.842,0,0,0-.092,4.2c1.314,2.6,2.674,5.192,3.831,7.868,1.885,4.36,1.716,6.718-.21,11.118a32.364,32.364,0,0,0,4.494-3.18c1.865-1.837,3.388-4.017,5.173-5.944,1.675-1.8,2.853.086,2.022,1.4-5.035,7.982-12.956,12.358-22.086,11.41-2.92-.3-4.61-1.437-6.9-4.447a58.942,58.942,0,0,1-4.775,3.479c-2.337,1.383-4.911,1.794-7.236.061-2.353-1.755-2.66-4.368-1.815-6.958.81-2.484,2.016-4.841,3.065-7.247a36.757,36.757,0,0,0,2.1-4.886c.3-1.111.377-2.956-.261-3.478a4.313,4.313,0,0,0-3.678-.3,21.69,21.69,0,0,0-11.221,9.468c-1.96,3.518-3.268,7.4-4.859,11.122-.112.26-.147.553-.254.814-.469,1.144-.685,2.906-2.405,2.34-1.752-.578-.761-2.111-.486-3.283.158-.676.376-1.338.639-2.255Z" transform="translate(-5669.04 -4549.66)" fill="#fff" stroke="#f0b" stroke-width="0.2"/>
  </g>
</svg>
