<svg xmlns="http://www.w3.org/2000/svg" width="40.661" height="40" viewBox="0 0 40.661 40">
  <path id="np_working_1941699_000000" d="M7.622,44.732H3.546a13.4,13.4,0,0,1,2.434-6.74l.741,5.945a.907.907,0,0,0,.9.8Zm34-6.941a13.27,13.27,0,0,1,2.588,6.941H39.95a.907.907,0,0,0,.9-.8Zm-8-15.841h-3.03a15.893,15.893,0,0,0,.272-6.633l-.472.129h-.558a2.563,2.563,0,0,1-.729-.129l-.713-3.109v3.109a7.394,7.394,0,0,0-1.166,0c-.482.068-.727.272-.969.272a11.017,11.017,0,0,1-1.912-.272q-.212,0-.546-3.679-.572,3.951-.81,3.951h-2.06L21,11.638l-.633,3.679H19.138c-.5,0-1,.272-1.313.272a3.256,3.256,0,0,1-1.1-.272A15.868,15.868,0,0,0,17,21.95H13.977a51.935,51.935,0,0,1,.451-5.923c.657-4.658,5.434-11.447,9.333-11.292,4.629.186,8.384,4.764,9.494,11.292a41.335,41.335,0,0,1,.359,5.923ZM6,22.94H41.584a.907.907,0,0,1,.907.907.829.829,0,0,1-.007.112L40,43.935a.908.908,0,0,1-.9.8H8.472a.908.908,0,0,1-.9-.8L5.1,23.96a.907.907,0,0,1,.79-1.013A.788.788,0,0,1,6,22.94Zm17.792,14.61a3.715,3.715,0,1,0-3.713-3.715A3.715,3.715,0,0,0,23.792,37.551ZM24,31.464,25.981,32.9a.365.365,0,0,1,.131.407l-.754,2.322a.364.364,0,0,1-.346.25H22.571a.364.364,0,0,1-.346-.25l-.754-2.322A.365.365,0,0,1,21.6,32.9l1.977-1.435a.363.363,0,0,1,.426,0Z" transform="translate(-3.546 -4.732)"/>
</svg>
