<svg xmlns="http://www.w3.org/2000/svg" width="553.311" height="88.538" viewBox="0 0 553.311 88.538">
  <path id="Path_2356" data-name="Path 2356" d="M16.56-5.76c8.19,2.97,11.52,5.13,11.52,7.2a2.744,2.744,0,0,1-.81,1.89c-2.25,3.06-10.26,7.2-17.28,9.27-2.07.63-2.25.63-2.79.09-.45-.45-.63-.45-1.98-.09C2.16,13.68.63,15.21.63,17.37c0,2.34,1.35,3.96,3.96,4.86,3.15,1.17,9.45.27,15.57-2.34,6.3-2.52,12.24-7.56,14.49-12.24C37.53,1.89,36.9-2.79,32.49-7.2c-2.34-2.43-5.4-4.5-11.43-7.47-7.92-3.96-10.26-5.76-10.62-7.92-1.08-5.67,15.3-26.28,25.74-32.49a4.654,4.654,0,0,1,1.8-.81c.45.45-4.23,7.56-8.73,13.5-6.3,8.01-7.56,10.8-5.58,12.6,1.8,1.53,3.87.45,8.28-4.59a89.94,89.94,0,0,0,9.36-11.88c6.03-9,7.2-13.68,4.23-16.83-1.98-2.16-4.59-2.79-8.28-1.8-2.52.63-8.55,3.69-11.7,6.03C16.74-52.47,6.48-41.67,2.16-34.02-1.62-27.54-2.16-21.15.54-16.47a21.2,21.2,0,0,0,5.13,5.49A65.79,65.79,0,0,0,16.56-5.76ZM52.47-26.1a4.677,4.677,0,0,1,4.59,2.61c.63,1.17.72,1.8.72,4.41,0,2.88,0,3.15-.99,5.04-1.35,2.7-5.49,7.02-7.83,8.19-2.52,1.35-2.79,1.08-2.79-2.16,0-3.51,1.17-9.27,2.88-14.85C50.04-25.92,50.31-26.1,52.47-26.1ZM42.93,2.25c4.32,1.53,9-.36,14.22-5.67,6.21-6.57,8.37-12.78,6.93-19.71-.9-4.68-3.96-8.64-7.47-9.99a14.54,14.54,0,0,0-8.55,0c-1.89.99-4.23,3.15-4.59,4.32a19.563,19.563,0,0,1-1.71,3.42,39.432,39.432,0,0,0-3.96,9.72,19.428,19.428,0,0,0-.63,6.84c.18,3.24.27,4.23.9,5.67A10.281,10.281,0,0,0,42.93,2.25ZM85.32-29.52a3.287,3.287,0,0,0-2.88-3.24c-4.86-.54-13.41,9.36-17.1,19.8-.9,2.79-.99,3.15-.99,7.29s0,4.5.81,6.21a9.809,9.809,0,0,0,4.95,4.95,13,13,0,0,0,7.2.18c3.33-1.08,8.19-3.96,13.14-7.92,3.24-2.61,7.11-6.21,8.19-7.83,1.44-1.89.99-3.78-.9-4.77-1.26-.63-2.16-.63-4.86.09-2.88.9-6.03,2.52-11.97,6.39-2.52,1.71-4.68,3.06-4.77,3.06-.36,0-.18-2.34.45-5.13,1.35-6.57,4.41-13.5,7.11-16.2C85.14-28.08,85.32-28.44,85.32-29.52ZM95.4-27.18A68.866,68.866,0,0,0,92.97-7.29c0,6.84,0,7.38.63,8.64a5.035,5.035,0,0,0,1.71,2.07c2.16,1.35,4.41-.09,5.04-3.15.09-.81.72-4.41,1.35-8.01.54-3.6,1.44-8.82,1.98-11.7,1.17-6.48,1.53-12.6.81-13.86a3.579,3.579,0,0,0-3.33-2.16C98.28-35.46,97.02-33.66,95.4-27.18Zm15.48-30.78c.09-1.89,0-2.07-.81-2.97a2.861,2.861,0,0,0-2.25-1.08c-1.89-.27-3.06.54-4.23,2.97-1.8,3.96-1.62,7.74.36,8.82,2.07,1.17,3.87.09,5.58-3.24A10.06,10.06,0,0,0,110.88-57.96Zm15.21,36.99a112.112,112.112,0,0,1-9.18,12.96c-2.25,2.52-2.88,2.97-2.88,2.25,0-.81,2.07-6.12,3.42-8.73,4.59-9.18,11.61-16.83,13.95-15.12.45.36.45.45-.99,2.16C129.6-26.37,127.71-23.49,126.09-20.97Zm-9.18-8.28a44.064,44.064,0,0,0-9,12.42c-5.85,11.34-5.76,20.25.27,22.5a8.052,8.052,0,0,0,6.21-.63c3.24-1.8,7.56-6.84,12.6-14.85,1.35-2.16,2.52-3.96,2.52-3.96a10.721,10.721,0,0,1,.45,2.34c.81,5.31,2.34,8.37,4.77,9.18.9.27,1.17.27,1.8-.27,1.17-.72,1.35-1.62,1.62-7.11.18-2.7.45-5.94.63-7.38.54-3.78.27-8.64-.45-10.26a4.733,4.733,0,0,0-3.51-2.52c-.81,0-.9,0-.72-1.26.54-3.87-4.23-6.03-9-4.05C121.95-33.84,119.97-32.4,116.91-29.25ZM141.12,8.64c.81.72,1.08.9,2.07.81a1.747,1.747,0,0,0,1.53-.81c.18-.54.81-3.51,1.44-6.66a260.1,260.1,0,0,1,7.11-29.07c7.74-25.2,9.36-31.14,9.18-33.03a3.016,3.016,0,0,0-2.97-2.79c-1.17,0-1.44.27-2.52,1.44-1.62,1.8-4.86,8.28-7.2,14.4C144.63-33.66,141.03-16.65,139.5.54,139.5,5.94,139.68,7.02,141.12,8.64Zm44.46,14.31a2.79,2.79,0,0,0,2.43-.99c1.17-1.08,1.35-1.89,1.98-7.83.99-11.07,3.42-30.6,3.78-30.6a35.773,35.773,0,0,1,.99,4.41c1.35,6.84,3.69,14.04,5.4,16.47a3.83,3.83,0,0,0,3.42,1.35,15.345,15.345,0,0,0,2.88-2.43c4.32-4.32,8.1-11.07,16.92-30.15,1.98-4.41,3.78-8.01,3.78-7.92a53.524,53.524,0,0,1-.63,6.12c-1.8,14.58-2.43,31.14-1.26,36.72,1.17,5.67,3.06,8.37,6.3,8.37a4.215,4.215,0,0,0,4.14-3.6,68.417,68.417,0,0,0,.63-6.93c.99-19.08,1.17-20.61,3.78-38.97,3.15-22.05,3.33-27.27,1.08-30.51a4.367,4.367,0,0,0-4.86-1.8,8.744,8.744,0,0,0-4.41,3.24c-.72.9-1.26,2.25-4.5,10.89-3.24,8.37-7.83,18.63-12.15,27.36-2.34,4.59-10.26,19.17-10.62,19.53-.27.36-1.35-5.4-1.98-10.35-.72-5.76-.99-11.88-1.35-23.22-.45-14.31-.54-15.39-2.16-17.91a7.435,7.435,0,0,1-.99-2.16,5.6,5.6,0,0,0-1.08-1.8,4.624,4.624,0,0,0-7.29.54c-3.06,4.14-8.55,32.67-10.44,54.36A88.241,88.241,0,0,0,179.1,7.2c.18,10.44,1.17,13.68,4.23,15.48A4.034,4.034,0,0,0,185.58,22.95Zm77.31-53.64c.72-.18,1.08-.18,1.17.09a10.436,10.436,0,0,0,1.62,1.8,4.725,4.725,0,0,1,1.44,1.8c0,.99-3.69,3.87-6.48,5.31-2.97,1.44-4.68,1.89-4.68,1.26,0-.81,3.15-6.66,4.5-8.28C261.54-29.97,262.08-30.6,262.89-30.69Zm-6.75,17.1a17.607,17.607,0,0,0,9.54-3.42,24.136,24.136,0,0,0,5.76-6.39,8.788,8.788,0,0,0,.81-6.48c-.81-2.52-4.23-4.23-6.48-3.15l-.99.54v-.99c0-1.17-1.44-2.52-2.88-2.79-2.52-.45-6.66,1.71-10.44,5.58a34.537,34.537,0,0,0-8.64,14.4c-1.53,5.31-1.08,11.25,1.26,14.85a12.848,12.848,0,0,0,8.64,5.76c5.31.9,10.8-1.44,15.93-6.57,2.61-2.61,3.87-4.77,3.87-6.57,0-2.34-1.17-3.78-2.34-2.79a10.924,10.924,0,0,1-2.16,1.44c-.9.63-2.52,1.53-3.6,2.25a21.954,21.954,0,0,1-6.93,2.79,2.941,2.941,0,0,1-3.33-1.35,11.966,11.966,0,0,1-.36-5.49l.18-1.35Zm40.05-14.13.09,1.44c.09,1.26,0,1.62-1.8,4.14A86.446,86.446,0,0,1,283.23-8.37a9.759,9.759,0,0,1-2.34,2.07c-.36,0,0-.99,1.62-4.41,3.78-8.1,8.82-14.85,12.42-16.38ZM270.45-6.03c-.27,6.21,2.16,9.72,6.93,9.72,4.41,0,10.08-4.95,16.56-14.4l1.35-2.07.09,1.89c.36,8.64,1.71,13.59,4.41,15.12a3.461,3.461,0,0,0,5.31-1.98,19.4,19.4,0,0,0,.36-3.87c0-6.93.72-10.98,5.13-28.8,5.04-20.7,5.4-24.57,2.07-26.82-2.16-1.44-4.5-.27-6.66,3.24-2.34,4.05-5.94,13.32-7.56,19.62-.36,1.53-.36,1.53-1.26,1.44a13.02,13.02,0,0,0-6.93.45c-5.85,2.16-13.41,9.72-17.01,16.83A21.935,21.935,0,0,0,270.45-6.03Zm43.02-21.15a68.867,68.867,0,0,0-2.43,19.89c0,6.84,0,7.38.63,8.64a5.035,5.035,0,0,0,1.71,2.07c2.16,1.35,4.41-.09,5.04-3.15.09-.81.72-4.41,1.35-8.01.54-3.6,1.44-8.82,1.98-11.7,1.17-6.48,1.53-12.6.81-13.86a3.579,3.579,0,0,0-3.33-2.16C316.35-35.46,315.09-33.66,313.47-27.18Zm15.48-30.78c.09-1.89,0-2.07-.81-2.97a2.861,2.861,0,0,0-2.25-1.08c-1.89-.27-3.06.54-4.23,2.97-1.8,3.96-1.62,7.74.36,8.82,2.07,1.17,3.87.09,5.58-3.24A10.06,10.06,0,0,0,328.95-57.96Zm15.21,36.99a112.107,112.107,0,0,1-9.18,12.96c-2.25,2.52-2.88,2.97-2.88,2.25,0-.81,2.07-6.12,3.42-8.73,4.59-9.18,11.61-16.83,13.95-15.12.45.36.45.45-.99,2.16C347.67-26.37,345.78-23.49,344.16-20.97Zm-9.18-8.28a44.065,44.065,0,0,0-9,12.42c-5.85,11.34-5.76,20.25.27,22.5a8.052,8.052,0,0,0,6.21-.63c3.24-1.8,7.56-6.84,12.6-14.85,1.35-2.16,2.52-3.96,2.52-3.96a10.72,10.72,0,0,1,.45,2.34c.81,5.31,2.34,8.37,4.77,9.18.9.27,1.17.27,1.8-.27,1.17-.72,1.35-1.62,1.62-7.11.18-2.7.45-5.94.63-7.38.54-3.78.27-8.64-.45-10.26a4.733,4.733,0,0,0-3.51-2.52c-.81,0-.9,0-.72-1.26.54-3.87-4.23-6.03-9-4.05C340.02-33.84,338.04-32.4,334.98-29.25ZM409.5-50.31l.54-2.97,2.07-.27c4.14-.45,9.9.36,11.97,1.71q3.375,2.295,0,9.45c-2.61,5.31-7.2,11.25-14.76,18.81-4.5,4.41-5.49,5.22-5.49,4.5,0-.54,2.25-13.77,3.6-20.52C408.24-43.83,409.14-48.6,409.5-50.31Zm-18.36,4.95c-.36-.81-.36-.99.18-1.35,1.17-.9,4.05-2.25,4.05-1.89,0,.09-.36,1.71-.72,3.24-1.44,5.49-3.69,18.27-5.04,27.54a122.331,122.331,0,0,0-1.08,19.44c.36,11.34,1.98,16.83,5.4,18.54a4.268,4.268,0,0,0,6.12-1.98c.45-.9.54-2.16.81-8.55.09-4.05.36-8.64.54-10.17.18-1.44.27-2.79.27-2.97a7.345,7.345,0,0,1,2.52-2.07,99.116,99.116,0,0,0,23.58-23.94c3.6-5.49,6.48-12.15,7.2-16.65.9-6.12-1.8-11.79-7.2-14.4-4.59-2.43-8.82-3.06-17.82-2.7-6.03.27-6.57.27-7.92.99-.72.36-2.52,1.08-3.96,1.71-9.09,3.24-14.49,7.92-14.49,12.6,0,3.6,2.43,5.13,6.48,4.14C391.5-44.19,391.59-44.28,391.14-45.36ZM439.29-26.1a4.677,4.677,0,0,1,4.59,2.61c.63,1.17.72,1.8.72,4.41,0,2.88,0,3.15-.99,5.04-1.35,2.7-5.49,7.02-7.83,8.19-2.52,1.35-2.79,1.08-2.79-2.16,0-3.51,1.17-9.27,2.88-14.85C436.86-25.92,437.13-26.1,439.29-26.1ZM429.75,2.25c4.32,1.53,9-.36,14.22-5.67,6.21-6.57,8.37-12.78,6.93-19.71-.9-4.68-3.96-8.64-7.47-9.99a14.54,14.54,0,0,0-8.55,0c-1.89.99-4.23,3.15-4.59,4.32a19.563,19.563,0,0,1-1.71,3.42,39.432,39.432,0,0,0-3.96,9.72,19.428,19.428,0,0,0-.63,6.84c.18,3.24.27,4.23.9,5.67A10.281,10.281,0,0,0,429.75,2.25Zm28.44-.99a3.7,3.7,0,0,0,1.89-1.8,15.533,15.533,0,0,0,1.26-5.76c0-.81.45-1.8,2.34-4.68,3.96-6.03,12.33-15.75,13.5-15.75a4.182,4.182,0,0,1,1.44.72c1.98,1.8,5.13,2.16,6.66.99.99-.72.99-1.35-.09-2.7-3.69-4.86-4.32-5.58-5.31-6.12-2.7-1.26-4.95-.09-9.36,5.31-1.26,1.44-3.15,3.96-4.41,5.67-1.17,1.62-2.25,2.97-2.25,2.97a6.63,6.63,0,0,1,.45-2.25c1.8-7.2,1.8-9.54-.18-11.16-1.8-1.71-4.41-1.26-5.94.81-1.08,1.53-2.7,6.03-3.96,10.71-1.71,6.84-2.16,9.9-2.16,15.21,0,5.58.36,6.66,2.61,7.83C456.3,2.07,456.57,2.07,458.19,1.26Zm29.25,4.59c1.26.72,1.89.72,2.52.09.45-.36.54-1.35.54-5.31a107.148,107.148,0,0,1,1.35-17.37l.09-.27v-.45l.09-.09v-.63l.09-.27.09-.27v-.45l.09-.18v-.27l.09-.36v-.27l.09-.09v-.36l.09-.18v-.36l.09-.27v-.09l.09-.27v-.45l.09-.27v-.18l.09-.18v-.36l.09-.27v-.09l.09-.27v-.36l.09-.18v-.18l.09-.27v-.09l.09-.36v-.45l.09-.36.09-.36v-.18l.09-.18v-.27l.09-.09v-.36l.09-.45.09-.36v-.09l.09-.27v-.18l.09-.18v-.27l.09-.18v-.36l.09-.36v-.09l.09-.36v-.09l.09-.27v-.18l.09-.18.09-.36v-.09l.09-.36v-.36l.09-.09v-.36l.09-.18v-.18l.09-.45.09-.27v-.09l.09-.36v-.09l.09-.36v-.09l.09-.27v-.18l.09-.27v-.27l.09-.09.09-.36.09-.45v-.36l.09-.18v-.18l.09-.27v-.18l.09-.27v-.09l.09-.45.09-.36v-.09l.09-.27c6.12-.09,15.66,0,18.54.27,2.25.18,2.61.09,3.06-.27a3.1,3.1,0,0,0,.72-1.44c.36-1.71-1.17-3.24-4.41-4.14-2.16-.54-9-1.08-16.38-1.26v-.09l.09-.09v-.36l.09-.18v-.18l.09-.09v-.36l.09-.09v-.18l.09-.18v-.36l.09-.09v-.36l.09-.45.09-.09v-.36h.09v-.36l.09-.18v-.27l.09-.09v-.36l.09-.18v-.36h.09v-.45l.09-.18v-.36h.09v-.54l.09-.09V-54a2.622,2.622,0,0,0-.99-2.25c-1.17-1.08-2.25-1.35-3.6-.54-1.17.72-2.34,2.7-4.05,6.66v.09h-.09v.18l-.09.09v.09l-.09.27-.09.09v.09l-.09.27h-.09v.18l-.09.18v.09h-.09v.18l-.09.18v.09l-.09.09v.09l-.09.09v.18h-.09v.18l-.09.09v.18l-.09.09v.09l-.09.09v.09c-2.52,0-4.86.09-6.84.18-10.71.45-15.93,1.53-17.19,3.33a3.627,3.627,0,0,0,1.08,5.13c1.08.63,3.87.54,10.17-.18,3.69-.54,7.02-.81,10.26-1.08v.09l-.09.18v.36l-.09.27-.09.09v.18l-.09.27-.09.27-.09.18v.09l-.09.27v.27l-.09.27-.09.27-.09.18v.09l-.09.36v.09l-.09.36v.09l-.09.36v.09l-.09.09-.09.27v.09l-.27,1.35-.09.45-.09.09v.27l-.09.09v.18l-.09.63-.09.18-.09.36v.27l-.09.27-.09.45v.18l-.09.27-.09.27v.27l-.09.27v.27l-.09.36v.27l-.09.18V-27l-.09.09v.18l-.09.54v.27l-.09.36v.09l-.09.36v.36l-.09.18v.45l-.09.27v.27l-.09.27v.54l-.09.09v.54l-.09.27v.54a100.354,100.354,0,0,0-.18,17.19C483.48.9,485.19,4.77,487.44,5.85Zm28.35-26.82a112.1,112.1,0,0,1-9.18,12.96c-2.25,2.52-2.88,2.97-2.88,2.25,0-.81,2.07-6.12,3.42-8.73,4.59-9.18,11.61-16.83,13.95-15.12.45.36.45.45-.99,2.16C519.3-26.37,517.41-23.49,515.79-20.97Zm-9.18-8.28a44.065,44.065,0,0,0-9,12.42c-5.85,11.34-5.76,20.25.27,22.5a8.052,8.052,0,0,0,6.21-.63c3.24-1.8,7.56-6.84,12.6-14.85,1.35-2.16,2.52-3.96,2.52-3.96a10.724,10.724,0,0,1,.45,2.34c.81,5.31,2.34,8.37,4.77,9.18.9.27,1.17.27,1.8-.27,1.17-.72,1.35-1.62,1.62-7.11.18-2.7.45-5.94.63-7.38.54-3.78.27-8.64-.45-10.26a4.733,4.733,0,0,0-3.51-2.52c-.81,0-.9,0-.72-1.26.54-3.87-4.23-6.03-9-4.05C511.65-33.84,509.67-32.4,506.61-29.25ZM530.82,8.64c.81.72,1.08.9,2.07.81a1.747,1.747,0,0,0,1.53-.81c.18-.54.81-3.51,1.44-6.66a260.1,260.1,0,0,1,7.11-29.07c7.74-25.2,9.36-31.14,9.18-33.03a3.016,3.016,0,0,0-2.97-2.79c-1.17,0-1.44.27-2.52,1.44-1.62,1.8-4.86,8.28-7.2,14.4C534.33-33.66,530.73-16.65,529.2.54,529.2,5.94,529.38,7.02,530.82,8.64Z" transform="translate(1.148 65.554)" fill="#ff6c45"/>
</svg>
