<svg id="Software_Florida" xmlns="http://www.w3.org/2000/svg" xmlns:xlink="http://www.w3.org/1999/xlink" width="125.969" height="165" viewBox="0 0 125.969 165">
  <defs>
    <radialGradient id="radial-gradient" cx="0.5" cy="0.5" r="1.371" gradientUnits="objectBoundingBox">
      <stop offset="0" stop-color="#c60600"/>
      <stop offset="1" stop-color="#930600"/>
    </radialGradient>
    <radialGradient id="radial-gradient-4" cx="0.519" cy="0.49" r="0.51" xlink:href="#radial-gradient"/>
    <radialGradient id="radial-gradient-5" r="0.394" xlink:href="#radial-gradient"/>
    <radialGradient id="radial-gradient-6" cy="0.502" r="0.492" xlink:href="#radial-gradient"/>
    <radialGradient id="radial-gradient-7" cy="0.498" r="0.49" xlink:href="#radial-gradient"/>
    <radialGradient id="radial-gradient-8" cx="0.498" r="0.438" xlink:href="#radial-gradient"/>
    <radialGradient id="radial-gradient-9" cx="0.501" r="0.412" xlink:href="#radial-gradient"/>
    <radialGradient id="radial-gradient-10" cx="0.501" cy="0.504" r="0.491" xlink:href="#radial-gradient"/>
    <radialGradient id="radial-gradient-11" cx="0.501" cy="0.498" r="0.513" xlink:href="#radial-gradient"/>
    <radialGradient id="radial-gradient-12" cx="0.499" r="0.362" xlink:href="#radial-gradient"/>
    <radialGradient id="radial-gradient-13" cx="0.499" cy="0.502" r="0.491" xlink:href="#radial-gradient"/>
    <radialGradient id="radial-gradient-14" r="0.647" xlink:href="#radial-gradient"/>
    <radialGradient id="radial-gradient-15" cx="0.499" r="0.492" xlink:href="#radial-gradient"/>
    <radialGradient id="radial-gradient-17" cx="0.499" cy="0.499" r="0.508" xlink:href="#radial-gradient"/>
    <radialGradient id="radial-gradient-19" r="0.5" xlink:href="#radial-gradient"/>
  </defs>
  <path id="Path_217" data-name="Path 217" d="M127.672,5H5V142.986l61.336,23.6,61.336-23.6V5Z" transform="translate(-3.351 -3.351)" fill="#fff"/>
  <path id="Path_218" data-name="Path 218" d="M532.065,311,469.08,286.769V146H595.049V286.769Zm-59.687-26.5,59.687,22.961L591.752,284.5V149.3H472.378Z" transform="translate(-469.08 -146)" fill="#8d0200"/>
  <path id="Path_219" data-name="Path 219" d="M29.92,380.56v7.914L83.012,408.9,136.1,388.474V380.56L83.012,400.986Z" transform="translate(-20.053 -255.066)" fill="url(#radial-gradient)"/>
  <path id="Path_220" data-name="Path 220" d="M29.92,347.06v7.914L83.012,375.4,136.1,354.974V347.06L83.012,367.485Z" transform="translate(-20.053 -232.613)" fill="url(#radial-gradient)"/>
  <path id="Path_221" data-name="Path 221" d="M29.92,313.56v7.914L83.012,341.9,136.1,321.474V313.56L83.012,333.986Z" transform="translate(-20.053 -210.16)" fill="url(#radial-gradient)"/>
  <path id="Path_222" data-name="Path 222" d="M640.131,182.792s-5.57.725-5.632.917,4.02,4.049,4.02,4.049-1.032,5.524-.871,5.639,5.095-2.569,5.095-2.569,4.946,2.688,5.091,2.569-.867-5.639-.867-5.639,4.083-3.858,4.02-4.049-5.632-.917-5.632-.917-2.414-5.072-2.612-5.072S640.131,182.792,640.131,182.792Z" transform="translate(-579.949 -167.26)" fill="url(#radial-gradient-4)"/>
  <path id="Path_223" data-name="Path 223" d="M617.959,284.2v2.509h-3.545v10.552h-3.176V286.71H607.73V284.2Z" transform="translate(-562.008 -238.627)"/>
  <path id="Path_224" data-name="Path 224" d="M651.566,284.442a6.265,6.265,0,0,1,2.374,2.381,7.255,7.255,0,0,1,0,6.9,6.335,6.335,0,0,1-2.384,2.391,6.905,6.905,0,0,1-6.664,0,6.357,6.357,0,0,1-2.384-2.391,7.221,7.221,0,0,1,0-6.9,6.33,6.33,0,0,1,2.384-2.381,6.925,6.925,0,0,1,6.684,0Zm-5.817,3.083a4.557,4.557,0,0,0,0,5.474,3.486,3.486,0,0,0,4.92,0,4.528,4.528,0,0,0,0-5.467,3.509,3.509,0,0,0-4.946,0Z" transform="translate(-584.73 -238.213)"/>
  <path id="Path_225" data-name="Path 225" d="M690.146,292.675v4.58H687V284.2h5.118a5.005,5.005,0,0,1,3.545,1.154,4.083,4.083,0,0,1,1.217,3.11,4.289,4.289,0,0,1-.544,2.17,3.753,3.753,0,0,1-1.616,1.5,5.692,5.692,0,0,1-2.6.544Zm3.509-4.211q0-1.715-1.9-1.715h-1.606v3.4h1.606Q693.658,290.146,693.655,288.464Z" transform="translate(-615.138 -238.627)"/>
  <path id="Path_226" data-name="Path 226" d="M584.026,349.789a2.371,2.371,0,0,1-.989.89,3.521,3.521,0,0,1-1.6.33,3.77,3.77,0,0,1-2.328-.689,2.484,2.484,0,0,1-.989-1.923h2.16a1.151,1.151,0,0,0,.33.749,1.045,1.045,0,0,0,.742.27.867.867,0,0,0,.62-.211.759.759,0,0,0,.224-.57.733.733,0,0,0-.208-.534,1.59,1.59,0,0,0-.518-.35c-.2-.092-.488-.2-.854-.33a10.607,10.607,0,0,1-1.3-.531,2.367,2.367,0,0,1-.867-.758,2.463,2.463,0,0,1,.02-2.605,2.4,2.4,0,0,1,1.049-.838,3.825,3.825,0,0,1,1.537-.29,3.443,3.443,0,0,1,2.226.66,2.55,2.55,0,0,1,.933,1.83h-2.2a1.131,1.131,0,0,0-.3-.66.894.894,0,0,0-.659-.244.831.831,0,0,0-.574.191.689.689,0,0,0-.221.557.705.705,0,0,0,.2.5,1.5,1.5,0,0,0,.491.33c.2.086.481.2.854.33a9.759,9.759,0,0,1,1.319.541,2.52,2.52,0,0,1,.877.778,2.209,2.209,0,0,1,.369,1.319A2.309,2.309,0,0,1,584.026,349.789Z" transform="translate(-542.143 -277.63)"/>
  <path id="Path_227" data-name="Path 227" d="M604.7,348.349a3.011,3.011,0,0,1,1.224,1.181,3.878,3.878,0,0,1,0,3.608,3.017,3.017,0,0,1-1.224,1.184,4.016,4.016,0,0,1-3.532,0,3.014,3.014,0,0,1-1.23-1.184,3.878,3.878,0,0,1,0-3.608,3.007,3.007,0,0,1,1.23-1.181A4.016,4.016,0,0,1,604.7,348.349Zm-2.73,1.768a1.712,1.712,0,0,0-.4,1.217,1.689,1.689,0,0,0,.4,1.21,1.319,1.319,0,0,0,.989.416,1.293,1.293,0,0,0,.989-.416,1.7,1.7,0,0,0,.389-1.21,1.724,1.724,0,0,0-.389-1.217,1.286,1.286,0,0,0-.989-.422A1.319,1.319,0,0,0,601.967,350.116Z" transform="translate(-556.486 -281.348)"/>
  <path id="Path_228" data-name="Path 228" d="M625.689,341.945a1.035,1.035,0,0,0-.726.214.99.99,0,0,0-.251.689h1.2v1.708h-1.2v4.917h-2.028v-4.917h-.795v-1.708h.795v-.063a2.476,2.476,0,0,1,.719-1.906,2.966,2.966,0,0,1,2.081-.66h.429v1.744Z" transform="translate(-571.499 -276.174)"/>
  <path id="Path_229" data-name="Path 229" d="M639.477,349.783v1.748h-.917a2.638,2.638,0,0,1-1.81-.577,2.452,2.452,0,0,1-.66-1.906v-2.434h-.89v-1.708h.89V343.28h2.031v1.626h1.319v1.708h-1.319v2.47a.758.758,0,0,0,.158.547.774.774,0,0,0,.541.152Z" transform="translate(-580.42 -278.224)"/>
  <path id="Path_230" data-name="Path 230" d="M660,348.19l-1.7,6.625h-2.259l-1.2-4.442-1.21,4.442h-2.269l-1.7-6.625H651.7l.877,4.772,1.237-4.772h2.16l1.27,4.785.877-4.785Z" transform="translate(-590.118 -281.515)"/>
  <path id="Path_231" data-name="Path 231" d="M686.315,348.242a2.087,2.087,0,0,1,.808.936v-1.2h2.018v6.625h-2.018v-1.2a2.072,2.072,0,0,1-.808.937,2.381,2.381,0,0,1-1.319.33,2.707,2.707,0,0,1-1.467-.409,2.813,2.813,0,0,1-1.019-1.184,4.531,4.531,0,0,1,0-3.627,2.806,2.806,0,0,1,1.019-1.174,2.681,2.681,0,0,1,1.467-.409A2.381,2.381,0,0,1,686.315,348.242Zm-1.7,1.863a1.979,1.979,0,0,0,0,2.374,1.487,1.487,0,0,0,2.1,0,1.9,1.9,0,0,0,0-2.354,1.5,1.5,0,0,0-2.1,0Z" transform="translate(-611.875 -281.3)"/>
  <path id="Path_232" data-name="Path 232" d="M710.681,348.326A2.5,2.5,0,0,1,712,347.97v2.173h-.584a2.021,2.021,0,0,0-1.253.33,1.388,1.388,0,0,0-.445,1.164v3.017H707.69v-6.612h2.028V349.3A2.879,2.879,0,0,1,710.681,348.326Z" transform="translate(-629.005 -281.367)"/>
  <path id="Path_233" data-name="Path 233" d="M728.827,351.743h-4.6a1.543,1.543,0,0,0,.383,1.075,1.22,1.22,0,0,0,.877.33,1.2,1.2,0,0,0,.749-.227,1.058,1.058,0,0,0,.392-.58h2.147a2.836,2.836,0,0,1-.567,1.253,3.036,3.036,0,0,1-1.118.864,3.516,3.516,0,0,1-1.507.33,3.588,3.588,0,0,1-1.728-.409,2.936,2.936,0,0,1-1.181-1.184,3.628,3.628,0,0,1-.429-1.8,3.709,3.709,0,0,1,.422-1.81,2.893,2.893,0,0,1,1.181-1.174,3.9,3.9,0,0,1,3.466,0,2.823,2.823,0,0,1,1.157,1.134,3.361,3.361,0,0,1,.412,1.678A2.8,2.8,0,0,1,728.827,351.743Zm-2.345-1.834a1.3,1.3,0,0,0-.9-.33,1.319,1.319,0,0,0-.927.33,1.411,1.411,0,0,0-.416.989h2.589a1.226,1.226,0,0,0-.349-.989Z" transform="translate(-638.762 -281.388)"/>
  <path id="Path_234" data-name="Path 234" d="M564.5,389.188a3.719,3.719,0,0,1-1.52,1.491,4.85,4.85,0,0,1-2.335.534H557.48v-8.4h3.169a4.926,4.926,0,0,1,2.341.524,3.627,3.627,0,0,1,1.514,1.471A4.8,4.8,0,0,1,564.5,389.188Zm-2.186-.422a2.7,2.7,0,0,0,0-3.538,2.568,2.568,0,0,0-1.847-.63h-.96v4.8h.96a2.569,2.569,0,0,0,1.847-.63Z" transform="translate(-528.329 -304.722)"/>
  <path id="Path_235" data-name="Path 235" d="M589.406,391.716h-4.594a1.53,1.53,0,0,0,.379,1.075,1.224,1.224,0,0,0,.877.33,1.191,1.191,0,0,0,.749-.228,1.042,1.042,0,0,0,.392-.58h2.15a2.842,2.842,0,0,1-.57,1.253,3.038,3.038,0,0,1-1.118.864,3.5,3.5,0,0,1-1.507.33,3.594,3.594,0,0,1-1.728-.409,2.968,2.968,0,0,1-1.181-1.184,4.079,4.079,0,0,1,0-3.627,2.9,2.9,0,0,1,1.184-1.174,3.9,3.9,0,0,1,3.466,0,2.862,2.862,0,0,1,1.157,1.134,3.357,3.357,0,0,1,.409,1.678,2.791,2.791,0,0,1-.066.538Zm-2.345-1.833a1.293,1.293,0,0,0-.9-.33,1.336,1.336,0,0,0-.927.33,1.411,1.411,0,0,0-.416.989h2.589a1.217,1.217,0,0,0-.35-.989Z" transform="translate(-545.32 -308.171)"/>
  <path id="Path_236" data-name="Path 236" d="M608.081,392.83l1.438-4.64h2.16l-2.351,6.625h-2.516l-2.351-6.625h2.157Z" transform="translate(-559.817 -308.325)"/>
  <path id="Path_237" data-name="Path 237" d="M634.436,391.743h-4.6a1.543,1.543,0,0,0,.383,1.075,1.22,1.22,0,0,0,.877.33,1.2,1.2,0,0,0,.749-.228,1.058,1.058,0,0,0,.392-.58h2.147a2.807,2.807,0,0,1-.57,1.253,3,3,0,0,1-1.115.864,3.516,3.516,0,0,1-1.507.33,3.588,3.588,0,0,1-1.728-.409,2.935,2.935,0,0,1-1.181-1.184,3.627,3.627,0,0,1-.429-1.8,3.71,3.71,0,0,1,.422-1.81,2.892,2.892,0,0,1,1.181-1.174,3.9,3.9,0,0,1,3.466,0,2.823,2.823,0,0,1,1.157,1.134,3.36,3.36,0,0,1,.412,1.678,2.8,2.8,0,0,1-.059.524Zm-2.345-1.833a1.3,1.3,0,0,0-.9-.33,1.319,1.319,0,0,0-.927.33,1.411,1.411,0,0,0-.415.989h2.589A1.227,1.227,0,0,0,632.092,389.909Z" transform="translate(-575.498 -308.197)"/>
  <path id="Path_238" data-name="Path 238" d="M653.218,381.64v8.785H651.19V381.64Z" transform="translate(-591.137 -303.935)"/>
  <path id="Path_239" data-name="Path 239" d="M665.754,388.348a2.991,2.991,0,0,1,1.223,1.181,3.878,3.878,0,0,1,0,3.608,3,3,0,0,1-1.223,1.184,3.749,3.749,0,0,1-1.761.409,3.809,3.809,0,0,1-1.771-.409A3.007,3.007,0,0,1,661,393.136a3.878,3.878,0,0,1,0-3.608,3,3,0,0,1,1.227-1.181,3.77,3.77,0,0,1,1.771-.409A3.709,3.709,0,0,1,665.754,388.348Zm-2.747,1.768a1.7,1.7,0,0,0-.4,1.217,1.675,1.675,0,0,0,.4,1.21,1.3,1.3,0,0,0,.989.415,1.283,1.283,0,0,0,.989-.415,1.7,1.7,0,0,0,.392-1.21,1.725,1.725,0,0,0-.392-1.217,1.37,1.37,0,0,0-1.979,0Z" transform="translate(-597.411 -308.156)"/>
  <path id="Path_240" data-name="Path 240" d="M690.2,388.371a2.813,2.813,0,0,1,1.022,1.174,4.567,4.567,0,0,1,0,3.627,2.818,2.818,0,0,1-1.022,1.184,2.707,2.707,0,0,1-1.467.409,2.378,2.378,0,0,1-1.319-.33,1.978,1.978,0,0,1-.8-.937v4.356H684.6v-9.81h2.028v1.2a2.008,2.008,0,0,1,.8-.937,2.377,2.377,0,0,1,1.319-.33A2.68,2.68,0,0,1,690.2,388.371Zm-3.156,1.8a1.9,1.9,0,0,0,0,2.355,1.484,1.484,0,0,0,2.1,0,1.979,1.979,0,0,0,0-2.374,1.494,1.494,0,0,0-2.1,0Z" transform="translate(-613.53 -308.179)"/>
  <path id="Path_241" data-name="Path 241" d="M714.513,391.77h-4.584a1.543,1.543,0,0,0,.379,1.075,1.233,1.233,0,0,0,.88.33,1.2,1.2,0,0,0,.748-.228,1.035,1.035,0,0,0,.389-.58h2.15a2.807,2.807,0,0,1-.59,1.266,3.027,3.027,0,0,1-1.115.864,3.516,3.516,0,0,1-1.507.33,3.588,3.588,0,0,1-1.728-.409,2.915,2.915,0,0,1-1.181-1.184,3.628,3.628,0,0,1-.429-1.8,3.71,3.71,0,0,1,.422-1.81,2.872,2.872,0,0,1,1.18-1.174,3.9,3.9,0,0,1,3.466,0,2.863,2.863,0,0,1,1.158,1.134,3.358,3.358,0,0,1,.409,1.678,2.805,2.805,0,0,1-.049.511Zm-2.345-1.833a1.283,1.283,0,0,0-.894-.33,1.319,1.319,0,0,0-.927.33,1.385,1.385,0,0,0-.416.989h2.589a1.217,1.217,0,0,0-.353-.989Z" transform="translate(-629.164 -308.224)"/>
  <path id="Path_242" data-name="Path 242" d="M734.331,388.326a2.513,2.513,0,0,1,1.319-.356v2.173h-.584a2.021,2.021,0,0,0-1.253.33,1.388,1.388,0,0,0-.445,1.164v3.017H731.34v-6.612h2.028V389.3A2.879,2.879,0,0,1,734.331,388.326Z" transform="translate(-644.857 -308.177)"/>
  <path id="Path_243" data-name="Path 243" d="M750.87,388.561a2.753,2.753,0,0,1,.943,1.649h-1.9a1.069,1.069,0,0,0-.373-.633,1.138,1.138,0,0,0-.732-.231.8.8,0,0,0-.521.148.514.514,0,0,0-.175.439.5.5,0,0,0,.33.465,5.185,5.185,0,0,0,1.026.307,10.147,10.147,0,0,1,1.247.363,2.044,2.044,0,0,1,.844.6,1.649,1.649,0,0,1,.356,1.115,1.688,1.688,0,0,1-.31,1.009,2,2,0,0,1-.89.689,3.436,3.436,0,0,1-1.375.251,3.545,3.545,0,0,1-2.15-.594,2.51,2.51,0,0,1-.989-1.7h1.959a.887.887,0,0,0,.363.66,1.358,1.358,0,0,0,.815.224.762.762,0,0,0,.521-.158.544.544,0,0,0,.178-.422.5.5,0,0,0-.33-.491,6.147,6.147,0,0,0-1.062-.33,8.253,8.253,0,0,1-1.21-.33,2,2,0,0,1-.821-.574,1.6,1.6,0,0,1-.33-1.088,1.771,1.771,0,0,1,.676-1.441,2.942,2.942,0,0,1,1.909-.551A3.051,3.051,0,0,1,750.87,388.561Z" transform="translate(-654.816 -308.152)"/>
  <path id="Path_244" data-name="Path 244" d="M576.969,419.593a1.425,1.425,0,0,1,1.758,0,1.041,1.041,0,0,1,0,1.52,1.425,1.425,0,0,1-1.758,0,1.041,1.041,0,0,1,0-1.52Zm1.89,2.638v6.625h-2.031v-6.632Z" transform="translate(-541.17 -329.169)"/>
  <path id="Path_245" data-name="Path 245" d="M593.585,428.757a3.047,3.047,0,0,1,.66,2.087v3.848h-2.028v-3.611a1.464,1.464,0,0,0-.353-1.039,1.217,1.217,0,0,0-.93-.373,1.256,1.256,0,0,0-.989.392,1.586,1.586,0,0,0-.363,1.115v3.515H587.55v-6.625h2.031v1.21a2.176,2.176,0,0,1,.848-.936,2.483,2.483,0,0,1,1.319-.33A2.308,2.308,0,0,1,593.585,428.757Z" transform="translate(-548.483 -335.012)"/>
  <path id="Path_246" data-name="Path 246" d="M624.624,422.82v1.616h-3.443v1.84h2.658v1.55h-2.658v3.4H619.15v-8.4Z" transform="translate(-569.663 -331.535)"/>
  <path id="Path_247" data-name="Path 247" d="M640.941,421.64v8.785H638.91V421.64Z" transform="translate(-582.906 -330.744)"/>
  <path id="Path_248" data-name="Path 248" d="M653.477,428.349a3.011,3.011,0,0,1,1.223,1.181,3.878,3.878,0,0,1,0,3.608,3.017,3.017,0,0,1-1.223,1.184,4.016,4.016,0,0,1-3.532,0,2.994,2.994,0,0,1-1.23-1.184,3.878,3.878,0,0,1,0-3.608,2.988,2.988,0,0,1,1.23-1.181A4.017,4.017,0,0,1,653.477,428.349Zm-2.744,1.768a1.711,1.711,0,0,0-.4,1.217,1.688,1.688,0,0,0,.4,1.21,1.319,1.319,0,0,0,.989.416,1.293,1.293,0,0,0,.989-.416,1.7,1.7,0,0,0,.389-1.21,1.724,1.724,0,0,0-.389-1.217,1.286,1.286,0,0,0-.989-.422A1.319,1.319,0,0,0,650.734,430.116Z" transform="translate(-589.18 -334.967)"/>
  <path id="Path_249" data-name="Path 249" d="M675.331,428.326a2.493,2.493,0,0,1,1.3-.356v2.173h-.584a2.011,2.011,0,0,0-1.25.33,1.388,1.388,0,0,0-.445,1.164v3.017H672.32v-6.612h2.031V429.3A2.822,2.822,0,0,1,675.331,428.326Z" transform="translate(-605.299 -334.987)"/>
  <path id="Path_250" data-name="Path 250" d="M687.739,419.593a1.425,1.425,0,0,1,1.758,0,1.041,1.041,0,0,1,0,1.52,1.425,1.425,0,0,1-1.758,0,1.041,1.041,0,0,1,0-1.52Zm1.89,2.638v6.625H687.6v-6.632Z" transform="translate(-615.412 -329.169)"/>
  <path id="Path_251" data-name="Path 251" d="M701.5,424.067a2.018,2.018,0,0,1,.795.936V421.64h2.028v8.785H702.29v-1.2a2,2,0,0,1-.795.936,2.4,2.4,0,0,1-1.319.33,2.707,2.707,0,0,1-1.467-.409,2.819,2.819,0,0,1-1.022-1.184,4.567,4.567,0,0,1,0-3.627,2.813,2.813,0,0,1,1.022-1.174,2.681,2.681,0,0,1,1.467-.409,2.394,2.394,0,0,1,1.319.379Zm-1.7,1.863a1.979,1.979,0,0,0,0,2.374,1.484,1.484,0,0,0,2.1,0,1.9,1.9,0,0,0,0-2.354,1.494,1.494,0,0,0-2.1,0Z" transform="translate(-622.049 -330.744)"/>
  <path id="Path_252" data-name="Path 252" d="M725.916,428.242a2.068,2.068,0,0,1,.808.937v-1.2h2.035v6.625H726.74v-1.2a2.051,2.051,0,0,1-.808.937,2.381,2.381,0,0,1-1.319.33,2.705,2.705,0,0,1-1.464-.409,2.82,2.82,0,0,1-1.022-1.184,4.567,4.567,0,0,1,0-3.627,2.813,2.813,0,0,1,1.022-1.174,2.678,2.678,0,0,1,1.464-.409A2.381,2.381,0,0,1,725.916,428.242Zm-1.7,1.863a1.979,1.979,0,0,0,0,2.374,1.355,1.355,0,0,0,1.049.429,1.375,1.375,0,0,0,1.052-.442,1.9,1.9,0,0,0,0-2.354,1.494,1.494,0,0,0-2.1,0Z" transform="translate(-638.43 -334.919)"/>
  <path id="Path_253" data-name="Path 253" d="M634.125,468.1c0-.5-.218-.758-.66-.758a.607.607,0,0,0-.541.261,1.6,1.6,0,0,0-.188.8h-1.543a2.467,2.467,0,0,1,.722-1.791,2.414,2.414,0,0,1,1.679-.6,2.173,2.173,0,0,1,1.6.538,1.876,1.876,0,0,1,.541,1.392,2.967,2.967,0,0,1-.729,1.863,6.9,6.9,0,0,1-1.744,1.537h2.576v1.273h-4.65v-1.181Q634.125,469.341,634.125,468.1Z" transform="translate(-577.732 -360.483)"/>
  <path id="Path_254" data-name="Path 254" d="M647.248,469.448a4.169,4.169,0,0,1,.617-2.414,2.637,2.637,0,0,1,3.957,0,5.012,5.012,0,0,1,0,4.841,2.631,2.631,0,0,1-3.957,0A4.2,4.2,0,0,1,647.248,469.448Zm3.627,0a3.426,3.426,0,0,0-.208-1.345.8.8,0,0,0-.818-.465.824.824,0,0,0-.831.472,3.407,3.407,0,0,0-.211,1.339,3.479,3.479,0,0,0,.211,1.352.821.821,0,0,0,.831.475.8.8,0,0,0,.818-.475,3.487,3.487,0,0,0,.2-1.352Z" transform="translate(-588.491 -360.57)"/>
  <path id="Path_255" data-name="Path 255" d="M668.015,468.1c0-.5-.218-.758-.659-.758a.607.607,0,0,0-.541.261,1.607,1.607,0,0,0-.188.8h-1.543a2.467,2.467,0,0,1,.722-1.791,2.414,2.414,0,0,1,1.678-.6,2.173,2.173,0,0,1,1.6.538,1.877,1.877,0,0,1,.541,1.392,2.968,2.968,0,0,1-.729,1.863,6.9,6.9,0,0,1-1.744,1.537h2.575v1.273H665.07v-1.181Q668.015,469.341,668.015,468.1Z" transform="translate(-600.44 -360.483)"/>
  <path id="Path_256" data-name="Path 256" d="M680.27,468V466.52h2.638v6.529h-1.649V468Z" transform="translate(-610.627 -360.825)"/>
  <path id="Path_257" data-name="Path 257" d="M544.684,240.137V241.3h-.709a1.978,1.978,0,0,1-1.372-.432,1.832,1.832,0,0,1-.475-1.441V237.12h-.739v-1.141h.739V234.66h1.355v1.319h1.19v1.141h-1.19v2.308a.749.749,0,0,0,.155.538.7.7,0,0,0,.518.155Z" transform="translate(-517.545 -205.423)" fill="url(#radial-gradient-5)"/>
  <path id="Path_258" data-name="Path 258" d="M558.734,241.423h-3.9a1.484,1.484,0,0,0,.383,1.049,1.24,1.24,0,0,0,.884.33,1.273,1.273,0,0,0,.785-.231,1.039,1.039,0,0,0,.4-.623h1.431a2.308,2.308,0,0,1-1.342,1.688,2.809,2.809,0,0,1-1.2.251,2.849,2.849,0,0,1-1.385-.33,2.331,2.331,0,0,1-.94-.943,3.3,3.3,0,0,1,0-2.909,2.308,2.308,0,0,1,.94-.946,2.882,2.882,0,0,1,1.385-.33,2.813,2.813,0,0,1,1.378.33,2.309,2.309,0,0,1,.913.9,2.6,2.6,0,0,1,.33,1.3A2.771,2.771,0,0,1,558.734,241.423Zm-1.649-1.583a1.3,1.3,0,0,0-.907-.33,1.319,1.319,0,0,0-.923.33,1.375,1.375,0,0,0-.412.989h2.585a1.2,1.2,0,0,0-.353-.989Z" transform="translate(-525.665 -207.949)" fill="url(#radial-gradient-6)"/>
  <path id="Path_259" data-name="Path 259" d="M575.973,239.03a2.437,2.437,0,0,1,.861,1.517H575.4a1.115,1.115,0,0,0-.4-.66,1.22,1.22,0,0,0-.778-.244,1.157,1.157,0,0,0-.9.4,2.074,2.074,0,0,0,0,2.335,1.171,1.171,0,0,0,.9.4,1.2,1.2,0,0,0,.778-.247,1.114,1.114,0,0,0,.4-.66h1.431a2.437,2.437,0,0,1-.861,1.517,2.638,2.638,0,0,1-1.715.557,2.826,2.826,0,0,1-1.382-.33,2.308,2.308,0,0,1-.943-.943,3.3,3.3,0,0,1,0-2.909,2.289,2.289,0,0,1,.943-.946,2.859,2.859,0,0,1,1.382-.33A2.638,2.638,0,0,1,575.973,239.03Z" transform="translate(-537.789 -207.986)" fill="url(#radial-gradient-7)"/>
  <path id="Path_260" data-name="Path 260" d="M595.057,235.555a2.437,2.437,0,0,1,.551,1.7v3.1h-1.345v-2.941a1.382,1.382,0,0,0-.33-.989,1.164,1.164,0,0,0-.894-.353,1.194,1.194,0,0,0-.923.376,1.527,1.527,0,0,0-.33,1.075v2.826H590.43v-7.1h1.355v2.852a1.7,1.7,0,0,1,.7-.841,2.084,2.084,0,0,1,1.121-.3A1.873,1.873,0,0,1,595.057,235.555Z" transform="translate(-550.413 -204.472)" fill="url(#radial-gradient-8)"/>
  <path id="Path_261" data-name="Path 261" d="M611.88,238.713a2.1,2.1,0,0,1,1.095-.293v1.451h-.392q-1.487,0-1.487,1.385v2.566H609.74V238.5H611.1v1.016a2.2,2.2,0,0,1,.785-.8Z" transform="translate(-563.356 -207.943)" fill="url(#radial-gradient-9)"/>
  <path id="Path_262" data-name="Path 262" d="M626.213,241.4H622.3a1.471,1.471,0,0,0,.386,1.049,1.237,1.237,0,0,0,.884.33,1.27,1.27,0,0,0,.782-.231,1.022,1.022,0,0,0,.4-.623h1.431a2.308,2.308,0,0,1-.452.989,2.338,2.338,0,0,1-.887.689,3.031,3.031,0,0,1-2.589-.082,2.309,2.309,0,0,1-.943-.943,3.3,3.3,0,0,1,0-2.909,2.289,2.289,0,0,1,.943-.946,2.859,2.859,0,0,1,1.382-.33,2.8,2.8,0,0,1,1.378.33,2.286,2.286,0,0,1,.913.9,2.6,2.6,0,0,1,.33,1.3A2.475,2.475,0,0,1,626.213,241.4Zm-1.649-1.583a1.293,1.293,0,0,0-.907-.33,1.319,1.319,0,0,0-.92.33,1.379,1.379,0,0,0-.416.989h2.585a1.191,1.191,0,0,0-.353-.989Z" transform="translate(-570.886 -207.922)" fill="url(#radial-gradient-10)"/>
  <path id="Path_263" data-name="Path 263" d="M641.21,242.647l1.345-3.957H644l-1.979,5.322h-1.649l-1.979-5.322h1.451Z" transform="translate(-582.558 -208.124)" fill="url(#radial-gradient-11)"/>
  <path id="Path_264" data-name="Path 264" d="M657.431,231.986a.861.861,0,0,1,.6-.208.874.874,0,0,1,.607.208.719.719,0,0,1,0,1.055.874.874,0,0,1-.607.208.861.861,0,0,1-.6-.208.719.719,0,0,1,0-1.055Zm1.276,2.061v5.322h-1.355v-5.322Z" transform="translate(-595.166 -203.491)" fill="url(#radial-gradient-12)"/>
  <path id="Path_265" data-name="Path 265" d="M669.91,241.416h-3.9a1.454,1.454,0,0,0,.383,1.049,1.236,1.236,0,0,0,.884.33,1.27,1.27,0,0,0,.781-.231,1.008,1.008,0,0,0,.4-.623h1.435a2.308,2.308,0,0,1-1.342,1.688,3.03,3.03,0,0,1-2.589-.082,2.309,2.309,0,0,1-.94-.943,3.3,3.3,0,0,1,0-2.909,2.283,2.283,0,0,1,.94-.946,2.859,2.859,0,0,1,1.382-.33,2.816,2.816,0,0,1,1.382.33,2.309,2.309,0,0,1,.91.9,2.6,2.6,0,0,1,.33,1.3A2.477,2.477,0,0,1,669.91,241.416Zm-1.649-1.583a1.434,1.434,0,0,0-1.83,0,1.362,1.362,0,0,0-.412.989H668.6a1.19,1.19,0,0,0-.346-.989Z" transform="translate(-600.182 -207.942)" fill="url(#radial-gradient-13)"/>
  <path id="Path_266" data-name="Path 266" d="M690.1,238.66l-1.431,5.322h-1.5l-1.144-3.871-1.171,3.871h-1.5l-1.421-5.322h1.342l.864,4.112,1.184-4.112h1.431l1.19,4.112.874-4.112Z" transform="translate(-611.74 -208.104)" fill="url(#radial-gradient-14)"/>
  <path id="Path_267" data-name="Path 267" d="M713.15,241.437h-3.9a1.484,1.484,0,0,0,.382,1.049,1.24,1.24,0,0,0,.884.33,1.273,1.273,0,0,0,.785-.231,1.039,1.039,0,0,0,.4-.623h1.431a2.309,2.309,0,0,1-.452.989,2.351,2.351,0,0,1-.89.689,2.809,2.809,0,0,1-1.2.267,2.849,2.849,0,0,1-1.385-.33,2.331,2.331,0,0,1-.94-.943,3.3,3.3,0,0,1,0-2.909,2.308,2.308,0,0,1,.94-.946,2.882,2.882,0,0,1,1.385-.33,2.813,2.813,0,0,1,1.378.33,2.309,2.309,0,0,1,.913.9,2.6,2.6,0,0,1,.33,1.3,2.772,2.772,0,0,1-.059.458Zm-1.649-1.583a1.3,1.3,0,0,0-.907-.33,1.319,1.319,0,0,0-.923.33,1.388,1.388,0,0,0-.412.989h2.585a1.2,1.2,0,0,0-.353-.989Z" transform="translate(-629.163 -207.962)" fill="url(#radial-gradient-15)"/>
  <path id="Path_268" data-name="Path 268" d="M728.97,238.713a2.1,2.1,0,0,1,1.095-.293v1.451h-.392q-1.487,0-1.487,1.385v2.566H726.83V238.5h1.355v1.016A2.2,2.2,0,0,1,728.97,238.713Z" transform="translate(-641.834 -207.943)" fill="url(#radial-gradient-9)"/>
  <path id="Path_269" data-name="Path 269" d="M739.361,250.51v1.415H737.9V250.51Z" transform="translate(-649.253 -216.047)" fill="url(#radial-gradient-17)"/>
  <path id="Path_270" data-name="Path 270" d="M748.623,239.03a2.437,2.437,0,0,1,.861,1.517h-1.431a1.115,1.115,0,0,0-.4-.66,1.22,1.22,0,0,0-.778-.244,1.157,1.157,0,0,0-.9.4,2.074,2.074,0,0,0,0,2.335,1.171,1.171,0,0,0,.9.4,1.2,1.2,0,0,0,.778-.247,1.115,1.115,0,0,0,.4-.66h1.431a2.437,2.437,0,0,1-.861,1.517,2.638,2.638,0,0,1-1.715.557,2.849,2.849,0,0,1-1.385-.33,2.332,2.332,0,0,1-.94-.943,3.3,3.3,0,0,1,0-2.908,2.309,2.309,0,0,1,.94-.946,2.882,2.882,0,0,1,1.385-.33A2.638,2.638,0,0,1,748.623,239.03Z" transform="translate(-653.506 -207.986)" fill="url(#radial-gradient-7)"/>
  <path id="Path_271" data-name="Path 271" d="M766.328,238.776a2.407,2.407,0,0,1,.989.946,3.172,3.172,0,0,1,0,2.909,2.44,2.44,0,0,1-.989.943,3.1,3.1,0,0,1-2.8,0,2.44,2.44,0,0,1-.989-.943,3.172,3.172,0,0,1,0-2.908,2.407,2.407,0,0,1,.989-.946,3.156,3.156,0,0,1,2.8,0Zm-2.358,1.243a1.9,1.9,0,0,0,0,2.308,1.352,1.352,0,0,0,1.919,0,1.9,1.9,0,0,0,0-2.308,1.362,1.362,0,0,0-1.919,0Z" transform="translate(-665.533 -207.963)" fill="url(#radial-gradient-19)"/>
</svg>
