<svg xmlns="http://www.w3.org/2000/svg" width="948.078" height="321.078" viewBox="0 0 948.078 321.078">
  <g id="Group_27" data-name="Group 27" transform="translate(-128.246 -124.91)">
    <path id="Path_2" data-name="Path 2" d="M-651.632,100.031l83.836,83.836" transform="translate(1642 27)" fill="none" stroke="#404f8c" stroke-linecap="round" stroke-width="3"/>
    <path id="Path_3" data-name="Path 3" d="M-651.632,100.031l83.836,83.836" transform="translate(782 260)" fill="none" stroke="#404f8c" stroke-linecap="round" stroke-width="3"/>
    <path id="Path_494" data-name="Path 494" d="M13.623-53.8v33.252a19.561,19.561,0,0,0,2.2,9.741Q19.08-4.944,26.807-4.944q9.265,0,12.6-6.335A20.169,20.169,0,0,0,41.2-20.544V-53.8h7.4v30.212q0,9.924-2.673,15.271-4.907,9.741-18.53,9.741T8.9-8.313Q6.226-13.66,6.226-23.584V-53.8ZM64.636-17.358A14.7,14.7,0,0,0,66.8-9.924q3.625,5.347,12.781,5.347A22.622,22.622,0,0,0,87.048-5.75q6.519-2.271,6.519-8.13,0-4.395-2.747-6.262A27.733,27.733,0,0,0,82.1-23.328l-7.288-1.648q-7.141-1.611-10.107-3.552Q59.583-31.9,59.583-38.6A15.508,15.508,0,0,1,64.6-50.5q5.017-4.651,14.209-4.651a24.679,24.679,0,0,1,14.374,4.083Q99.1-46.985,99.1-38.013H92.249A13.48,13.48,0,0,0,89.9-44.641q-3.333-4.211-11.316-4.211-6.445,0-9.265,2.71a8.481,8.481,0,0,0-2.82,6.3,6.151,6.151,0,0,0,3.3,5.786q2.161,1.172,9.778,2.93l7.544,1.721A23.114,23.114,0,0,1,95.544-26q5.127,3.772,5.127,10.95,0,8.936-6.5,12.781A29.111,29.111,0,0,1,79.065,1.575q-10.034,0-15.71-5.127-5.676-5.09-5.566-13.806Zm72.876-4.687-8.167-23.767-8.679,23.767ZM125.537-53.8h8.24L153.3,0h-7.983l-5.457-16.113H118.579L112.756,0h-7.471Z" transform="translate(820 408)" fill="#404f8c"/>
    <path id="Path_94" data-name="Path 94" d="M-11.656-19.072V0H77.6c28.757,0,39.783-12.218,39.783-29.5,0-20.562-15.5-28.161-39.485-30.1L30.958-63.325C14.27-64.666,10.4-67.646,10.4-73.308c0-6.854,5.662-9.536,15.645-9.536h84.781v-19.072H27.978c-21.009,0-39.187,7.6-39.187,29.2,0,18.774,13.708,26.969,36.654,28.757l49.319,3.874c14.6,1.192,20.711,4.619,20.711,11.473,0,5.662-4.023,9.536-16.539,9.536ZM134.176-84.816V0h17.732V-27.776h55.8c23.436,0,33.852-13.268,33.852-28.644,0-15.252-10.416-28.4-33.852-28.4ZM151.908-43.4V-69.192h56.668c10.788,0,14.508,7.44,14.508,12.9s-3.6,12.9-14.508,12.9ZM427.632,0h17.732V-27.9h55.552c11.284,0,13.888,6.076,13.888,10.788V0h18.352V-16.74c0-8.8-4.712-15.748-15.5-19.22,11.036-3.224,17.36-10.54,17.36-22.444,0-16.988-12.9-26.412-33.728-26.412H427.632Zm17.732-43.648V-69.192h57.288c10.912,0,14.26,7.192,14.26,12.772s-3.348,12.772-14.26,12.772ZM604.332,0V-68.82h42.16v-16H544.44v16H586.6V0ZM726.72-68.076c-5.456-10.54-11.78-17.98-26.288-17.98s-20.956,7.44-26.288,17.98L639.424,0H658.4l10.788-20.956h62.5L742.468,0h19.1ZM723.5-36.7H677.244L691.628-64.48c1.86-3.6,4.216-5.828,8.8-5.828s6.944,2.232,8.8,5.828ZM769-84.816v49.724C769-9.672,781.9,0,809.924,0h56.544V-17.36H809.924c-17.856,0-23.188-3.844-23.188-17.732V-84.816Z" transform="translate(175.368 337.031)" fill="#404f8c"/>
    <g id="Group_47" data-name="Group 47" transform="translate(-315.62 179.15)">
      <circle id="Ellipse_47" data-name="Ellipse 47" cx="49" cy="49" r="49" transform="translate(771.987 66.881)" fill="#6b39d0" opacity="0.3"/>
      <circle id="Ellipse_49" data-name="Ellipse 49" cx="64" cy="64" r="64" transform="translate(748.987 44.881)" fill="#3d6ef5" opacity="0.5"/>
      <ellipse id="Ellipse_48" data-name="Ellipse 48" cx="64.5" cy="64" rx="64.5" ry="64" transform="translate(763.987 60.881)" fill="#136bcc" opacity="0.5"/>
      <ellipse id="Ellipse_50" data-name="Ellipse 50" cx="64" cy="64.5" rx="64" ry="64.5" transform="translate(766.987 46.881)" fill="#d528e6" opacity="0.5"/>
      <circle id="Ellipse_46" data-name="Ellipse 46" cx="42" cy="42" r="42" transform="translate(770.987 65.881)" fill="#feb495" opacity="0.3"/>
      <circle id="Ellipse_45" data-name="Ellipse 45" cx="42" cy="42" r="42" transform="translate(786.987 82.881)" fill="#e158cb" opacity="0.3"/>
      <circle id="Ellipse_44" data-name="Ellipse 44" cx="26.5" cy="26.5" r="26.5" transform="translate(793.987 88.881)" fill="#f5f7ff"/>
    </g>
  </g>
</svg>
