<svg xmlns="http://www.w3.org/2000/svg" width="29.334" height="40" viewBox="0 0 29.334 40">
  <path id="np_support_4831710_000000" d="M44.958,41.792a1.332,1.332,0,0,1-1.333,1.333H16.958a1.332,1.332,0,0,1-1.333-1.333,14.667,14.667,0,0,1,29.334,0ZM30.292,8.458A8.006,8.006,0,1,0,35.947,10.8a8,8,0,0,0-5.655-2.345Zm-12,12a2.67,2.67,0,0,0,2.667-2.667V15.125a2.667,2.667,0,0,0-5.333,0v2.667A2.67,2.67,0,0,0,18.292,20.458Zm12-14.667a10.659,10.659,0,0,1,8.985,4.942,5.29,5.29,0,0,1,2.572-.9,13.305,13.305,0,0,0-23.113,0,5.289,5.289,0,0,1,2.572.9,10.659,10.659,0,0,1,8.985-4.942Zm12,6.667a2.67,2.67,0,0,0-2.667,2.667v2.667a2.666,2.666,0,0,0,1.222,2.235,4,4,0,0,1-3.888,3.1,1.333,1.333,0,0,0,0,2.667,6.659,6.659,0,0,0,6.563-5.648,2.657,2.657,0,0,0,1.437-2.352V15.125a2.67,2.67,0,0,0-2.667-2.667Z" transform="translate(-15.625 -3.125)"/>
</svg>
