<svg xmlns="http://www.w3.org/2000/svg" width="25.451" height="40" viewBox="0 0 25.451 40">
  <path id="np_time_2461349_000000" d="M22.687,33.889H39.14v-2.3a8.226,8.226,0,1,0-16.451,0v2.3ZM41.4,5.3V8.25A10.529,10.529,0,0,1,33.45,18.422v3.164A10.53,10.53,0,0,1,41.4,31.758V34.7h2.239V40H18.188V34.7h2.239V31.758a10.531,10.531,0,0,1,7.948-10.172V18.422A10.529,10.529,0,0,1,20.427,8.25V5.3H18.188V0H43.639V5.3Zm-1.269,0H21.7V8.25c0,4.823,3.364,8.237,7.948,9.145v5.221c-4.605.909-7.948,4.327-7.948,9.145v2.947H40.131V31.76c0-4.818-3.344-8.235-7.949-9.145V17.395c4.585-.908,7.949-4.322,7.949-9.145Z" transform="translate(-18.188 -0.004)" fill-rule="evenodd"/>
</svg>
