<svg xmlns="http://www.w3.org/2000/svg" width="70.737" height="80.001" viewBox="0 0 70.737 80.001">
  <path id="np_transfeminism_4708924_000000" d="M76.326,1.693a1.463,1.463,0,0,0-.134-.281.015.015,0,0,0-.016-.016A3.566,3.566,0,0,0,75.81.865l-.25-.25a2.679,2.679,0,0,0-1.712-.631L60.8-.02a2.659,2.659,0,0,0,0,5.318h6.749L54.711,18.134a21.586,21.586,0,0,0-26.217.915c-.034-.05-.084-.084-.116-.134l-4.987-4.987L26.6,10.7a2.658,2.658,0,0,0-3.759-3.759l-3.228,3.228L14.762,5.317h3.259a2.659,2.659,0,0,0,0-5.318L8.475,0a2.658,2.658,0,0,0-1.8.7c-.084.084-.166.166-.25.266A2.076,2.076,0,0,0,6.1,1.49l-.031.019a1.093,1.093,0,0,0-.084.2,2.773,2.773,0,0,0-.184.965v9.492a2.659,2.659,0,0,0,5.318,0l0-2.975,4.74,4.74-3.224,3.224a2.658,2.658,0,1,0,3.759,3.759l3.224-3.209L24.6,22.692c.066.066.15.134.216.2a21.655,21.655,0,0,0,14.7,34.378v5.687H33.233a2.678,2.678,0,1,0,0,5.355h6.283V77.3a2.678,2.678,0,0,0,5.355,0V68.293h6.283a2.678,2.678,0,0,0,0-5.355H44.872V57.251A21.62,21.62,0,0,0,58.635,21.723L71.186,9.188l0,6.436a2.659,2.659,0,0,0,5.318,0V2.674a2.856,2.856,0,0,0-.181-.981ZM46.98,51.368v-.034a16.329,16.329,0,0,1-10.126-.166v.016a16.055,16.055,0,0,1-4.44-2.362,2.769,2.769,0,0,1-.266-.216,2.838,2.838,0,0,0-.231-.184,1.942,1.942,0,0,1-.184-.15c-.116-.1-.216-.184-.331-.281A16.294,16.294,0,0,1,52.864,23.467a14.955,14.955,0,0,1,1.362,1.347c.1.1.184.216.281.316.25.281.481.581.715.881a16.291,16.291,0,0,1-3.243,22.812,16,16,0,0,1-5,2.546ZM76.326,1.693a2.873,2.873,0,0,1,.184.981v.466a2.865,2.865,0,0,0-.184-1.447ZM75.794.862a2.3,2.3,0,0,1,.366.531l.016.016a1.666,1.666,0,0,1,.134.281,2.659,2.659,0,0,0-.516-.828Z" transform="translate(-5.797 0.02)" fill="#ed3232"/>
</svg>
