<svg xmlns="http://www.w3.org/2000/svg" width="75" height="80" viewBox="0 0 75 80">
  <path id="Icon_awesome-transgender-alt" data-name="Icon awesome-transgender-alt" d="M73.125,0H60.781a1.878,1.878,0,0,0-1.328,3.2l2.641,2.641L49.484,18.453a22.523,22.523,0,0,0-23.969,0l-2.578-2.578,3.094-3.094a1.877,1.877,0,0,0,0-2.656L21.609,5.7a1.877,1.877,0,0,0-2.656,0L15.859,8.8,12.891,5.828l2.641-2.641A1.858,1.858,0,0,0,14.219,0H1.875A1.881,1.881,0,0,0,0,1.875V14.219a1.878,1.878,0,0,0,3.2,1.328l2.641-2.641,2.969,2.969L5.719,18.969a1.877,1.877,0,0,0,0,2.656l4.422,4.422a1.877,1.877,0,0,0,2.656,0l3.094-3.094,2.578,2.578A22.176,22.176,0,0,0,15,37.5,22.5,22.5,0,0,0,32.5,59.438V63.75H26.875A1.881,1.881,0,0,0,25,65.625v6.25a1.881,1.881,0,0,0,1.875,1.875H32.5v4.375A1.881,1.881,0,0,0,34.375,80h6.25A1.881,1.881,0,0,0,42.5,78.125V73.75h5.625A1.881,1.881,0,0,0,50,71.875v-6.25a1.881,1.881,0,0,0-1.875-1.875H42.5V59.438A22.506,22.506,0,0,0,56.547,25.516L69.156,12.906,71.8,15.547A1.875,1.875,0,0,0,75,14.219V1.875A1.881,1.881,0,0,0,73.125,0ZM37.5,50A12.5,12.5,0,1,1,50,37.5,12.517,12.517,0,0,1,37.5,50Z" fill="#ed3232"/>
</svg>
