<svg xmlns="http://www.w3.org/2000/svg" width="31.952" height="40" viewBox="0 0 31.952 40">
  <path id="np_trusted_1902111_000000" d="M32.569,8.268c-.034,0-.069.009-.1.015a1,1,0,0,0-.517.243.121.121,0,0,1-.017.015,36.94,36.94,0,0,1-4.614,2.72c-2.8,1.4-6.44,2.778-9.659,2.778h-1v14.3c0,7.3,3.972,12.325,7.864,15.427a28.321,28.321,0,0,0,7.8,4.4l.311.1.316-.1a28.318,28.318,0,0,0,7.8-4.4c3.892-3.1,7.864-8.124,7.864-15.427v-14.3h-1c-3.22,0-6.857-1.374-9.654-2.778a36.739,36.739,0,0,1-4.643-2.742h0a1,1,0,0,0-.53-.243h-.015c-.03,0-.06-.006-.09-.007h-.017a.812.812,0,0,0-.1,0Zm.069,9.991v0a9.983,9.983,0,1,1-7.059,2.924,9.981,9.981,0,0,1,7.059-2.924ZM38.1,23.244a1.5,1.5,0,0,0-1.031.451l-5.927,5.934-2.941-2.941h0a1.5,1.5,0,1,0-2.117,2.121L30.085,32.8h0a1.5,1.5,0,0,0,2.113,0l6.986-6.994A1.5,1.5,0,0,0,38.1,23.244Z" transform="translate(-16.665 -8.267)" fill="#ed3232" fill-rule="evenodd"/>
</svg>
