<svg xmlns="http://www.w3.org/2000/svg" width="466" height="102.32" viewBox="0 0 466 102.32">
  <g id="Group_3" data-name="Group 3" transform="translate(-883.287 -330.172)">
    <g id="Group_1" data-name="Group 1" transform="translate(1010.944 360.902)">
      <path id="Path_1" data-name="Path 1" d="M999,397.756a2.383,2.383,0,0,1-.621-1.722V360.551a2.162,2.162,0,0,1,.65-1.638,2.388,2.388,0,0,1,1.724-.621h20.564a2.28,2.28,0,0,1,1.58.508,1.865,1.865,0,0,1,.56,1.47,1.8,1.8,0,0,1-.56,1.413,2.28,2.28,0,0,1-1.58.508h-18.36v13.729h17.229a2.28,2.28,0,0,1,1.582.508,1.879,1.879,0,0,1,.56,1.469,1.807,1.807,0,0,1-.56,1.413,2.285,2.285,0,0,1-1.582.508h-17.229v16.214a2.457,2.457,0,0,1-.593,1.722,2.147,2.147,0,0,1-1.666.649A2.239,2.239,0,0,1,999,397.756Z" transform="translate(-998.379 -357.835)" fill="#fff"/>
      <path id="Path_2" data-name="Path 2" d="M1068.822,396.458a1.794,1.794,0,0,1-.65,1.412,2.289,2.289,0,0,1-1.554.56,2,2,0,0,1-1.976-1.357l-4.01-9.144h-21.3l-4.068,9.144a2,2,0,0,1-1.978,1.357,2.326,2.326,0,0,1-1.581-.593,1.842,1.842,0,0,1-.679-1.441,2.02,2.02,0,0,1,.226-.9l16.159-35.929a2.424,2.424,0,0,1,1.015-1.187,2.86,2.86,0,0,1,1.468-.4,2.827,2.827,0,0,1,1.527.424,2.64,2.64,0,0,1,1.015,1.159l16.159,35.929A2.138,2.138,0,0,1,1068.822,396.458Zm-9.89-12.372L1049.95,363.8l-8.927,20.282Z" transform="translate(-994.814 -357.868)" fill="#fff"/>
      <path id="Path_3" data-name="Path 3" d="M1087.845,396.163a16.213,16.213,0,0,1-6.356-7.063,27.486,27.486,0,0,1,0-21.693,16.22,16.22,0,0,1,6.355-7.063,18.734,18.734,0,0,1,9.773-2.458,20.9,20.9,0,0,1,7.147,1.215,17.384,17.384,0,0,1,5.846,3.475,2.635,2.635,0,0,1,.9,1.978,2.239,2.239,0,0,1-.45,1.383,1.328,1.328,0,0,1-1.075.593,3.182,3.182,0,0,1-1.639-.621,21.092,21.092,0,0,0-5.225-3.172,14.947,14.947,0,0,0-5.4-.9,12.353,12.353,0,0,0-10.077,4.264,22.67,22.67,0,0,0,0,24.292,12.352,12.352,0,0,0,10.077,4.266,15.009,15.009,0,0,0,5.369-.9,20.851,20.851,0,0,0,5.253-3.172,3.187,3.187,0,0,1,1.639-.621,1.349,1.349,0,0,1,1.075.56,2.207,2.207,0,0,1,.449,1.413,2.631,2.631,0,0,1-.9,1.976,17.358,17.358,0,0,1-5.847,3.475,20.9,20.9,0,0,1-7.147,1.213A18.734,18.734,0,0,1,1087.845,396.163Z" transform="translate(-989.547 -357.88)" fill="#fff"/>
      <path id="Path_4" data-name="Path 4" d="M1125.869,397.777a2.384,2.384,0,0,1-.621-1.722V360.413a2.39,2.39,0,0,1,.621-1.722,2.534,2.534,0,0,1,3.389,0,2.388,2.388,0,0,1,.621,1.722v35.642a2.385,2.385,0,0,1-.621,1.722A2.534,2.534,0,0,1,1125.869,397.777Z" transform="translate(-984.529 -357.856)" fill="#fff"/>
      <path id="Path_5" data-name="Path 5" d="M1149.122,397.555a2.006,2.006,0,0,1-.649-1.555V360.409a2.385,2.385,0,0,1,.622-1.722,2.534,2.534,0,0,1,3.391,0,2.389,2.389,0,0,1,.621,1.722v33.776h18.248a2.287,2.287,0,0,1,1.581.508,2.191,2.191,0,0,1,0,2.939,2.284,2.284,0,0,1-1.581.508h-20.62A2.3,2.3,0,0,1,1149.122,397.555Z" transform="translate(-981.993 -357.859)" fill="#fff"/>
      <path id="Path_6" data-name="Path 6" d="M1186.74,397.778a2.382,2.382,0,0,1-.622-1.722V360.413a2.389,2.389,0,0,1,.621-1.722,2.532,2.532,0,0,1,3.389,0,2.39,2.39,0,0,1,.623,1.722v35.642a2.385,2.385,0,0,1-.623,1.722,2.532,2.532,0,0,1-3.388,0Z" transform="translate(-977.877 -357.856)" fill="#fff"/>
      <path id="Path_7" data-name="Path 7" d="M1220.055,397.75a2.321,2.321,0,0,1-.65-1.722V362.252h-12.146a2.281,2.281,0,0,1-1.582-.508,2.194,2.194,0,0,1,0-2.939,2.286,2.286,0,0,1,1.582-.508h28.982a2.286,2.286,0,0,1,1.583.508,2.195,2.195,0,0,1,0,2.939,2.282,2.282,0,0,1-1.583.508H1224.1v33.776a2.389,2.389,0,0,1-.621,1.722,2.239,2.239,0,0,1-1.694.649A2.326,2.326,0,0,1,1220.055,397.75Z" transform="translate(-975.803 -357.829)" fill="#fff"/>
      <path id="Path_8" data-name="Path 8" d="M1250.6,397.777a2.388,2.388,0,0,1-.621-1.722V360.413a2.388,2.388,0,0,1,.621-1.722,2.534,2.534,0,0,1,3.389,0,2.387,2.387,0,0,1,.621,1.722v35.642a2.384,2.384,0,0,1-.621,1.722A2.535,2.535,0,0,1,1250.6,397.777Z" transform="translate(-970.909 -357.856)" fill="#fff"/>
      <path id="Path_9" data-name="Path 9" d="M1303.651,358.274a2.125,2.125,0,0,1,1.159-.338,2.425,2.425,0,0,1,1.611.591,1.818,1.818,0,0,1,.707,1.441,2.01,2.01,0,0,1-.226.9l-16.214,36.043a2.456,2.456,0,0,1-1.017,1.129,2.922,2.922,0,0,1-2.937,0,2.47,2.47,0,0,1-1.017-1.129l-16.158-36.043a2.409,2.409,0,0,1-.168-.847,1.845,1.845,0,0,1,.735-1.493,2.541,2.541,0,0,1,1.637-.591,2.066,2.066,0,0,1,1.978,1.306l14.576,32.936,14.518-32.936a2.161,2.161,0,0,1,.817-.972Z" transform="translate(-968.784 -357.87)" fill="#fff"/>
    </g>
    <g id="Group_2" data-name="Group 2" transform="translate(883.287 330.172)">
      <path id="Path_10" data-name="Path 10" d="M985.607,381.332a51.16,51.16,0,1,1-51.162-51.16,51.16,51.16,0,0,1,51.162,51.16" transform="translate(-883.287 -330.172)" fill="#fff"/>
      <path id="Path_11" data-name="Path 11" d="M958.592,369.309H906.3a4.708,4.708,0,0,1-4.708-4.708v-7.565a4.708,4.708,0,0,1,4.708-4.708h52.291a4.706,4.706,0,0,1,4.708,4.708V364.6a4.706,4.706,0,0,1-4.708,4.708" transform="translate(-881.288 -327.752)" fill="#2f3232"/>
      <path id="Path_12" data-name="Path 12" d="M953.124,369.309H906.3A4.708,4.708,0,0,1,901.6,364.6v-7.565a4.708,4.708,0,0,1,4.708-4.708h46.82a4.706,4.706,0,0,1,4.708,4.708V364.6a4.706,4.706,0,0,1-4.708,4.708" transform="translate(-881.287 -327.752)" fill="#2c99b5"/>
      <path id="Path_13" data-name="Path 13" d="M947.354,369.309H906.3a4.706,4.706,0,0,1-4.708-4.708v-7.565a4.706,4.706,0,0,1,4.708-4.708h41.053a4.706,4.706,0,0,1,4.708,4.708V364.6a4.706,4.706,0,0,1-4.708,4.708" transform="translate(-881.29 -327.752)" fill="#cae0e8"/>
      <path id="Path_14" data-name="Path 14" d="M939.95,385.622H906.3a4.708,4.708,0,0,1-4.708-4.708v-7.565a4.708,4.708,0,0,1,4.708-4.708H939.95a4.708,4.708,0,0,1,4.708,4.708v7.565a4.708,4.708,0,0,1-4.708,4.708" transform="translate(-881.288 -325.971)" fill="#2f3232"/>
      <path id="Path_15" data-name="Path 15" d="M934.48,385.622H906.3a4.708,4.708,0,0,1-4.708-4.708v-7.565a4.708,4.708,0,0,1,4.708-4.708H934.48a4.706,4.706,0,0,1,4.708,4.708v7.565a4.706,4.706,0,0,1-4.708,4.708" transform="translate(-881.288 -325.971)" fill="#2c99b5"/>
      <path id="Path_16" data-name="Path 16" d="M928.708,385.622H906.3a4.708,4.708,0,0,1-4.708-4.708v-7.565a4.708,4.708,0,0,1,4.708-4.708h22.4a4.706,4.706,0,0,1,4.708,4.708v7.565a4.706,4.706,0,0,1-4.708,4.708" transform="translate(-881.287 -325.971)" fill="#cae0e8"/>
      <path id="Path_17" data-name="Path 17" d="M928.984,401.936H906.3a4.706,4.706,0,0,1-4.708-4.708v-7.565a4.706,4.706,0,0,1,4.708-4.708h22.68a4.706,4.706,0,0,1,4.708,4.708v7.565a4.706,4.706,0,0,1-4.708,4.708" transform="translate(-881.287 -324.19)" fill="#2f3232"/>
      <path id="Path_18" data-name="Path 18" d="M923.515,401.936H906.3a4.708,4.708,0,0,1-4.708-4.708v-7.565a4.708,4.708,0,0,1,4.708-4.708h17.213a4.706,4.706,0,0,1,4.708,4.708v7.565a4.706,4.706,0,0,1-4.708,4.708" transform="translate(-881.289 -324.19)" fill="#2c99b5"/>
      <path id="Path_19" data-name="Path 19" d="M917.743,401.936H906.3a4.708,4.708,0,0,1-4.708-4.708v-7.565a4.708,4.708,0,0,1,4.708-4.708h11.441a4.706,4.706,0,0,1,4.708,4.708v7.565a4.706,4.706,0,0,1-4.708,4.708" transform="translate(-881.289 -324.19)" fill="#cae0e8"/>
    </g>
  </g>
</svg>
