<svg xmlns="http://www.w3.org/2000/svg" width="128.584" height="36.636" viewBox="0 0 128.584 36.636">
  <g id="mongodb-seeklogo.com" transform="translate(0 -0.203)">
    <g id="Group_4515" data-name="Group 4515" transform="translate(0 0.203)">
      <path id="Path_879" data-name="Path 879" d="M405.73,56.664c-.116.023-.232.279-.232.418-.023.928-.046,3.388-.046,5.058a.172.172,0,0,0,.139.139c.348.023,1.183.046,1.9.046a4.962,4.962,0,0,0,1.9-.278,2.464,2.464,0,0,0,1.23-2.32c0-2.251-1.578-3.109-3.921-3.109a3.734,3.734,0,0,0-.974.046Zm5.986,10.371c0-2.3-1.694-3.573-4.757-3.573a13.437,13.437,0,0,0-1.346.023c-.07.023-.162.07-.162.139,0,1.647-.023,4.269.046,5.29a1.751,1.751,0,0,0,.766,1.253,5.312,5.312,0,0,0,2.018.278,3.168,3.168,0,0,0,3.434-3.411ZM401,55.388c.232,0,.928.069,2.715.069,1.694,0,3.039-.046,4.687-.046,2.018,0,4.8.719,4.8,3.735a3.638,3.638,0,0,1-2.413,3.248c-.069.023-.069.069,0,.093,1.949.487,3.666,1.694,3.666,3.968,0,2.228-1.392,3.643-3.411,4.524a11.1,11.1,0,0,1-4.316.719c-1.183,0-4.362-.139-6.125-.093-.186-.07.162-.905.325-1.044a4.329,4.329,0,0,0,1.183-.186c.627-.162.7-.348.789-1.3.046-.812.046-3.689.046-5.731,0-2.808.023-4.71,0-5.638-.023-.719-.279-.951-.789-1.091-.394-.069-1.044-.162-1.578-.232-.116-.116.278-.905.418-1ZM387.609,69.819a4.676,4.676,0,0,0,2.622.626,5.142,5.142,0,0,0,3.712-1.322c1.23-1.114,2.088-2.831,2.088-5.568a6.647,6.647,0,0,0-3.039-6.009,8.21,8.21,0,0,0-4.362-1.021,3.475,3.475,0,0,0-1.3.162.683.683,0,0,0-.232.371c-.046.464-.046,4.037-.046,6.125,0,2.158,0,5.174.046,5.522a1.44,1.44,0,0,0,.51,1.114Zm-5.267-14.432c.441,0,2.135.069,2.947.069,1.462,0,2.506-.069,5.267-.069a8.584,8.584,0,0,1,5.661,1.81,7.523,7.523,0,0,1,2.576,5.94,7.775,7.775,0,0,1-3.2,6.682,10.73,10.73,0,0,1-6.659,1.879c-1.578,0-4.292-.046-6.543-.07h-.023c-.116-.209.186-1.021.371-1.044a3.689,3.689,0,0,0,1.067-.209c.487-.186.58-.441.65-1.3.069-1.6.046-3.527.046-5.708,0-1.555.023-4.594-.023-5.569-.069-.812-.417-1.021-1.114-1.16-.348-.069-.812-.162-1.462-.232-.093-.163.325-.882.441-1.021Z" transform="translate(-285.87 -41.513)" fill="#8e714e" fill-rule="evenodd"/>
      <path id="Path_880" data-name="Path 880" d="M130.275,86.75a4.67,4.67,0,0,1-1.508-.394.708.708,0,0,1-.186-.371c-.046-.812-.046-3.132-.046-4.687a5.469,5.469,0,0,0-.742-3.109A3.168,3.168,0,0,0,125.1,76.8a6.206,6.206,0,0,0-3.527,1.671c-.023.023-.209.186-.186-.07,0-.255.046-.766.07-1.114a.6.6,0,0,0-.162-.487,15.489,15.489,0,0,1-3.6.928c-.557.116-.7.65-.116.835h.023a5.154,5.154,0,0,1,1.369.6.722.722,0,0,1,.209.65c.023,1.74.023,4.408-.046,5.87-.023.58-.186.789-.6.882l.046-.023a9.136,9.136,0,0,1-.975.186,1.358,1.358,0,0,0,0,1.044c.255,0,1.6-.07,2.715-.07,1.531,0,2.32.07,2.715.07a1.51,1.51,0,0,0,.116-1.044,4.306,4.306,0,0,1-1.067-.162c-.418-.093-.534-.3-.557-.789-.046-1.23-.046-3.828-.046-5.592a1.118,1.118,0,0,1,.278-.859,3.509,3.509,0,0,1,2.158-.789,2.4,2.4,0,0,1,1.6.534,2.282,2.282,0,0,1,.742,1.462c.116,1,.07,2.97.07,4.687,0,.928-.07,1.16-.418,1.276a4.418,4.418,0,0,1-1.067.209,1.358,1.358,0,0,0,0,1.044c.673,0,1.462-.07,2.622-.07,1.438,0,2.367.07,2.738.07a1.615,1.615,0,0,0,.069-1Zm6.427-8.863c-1.23,0-2,.951-2,2.436,0,1.508.673,3.248,2.576,3.248a1.8,1.8,0,0,0,1.206-.464,3.073,3.073,0,0,0,.743-2.135c0-1.926-.951-3.086-2.529-3.086Zm-.163,10.255a1.994,1.994,0,0,0-1,.255c-.975.626-1.415,1.23-1.415,1.949a2.052,2.052,0,0,0,.812,1.67,4.122,4.122,0,0,0,2.784.859c2.367,0,3.411-1.276,3.411-2.529a1.773,1.773,0,0,0-1.346-1.787,9.375,9.375,0,0,0-3.248-.418Zm.163,6.033a5.134,5.134,0,0,1-3.318-.974,3.058,3.058,0,0,1-1.23-2.3,1.777,1.777,0,0,1,.464-1.16,12.3,12.3,0,0,1,2.135-1.717c.046-.023.069-.046.069-.093a.154.154,0,0,0-.093-.116,2.208,2.208,0,0,1-1.508-1.462v-.046c-.023-.139-.069-.278.139-.418.162-.116.394-.255.65-.417a9.528,9.528,0,0,0,1.067-.7.17.17,0,0,0,.046-.139.154.154,0,0,0-.093-.116,3.383,3.383,0,0,1-2.436-3.55,3.523,3.523,0,0,1,1.485-2.923,6.82,6.82,0,0,1,3.341-1.137h.07a7.112,7.112,0,0,1,2.552.557,4.3,4.3,0,0,0,1.508.232,2.008,2.008,0,0,0,1.624-.6,1.267,1.267,0,0,1,.093.464,1.752,1.752,0,0,1-.3,1.067,1.318,1.318,0,0,1-1.021.441h-.116a5.164,5.164,0,0,1-.6-.093l-.093.046c-.023.046,0,.093.023.162l.023.046a8.579,8.579,0,0,1,.139,1,3.759,3.759,0,0,1-1.578,3.364,5.342,5.342,0,0,1-2.715,1.044,2.9,2.9,0,0,0-.325.023c-.116,0-.279.023-.3.023h-.023c-.186.046-.65.278-.65.673,0,.348.209.766,1.206.835.209.023.418.023.65.046a20.369,20.369,0,0,1,3.736.464,2.6,2.6,0,0,1,1.74,2.483c0,1.717-1.23,3.318-3.271,4.315a7.465,7.465,0,0,1-3.086.673ZM149.927,78a2.154,2.154,0,0,0-1.253.348c-.9.557-1.369,1.671-1.369,3.295,0,3.04,1.531,5.174,3.712,5.174a2.361,2.361,0,0,0,1.6-.557,4.123,4.123,0,0,0,1.021-3.225c0-3.016-1.508-5.035-3.712-5.035Zm.418,9.931c-3.944,0-5.36-2.9-5.36-5.615a5.023,5.023,0,0,1,2.3-4.409,6.984,6.984,0,0,1,3.55-1.044,4.971,4.971,0,0,1,5.128,5.267,5.387,5.387,0,0,1-2.436,4.8,6.435,6.435,0,0,1-3.179,1ZM109,78a2.155,2.155,0,0,0-1.253.348c-.9.557-1.369,1.671-1.369,3.295,0,3.04,1.531,5.174,3.712,5.174a2.361,2.361,0,0,0,1.6-.557,4.123,4.123,0,0,0,1.021-3.225c0-3.016-1.485-5.035-3.712-5.035Zm.418,9.931c-3.944,0-5.36-2.9-5.36-5.615a5.023,5.023,0,0,1,2.3-4.409,6.984,6.984,0,0,1,3.55-1.044,4.971,4.971,0,0,1,5.128,5.267,5.387,5.387,0,0,1-2.436,4.8,6.285,6.285,0,0,1-3.179,1ZM82.9,87.7a.994.994,0,0,1-.07-.534.783.783,0,0,1,.07-.348,8.511,8.511,0,0,0,1.021-.209c.464-.116.65-.371.673-.951.07-1.392.07-4.037.046-5.87v-.046a.7.7,0,0,0-.255-.65,5.229,5.229,0,0,0-1.392-.6c-.209-.069-.348-.186-.325-.325,0-.139.139-.3.441-.348a16.991,16.991,0,0,0,3.55-.9.574.574,0,0,1,.116.371l-.023.255c-.023.255-.046.557-.046.859a.179.179,0,0,0,.186.162.33.33,0,0,0,.139-.046,6.544,6.544,0,0,1,3.527-1.578,3,3,0,0,1,2.692,1.647.175.175,0,0,0,.162.093.165.165,0,0,0,.139-.069,7.052,7.052,0,0,1,3.643-1.671c2.158,0,3.434,1.6,3.434,4.316,0,.766,0,1.763-.023,2.668,0,.812-.023,1.555-.023,2.088a.73.73,0,0,0,.418.557,4.951,4.951,0,0,0,1.346.325h.023a1.863,1.863,0,0,1-.139.882,5.679,5.679,0,0,1-.58-.023c-.441-.023-1.067-.046-1.763-.046-1.439,0-2.181.023-2.9.07a2.258,2.258,0,0,1,0-.882,7.157,7.157,0,0,0,.882-.209c.464-.139.58-.348.6-.951,0-.441.093-4.2-.046-5.1a2.288,2.288,0,0,0-2.367-2.018,4.114,4.114,0,0,0-2.367.9.413.413,0,0,0-.093.232v.023a10.723,10.723,0,0,1,.093,1.9v1.508c0,1.044-.023,2.019,0,2.761a.68.68,0,0,0,.557.719c.139.023.232.046.348.069.209.046.418.093.742.162a1.253,1.253,0,0,1-.023.65.445.445,0,0,1-.093.232c-.789-.023-1.6-.046-2.784-.046-.348,0-.951.023-1.462.023-.418,0-.812.023-1.044.023a1.23,1.23,0,0,1-.07-.464.723.723,0,0,1,.093-.418,1.562,1.562,0,0,1,.325-.046c.278-.046.51-.093.742-.139.394-.116.534-.325.557-.835a40.267,40.267,0,0,0-.023-5.313,2.186,2.186,0,0,0-2.274-2.019,4.259,4.259,0,0,0-2.367.905.751.751,0,0,0-.209.534v1.369c0,1.67,0,3.759.023,4.664a.719.719,0,0,0,.65.719,4.789,4.789,0,0,0,.534.093l.418.069a1.949,1.949,0,0,1-.07.882c-.232,0-.51-.023-.835-.023-.487-.023-1.114-.046-1.81-.046-.812,0-1.392.023-1.856.046A5.612,5.612,0,0,0,82.9,87.7Z" transform="translate(-61.878 -57.539)" fill="#442d22" fill-rule="evenodd"/>
      <g id="Group_4514" data-name="Group 4514">
        <path id="Path_881" data-name="Path 881" d="M26.2,49.29l-.951-.325s.116-4.849-1.624-5.2c-1.16-1.346.186-57.078,4.362-.186a3.393,3.393,0,0,0-1.694,1.949A17.9,17.9,0,0,0,26.2,49.29Z" transform="translate(-17.385 -13.558)" fill="#fff" fill-rule="evenodd"/>
        <path id="Path_882" data-name="Path 882" d="M26.2,49.29l-.951-.325s.116-4.849-1.624-5.2c-1.16-1.346.186-57.078,4.362-.186a3.393,3.393,0,0,0-1.694,1.949A17.9,17.9,0,0,0,26.2,49.29Z" transform="translate(-17.385 -13.558)" fill="#a6a385" fill-rule="evenodd"/>
        <path id="Path_883" data-name="Path 883" d="M32.732,31.524a16.857,16.857,0,0,0,6.381-16.868c-1.879-8.283-6.311-11-6.8-12.042A11.706,11.706,0,0,1,31.27.572l.348,23.04c0,.023-.719,7.054,1.114,7.912" transform="translate(-23.408 -0.48)" fill="#fff" fill-rule="evenodd"/>
        <path id="Path_884" data-name="Path 884" d="M32.732,31.524a16.857,16.857,0,0,0,6.381-16.868c-1.879-8.283-6.311-11-6.8-12.042A11.706,11.706,0,0,1,31.27.572l.348,23.04c0,.023-.719,7.054,1.114,7.912" transform="translate(-23.408 -0.48)" fill="#499d4a" fill-rule="evenodd"/>
        <path id="Path_885" data-name="Path 885" d="M7.375,31.549S-.444,26.213.02,16.816C.461,7.419,5.983,2.8,7.05,1.966A2.16,2.16,0,0,0,7.816.2c.487,1.044.394,15.615.464,17.332.209,6.613-.371,12.761-.9,14.014Z" transform="translate(0 -0.203)" fill="#fff" fill-rule="evenodd"/>
        <path id="Path_886" data-name="Path 886" d="M7.375,31.549S-.444,26.213.02,16.816C.461,7.419,5.983,2.8,7.05,1.966A2.16,2.16,0,0,0,7.816.2c.487,1.044.394,15.615.464,17.332.209,6.613-.371,12.761-.9,14.014Z" transform="translate(0 -0.203)" fill="#58aa50" fill-rule="evenodd"/>
      </g>
    </g>
  </g>
</svg>
