<svg xmlns="http://www.w3.org/2000/svg" width="101.231" height="61.999" viewBox="0 0 101.231 61.999">
  <g id="Group_4519" data-name="Group 4519" transform="translate(-12438.814 -6079)">
    <path id="Union_21" data-name="Union 21" d="M10.111,24.692,7.059,22.885c-.456-.255-.233-.345-.083-.4a6.158,6.158,0,0,0,1.38-.629.231.231,0,0,1,.227.016l2.345,1.391a.31.31,0,0,0,.283,0l9.142-5.277a.288.288,0,0,0,.14-.247V7.193a.293.293,0,0,0-.141-.252L11.213,1.669a.281.281,0,0,0-.282,0L1.795,6.941a.291.291,0,0,0-.145.249V17.74a.282.282,0,0,0,.142.245l2.5,1.446c1.359.68,2.19-.121,2.19-.927V8.092a.261.261,0,0,1,.265-.263H7.909a.262.262,0,0,1,.263.263V18.509a2.535,2.535,0,0,1-2.707,2.854,3.919,3.919,0,0,1-2.108-.572l-2.4-1.382A1.933,1.933,0,0,1,0,17.74V7.191A1.921,1.921,0,0,1,.959,5.525L10.11.245a2.006,2.006,0,0,1,1.922,0l9.14,5.282a1.928,1.928,0,0,1,.959,1.666V17.742a1.934,1.934,0,0,1-.959,1.666l-9.14,5.279a1.923,1.923,0,0,1-.963.256v0A1.926,1.926,0,0,1,10.111,24.692Zm3.783-7.013c-4,0-4.839-1.836-4.839-3.376a.263.263,0,0,1,.265-.263H10.5a.264.264,0,0,1,.261.224c.178,1.2.709,1.81,3.128,1.81,1.927,0,2.746-.435,2.746-1.457,0-.588-.233-1.025-3.227-1.318-2.5-.247-4.05-.8-4.05-2.8,0-1.844,1.556-2.943,4.163-2.943,2.927,0,4.378,1.016,4.561,3.2a.267.267,0,0,1-.071.2.273.273,0,0,1-.195.085H16.629a.262.262,0,0,1-.256-.206c-.286-1.266-.977-1.67-2.856-1.67-2.1,0-2.348.732-2.348,1.281,0,.666.288.86,3.126,1.236,2.81.373,4.144.9,4.144,2.874,0,1.991-1.661,3.133-4.558,3.133ZM23.54,6.626a1.761,1.761,0,1,1,3.522,0h0a1.762,1.762,0,1,1-3.524,0Zm.284-.007,0,0A1.477,1.477,0,1,0,25.3,5.148,1.479,1.479,0,0,0,23.826,6.621Zm.819,1V5.637h.68c.233,0,.691,0,.691.522a.454.454,0,0,1-.373.485c.272.018.291.2.327.449a1.926,1.926,0,0,0,.1.522h-.419c-.012-.091-.076-.595-.076-.622-.027-.112-.066-.167-.206-.167h-.346v.792ZM25.016,6.5h.307a.266.266,0,0,0,.3-.279c0-.27-.185-.27-.288-.27h-.316Z" transform="translate(12477.779 6116.05)" fill="#66a060"/>
    <path id="Path_871" data-name="Path 871" d="M21.725,20.721A1.171,1.171,0,0,0,21.14,19.7l-9.693-5.577a1.132,1.132,0,0,0-.533-.153h-.1a1.152,1.152,0,0,0-.535.153L.586,19.7A1.179,1.179,0,0,0,0,20.723L.021,35.743a.577.577,0,0,0,.291.506.554.554,0,0,0,.581,0l5.762-3.3a1.182,1.182,0,0,0,.586-1.016V24.916A1.167,1.167,0,0,1,7.826,23.9l2.453-1.413a1.164,1.164,0,0,1,.586-.157,1.143,1.143,0,0,1,.582.157L13.9,23.9a1.168,1.168,0,0,1,.586,1.014v7.017a1.186,1.186,0,0,0,.587,1.016l5.758,3.3a.572.572,0,0,0,.586,0,.588.588,0,0,0,.29-.506Zm45.737,7.821a.291.291,0,0,1-.146.253l-3.329,1.919a.293.293,0,0,1-.292,0L60.365,28.8a.29.29,0,0,1-.146-.253V24.7a.294.294,0,0,1,.144-.254l3.327-1.922a.3.3,0,0,1,.3,0l3.33,1.922a.292.292,0,0,1,.146.254Zm.9-28.468a.585.585,0,0,0-.871.512V15.461a.409.409,0,0,1-.614.355l-2.428-1.4a1.169,1.169,0,0,0-1.17,0l-9.7,5.6A1.168,1.168,0,0,0,53,21.024V32.219a1.172,1.172,0,0,0,.586,1.014l9.7,5.6a1.175,1.175,0,0,0,1.171,0l9.7-5.6a1.173,1.173,0,0,0,.586-1.014V4.317a1.173,1.173,0,0,0-.6-1.023ZM100.649,24.6a1.171,1.171,0,0,0,.582-1.012V20.872a1.171,1.171,0,0,0-.583-1.013l-9.634-5.593a1.17,1.17,0,0,0-1.174,0l-9.694,5.6a1.169,1.169,0,0,0-.586,1.014v11.19a1.175,1.175,0,0,0,.59,1.018l9.632,5.49a1.168,1.168,0,0,0,1.149.007l5.826-3.238a.584.584,0,0,0,0-1.018l-9.753-5.6a.581.581,0,0,1-.3-.506v-3.51a.581.581,0,0,1,.293-.507l3.034-1.751a.579.579,0,0,1,.584,0L93.662,24.2a.583.583,0,0,1,.293.506v2.76a.584.584,0,0,0,.879.506Zm0,0" transform="translate(12438.814 6079)" fill="#333" fill-rule="evenodd"/>
    <path id="Path_872" data-name="Path 872" d="M387.887,105.1a.222.222,0,0,1,.224,0l1.86,1.073a.225.225,0,0,1,.112.195v2.149a.225.225,0,0,1-.112.195l-1.86,1.073a.222.222,0,0,1-.224,0l-1.859-1.073a.224.224,0,0,1-.114-.195v-2.149a.222.222,0,0,1,.112-.195Zm0,0" transform="translate(12141.213 5997.976)" fill="#66a060" fill-rule="evenodd"/>
    <g id="Group_4518" data-name="Group 4518" transform="translate(12465.37 6093.167)">
      <path id="Path_874" data-name="Path 874" d="M204.578,226.081l-9.641,5.565a1.164,1.164,0,0,0-.583,1.008v11.137a1.163,1.163,0,0,0,.583,1.008l9.642,5.569a1.167,1.167,0,0,0,1.165,0l9.64-5.569a1.166,1.166,0,0,0,.581-1.008V232.654a1.164,1.164,0,0,0-.584-1.008l-9.639-5.565a1.172,1.172,0,0,0-1.167,0" transform="translate(-194.354 -225.925)" fill="#55a344"/>
      <path id="Path_898" data-name="Path 898" d="M224.76,226.081c-10,5.773.806,24.495,1.165,24.287l9.64-5.569a1.166,1.166,0,0,0,.581-1.008V232.654a1.164,1.164,0,0,0-.584-1.008l-9.639-5.565a1.173,1.173,0,0,0-.584-.156" transform="translate(-214.537 -225.925)" fill="#3b8739"/>
      <path id="Path_876" data-name="Path 876" d="M195.4,244.609a1.167,1.167,0,0,0,.343.3l8.27,4.777,1.378.792a1.169,1.169,0,0,0,.671.152,1.191,1.191,0,0,0,.229-.042l10.168-18.618a1.154,1.154,0,0,0-.271-.215l-6.313-3.645-3.337-1.92a1.217,1.217,0,0,0-.3-.121Zm0,0" transform="translate(-195.159 -226.036)" fill="#639d57"/>
      <path id="Path_899" data-name="Path 899" d="M195.4,276.361a1.166,1.166,0,0,0,.343.3l8.27,4.777,1.378.792a1.169,1.169,0,0,0,.671.152,1.193,1.193,0,0,0,.229-.042l4.667-9.2a1.153,1.153,0,0,0-.271-.215l-6.313-3.645-3.337-1.92a1.218,1.218,0,0,0-.3-.121Zm0,0" transform="translate(-195.159 -257.788)" fill="#3b8739"/>
      <path id="Path_878" data-name="Path 878" d="M207.1,225.938a1.176,1.176,0,0,0-.466.149l-9.613,5.549,10.366,18.881a1.155,1.155,0,0,0,.414-.143l9.641-5.569a1.168,1.168,0,0,0,.563-.8l-10.568-18.053a1.21,1.21,0,0,0-.236-.023c-.032,0-.064,0-.1,0" transform="translate(-196.411 -225.932)" fill="#6da75d"/>
    </g>
  </g>
</svg>
