<svg id="np_quote_404176_000000" xmlns="http://www.w3.org/2000/svg" width="71.876" height="50.001" viewBox="0 0 71.876 50.001">
  <path id="Path_216" data-name="Path 216" d="M31.25,73.439a17.187,17.187,0,1,0-.285-34.372,23.158,23.158,0,0,1,15.91-6.254,1.562,1.562,0,0,0,1.563-1.562V25a1.562,1.562,0,0,0-1.562-1.562A32.741,32.741,0,0,0,14.152,54.493a17.421,17.421,0,0,0-.09,1.758A17.208,17.208,0,0,0,31.25,73.439Z" transform="translate(23.438 -23.438)" fill="#4188f6"/>
  <path id="Path_217" data-name="Path 217" d="M68.75,73.439a17.187,17.187,0,1,0-.285-34.372,23.158,23.158,0,0,1,15.91-6.254,1.562,1.562,0,0,0,1.563-1.562V25a1.562,1.562,0,0,0-1.562-1.562A32.741,32.741,0,0,0,51.652,54.493a17.421,17.421,0,0,0-.09,1.758A17.208,17.208,0,0,0,68.75,73.439Z" transform="translate(-51.562 -23.438)" fill="#4188f6"/>
</svg>
