<svg xmlns="http://www.w3.org/2000/svg" width="56.855" height="56.42" viewBox="0 0 56.855 56.42">
  <g id="np_quotation_1568876_000000" transform="translate(-1.301 -1.678)" style="mix-blend-mode: normal;isolation: isolate">
    <path id="Path_938" data-name="Path 938" d="M63.279,32.481c-1.446-.144-4.625-.144-4.625-2.166,0-2.746,4.045-6.358,10.546-10.257,2.023-1.3,6.214-3.322,6.214-6.068,0-2.166-1.589-3.756-4.912-3.322-3.179.433-8.09,2.6-14.592,8.09C49.12,24.39,42.765,33.781,42.765,43.028c0,9.39,6.358,18.783,16.615,18.783,8.234,0,15.314-6.212,15.314-14.738,0-6.5-4.479-14.015-11.416-14.592Z" transform="translate(-17.259 -3.712)" fill="#fff"/>
    <path id="Path_939" data-name="Path 939" d="M25.712,24.706a10.162,10.162,0,0,0-3.893-1.142c-1.446-.144-4.625-.144-4.625-2.166,0-2.746,4.045-6.358,10.546-10.257,2.023-1.3,6.212-3.322,6.212-6.068,0-2.166-1.589-3.756-4.912-3.322-3.179.433-8.09,2.6-14.592,8.09C7.658,15.472,1.3,24.863,1.3,34.11c0,9.39,6.358,18.783,16.615,18.783A15.953,15.953,0,0,0,24.7,51.388a25.17,25.17,0,0,1-3.1-12.072,30.626,30.626,0,0,1,4.114-14.61Z" transform="translate(0 0)" fill="#fff"/>
  </g>
</svg>
