<svg xmlns="http://www.w3.org/2000/svg" width="77.182" height="82.998" viewBox="0 0 77.182 82.998">
  <g id="Group_4520" data-name="Group 4520" transform="translate(-12049.037 -6203.137)">
    <path id="Path_901_-_Outline" data-name="Path 901 - Outline" d="M738.286,1152.992a2.856,2.856,0,0,0,2.564-1.313l-.71-.553a2.625,2.625,0,0,1-.748.666,2.026,2.026,0,0,1-1.043.251,1.862,1.862,0,0,1-1.433-.616,2.438,2.438,0,0,1-.584-1.628h4.606v-.484a3.782,3.782,0,0,0-.735-2.5,2.547,2.547,0,0,0-2.061-.874,2.718,2.718,0,0,0-1.508.453,3.013,3.013,0,0,0-1.081,1.244,4.088,4.088,0,0,0-.383,1.8v.214a3.381,3.381,0,0,0,.867,2.432,2.975,2.975,0,0,0,2.25.9h0m-.145-6.1a1.457,1.457,0,0,1,1.156.49,2.2,2.2,0,0,1,.477,1.37v.088H736.37a2.471,2.471,0,0,1,.591-1.433,1.546,1.546,0,0,1,1.181-.515m-57.478,6.1a2.855,2.855,0,0,0,2.564-1.313l-.71-.553a2.621,2.621,0,0,1-.748.666,2.024,2.024,0,0,1-1.043.251,1.862,1.862,0,0,1-1.433-.616,2.438,2.438,0,0,1-.584-1.628h4.606v-.484a3.781,3.781,0,0,0-.735-2.5,2.546,2.546,0,0,0-2.061-.874,2.718,2.718,0,0,0-1.508.453,3.016,3.016,0,0,0-1.081,1.244,4.088,4.088,0,0,0-.383,1.8v.214a3.382,3.382,0,0,0,.867,2.432,2.976,2.976,0,0,0,2.25.9m-.145-6.1a1.458,1.458,0,0,1,1.156.49,2.2,2.2,0,0,1,.478,1.37v.088h-3.406a2.474,2.474,0,0,1,.591-1.433,1.546,1.546,0,0,1,1.181-.515m43.446,6.1a3.37,3.37,0,0,0,.893-.126v-.943a2.821,2.821,0,0,1-.553.076.721.721,0,0,1-.578-.2.956.956,0,0,1-.17-.616v-4.216h1.269v-.9h-1.269v-1.646h-1.162v1.646h-1.238v.9h1.238v4.216a2.027,2.027,0,0,0,.4,1.339,1.45,1.45,0,0,0,1.175.471m-6.887,0a2.6,2.6,0,0,0,1.935-.842,2.431,2.431,0,0,0,.163.716H720.4v-.1a3.821,3.821,0,0,1-.239-1.489v-3.129a2.11,2.11,0,0,0-.691-1.615,2.678,2.678,0,0,0-1.841-.591,3.321,3.321,0,0,0-1.363.276,2.486,2.486,0,0,0-.98.754,1.6,1.6,0,0,0-.358.98h1.169a.926.926,0,0,1,.421-.76,1.694,1.694,0,0,1,1.043-.314,1.456,1.456,0,0,1,1.075.365,1.294,1.294,0,0,1,.365.968v.534h-1.131a3.8,3.8,0,0,0-2.275.591,1.916,1.916,0,0,0-.8,1.646,1.854,1.854,0,0,0,.641,1.445,2.419,2.419,0,0,0,1.653.566m1.005-3.425h.911v1.4a1.714,1.714,0,0,1-.71.735,2.044,2.044,0,0,1-1.037.283,1.4,1.4,0,0,1-.937-.308,1.059,1.059,0,0,1-.364-.854q0-1.251,2.136-1.25m-17.7,3.425a3.364,3.364,0,0,0,.892-.126v-.943a2.815,2.815,0,0,1-.553.076.721.721,0,0,1-.578-.2.956.956,0,0,1-.17-.616v-4.216h1.269v-.9H699.98v-1.646h-1.162v1.646h-1.238v.9h1.238v4.216a2.026,2.026,0,0,0,.4,1.339,1.449,1.449,0,0,0,1.175.471m-5.995,0a2.835,2.835,0,0,0,1.307-.314,2.64,2.64,0,0,0,.993-.842,2.109,2.109,0,0,0,.4-1.112H696a1.326,1.326,0,0,1-.515.943,1.675,1.675,0,0,1-1.087.377,1.635,1.635,0,0,1-1.382-.635,2.936,2.936,0,0,1-.484-1.81v-.22a3,3,0,0,1,.484-1.841,1.632,1.632,0,0,1,1.376-.641,1.537,1.537,0,0,1,1.106.427,1.584,1.584,0,0,1,.5,1.081h1.1a2.444,2.444,0,0,0-.811-1.778,2.715,2.715,0,0,0-1.9-.685,2.985,2.985,0,0,0-1.615.427,2.782,2.782,0,0,0-1.043,1.2,4.093,4.093,0,0,0-.364,1.766v.194a3.714,3.714,0,0,0,.817,2.539,2.815,2.815,0,0,0,2.212.924m-7.628,0a2.6,2.6,0,0,0,1.935-.842,2.429,2.429,0,0,0,.163.716h1.219v-.1a3.821,3.821,0,0,1-.239-1.489v-3.129a2.109,2.109,0,0,0-.691-1.615,2.677,2.677,0,0,0-1.841-.591,3.32,3.32,0,0,0-1.363.276,2.487,2.487,0,0,0-.98.754,1.6,1.6,0,0,0-.358.98h1.169a.925.925,0,0,1,.421-.76,1.694,1.694,0,0,1,1.043-.314,1.457,1.457,0,0,1,1.075.365,1.3,1.3,0,0,1,.364.968v.534h-1.131a3.8,3.8,0,0,0-2.275.591,1.916,1.916,0,0,0-.8,1.646,1.854,1.854,0,0,0,.641,1.445,2.419,2.419,0,0,0,1.653.566m1.005-3.425h.911v1.4a1.714,1.714,0,0,1-.71.735,2.044,2.044,0,0,1-1.037.283,1.4,1.4,0,0,1-.936-.308,1.058,1.058,0,0,1-.364-.854q0-1.251,2.137-1.25m44.225,3.3,2.438-6.8h-1.188l-1.684,5.222-1.728-5.222h-1.188l2.463,6.8H732m-4.543,0v-6.8H726.29v6.8h1.163m-14.434,0v-9.149h-1.2v7.082l-4.619-7.082h-1.213v9.149H707.2v-7.05l4.606,7.05h1.213m-36.289,0v-.075l-2.149-3.883a2.737,2.737,0,0,0,1.282-.949,2.452,2.452,0,0,0,.465-1.49,2.527,2.527,0,0,0-.836-2.048,3.572,3.572,0,0,0-2.375-.7h-3.029v9.149H671.3v-3.7h2.149l1.986,3.7h1.294m-5.429-8.156h1.847a2.131,2.131,0,0,1,1.458.459,1.649,1.649,0,0,1,.509,1.3,1.567,1.567,0,0,1-.534,1.244,2.081,2.081,0,0,1-1.426.465H671.3v-3.469m55.58.214a.671.671,0,0,0,.515-.189.665.665,0,0,0,.176-.471.687.687,0,0,0-.176-.478.779.779,0,0,0-1.031,0,.7.7,0,0,0-.17.478.679.679,0,0,0,.17.471.671.671,0,0,0,.515.189m11.405,10.068h-.027a4.977,4.977,0,0,1-3.666-1.521l0,0a5.022,5.022,0,0,1-.475-.579l-.235.654a2,2,0,0,1-1.883,1.325h-.886a2,2,0,0,0-3.657,0H726.29a2,2,0,0,1-.717-.132q-.091.035-.187.061a5.384,5.384,0,0,1-1.421.2,3.512,3.512,0,0,1-2.182-.685,1.994,1.994,0,0,1-1.387.559h-1.219a2,2,0,0,1-.639-.1,4.64,4.64,0,0,1-1.46.23,4.515,4.515,0,0,1-2.592-.767,1.994,1.994,0,0,1-1.467.641h-1.213a2,2,0,0,1-1.674-.906l-.931-1.426v.332a2,2,0,0,1-2,2h-1.213a2,2,0,0,1-2-2v-9.149a2,2,0,0,1,2-2H707.2a2,2,0,0,1,1.675.907l.943,1.447v-.354a2,2,0,0,1,2-2h1.2a2,2,0,0,1,2,2v.891q.2-.116.423-.214l.008,0a5.322,5.322,0,0,1,2.175-.448,5.01,5.01,0,0,1,2.336.522,7.294,7.294,0,0,0,2.434-2.043h1.162a1.991,1.991,0,0,1,1.092.324,2.73,2.73,0,0,1,.208-.272l.024-.027a2.69,2.69,0,0,1,4.684,1.621h.269a2,2,0,0,0,3.412,0h1.188a2,2,0,0,1,1.336.511,4.678,4.678,0,0,1,2.372-.637,4.507,4.507,0,0,1,3.591,1.586,5.714,5.714,0,0,1,1.205,3.789v.484a7.523,7.523,0,0,0-.412,2.97A4.819,4.819,0,0,1,738.286,1154.992Zm-57.622,0a5.174,5.174,0,0,1-2.581-.652,1.993,1.993,0,0,1-1.352.526h-1.294a2,2,0,0,1-1.762-1.054l-.385-.718a2,2,0,0,1-1.987,1.772h-1.213a2,2,0,0,1-2-2v-9.149a2,2,0,0,1,2-2h3.029a5.5,5.5,0,0,1,3.667,1.177,4.212,4.212,0,0,1,1.236,1.761,4.689,4.689,0,0,1,2.5-.713,4.545,4.545,0,0,1,3.327,1.3,4.621,4.621,0,0,1,1.283-.846l.008,0a5.32,5.32,0,0,1,2.175-.449,4.617,4.617,0,0,1,3.164,1.091,3.971,3.971,0,0,1,.354.354,4.691,4.691,0,0,1,.877-.71l.005,0a5.218,5.218,0,0,1,4.778-.284,6.1,6.1,0,0,0,2.327-1.968h1.162a10.333,10.333,0,0,1,3.269,3.646v.9a2,2,0,0,1-1.269,1.862v1.222a2,2,0,0,1,1.3,1.874v.943a2,2,0,0,1-1.471,1.929,5.378,5.378,0,0,1-1.421.2,3.388,3.388,0,0,1-2.706-1.184l-.041-.05a4.93,4.93,0,0,1-3.248,1.233,4.973,4.973,0,0,1-2.806-.808,2,2,0,0,1-1.5.682h-1.219a2,2,0,0,1-.639-.1,4.64,4.64,0,0,1-1.46.23,4.437,4.437,0,0,1-2.936-1.031A4.979,4.979,0,0,1,680.664,1154.992Z" transform="translate(11382.469 5131.143)" fill="#fff"/>
    <g id="react-seeklogo.com" transform="translate(12048.283 6202.353)">
      <path id="Path_865" data-name="Path 865" d="M.754,35.356c0,5.829,5.692,11.27,14.665,14.337-1.792,9.021-.321,16.292,4.591,19.125,5.05,2.912,12.572.9,19.712-5.345,6.96,5.989,13.994,8.346,18.9,5.505,5.045-2.92,6.579-10.684,4.738-19.987,9.346-3.09,14.574-7.73,14.574-13.635,0-5.694-5.7-10.619-14.555-13.667,1.982-9.687.3-16.782-4.813-19.732-4.932-2.844-12.048-.365-19.11,5.781-7.347-6.524-14.393-8.515-19.5-5.556-4.927,2.852-6.333,10.255-4.536,19.443C6.749,24.649.754,29.686.754,35.356Z" transform="translate(0 0)" fill="#fff"/>
      <path id="Path_866" data-name="Path 866" d="M71.6,34.281q-1.067-.367-2.207-.7.187-.763.341-1.5c1.67-8.108.578-14.64-3.151-16.79-3.576-2.062-9.424.088-15.33,5.228q-.852.741-1.707,1.566-.569-.544-1.136-1.049c-6.19-5.5-12.394-7.812-16.12-5.655-3.572,2.068-4.63,8.208-3.127,15.892q.218,1.113.507,2.271c-.878.249-1.726.515-2.537.8-7.257,2.53-11.892,6.5-11.892,10.608,0,4.248,4.975,8.509,12.534,11.092q.895.306,1.853.58-.311,1.25-.538,2.447c-1.434,7.55-.314,13.546,3.249,15.6,3.68,2.122,9.856-.059,15.871-5.316q.713-.623,1.43-1.318.929.895,1.853,1.691c5.825,5.013,11.579,7.037,15.139,4.976,3.676-2.128,4.871-8.569,3.32-16.4q-.178-.9-.411-1.832.651-.192,1.275-.4c7.858-2.6,12.971-6.812,12.971-11.117,0-4.128-4.784-8.12-12.187-10.668Z" transform="translate(-10.094 -9.565)" fill="#53c1de"/>
      <path id="Path_867" data-name="Path 867" d="M76.62,60q-.562.186-1.151.36A68.683,68.683,0,0,0,72,51.673a68.668,68.668,0,0,0,3.336-8.557q1.052.3,2.038.643c6.343,2.184,10.212,5.412,10.212,7.9,0,2.65-4.179,6.09-10.963,8.338Zm-2.815,5.578a24.8,24.8,0,0,1,.33,9.047c-.408,2.2-1.229,3.668-2.244,4.255-2.16,1.25-6.78-.375-11.762-4.662q-.857-.737-1.723-1.572a68.792,68.792,0,0,0,5.746-7.3,68.346,68.346,0,0,0,9.283-1.431q.21.846.371,1.658ZM45.336,78.66c-2.111.745-3.791.767-4.808.181-2.162-1.247-3.061-6.061-1.835-12.518q.211-1.109.5-2.276a68.863,68.863,0,0,0,9.237,1.337,71.282,71.282,0,0,0,5.884,7.27q-.656.633-1.306,1.2a24.8,24.8,0,0,1-7.673,4.8ZM35.448,59.98a24.8,24.8,0,0,1-7.994-4.247c-1.7-1.456-2.558-2.9-2.558-4.074,0-2.5,3.721-5.679,9.927-7.843.753-.263,1.541-.51,2.359-.742a70.188,70.188,0,0,0,3.341,8.657,71.338,71.338,0,0,0-3.383,8.78q-.875-.251-1.692-.53Zm3.314-22.561c-1.288-6.583-.433-11.55,1.72-12.8,2.293-1.328,7.364.565,12.708,5.311q.512.455,1.029.949a70.146,70.146,0,0,0-5.839,7.226,71.566,71.566,0,0,0-9.147,1.422q-.268-1.076-.471-2.112Zm29.567,7.3q-1.017-1.757-2.084-3.428c2.187.276,4.282.643,6.25,1.093a62.547,62.547,0,0,1-2.194,5.9q-.933-1.771-1.972-3.567ZM56.272,32.976a62.594,62.594,0,0,1,4.034,4.869q-2.011-.095-4.066-.1-2.033,0-4.035.094c1.332-1.756,2.7-3.388,4.068-4.868ZM44.138,44.74Q43.121,46.5,42.2,48.285c-.853-2.022-1.582-4.011-2.178-5.931,1.956-.438,4.041-.8,6.214-1.067q-1.08,1.684-2.1,3.453Zm2.164,17.5a62.327,62.327,0,0,1-6.317-1.015c.605-1.954,1.351-3.986,2.222-6.051q.92,1.778,1.943,3.547h0q1.042,1.8,2.152,3.52Zm10.052,8.308c-1.388-1.5-2.772-3.154-4.124-4.935q1.969.077,4.01.078,2.1,0,4.138-.092a62.281,62.281,0,0,1-4.024,4.95ZM70.329,55.066a62.122,62.122,0,0,1,2.3,6.03,62.211,62.211,0,0,1-6.394,1.09q1.067-1.691,2.1-3.488,1.047-1.816,1.988-3.632ZM65.8,57.235c-1.071,1.858-2.172,3.631-3.288,5.305-2.034.145-4.135.22-6.277.22s-4.208-.066-6.206-.2c-1.162-1.7-2.286-3.475-3.35-5.314h0c-1.062-1.834-2.039-3.684-2.925-5.523.885-1.843,1.86-3.7,2.916-5.526h0C47.733,44.368,48.847,42.6,50,40.912c2.039-.154,4.129-.235,6.241-.235h0c2.122,0,4.215.081,6.253.236,1.133,1.673,2.24,3.437,3.3,5.273,1.075,1.856,2.062,3.7,2.955,5.5-.89,1.835-1.875,3.693-2.945,5.548Zm6.041-32.7c2.3,1.324,3.188,6.662,1.746,13.662q-.138.67-.308,1.363a70.146,70.146,0,0,0-9.165-1.448,68.786,68.786,0,0,0-5.794-7.231q.79-.76,1.576-1.446c5.06-4.4,9.79-6.143,11.945-4.9Z" transform="translate(-16.818 -16.274)" fill="#fff"/>
      <path id="Path_868" data-name="Path 868" d="M114.165,94.665a6.121,6.121,0,1,1-6.121,6.121,6.121,6.121,0,0,1,6.121-6.121" transform="translate(-74.743 -65.402)" fill="#53c1de"/>
    </g>
    <path id="Path_901" data-name="Path 901" d="M673.45,1149.165H671.3v3.7h-1.213v-9.149h3.029a3.572,3.572,0,0,1,2.375.7,2.527,2.527,0,0,1,.836,2.048,2.452,2.452,0,0,1-.465,1.49,2.737,2.737,0,0,1-1.282.949l2.149,3.883v.075h-1.294Zm-2.149-.986h1.854a2.081,2.081,0,0,0,1.426-.465,1.567,1.567,0,0,0,.534-1.244,1.649,1.649,0,0,0-.509-1.3,2.131,2.131,0,0,0-1.458-.459H671.3Zm9.363,4.813a2.976,2.976,0,0,1-2.25-.9,3.382,3.382,0,0,1-.867-2.432v-.214a4.088,4.088,0,0,1,.383-1.8,3.016,3.016,0,0,1,1.081-1.244,2.718,2.718,0,0,1,1.508-.453,2.546,2.546,0,0,1,2.061.874,3.781,3.781,0,0,1,.735,2.5v.484h-4.606a2.438,2.438,0,0,0,.584,1.628,1.862,1.862,0,0,0,1.433.616,2.024,2.024,0,0,0,1.043-.251,2.621,2.621,0,0,0,.748-.666l.71.553A2.855,2.855,0,0,1,680.664,1152.992Zm-.145-6.1a1.546,1.546,0,0,0-1.181.515,2.474,2.474,0,0,0-.591,1.433h3.406v-.088a2.2,2.2,0,0,0-.478-1.37A1.458,1.458,0,0,0,680.519,1146.9Zm8.345,5.969a2.429,2.429,0,0,1-.163-.716,2.6,2.6,0,0,1-1.935.842,2.419,2.419,0,0,1-1.653-.566,1.854,1.854,0,0,1-.641-1.445,1.916,1.916,0,0,1,.8-1.646,3.8,3.8,0,0,1,2.275-.591h1.131v-.534a1.3,1.3,0,0,0-.364-.968,1.457,1.457,0,0,0-1.075-.365,1.694,1.694,0,0,0-1.043.314.925.925,0,0,0-.421.76H684.61a1.6,1.6,0,0,1,.358-.98,2.487,2.487,0,0,1,.98-.754,3.32,3.32,0,0,1,1.363-.276,2.677,2.677,0,0,1,1.841.591,2.109,2.109,0,0,1,.691,1.615v3.129a3.821,3.821,0,0,0,.239,1.489v.1Zm-1.929-.886a2.044,2.044,0,0,0,1.037-.283,1.714,1.714,0,0,0,.71-.735v-1.4h-.911q-2.136,0-2.137,1.25a1.058,1.058,0,0,0,.364.854A1.4,1.4,0,0,0,686.935,1151.981Zm7.459.063a1.675,1.675,0,0,0,1.087-.377,1.326,1.326,0,0,0,.515-.943h1.1a2.109,2.109,0,0,1-.4,1.112,2.64,2.64,0,0,1-.993.842,3.024,3.024,0,0,1-3.519-.609,3.714,3.714,0,0,1-.817-2.539v-.194a4.093,4.093,0,0,1,.364-1.766,2.782,2.782,0,0,1,1.043-1.2,2.985,2.985,0,0,1,1.615-.427,2.715,2.715,0,0,1,1.9.685,2.444,2.444,0,0,1,.811,1.778H696a1.584,1.584,0,0,0-.5-1.081,1.537,1.537,0,0,0-1.106-.427,1.632,1.632,0,0,0-1.376.641,3,3,0,0,0-.484,1.841v.22a2.936,2.936,0,0,0,.484,1.81A1.635,1.635,0,0,0,694.394,1152.043Zm5.586-7.622v1.646h1.269v.9H699.98v4.216a.956.956,0,0,0,.17.616.721.721,0,0,0,.578.2,2.815,2.815,0,0,0,.553-.076v.943a3.364,3.364,0,0,1-.892.126,1.449,1.449,0,0,1-1.175-.471,2.026,2.026,0,0,1-.4-1.339v-4.216h-1.238v-.9h1.238v-1.646Zm13.039,8.445h-1.213l-4.606-7.05v7.05h-1.213v-9.149H707.2l4.619,7.082v-7.082h1.2Zm6.158,0a2.431,2.431,0,0,1-.163-.716,2.6,2.6,0,0,1-1.935.842,2.419,2.419,0,0,1-1.653-.566,1.854,1.854,0,0,1-.641-1.445,1.916,1.916,0,0,1,.8-1.646,3.8,3.8,0,0,1,2.275-.591h1.131v-.534a1.294,1.294,0,0,0-.365-.968,1.456,1.456,0,0,0-1.075-.365,1.694,1.694,0,0,0-1.043.314.926.926,0,0,0-.421.76h-1.169a1.6,1.6,0,0,1,.358-.98,2.486,2.486,0,0,1,.98-.754,3.321,3.321,0,0,1,1.363-.276,2.678,2.678,0,0,1,1.841.591,2.11,2.11,0,0,1,.691,1.615v3.129a3.821,3.821,0,0,0,.239,1.489v.1Zm-1.929-.886a2.044,2.044,0,0,0,1.037-.283,1.714,1.714,0,0,0,.71-.735v-1.4h-.911q-2.136,0-2.136,1.25a1.059,1.059,0,0,0,.364.854A1.4,1.4,0,0,0,717.248,1151.981Zm6.309-7.559v1.646h1.269v.9h-1.269v4.216a.956.956,0,0,0,.17.616.721.721,0,0,0,.578.2,2.821,2.821,0,0,0,.553-.076v.943a3.37,3.37,0,0,1-.893.126,1.45,1.45,0,0,1-1.175-.471,2.027,2.027,0,0,1-.4-1.339v-4.216h-1.238v-.9h1.238v-1.646Zm3.9,8.445H726.29v-6.8h1.163Zm-1.257-8.6a.7.7,0,0,1,.17-.478.779.779,0,0,1,1.031,0,.687.687,0,0,1,.176.478.665.665,0,0,1-.176.471.8.8,0,0,1-1.031,0A.679.679,0,0,1,726.2,1144.264Zm5.367,7.025,1.684-5.222h1.188l-2.438,6.8h-.886l-2.463-6.8h1.188Zm6.724,1.7a2.975,2.975,0,0,1-2.25-.9,3.381,3.381,0,0,1-.867-2.432v-.214a4.088,4.088,0,0,1,.383-1.8,3.013,3.013,0,0,1,1.081-1.244,2.718,2.718,0,0,1,1.508-.453,2.547,2.547,0,0,1,2.061.874,3.782,3.782,0,0,1,.735,2.5v.484h-4.606a2.438,2.438,0,0,0,.584,1.628,1.862,1.862,0,0,0,1.433.616,2.026,2.026,0,0,0,1.043-.251,2.625,2.625,0,0,0,.748-.666l.71.553a2.856,2.856,0,0,1-2.564,1.313Zm-.145-6.1a1.546,1.546,0,0,0-1.181.515,2.471,2.471,0,0,0-.591,1.433h3.406v-.088a2.2,2.2,0,0,0-.477-1.37A1.457,1.457,0,0,0,738.141,1146.9Z" transform="translate(11382.469 5131.143)" fill="#53c1de"/>
  </g>
</svg>
