<svg id="Group_4538" data-name="Group 4538" xmlns="http://www.w3.org/2000/svg" width="188.665" height="55.532" viewBox="0 0 188.665 55.532">
  <path id="Path_382" data-name="Path 382" d="M181.673,54.939H7.208a6.4,6.4,0,0,1-6.4-6.4V7.208a6.4,6.4,0,0,1,6.4-6.4H181.673a6.4,6.4,0,0,1,6.4,6.4V48.539a6.4,6.4,0,0,1-6.4,6.4" transform="translate(-0.107 -0.107)"/>
  <path id="Path_383" data-name="Path 383" d="M181.565,55.532H7.1a7.108,7.108,0,0,1-7.1-7.1V7.1A7.108,7.108,0,0,1,7.1,0H181.565a7.108,7.108,0,0,1,7.1,7.1V48.431a7.108,7.108,0,0,1-7.1,7.1M7.1,1.4A5.706,5.706,0,0,0,1.4,7.1V48.431a5.706,5.706,0,0,0,5.7,5.7H181.565a5.706,5.706,0,0,0,5.7-5.7V7.1a5.706,5.706,0,0,0-5.7-5.7Z" transform="translate(0)" fill="#96999c"/>
  <g id="Group_4537" data-name="Group 4537" transform="translate(17.822 8.22)">
    <g id="Group_4536" data-name="Group 4536">
      <path id="Path_396" data-name="Path 396" d="M44.84,29.808a8.117,8.117,0,0,1,3.868-6.813,8.313,8.313,0,0,0-6.551-3.542C39.4,19.164,36.729,21.1,35.328,21.1c-1.431,0-3.6-1.622-5.923-1.575a8.728,8.728,0,0,0-7.341,4.478c-3.173,5.495-.806,13.57,2.233,18.014,1.522,2.174,3.3,4.6,5.626,4.517,2.276-.094,3.125-1.45,5.873-1.45,2.723,0,3.522,1.45,5.895,1.395,2.443-.04,3.979-2.185,5.447-4.381a17.9,17.9,0,0,0,2.493-5.074,7.847,7.847,0,0,1-4.79-7.22" transform="translate(-20.557 -10.804)" fill="#fff"/>
      <path id="Path_397" data-name="Path 397" d="M42.573,15.209A7.975,7.975,0,0,0,44.4,9.481a8.132,8.132,0,0,0-5.261,2.724,7.6,7.6,0,0,0-1.879,5.516,6.724,6.724,0,0,0,5.312-2.512" transform="translate(-22.774 -9.481)" fill="#fff"/>
    </g>
    <g id="Group_4535" data-name="Group 4535" transform="translate(41.491 0.534)">
      <path id="Path_384" data-name="Path 384" d="M72.065,17.212,71.279,19.8H69.561l2.923-9.121h2.124L77.572,19.8H75.787l-.825-2.584Zm2.612-1.259-.719-2.246c-.174-.555-.324-1.177-.459-1.705h-.028c-.134.528-.271,1.163-.433,1.705l-.7,2.246Z" transform="translate(-68.567 -10.174)" fill="#fff"/>
      <path id="Path_385" data-name="Path 385" d="M81.395,13.594l1.069,3.343c.19.582.324,1.11.446,1.651h.041c.122-.541.27-1.056.446-1.651l1.055-3.343H86.2l-2.517,6.591H82.044L79.6,13.594Z" transform="translate(-69.902 -10.563)" fill="#fff"/>
      <path id="Path_386" data-name="Path 386" d="M94.019,18.579a8.853,8.853,0,0,0,.108,1.583h-1.5l-.121-.73h-.041a2.411,2.411,0,0,1-1.949.879,1.956,1.956,0,0,1-2.07-1.962c0-1.652,1.476-2.5,3.911-2.49v-.108c0-.433-.176-1.15-1.339-1.15a3.49,3.49,0,0,0-1.773.487L88.917,14a4.751,4.751,0,0,1,2.382-.582,2.469,2.469,0,0,1,2.721,2.787ZM92.4,16.941c-1.177-.014-2.3.231-2.3,1.232a.873.873,0,0,0,.948.947,1.366,1.366,0,0,0,1.313-.907,1.115,1.115,0,0,0,.041-.365Z" transform="translate(-71.08 -10.54)" fill="#fff"/>
      <path id="Path_387" data-name="Path 387" d="M98.4,12.226a.942.942,0,1,1,.014,0Zm-.825.947h1.665v6.591H97.575Z" transform="translate(-72.282 -10.141)" fill="#fff"/>
      <rect id="Rectangle_1886" data-name="Rectangle 1886" width="1.665" height="9.622" transform="translate(29.352)" fill="#fff"/>
      <path id="Path_388" data-name="Path 388" d="M112.013,18.579a8.945,8.945,0,0,0,.107,1.583h-1.5l-.122-.73h-.041a2.409,2.409,0,0,1-1.949.879,1.956,1.956,0,0,1-2.07-1.962c0-1.652,1.476-2.5,3.911-2.49v-.108c0-.433-.175-1.15-1.339-1.15a3.49,3.49,0,0,0-1.773.487L106.911,14a4.748,4.748,0,0,1,2.382-.582,2.469,2.469,0,0,1,2.721,2.787Zm-1.625-1.638c-1.176-.014-2.3.231-2.3,1.232a.873.873,0,0,0,.947.947,1.364,1.364,0,0,0,1.313-.907,1.115,1.115,0,0,0,.041-.365Z" transform="translate(-73.473 -10.54)" fill="#fff"/>
      <path id="Path_389" data-name="Path 389" d="M115.575,10.1h1.665v3.939h.027a2.385,2.385,0,0,1,2.112-1.056c1.609,0,2.76,1.339,2.747,3.343,0,2.368-1.5,3.546-2.991,3.546a2.269,2.269,0,0,1-2.084-1.137h-.027l-.081.988h-1.42c.027-.446.054-1.177.054-1.841Zm1.665,6.9a1.915,1.915,0,0,0,.04.393,1.522,1.522,0,0,0,1.476,1.163c1.041,0,1.678-.825,1.678-2.165,0-1.164-.555-2.111-1.665-2.111a1.549,1.549,0,0,0-1.476,1.218,2.055,2.055,0,0,0-.053.433Z" transform="translate(-74.682 -10.098)" fill="#fff"/>
      <rect id="Rectangle_1887" data-name="Rectangle 1887" width="1.665" height="9.622" transform="translate(49.402)" fill="#fff"/>
      <path id="Path_390" data-name="Path 390" d="M131.209,17.335a1.79,1.79,0,0,0,2.03,1.7,5.322,5.322,0,0,0,1.827-.3l.244,1.136a5.927,5.927,0,0,1-2.3.42,3.118,3.118,0,0,1-3.4-3.33,3.263,3.263,0,0,1,3.222-3.544c2.137,0,2.842,1.758,2.842,3.206a4.132,4.132,0,0,1-.055.7Zm2.9-1.165a1.417,1.417,0,0,0-1.367-1.61,1.628,1.628,0,0,0-1.528,1.61Z" transform="translate(-76.556 -10.54)" fill="#fff"/>
      <path id="Path_391" data-name="Path 391" d="M145.57,20.312a3.187,3.187,0,0,1-3.3-3.4,3.255,3.255,0,0,1,3.411-3.492,3.163,3.163,0,0,1,3.275,3.384,3.262,3.262,0,0,1-3.37,3.505Zm.054-1.205c.947,0,1.61-.92,1.61-2.259,0-1.029-.46-2.22-1.6-2.22-1.178,0-1.652,1.15-1.652,2.247,0,1.272.637,2.232,1.625,2.232Z" transform="translate(-78.24 -10.54)" fill="#fff"/>
      <path id="Path_392" data-name="Path 392" d="M152.232,15.534c0-.758-.027-1.394-.055-1.963h1.448l.081.988h.041a2.421,2.421,0,0,1,2.112-1.137c1.15,0,2.341.744,2.341,2.828v3.911h-1.665V16.441c0-.948-.352-1.665-1.259-1.665a1.4,1.4,0,0,0-1.3.974,1.53,1.53,0,0,0-.081.527v3.884h-1.665Z" transform="translate(-79.558 -10.54)" fill="#fff"/>
      <path id="Path_393" data-name="Path 393" d="M167.575,11.643v1.691h1.583v1.245h-1.583v2.9c0,.812.217,1.218.852,1.218a2.178,2.178,0,0,0,.649-.068l.028,1.258a3.64,3.64,0,0,1-1.205.176,1.905,1.905,0,0,1-1.434-.541,2.6,2.6,0,0,1-.528-1.854V14.579H165V13.334h.934V12.1Z" transform="translate(-81.265 -10.303)" fill="#fff"/>
      <path id="Path_394" data-name="Path 394" d="M171.934,10.1H173.6v3.925h.027a2.2,2.2,0,0,1,.825-.745,2.354,2.354,0,0,1,1.15-.3c1.123,0,2.3.745,2.3,2.856V19.72h-1.665V16.012c0-.948-.352-1.678-1.273-1.678a1.388,1.388,0,0,0-1.3.934,1.508,1.508,0,0,0-.068.5V19.72h-1.665Z" transform="translate(-82.187 -10.098)" fill="#fff"/>
      <path id="Path_395" data-name="Path 395" d="M182.66,17.335a1.79,1.79,0,0,0,2.03,1.7,5.322,5.322,0,0,0,1.827-.3l.244,1.136a5.922,5.922,0,0,1-2.3.42,3.119,3.119,0,0,1-3.4-3.33,3.263,3.263,0,0,1,3.222-3.544c2.138,0,2.842,1.758,2.842,3.206a4.244,4.244,0,0,1-.054.7Zm2.9-1.165a1.416,1.416,0,0,0-1.366-1.61,1.629,1.629,0,0,0-1.529,1.61Z" transform="translate(-83.401 -10.54)" fill="#fff"/>
      <path id="Path_398" data-name="Path 398" d="M84.1,47.433H80.933l-1.738-5.461H73.159L71.5,47.433H68.415L74.4,28.847h3.692Zm-5.431-7.752L77.1,34.828q-.252-.741-.938-3.5h-.055q-.277,1.187-.884,3.5l-1.544,4.853Z" transform="translate(-68.415 -12.592)" fill="#fff"/>
      <path id="Path_399" data-name="Path 399" d="M102.279,41.319a7.617,7.617,0,0,1-1.848,5.4,5.4,5.4,0,0,1-4.107,1.763,4.115,4.115,0,0,1-3.807-1.9h-.053v7.058h-2.98V39.195c0-1.434-.036-2.9-.11-4.411h2.619l.166,2.124h.055a5.294,5.294,0,0,1,8.478-.524,7.39,7.39,0,0,1,1.586,4.935m-3.034.109a5.53,5.53,0,0,0-.882-3.227,3.054,3.054,0,0,0-2.59-1.324,3.088,3.088,0,0,0-2,.731A3.392,3.392,0,0,0,92.6,39.528a3.891,3.891,0,0,0-.137.906V42.67a3.579,3.579,0,0,0,.893,2.467,2.972,2.972,0,0,0,2.332,1.006,3.038,3.038,0,0,0,2.617-1.294,5.691,5.691,0,0,0,.939-3.42" transform="translate(-71.203 -13.345)" fill="#fff"/>
      <path id="Path_400" data-name="Path 400" d="M120.057,41.319a7.613,7.613,0,0,1-1.848,5.4,5.4,5.4,0,0,1-4.108,1.763,4.11,4.11,0,0,1-3.8-1.9h-.055v7.058h-2.977V39.195c0-1.434-.038-2.9-.11-4.411h2.618l.166,2.124H110a5.293,5.293,0,0,1,8.477-.524,7.389,7.389,0,0,1,1.583,4.935m-3.031.109a5.518,5.518,0,0,0-.884-3.227,3.05,3.05,0,0,0-2.591-1.324,3.1,3.1,0,0,0-2,.731,3.392,3.392,0,0,0-1.17,1.919,3.737,3.737,0,0,0-.14.906V42.67a3.568,3.568,0,0,0,.895,2.467,2.966,2.966,0,0,0,2.332,1.006,3.043,3.043,0,0,0,2.618-1.294,5.721,5.721,0,0,0,.939-3.42" transform="translate(-73.569 -13.345)" fill="#fff"/>
      <path id="Path_401" data-name="Path 401" d="M140.148,42.176a4.95,4.95,0,0,1-1.652,3.861,7.312,7.312,0,0,1-5.06,1.626,8.881,8.881,0,0,1-4.819-1.157l.69-2.481a8.174,8.174,0,0,0,4.306,1.184,4.07,4.07,0,0,0,2.622-.758,2.482,2.482,0,0,0,.935-2.031,2.6,2.6,0,0,0-.771-1.906,7.178,7.178,0,0,0-2.568-1.437q-4.881-1.823-4.878-5.331a4.711,4.711,0,0,1,1.709-3.755,6.747,6.747,0,0,1,4.55-1.467,9.014,9.014,0,0,1,4.218.884l-.743,2.426a7.338,7.338,0,0,0-3.559-.854,3.593,3.593,0,0,0-2.452.772,2.214,2.214,0,0,0-.744,1.682,2.265,2.265,0,0,0,.853,1.819,9.581,9.581,0,0,0,2.7,1.436,9.193,9.193,0,0,1,3.529,2.259,4.742,4.742,0,0,1,1.131,3.227" transform="translate(-76.424 -12.549)" fill="#fff"/>
      <path id="Path_402" data-name="Path 402" d="M152.018,36.546h-3.281v6.507q0,2.483,1.739,2.481A5.407,5.407,0,0,0,151.8,45.4l.081,2.26a6.689,6.689,0,0,1-2.315.33,3.568,3.568,0,0,1-2.757-1.073,5.282,5.282,0,0,1-.994-3.614V36.546h-1.958V34.311h1.958V31.859l2.923-.884v3.336h3.281Z" transform="translate(-78.451 -12.875)" fill="#fff"/>
      <path id="Path_403" data-name="Path 403" d="M168.338,41.373a7.352,7.352,0,0,1-1.764,5.074,6.3,6.3,0,0,1-4.908,2.039,5.989,5.989,0,0,1-4.7-1.958,7.118,7.118,0,0,1-1.751-4.933,7.271,7.271,0,0,1,1.806-5.1,6.24,6.24,0,0,1,4.865-1.988,6.126,6.126,0,0,1,4.744,1.958,7.063,7.063,0,0,1,1.71,4.908m-3.09.1a6.035,6.035,0,0,0-.8-3.18,2.94,2.94,0,0,0-2.673-1.6,2.983,2.983,0,0,0-2.73,1.6,6.158,6.158,0,0,0-.8,3.237,6.031,6.031,0,0,0,.8,3.178,3,3,0,0,0,2.7,1.6,2.97,2.97,0,0,0,2.671-1.632,6.032,6.032,0,0,0,.827-3.208" transform="translate(-79.962 -13.345)" fill="#fff"/>
      <path id="Path_404" data-name="Path 404" d="M180.414,37.4a5.28,5.28,0,0,0-.936-.081,2.825,2.825,0,0,0-2.429,1.187,4.471,4.471,0,0,0-.743,2.645v7.032H173.33l.025-9.18q0-2.317-.109-4.22h2.593l.109,2.565h.08a4.588,4.588,0,0,1,1.49-2.123,3.6,3.6,0,0,1,2.153-.718,4.9,4.9,0,0,1,.743.053Z" transform="translate(-82.361 -13.345)" fill="#fff"/>
      <path id="Path_405" data-name="Path 405" d="M195.046,40.845a7.174,7.174,0,0,1-.108,1.352h-8.932a3.9,3.9,0,0,0,1.294,3.035,4.422,4.422,0,0,0,2.924.934,9.9,9.9,0,0,0,3.611-.633L194.3,47.6a11.2,11.2,0,0,1-4.5.83,6.5,6.5,0,0,1-4.893-1.836,6.781,6.781,0,0,1-1.778-4.923,7.684,7.684,0,0,1,1.656-5.047,5.7,5.7,0,0,1,4.685-2.149,5,5,0,0,1,4.389,2.149,7.254,7.254,0,0,1,1.18,4.22m-2.839-.772a4.034,4.034,0,0,0-.577-2.288,2.608,2.608,0,0,0-2.375-1.241,2.831,2.831,0,0,0-2.369,1.215,4.408,4.408,0,0,0-.88,2.315Z" transform="translate(-83.677 -13.341)" fill="#fff"/>
    </g>
  </g>
</svg>
