<svg xmlns="http://www.w3.org/2000/svg" viewBox="0 0 812 812" width="812" height="812" preserveAspectRatio="xMidYMid slice" style="width: 100%;height: 100%;transform: translate3d(0px, 0px, 0px);"><defs><clipPath id="__lottie_element_530"><rect width="812" height="812" x="0" y="0"></rect></clipPath></defs><g clip-path="url(#__lottie_element_530)"><g transform="matrix(1.0000041723251343,0,0,1.0000041723251343,659.114013671875,595.0419921875)" opacity="0.17" style="display: block;"><g opacity="1" transform="matrix(1,0,0,1,0,0)"><path fill="rgb(255,21,77)" fill-opacity="1" d=" M15.37399959564209,-25.264999389648438 C15.37399959564209,-25.264999389648438 10.392000198364258,3.5759999752044678 10.392000198364258,3.5759999752044678 C10.392000198364258,3.5759999752044678 -18.108999252319336,-30.389999389648438 -18.108999252319336,-30.389999389648438 C-18.108999252319336,-30.389999389648438 -30.575000762939453,-19.93000030517578 -30.575000762939453,-19.93000030517578 C-30.575000762939453,-19.93000030517578 -2.0739998817443848,14.036999702453613 -2.0739998817443848,14.036999702453613 C-2.0739998817443848,14.036999702453613 -31.341999053955078,13.9350004196167 -31.341999053955078,13.9350004196167 C-31.341999053955078,13.9350004196167 -31.406999588012695,30.202999114990234 -31.406999588012695,30.202999114990234 C-31.406999588012695,30.202999114990234 22.270000457763672,30.389999389648438 22.270000457763672,30.389999389648438 C22.270000457763672,30.389999389648438 31.406999588012695,-22.503999710083008 31.406999588012695,-22.503999710083008 C31.406999588012695,-22.503999710083008 15.37399959564209,-25.264999389648438 15.37399959564209,-25.264999389648438z"></path></g></g><g transform="matrix(1,0,0,1,560.1179809570312,595.5020141601562)" opacity="0.17" style="display: block;"><g opacity="1" transform="matrix(1,0,0,1,0,0)"><path fill="rgb(255,21,77)" fill-opacity="1" d=" M10.329999923706055,4.696000099182129 C10.329999923706055,4.696000099182129 -13.166000366210938,-32.904998779296875 -13.166000366210938,-32.904998779296875 C-13.166000366210938,-32.904998779296875 -26.966999053955078,-24.2810001373291 -26.966999053955078,-24.2810001373291 C-26.966999053955078,-24.2810001373291 -3.4700000286102295,13.322999954223633 -3.4700000286102295,13.322999954223633 C-3.4700000286102295,13.322999954223633 -32.439998626708984,9.14799976348877 -32.439998626708984,9.14799976348877 C-32.439998626708984,9.14799976348877 -34.77000045776367,25.249000549316406 -34.77000045776367,25.249000549316406 C-34.77000045776367,25.249000549316406 18.360000610351562,32.904998779296875 18.360000610351562,32.904998779296875 C18.360000610351562,32.904998779296875 34.77000045776367,-18.202999114990234 34.77000045776367,-18.202999114990234 C34.77000045776367,-18.202999114990234 19.275999069213867,-23.167999267578125 19.275999069213867,-23.167999267578125 C19.275999069213867,-23.167999267578125 10.329999923706055,4.696000099182129 10.329999923706055,4.696000099182129z"></path></g></g><g transform="matrix(1,0,0,1,461.1099853515625,596.0009765625)" opacity="0.17" style="display: block;"><g opacity="1" transform="matrix(1,0,0,1,0,0)"><path fill="rgb(255,21,77)" fill-opacity="1" d=" M10.067000389099121,5.72599983215332 C10.067000389099121,5.72599983215332 -7.9670000076293945,-34.77899932861328 -7.9670000076293945,-34.77899932861328 C-7.9670000076293945,-34.77899932861328 -22.833999633789062,-28.15999984741211 -22.833999633789062,-28.15999984741211 C-22.833999633789062,-28.15999984741211 -4.797999858856201,12.350000381469727 -4.797999858856201,12.350000381469727 C-4.797999858856201,12.350000381469727 -32.90700149536133,4.183000087738037 -32.90700149536133,4.183000087738037 C-32.90700149536133,4.183000087738037 -37.45500183105469,19.804000854492188 -37.45500183105469,19.804000854492188 C-37.45500183105469,19.804000854492188 14.092000007629395,34.77899932861328 14.092000007629395,34.77899932861328 C14.092000007629395,34.77899932861328 37.45500183105469,-13.54800033569336 37.45500183105469,-13.54800033569336 C37.45500183105469,-13.54800033569336 22.804000854492188,-20.621000289916992 22.804000854492188,-20.621000289916992 C22.804000854492188,-20.621000289916992 10.067000389099121,5.72599983215332 10.067000389099121,5.72599983215332z"></path></g></g><g transform="matrix(1,0,0,1,362.0929870605469,596.5289916992188)" opacity="0.17" style="display: block;"><g opacity="1" transform="matrix(1,0,0,1,0,0)"><path fill="rgb(255,21,77)" fill-opacity="1" d=" M9.609000205993652,6.644000053405762 C9.609000205993652,6.644000053405762 -2.61299991607666,-35.97600173950195 -2.61299991607666,-35.97600173950195 C-2.61299991607666,-35.97600173950195 -18.256000518798828,-31.490999221801758 -18.256000518798828,-31.490999221801758 C-18.256000518798828,-31.490999221801758 -6.0329999923706055,11.13700008392334 -6.0329999923706055,11.13700008392334 C-6.0329999923706055,11.13700008392334 -32.73400115966797,-0.8629999756813049 -32.73400115966797,-0.8629999756813049 C-32.73400115966797,-0.8629999756813049 -39.4109992980957,13.972999572753906 -39.4109992980957,13.972999572753906 C-39.4109992980957,13.972999572753906 9.550000190734863,35.97600173950195 9.550000190734863,35.97600173950195 C9.550000190734863,35.97600173950195 39.4109992980957,-8.628999710083008 39.4109992980957,-8.628999710083008 C39.4109992980957,-8.628999710083008 25.886999130249023,-17.672000885009766 25.886999130249023,-17.672000885009766 C25.886999130249023,-17.672000885009766 9.609000205993652,6.644000053405762 9.609000205993652,6.644000053405762z"></path></g></g><g transform="matrix(1,0,0,1,263.0719909667969,597.4619750976562)" opacity="0.17" style="display: block;"><g opacity="1" transform="matrix(1,0,0,1,0,0)"><path fill="rgb(255,21,77)" fill-opacity="1" d=" M10.13700008392334,5.736000061035156 C10.13700008392334,5.736000061035156 10.13700008392334,-36.0880012512207 10.13700008392334,-36.0880012512207 C10.13700008392334,-36.0880012512207 -6.13700008392334,-36.0880012512207 -6.13700008392334,-36.0880012512207 C-6.13700008392334,-36.0880012512207 -6.13700008392334,9.961000442504883 -6.13700008392334,9.961000442504883 C-6.13700008392334,9.961000442504883 -31.92300033569336,-6.2769999504089355 -31.92300033569336,-6.2769999504089355 C-31.92300033569336,-6.2769999504089355 -40.599998474121094,7.485000133514404 -40.599998474121094,7.485000133514404 C-40.599998474121094,7.485000133514404 4.822000026702881,36.0880012512207 4.822000026702881,36.0880012512207 C4.822000026702881,36.0880012512207 40.599998474121094,-3.927000045776367 40.599998474121094,-3.927000045776367 C40.599998474121094,-3.927000045776367 28.465999603271484,-14.763999938964844 28.465999603271484,-14.763999938964844 C28.465999603271484,-14.763999938964844 10.13700008392334,5.736000061035156 10.13700008392334,5.736000061035156z"></path></g></g><g transform="matrix(1,0,0,1,164.052001953125,597.6339721679688)" opacity="0.17" style="display: block;"><g opacity="1" transform="matrix(1,0,0,1,0,0)"><path fill="rgb(255,21,77)" fill-opacity="1" d=" M8.142999649047852,8.079000473022461 C8.142999649047852,8.079000473022461 8.142999649047852,-36.2599983215332 8.142999649047852,-36.2599983215332 C8.142999649047852,-36.2599983215332 -8.130999565124512,-36.2599983215332 -8.130999565124512,-36.2599983215332 C-8.130999565124512,-36.2599983215332 -8.130999565124512,8.08899974822998 -8.130999565124512,8.08899974822998 C-8.130999565124512,8.08899974822998 -30.492000579833984,-10.807000160217285 -30.492000579833984,-10.807000160217285 C-30.492000579833984,-10.807000160217285 -40.999000549316406,1.6139999628067017 -40.999000549316406,1.6139999628067017 C-40.999000549316406,1.6139999628067017 0,36.2599983215332 0,36.2599983215332 C0,36.2599983215332 40.999000549316406,1.6139999628067017 40.999000549316406,1.6139999628067017 C40.999000549316406,1.6139999628067017 30.492000579833984,-10.807000160217285 30.492000579833984,-10.807000160217285 C30.492000579833984,-10.807000160217285 8.142999649047852,8.079000473022461 8.142999649047852,8.079000473022461z"></path></g></g><g transform="matrix(1.0000041723251343,0,0,1.0000041723251343,658.0679931640625,475.84600830078125)" opacity="0.29" style="display: block;"><g opacity="1" transform="matrix(1,0,0,1,0,0)"><path fill="rgb(255,21,77)" fill-opacity="1" d=" M9.493000030517578,-41.07699966430664 C9.493000030517578,-41.07699966430664 -3.2869999408721924,-31.009000778198242 -3.2869999408721924,-31.009000778198242 C-3.2869999408721924,-31.009000778198242 14.812000274658203,-8.008999824523926 14.812000274658203,-8.008999824523926 C14.812000274658203,-8.008999824523926 -35.810001373291016,-9.454000473022461 -35.810001373291016,-9.454000473022461 C-35.810001373291016,-9.454000473022461 -36.37799835205078,6.810999870300293 -36.37799835205078,6.810999870300293 C-36.37799835205078,6.810999870300293 14.244999885559082,8.255000114440918 14.244999885559082,8.255000114440918 C14.244999885559082,8.255000114440918 -5.414999961853027,29.937000274658203 -5.414999961853027,29.937000274658203 C-5.414999961853027,29.937000274658203 6.63100004196167,40.87099838256836 6.63100004196167,40.87099838256836 C6.63100004196167,40.87099838256836 42.6870002746582,1.1059999465942383 42.6870002746582,1.1059999465942383 C42.6870002746582,1.1059999465942383 9.493000030517578,-41.07699966430664 9.493000030517578,-41.07699966430664z"></path></g></g><g transform="matrix(1,0,0,1,558.7119750976562,476.07598876953125)" opacity="0.29" style="display: block;"><g opacity="1" transform="matrix(1,0,0,1,0,0)"><path fill="rgb(255,21,77)" fill-opacity="1" d=" M-4.125,-32.0989990234375 C-4.125,-32.0989990234375 10.595999717712402,-6.804999828338623 10.595999717712402,-6.804999828338623 C10.595999717712402,-6.804999828338623 -33.5880012512207,-14.590999603271484 -33.5880012512207,-14.590999603271484 C-33.5880012512207,-14.590999603271484 -36.41400146484375,1.4359999895095825 -36.41400146484375,1.4359999895095825 C-36.41400146484375,1.4359999895095825 7.7729997634887695,9.222000122070312 7.7729997634887695,9.222000122070312 C7.7729997634887695,9.222000122070312 -14.71399974822998,27.95800018310547 -14.71399974822998,27.95800018310547 C-14.71399974822998,27.95800018310547 -4.307000160217285,40.4630012512207 -4.307000160217285,40.4630012512207 C-4.307000160217285,40.4630012512207 36.93299865722656,6.103000164031982 36.93299865722656,6.103000164031982 C36.93299865722656,6.103000164031982 9.932000160217285,-40.290000915527344 9.932000160217285,-40.290000915527344 C9.932000160217285,-40.290000915527344 -4.125,-32.0989990234375 -4.125,-32.0989990234375z"></path></g></g><g transform="matrix(1,0,0,1,459.3710021972656,476.29400634765625)" opacity="0.29" style="display: block;"><g opacity="1" transform="matrix(1,0,0,1,0,0)"><path fill="rgb(255,21,77)" fill-opacity="1" d=" M0.39899998903274536,-32.83700180053711 C0.39899998903274536,-32.83700180053711 11.456999778747559,-5.743000030517578 11.456999778747559,-5.743000030517578 C11.456999778747559,-5.743000030517578 -30.711000442504883,-19.444000244140625 -30.711000442504883,-19.444000244140625 C-30.711000442504883,-19.444000244140625 -35.74100112915039,-3.9670000076293945 -35.74100112915039,-3.9670000076293945 C-35.74100112915039,-3.9670000076293945 6.432000160217285,9.736000061035156 6.432000160217285,9.736000061035156 C6.432000160217285,9.736000061035156 -18.44499969482422,25.160999298095703 -18.44499969482422,25.160999298095703 C-18.44499969482422,25.160999298095703 -9.880000114440918,38.99300003051758 -9.880000114440918,38.99300003051758 C-9.880000114440918,38.99300003051758 35.74100112915039,10.706000328063965 35.74100112915039,10.706000328063965 C35.74100112915039,10.706000328063965 15.458999633789062,-38.99300003051758 15.458999633789062,-38.99300003051758 C15.458999633789062,-38.99300003051758 0.39899998903274536,-32.83700180053711 0.39899998903274536,-32.83700180053711z"></path></g></g><g transform="matrix(1,0,0,1,360.0539855957031,476.49798583984375)" opacity="0.29" style="display: block;"><g opacity="1" transform="matrix(1,0,0,1,0,0)"><path fill="rgb(255,21,77)" fill-opacity="1" d=" M5.434999942779541,-32.849998474121094 C5.434999942779541,-32.849998474121094 12.61299991607666,-4.482999801635742 12.61299991607666,-4.482999801635742 C12.61299991607666,-4.482999801635742 -27.238000869750977,-23.91900062561035 -27.238000869750977,-23.91900062561035 C-27.238000869750977,-23.91900062561035 -34.37200164794922,-9.291999816894531 -34.37200164794922,-9.291999816894531 C-34.37200164794922,-9.291999816894531 5.485000133514404,10.14799976348877 5.485000133514404,10.14799976348877 C5.485000133514404,10.14799976348877 -21.29800033569336,21.961000442504883 -21.29800033569336,21.961000442504883 C-21.29800033569336,21.961000442504883 -14.741000175476074,36.849998474121094 -14.741000175476074,36.849998474121094 C-14.741000175476074,36.849998474121094 34.37200164794922,15.187999725341797 34.37200164794922,15.187999725341797 C34.37200164794922,15.187999725341797 21.204999923706055,-36.849998474121094 21.204999923706055,-36.849998474121094 C21.204999923706055,-36.849998474121094 5.434999942779541,-32.849998474121094 5.434999942779541,-32.849998474121094z"></path></g></g><g transform="matrix(1,0,0,1,260.77398681640625,476.6820068359375)" opacity="0.29" style="display: block;"><g opacity="1" transform="matrix(1,0,0,1,0,0)"><path fill="rgb(255,21,77)" fill-opacity="1" d=" M10.36400032043457,-32.2239990234375 C10.36400032043457,-32.2239990234375 13.524999618530273,-3.134999990463257 13.524999618530273,-3.134999990463257 C13.524999618530273,-3.134999990463257 -23.233999252319336,-27.92799949645996 -23.233999252319336,-27.92799949645996 C-23.233999252319336,-27.92799949645996 -32.33399963378906,-14.435999870300293 -32.33399963378906,-14.435999870300293 C-32.33399963378906,-14.435999870300293 4.432000160217285,10.362000465393066 4.432000160217285,10.362000465393066 C4.432000160217285,10.362000465393066 -23.73699951171875,18.33300018310547 -23.73699951171875,18.33300018310547 C-23.73699951171875,18.33300018310547 -19.31599998474121,33.9900016784668 -19.31599998474121,33.9900016784668 C-19.31599998474121,33.9900016784668 32.33399963378906,19.374000549316406 32.33399963378906,19.374000549316406 C32.33399963378906,19.374000549316406 26.53700065612793,-33.9900016784668 26.53700065612793,-33.9900016784668 C26.53700065612793,-33.9900016784668 10.36400032043457,-32.2239990234375 10.36400032043457,-32.2239990234375z"></path></g></g><g transform="matrix(1,0,0,1,162.38299560546875,476.3819885253906)" opacity="0.29" style="display: block;"><g opacity="1" transform="matrix(1,0,0,1,0,0)"><path fill="rgb(255,21,77)" fill-opacity="1" d=" M13.329999923706055,-1.2619999647140503 C13.329999923706055,-1.2619999647140503 -19.621000289916992,-30.930999755859375 -19.621000289916992,-30.930999755859375 C-19.621000289916992,-30.930999755859375 -30.510000228881836,-18.836999893188477 -30.510000228881836,-18.836999893188477 C-30.510000228881836,-18.836999893188477 2.447999954223633,10.838000297546387 2.447999954223633,10.838000297546387 C2.447999954223633,10.838000297546387 -26.55699920654297,14.810999870300293 -26.55699920654297,14.810999870300293 C-26.55699920654297,14.810999870300293 -24.35700035095215,30.930999755859375 -24.35700035095215,30.930999755859375 C-24.35700035095215,30.930999755859375 28.823999404907227,23.645999908447266 28.823999404907227,23.645999908447266 C28.823999404907227,23.645999908447266 30.510000228881836,-30.006000518798828 30.510000228881836,-30.006000518798828 C30.510000228881836,-30.006000518798828 14.24899959564209,-30.507999420166016 14.24899959564209,-30.507999420166016 C14.24899959564209,-30.507999420166016 13.329999923706055,-1.2619999647140503 13.329999923706055,-1.2619999647140503z"></path></g></g><g transform="matrix(1.0000041723251343,0,0,1.0000041723251343,658.2550048828125,354.8080139160156)" opacity="0.65" style="display: block;"><g opacity="1" transform="matrix(1,0,0,1,0,0)"><path fill="rgb(255,21,77)" fill-opacity="1" d=" M34.43199920654297,22.218000411987305 C34.43199920654297,22.218000411987305 29.006999969482422,-31.184999465942383 29.006999969482422,-31.184999465942383 C29.006999969482422,-31.184999465942383 -24.55299949645996,-34.74300003051758 -24.55299949645996,-34.74300003051758 C-24.55299949645996,-34.74300003051758 -25.62299919128418,-18.509000778198242 -25.62299919128418,-18.509000778198242 C-25.62299919128418,-18.509000778198242 3.5810000896453857,-16.56999969482422 3.5810000896453857,-16.56999969482422 C3.5810000896453857,-16.56999969482422 -30.826000213623047,19.381999969482422 -30.826000213623047,19.381999969482422 C-30.826000213623047,19.381999969482422 -19.118999481201172,30.687000274658203 -19.118999481201172,30.687000274658203 C-19.118999481201172,30.687000274658203 15.286999702453613,-5.264999866485596 15.286999702453613,-5.264999866485596 C15.286999702453613,-5.264999866485596 18.2450008392334,23.85300064086914 18.2450008392334,23.85300064086914 C18.2450008392334,23.85300064086914 34.43199920654297,22.218000411987305 34.43199920654297,22.218000411987305z"></path></g></g><g transform="matrix(1,0,0,1,557.1589965820312,352.77099609375)" opacity="0.65" style="display: block;"><g opacity="1" transform="matrix(1,0,0,1,0,0)"><path fill="rgb(255,21,77)" fill-opacity="1" d=" M-24.30900001525879,-16.726999282836914 C-24.30900001525879,-16.726999282836914 4.3379998207092285,-10.741999626159668 4.3379998207092285,-10.741999626159668 C4.3379998207092285,-10.741999626159668 -31.07699966430664,16.900999069213867 -31.07699966430664,16.900999069213867 C-31.07699966430664,16.900999069213867 -21.058000564575195,29.72599983215332 -21.058000564575195,29.72599983215332 C-21.058000564575195,29.72599983215332 14.359999656677246,2.0799999237060547 14.359999656677246,2.0799999237060547 C14.359999656677246,2.0799999237060547 13.236000061035156,31.32900047302246 13.236000061035156,31.32900047302246 C13.236000061035156,31.32900047302246 29.493000030517578,31.961999893188477 29.493000030517578,31.961999893188477 C29.493000030517578,31.961999893188477 31.55299949645996,-21.677000045776367 31.55299949645996,-21.677000045776367 C31.55299949645996,-21.677000045776367 -20.990999221801758,-32.65399932861328 -20.990999221801758,-32.65399932861328 C-20.990999221801758,-32.65399932861328 -24.30900001525879,-16.726999282836914 -24.30900001525879,-16.726999282836914z"></path></g></g><g transform="matrix(1,0,0,1,458.8210144042969,352.9570007324219)" opacity="0.65" style="display: block;"><g opacity="1" transform="matrix(1,0,0,1,0,0)"><path fill="rgb(255,21,77)" fill-opacity="1" d=" M-22.570999145507812,-20.195999145507812 C-22.570999145507812,-20.195999145507812 4.961999893188477,-10.284000396728516 4.961999893188477,-10.284000396728516 C4.961999893188477,-10.284000396728516 -33.43600082397461,11.885000228881836 -33.43600082397461,11.885000228881836 C-33.43600082397461,11.885000228881836 -25.298999786376953,25.979000091552734 -25.298999786376953,25.979000091552734 C-25.298999786376953,25.979000091552734 13.104000091552734,3.808000087738037 13.104000091552734,3.808000087738037 C13.104000091552734,3.808000087738037 7.920000076293945,32.617000579833984 7.920000076293945,32.617000579833984 C7.920000076293945,32.617000579833984 23.930999755859375,35.50699996948242 23.930999755859375,35.50699996948242 C23.930999755859375,35.50699996948242 33.43600082397461,-17.322999954223633 33.43600082397461,-17.322999954223633 C33.43600082397461,-17.322999954223633 -17.069000244140625,-35.50699996948242 -17.069000244140625,-35.50699996948242 C-17.069000244140625,-35.50699996948242 -22.570999145507812,-20.195999145507812 -22.570999145507812,-20.195999145507812z"></path></g></g><g transform="matrix(1,0,0,1,360.51800537109375,353.1549987792969)" opacity="0.65" style="display: block;"><g opacity="1" transform="matrix(1,0,0,1,0,0)"><path fill="rgb(255,21,77)" fill-opacity="1" d=" M-19.91900062561035,-23.618999481201172 C-19.91900062561035,-23.618999481201172 5.966000080108643,-9.970999717712402 5.966000080108643,-9.970999717712402 C5.966000080108643,-9.970999717712402 -35.14400100708008,6.638000011444092 -35.14400100708008,6.638000011444092 C-35.14400100708008,6.638000011444092 -29.047000885009766,21.726999282836914 -29.047000885009766,21.726999282836914 C-29.047000885009766,21.726999282836914 12.069000244140625,5.114999771118164 12.069000244140625,5.114999771118164 C12.069000244140625,5.114999771118164 2.9260001182556152,32.92399978637695 2.9260001182556152,32.92399978637695 C2.9260001182556152,32.92399978637695 18.378999710083008,38.013999938964844 18.378999710083008,38.013999938964844 C18.378999710083008,38.013999938964844 35.14400100708008,-12.979000091552734 35.14400100708008,-12.979000091552734 C35.14400100708008,-12.979000091552734 -12.33899974822998,-38.013999938964844 -12.33899974822998,-38.013999938964844 C-12.33899974822998,-38.013999938964844 -19.91900062561035,-23.618999481201172 -19.91900062561035,-23.618999481201172z"></path></g></g><g transform="matrix(1,0,0,1,262.2430114746094,353.3590087890625)" opacity="0.65" style="display: block;"><g opacity="1" transform="matrix(1,0,0,1,0,0)"><path fill="rgb(255,21,77)" fill-opacity="1" d=" M-16.878000259399414,-26.58099937438965 C-16.878000259399414,-26.58099937438965 6.854000091552734,-9.46500015258789 6.854000091552734,-9.46500015258789 C6.854000091552734,-9.46500015258789 -36.16699981689453,1.2619999647140503 -36.16699981689453,1.2619999647140503 C-36.16699981689453,1.2619999647140503 -32.22999954223633,17.05299949645996 -32.22999954223633,17.05299949645996 C-32.22999954223633,17.05299949645996 10.800000190734863,6.323999881744385 10.800000190734863,6.323999881744385 C10.800000190734863,6.323999881744385 -2.125,32.590999603271484 -2.125,32.590999603271484 C-2.125,32.590999603271484 12.468999862670898,39.78099822998047 12.468999862670898,39.78099822998047 C12.468999862670898,39.78099822998047 36.16699981689453,-8.381999969482422 36.16699981689453,-8.381999969482422 C36.16699981689453,-8.381999969482422 -7.36899995803833,-39.78099822998047 -7.36899995803833,-39.78099822998047 C-7.36899995803833,-39.78099822998047 -16.878000259399414,-26.58099937438965 -16.878000259399414,-26.58099937438965z"></path></g></g><g transform="matrix(1,0,0,1,163.98500061035156,353.5660095214844)" opacity="0.65" style="display: block;"><g opacity="1" transform="matrix(1,0,0,1,0,0)"><path fill="rgb(255,21,77)" fill-opacity="1" d=" M-13.508999824523926,-29.025999069213867 C-13.508999824523926,-29.025999069213867 7.610000133514404,-8.77400016784668 7.610000133514404,-8.77400016784668 C7.610000133514404,-8.77400016784668 -36.48699951171875,-4.138999938964844 -36.48699951171875,-4.138999938964844 C-36.48699951171875,-4.138999938964844 -34.7859992980957,12.045999526977539 -34.7859992980957,12.045999526977539 C-34.7859992980957,12.045999526977539 9.319999694824219,7.409999847412109 9.319999694824219,7.409999847412109 C9.319999694824219,7.409999847412109 -7.135000228881836,31.62299919128418 -7.135000228881836,31.62299919128418 C-7.135000228881836,31.62299919128418 6.315999984741211,40.775001525878906 6.315999984741211,40.775001525878906 C6.315999984741211,40.775001525878906 36.48699951171875,-3.621999979019165 36.48699951171875,-3.621999979019165 C36.48699951171875,-3.621999979019165 -2.255000114440918,-40.775001525878906 -2.255000114440918,-40.775001525878906 C-2.255000114440918,-40.775001525878906 -13.508999824523926,-29.025999069213867 -13.508999824523926,-29.025999069213867z"></path></g></g><g transform="matrix(1.0000041723251343,0,0,1.0000041723251343,658.4609985351562,234.43699645996094)" opacity="1" style="display: block;"><g opacity="1" transform="matrix(1,0,0,1,0,0)"><path fill="rgb(255,255,255)" fill-opacity="1" d=" M40.44900131225586,-16.433000564575195 C40.44900131225586,-16.433000564575195 11.01200008392334,-37.97800064086914 11.01200008392334,-37.97800064086914 C11.01200008392334,-37.97800064086914 10.97599983215332,-38.4900016784668 10.97599983215332,-38.4900016784668 C10.97599983215332,-38.4900016784668 10.369999885559082,-38.448001861572266 10.369999885559082,-38.448001861572266 C10.369999885559082,-38.448001861572266 -2.868000030517578,-48.13600158691406 -2.868000030517578,-48.13600158691406 C-2.868000030517578,-48.13600158691406 -14.626999855041504,-36.70000076293945 -14.626999855041504,-36.70000076293945 C-14.626999855041504,-36.70000076293945 -15.234000205993652,-36.65700149536133 -15.234000205993652,-36.65700149536133 C-15.234000205993652,-36.65700149536133 -15.197999954223633,-36.14500045776367 -15.197999954223633,-36.14500045776367 C-15.197999954223633,-36.14500045776367 -41.349998474121094,-10.713000297546387 -41.349998474121094,-10.713000297546387 C-41.349998474121094,-10.713000297546387 -30.00200080871582,0.9440000057220459 -30.00200080871582,0.9440000057220459 C-30.00200080871582,0.9440000057220459 -13.713000297546387,-14.897000312805176 -13.713000297546387,-14.897000312805176 C-13.713000297546387,-14.897000312805176 -10.114999771118164,39.12200164794922 -10.114999771118164,39.12200164794922 C-10.114999771118164,39.12200164794922 16.094999313354492,37.28900146484375 16.094999313354492,37.28900146484375 C16.094999313354492,37.28900146484375 12.498000144958496,-16.729000091552734 12.498000144958496,-16.729000091552734 C12.498000144958496,-16.729000091552734 30.83300018310547,-3.309999942779541 30.83300018310547,-3.309999942779541 C30.83300018310547,-3.309999942779541 40.44900131225586,-16.433000564575195 40.44900131225586,-16.433000564575195z"></path></g></g><g transform="matrix(1,0,0,1,559.8829956054688,231.80599975585938)" opacity="1" style="display: block;"><g opacity="1" transform="matrix(1,0,0,1,0,0)"><path fill="rgb(255,21,77)" fill-opacity="1" d=" M40.94300079345703,0.23399999737739563 C40.94300079345703,0.23399999737739563 2.4600000381469727,-37.18899917602539 2.4600000381469727,-37.18899917602539 C2.4600000381469727,-37.18899917602539 -40.85599899291992,-5.486000061035156 -40.85599899291992,-5.486000061035156 C-40.85599899291992,-5.486000061035156 -31.239999771118164,7.63700008392334 -31.239999771118164,7.63700008392334 C-31.239999771118164,7.63700008392334 -7.623000144958496,-9.64900016784668 -7.623000144958496,-9.64900016784668 C-7.623000144958496,-9.64900016784668 -10.758999824523926,35.31800079345703 -10.758999824523926,35.31800079345703 C-10.758999824523926,35.31800079345703 5.47599983215332,36.452999114990234 5.47599983215332,36.452999114990234 C5.47599983215332,36.452999114990234 8.612000465393066,-8.512999534606934 8.612000465393066,-8.512999534606934 C8.612000465393066,-8.512999534606934 29.5939998626709,11.890999794006348 29.5939998626709,11.890999794006348 C29.5939998626709,11.890999794006348 40.94300079345703,0.23399999737739563 40.94300079345703,0.23399999737739563z"></path></g></g><g transform="matrix(1,0,0,1,461.29901123046875,232.406005859375)" opacity="1" style="display: block;"><g opacity="1" transform="matrix(1,0,0,1,0,0)"><path fill="rgb(255,21,77)" fill-opacity="1" d=" M40.10300064086914,6.1020002365112305 C40.10300064086914,6.1020002365112305 7.203000068664551,-36.3120002746582 7.203000068664551,-36.3120002746582 C7.203000068664551,-36.3120002746582 -40.10300064086914,-10.946000099182129 -40.10300064086914,-10.946000099182129 C-40.10300064086914,-10.946000099182129 -32.40800094604492,3.38700008392334 -32.40800094604492,3.38700008392334 C-32.40800094604492,3.38700008392334 -6.613999843597412,-10.442999839782715 -6.613999843597412,-10.442999839782715 C-6.613999843597412,-10.442999839782715 -15.833000183105469,32.928001403808594 -15.833000183105469,32.928001403808594 C-15.833000183105469,32.928001403808594 0.0860000029206276,36.3120002746582 0.0860000029206276,36.3120002746582 C0.0860000029206276,36.3120002746582 9.305000305175781,-7.059000015258789 9.305000305175781,-7.059000015258789 C9.305000305175781,-7.059000015258789 27.243000030517578,16.066999435424805 27.243000030517578,16.066999435424805 C27.243000030517578,16.066999435424805 40.10300064086914,6.1020002365112305 40.10300064086914,6.1020002365112305z"></path></g></g><g transform="matrix(1,0,0,1,362.7030029296875,232.98899841308594)" opacity="1" style="display: block;"><g opacity="1" transform="matrix(1,0,0,1,0,0)"><path fill="rgb(255,21,77)" fill-opacity="1" d=" M38.527000427246094,11.116999626159668 C38.527000427246094,11.116999626159668 11.850000381469727,-35.4630012512207 11.850000381469727,-35.4630012512207 C11.850000381469727,-35.4630012512207 -38.527000427246094,-16.92799949645996 -38.527000427246094,-16.92799949645996 C-38.527000427246094,-16.92799949645996 -32.9010009765625,-1.6629999876022339 -32.9010009765625,-1.6629999876022339 C-32.9010009765625,-1.6629999876022339 -5.433000087738037,-11.769000053405762 -5.433000087738037,-11.769000053405762 C-5.433000087738037,-11.769000053405762 -20.599000930786133,29.89699935913086 -20.599000930786133,29.89699935913086 C-20.599000930786133,29.89699935913086 -5.306000232696533,35.4630012512207 -5.306000232696533,35.4630012512207 C-5.306000232696533,35.4630012512207 9.859000205993652,-6.203000068664551 9.859000205993652,-6.203000068664551 C9.859000205993652,-6.203000068664551 24.405000686645508,19.194000244140625 24.405000686645508,19.194000244140625 C24.405000686645508,19.194000244140625 38.527000427246094,11.116999626159668 38.527000427246094,11.116999626159668z"></path></g></g><g transform="matrix(1,0,0,1,264.0899963378906,233.54400634765625)" opacity="1" style="display: block;"><g opacity="1" transform="matrix(1,0,0,1,0,0)"><path fill="rgb(255,21,77)" fill-opacity="1" d=" M36.20000076293945,15.914999961853027 C36.20000076293945,15.914999961853027 16.266000747680664,-33.92399978637695 16.266000747680664,-33.92399978637695 C16.266000747680664,-33.92399978637695 -36.20000076293945,-22.58099937438965 -36.20000076293945,-22.58099937438965 C-36.20000076293945,-22.58099937438965 -32.75400161743164,-6.681000232696533 -32.75400161743164,-6.681000232696533 C-32.75400161743164,-6.681000232696533 -4.146999835968018,-12.866000175476074 -4.146999835968018,-12.866000175476074 C-4.146999835968018,-12.866000175476074 -24.96299934387207,26.284000396728516 -24.96299934387207,26.284000396728516 C-24.96299934387207,26.284000396728516 -10.593999862670898,33.92399978637695 -10.593999862670898,33.92399978637695 C-10.593999862670898,33.92399978637695 10.222000122070312,-5.22599983215332 10.222000122070312,-5.22599983215332 C10.222000122070312,-5.22599983215332 21.090999603271484,21.948999404907227 21.090999603271484,21.948999404907227 C21.090999603271484,21.948999404907227 36.20000076293945,15.914999961853027 36.20000076293945,15.914999961853027z"></path></g></g><g transform="matrix(1,0,0,1,165.45799255371094,232.4029998779297)" opacity="0.9917" style="display: block;"><g opacity="1" transform="matrix(1,0,0,1,0,0)"><path fill="rgb(255,21,77)" fill-opacity="1" d=" M33.16899871826172,22.062000274658203 C33.16899871826172,22.062000274658203 20.364999771118164,-30.066999435424805 20.364999771118164,-30.066999435424805 C20.364999771118164,-30.066999435424805 -33.16899871826172,-26.13599967956543 -33.16899871826172,-26.13599967956543 C-33.16899871826172,-26.13599967956543 -31.9689998626709,-9.91100025177002 -31.9689998626709,-9.91100025177002 C-31.9689998626709,-9.91100025177002 -2.117000102996826,-12.102999687194824 -2.117000102996826,-12.102999687194824 C-2.117000102996826,-12.102999687194824 -20.47599983215332,22.426000595092773 -20.47599983215332,22.426000595092773 C-20.47599983215332,22.426000595092773 -6.10699987411499,30.066999435424805 -6.10699987411499,30.066999435424805 C-6.10699987411499,30.066999435424805 10.644000053405762,-1.437999963760376 10.644000053405762,-1.437999963760376 C10.644000053405762,-1.437999963760376 17.368000030517578,25.93400001525879 17.368000030517578,25.93400001525879 C17.368000030517578,25.93400001525879 33.16899871826172,22.062000274658203 33.16899871826172,22.062000274658203z"></path></g></g></g></svg>