<?xml version="1.0"?>
<svg xmlns="http://www.w3.org/2000/svg" viewBox="0 0 64 64" width="512" height="512"><g id="mobile-screen-money-robot-fintech"><rect x="27" y="56" width="4" height="2"/><path d="M59,29H58V26.32A2.322,2.322,0,0,0,55.68,24H54.46a.327.327,0,0,1-.3-.22.321.321,0,0,1,.06-.35l.87-.86a2.318,2.318,0,0,0,0-3.28l-2.38-2.38a2.33,2.33,0,0,0-3.28,0l-.86.87a.327.327,0,0,1-.37.05.314.314,0,0,1-.2-.29V16.32c0-.11-.02-.21-.03-.32H48V5a3.009,3.009,0,0,0-3-3H13a3.009,3.009,0,0,0-3,3V8.36A8.914,8.914,0,0,0,8,14v4.59l-3.71,3.7A1.033,1.033,0,0,0,4,23v3a1,1,0,0,0,1,1H8v8a1,1,0,0,0,1,1h1V59a3.009,3.009,0,0,0,3,3H45a3.009,3.009,0,0,0,3-3V51H59a1,1,0,0,0,1-1V30A1,1,0,0,0,59,29ZM47.44,19.69a2.322,2.322,0,0,0,2.54-.5l.86-.86a.32.32,0,0,1,.46,0l2.37,2.37a.32.32,0,0,1,0,.46l-.86.86A2.338,2.338,0,0,0,54.46,26h1.22a.329.329,0,0,1,.32.32V29H49.91A5.551,5.551,0,0,0,50,28a6,6,0,0,0-12,0,5.551,5.551,0,0,0,.09,1H32V26.32a.329.329,0,0,1,.32-.32h1.22a2.335,2.335,0,0,0,1.65-3.98l-.86-.86a.32.32,0,0,1,0-.46l2.37-2.37a.32.32,0,0,1,.46,0l.86.86A2.338,2.338,0,0,0,42,17.54V16.32a.329.329,0,0,1,.32-.32h3.36a.329.329,0,0,1,.32.32v1.22A2.326,2.326,0,0,0,47.44,19.69ZM48,28a4.231,4.231,0,0,1-.14,1H40.14A4.231,4.231,0,0,1,40,28a4,4,0,0,1,8,0ZM24.99,29l-.01-1H26a1.014,1.014,0,0,0,.8-.4l3-4A.984.984,0,0,0,30,23V14a1,1,0,0,0-1-1H27.77a9.037,9.037,0,0,0-1.29-3H46v4.03c-.11-.01-.21-.03-.32-.03H42.32A2.322,2.322,0,0,0,40,16.32v1.22a.327.327,0,0,1-.22.3.321.321,0,0,1-.35-.06l-.86-.87a2.33,2.33,0,0,0-3.28,0l-2.38,2.38a2.318,2.318,0,0,0,0,3.28l.87.86a.327.327,0,0,1,.05.37.314.314,0,0,1-.29.2H32.32A2.322,2.322,0,0,0,30,26.32V29Zm1.87,2A4.017,4.017,0,0,1,24,33.86V31ZM12,5a1,1,0,0,1,1-1H45a1,1,0,0,1,1,1V8H24.64A8.9,8.9,0,0,0,20,6.06V6a1,1,0,0,0-1-1H17a8.94,8.94,0,0,0-5,1.52Zm13.71,8H20V8.08A7.022,7.022,0,0,1,25.71,13ZM10,34V26a1,1,0,0,0-1-1H6V23.41l3.71-3.7A1.033,1.033,0,0,0,10,19V14a7.008,7.008,0,0,1,7-7h1v7a1,1,0,0,0,1,1h9v7.67L25.5,26H20a1,1,0,0,0-1,1v2.45L11.71,34ZM24,46.14A4.017,4.017,0,0,1,26.86,49H24ZM22.99,29A1,1,0,0,0,22,30v4.37L17.64,38H16V33.68l4.53-2.83A1.012,1.012,0,0,0,21,30V28h1.98ZM46,59a1,1,0,0,1-1,1H13a1,1,0,0,1-1-1V54H46Zm0-7H12V36a.988.988,0,0,0,.53-.15L14,34.93V39a1,1,0,0,0,1,1h3a1,1,0,0,0,.64-.23L22,36.97V50a1,1,0,0,0,1,1H46Zm12-3H55.14A4.017,4.017,0,0,1,58,46.14Zm0-4.91A5.992,5.992,0,0,0,53.09,49H28.91A5.992,5.992,0,0,0,24,44.09V35.91A5.992,5.992,0,0,0,28.91,31H53.09A5.992,5.992,0,0,0,58,35.91Zm0-10.23A4.017,4.017,0,0,1,55.14,31H58Z"/><rect x="29" y="39" width="3" height="2"/><rect x="50" y="39" width="3" height="2"/><path d="M41,32a8,8,0,1,0,8,8A8.011,8.011,0,0,0,41,32Zm0,14a6,6,0,1,1,6-6A6,6,0,0,1,41,46Z"/><path d="M44,41.5a2.5,2.5,0,0,1-2,2.45V45H40V43.95a2.5,2.5,0,0,1-2-2.45h2a.5.5,0,0,0,.5.5h1a.5.5,0,0,0,0-1h-1a2.5,2.5,0,0,1-.5-4.95V35h2v1.05a2.5,2.5,0,0,1,2,2.45H42a.5.5,0,0,0-.5-.5h-1a.5.5,0,0,0,0,1h1A2.5,2.5,0,0,1,44,41.5Z"/></g></svg>
