<svg xmlns="http://www.w3.org/2000/svg" viewBox="0 0 812 812" width="812" height="812" preserveAspectRatio="xMidYMid slice" style="width: 100%; height: 100%; transform: translate3d(0px, 0px, 0px);"><defs><clipPath id="__lottie_element_508"><rect width="812" height="812" x="0" y="0"></rect></clipPath><linearGradient id="__lottie_element_512" spreadMethod="pad" gradientUnits="userSpaceOnUse" x1="-0.00800000037997961" y1="185" x2="-0.00800000037997961" y2="-194.1439971923828"><stop offset="0%" stop-color="rgb(102,30,90)" stop-opacity="0.5"></stop><stop offset="50%" stop-color="rgb(133,33,116)" stop-opacity="0.75"></stop><stop offset="100%" stop-color="rgb(163,37,142)" stop-opacity="1"></stop></linearGradient><linearGradient id="__lottie_element_516" spreadMethod="pad" gradientUnits="userSpaceOnUse" x1="-0.9890000224113464" y1="185" x2="-0.9890000224113464" y2="-194.1439971923828"><stop offset="0%" stop-color="rgb(102,30,90)" stop-opacity="0.5"></stop><stop offset="50%" stop-color="rgb(133,33,116)" stop-opacity="0.75"></stop><stop offset="100%" stop-color="rgb(163,37,142)" stop-opacity="1"></stop></linearGradient><linearGradient id="__lottie_element_520" spreadMethod="pad" gradientUnits="userSpaceOnUse" x1="-0.49399998784065247" y1="185" x2="-0.49399998784065247" y2="-194.1439971923828"><stop offset="0%" stop-color="rgb(102,30,90)" stop-opacity="0.5"></stop><stop offset="50%" stop-color="rgb(133,33,116)" stop-opacity="0.75"></stop><stop offset="100%" stop-color="rgb(163,37,142)" stop-opacity="1"></stop></linearGradient><linearGradient id="__lottie_element_524" spreadMethod="pad" gradientUnits="userSpaceOnUse" x1="-0.4740000069141388" y1="185" x2="-0.4740000069141388" y2="-194.1439971923828"><stop offset="0%" stop-color="rgb(102,30,90)" stop-opacity="0.5"></stop><stop offset="50%" stop-color="rgb(133,33,116)" stop-opacity="0.75"></stop><stop offset="100%" stop-color="rgb(163,37,142)" stop-opacity="1"></stop></linearGradient><linearGradient id="__lottie_element_528" spreadMethod="pad" gradientUnits="userSpaceOnUse" x1="-0.9919999837875366" y1="185" x2="-0.9919999837875366" y2="-194.1439971923828"><stop offset="0%" stop-color="rgb(102,30,90)" stop-opacity="0.5"></stop><stop offset="50%" stop-color="rgb(133,33,116)" stop-opacity="0.75"></stop><stop offset="100%" stop-color="rgb(163,37,142)" stop-opacity="1"></stop></linearGradient></defs><g clip-path="url(#__lottie_element_508)"><g transform="matrix(0.9999592900276184,0.009026123210787773,-0.009026123210787773,0.9999592900276184,176.4061737060547,406)" opacity="0.05" style="display: block;"><g opacity="1" transform="matrix(1,0,0,1,0,0)"><path fill="url(#__lottie_element_528)" fill-opacity="1" d=" M180.5019989013672,0 C180.5019989013672,112.177001953125 89.98300170898438,203.11399841308594 -21.67799949645996,203.11399841308594 C-86.09600067138672,203.11399841308594 -143.47799682617188,172.8489990234375 -180.5019989013672,125.6989974975586 C-137.7100067138672,91.83200073242188 -83.8740005493164,49.2239990234375 -21.67799949645996,0 C-56.49100112915039,-27.670000076293945 -123.14800262451172,-80.6510009765625 -180.24099731445312,-126.02999877929688 C-143.20799255371094,-172.99000549316406 -85.94499969482422,-203.11399841308594 -21.67799949645996,-203.11399841308594 C89.98300170898438,-203.11399841308594 180.5019989013672,-112.177001953125 180.5019989013672,0z"></path></g></g><g transform="matrix(0.9998746514320374,0.01583336666226387,-0.01583336666226387,0.9998746514320374,257.9378967285156,406)" opacity="0.1" style="display: block;"><g opacity="1" transform="matrix(1,0,0,1,0,0)"><path fill="url(#__lottie_element_524)" fill-opacity="1" d=" M180.5019989013672,0 C180.5019989013672,112.177001953125 89.98300170898438,203.11399841308594 -21.67799949645996,203.11399841308594 C-86.09600067138672,203.11399841308594 -143.47799682617188,172.8489990234375 -180.5019989013672,125.6989974975586 C-137.7100067138672,91.83200073242188 -83.8740005493164,49.2239990234375 -21.67799949645996,0 C-56.49100112915039,-27.670000076293945 -123.14800262451172,-80.6510009765625 -180.24099731445312,-126.02999877929688 C-143.20799255371094,-172.99000549316406 -85.94499969482422,-203.11399841308594 -21.67799949645996,-203.11399841308594 C89.98300170898438,-203.11399841308594 180.5019989013672,-112.177001953125 180.5019989013672,0z"></path></g></g><g transform="matrix(0.9997178912162781,0.02375166304409504,-0.02375166304409504,0.9997178912162781,352.6889953613281,406)" opacity="0.2" style="display: block;"><g opacity="1" transform="matrix(1,0,0,1,0,0)"><path fill="url(#__lottie_element_520)" fill-opacity="1" d=" M180.5019989013672,0 C180.5019989013672,112.177001953125 89.98300170898438,203.11399841308594 -21.67799949645996,203.11399841308594 C-86.09600067138672,203.11399841308594 -143.47799682617188,172.8489990234375 -180.5019989013672,125.6989974975586 C-137.7100067138672,91.83200073242188 -83.8740005493164,49.2239990234375 -21.67799949645996,0 C-56.49100112915039,-27.670000076293945 -123.14800262451172,-80.6510009765625 -180.24099731445312,-126.02999877929688 C-143.20799255371094,-172.99000549316406 -85.94499969482422,-203.11399841308594 -21.67799949645996,-203.11399841308594 C89.98300170898438,-203.11399841308594 180.5019989013672,-112.177001953125 180.5019989013672,0z"></path></g></g><g transform="matrix(0.9994783401489258,0.03229616582393646,-0.03229616582393646,0.9994783401489258,446.7352294921875,406)" opacity="0.4" style="display: block;"><g opacity="1" transform="matrix(1,0,0,1,0,0)"><path fill="url(#__lottie_element_516)" fill-opacity="1" d=" M180.5019989013672,0 C180.5019989013672,112.177001953125 89.98300170898438,203.11399841308594 -21.67799949645996,203.11399841308594 C-86.09600067138672,203.11399841308594 -143.47799682617188,172.8489990234375 -180.5019989013672,125.6989974975586 C-137.7100067138672,91.83200073242188 -83.8740005493164,49.2239990234375 -21.67799949645996,0 C-56.49100112915039,-27.670000076293945 -123.14800262451172,-80.6510009765625 -180.24099731445312,-126.02999877929688 C-143.20799255371094,-172.99000549316406 -85.94499969482422,-203.11399841308594 -21.67799949645996,-203.11399841308594 C89.98300170898438,-203.11399841308594 180.5019989013672,-112.177001953125 180.5019989013672,0z"></path></g></g><g transform="matrix(0.9991598725318909,0.040982671082019806,-0.040982671082019806,0.9991598725318909,5.393190383911133,-23.961944580078125)" opacity="1" style="display: block;"><g opacity="1" transform="matrix(1,0,0,1,593.0079956054688,406)"><path fill="url(#__lottie_element_512)" fill-opacity="1" d=" M180.5019989013672,0 C180.5019989013672,112.177001953125 89.98300170898438,203.11399841308594 -21.67799949645996,203.11399841308594 C-86.09600067138672,203.11399841308594 -143.47799682617188,172.8489990234375 -180.5019989013672,125.6989974975586 C-137.7100067138672,91.83200073242188 -83.8740005493164,49.2239990234375 -21.67799949645996,0 C-56.49100112915039,-27.670000076293945 -123.14800262451172,-80.6510009765625 -180.24099731445312,-126.02999877929688 C-143.20799255371094,-172.99000549316406 -85.94499969482422,-203.11399841308594 -21.67799949645996,-203.11399841308594 C89.98300170898438,-203.11399841308594 180.5019989013672,-112.177001953125 180.5019989013672,0z"></path></g><g opacity="1" transform="matrix(1,0,0,1,614.5230102539062,285.74200439453125)"><path fill="rgb(255,255,255)" fill-opacity="1" d=" M0,38.5260009765625 C21.14299964904785,38.5260009765625 38.28300094604492,21.277000427246094 38.28300094604492,0 C38.28300094604492,-21.277000427246094 21.14299964904785,-38.5260009765625 0,-38.5260009765625 C-21.14299964904785,-38.5260009765625 -38.28300094604492,-21.277000427246094 -38.28300094604492,0 C-38.28300094604492,21.277000427246094 -21.14299964904785,38.5260009765625 0,38.5260009765625z"></path></g></g></g></svg>