<svg xmlns="http://www.w3.org/2000/svg" viewBox="0 0 812 812" width="812" height="812" preserveAspectRatio="xMidYMid slice" style="width: 100%; height: 100%; transform: translate3d(0px, 0px, 0px);"><defs><clipPath id="__lottie_element_461"><rect width="812" height="812" x="0" y="0"></rect></clipPath></defs><g clip-path="url(#__lottie_element_461)"><g transform="matrix(0.9964410066604614,0.08429326117038727,-0.08429326117038727,0.9964410066604614,406,406)" opacity="0.7229000000000001" style="display: block;"><g opacity="1" transform="matrix(1,0,0,1,0,0)"><path fill="rgb(0,162,167)" fill-opacity="1" d=" M12.626999855041504,-242.17100524902344 C12.626999855041504,-242.17100524902344 29.48900032043457,240.7010040283203 29.48900032043457,240.7010040283203 C29.48900032043457,240.7010040283203 -12.626999855041504,242.17100524902344 -12.626999855041504,242.17100524902344 C-12.626999855041504,242.17100524902344 -29.48900032043457,-240.7010040283203 -29.48900032043457,-240.7010040283203 C-29.48900032043457,-240.7010040283203 12.626999855041504,-242.17100524902344 12.626999855041504,-242.17100524902344z"></path></g></g><g transform="matrix(0.9950177669525146,0.09969768673181534,-0.09969768673181534,0.9950177669525146,406,406)" opacity="0.3006" style="display: block;"><g opacity="1" transform="matrix(1,0,0,1,0,0)"><path fill="rgb(0,162,167)" fill-opacity="1" d=" M-78.96299743652344,-229.2689971923828 C-78.96299743652344,-229.2689971923828 117.54399871826172,212.0919952392578 117.54399871826172,212.0919952392578 C117.54399871826172,212.0919952392578 78.96299743652344,229.2689971923828 78.96299743652344,229.2689971923828 C78.96299743652344,229.2689971923828 -117.54399871826172,-212.0919952392578 -117.54399871826172,-212.0919952392578 C-117.54399871826172,-212.0919952392578 -78.96299743652344,-229.2689971923828 -78.96299743652344,-229.2689971923828z"></path></g></g><g transform="matrix(0.993429958820343,0.11444158107042313,-0.11444158107042313,0.993429958820343,406,406)" opacity="0.3342" style="display: block;"><g opacity="1" transform="matrix(1,0,0,1,0,0)"><path fill="rgb(0,162,167)" fill-opacity="1" d=" M-159.05299377441406,-182.97799682617188 C-159.05299377441406,-182.97799682617188 188.41700744628906,152.57000732421875 188.41700744628906,152.57000732421875 C188.41700744628906,152.57000732421875 159.05299377441406,182.97799682617188 159.05299377441406,182.97799682617188 C159.05299377441406,182.97799682617188 -188.41700744628906,-152.57000732421875 -188.41700744628906,-152.57000732421875 C-188.41700744628906,-152.57000732421875 -159.05299377441406,-182.97799682617188 -159.05299377441406,-182.97799682617188z"></path></g></g><g transform="matrix(0.9918317794799805,0.12755288183689117,-0.12755288183689117,0.9918317794799805,406,406)" opacity="0.5077" style="display: block;"><g opacity="1" transform="matrix(1,0,0,1,0,0)"><path fill="rgb(0,162,167)" fill-opacity="1" d=" M-215.97999572753906,-110.03900146484375 C-215.97999572753906,-110.03900146484375 231.802001953125,70.8759994506836 231.802001953125,70.8759994506836 C231.802001953125,70.8759994506836 215.97999572753906,110.03900146484375 215.97999572753906,110.03900146484375 C215.97999572753906,110.03900146484375 -231.802001953125,-70.8759994506836 -231.802001953125,-70.8759994506836 C-231.802001953125,-70.8759994506836 -215.97999572753906,-110.03900146484375 -215.97999572753906,-110.03900146484375z"></path></g></g><g transform="matrix(0.9903469085693359,0.13861079514026642,-0.13861079514026642,0.9903469085693359,406,406)" opacity="1" style="display: block;"><g opacity="1" transform="matrix(1,0,0,1,0,0)"><path fill="rgb(255,255,255)" fill-opacity="1" d=" M-241.4530029296875,-21.075000762939453 C-241.4530029296875,-21.075000762939453 241.4530029296875,-21.075000762939453 241.4530029296875,-21.075000762939453 C241.4530029296875,-21.075000762939453 241.4530029296875,21.075000762939453 241.4530029296875,21.075000762939453 C241.4530029296875,21.075000762939453 -241.4530029296875,21.075000762939453 -241.4530029296875,21.075000762939453 C-241.4530029296875,21.075000762939453 -241.4530029296875,-21.075000762939453 -241.4530029296875,-21.075000762939453z"></path></g></g><g transform="matrix(0.9890419840812683,0.14763471484184265,-0.14763471484184265,0.9890419840812683,406,406)" opacity="0.6762" style="display: block;"><g opacity="1" transform="matrix(1,0,0,1,0,0)"><path fill="rgb(171,101,165)" fill-opacity="1" d=" M-86.87100219726562,226.4010009765625 C-86.87100219726562,226.4010009765625 46.303001403808594,-238.03399658203125 46.303001403808594,-238.03399658203125 C46.303001403808594,-238.03399658203125 86.87100219726562,-226.4010009765625 86.87100219726562,-226.4010009765625 C86.87100219726562,-226.4010009765625 -46.303001403808594,238.03399658203125 -46.303001403808594,238.03399658203125 C-46.303001403808594,238.03399658203125 -86.87100219726562,226.4010009765625 -86.87100219726562,226.4010009765625z"></path></g></g><g transform="matrix(0.9879382848739624,0.15484826266765594,-0.15484826266765594,0.9879382848739624,406,406)" opacity="0.3147" style="display: block;"><g opacity="1" transform="matrix(1,0,0,1,0,0)"><path fill="rgb(171,101,165)" fill-opacity="1" d=" M4.288000106811523,242.46299743652344 C4.288000106811523,242.46299743652344 -46.21699905395508,-238.05599975585938 -46.21699905395508,-238.05599975585938 C-46.21699905395508,-238.05599975585938 -4.288000106811523,-242.46299743652344 -4.288000106811523,-242.46299743652344 C-4.288000106811523,-242.46299743652344 46.21699905395508,238.05599975585938 46.21699905395508,238.05599975585938 C46.21699905395508,238.05599975585938 4.288000106811523,242.46299743652344 4.288000106811523,242.46299743652344z"></path></g></g><g transform="matrix(0.9870322346687317,0.16052226722240448,-0.16052226722240448,0.9870322346687317,406,406)" opacity="0.585" style="display: block;"><g opacity="1" transform="matrix(1,0,0,1,0,0)"><path fill="rgb(171,101,165)" fill-opacity="1" d=" M94.75499725341797,223.19900512695312 C94.75499725341797,223.19900512695312 -132.0540008544922,-203.36700439453125 -132.0540008544922,-203.36700439453125 C-132.0540008544922,-203.36700439453125 -94.75499725341797,-223.19900512695312 -94.75499725341797,-223.19900512695312 C-94.75499725341797,-223.19900512695312 132.0540008544922,203.36700439453125 132.0540008544922,203.36700439453125 C132.0540008544922,203.36700439453125 94.75499725341797,223.19900512695312 94.75499725341797,223.19900512695312z"></path></g></g><g transform="matrix(0.9879382848739624,0.15484826266765594,-0.15484826266765594,0.9879382848739624,406,406)" opacity="0.15560000000000002" style="display: block;"><g opacity="1" transform="matrix(1,0,0,1,0,0)"><path fill="rgb(171,101,165)" fill-opacity="1" d=" M171.42300415039062,171.43099975585938 C171.42300415039062,171.43099975585938 -198.593994140625,-139.0489959716797 -198.593994140625,-139.0489959716797 C-198.593994140625,-139.0489959716797 -171.4219970703125,-171.43099975585938 -171.4219970703125,-171.43099975585938 C-171.4219970703125,-171.43099975585938 198.593994140625,139.0489959716797 198.593994140625,139.0489959716797 C198.593994140625,139.0489959716797 171.42300415039062,171.43099975585938 171.42300415039062,171.43099975585938z"></path></g></g><g transform="matrix(0.9890419840812683,0.14763471484184265,-0.14763471484184265,0.9890419840812683,406,406)" opacity="0.2847" style="display: block;"><g opacity="1" transform="matrix(1,0,0,1,0,0)"><path fill="rgb(171,101,165)" fill-opacity="1" d=" M223.125,94.6969985961914 C223.125,94.6969985961914 -236.1739959716797,-54.53900146484375 -236.1739959716797,-54.53900146484375 C-236.1739959716797,-54.53900146484375 -223.125,-94.6969985961914 -223.125,-94.6969985961914 C-223.125,-94.6969985961914 236.1739959716797,54.53799819946289 236.1739959716797,54.53799819946289 C236.1739959716797,54.53799819946289 223.125,94.6969985961914 223.125,94.6969985961914z"></path></g></g><g transform="matrix(0.9903469085693359,0.13861079514026642,-0.13861079514026642,0.9903469085693359,406,406)" opacity="0.2856" style="display: block;"><g opacity="1" transform="matrix(1,0,0,1,0,0)"><path fill="rgb(171,101,165)" fill-opacity="1" d=" M242.33700561523438,4.190000057220459 C242.33700561523438,4.190000057220459 -239.39500427246094,37.875999450683594 -239.39500427246094,37.875999450683594 C-239.39500427246094,37.875999450683594 -242.33700561523438,-4.190000057220459 -242.33700561523438,-4.190000057220459 C-242.33700561523438,-4.190000057220459 239.39500427246094,-37.875999450683594 239.39500427246094,-37.875999450683594 C239.39500427246094,-37.875999450683594 242.33700561523438,4.190000057220459 242.33700561523438,4.190000057220459z"></path></g></g><g transform="matrix(0.9918317794799805,0.12755288183689117,-0.12755288183689117,0.9918317794799805,406,406)" opacity="0.7239" style="display: block;"><g opacity="1" transform="matrix(1,0,0,1,0,0)"><path fill="rgb(171,101,165)" fill-opacity="1" d=" M226.302001953125,-86.87200164794922 C226.302001953125,-86.87200164794922 -207.781005859375,124.84500122070312 -207.781005859375,124.84500122070312 C-207.781005859375,124.84500122070312 -226.302001953125,86.87200164794922 -226.302001953125,86.87200164794922 C-226.302001953125,86.87200164794922 207.78199768066406,-124.84500122070312 207.78199768066406,-124.84500122070312 C207.78199768066406,-124.84500122070312 226.302001953125,-86.87200164794922 226.302001953125,-86.87200164794922z"></path></g></g><g transform="matrix(0.993429958820343,0.11444158107042313,-0.11444158107042313,0.993429958820343,406,406)" opacity="0.22820000000000001" style="display: block;"><g opacity="1" transform="matrix(1,0,0,1,0,0)"><path fill="rgb(171,101,165)" fill-opacity="1" d=" M177.3209991455078,-165.3489990234375 C177.3209991455078,-165.3489990234375 -145.9080047607422,193.63299560546875 -145.9080047607422,193.63299560546875 C-145.9080047607422,193.63299560546875 -177.3209991455078,165.3489990234375 -177.3209991455078,165.3489990234375 C-177.3209991455078,165.3489990234375 145.9080047607422,-193.63299560546875 145.9080047607422,-193.63299560546875 C145.9080047607422,-193.63299560546875 177.3209991455078,-165.3489990234375 177.3209991455078,-165.3489990234375z"></path></g></g><g transform="matrix(0.9950177669525146,0.09969768673181534,-0.09969768673181534,0.9950177669525146,406,406)" opacity="0.08" style="display: block;"><g opacity="1" transform="matrix(1,0,0,1,0,0)"><path fill="rgb(171,101,165)" fill-opacity="1" d=" M102.45800018310547,-219.78199768066406 C102.45800018310547,-219.78199768066406 -62.7859992980957,234.2220001220703 -62.7859992980957,234.2220001220703 C-62.7859992980957,234.2220001220703 -102.45800018310547,219.78199768066406 -102.45800018310547,219.78199768066406 C-102.45800018310547,219.78199768066406 62.7859992980957,-234.2220001220703 62.7859992980957,-234.2220001220703 C62.7859992980957,-234.2220001220703 102.45800018310547,-219.78199768066406 102.45800018310547,-219.78199768066406z"></path></g></g><g transform="matrix(0.9964410066604614,0.08429326117038727,-0.08429326117038727,0.9964410066604614,406,406)" opacity="0.11470000000000001" style="display: block;"><g opacity="1" transform="matrix(1,0,0,1,0,0)"><path fill="rgb(171,101,165)" fill-opacity="1" d=" M12.626999855041504,-242.17100524902344 C12.626999855041504,-242.17100524902344 29.48900032043457,240.7010040283203 29.48900032043457,240.7010040283203 C29.48900032043457,240.7010040283203 -12.626999855041504,242.17100524902344 -12.626999855041504,242.17100524902344 C-12.626999855041504,242.17100524902344 -29.48900032043457,-240.7010040283203 -29.48900032043457,-240.7010040283203 C-29.48900032043457,-240.7010040283203 12.626999855041504,-242.17100524902344 12.626999855041504,-242.17100524902344z"></path></g></g></g></svg>