<svg xmlns="http://www.w3.org/2000/svg" width="68.537" height="71.161" viewBox="0 0 68.537 71.161"><defs><style>.a,.b{fill:#fff;}.a{stroke:#fff;}</style></defs><g transform="translate(-58.203 6.078)"><g transform="matrix(0.94, -0.342, 0.342, 0.94, 88.766, 27.539)"><g transform="translate(0)"><path class="a" d="M238.442,172.768l-23.1-23.1a1.156,1.156,0,0,0-1.973.818V182.47a1.156,1.156,0,0,0,1.867.91L221.1,178.8l5.119,9.213a1.158,1.158,0,0,0,1.529.471l6.93-3.465a1.153,1.153,0,0,0,.492-1.594l-4.821-8.679h7.277a1.156,1.156,0,0,0,.818-1.973Zm-10.058-.337a1.158,1.158,0,0,0-1.01,1.719l5.188,9.34-4.86,2.433-5.239-9.43a1.154,1.154,0,0,0-.781-.573,1.1,1.1,0,0,0-.229-.023,1.146,1.146,0,0,0-.712.245l-5.064,3.959V153.273l19.157,19.157h-6.452Z" transform="translate(-213.368 -149.33)"/></g></g><g transform="translate(58.203 7.972) rotate(-16)"><g transform="translate(0 0)"><path class="b" d="M113.227,16.364A25.475,25.475,0,1,0,79.055,48.735a1.7,1.7,0,0,0,1.382-3.1A22.077,22.077,0,1,1,109.6,34.47a1.7,1.7,0,1,0,3.1,1.382A25.3,25.3,0,0,0,113.227,16.364Z" transform="translate(-63.952 0)"/></g></g><g transform="translate(70.809 14.948) rotate(-16)"><g transform="translate(0)"><path class="b" d="M157.635,74a15.285,15.285,0,1,0-20.8,19.105,1.724,1.724,0,0,0,.713.156,1.7,1.7,0,0,0,.717-3.24,11.887,11.887,0,1,1,15.79-5.767,1.7,1.7,0,0,0,3.084,1.433A15.2,15.2,0,0,0,157.635,74Z" transform="translate(-127.986 -63.948)"/></g></g></g></svg>