<svg xmlns="http://www.w3.org/2000/svg" viewBox="0 0 812 812" width="812" height="812" preserveAspectRatio="xMidYMid slice" style="width: 100%; height: 100%; transform: translate3d(0px, 0px, 0px);"><defs><clipPath id="__lottie_element_645"><rect width="812" height="812" x="0" y="0"></rect></clipPath></defs><g clip-path="url(#__lottie_element_645)"><g transform="matrix(0.9929627776145935,0,0,0.9929627776145935,654.2689819335938,534.5750122070312)" opacity="0.36694533532601514" style="display: block;"><g opacity="1" transform="matrix(1,0,0,1,0,0)"><path fill="rgb(106,196,209)" fill-opacity="1" d=" M0,63.42499923706055 C34.92100143432617,63.42499923706055 63.23099899291992,35.02899932861328 63.23099899291992,0 C63.23099899291992,-35.02799987792969 34.92100143432617,-63.42499923706055 0,-63.42499923706055 C-34.92100143432617,-63.42499923706055 -63.23099899291992,-35.02799987792969 -63.23099899291992,0 C-63.23099899291992,35.02899932861328 -34.92100143432617,63.42499923706055 0,63.42499923706055z"></path></g></g><g transform="matrix(0.9968332648277283,0,0,0.9968332648277283,556.9140014648438,534.5750122070312)" opacity="0.16674961131023122" style="display: block;"><g opacity="1" transform="matrix(1,0,0,1,0,0)"><path fill="rgb(106,196,209)" fill-opacity="1" d=" M0,62.130001068115234 C34.20899963378906,62.130001068115234 61.939998626708984,34.31399917602539 61.939998626708984,0 C61.939998626708984,-34.31399917602539 34.20899963378906,-62.130001068115234 0,-62.130001068115234 C-34.20899963378906,-62.130001068115234 -61.939998626708984,-34.31399917602539 -61.939998626708984,0 C-61.939998626708984,34.31399917602539 -34.20899963378906,62.130001068115234 0,62.130001068115234z"></path></g></g><g transform="matrix(0.9999989867210388,0,0,0.9999989867210388,459.5589904785156,534.5750122070312)" opacity="0.09880166485088922" style="display: block;"><g opacity="1" transform="matrix(1,0,0,1,0,0)"><path fill="rgb(106,196,209)" fill-opacity="1" d=" M0,60.83599853515625 C33.49599838256836,60.83599853515625 60.650001525878906,33.5989990234375 60.650001525878906,0 C60.650001525878906,-33.5989990234375 33.49599838256836,-60.83599853515625 0,-60.83599853515625 C-33.49599838256836,-60.83599853515625 -60.650001525878906,-33.5989990234375 -60.650001525878906,0 C-60.650001525878906,33.5989990234375 -33.49599838256836,60.83599853515625 0,60.83599853515625z"></path></g></g><g transform="matrix(1.0000005960464478,0,0,1.0000005960464478,362.2040100097656,534.5750122070312)" opacity="0.83499817282565" style="display: block;"><g opacity="1" transform="matrix(1,0,0,1,0,0)"><path fill="rgb(106,196,209)" fill-opacity="1" d=" M0,59.54199981689453 C32.78300094604492,59.54199981689453 59.35900115966797,32.88399887084961 59.35900115966797,0 C59.35900115966797,-32.88399887084961 32.78300094604492,-59.54199981689453 0,-59.54199981689453 C-32.78300094604492,-59.54199981689453 -59.35900115966797,-32.88399887084961 -59.35900115966797,0 C-59.35900115966797,32.88399887084961 -32.78300094604492,59.54199981689453 0,59.54199981689453z"></path></g></g><g transform="matrix(0.9965822696685791,0,0,0.9965822696685791,265.0639953613281,534.791015625)" opacity="0.11738748914713781" style="display: block;"><g opacity="1" transform="matrix(1,0,0,1,0,0)"><path fill="rgb(106,196,209)" fill-opacity="1" d=" M0,58.4630012512207 C32.18899917602539,58.4630012512207 58.284000396728516,32.28799819946289 58.284000396728516,0 C58.284000396728516,-32.28799819946289 32.18899917602539,-58.4630012512207 0,-58.4630012512207 C-32.18899917602539,-58.4630012512207 -58.284000396728516,-32.28799819946289 -58.284000396728516,0 C-58.284000396728516,32.28799819946289 -32.18899917602539,58.4630012512207 0,58.4630012512207z"></path></g></g><g transform="matrix(1.0010097026824951,0,0,1.0010097026824951,167.70899963378906,534.5750122070312)" opacity="0.010901961469427844" style="display: block;"><g opacity="1" transform="matrix(1,0,0,1,0,0)"><path fill="rgb(106,196,209)" fill-opacity="1" d=" M0,57.38399887084961 C31.594999313354492,57.38399887084961 57.20899963378906,31.691999435424805 57.20899963378906,0 C57.20899963378906,-31.691999435424805 31.594999313354492,-57.38399887084961 0,-57.38399887084961 C-31.594999313354492,-57.38399887084961 -57.20899963378906,-31.691999435424805 -57.20899963378906,0 C-57.20899963378906,31.691999435424805 -31.594999313354492,57.38399887084961 0,57.38399887084961z"></path></g></g><g transform="matrix(1,0,0,1,646.9569702148438,441.8110046386719)" opacity="0.9166" style="display: block;"><g opacity="1" transform="matrix(1,0,0,1,0,0)"><path fill="rgb(106,196,209)" fill-opacity="1" d=" M0,56.305999755859375 C31.00200080871582,56.305999755859375 56.132999420166016,31.097000122070312 56.132999420166016,0 C56.132999420166016,-31.097000122070312 31.00200080871582,-56.305999755859375 0,-56.305999755859375 C-31.00200080871582,-56.305999755859375 -56.132999420166016,-31.097000122070312 -56.132999420166016,0 C-56.132999420166016,31.097000122070312 -31.00200080871582,56.305999755859375 0,56.305999755859375z"></path></g></g><g transform="matrix(1,0,0,1,549.8170166015625,441.8110046386719)" opacity="0.9255" style="display: block;"><g opacity="1" transform="matrix(1,0,0,1,0,0)"><path fill="rgb(255,255,255)" fill-opacity="1" d=" M0,55.22700119018555 C30.408000946044922,55.22700119018555 55.05799865722656,30.500999450683594 55.05799865722656,0 C55.05799865722656,-30.500999450683594 30.408000946044922,-55.22700119018555 0,-55.22700119018555 C-30.408000946044922,-55.22700119018555 -55.05799865722656,-30.500999450683594 -55.05799865722656,0 C-55.05799865722656,30.500999450683594 -30.408000946044922,55.22700119018555 0,55.22700119018555z"></path></g></g><g transform="matrix(0.9926109313964844,0,0,0.9926109313964844,452.677001953125,441.8110046386719)" opacity="0.0759320465205585" style="display: block;"><g opacity="1" transform="matrix(1,0,0,1,0,0)"><path fill="rgb(106,196,209)" fill-opacity="1" d=" M0,54.14799880981445 C29.81399917602539,54.14799880981445 53.983001708984375,29.905000686645508 53.983001708984375,0 C53.983001708984375,-29.905000686645508 29.81399917602539,-54.14799880981445 0,-54.14799880981445 C-29.81399917602539,-54.14799880981445 -53.983001708984375,-29.905000686645508 -53.983001708984375,0 C-53.983001708984375,29.905000686645508 -29.81399917602539,54.14799880981445 0,54.14799880981445z"></path></g></g><g transform="matrix(0.9999988675117493,0,0,0.9999988675117493,355.5369873046875,441.8110046386719)" opacity="0.36820108616222463" style="display: block;"><g opacity="1" transform="matrix(1,0,0,1,0,0)"><path fill="rgb(106,196,209)" fill-opacity="1" d=" M0,53.06999969482422 C29.219999313354492,53.06999969482422 52.90700149536133,29.309999465942383 52.90700149536133,0 C52.90700149536133,-29.309999465942383 29.219999313354492,-53.06999969482422 0,-53.06999969482422 C-29.219999313354492,-53.06999969482422 -52.90700149536133,-29.309999465942383 -52.90700149536133,0 C-52.90700149536133,29.309999465942383 -29.219999313354492,53.06999969482422 0,53.06999969482422z"></path></g></g><g transform="matrix(1.0038704872131348,0,0,1.0038704872131348,258.3970031738281,441.8110046386719)" opacity="0.9850925370705241" style="display: block;"><g opacity="1" transform="matrix(1,0,0,1,0,0)"><path fill="rgb(106,196,209)" fill-opacity="1" d=" M0,51.99100112915039 C28.625999450683594,51.99100112915039 51.832000732421875,28.714000701904297 51.832000732421875,0 C51.832000732421875,-28.714000701904297 28.625999450683594,-51.99100112915039 0,-51.99100112915039 C-28.625999450683594,-51.99100112915039 -51.832000732421875,-28.714000701904297 -51.832000732421875,0 C-51.832000732421875,28.714000701904297 -28.625999450683594,51.99100112915039 0,51.99100112915039z"></path></g></g><g transform="matrix(0.9999988079071045,0,0,0.9999988079071045,161.2570037841797,441.8110046386719)" opacity="0.4472019139042257" style="display: block;"><g opacity="1" transform="matrix(1,0,0,1,0,0)"><path fill="rgb(106,196,209)" fill-opacity="1" d=" M0,50.9119987487793 C28.031999588012695,50.9119987487793 50.75699996948242,28.118000030517578 50.75699996948242,0 C50.75699996948242,-28.118000030517578 28.031999588012695,-50.9119987487793 0,-50.9119987487793 C-28.031999588012695,-50.9119987487793 -50.75699996948242,-28.118000030517578 -50.75699996948242,0 C-50.75699996948242,28.118000030517578 -28.031999588012695,50.9119987487793 0,50.9119987487793z"></path></g></g><g transform="matrix(0.9999971985816956,0,0,0.9999971985816956,640.719970703125,349.9100036621094)" opacity="0.9063962657428754" style="display: block;"><g opacity="1" transform="matrix(1,0,0,1,0,0)"><path fill="rgb(106,196,209)" fill-opacity="1" d=" M0,49.83399963378906 C27.437999725341797,49.83399963378906 49.680999755859375,27.52199935913086 49.680999755859375,0 C49.680999755859375,-27.52199935913086 27.437999725341797,-49.83399963378906 0,-49.83399963378906 C-27.437999725341797,-49.83399963378906 -49.680999755859375,-27.52199935913086 -49.680999755859375,0 C-49.680999755859375,27.52199935913086 -27.437999725341797,49.83399963378906 0,49.83399963378906z"></path></g></g><g transform="matrix(0.9956017136573792,0,0,0.9956017136573792,543.5800170898438,349.9100036621094)" opacity="0.7160139685810392" style="display: block;"><g opacity="1" transform="matrix(1,0,0,1,0,0)"><path fill="rgb(106,196,209)" fill-opacity="1" d=" M0,48.755001068115234 C26.8439998626709,48.755001068115234 48.60599899291992,26.927000045776367 48.60599899291992,0 C48.60599899291992,-26.927000045776367 26.8439998626709,-48.755001068115234 0,-48.755001068115234 C-26.8439998626709,-48.755001068115234 -48.60599899291992,-26.927000045776367 -48.60599899291992,0 C-48.60599899291992,26.927000045776367 -26.8439998626709,48.755001068115234 0,48.755001068115234z"></path></g></g><g transform="matrix(1.0000004768371582,0,0,1.0000004768371582,446.6549987792969,349.9100036621094)" opacity="0.6895992625280281" style="display: block;"><g opacity="1" transform="matrix(1,0,0,1,0,0)"><path fill="rgb(106,196,209)" fill-opacity="1" d=" M0,47.891998291015625 C26.368999481201172,47.891998291015625 47.74599838256836,26.450000762939453 47.74599838256836,0 C47.74599838256836,-26.450000762939453 26.368999481201172,-47.891998291015625 0,-47.891998291015625 C-26.368999481201172,-47.891998291015625 -47.74599838256836,-26.450000762939453 -47.74599838256836,0 C-47.74599838256836,26.450000762939453 -26.368999481201172,47.891998291015625 0,47.891998291015625z"></path></g></g><g transform="matrix(1.000001072883606,0,0,1.000001072883606,349.7300109863281,349.9100036621094)" opacity="0.9070980822036097" style="display: block;"><g opacity="1" transform="matrix(1,0,0,1,0,0)"><path fill="rgb(106,196,209)" fill-opacity="1" d=" M0,47.02899932861328 C25.893999099731445,47.02899932861328 46.8849983215332,25.974000930786133 46.8849983215332,0 C46.8849983215332,-25.972999572753906 25.893999099731445,-47.02899932861328 0,-47.02899932861328 C-25.893999099731445,-47.02899932861328 -46.8849983215332,-25.972999572753906 -46.8849983215332,0 C-46.8849983215332,25.974000930786133 -25.893999099731445,47.02899932861328 0,47.02899932861328z"></path></g></g><g transform="matrix(1.0036945343017578,0,0,1.0036945343017578,252.80499267578125,349.9100036621094)" opacity="0.9075656770899702" style="display: block;"><g opacity="1" transform="matrix(1,0,0,1,0,0)"><path fill="rgb(106,196,209)" fill-opacity="1" d=" M0,46.16600036621094 C25.41900062561035,46.16600036621094 46.025001525878906,25.496999740600586 46.025001525878906,0 C46.025001525878906,-25.496999740600586 25.41900062561035,-46.16600036621094 0,-46.16600036621094 C-25.41900062561035,-46.16600036621094 -46.025001525878906,-25.496999740600586 -46.025001525878906,0 C-46.025001525878906,25.496999740600586 -25.41900062561035,46.16600036621094 0,46.16600036621094z"></path></g></g><g transform="matrix(0.9956017136573792,0,0,0.9956017136573792,155.8800048828125,349.9100036621094)" opacity="0.7003787239653925" style="display: block;"><g opacity="1" transform="matrix(1,0,0,1,0,0)"><path fill="rgb(106,196,209)" fill-opacity="1" d=" M0,45.303001403808594 C24.944000244140625,45.303001403808594 45.165000915527344,25.020000457763672 45.165000915527344,0 C45.165000915527344,-25.020000457763672 24.944000244140625,-45.303001403808594 0,-45.303001403808594 C-24.944000244140625,-45.303001403808594 -45.165000915527344,-25.020000457763672 -45.165000915527344,0 C-45.165000915527344,25.020000457763672 -24.944000244140625,45.303001403808594 0,45.303001403808594z"></path></g></g><g transform="matrix(0.9968332648277283,0,0,0.9968332648277283,636.2030029296875,258.44000244140625)" opacity="0.7003787239653925" style="display: block;"><g opacity="1" transform="matrix(1,0,0,1,0,0)"><path fill="rgb(106,196,209)" fill-opacity="1" d=" M0,44.439998626708984 C24.4689998626709,44.439998626708984 44.30400085449219,24.54400062561035 44.30400085449219,0 C44.30400085449219,-24.54400062561035 24.4689998626709,-44.439998626708984 0,-44.439998626708984 C-24.4689998626709,-44.439998626708984 -44.30400085449219,-24.54400062561035 -44.30400085449219,0 C-44.30400085449219,24.54400062561035 -24.4689998626709,44.439998626708984 0,44.439998626708984z"></path></g></g><g transform="matrix(1.0000009536743164,0,0,1.0000009536743164,539.2780151367188,258.44000244140625)" opacity="0.1410026001878174" style="display: block;"><g opacity="1" transform="matrix(1,0,0,1,0,0)"><path fill="rgb(106,196,209)" fill-opacity="1" d=" M0,43.577999114990234 C23.993999481201172,43.577999114990234 43.444000244140625,24.066999435424805 43.444000244140625,0 C43.444000244140625,-24.066999435424805 23.993999481201172,-43.577999114990234 0,-43.577999114990234 C-23.993000030517578,-43.577999114990234 -43.444000244140625,-24.066999435424805 -43.444000244140625,0 C-43.444000244140625,24.066999435424805 -23.993000030517578,43.577999114990234 0,43.577999114990234z"></path></g></g><g transform="matrix(1.0000007152557373,0,0,1.0000007152557373,442.3529968261719,258.44000244140625)" opacity="0.710598456331185" style="display: block;"><g opacity="1" transform="matrix(1,0,0,1,0,0)"><path fill="rgb(106,196,209)" fill-opacity="1" d=" M0,42.71500015258789 C23.51799964904785,42.71500015258789 42.58399963378906,23.590999603271484 42.58399963378906,0 C42.58399963378906,-23.590999603271484 23.51799964904785,-42.71500015258789 0,-42.71500015258789 C-23.51799964904785,-42.71500015258789 -42.58399963378906,-23.590999603271484 -42.58399963378906,0 C-42.58399963378906,23.590999603271484 -23.51799964904785,42.71500015258789 0,42.71500015258789z"></path></g></g><g transform="matrix(0.9964814186096191,0,0,0.9964814186096191,345.4280090332031,258.44000244140625)" opacity="0.4294184753454613" style="display: block;"><g opacity="1" transform="matrix(1,0,0,1,0,0)"><path fill="rgb(106,196,209)" fill-opacity="1" d=" M0,41.85200119018555 C23.042999267578125,41.85200119018555 41.7239990234375,23.11400032043457 41.7239990234375,0 C41.7239990234375,-23.11400032043457 23.042999267578125,-41.85200119018555 0,-41.85200119018555 C-23.042999267578125,-41.85200119018555 -41.7239990234375,-23.11400032043457 -41.7239990234375,0 C-41.7239990234375,23.11400032043457 -23.042999267578125,41.85200119018555 0,41.85200119018555z"></path></g></g><g transform="matrix(0.9994635581970215,0,0,0.9994635581970215,248.5030059814453,258.44000244140625)" opacity="0.3772979724894872" style="display: block;"><g opacity="1" transform="matrix(1,0,0,1,0,0)"><path fill="rgb(106,196,209)" fill-opacity="1" d=" M0,40.98899841308594 C22.56800079345703,40.98899841308594 40.862998962402344,22.63800048828125 40.862998962402344,0 C40.862998962402344,-22.636999130249023 22.56800079345703,-40.98899841308594 0,-40.98899841308594 C-22.56800079345703,-40.98899841308594 -40.862998962402344,-22.636999130249023 -40.862998962402344,0 C-40.862998962402344,22.63800048828125 -22.56800079345703,40.98899841308594 0,40.98899841308594z"></path></g></g><g transform="matrix(1.0042223930358887,0,0,1.0042223930358887,151.5780029296875,258.44000244140625)" opacity="0.7402253902603982" style="display: block;"><g opacity="1" transform="matrix(1,0,0,1,0,0)"><path fill="rgb(106,196,209)" fill-opacity="1" d=" M0,40.125999450683594 C22.093000411987305,40.125999450683594 40.00299835205078,22.160999298095703 40.00299835205078,0 C40.00299835205078,-22.160999298095703 22.093000411987305,-40.125999450683594 0,-40.125999450683594 C-22.093000411987305,-40.125999450683594 -40.00299835205078,-22.160999298095703 -40.00299835205078,0 C-40.00299835205078,22.160999298095703 -22.093000411987305,40.125999450683594 0,40.125999450683594z"></path></g></g></g></svg>