<svg xmlns="http://www.w3.org/2000/svg" viewBox="0 0 812 812" width="812" height="812" preserveAspectRatio="xMidYMid slice" style="width: 100%; height: 100%; transform: translate3d(0px, 0px, 0px);"><defs><clipPath id="__lottie_element_339"><rect width="812" height="812" x="0" y="0"></rect></clipPath></defs><g clip-path="url(#__lottie_element_339)"><g transform="matrix(0.9962168335914612,0.08690237998962402,-0.08690237998962402,0.9962168335914612,669.6380004882812,229.43800354003906)" opacity="0.8005828799999511" style="display: block;"><g opacity="1" transform="matrix(1,0,0,1,0,0)"><path fill="rgb(241,89,33)" fill-opacity="1" d=" M11.892000198364258,29.430999755859375 C11.892000198364258,29.430999755859375 26.36199951171875,17.73200035095215 26.36199951171875,17.73200035095215 C26.36199951171875,17.73200035095215 -11.892000198364258,-29.430999755859375 -11.892000198364258,-29.430999755859375 C-11.892000198364258,-29.430999755859375 -26.36199951171875,-17.73200035095215 -26.36199951171875,-17.73200035095215 C-26.36199951171875,-17.73200035095215 11.892000198364258,29.430999755859375 11.892000198364258,29.430999755859375z"></path></g></g><g transform="matrix(0.995420515537262,0.09559258818626404,-0.09559258818626404,0.995420515537262,591.989990234375,229.64100646972656)" opacity="0.7805828799999511" style="display: block;"><g opacity="1" transform="matrix(1,0,0,1,0,0)"><path fill="rgb(241,89,33)" fill-opacity="1" d=" M11.37600040435791,29.632999420166016 C11.37600040435791,29.632999420166016 26.04800033569336,18.18899917602539 26.04800033569336,18.18899917602539 C26.04800033569336,18.18899917602539 -11.37600040435791,-29.632999420166016 -11.37600040435791,-29.632999420166016 C-11.37600040435791,-29.632999420166016 -26.04800033569336,-18.18899917602539 -26.04800033569336,-18.18899917602539 C-26.04800033569336,-18.18899917602539 11.37600040435791,29.632999420166016 11.37600040435791,29.632999420166016z"></path></g></g><g transform="matrix(0.9945484399795532,0.10427552461624146,-0.10427552461624146,0.9945484399795532,514.97802734375,229.83399963378906)" opacity="0.7605828799999512" style="display: block;"><g opacity="1" transform="matrix(1,0,0,1,0,0)"><path fill="rgb(241,89,33)" fill-opacity="1" d=" M10.855999946594238,29.82699966430664 C10.855999946594238,29.82699966430664 25.72599983215332,18.639999389648438 25.72599983215332,18.639999389648438 C25.72599983215332,18.639999389648438 -10.855999946594238,-29.82699966430664 -10.855999946594238,-29.82699966430664 C-10.855999946594238,-29.82699966430664 -25.72599983215332,-18.639999389648438 -25.72599983215332,-18.639999389648438 C-25.72599983215332,-18.639999389648438 10.855999946594238,29.82699966430664 10.855999946594238,29.82699966430664z"></path></g></g><g transform="matrix(0.993600606918335,0.11295051872730255,-0.11295051872730255,0.993600606918335,438.61700439453125,230.0189971923828)" opacity="0.7405828799999512" style="display: block;"><g opacity="1" transform="matrix(1,0,0,1,0,0)"><path fill="rgb(241,89,33)" fill-opacity="1" d=" M10.333000183105469,30.011999130249023 C10.333000183105469,30.011999130249023 25.395999908447266,19.084999084472656 25.395999908447266,19.084999084472656 C25.395999908447266,19.084999084472656 -10.333000183105469,-30.011999130249023 -10.333000183105469,-30.011999130249023 C-10.333000183105469,-30.011999130249023 -25.395999908447266,-19.084999084472656 -25.395999908447266,-19.084999084472656 C-25.395999908447266,-19.084999084472656 10.333000183105469,30.011999130249023 10.333000183105469,30.011999130249023z"></path></g></g><g transform="matrix(0.9925771355628967,0.1216169074177742,-0.1216169074177742,0.9925771355628967,362.92401123046875,230.19400024414062)" opacity="0.7205828799999512" style="display: block;"><g opacity="1" transform="matrix(1,0,0,1,0,0)"><path fill="rgb(241,89,33)" fill-opacity="1" d=" M9.807000160217285,30.187000274658203 C9.807000160217285,30.187000274658203 25.05900001525879,19.524999618530273 25.05900001525879,19.524999618530273 C25.05900001525879,19.524999618530273 -9.807000160217285,-30.187000274658203 -9.807000160217285,-30.187000274658203 C-9.807000160217285,-30.187000274658203 -25.05900001525879,-19.524999618530273 -25.05900001525879,-19.524999618530273 C-25.05900001525879,-19.524999618530273 9.807000160217285,30.187000274658203 9.807000160217285,30.187000274658203z"></path></g></g><g transform="matrix(0.9914780259132385,0.13027402758598328,-0.13027402758598328,0.9914780259132385,287.91400146484375,230.36099243164062)" opacity="0.7005828799999512" style="display: block;"><g opacity="1" transform="matrix(1,0,0,1,0,0)"><path fill="rgb(241,89,33)" fill-opacity="1" d=" M9.277999877929688,30.35300064086914 C9.277999877929688,30.35300064086914 24.714000701904297,19.958999633789062 24.714000701904297,19.958999633789062 C24.714000701904297,19.958999633789062 -9.277999877929688,-30.35300064086914 -9.277999877929688,-30.35300064086914 C-9.277999877929688,-30.35300064086914 -24.714000701904297,-19.958999633789062 -24.714000701904297,-19.958999633789062 C-24.714000701904297,-19.958999633789062 9.277999877929688,30.35300064086914 9.277999877929688,30.35300064086914z"></path></g></g><g transform="matrix(0.9903034567832947,0.13892124593257904,-0.13892124593257904,0.9903034567832947,213.6009979248047,230.51800537109375)" opacity="0.6805828799999512" style="display: block;"><g opacity="1" transform="matrix(1,0,0,1,0,0)"><path fill="rgb(241,89,33)" fill-opacity="1" d=" M8.746000289916992,30.510000228881836 C8.746000289916992,30.510000228881836 24.361000061035156,20.38599967956543 24.361000061035156,20.38599967956543 C24.361000061035156,20.38599967956543 -8.746000289916992,-30.510000228881836 -8.746000289916992,-30.510000228881836 C-8.746000289916992,-30.510000228881836 -24.361000061035156,-20.38599967956543 -24.361000061035156,-20.38599967956543 C-24.361000061035156,-20.38599967956543 8.746000289916992,30.510000228881836 8.746000289916992,30.510000228881836z"></path></g></g><g transform="matrix(0.9890534281730652,0.14755786955356598,-0.14755786955356598,0.9890534281730652,140.00100708007812,230.6649932861328)" opacity="0.7454371599999634" style="display: block;"><g opacity="1" transform="matrix(1,0,0,1,0,0)"><path fill="rgb(255,255,255)" fill-opacity="1" d=" M8.211000442504883,30.658000946044922 C8.211000442504883,30.658000946044922 24.000999450683594,20.808000564575195 24.000999450683594,20.808000564575195 C24.000999450683594,20.808000564575195 -8.211000442504883,-30.658000946044922 -8.211000442504883,-30.658000946044922 C-8.211000442504883,-30.658000946044922 -24.000999450683594,-20.808000564575195 -24.000999450683594,-20.808000564575195 C-24.000999450683594,-20.808000564575195 8.211000442504883,30.658000946044922 8.211000442504883,30.658000946044922z"></path></g></g><g transform="matrix(0.9969372749328613,0.07820554822683334,-0.07820554822683334,0.9969372749328613,669.6380004882812,314.86199951171875)" opacity="0.8516507299999664" style="display: block;"><g opacity="1" transform="matrix(1,0,0,1,0,0)"><path fill="rgb(241,89,33)" fill-opacity="1" d=" M7.673999786376953,30.79599952697754 C7.673999786376953,30.79599952697754 23.634000778198242,21.222000122070312 23.634000778198242,21.222000122070312 C23.634000778198242,21.222000122070312 -7.673999786376953,-30.79599952697754 -7.673999786376953,-30.79599952697754 C-7.673999786376953,-30.79599952697754 -23.634000778198242,-21.222999572753906 -23.634000778198242,-21.222999572753906 C-23.634000778198242,-21.222999572753906 7.673999786376953,30.79599952697754 7.673999786376953,30.79599952697754z"></path></g></g><g transform="matrix(0.9962168335914612,0.08690237998962402,-0.08690237998962402,0.9962168335914612,591.989990234375,315.39599609375)" opacity="0.8253642999999695" style="display: block;"><g opacity="1" transform="matrix(1,0,0,1,0,0)"><path fill="rgb(241,89,33)" fill-opacity="1" d=" M7.133999824523926,30.924999237060547 C7.133999824523926,30.924999237060547 23.259000778198242,21.631000518798828 23.259000778198242,21.631000518798828 C23.259000778198242,21.631000518798828 -7.133999824523926,-30.924999237060547 -7.133999824523926,-30.924999237060547 C-7.133999824523926,-30.924999237060547 -23.259000778198242,-21.631000518798828 -23.259000778198242,-21.631000518798828 C-23.259000778198242,-21.631000518798828 7.133999824523926,30.924999237060547 7.133999824523926,30.924999237060547z"></path></g></g><g transform="matrix(0.995420515537262,0.09559258818626404,-0.09559258818626404,0.995420515537262,514.97802734375,315.90301513671875)" opacity="0.7467235899999604" style="display: block;"><g opacity="1" transform="matrix(1,0,0,1,0,0)"><path fill="rgb(241,89,33)" fill-opacity="1" d=" M6.5929999351501465,31.045000076293945 C6.5929999351501465,31.045000076293945 22.87700080871582,22.033000946044922 22.87700080871582,22.033000946044922 C22.87700080871582,22.033000946044922 -6.5920000076293945,-31.045000076293945 -6.5920000076293945,-31.045000076293945 C-6.5920000076293945,-31.045000076293945 -22.87700080871582,-22.033000946044922 -22.87700080871582,-22.033000946044922 C-22.87700080871582,-22.033000946044922 6.5929999351501465,31.045000076293945 6.5929999351501465,31.045000076293945z"></path></g></g><g transform="matrix(0.9945484399795532,0.10427552461624146,-0.10427552461624146,0.9945484399795532,438.61700439453125,316.3819885253906)" opacity="0.7204371599999634" style="display: block;"><g opacity="1" transform="matrix(1,0,0,1,0,0)"><path fill="rgb(241,89,33)" fill-opacity="1" d=" M6.048999786376953,31.155000686645508 C6.048999786376953,31.155000686645508 22.48900032043457,22.42799949645996 22.48900032043457,22.42799949645996 C22.48900032043457,22.42799949645996 -6.048999786376953,-31.155000686645508 -6.048999786376953,-31.155000686645508 C-6.048999786376953,-31.155000686645508 -22.48900032043457,-22.42799949645996 -22.48900032043457,-22.42799949645996 C-22.48900032043457,-22.42799949645996 6.048999786376953,31.155000686645508 6.048999786376953,31.155000686645508z"></path></g></g><g transform="matrix(0.993600606918335,0.11295051872730255,-0.11295051872730255,0.993600606918335,362.92401123046875,316.8340148925781)" opacity="0.6317964499999542" style="display: block;"><g opacity="1" transform="matrix(1,0,0,1,0,0)"><path fill="rgb(241,89,33)" fill-opacity="1" d=" M5.502999782562256,31.256000518798828 C5.502999782562256,31.256000518798828 22.093000411987305,22.816999435424805 22.093000411987305,22.816999435424805 C22.093000411987305,22.816999435424805 -5.502999782562256,-31.256000518798828 -5.502999782562256,-31.256000518798828 C-5.502999782562256,-31.256000518798828 -22.093000411987305,-22.816999435424805 -22.093000411987305,-22.816999435424805 C-22.093000411987305,-22.816999435424805 5.502999782562256,31.256000518798828 5.502999782562256,31.256000518798828z"></path></g></g><g transform="matrix(0.9925771355628967,0.1216169074177742,-0.1216169074177742,0.9925771355628967,287.91400146484375,317.25799560546875)" opacity="0.6055100199999572" style="display: block;"><g opacity="1" transform="matrix(1,0,0,1,0,0)"><path fill="rgb(241,89,33)" fill-opacity="1" d=" M4.955999851226807,31.347000122070312 C4.955999851226807,31.347000122070312 21.69099998474121,23.197999954223633 21.69099998474121,23.197999954223633 C21.69099998474121,23.197999954223633 -4.955999851226807,-31.347000122070312 -4.955999851226807,-31.347000122070312 C-4.955999851226807,-31.347000122070312 -21.69099998474121,-23.197999954223633 -21.69099998474121,-23.197999954223633 C-21.69099998474121,-23.197999954223633 4.955999851226807,31.347000122070312 4.955999851226807,31.347000122070312z"></path></g></g><g transform="matrix(0.9914780259132385,0.13027402758598328,-0.13027402758598328,0.9914780259132385,213.6009979248047,317.65301513671875)" opacity="0.5817235899999603" style="display: block;"><g opacity="1" transform="matrix(1,0,0,1,0,0)"><path fill="rgb(255,255,255)" fill-opacity="1" d=" M4.4070000648498535,31.429000854492188 C4.4070000648498535,31.429000854492188 21.281999588012695,23.572999954223633 21.281999588012695,23.572999954223633 C21.281999588012695,23.572999954223633 -4.4070000648498535,-31.429000854492188 -4.4070000648498535,-31.429000854492188 C-4.4070000648498535,-31.429000854492188 -21.281999588012695,-23.572999954223633 -21.281999588012695,-23.572999954223633 C-21.281999588012695,-23.572999954223633 4.4070000648498535,31.429000854492188 4.4070000648498535,31.429000854492188z"></path></g></g><g transform="matrix(0.9903034567832947,0.13892124593257904,-0.13892124593257904,0.9903034567832947,140.00100708007812,318.02099609375)" opacity="0.5604371599999634" style="display: block;"><g opacity="1" transform="matrix(1,0,0,1,0,0)"><path fill="rgb(241,89,33)" fill-opacity="1" d=" M3.8570001125335693,31.500999450683594 C3.8570001125335693,31.500999450683594 20.867000579833984,23.940000534057617 20.867000579833984,23.940000534057617 C20.867000579833984,23.940000534057617 -3.8570001125335693,-31.500999450683594 -3.8570001125335693,-31.500999450683594 C-3.8570001125335693,-31.500999450683594 -20.867000579833984,-23.940000534057617 -20.867000579833984,-23.940000534057617 C-20.867000579833984,-23.940000534057617 3.8570001125335693,31.500999450683594 3.8570001125335693,31.500999450683594z"></path></g></g><g transform="matrix(0.9975817799568176,0.06950276345014572,-0.06950276345014572,0.9975817799568176,669.6380004882812,402.4179992675781)" opacity="0.5353278699999726" style="display: block;"><g opacity="1" transform="matrix(1,0,0,1,0,0)"><path fill="rgb(241,89,33)" fill-opacity="1" d=" M3.305999994277954,31.562999725341797 C3.305999994277954,31.562999725341797 20.44499969482422,24.299999237060547 20.44499969482422,24.299999237060547 C20.44499969482422,24.299999237060547 -3.305999994277954,-31.562999725341797 -3.305999994277954,-31.562999725341797 C-3.305999994277954,-31.562999725341797 -20.44499969482422,-24.299999237060547 -20.44499969482422,-24.299999237060547 C-20.44499969482422,-24.299999237060547 3.305999994277954,31.562999725341797 3.305999994277954,31.562999725341797z"></path></g></g><g transform="matrix(0.9969372749328613,0.07820554822683334,-0.07820554822683334,0.9969372749328613,591.989990234375,403.1340026855469)" opacity="0.5240778699999725" style="display: block;"><g opacity="1" transform="matrix(1,0,0,1,0,0)"><path fill="rgb(241,89,33)" fill-opacity="1" d=" M2.753999948501587,31.615999221801758 C2.753999948501587,31.615999221801758 20.017000198364258,24.652000427246094 20.017000198364258,24.652000427246094 C20.017000198364258,24.652000427246094 -2.753999948501587,-31.615999221801758 -2.753999948501587,-31.615999221801758 C-2.753999948501587,-31.615999221801758 -20.017000198364258,-24.652000427246094 -20.017000198364258,-24.652000427246094 C-20.017000198364258,-24.652000427246094 2.753999948501587,31.615999221801758 2.753999948501587,31.615999221801758z"></path></g></g><g transform="matrix(0.9962168335914612,0.08690237998962402,-0.08690237998962402,0.9962168335914612,514.97802734375,403.8039855957031)" opacity="0.5128278699999725" style="display: block;"><g opacity="1" transform="matrix(1,0,0,1,0,0)"><path fill="rgb(241,89,33)" fill-opacity="1" d=" M2.2009999752044678,31.659000396728516 C2.2009999752044678,31.659000396728516 19.58300018310547,24.996999740600586 19.58300018310547,24.996999740600586 C19.58300018310547,24.996999740600586 -2.2009999752044678,-31.659000396728516 -2.2009999752044678,-31.659000396728516 C-2.2009999752044678,-31.659000396728516 -19.58300018310547,-24.996999740600586 -19.58300018310547,-24.996999740600586 C-19.58300018310547,-24.996999740600586 2.2009999752044678,31.659000396728516 2.2009999752044678,31.659000396728516z"></path></g></g><g transform="matrix(0.995420515537262,0.09559258818626404,-0.09559258818626404,0.995420515537262,438.61700439453125,404.427001953125)" opacity="0.5015778699999726" style="display: block;"><g opacity="1" transform="matrix(1,0,0,1,0,0)"><path fill="rgb(241,89,33)" fill-opacity="1" d=" M1.6469999551773071,31.69300079345703 C1.6469999551773071,31.69300079345703 19.14299964904785,25.334999084472656 19.14299964904785,25.334999084472656 C19.14299964904785,25.334999084472656 -1.6469999551773071,-31.69300079345703 -1.6469999551773071,-31.69300079345703 C-1.6469999551773071,-31.69300079345703 -19.14299964904785,-25.334999084472656 -19.14299964904785,-25.334999084472656 C-19.14299964904785,-25.334999084472656 1.6469999551773071,31.69300079345703 1.6469999551773071,31.69300079345703z"></path></g></g><g transform="matrix(0.9945484399795532,0.10427552461624146,-0.10427552461624146,0.9945484399795532,362.92401123046875,405.00299072265625)" opacity="0.4903278699999726" style="display: block;"><g opacity="1" transform="matrix(1,0,0,1,0,0)"><path fill="rgb(241,89,33)" fill-opacity="1" d=" M1.093000054359436,31.715999603271484 C1.093000054359436,31.715999603271484 18.697999954223633,25.665000915527344 18.697999954223633,25.665000915527344 C18.697999954223633,25.665000915527344 -1.093000054359436,-31.715999603271484 -1.093000054359436,-31.715999603271484 C-1.093000054359436,-31.715999603271484 -18.697999954223633,-25.663999557495117 -18.697999954223633,-25.663999557495117 C-18.697999954223633,-25.663999557495117 1.093000054359436,31.715999603271484 1.093000054359436,31.715999603271484z"></path></g></g><g transform="matrix(0.993600606918335,0.11295051872730255,-0.11295051872730255,0.993600606918335,287.91400146484375,405.5320129394531)" opacity="0.4878642999999695" style="display: block;"><g opacity="1" transform="matrix(1,0,0,1,0,0)"><path fill="rgb(255,255,255)" fill-opacity="1" d=" M0.5379999876022339,31.731000900268555 C0.5379999876022339,31.731000900268555 18.246000289916992,25.986000061035156 18.246000289916992,25.986000061035156 C18.246000289916992,25.986000061035156 -0.5379999876022339,-31.731000900268555 -0.5379999876022339,-31.731000900268555 C-0.5379999876022339,-31.731000900268555 -18.246000289916992,-25.986000061035156 -18.246000289916992,-25.986000061035156 C-18.246000289916992,-25.986000061035156 0.5379999876022339,31.731000900268555 0.5379999876022339,31.731000900268555z"></path></g></g><g transform="matrix(0.9925771355628967,0.1216169074177742,-0.1216169074177742,0.9925771355628967,213.6009979248047,406.0140075683594)" opacity="0.44687158599996885" style="display: block;"><g opacity="1" transform="matrix(1,0,0,1,0,0)"><path fill="rgb(241,89,33)" fill-opacity="1" d=" M-0.017000000923871994,31.735000610351562 C-0.017000000923871994,31.735000610351562 17.788999557495117,26.299999237060547 17.788999557495117,26.299999237060547 C17.788999557495117,26.299999237060547 0.017000000923871994,-31.735000610351562 0.017000000923871994,-31.735000610351562 C0.017000000923871994,-31.735000610351562 -17.788999557495117,-26.299999237060547 -17.788999557495117,-26.299999237060547 C-17.788999557495117,-26.299999237060547 -0.017000000923871994,31.735000610351562 -0.017000000923871994,31.735000610351562z"></path></g></g><g transform="matrix(0.9914780259132385,0.13027402758598328,-0.13027402758598328,0.9914780259132385,140.00100708007812,406.447998046875)" opacity="0.43412158599996886" style="display: block;"><g opacity="1" transform="matrix(1,0,0,1,0,0)"><path fill="rgb(241,89,33)" fill-opacity="1" d=" M-0.5709999799728394,31.729999542236328 C-0.5709999799728394,31.729999542236328 17.32699966430664,26.606000900268555 17.32699966430664,26.606000900268555 C17.32699966430664,26.606000900268555 0.5709999799728394,-31.729999542236328 0.5709999799728394,-31.729999542236328 C0.5709999799728394,-31.729999542236328 -17.32699966430664,-26.606000900268555 -17.32699966430664,-26.606000900268555 C-17.32699966430664,-26.606000900268555 -0.5709999799728394,31.729999542236328 -0.5709999799728394,31.729999542236328z"></path></g></g><g transform="matrix(0.9981502890586853,0.060794681310653687,-0.060794681310653687,0.9981502890586853,669.6380004882812,490.8919982910156)" opacity="0.3477185799999817" style="display: block;"><g opacity="1" transform="matrix(1,0,0,1,0,0)"><path fill="rgb(241,89,33)" fill-opacity="1" d=" M-1.1260000467300415,31.71500015258789 C-1.1260000467300415,31.71500015258789 16.858999252319336,26.90399932861328 16.858999252319336,26.90399932861328 C16.858999252319336,26.90399932861328 1.1260000467300415,-31.71500015258789 1.1260000467300415,-31.71500015258789 C1.1260000467300415,-31.71500015258789 -16.858999252319336,-26.90399932861328 -16.858999252319336,-26.90399932861328 C-16.858999252319336,-26.90399932861328 -1.1260000467300415,31.71500015258789 -1.1260000467300415,31.71500015258789z"></path></g></g><g transform="matrix(0.9975817799568176,0.06950276345014572,-0.06950276345014572,0.9975817799568176,591.989990234375,491.6369934082031)" opacity="0.3442040079999829" style="display: block;"><g opacity="1" transform="matrix(1,0,0,1,0,0)"><path fill="rgb(241,89,33)" fill-opacity="1" d=" M-1.6799999475479126,31.69099998474121 C-1.6799999475479126,31.69099998474121 16.38599967956543,27.194000244140625 16.38599967956543,27.194000244140625 C16.38599967956543,27.194000244140625 1.6799999475479126,-31.69099998474121 1.6799999475479126,-31.69099998474121 C1.6799999475479126,-31.69099998474121 -16.38599967956543,-27.194000244140625 -16.38599967956543,-27.194000244140625 C-16.38599967956543,-27.194000244140625 -1.6799999475479126,31.69099998474121 -1.6799999475479126,31.69099998474121z"></path></g></g><g transform="matrix(0.9969372749328613,0.07820554822683334,-0.07820554822683334,0.9969372749328613,514.97802734375,492.3160095214844)" opacity="0.33271857999998167" style="display: block;"><g opacity="1" transform="matrix(1,0,0,1,0,0)"><path fill="rgb(241,89,33)" fill-opacity="1" d=" M-2.2339999675750732,31.656999588012695 C-2.2339999675750732,31.656999588012695 15.907999992370605,27.475000381469727 15.907999992370605,27.475000381469727 C15.907999992370605,27.475000381469727 2.2339999675750732,-31.656999588012695 2.2339999675750732,-31.656999588012695 C2.2339999675750732,-31.656999588012695 -15.907999992370605,-27.475000381469727 -15.907999992370605,-27.475000381469727 C-15.907999992370605,-27.475000381469727 -2.2339999675750732,31.656999588012695 -2.2339999675750732,31.656999588012695z"></path></g></g><g transform="matrix(0.9962168335914612,0.08690237998962402,-0.08690237998962402,0.9962168335914612,438.61700439453125,492.9289855957031)" opacity="0.3202331519999805" style="display: block;"><g opacity="1" transform="matrix(1,0,0,1,0,0)"><path fill="rgb(241,89,33)" fill-opacity="1" d=" M-2.7869999408721924,31.613000869750977 C-2.7869999408721924,31.613000869750977 15.425000190734863,27.74799919128418 15.425000190734863,27.74799919128418 C15.425000190734863,27.74799919128418 2.7869999408721924,-31.613000869750977 2.7869999408721924,-31.613000869750977 C2.7869999408721924,-31.613000869750977 -15.425000190734863,-27.74799919128418 -15.425000190734863,-27.74799919128418 C-15.425000190734863,-27.74799919128418 -2.7869999408721924,31.613000869750977 -2.7869999408721924,31.613000869750977z"></path></g></g><g transform="matrix(0.995420515537262,0.09559258818626404,-0.09559258818626404,0.995420515537262,362.92401123046875,493.4750061035156)" opacity="0.3515778699999726" style="display: block;"><g opacity="1" transform="matrix(1,0,0,1,0,0)"><path fill="rgb(255,255,255)" fill-opacity="1" d=" M-3.3389999866485596,31.559999465942383 C-3.3389999866485596,31.559999465942383 14.937999725341797,28.01300048828125 14.937999725341797,28.01300048828125 C14.937999725341797,28.01300048828125 3.3389999866485596,-31.559999465942383 3.3389999866485596,-31.559999465942383 C3.3389999866485596,-31.559999465942383 -14.937999725341797,-28.01300048828125 -14.937999725341797,-28.01300048828125 C-14.937999725341797,-28.01300048828125 -3.3389999866485596,31.559999465942383 -3.3389999866485596,31.559999465942383z"></path></g></g><g transform="matrix(0.9945484399795532,0.10427552461624146,-0.10427552461624146,0.9945484399795532,287.91400146484375,493.95599365234375)" opacity="0.2802914399999756" style="display: block;"><g opacity="1" transform="matrix(1,0,0,1,0,0)"><path fill="rgb(241,89,33)" fill-opacity="1" d=" M-3.890000104904175,31.496999740600586 C-3.890000104904175,31.496999740600586 14.446000099182129,28.268999099731445 14.446000099182129,28.268999099731445 C14.446000099182129,28.268999099731445 3.890000104904175,-31.496999740600586 3.890000104904175,-31.496999740600586 C3.890000104904175,-31.496999740600586 -14.446000099182129,-28.268999099731445 -14.446000099182129,-28.268999099731445 C-14.446000099182129,-28.268999099731445 -3.890000104904175,31.496999740600586 -3.890000104904175,31.496999740600586z"></path></g></g><g transform="matrix(0.993600606918335,0.11295051872730255,-0.11295051872730255,0.993600606918335,213.6009979248047,494.3689880371094)" opacity="0.27029143999997557" style="display: block;"><g opacity="1" transform="matrix(1,0,0,1,0,0)"><path fill="rgb(241,89,33)" fill-opacity="1" d=" M-4.440000057220459,31.423999786376953 C-4.440000057220459,31.423999786376953 13.949999809265137,28.516000747680664 13.949999809265137,28.516000747680664 C13.949999809265137,28.516000747680664 4.440000057220459,-31.423999786376953 4.440000057220459,-31.423999786376953 C4.440000057220459,-31.423999786376953 -13.949999809265137,-28.516000747680664 -13.949999809265137,-28.516000747680664 C-13.949999809265137,-28.516000747680664 -4.440000057220459,31.423999786376953 -4.440000057220459,31.423999786376953z"></path></g></g><g transform="matrix(0.9925771355628967,0.1216169074177742,-0.1216169074177742,0.9925771355628967,140.00100708007812,494.71600341796875)" opacity="0.26029143999997556" style="display: block;"><g opacity="1" transform="matrix(1,0,0,1,0,0)"><path fill="rgb(241,89,33)" fill-opacity="1" d=" M-4.988999843597412,31.341999053955078 C-4.988999843597412,31.341999053955078 13.449000358581543,28.7549991607666 13.449000358581543,28.7549991607666 C13.449000358581543,28.7549991607666 4.988999843597412,-31.341999053955078 4.988999843597412,-31.341999053955078 C4.988999843597412,-31.341999053955078 -13.449000358581543,-28.7549991607666 -13.449000358581543,-28.7549991607666 C-13.449000358581543,-28.7549991607666 -4.988999843597412,31.341999053955078 -4.988999843597412,31.341999053955078z"></path></g></g><g transform="matrix(0.9986428022384644,0.05208197236061096,-0.05208197236061096,0.9986428022384644,669.6380004882812,579.0540161132812)" opacity="0.17275500999997864" style="display: block;"><g opacity="1" transform="matrix(1,0,0,1,0,0)"><path fill="rgb(241,89,33)" fill-opacity="1" d=" M-5.535999774932861,31.25 C-5.535999774932861,31.25 12.944000244140625,28.985000610351562 12.944000244140625,28.985000610351562 C12.944000244140625,28.985000610351562 5.535999774932861,-31.25 5.535999774932861,-31.25 C5.535999774932861,-31.25 -12.944000244140625,-28.985000610351562 -12.944000244140625,-28.985000610351562 C-12.944000244140625,-28.985000610351562 -5.535999774932861,31.25 -5.535999774932861,31.25z"></path></g></g><g transform="matrix(0.9981502890586853,0.060794681310653687,-0.060794681310653687,0.9981502890586853,591.989990234375,579.6729736328125)" opacity="0.16400500999997863" style="display: block;"><g opacity="1" transform="matrix(1,0,0,1,0,0)"><path fill="rgb(241,89,33)" fill-opacity="1" d=" M-6.081999778747559,31.14900016784668 C-6.081999778747559,31.14900016784668 12.435999870300293,29.20599937438965 12.435999870300293,29.20599937438965 C12.435999870300293,29.20599937438965 6.081999778747559,-31.14900016784668 6.081999778747559,-31.14900016784668 C6.081999778747559,-31.14900016784668 -12.435999870300293,-29.20599937438965 -12.435999870300293,-29.20599937438965 C-12.435999870300293,-29.20599937438965 -6.081999778747559,31.14900016784668 -6.081999778747559,31.14900016784668z"></path></g></g><g transform="matrix(0.9975817799568176,0.06950276345014572,-0.06950276345014572,0.9975817799568176,514.97802734375,580.2069702148438)" opacity="0.15525500999997863" style="display: block;"><g opacity="1" transform="matrix(1,0,0,1,0,0)"><path fill="rgb(241,89,33)" fill-opacity="1" d=" M-6.625,31.038000106811523 C-6.625,31.038000106811523 11.92300033569336,29.417999267578125 11.92300033569336,29.417999267578125 C11.92300033569336,29.417999267578125 6.625,-31.038000106811523 6.625,-31.038000106811523 C6.625,-31.038000106811523 -11.92300033569336,-29.417999267578125 -11.92300033569336,-29.417999267578125 C-11.92300033569336,-29.417999267578125 -6.625,31.038000106811523 -6.625,31.038000106811523z"></path></g></g><g transform="matrix(0.9969372749328613,0.07820554822683334,-0.07820554822683334,0.9969372749328613,438.61700439453125,580.656005859375)" opacity="0.18786429999996948" style="display: block;"><g opacity="1" transform="matrix(1,0,0,1,0,0)"><path fill="rgb(255,255,255)" fill-opacity="1" d=" M-7.166999816894531,30.917999267578125 C-7.166999816894531,30.917999267578125 11.406999588012695,29.621000289916992 11.406999588012695,29.621000289916992 C11.406999588012695,29.621000289916992 7.166999816894531,-30.917999267578125 7.166999816894531,-30.917999267578125 C7.166999816894531,-30.917999267578125 -11.406999588012695,-29.621000289916992 -11.406999588012695,-29.621000289916992 C-11.406999588012695,-29.621000289916992 -7.166999816894531,30.917999267578125 -7.166999816894531,30.917999267578125z"></path></g></g><g transform="matrix(0.9962168335914612,0.08690237998962402,-0.08690237998962402,0.9962168335914612,362.92401123046875,581.02001953125)" opacity="0.11282786999997253" style="display: block;"><g opacity="1" transform="matrix(1,0,0,1,0,0)"><path fill="rgb(241,89,33)" fill-opacity="1" d=" M-7.705999851226807,30.788000106811523 C-7.705999851226807,30.788000106811523 10.887999534606934,29.81599998474121 10.887999534606934,29.81599998474121 C10.887999534606934,29.81599998474121 7.705999851226807,-30.788000106811523 7.705999851226807,-30.788000106811523 C7.705999851226807,-30.788000106811523 -10.887999534606934,-29.81599998474121 -10.887999534606934,-29.81599998474121 C-10.887999534606934,-29.81599998474121 -7.705999851226807,30.788000106811523 -7.705999851226807,30.788000106811523z"></path></g></g><g transform="matrix(0.995420515537262,0.09559258818626404,-0.09559258818626404,0.995420515537262,287.91400146484375,581.2979736328125)" opacity="0.10157786999997254" style="display: block;"><g opacity="1" transform="matrix(1,0,0,1,0,0)"><path fill="rgb(241,89,33)" fill-opacity="1" d=" M-8.243000030517578,30.64900016784668 C-8.243000030517578,30.64900016784668 10.364999771118164,30.000999450683594 10.364999771118164,30.000999450683594 C10.364999771118164,30.000999450683594 8.243000030517578,-30.64900016784668 8.243000030517578,-30.64900016784668 C8.243000030517578,-30.64900016784668 -10.364999771118164,-30.000999450683594 -10.364999771118164,-30.000999450683594 C-10.364999771118164,-30.000999450683594 -8.243000030517578,30.64900016784668 -8.243000030517578,30.64900016784668z"></path></g></g><g transform="matrix(0.9945484399795532,0.10427552461624146,-0.10427552461624146,0.9945484399795532,213.6009979248047,581.4910278320312)" opacity="0.09032786999997254" style="display: block;"><g opacity="1" transform="matrix(1,0,0,1,0,0)"><path fill="rgb(241,89,33)" fill-opacity="1" d=" M-8.777999877929688,30.50200080871582 C-8.777999877929688,30.50200080871582 9.83899974822998,30.177000045776367 9.83899974822998,30.177000045776367 C9.83899974822998,30.177000045776367 8.777999877929688,-30.50200080871582 8.777999877929688,-30.50200080871582 C8.777999877929688,-30.50200080871582 -9.83899974822998,-30.177000045776367 -9.83899974822998,-30.177000045776367 C-9.83899974822998,-30.177000045776367 -8.777999877929688,30.50200080871582 -8.777999877929688,30.50200080871582z"></path></g></g><g transform="matrix(0.993600606918335,0.11295051872730255,-0.11295051872730255,0.993600606918335,140.00100708007812,581.5980224609375)" opacity="0.07907786999997253" style="display: block;"><g opacity="1" transform="matrix(1,0,0,1,0,0)"><path fill="rgb(241,89,33)" fill-opacity="1" d=" M-9.3100004196167,30.3439998626709 C-9.3100004196167,30.3439998626709 9.3100004196167,30.3439998626709 9.3100004196167,30.3439998626709 C9.3100004196167,30.3439998626709 9.3100004196167,-30.3439998626709 9.3100004196167,-30.3439998626709 C9.3100004196167,-30.3439998626709 -9.3100004196167,-30.3439998626709 -9.3100004196167,-30.3439998626709 C-9.3100004196167,-30.3439998626709 -9.3100004196167,30.3439998626709 -9.3100004196167,30.3439998626709z"></path></g></g></g></svg>