<?xml version="1.0" encoding="utf-8"?>
<!-- Generator: Adobe Illustrator 16.0.0, SVG Export Plug-In . SVG Version: 6.00 Build 0)  -->
<!DOCTYPE svg PUBLIC "-//W3C//DTD SVG 1.1//EN" "http://www.w3.org/Graphics/SVG/1.1/DTD/svg11.dtd">
<svg version="1.1" id="Layer_1" xmlns="http://www.w3.org/2000/svg" xmlns:xlink="http://www.w3.org/1999/xlink" x="0px" y="0px"
	 width="100px" height="100px" viewBox="0 0 100 100" enable-background="new 0 0 100 100" xml:space="preserve">
<g>
	<g>
		<rect x="37.611" y="13.513" fill="#336699" width="3.102" height="3.102"/>
	</g>
</g>
<g>
	<g>
		<rect x="25.241" y="13.513" fill="#336699" width="3.102" height="3.102"/>
	</g>
</g>
<g>
	<g>
		<rect x="12.853" y="13.513" fill="#336699" width="3.102" height="3.102"/>
	</g>
</g>
<g>
	<g>
		<path fill="#336699" d="M89.469,4.226H10.531c-3.845,0-6.965,3.12-6.965,6.965V22.8h92.869V11.191
			C96.435,7.346,93.314,4.226,89.469,4.226z M19.02,18.156c0,0.853-0.689,1.542-1.542,1.542h-6.167
			c-0.853,0-1.542-0.689-1.542-1.542v-6.185H9.751c0-0.853,0.689-1.542,1.542-1.542h6.185c0.853,0,1.542,0.689,1.542,1.542V18.156z
			 M31.408,18.156c0,0.853-0.689,1.542-1.542,1.542h-6.186c-0.853,0-1.542-0.689-1.542-1.542v-6.185
			c0-0.853,0.689-1.542,1.542-1.542h6.186c0.852,0,1.542,0.689,1.542,1.542V18.156z M43.797,18.156c0,0.853-0.689,1.542-1.542,1.542
			H36.07c-0.853,0-1.542-0.689-1.542-1.542v-6.185c0-0.853,0.689-1.542,1.542-1.542h6.185c0.853,0,1.542,0.689,1.542,1.542V18.156z"
			/>
	</g>
</g>
<g>
	<g>
		<path fill="#336699" d="M59.287,64.591v21.675h29.402V64.591H59.287z M85.134,76.525c-0.309,0.309-0.689,0.453-1.088,0.453
			c-0.399,0-0.799-0.145-1.089-0.453l-3.555-3.555l-4.009,4.008l1.995,1.995c0.599,0.599,0.599,1.578,0,2.195
			c-0.309,0.309-0.689,0.453-1.088,0.453c-0.399,0-0.798-0.145-1.089-0.453l-5.876-5.877l-5.877,5.877
			c-0.309,0.309-0.689,0.453-1.089,0.453c-0.398,0-0.798-0.145-1.088-0.453c-0.599-0.617-0.599-1.597,0-2.195l6.185-6.185
			c0.508-0.508,1.252-0.907,1.941-0.907s1.288,0.399,1.796,0.907l1.995,1.995l5.097-5.097c0.599-0.599,1.578-0.599,2.194,0
			l4.644,4.644C85.732,74.93,85.732,75.909,85.134,76.525z"/>
	</g>
</g>
<g>
	<g>
		<path fill="#336699" d="M3.566,25.901v64.228c0,3.846,3.12,6.966,6.965,6.966h37.927V25.901H3.566z M27.563,28.985
			c3.845,0,6.965,3.12,6.965,6.965c0,3.845-3.12,6.965-6.965,6.965s-6.965-3.12-6.965-6.965
			C20.598,32.104,23.718,28.985,27.563,28.985z M34.528,90.909H22.14c-2.558,0-4.644-2.086-4.644-4.644s2.086-4.644,4.644-4.644
			h12.388c2.558,0,4.644,2.086,4.644,4.644S37.085,90.909,34.528,90.909z M37.611,67.692c0.853,0,1.542,0.688,1.542,1.541
			c0.018,0.853-0.689,1.542-1.542,1.542H19.038c-0.853,0-1.542-0.689-1.542-1.542s0.689-1.541,1.542-1.541H37.611z M20.598,63.049
			c0-0.853,0.689-1.542,1.542-1.542h12.388c0.853,0,1.542,0.689,1.542,1.542s-0.689,1.542-1.542,1.542H22.14
			C21.287,64.591,20.598,63.901,20.598,63.049z M36.07,75.419c0,0.853-0.689,1.542-1.542,1.542H22.14
			c-0.853,0.018-1.542-0.671-1.542-1.542c0-0.853,0.689-1.542,1.542-1.542h12.388C35.38,73.877,36.07,74.566,36.07,75.419z
			 M40.731,56.863c-0.018,0.853-0.708,1.542-1.56,1.542H15.955c-0.853,0-1.542-0.689-1.542-1.542v-5.242
			c0-3.083,2.521-5.604,5.605-5.604h15.109c3.083,0,5.605,2.521,5.605,5.604V56.863z"/>
	</g>
</g>
<g>
	<g>
		<path fill="#336699" d="M35.108,49.118H19.999c-1.378,0-2.503,1.125-2.503,2.503v3.683h20.115v-3.683
			C37.611,50.243,36.487,49.118,35.108,49.118z"/>
	</g>
</g>
<g>
	<g>
		<circle fill="#336699" cx="27.563" cy="35.95" r="3.864"/>
	</g>
</g>
<g>
	<g>
		<path fill="#336699" d="M34.528,84.706H22.14c-0.853,0-1.542,0.689-1.542,1.541c0,0.853,0.689,1.542,1.542,1.542h12.388
			c0.853,0,1.542-0.689,1.542-1.542C36.07,85.413,35.38,84.706,34.528,84.706z"/>
	</g>
</g>
<g>
	<g>
		<polygon fill="#336699" points="71.676,40.938 71.676,47.994 77.843,44.475 		"/>
	</g>
</g>
<g>
	<g>
		<path fill="#336699" d="M51.542,25.901v71.193h37.927c3.846,0,6.966-3.12,6.966-6.966V25.901H51.542z M91.791,87.808
			c0,0.853-0.689,1.542-1.542,1.542H57.745c-0.853,0-1.542-0.689-1.542-1.542V63.049c0-0.853,0.689-1.542,1.542-1.542h32.504
			c0.853,0,1.542,0.689,1.542,1.542V87.808z M91.791,56.846c0,0.853-0.689,1.541-1.542,1.541H57.745
			c-0.853,0-1.542-0.688-1.542-1.541V32.086c0-0.853,0.689-1.542,1.542-1.542h32.504c0.853,0,1.542,0.689,1.542,1.542V56.846z"/>
	</g>
</g>
<g>
	<g>
		<path fill="#336699" d="M59.287,33.628v21.675h29.402V33.628H59.287z M81.706,45.799l-10.829,6.185
			c-0.235,0.145-0.508,0.199-0.762,0.199c-0.271,0-0.544-0.072-0.779-0.218c-0.472-0.271-0.763-0.779-0.763-1.342V38.271
			c0-0.544,0.291-1.07,0.763-1.342c0.471-0.272,1.069-0.272,1.541,0l10.829,6.185c0.489,0.272,0.779,0.798,0.779,1.342
			C82.485,45.001,82.195,45.527,81.706,45.799z"/>
	</g>
</g>
</svg>
