<?xml version="1.0" encoding="utf-8"?>
<!-- Generator: Adobe Illustrator 16.0.0, SVG Export Plug-In . SVG Version: 6.00 Build 0)  -->
<!DOCTYPE svg PUBLIC "-//W3C//DTD SVG 1.1//EN" "http://www.w3.org/Graphics/SVG/1.1/DTD/svg11.dtd">
<svg version="1.1" id="Layer_1" xmlns="http://www.w3.org/2000/svg" xmlns:xlink="http://www.w3.org/1999/xlink" x="0px" y="0px"
	 width="100px" height="100px" viewBox="0 0 100 100" enable-background="new 0 0 100 100" xml:space="preserve">
<g>
	<circle fill="#336699" cx="50.667" cy="23.758" r="10.226"/>
	<path fill="#336699" d="M34.2,32.039l-2.65,4.417l6.419,6.418l4.417-2.65l2.494,1.029l1.25,5.002h9.077l1.25-5.002l2.494-1.029
		l4.416,2.65l6.42-6.418l-2.65-4.417l0.949-2.335l1.093-0.414l3.985-0.994V19.22l-5.014-1.251l-1.014-2.495l2.65-4.414l-6.42-6.417
		l-4.416,2.65l-2.494-1.029l-1.25-5.002h-9.077l-1.25,5.002l-2.494,1.029l-4.417-2.65l-6.419,6.417l2.65,4.414l-0.95,2.336
		l-1.094,0.415L28.17,19.22v9.076l5.015,1.252L34.2,32.039z M50.667,9.442c7.891,0,14.316,6.421,14.316,14.315
		c0,7.895-6.426,14.316-14.316,14.316c-7.892,0-14.316-6.422-14.316-14.316C36.351,15.864,42.775,9.442,50.667,9.442z"/>
	<path fill="#336699" d="M47.61,66.495h6.113v12.229H47.61V66.495z"/>
	<path fill="#336699" d="M44.553,66.495H30.796c-0.844,0-1.528,0.685-1.528,1.529v4.585h15.284V66.495z"/>
	<path fill="#336699" d="M56.781,81.78H44.553v-6.114H29.269v19.87c0,0.844,0.684,1.529,1.528,1.529h39.742
		c0.844,0,1.528-0.686,1.528-1.529v-19.87H56.781V81.78z M56.781,94.009h-3.058v-3.058h3.058V94.009z M65.952,90.951h3.057v3.058
		h-3.057V90.951z M59.839,90.951h3.057v3.058h-3.057V90.951z"/>
	<path fill="#336699" d="M70.538,66.495H56.781v6.114h15.285v-4.585C72.066,67.18,71.382,66.495,70.538,66.495z"/>
	<path fill="#336699" d="M81.237,55.795L79.708,71.08l15.286-1.528l-5.327-5.326c2.427-5.371,3.797-11.324,3.797-17.602
		c0-11.818-4.482-22.824-10.654-27.557l-4.631,4.63c5.066,3.627,9.173,12.798,9.173,22.927c0,4.552-0.847,8.903-2.361,12.924
		L81.237,55.795z"/>
	<path fill="#336699" d="M13.983,46.624c0-4.551,0.846-8.901,2.362-12.923l3.751,3.752l1.529-15.285L6.34,23.697l5.327,5.327
		c-2.427,5.37-3.799,11.323-3.799,17.6c0,11.819,4.484,22.826,10.655,27.559l4.63-4.631C18.089,65.925,13.983,56.754,13.983,46.624z
		"/>
</g>
</svg>
