<?xml version="1.0" encoding="utf-8"?>
<!-- Generator: Adobe Illustrator 16.0.0, SVG Export Plug-In . SVG Version: 6.00 Build 0)  -->
<!DOCTYPE svg PUBLIC "-//W3C//DTD SVG 1.1//EN" "http://www.w3.org/Graphics/SVG/1.1/DTD/svg11.dtd">
<svg version="1.1" id="Layer_1" xmlns="http://www.w3.org/2000/svg" xmlns:xlink="http://www.w3.org/1999/xlink" x="0px" y="0px"
	 width="100px" height="100px" viewBox="0 0 100 100" enable-background="new 0 0 100 100" xml:space="preserve">
<g>
	<path fill="#336699" d="M34.207,70.699l-0.819,3.818l2.819,2.819l3.819-0.819l5.858,2.427l2.121,3.28h3.987l2.121-3.28l5.858-2.427
		l3.819,0.819l2.819-2.819l-0.819-3.818l2.427-5.859l3.279-2.121v-3.986l-3.279-2.121l-2.427-5.859l0.819-3.819l-2.819-2.819
		l-3.819,0.819l-5.858-2.427l-2.121-3.28h-3.987l-2.121,3.28l-5.858,2.427l-3.819-0.819l-2.819,2.819l0.819,3.819l-2.427,5.859
		l-3.279,2.121v3.986l3.279,2.121L34.207,70.699z M49.999,49.105c6.407,0,11.62,5.213,11.62,11.62s-5.213,11.62-11.62,11.62
		c-6.406,0-11.619-5.213-11.619-11.62S43.593,49.105,49.999,49.105z"/>
	<circle fill="#336699" cx="49.999" cy="60.726" r="6.257"/>
	<path fill="#336699" d="M4.414,85.166c0,5.754,4.665,10.418,10.42,10.418h70.331c5.755,0,10.42-4.664,10.42-10.418v-59.3H4.414
		V85.166z M23.138,55.813l4.327-2.799l1.148-2.771l-1.081-5.04l6.946-6.946l5.039,1.081l2.771-1.147l2.798-4.328h9.823l2.8,4.328
		l2.771,1.147l5.039-1.081l6.946,6.946l-1.081,5.04l1.147,2.771l4.328,2.799v9.823l-4.328,2.799l-1.147,2.771l1.081,5.039
		l-6.946,6.946l-5.039-1.081L57.71,83.26l-2.8,4.327h-9.823l-2.798-4.327l-2.771-1.148l-5.039,1.081l-6.946-6.946l1.081-5.039
		l-1.148-2.771l-4.327-2.799V55.813z"/>
	<path fill="#336699" d="M74.133,4.414H41.955V15.14h-5.363V4.414h-5.362V15.14h-5.363V4.414h-5.363V15.14H15.14V4.414H4.414v16.089
		h69.719V4.414z"/>
	<path fill="#336699" d="M79.496,4.414h16.089v16.089H79.496V4.414z"/>
</g>
</svg>
