<svg id="Out_line" height="512" viewBox="0 0 512 512" width="512" xmlns="http://www.w3.org/2000/svg" data-name="Out line"><path d="m128 216h16v16h-16z"/><circle cx="312" cy="56" r="8"/><circle cx="344" cy="56" r="8"/><path d="m224 48h64v16h-64z"/><path d="m224 448h64v16h-64z"/><path d="m144 376h-16v96a24.0275 24.0275 0 0 0 24 24h208a24.0275 24.0275 0 0 0 24-24v-216h-16v152a8.00917 8.00917 0 0 1 -8 8h-208a8.00917 8.00917 0 0 1 -8-8zm8 56h208a23.88129 23.88129 0 0 0 8-1.37622v41.37622a8.00917 8.00917 0 0 1 -8 8h-208a8.00917 8.00917 0 0 1 -8-8v-41.37622a23.88238 23.88238 0 0 0 8 1.37622z"/><path d="m384 144v-104a24.0275 24.0275 0 0 0 -24-24h-208a24.0275 24.0275 0 0 0 -24 24v64h16a8.00917 8.00917 0 0 1 8-8h208a8.00917 8.00917 0 0 1 8 8v40zm-24-64h-208a23.89077 23.89077 0 0 0 -8 1.37109v-41.37109a8.00917 8.00917 0 0 1 8-8h208a8.00917 8.00917 0 0 1 8 8v41.37109a23.89077 23.89077 0 0 0 -8-1.37109z"/><path d="m24 200h184a8.00066 8.00066 0 0 0 5.65723-13.65723l-21.65723-21.65625v-36.68652a8.00039 8.00039 0 0 0 -8-8h-160a8.00039 8.00039 0 0 0 -8 8v64a8.00039 8.00039 0 0 0 8 8zm8-64h144v32a8.00235 8.00235 0 0 0 2.34277 5.65723l10.34375 10.34277h-156.68652z"/><path d="m48 152h16v16h-16z"/><path d="m80 152h32v16h-32z"/><path d="m128 152h32v16h-32z"/><path d="m488 160h-160a8.00039 8.00039 0 0 0 -8 8v36.68652l-21.65723 21.65625a8.00066 8.00066 0 0 0 5.65723 13.65723h184a8.00039 8.00039 0 0 0 8-8v-64a8.00039 8.00039 0 0 0 -8-8zm-8 64h-156.68652l10.34375-10.34277a8.00235 8.00235 0 0 0 2.34277-5.65723v-32h144z"/><path d="m448 192h16v16h-16z"/><path d="m400 192h32v16h-32z"/><path d="m352 192h32v16h-32z"/><path d="m24 360h152a8.00066 8.00066 0 0 0 5.65723-13.65723l-21.65723-21.65625v-68.68652a8.00039 8.00039 0 0 0 -8-8h-128a8.00039 8.00039 0 0 0 -8 8v96a8.00039 8.00039 0 0 0 8 8zm8-96h112v64a8.00235 8.00235 0 0 0 2.34277 5.65723l10.34375 10.34277h-124.68652z"/><path d="m64 280h32v16h-32z"/><path d="m112 280h16v16h-16z"/><path d="m48 312h32v16h-32z"/><path d="m96 312h32v16h-32z"/><path d="m296 256a23.90134 23.90134 0 0 0 -16 6.13086 23.98433 23.98433 0 0 0 -40 17.86914v8h-24a8.00039 8.00039 0 0 0 -8 8v96a8.00039 8.00039 0 0 0 8 8h128a8.00039 8.00039 0 0 0 8-8v-96a8.00039 8.00039 0 0 0 -8-8h-24v-8a24.0275 24.0275 0 0 0 -24-24zm0 16a8.00917 8.00917 0 0 1 8 8v8h-16v-8a8.00917 8.00917 0 0 1 8-8zm-40 8a8 8 0 0 1 16 0v8h-16zm-32 24h16v16h16v-16h16v16h16v-16h16v80h-80zm112 80h-16v-80h16z"/></svg>