<?xml version="1.0" encoding="utf-8"?>
<!-- Generator: Adobe Illustrator 16.0.0, SVG Export Plug-In . SVG Version: 6.00 Build 0)  -->
<!DOCTYPE svg PUBLIC "-//W3C//DTD SVG 1.1//EN" "http://www.w3.org/Graphics/SVG/1.1/DTD/svg11.dtd">
<svg version="1.1" id="Capa_1" xmlns="http://www.w3.org/2000/svg" xmlns:xlink="http://www.w3.org/1999/xlink" x="0px" y="0px"
	 width="100px" height="100px" viewBox="0 0 100 100" enable-background="new 0 0 100 100" xml:space="preserve">
<g>
	<path fill-rule="evenodd" clip-rule="evenodd" fill="#336699" d="M70.766,46.891c0-4.599,0-9.136,0-13.853
		c3.906,0,7.717,0,11.726,0c0,12.884,0,25.817,0,38.907c-21.615,0-43.206,0-64.987,0c0-12.918,0-25.854,0-38.939
		c3.859,0,7.676,0,11.672,0c0,4.627,0,9.22,0,13.889c-0.749,0.118-1.458,0.168-2.131,0.348c-2.054,0.548-3.334,2.409-3.162,4.51
		c0.166,2.008,1.633,3.603,3.646,3.903c0.561,0.084,1.139,0.091,1.709,0.091c13.917,0.006,27.834,0.009,41.751-0.005
		c0.776-0.002,1.614-0.006,2.316-0.281c1.836-0.717,2.855-2.144,2.804-4.139c-0.053-2.081-1.134-3.493-3.159-4.077
		C72.281,47.053,71.566,47.017,70.766,46.891z"/>
	<path fill-rule="evenodd" clip-rule="evenodd" fill="#336699" d="M56.757,22.597c-3.219,1.04-4.129,3.298-2.952,5.664
		c1.051,2.116,3.458,2.971,5.639,2.005c2.227-0.985,2.814-3.484,2.107-5.984c-0.673-2.374-0.652-4.944-0.972-7.737
		c2.506,0,4.485-0.001,6.464,0c1.637,0.001,1.496,1.189,1.496,2.264c0.008,6.35,0.004,12.699,0.004,19.049c0,5.124,0,10.25,0,15.557
		c-12.354,0-24.513,0-36.953,0c-0.048-0.697-0.144-1.443-0.145-2.19c-0.008-10.773,0.037-21.546-0.038-32.319
		c-0.014-1.937,0.69-2.493,2.51-2.397c2.339,0.121,4.689,0.03,7.418,0.03c0-1.249-0.035-2.355,0.005-3.458
		c0.183-4.945,3.786-8.493,8.617-8.511c4.854-0.019,8.52,3.491,8.685,8.423c0.096,2.851-0.058,5.711,0.078,8.559
		c0.061,1.281,0.707,2.53,0.8,3.814c0.063,0.872-0.107,2.057-0.664,2.584c-0.456,0.43-1.952,0.435-2.414,0.009
		c-0.566-0.523-0.771-1.712-0.699-2.576C55.825,24.433,56.397,23.524,56.757,22.597z M45.229,16.502c4.188,0,7.645,0,11.296,0
		c0-1.223,0.029-2.21-0.005-3.196c-0.132-3.778-2.862-6.559-6.449-6.591c-3.701-0.032-6.503,2.754-6.583,6.658
		c-0.062,3.062-0.054,6.127,0.029,9.189c0.024,0.866,0.589,1.717,0.612,2.583c0.025,0.952,0.009,2.201-0.55,2.777
		c-0.427,0.44-2.124,0.386-2.539-0.083c-0.528-0.596-0.484-1.846-0.404-2.789c0.074-0.868,0.524-1.704,0.916-2.872
		c-3.002,1.167-4.07,3.234-3.263,5.515c0.825,2.332,3.171,3.475,5.507,2.685c2.259-0.765,3.23-3.175,2.673-5.571
		C45.872,22.239,45.669,19.581,45.229,16.502z"/>
	<path fill-rule="evenodd" clip-rule="evenodd" fill="#336699" d="M10.665,78.535c0-1.952,0-3.721,0-5.49
		c0.005-14.631,0.009-29.261,0.018-43.893c0.001-2.713,0.085-2.798,2.729-2.803c5.201-0.007,10.402-0.001,15.765-0.001
		c0,1.432,0,2.681,0,4.335c-1.85,0-3.741-0.003-5.632,0c-2.069,0.004-4.144,0.101-6.208-0.006c-1.723-0.088-2.196,0.626-2.191,2.261
		c0.041,12.99,0.044,25.98-0.026,38.969c-0.01,1.887,0.634,2.47,2.482,2.457c9.063-0.071,18.128-0.032,27.192-0.032
		c12.417,0,24.837,0.002,37.255,0c2.729-0.002,2.798-0.066,2.798-2.72c0.002-12.701,0.002-25.407-0.01-38.11
		c-0.006-2.806-0.031-2.808-2.904-2.819c-3.497-0.013-6.993-0.022-10.489-0.041c-0.136,0-0.271-0.081-0.6-0.188
		c0-1.226,0-2.519,0-3.924c0.509-0.069,0.987-0.188,1.463-0.189c4.998-0.009,9.993,0.022,14.99-0.005
		c1.282-0.007,2.04,0.354,2.04,1.792c-0.018,16.558-0.018,33.116-0.033,49.673c0,0.196-0.113,0.395-0.218,0.734
		C63.083,78.535,37.07,78.535,10.665,78.535z"/>
	<path fill-rule="evenodd" clip-rule="evenodd" fill="#336699" d="M28.174,80.822c0,1.321-0.005,2.303,0.001,3.286
		c0.021,3.236,1.151,4.407,4.375,4.411c9.068,0.018,18.136,0.003,27.204,0.003c2.569,0,5.141,0.019,7.709,0
		c3.232-0.026,4.344-1.165,4.364-4.414c0.007-0.985,0.002-1.969,0.002-3.064c0.748-0.082,1.295-0.191,1.84-0.193
		c6.925-0.011,13.854,0.047,20.778-0.041c1.896-0.023,2.571,0.639,2.435,2.489c-0.113,1.563,0.011,3.14-0.023,4.711
		c-0.083,3.812-2.042,5.83-5.845,5.866c-5.854,0.056-11.709,0.02-17.565,0.02c-21.205-0.004-42.409-0.007-63.614-0.018
		c-4.918-0.002-6.679-1.781-6.69-6.729c-0.004-1.571-0.134-3.161,0.079-4.702c0.081-0.588,0.948-1.509,1.478-1.523
		c4.852-0.13,9.708-0.093,14.563-0.102C22.112,80.818,24.959,80.822,28.174,80.822z"/>
	<path fill-rule="evenodd" clip-rule="evenodd" fill="#336699" d="M50.103,80.833c5.849-0.002,11.701,0.032,17.55-0.028
		c1.406-0.015,2.271,0.284,1.979,1.866c-0.255,1.393,0.983,3.649-1.861,3.656c-11.842,0.028-23.684,0.004-35.527,0.025
		c-1.368,0.003-1.871-0.574-1.915-1.93c-0.114-3.556-0.159-3.572,3.295-3.583C39.116,80.822,44.609,80.835,50.103,80.833z"/>
	<path fill-rule="evenodd" clip-rule="evenodd" fill="#336699" d="M29.229,48.736c0,1.944,0,3.257,0,5.094
		c-1.079-0.442-2.13-0.58-2.648-1.179c-0.415-0.479-0.516-1.775-0.153-2.249C26.964,49.7,28.032,49.403,29.229,48.736z"/>
	<path fill-rule="evenodd" clip-rule="evenodd" fill="#336699" d="M70.769,53.284c0-1.251,0-2.5,0-4.331
		c1.065,0.469,2.093,0.667,2.707,1.279c0.393,0.392,0.5,1.636,0.17,2.063c-0.541,0.704-1.542,1.055-2.348,1.554
		C71.12,53.66,70.945,53.474,70.769,53.284z"/>
</g>
<g>
	<path fill-rule="evenodd" clip-rule="evenodd" fill="#336699" d="M-243.584-98.2c25.324-0.004,50.648-0.006,75.973,0
		c1.498,0,2.997,0.06,4.496,0.09c2.028,0.042,3.056,1.033,3.013,3.105c-0.024,1.165,0.038,2.332,0.038,3.498
		c0.002,37.819,0.01,75.639-0.005,113.458c-0.004,9.781-2.963,12.668-12.94,12.67c-46.983,0.01-93.966,0.017-140.949-0.026
		c-2.3-0.002-4.712-0.128-6.874-0.816c-3.601-1.147-5.82-3.762-6.08-7.709c-0.099-1.495-0.121-2.996-0.121-4.495
		c-0.005-37.819-0.009-75.639,0.008-113.459c0.002-6.254,0.045-6.299,6.471-6.303C-294.898-98.207-269.241-98.195-243.584-98.2z
		 M-243.624,22.249c21.498,0,42.996,0.009,64.494-0.005c6.995-0.004,7.154-0.119,7.161-6.855c0.03-31.664,0.034-63.328,0.017-94.991
		c-0.004-6.078-0.508-6.567-6.557-6.568c-43.496-0.012-86.992-0.008-130.488,0.011c-5.459,0.003-6.118,0.629-6.123,5.965
		c-0.027,32.164-0.032,64.328-0.009,96.491c0.004,5.529,0.46,5.949,6.011,5.954C-287.287,22.27-265.456,22.258-243.624,22.249z"/>
	<path fill-rule="evenodd" clip-rule="evenodd" fill="#336699" d="M-194.124-103.256c-9.81,0-19.621-0.096-29.428,0.055
		c-3.147,0.048-4.515-0.837-4.43-4.195c0.182-7.145,0.159-14.3,0.01-21.445c-0.065-3.116,1.222-3.964,4.158-3.948
		c17.956,0.095,35.913-0.011,53.868,0.084c6.008,0.032,9.648,3.666,9.823,9.601c0.155,5.315-0.077,10.644,0.093,15.958
		c0.101,3.131-1.244,3.975-4.169,3.938C-174.172-103.332-184.148-103.256-194.124-103.256z M-169.97-117.969
		c0.021-2.568-2.154-4.633-4.821-4.472c-2.727,0.165-4.291,1.752-4.312,4.407c-0.021,2.658,1.527,4.262,4.247,4.467
		C-172.19-113.364-169.991-115.395-169.97-117.969z M-201.172-122.433c-2.23,0.235-3.729,1.756-3.869,4.411
		c-0.138,2.595,2.103,4.617,4.784,4.445c2.735-0.175,4.18-1.79,4.334-4.423C-195.771-120.586-198.023-122.579-201.172-122.433z
		 M-187.423-113.538c2.455-0.051,4.404-1.922,4.49-4.309c0.093-2.569-2.029-4.689-4.68-4.585c-2.725,0.108-4.233,1.665-4.466,4.297
		C-192.302-115.589-190.062-113.482-187.423-113.538z"/>
	<path fill-rule="evenodd" clip-rule="evenodd" fill="#336699" d="M-280.27-103.253c-13.972,0.001-27.944,0.021-41.916-0.01
		c-4.722-0.011-4.725-0.07-4.842-4.707c-0.021-0.831-0.019-1.663-0.001-2.494c0.097-4.821,0.239-5.052,5.141-5.066
		c16.634-0.05,33.268-0.031,49.9-0.034c11.145-0.003,22.289-0.02,33.434,0.016c5.158,0.017,5.258,0.164,5.315,5.358
		c0.01,0.831,0.021,1.663-0.005,2.494c-0.132,4.311-0.161,4.414-4.61,4.427C-251.992-103.229-266.131-103.255-280.27-103.253z"/>
	<path fill-rule="evenodd" clip-rule="evenodd" fill="#336699" d="M-280.51-120.453c-13.808-0.002-27.614,0.031-41.422-0.019
		c-5.183-0.019-6.651-2.805-3.916-7.36c2.171-3.616,5.464-4.97,9.665-4.952c19.796,0.083,39.592,0.026,59.388,0.023
		c6.487-0.001,12.978,0.116,19.462-0.027c2.978-0.066,4.064,0.959,4.153,4.006c0.243,8.329,0.37,8.328-7.905,8.33
		C-254.227-120.45-267.368-120.452-280.51-120.453z"/>
	<path fill-rule="evenodd" clip-rule="evenodd" fill="#336699" d="M-164.326-152.541c0.046,3.191-2.813,6.175-5.934,6.192
		c-3.129,0.018-5.883-2.928-5.829-6.235c0.051-3.107,2.624-5.827,5.607-5.925C-167.345-158.611-164.371-155.729-164.326-152.541z"/>
	<path fill-rule="evenodd" clip-rule="evenodd" fill="#336699" d="M-243.21-80.865c20.16,0.004,40.32-0.008,60.48,0.012
		c5.441,0.005,5.483,0.049,5.486,5.571c0.015,28.991,0.017,57.981-0.004,86.972c-0.004,5.359-0.197,5.584-5.675,5.588
		c-40.32,0.026-80.641,0.025-120.96,0.003c-5.839-0.003-5.918-0.118-5.922-5.8c-0.018-28.991-0.018-57.981-0.012-86.972
		c0.001-5.353,0.028-5.372,5.626-5.374C-283.863-80.874-263.536-80.869-243.21-80.865z M-210.855,13.559
		c16.35,0.374,29.668-12.117,30.079-28.212c0.421-16.448-12.291-30.107-28.442-30.56c-16.427-0.46-30.134,12.68-30.426,29.169
		C-239.929,0.014-227.118,13.187-210.855,13.559z M-281.075,11.632c0-0.009,0-0.018,0-0.026c3.821,0,7.654,0.179,11.462-0.049
		c4.112-0.245,6.887-2.303,7.515-6.064c1.365-8.185,2.319-16.438,3.46-24.66c0.399-2.886-0.71-4.507-3.729-4.497
		c-2.622,0.008-4.483-0.629-4.645-3.81c-0.042-0.823-1.332-2.124-2.155-2.213c-0.786-0.085-2.425,1.085-2.462,1.77
		c-0.24,4.465-3.311,4.208-6.358,4.182c-2.659-0.022-5.318-0.011-7.978,0.01c-2.485,0.019-4.633-0.158-4.836-3.537
		c-0.055-0.915-1.539-1.743-2.367-2.61c-0.772,0.76-2.138,1.466-2.214,2.29c-0.311,3.396-2.473,3.867-5.191,3.972
		c-2.689,0.104-3.878,1.604-3.479,4.293c1.194,8.047,2.238,16.121,3.652,24.13c0.833,4.72,3.053,6.499,7.862,6.777
		C-288.729,11.808-284.897,11.632-281.075,11.632z M-270.19-73.227c-7.309,0-14.617-0.047-21.924,0.031
		c-2.023,0.021-5.023-0.672-5.096,2.431c-0.081,3.502,3.141,2.759,5.284,2.77c14.283,0.072,28.568,0.049,42.853,0.016
		c1.309-0.003,2.714-0.049,3.89-0.528c0.719-0.293,1.519-1.468,1.49-2.216c-0.03-0.764-0.893-1.881-1.637-2.142
		c-1.205-0.422-2.61-0.346-3.933-0.351C-256.238-73.242-263.214-73.228-270.19-73.227z M-264.985-50.795
		c5.143,0,10.285,0.023,15.428-0.012c1.897-0.014,4.122-0.286,3.7-2.746c-0.17-0.995-2.325-2.325-3.599-2.35
		c-10.281-0.195-20.568-0.128-30.854-0.109c-1.877,0.004-4.037,0.173-4.088,2.586c-0.053,2.464,2.083,2.624,3.983,2.631
		C-275.271-50.779-270.128-50.79-264.985-50.795z M-248.571-64.447c-1.499,0-2.999-0.007-4.498,0.002
		c-4.497,0.024-9.002-0.074-13.485,0.188c-0.933,0.055-1.787,1.451-2.677,2.229c0.707,0.773,1.405,2.214,2.121,2.223
		c12.155,0.143,24.313,0.147,36.469,0.014c0.743-0.008,2.036-1.413,2.048-2.184c0.011-0.765-1.142-1.87-2.027-2.237
		c-1.012-0.419-2.292-0.226-3.456-0.229C-238.908-64.459-243.739-64.449-248.571-64.447z M-251.035-47.215
		c-3.487,0-6.974-0.021-10.46,0.009c-1.747,0.015-3.722,0.334-3.433,2.502c0.123,0.919,2.016,2.25,3.137,2.282
		c7.132,0.208,14.275,0.209,21.407,0.001c1.146-0.033,3.081-1.332,3.211-2.25c0.301-2.122-1.624-2.537-3.402-2.547
		C-244.062-47.238-247.549-47.224-251.035-47.215z"/>
	<path fill-rule="evenodd" clip-rule="evenodd" fill="#336699" d="M-209.986-39.914c13.697,0.069,24.236,10.808,24.081,24.533
		c-0.153,13.504-11.196,24.294-24.678,24.109c-13-0.178-24.022-11.393-24.031-24.451C-234.623-29.092-223.535-39.983-209.986-39.914
		z M-204.564-35.178c-0.814,0.629-3.08,1.547-3.966,3.202c-4.628,8.652-9.042,17.428-13.237,26.299
		c-1.639,3.464-0.036,6.957,3.125,8.441c3.159,1.483,6.483,0.39,8.493-3.017c1.435-2.431,2.641-5,3.904-7.53
		c2.973-5.954,6.101-11.84,8.819-17.909C-195.251-30.546-198.35-35.276-204.564-35.178z M-213.346-26.658
		c-0.064-3.451-2.986-6.374-6.392-6.392c-3.563-0.02-6.666,3.257-6.467,6.825c0.188,3.348,3.357,6.266,6.667,6.139
		C-216.107-20.219-213.283-23.218-213.346-26.658z M-205.678-5.148c0.083,3.433,3.099,6.426,6.328,6.282
		c2.982-0.133,6.209-3.919,6.227-7.305c0.016-3.007-2.998-5.509-6.477-5.376C-203.262-11.407-205.765-8.772-205.678-5.148z"/>
	<path fill-rule="evenodd" clip-rule="evenodd" fill="#336699" d="M-281.304-18.616c4.497,0,8.996,0.082,13.49-0.03
		c2.831-0.07,4.016,1.081,3.587,3.889c-0.902,5.918-1.815,11.835-2.679,17.76c-0.341,2.338-1.56,3.591-3.968,3.592
		c-6.829,0.002-13.657-0.005-20.486,0.014c-2.625,0.008-3.95-1.335-4.314-3.864c-0.878-6.093-1.715-12.193-2.74-18.262
		c-0.469-2.776,1.038-3.112,3.118-3.11c4.664,0.006,9.328,0.002,13.992,0.002C-281.304-18.623-281.304-18.62-281.304-18.616z
		 M-287.063-5.755c0,1.829-0.333,3.746,0.115,5.458c0.306,1.166,1.703,2.046,2.612,3.053c0.812-0.923,2.258-1.805,2.323-2.777
		c0.267-3.974,0.266-7.986-0.001-11.96c-0.065-0.975-1.51-1.856-2.32-2.781c-0.91,1.007-2.344,1.892-2.611,3.048
		C-287.383-9.82-287.063-7.751-287.063-5.755z M-269.052-6.164c0.097-0.002,0.193-0.004,0.29-0.005
		c-0.112-2.151-0.004-4.349-0.442-6.431c-0.18-0.857-1.537-2.028-2.359-2.028c-0.807,0-2.271,1.269-2.313,2.042
		c-0.234,4.298-0.24,8.619-0.03,12.918c0.04,0.823,1.59,2.344,2.097,2.211c1.043-0.271,2.456-1.327,2.635-2.267
		C-268.779-1.803-269.052-4.01-269.052-6.164z M-293.239-6.038c-0.004,0-0.008,0-0.012,0c0,2.15-0.205,4.33,0.1,6.437
		c0.124,0.86,1.32,2.132,2.088,2.175c0.786,0.045,2.324-1.149,2.36-1.861c0.229-4.445,0.237-8.912,0.026-13.357
		c-0.035-0.733-1.521-1.95-2.319-1.937c-0.76,0.013-2.017,1.267-2.142,2.109C-293.448-10.368-293.239-8.188-293.239-6.038z
		 M-275.463-5.765c-0.096-0.001-0.191-0.003-0.287-0.004c0-2.328,0.155-4.674-0.093-6.975c-0.077-0.719-1.354-1.933-1.888-1.837
		c-0.921,0.164-2.377,1.143-2.411,1.839c-0.219,4.479-0.196,8.978-0.025,13.462c0.026,0.679,1.354,1.926,1.884,1.829
		c0.921-0.168,2.252-1.063,2.412-1.856C-275.449-1.401-275.563-3.604-275.463-5.765z"/>
	<path fill-rule="evenodd" clip-rule="evenodd" fill="#336699" d="M-202.052-27.961c-0.401,0.894-0.776,1.809-1.215,2.692
		c-3.33,6.704-6.67,13.402-10.014,20.099c-0.297,0.595-0.519,1.309-0.993,1.711c-0.546,0.465-1.334,0.645-2.017,0.947
		c-0.152-0.61-0.463-1.234-0.415-1.829c0.052-0.632,0.397-1.258,0.692-1.848c3.494-6.993,6.999-13.98,10.515-20.964
		c0.298-0.592,0.579-1.27,1.065-1.668c0.437-0.356,1.151-0.521,1.727-0.485C-202.48-29.292-202.303-28.506-202.052-27.961z"/>
</g>
</svg>
