<?xml version="1.0" encoding="utf-8"?>
<!-- Generator: Adobe Illustrator 16.0.0, SVG Export Plug-In . SVG Version: 6.00 Build 0)  -->
<!DOCTYPE svg PUBLIC "-//W3C//DTD SVG 1.1//EN" "http://www.w3.org/Graphics/SVG/1.1/DTD/svg11.dtd">
<svg version="1.1" id="Layer_1" xmlns="http://www.w3.org/2000/svg" xmlns:xlink="http://www.w3.org/1999/xlink" x="0px" y="0px"
	 width="100px" height="100px" viewBox="0 0 100 100" enable-background="new 0 0 100 100" xml:space="preserve">
<g>
	<path fill="#336699" d="M43.176,47.003c0.981-4.146,1.963-8.292,2.942-12.438c0.502-2.125,1.043-4.243,1.484-6.381
		c0.262-1.275,0.887-1.837,2.231-1.857c3.615-0.055,3.604-0.097,4.42,3.409c1.293,5.561,2.604,11.117,3.909,16.674
		c0.065,0.286,0.18,0.561,0.376,1.152c1.285-4.963,2.494-9.631,3.703-14.298c0.449-1.729,0.924-3.453,1.334-5.192
		c0.279-1.188,0.906-1.721,2.183-1.746c3.718-0.071,3.711-0.116,2.613,3.395c-2.222,7.106-4.476,14.203-6.622,21.332
		c-0.471,1.564-1.244,2.288-2.863,2.059c-0.195-0.027-0.396-0.005-0.596-0.005c-2.629-0.002-2.626-0.002-3.253-2.592
		c-1.285-5.308-2.57-10.615-3.858-15.92c-0.113-0.469-0.259-0.93-0.671-1.427c-0.442,1.792-0.896,3.58-1.326,5.375
		c-1.008,4.199-2.037,8.394-2.988,12.608c-0.313,1.383-0.954,1.998-2.441,1.984c-3.494-0.033-3.488,0.023-4.487-3.282
		c-2.124-7.032-4.258-14.061-6.38-21.094c-0.706-2.342-0.644-2.411,1.843-2.413c2.982-0.002,2.974,0,3.694,2.849
		c1.496,5.917,3.003,11.832,4.506,17.747C43.011,46.962,43.093,46.983,43.176,47.003z"/>
	<path fill="#336699" d="M50.733,79.662c-18.048-0.135-32.467-5.449-44.917-16.047c-0.534-0.455-0.811-1.213-1.208-1.83
		c0.704,0.162,1.49,0.174,2.099,0.508c10.367,5.675,21.407,9.188,33.149,10.563c15.176,1.778,29.809-0.287,43.949-6.021
		c0.41-0.166,0.872-0.37,1.281-0.321c0.431,0.051,1.045,0.294,1.179,0.619c0.141,0.338-0.104,0.937-0.353,1.305
		C85.679,68.787,85.229,69,84.86,69.25c-7.756,5.264-16.381,8.253-25.586,9.615C55.894,79.365,52.459,79.508,50.733,79.662z"/>
	<path fill="#336699" d="M24.734,37.601c-0.095-1.191-0.125-2.726-0.359-4.229c-0.294-1.888-1.565-2.9-3.388-3.301
		c-3.095-0.682-6,0.057-8.882,1.109c-0.713,0.26-1.565,1.039-2.243-0.011c-0.553-0.857-0.092-3.118,0.739-3.515
		c4.808-2.301,9.785-3.083,14.81-0.884c3.272,1.431,4.189,4.498,4.311,7.764c0.127,3.425-0.067,6.862,0.094,10.283
		c0.075,1.591,0.497,3.216,1.061,4.716c0.427,1.133,0.452,1.869-0.651,2.477c-0.347,0.189-0.675,0.421-0.989,0.664
		c-1.122,0.865-2.025,0.572-2.758-0.521c-0.488-0.729-0.936-1.486-1.463-2.328c-2.122,2.234-4.579,3.664-7.668,3.926
		c-5.167,0.438-8.697-2.09-9.336-6.792c-0.633-4.657,2.377-8.814,7.267-9.399C18.282,37.2,21.373,37.56,24.734,37.601z
		 M19.112,40.797c-0.957,0.212-2.266,0.34-3.443,0.802c-1.842,0.724-2.599,2.509-2.312,4.851c0.206,1.675,1.241,2.814,2.896,3.184
		c4.531,1.009,8.418-2.125,8.432-6.747c0.002-0.942-0.172-1.481-1.244-1.553C22.107,41.244,20.781,41.011,19.112,40.797z"/>
	<path fill="#336699" d="M78.905,53.982c-1.299-0.324-3.822-0.832-6.264-1.605c-1.541-0.488-2.15-2.333-1.562-3.832
		c0.403-1.023,1.116-0.583,1.729-0.319c2.553,1.101,5.213,1.692,7.984,1.46c1.111-0.092,2.294-0.339,3.273-0.846
		c2.426-1.255,2.455-4.373,0.015-5.579c-1.81-0.894-3.813-1.392-5.72-2.094c-1.069-0.394-2.178-0.735-3.164-1.288
		c-4.935-2.771-5.209-9.23-0.565-12.47c3.345-2.334,10.263-2.495,13.722-0.32c0.983,0.618,1.619,2.889,0.896,3.695
		c-0.256,0.286-1.102,0.305-1.541,0.121c-2.254-0.939-4.581-1.316-6.998-1.126c-0.734,0.058-1.479,0.205-2.182,0.431
		c-1.242,0.4-2.004,1.28-2.131,2.604c-0.127,1.321,0.41,2.408,1.598,2.95c1.617,0.74,3.314,1.309,4.986,1.929
		c1.115,0.414,2.269,0.739,3.364,1.194c2.651,1.1,4.308,3.05,4.533,5.951c0.235,3.011-0.965,5.439-3.468,7.152
		C85.243,53.479,82.753,53.877,78.905,53.982z"/>
	<path fill="#336699" d="M77.871,62.636c1.114-0.585,2.187-1.292,3.356-1.729c3.563-1.34,7.248-1.574,10.981-0.863
		c1.886,0.357,2.246,0.783,2.187,2.699c-0.146,4.586-1.789,8.594-4.817,12.033c-0.294,0.332-0.646,0.616-0.994,0.895
		c-0.142,0.111-0.347,0.146-0.938,0.383c0.219-0.891,0.342-1.504,0.52-2.104c0.771-2.606,1.674-5.184,2.295-7.824
		c0.46-1.95-0.203-2.908-2.213-3.021c-2.703-0.15-5.428,0.068-8.143,0.135c-0.697,0.017-1.395,0.063-2.091,0.094
		C77.966,63.1,77.918,62.867,77.871,62.636z"/>
</g>
</svg>
