<?xml version="1.0" encoding="utf-8"?>
<!-- Generator: Adobe Illustrator 16.0.0, SVG Export Plug-In . SVG Version: 6.00 Build 0)  -->
<!DOCTYPE svg PUBLIC "-//W3C//DTD SVG 1.1//EN" "http://www.w3.org/Graphics/SVG/1.1/DTD/svg11.dtd">
<svg version="1.1" id="Capa_1" xmlns="http://www.w3.org/2000/svg" xmlns:xlink="http://www.w3.org/1999/xlink" x="0px" y="0px"
	 width="100px" height="100px" viewBox="0 0 100 100" enable-background="new 0 0 100 100" xml:space="preserve">
<g>
	<path fill-rule="evenodd" clip-rule="evenodd" fill="#336699" d="M33.766-122.791c0-4.599,0-9.136,0-13.853
		c3.906,0,7.717,0,11.726,0c0,12.884,0,25.817,0,38.907c-21.615,0-43.206,0-64.987,0c0-12.918,0-25.854,0-38.939
		c3.859,0,7.676,0,11.672,0c0,4.627,0,9.22,0,13.889c-0.749,0.118-1.458,0.168-2.131,0.348c-2.054,0.548-3.334,2.409-3.162,4.51
		c0.166,2.008,1.633,3.603,3.646,3.903c0.561,0.084,1.139,0.091,1.709,0.091c13.917,0.006,27.834,0.009,41.751-0.005
		c0.776-0.002,1.614-0.006,2.316-0.281c1.836-0.717,2.855-2.144,2.804-4.139c-0.053-2.081-1.134-3.493-3.159-4.077
		C35.281-122.629,34.566-122.666,33.766-122.791z"/>
	<path fill-rule="evenodd" clip-rule="evenodd" fill="#336699" d="M19.757-147.085c-3.219,1.04-4.129,3.298-2.952,5.664
		c1.051,2.116,3.458,2.971,5.639,2.005c2.227-0.985,2.814-3.484,2.107-5.984c-0.673-2.374-0.652-4.944-0.972-7.737
		c2.506,0,4.485-0.001,6.464,0c1.637,0.001,1.496,1.189,1.496,2.264c0.008,6.35,0.004,12.699,0.004,19.049c0,5.124,0,10.25,0,15.557
		c-12.354,0-24.513,0-36.953,0c-0.048-0.697-0.144-1.443-0.145-2.19c-0.008-10.773,0.037-21.546-0.038-32.319
		c-0.014-1.937,0.69-2.493,2.51-2.397c2.339,0.121,4.689,0.03,7.418,0.03c0-1.249-0.035-2.355,0.005-3.458
		c0.183-4.945,3.786-8.493,8.617-8.511c4.854-0.019,8.52,3.491,8.685,8.423c0.096,2.851-0.058,5.711,0.078,8.559
		c0.061,1.281,0.707,2.53,0.8,3.814c0.063,0.872-0.107,2.057-0.664,2.584c-0.456,0.43-1.952,0.435-2.414,0.009
		c-0.566-0.523-0.771-1.712-0.699-2.576C18.825-145.25,19.397-146.158,19.757-147.085z M8.229-153.18c4.188,0,7.645,0,11.296,0
		c0-1.223,0.029-2.21-0.005-3.196c-0.132-3.778-2.862-6.559-6.449-6.591c-3.701-0.032-6.503,2.754-6.583,6.658
		c-0.062,3.062-0.054,6.127,0.029,9.189c0.024,0.866,0.589,1.717,0.612,2.583c0.025,0.952,0.009,2.201-0.55,2.777
		c-0.427,0.44-2.124,0.386-2.539-0.083c-0.528-0.596-0.484-1.846-0.404-2.789c0.074-0.868,0.524-1.704,0.916-2.872
		c-3.002,1.167-4.07,3.234-3.263,5.515c0.825,2.332,3.171,3.475,5.507,2.685c2.259-0.765,3.23-3.175,2.673-5.571
		C8.872-147.443,8.669-150.102,8.229-153.18z"/>
	<path fill-rule="evenodd" clip-rule="evenodd" fill="#336699" d="M-26.335-91.147c0-1.952,0-3.721,0-5.49
		c0.005-14.631,0.009-29.261,0.018-43.893c0.001-2.713,0.085-2.798,2.729-2.803c5.201-0.007,10.402-0.001,15.765-0.001
		c0,1.432,0,2.681,0,4.335c-1.85,0-3.741-0.003-5.632,0c-2.069,0.004-4.144,0.101-6.208-0.006c-1.723-0.088-2.196,0.626-2.191,2.261
		c0.041,12.99,0.044,25.98-0.026,38.969c-0.01,1.887,0.634,2.47,2.482,2.457c9.063-0.071,18.128-0.032,27.192-0.032
		c12.417,0,24.837,0.002,37.255,0c2.729-0.002,2.798-0.066,2.798-2.72c0.002-12.701,0.002-25.407-0.01-38.11
		c-0.006-2.806-0.031-2.808-2.904-2.819c-3.497-0.013-6.993-0.022-10.489-0.041c-0.136,0-0.271-0.081-0.6-0.188
		c0-1.226,0-2.519,0-3.924c0.509-0.069,0.987-0.188,1.463-0.189c4.998-0.009,9.993,0.022,14.99-0.005
		c1.282-0.007,2.04,0.354,2.04,1.792c-0.018,16.558-0.018,33.116-0.033,49.673c0,0.196-0.113,0.395-0.218,0.734
		C26.083-91.147,0.07-91.147-26.335-91.147z"/>
	<path fill-rule="evenodd" clip-rule="evenodd" fill="#336699" d="M-8.826-88.86c0,1.321-0.005,2.303,0.001,3.286
		c0.021,3.236,1.151,4.407,4.375,4.411c9.068,0.018,18.136,0.003,27.204,0.003c2.569,0,5.141,0.019,7.709,0
		c3.232-0.026,4.344-1.165,4.364-4.414c0.007-0.985,0.002-1.969,0.002-3.064c0.748-0.082,1.295-0.191,1.84-0.193
		c6.925-0.011,13.854,0.047,20.778-0.041c1.896-0.023,2.571,0.639,2.435,2.489c-0.113,1.563,0.011,3.14-0.023,4.711
		c-0.083,3.812-2.042,5.83-5.845,5.866c-5.854,0.056-11.709,0.02-17.565,0.02c-21.205-0.004-42.409-0.007-63.614-0.018
		c-4.918-0.002-6.679-1.781-6.69-6.729c-0.004-1.571-0.134-3.161,0.079-4.702c0.081-0.588,0.948-1.509,1.478-1.523
		c4.852-0.13,9.708-0.093,14.563-0.102C-14.888-88.864-12.041-88.86-8.826-88.86z"/>
	<path fill-rule="evenodd" clip-rule="evenodd" fill="#336699" d="M13.103-88.849c5.849-0.002,11.701,0.032,17.55-0.028
		c1.406-0.015,2.271,0.284,1.979,1.866c-0.255,1.393,0.983,3.649-1.861,3.656C18.928-83.327,7.085-83.351-4.758-83.33
		c-1.368,0.003-1.871-0.574-1.915-1.93c-0.114-3.556-0.159-3.572,3.295-3.583C2.116-88.86,7.609-88.847,13.103-88.849z"/>
	<path fill-rule="evenodd" clip-rule="evenodd" fill="#336699" d="M-7.771-120.946c0,1.944,0,3.257,0,5.094
		c-1.079-0.442-2.13-0.58-2.648-1.179c-0.415-0.479-0.516-1.775-0.153-2.249C-10.036-119.982-8.968-120.279-7.771-120.946z"/>
	<path fill-rule="evenodd" clip-rule="evenodd" fill="#336699" d="M33.769-116.398c0-1.251,0-2.5,0-4.331
		c1.065,0.469,2.093,0.667,2.707,1.279c0.393,0.392,0.5,1.636,0.17,2.063c-0.541,0.704-1.542,1.055-2.348,1.554
		C34.12-116.022,33.945-116.208,33.769-116.398z"/>
</g>
<g>
	<path fill-rule="evenodd" clip-rule="evenodd" fill="#336699" d="M-113.65-56.636c11.209-0.001,22.417-0.002,33.626,0
		c0.663,0,1.326,0.026,1.989,0.04c0.898,0.019,1.353,0.457,1.334,1.375c-0.011,0.516,0.017,1.032,0.017,1.548
		c0.001,16.739,0.005,33.478-0.002,50.217c-0.002,4.329-1.312,5.607-5.728,5.607c-20.795,0.005-41.589,0.008-62.384-0.012
		c-1.018,0-2.085-0.056-3.042-0.361c-1.594-0.508-2.576-1.664-2.691-3.411c-0.043-0.662-0.053-1.326-0.053-1.99
		c-0.002-16.738-0.004-33.478,0.003-50.217c0.001-2.768,0.02-2.788,2.864-2.79C-136.362-56.639-125.006-56.634-113.65-56.636z
		 M-113.668-3.325c9.515,0,19.03,0.004,28.545-0.002c3.097-0.002,3.167-0.053,3.17-3.034c0.013-14.015,0.015-28.029,0.007-42.043
		c-0.001-2.69-0.225-2.907-2.901-2.907c-19.252-0.005-38.503-0.003-57.755,0.005c-2.416,0.001-2.708,0.278-2.71,2.64
		c-0.012,14.235-0.014,28.472-0.004,42.707c0.002,2.447,0.204,2.633,2.661,2.636C-132.994-3.316-123.331-3.321-113.668-3.325z"/>
	<path fill-rule="evenodd" clip-rule="evenodd" fill="#336699" d="M-91.76-58.874c-4.341,0-8.684-0.042-13.024,0.024
		c-1.393,0.021-1.998-0.371-1.961-1.857c0.081-3.162,0.071-6.329,0.005-9.492c-0.029-1.379,0.541-1.754,1.84-1.748
		c7.948,0.042,15.896-0.004,23.843,0.037c2.659,0.015,4.271,1.623,4.348,4.25c0.068,2.353-0.034,4.711,0.041,7.063
		c0.045,1.386-0.551,1.759-1.845,1.743C-82.929-58.908-87.344-58.874-91.76-58.874z M-81.068-65.386
		c0.01-1.137-0.954-2.05-2.134-1.979c-1.207,0.073-1.899,0.775-1.908,1.951c-0.01,1.176,0.676,1.886,1.879,1.977
		C-82.052-63.348-81.078-64.247-81.068-65.386z M-94.879-67.361c-0.987,0.104-1.65,0.777-1.712,1.952
		c-0.062,1.148,0.931,2.043,2.117,1.968c1.211-0.078,1.85-0.792,1.918-1.958C-92.488-66.544-93.485-67.426-94.879-67.361z
		 M-88.793-63.425c1.086-0.022,1.949-0.851,1.987-1.907c0.041-1.137-0.898-2.076-2.071-2.029c-1.206,0.048-1.874,0.737-1.977,1.902
		C-90.953-64.333-89.961-63.4-88.793-63.425z"/>
	<path fill-rule="evenodd" clip-rule="evenodd" fill="#336699" d="M-129.888-58.873c-6.184,0-12.368,0.01-18.552-0.004
		c-2.09-0.004-2.091-0.031-2.143-2.083c-0.01-0.368-0.008-0.736,0-1.104c0.043-2.134,0.106-2.236,2.275-2.243
		c7.362-0.022,14.724-0.014,22.086-0.015c4.933-0.001,9.865-0.008,14.798,0.007c2.283,0.007,2.327,0.072,2.353,2.372
		c0.004,0.368,0.009,0.736-0.002,1.104c-0.059,1.908-0.071,1.954-2.041,1.959C-117.372-58.862-123.63-58.874-129.888-58.873z"/>
	<path fill-rule="evenodd" clip-rule="evenodd" fill="#336699" d="M-129.994-66.485c-6.111-0.001-12.222,0.014-18.333-0.008
		c-2.294-0.008-2.944-1.241-1.733-3.258c0.961-1.6,2.418-2.199,4.278-2.191c8.762,0.037,17.523,0.011,26.285,0.01
		c2.871,0,5.744,0.051,8.614-0.012c1.318-0.029,1.799,0.424,1.838,1.773c0.108,3.687,0.164,3.686-3.498,3.687
		C-118.361-66.484-124.177-66.485-129.994-66.485z"/>
	<path fill-rule="evenodd" clip-rule="evenodd" fill="#336699" d="M-78.57-80.688c0.02,1.413-1.246,2.733-2.627,2.741
		c-1.385,0.008-2.604-1.296-2.58-2.76c0.022-1.375,1.162-2.579,2.482-2.622C-79.907-83.374-78.591-82.098-78.57-80.688z"/>
	<path fill-rule="evenodd" clip-rule="evenodd" fill="#336699" d="M-113.484-48.964c8.923,0.002,17.846-0.003,26.769,0.005
		c2.408,0.002,2.427,0.021,2.428,2.466c0.007,12.832,0.008,25.663-0.001,38.494c-0.002,2.372-0.088,2.472-2.512,2.474
		c-17.847,0.012-35.692,0.011-53.538,0.001c-2.584-0.001-2.619-0.052-2.621-2.566c-0.008-12.832-0.008-25.663-0.005-38.494
		c0-2.369,0.012-2.378,2.49-2.379C-131.478-48.968-122.481-48.965-113.484-48.964z M-99.165-7.172
		c7.236,0.166,13.132-5.362,13.313-12.486c0.187-7.28-5.44-13.326-12.589-13.525c-7.271-0.203-13.337,5.611-13.467,12.91
		C-112.032-13.166-106.362-7.336-99.165-7.172z M-130.244-8.024c0-0.004,0-0.008,0-0.012c1.691,0,3.388,0.079,5.073-0.021
		c1.82-0.108,3.048-1.02,3.326-2.684c0.604-3.623,1.027-7.275,1.532-10.915c0.177-1.277-0.314-1.995-1.65-1.99
		c-1.161,0.003-1.984-0.278-2.056-1.687c-0.019-0.364-0.589-0.94-0.954-0.979c-0.348-0.037-1.073,0.48-1.089,0.783
		c-0.106,1.977-1.465,1.862-2.814,1.851c-1.177-0.01-2.354-0.004-3.531,0.005c-1.1,0.008-2.051-0.07-2.141-1.565
		c-0.024-0.405-0.681-0.771-1.047-1.155c-0.342,0.336-0.946,0.648-0.98,1.014c-0.138,1.503-1.094,1.711-2.298,1.758
		c-1.19,0.046-1.716,0.71-1.54,1.899c0.529,3.562,0.991,7.136,1.617,10.681c0.369,2.089,1.351,2.876,3.48,2.999
		C-133.632-7.946-131.936-8.024-130.244-8.024z M-125.426-45.583c-3.235,0-6.47-0.021-9.704,0.014
		c-0.896,0.009-2.224-0.297-2.255,1.076c-0.036,1.55,1.39,1.221,2.339,1.226c6.322,0.032,12.644,0.021,18.966,0.007
		c0.579-0.001,1.201-0.022,1.722-0.234c0.318-0.13,0.672-0.65,0.659-0.981c-0.013-0.338-0.395-0.833-0.724-0.948
		c-0.534-0.187-1.156-0.153-1.741-0.155C-119.251-45.59-122.339-45.583-125.426-45.583z M-123.123-35.654
		c2.276,0,4.552,0.01,6.828-0.006c0.84-0.006,1.825-0.126,1.638-1.215c-0.075-0.44-1.029-1.029-1.593-1.04
		c-4.55-0.087-9.104-0.057-13.656-0.048c-0.831,0.001-1.787,0.076-1.809,1.145c-0.023,1.09,0.922,1.16,1.763,1.164
		C-127.675-35.647-125.399-35.652-123.123-35.654z M-115.858-41.697c-0.664,0-1.327-0.003-1.991,0.001
		c-1.99,0.011-3.984-0.032-5.969,0.083c-0.413,0.024-0.791,0.643-1.185,0.986c0.313,0.343,0.622,0.98,0.939,0.984
		c5.38,0.063,10.761,0.065,16.141,0.006c0.329-0.004,0.901-0.625,0.906-0.967c0.005-0.338-0.505-0.827-0.897-0.99
		c-0.447-0.186-1.015-0.1-1.529-0.102C-111.581-41.702-113.719-41.697-115.858-41.697z M-116.948-34.07
		c-1.543,0-3.086-0.01-4.63,0.004c-0.773,0.007-1.647,0.148-1.519,1.107c0.055,0.407,0.892,0.996,1.388,1.01
		c3.157,0.093,6.318,0.094,9.475,0.001c0.508-0.015,1.364-0.589,1.422-0.995c0.133-0.939-0.719-1.123-1.506-1.128
		C-113.861-34.08-115.405-34.074-116.948-34.07z"/>
	<path fill-rule="evenodd" clip-rule="evenodd" fill="#336699" d="M-98.78-30.838c6.063,0.029,10.728,4.783,10.658,10.857
		c-0.067,5.978-4.955,10.753-10.922,10.671c-5.754-0.078-10.633-5.042-10.637-10.822C-109.685-26.049-104.776-30.869-98.78-30.838z
		 M-96.38-28.742c-0.361,0.278-1.363,0.685-1.756,1.417c-2.048,3.83-4.002,7.714-5.858,11.64c-0.726,1.533-0.017,3.08,1.383,3.736
		c1.398,0.657,2.869,0.173,3.759-1.335c0.636-1.076,1.169-2.213,1.729-3.333c1.315-2.635,2.7-5.24,3.903-7.927
		C-92.258-26.692-93.63-28.786-96.38-28.742z M-100.267-24.972c-0.028-1.527-1.322-2.821-2.829-2.829
		c-1.577-0.009-2.95,1.441-2.862,3.021c0.083,1.481,1.486,2.772,2.951,2.717C-101.489-22.121-100.239-23.449-100.267-24.972z
		 M-96.873-15.451c0.037,1.52,1.371,2.844,2.801,2.78c1.32-0.059,2.748-1.734,2.756-3.232c0.007-1.331-1.327-2.438-2.866-2.38
		C-95.804-18.222-96.911-17.056-96.873-15.451z"/>
	<path fill-rule="evenodd" clip-rule="evenodd" fill="#336699" d="M-130.345-21.412c1.99,0,3.981,0.036,5.971-0.014
		c1.253-0.031,1.777,0.479,1.588,1.722c-0.399,2.619-0.804,5.238-1.186,7.86c-0.15,1.034-0.69,1.589-1.756,1.59
		c-3.022,0.001-6.045-0.002-9.067,0.006c-1.162,0.004-1.749-0.591-1.91-1.71c-0.389-2.697-0.759-5.397-1.213-8.083
		c-0.208-1.229,0.459-1.378,1.38-1.377c2.064,0.003,4.128,0.001,6.193,0.001C-130.345-21.415-130.345-21.414-130.345-21.412z
		 M-132.895-15.72c0,0.81-0.147,1.658,0.051,2.416c0.135,0.516,0.753,0.905,1.156,1.351c0.359-0.408,1-0.799,1.028-1.229
		c0.118-1.759,0.118-3.535,0-5.294c-0.029-0.432-0.668-0.821-1.027-1.23c-0.403,0.445-1.037,0.837-1.156,1.349
		C-133.036-17.519-132.895-16.604-132.895-15.72z M-124.922-15.9c0.042-0.001,0.085-0.002,0.128-0.003
		c-0.05-0.952-0.002-1.925-0.196-2.846c-0.08-0.38-0.681-0.897-1.044-0.897c-0.357,0-1.005,0.562-1.023,0.903
		c-0.104,1.902-0.106,3.814-0.014,5.718c0.018,0.364,0.704,1.037,0.928,0.979c0.461-0.12,1.087-0.588,1.166-1.003
		C-124.802-13.971-124.922-14.947-124.922-15.9z M-135.628-15.845c-0.002,0-0.003,0-0.005,0c0,0.951-0.09,1.916,0.044,2.849
		c0.055,0.381,0.584,0.943,0.924,0.963c0.348,0.02,1.029-0.509,1.045-0.824c0.101-1.968,0.105-3.944,0.012-5.912
		c-0.016-0.324-0.673-0.863-1.027-0.857c-0.336,0.006-0.893,0.561-0.948,0.934C-135.72-17.762-135.628-16.796-135.628-15.845z
		 M-127.76-15.724c-0.042-0.001-0.084-0.002-0.127-0.002c0-1.03,0.069-2.068-0.041-3.087c-0.034-0.318-0.599-0.855-0.835-0.813
		c-0.408,0.073-1.052,0.506-1.067,0.814c-0.097,1.982-0.087,3.974-0.011,5.958c0.012,0.301,0.6,0.853,0.834,0.81
		c0.408-0.074,0.997-0.471,1.067-0.821C-127.754-13.793-127.804-14.768-127.76-15.724z"/>
	<path fill-rule="evenodd" clip-rule="evenodd" fill="#336699" d="M-95.269-25.548c-0.177,0.396-0.343,0.8-0.537,1.191
		c-1.474,2.967-2.952,5.932-4.433,8.896c-0.131,0.264-0.229,0.579-0.439,0.758c-0.241,0.205-0.59,0.285-0.893,0.419
		c-0.067-0.271-0.205-0.547-0.184-0.81c0.023-0.279,0.176-0.557,0.307-0.817c1.547-3.096,3.098-6.188,4.653-9.279
		c0.132-0.262,0.257-0.562,0.472-0.738c0.193-0.157,0.51-0.23,0.765-0.215C-95.458-26.138-95.379-25.789-95.269-25.548z"/>
</g>
<g id="Online_Shopping-Shopping-Smartphone-Shopping_Bag-Commerce">
	<path fill="#336699" d="M74.094,24.467c0-1.709-1.386-3.095-3.095-3.095c-1.71,0-3.095,1.386-3.095,3.095v1.547h6.189V24.467z"/>
	<path fill="#336699" d="M80.283,29.109h-3.095v3.095h-3.095v-3.095h-6.189v3.095h-3.096v-3.095h-3.095v12.379h18.569V29.109z"/>
	<path fill="#336699" d="M43.145,70.891c0.854,0,1.547-0.692,1.547-1.548c0-0.854-0.693-1.547-1.547-1.547h-6.19
		c-0.855,0-1.548,0.693-1.548,1.547c0,0.855,0.693,1.548,1.548,1.548H43.145z"/>
	<path fill="#336699" d="M54.503,53.761l-10.105,1.888c-0.6,0.107-1.208-0.139-1.563-0.635c-0.346-0.497-0.37-1.149-0.063-1.671
		l5.231-8.868c-5.073-12.68,1.096-27.071,13.776-32.144c0.413-0.165,0.829-0.319,1.25-0.461c-0.817-3.489-3.922-5.96-7.506-5.973
		H24.574c-4.273,0-7.737,3.464-7.737,7.737v55.708c-0.003,0.312,0.018,0.621,0.062,0.93l5.261-9.115
		c0.813-1.432,2.168-2.476,3.76-2.894c3.292-0.884,6.676,1.069,7.559,4.361c0.358,1.336,0.258,2.754-0.286,4.025
		c0.864-1.22,2.265-1.946,3.76-1.95h6.19c2.564,0,4.643,2.079,4.643,4.643c0,2.564-2.079,4.643-4.643,4.643h-6.19
		c-2.561-0.007-4.635-2.081-4.643-4.643c0.006-0.5,0.096-0.997,0.263-1.469l-5.323,9.207h28.272c4.274,0,7.738-3.464,7.738-7.738
		V58.82C60.023,57.758,57.041,56.035,54.503,53.761L54.503,53.761z M44.692,30.657h-6.19v-3.095h6.19V30.657z M27.669,8.992h3.095
		v3.095h-3.095V8.992z M35.407,32.204c0.011,4.285-3.453,7.767-7.737,7.777c-4.284,0.011-7.767-3.454-7.777-7.738
		c-0.011-4.284,3.452-7.767,7.737-7.777c1.527-0.004,3.021,0.443,4.295,1.285l2.382-2.383l2.198,2.197l-2.383,2.383
		C34.959,29.21,35.406,30.69,35.407,32.204L35.407,32.204z M33.859,12.086V8.992h12.38v3.095H33.859z M38.502,33.752h6.19v3.094
		h-6.19V33.752z"/>
	<path fill="#336699" d="M27.216,34.845l-2.188-2.188l4.63-4.631c-0.62-0.303-1.299-0.462-1.989-0.464
		c-2.564,0-4.643,2.079-4.643,4.642c0,2.564,2.079,4.642,4.643,4.642s4.643-2.078,4.643-4.642c-0.002-0.689-0.162-1.369-0.464-1.988
		L27.216,34.845z"/>
	<path fill="#336699" d="M80.283,46.131v-1.548H61.714v1.548c0,0.855,0.692,1.547,1.548,1.547h15.474
		C79.591,47.679,80.283,46.986,80.283,46.131z"/>
	<path fill="#336699" d="M23.229,77.854c-0.274,0.492-0.269,1.092,0.015,1.579l3.312,5.509c0.726,1.199,1.11,2.574,1.114,3.977
		v5.184H6.005V68.09c0.005-2.009,0.443-3.993,1.284-5.818l6.454-14.004v21.076c-0.001,1.849,0.473,3.666,1.377,5.277
		c0.349,0.78,1.264,1.13,2.044,0.781c0.299-0.133,0.547-0.358,0.71-0.642l6.964-12.055c0.406-0.715,1.08-1.237,1.872-1.455
		c0.794-0.203,1.638-0.093,2.353,0.31c1.481,0.853,1.99,2.745,1.137,4.227c-0.002,0.005-0.005,0.009-0.007,0.014L23.229,77.854z"/>
	<path fill="#336699" d="M88.748,22.873c-6.879-9.79-20.392-12.149-30.182-5.27C50.146,23.52,47.05,34.545,51.16,43.98
		c0.188,0.458,0.152,0.978-0.092,1.408l-3.901,6.592l7.536-1.407c0.093-0.014,0.186-0.019,0.279-0.017
		c0.396-0.001,0.777,0.148,1.067,0.418c8.662,8.255,22.375,7.925,30.63-0.736C93.795,42.772,94.66,31.324,88.748,22.873
		L88.748,22.873z M83.378,46.131c-0.007,2.561-2.081,4.635-4.643,4.642H63.262c-2.561-0.007-4.635-2.082-4.643-4.642V27.562
		c0-0.855,0.692-1.548,1.547-1.548h4.643v-1.547c0-3.419,2.771-6.19,6.19-6.19c3.418,0,6.189,2.771,6.189,6.19v1.547h4.643
		c0.854,0,1.547,0.693,1.547,1.548V46.131z"/>
</g>
</svg>
