<?xml version="1.0" encoding="utf-8"?>
<!-- Generator: Adobe Illustrator 16.0.0, SVG Export Plug-In . SVG Version: 6.00 Build 0)  -->
<!DOCTYPE svg PUBLIC "-//W3C//DTD SVG 1.1//EN" "http://www.w3.org/Graphics/SVG/1.1/DTD/svg11.dtd">
<svg version="1.1" id="Layer_1" xmlns="http://www.w3.org/2000/svg" xmlns:xlink="http://www.w3.org/1999/xlink" x="0px" y="0px"
	 width="100px" height="100px" viewBox="0 0 100 100" enable-background="new 0 0 100 100" xml:space="preserve">
<path fill="#336699" d="M5.415,52.458c14.723,9.165,33.979,21.15,43.163,26.867c0.872,0.539,1.97,0.543,2.842,0
	c13.814-8.598,27.284-16.982,43.163-26.867c1.693-1.052,1.683-3.512,0-4.559l-4.201-2.616c-35.644,22.185,26.348-16.4-36.124,22.485
	c-2.606,1.621-5.91,1.623-8.518,0c-68.001-42.327,9.347,5.817-36.124-22.485l-4.201,2.616C3.722,48.952,3.733,51.414,5.415,52.458z"
	/>
<path fill="#336699" d="M5.415,36.34C26.459,49.438,33.99,54.124,48.578,63.206c0.872,0.539,1.97,0.543,2.842,0
	c30.517-18.994,10.197-6.347,43.163-26.866c1.679-1.044,1.691-3.494,0.013-4.553L51.432,4.563c-0.875-0.552-1.99-0.552-2.865,0
	L5.402,31.788C3.724,32.846,3.736,35.296,5.415,36.34z"/>
<path fill="#336699" d="M94.583,64.019l-4.201-2.614L54.258,83.888c-2.606,1.623-5.91,1.625-8.518,0L9.616,61.404l-4.201,2.614
	c-1.692,1.055-1.682,3.515,0,4.561l43.163,26.865c0.872,0.541,1.97,0.541,2.842,0l43.163-26.865
	C96.276,67.525,96.266,65.064,94.583,64.019z"/>
</svg>
