<?xml version="1.0" encoding="utf-8"?>
<!-- Generator: Adobe Illustrator 16.0.0, SVG Export Plug-In . SVG Version: 6.00 Build 0)  -->
<!DOCTYPE svg PUBLIC "-//W3C//DTD SVG 1.1//EN" "http://www.w3.org/Graphics/SVG/1.1/DTD/svg11.dtd">
<svg version="1.1" id="Layer_1" xmlns="http://www.w3.org/2000/svg" xmlns:xlink="http://www.w3.org/1999/xlink" x="0px" y="0px"
	 width="100px" height="100px" viewBox="0 0 100 100" enable-background="new 0 0 100 100" xml:space="preserve">
<path d="M50.727,9.419c-22.483,0-40.776,18.292-40.776,40.777c0,30.555,32.438,50.064,59.313,36.327
	c1.977-1.01,2.762-3.432,1.75-5.408c-1.01-1.979-3.432-2.762-5.409-1.75c-21.625,11.055-47.613-4.695-47.613-29.168
	c0-18.051,14.686-32.737,32.736-32.737c18.051,0,32.735,14.686,32.735,32.737v6.125c0,3.413-2.776,6.19-6.189,6.19
	c-3.412,0-6.188-2.777-6.188-6.19v-6.125c0-11.225-9.133-20.356-20.356-20.356c-11.225,0-20.357,9.131-20.357,20.356
	c0,11.224,9.133,20.355,20.356,20.355c5.787,0,11.015-2.426,14.726-6.316c2.557,3.807,6.899,6.316,11.819,6.316
	c7.847,0,14.23-6.383,14.23-14.229v-6.125C91.503,27.711,73.211,9.419,50.727,9.419z M50.727,62.512
	c-6.79,0-12.316-5.526-12.316-12.316c0-6.791,5.526-12.316,12.316-12.316c6.791,0,12.316,5.525,12.316,12.316
	C63.043,56.985,57.518,62.512,50.727,62.512z"/>
</svg>
