<?xml version="1.0" encoding="utf-8"?>
<!-- Generator: Adobe Illustrator 16.0.0, SVG Export Plug-In . SVG Version: 6.00 Build 0)  -->
<!DOCTYPE svg PUBLIC "-//W3C//DTD SVG 1.1//EN" "http://www.w3.org/Graphics/SVG/1.1/DTD/svg11.dtd">
<svg version="1.1" id="Layer_1" xmlns="http://www.w3.org/2000/svg" xmlns:xlink="http://www.w3.org/1999/xlink" x="0px" y="0px"
	 width="100px" height="100px" viewBox="0 0 100 100" enable-background="new 0 0 100 100" xml:space="preserve">
<path d="M80.596,13.876H20.452c-6.289,0-11.405,5.115-11.405,11.405v36.806c0,6.275,5.094,11.383,11.364,11.405v16.702
	l24.002-16.702h36.182C86.884,73.492,92,68.376,92,62.087V25.281C92,18.991,86.884,13.876,80.596,13.876z M87.14,62.087
	c0,3.608-2.937,6.545-6.544,6.545H42.89L25.271,80.89V68.632h-4.819c-3.609,0-6.544-2.937-6.544-6.545V25.281
	c0-3.609,2.936-6.544,6.544-6.544h60.144c3.607,0,6.544,2.935,6.544,6.544V62.087z"/>
</svg>
