<?xml version="1.0" encoding="utf-8"?>
<!-- Generator: Adobe Illustrator 16.0.0, SVG Export Plug-In . SVG Version: 6.00 Build 0)  -->
<!DOCTYPE svg PUBLIC "-//W3C//DTD SVG 1.1//EN" "http://www.w3.org/Graphics/SVG/1.1/DTD/svg11.dtd">
<svg version="1.1" id="Layer_1" xmlns="http://www.w3.org/2000/svg" xmlns:xlink="http://www.w3.org/1999/xlink" x="0px" y="0px"
	 width="100px" height="100px" viewBox="0 0 100 100" enable-background="new 0 0 100 100" xml:space="preserve">
<g>
	<g>
		<path d="M51.329,53.97c0.083,0,0.166,0,0.267,0c0.033,0,0.066,0,0.1,0c0.05,0,0.117,0,0.167,0
			c4.87-0.083,8.812-1.797,11.723-5.072c6.401-7.217,5.337-19.588,5.221-20.769c-0.416-8.863-4.605-13.103-8.064-15.082
			c-2.577-1.48-5.587-2.278-8.946-2.345h-0.116c-0.017,0-0.05,0-0.066,0h-0.101c-1.845,0-5.47,0.299-8.945,2.278
			c-3.492,1.979-7.75,6.219-8.165,15.148c-0.116,1.18-1.18,13.552,5.222,20.769C42.517,52.173,46.458,53.887,51.329,53.97z
			 M38.842,28.544c0-0.05,0.016-0.1,0.016-0.133c0.549-11.922,9.012-13.203,12.637-13.203h0.067c0.033,0,0.083,0,0.133,0
			c4.489,0.1,12.122,1.929,12.639,13.203c0,0.05,0,0.1,0.016,0.133c0.017,0.117,1.181,11.424-4.107,17.376
			c-2.095,2.362-4.889,3.525-8.563,3.559c-0.033,0-0.05,0-0.083,0l0,0c-0.033,0-0.05,0-0.084,0
			c-3.657-0.033-6.467-1.197-8.546-3.559C37.694,40.001,38.825,28.645,38.842,28.544z"/>
		<path d="M85.767,74.488c0-0.017,0-0.033,0-0.05c0-0.133-0.017-0.267-0.017-0.415c-0.101-3.293-0.316-10.992-7.532-13.453
			c-0.051-0.017-0.116-0.033-0.167-0.05c-7.499-1.912-13.734-6.235-13.801-6.285c-1.015-0.714-2.412-0.465-3.126,0.549
			c-0.716,1.014-0.466,2.41,0.548,3.126c0.283,0.199,6.9,4.805,15.183,6.934c3.873,1.38,4.306,5.521,4.423,9.312
			c0,0.15,0,0.283,0.016,0.416c0.018,1.496-0.083,3.808-0.349,5.139c-2.694,1.528-13.253,6.817-29.315,6.817
			c-15.997,0-26.622-5.305-29.333-6.835c-0.266-1.33-0.382-3.642-0.349-5.138c0-0.134,0.017-0.266,0.017-0.416
			c0.116-3.791,0.549-7.931,4.422-9.311c8.281-2.13,14.899-6.752,15.182-6.936c1.014-0.715,1.264-2.11,0.548-3.125
			c-0.714-1.015-2.112-1.265-3.126-0.549c-0.066,0.05-6.268,4.373-13.801,6.286c-0.066,0.016-0.116,0.032-0.166,0.049
			c-7.217,2.478-7.433,10.177-7.533,13.452c0,0.149,0,0.283-0.017,0.415c0,0.018,0,0.034,0,0.051
			c-0.016,0.863-0.033,5.304,0.849,7.532c0.166,0.434,0.466,0.799,0.864,1.048C19.686,83.385,31.642,91,51.646,91
			s31.959-7.632,32.458-7.948c0.383-0.249,0.698-0.614,0.864-1.048C85.8,79.793,85.782,75.353,85.767,74.488z"/>
	</g>
</g>
</svg>
