<?xml version="1.0" encoding="utf-8"?>
<!-- Generator: Adobe Illustrator 16.0.0, SVG Export Plug-In . SVG Version: 6.00 Build 0)  -->
<!DOCTYPE svg PUBLIC "-//W3C//DTD SVG 1.1//EN" "http://www.w3.org/Graphics/SVG/1.1/DTD/svg11.dtd">
<svg version="1.1" id="Layer_1" xmlns="http://www.w3.org/2000/svg" xmlns:xlink="http://www.w3.org/1999/xlink" x="0px" y="0px"
	 width="100px" height="100px" viewBox="0 0 100 100" enable-background="new 0 0 100 100" xml:space="preserve">
<g>
	<path d="M67.795,13h-33.4c-2.784,0-5.061,2.275-5.061,5.061v64.795c0,2.784,2.277,5.063,5.061,5.063h33.4
		c2.782,0,5.061-2.274,5.061-5.061V18.061C72.855,15.275,70.577,13,67.795,13z M45.752,16.648h10.684
		c0.34,0,0.613,0.273,0.613,0.614c0,0.337-0.273,0.611-0.613,0.611H45.752c-0.338,0-0.614-0.274-0.614-0.611
		C45.138,16.921,45.415,16.648,45.752,16.648z M51.095,85.389c-1.398,0-2.53-1.133-2.53-2.533c0-1.401,1.132-2.529,2.53-2.529
		c1.396,0,2.529,1.128,2.529,2.529C53.624,84.256,52.491,85.389,51.095,85.389z M69.334,78.554H32.854V21.025h36.479V78.554z"/>
</g>
</svg>
