<svg xmlns="http://www.w3.org/2000/svg" viewBox="0 0 812 812" width="812" height="812" preserveAspectRatio="xMidYMid slice" style="width: 100%; height: 100%; transform: translate3d(0px, 0px, 0px);"><defs><clipPath id="__lottie_element_604"><rect width="812" height="812" x="0" y="0"></rect></clipPath></defs><g clip-path="url(#__lottie_element_604)"><g transform="matrix(0.8720055222511292,0,0,1,61.84081268310547,364.04901123046875)" opacity="1" style="display: block;"><g opacity="1" transform="matrix(1,0,0,1,0,0)"><path fill="rgb(120,226,232)" fill-opacity="1" d=" M-19.93600082397461,155.0489959716797 C-19.93600082397461,155.0489959716797 19.93600082397461,155.0489959716797 19.93600082397461,155.0489959716797 C19.93600082397461,155.0489959716797 19.93600082397461,-155.0489959716797 19.93600082397461,-155.0489959716797 C19.93600082397461,-155.0489959716797 -19.93600082397461,-155.0489959716797 -19.93600082397461,-155.0489959716797 C-19.93600082397461,-155.0489959716797 -19.93600082397461,155.0489959716797 -19.93600082397461,155.0489959716797z"></path></g></g><g transform="matrix(0.8523867726325989,0,0,1,122.6926498413086,409.7040100097656)" opacity="1" style="display: block;"><g opacity="1" transform="matrix(1,0,0,1,0,0)"><path fill="rgb(222,54,79)" fill-opacity="1" d=" M-19.93600082397461,155.0489959716797 C-19.93600082397461,155.0489959716797 19.93600082397461,155.0489959716797 19.93600082397461,155.0489959716797 C19.93600082397461,155.0489959716797 19.93600082397461,-155.0489959716797 19.93600082397461,-155.0489959716797 C19.93600082397461,-155.0489959716797 -19.93600082397461,-155.0489959716797 -19.93600082397461,-155.0489959716797 C-19.93600082397461,-155.0489959716797 -19.93600082397461,155.0489959716797 -19.93600082397461,155.0489959716797z"></path></g></g><g transform="matrix(0.8720055222511292,0,0,1,184.59181213378906,455.95098876953125)" opacity="1" style="display: block;"><g opacity="1" transform="matrix(1,0,0,1,0,0)"><path fill="rgb(255,255,255)" fill-opacity="1" d=" M-19.93600082397461,155.0489959716797 C-19.93600082397461,155.0489959716797 19.93600082397461,155.0489959716797 19.93600082397461,155.0489959716797 C19.93600082397461,155.0489959716797 19.93600082397461,-155.0489959716797 19.93600082397461,-155.0489959716797 C19.93600082397461,-155.0489959716797 -19.93600082397461,-155.0489959716797 -19.93600082397461,-155.0489959716797 C-19.93600082397461,-155.0489959716797 -19.93600082397461,155.0489959716797 -19.93600082397461,155.0489959716797z"></path></g></g><g transform="matrix(0.8523867726325989,0,0,1,245.4436492919922,364.04901123046875)" opacity="0.8" style="display: block;"><g opacity="1" transform="matrix(1,0,0,1,0,0)"><path fill="rgb(120,226,232)" fill-opacity="1" d=" M-19.93600082397461,155.0489959716797 C-19.93600082397461,155.0489959716797 19.93600082397461,155.0489959716797 19.93600082397461,155.0489959716797 C19.93600082397461,155.0489959716797 19.93600082397461,-155.0489959716797 19.93600082397461,-155.0489959716797 C19.93600082397461,-155.0489959716797 -19.93600082397461,-155.0489959716797 -19.93600082397461,-155.0489959716797 C-19.93600082397461,-155.0489959716797 -19.93600082397461,155.0489959716797 -19.93600082397461,155.0489959716797z"></path></g></g><g transform="matrix(0.8720055222511292,0,0,1,307.3418273925781,409.7040100097656)" opacity="0.8" style="display: block;"><g opacity="1" transform="matrix(1,0,0,1,0,0)"><path fill="rgb(222,54,79)" fill-opacity="1" d=" M-19.93600082397461,155.0489959716797 C-19.93600082397461,155.0489959716797 19.93600082397461,155.0489959716797 19.93600082397461,155.0489959716797 C19.93600082397461,155.0489959716797 19.93600082397461,-155.0489959716797 19.93600082397461,-155.0489959716797 C19.93600082397461,-155.0489959716797 -19.93600082397461,-155.0489959716797 -19.93600082397461,-155.0489959716797 C-19.93600082397461,-155.0489959716797 -19.93600082397461,155.0489959716797 -19.93600082397461,155.0489959716797z"></path></g></g><g transform="matrix(0.8523867726325989,0,0,1,368.1936340332031,455.95098876953125)" opacity="0.8" style="display: block;"><g opacity="1" transform="matrix(1,0,0,1,0,0)"><path fill="rgb(150,53,82)" fill-opacity="1" d=" M-19.93600082397461,155.0489959716797 C-19.93600082397461,155.0489959716797 19.93600082397461,155.0489959716797 19.93600082397461,155.0489959716797 C19.93600082397461,155.0489959716797 19.93600082397461,-155.0489959716797 19.93600082397461,-155.0489959716797 C19.93600082397461,-155.0489959716797 -19.93600082397461,-155.0489959716797 -19.93600082397461,-155.0489959716797 C-19.93600082397461,-155.0489959716797 -19.93600082397461,155.0489959716797 -19.93600082397461,155.0489959716797z"></path></g></g><g transform="matrix(0.8720055222511292,0,0,1,430.0918273925781,364.04901123046875)" opacity="0.4" style="display: block;"><g opacity="1" transform="matrix(1,0,0,1,0,0)"><path fill="rgb(120,226,232)" fill-opacity="1" d=" M-19.93600082397461,155.0489959716797 C-19.93600082397461,155.0489959716797 19.93600082397461,155.0489959716797 19.93600082397461,155.0489959716797 C19.93600082397461,155.0489959716797 19.93600082397461,-155.0489959716797 19.93600082397461,-155.0489959716797 C19.93600082397461,-155.0489959716797 -19.93600082397461,-155.0489959716797 -19.93600082397461,-155.0489959716797 C-19.93600082397461,-155.0489959716797 -19.93600082397461,155.0489959716797 -19.93600082397461,155.0489959716797z"></path></g></g><g transform="matrix(0.8523867726325989,0,0,1,490.94464111328125,409.7040100097656)" opacity="0.4" style="display: block;"><g opacity="1" transform="matrix(1,0,0,1,0,0)"><path fill="rgb(222,54,79)" fill-opacity="1" d=" M-19.93600082397461,155.0489959716797 C-19.93600082397461,155.0489959716797 19.93600082397461,155.0489959716797 19.93600082397461,155.0489959716797 C19.93600082397461,155.0489959716797 19.93600082397461,-155.0489959716797 19.93600082397461,-155.0489959716797 C19.93600082397461,-155.0489959716797 -19.93600082397461,-155.0489959716797 -19.93600082397461,-155.0489959716797 C-19.93600082397461,-155.0489959716797 -19.93600082397461,155.0489959716797 -19.93600082397461,155.0489959716797z"></path></g></g><g transform="matrix(0.8720055222511292,0,0,1,552.8428344726562,455.95098876953125)" opacity="0.4" style="display: block;"><g opacity="1" transform="matrix(1,0,0,1,0,0)"><path fill="rgb(150,53,82)" fill-opacity="1" d=" M-19.93600082397461,155.0489959716797 C-19.93600082397461,155.0489959716797 19.93600082397461,155.0489959716797 19.93600082397461,155.0489959716797 C19.93600082397461,155.0489959716797 19.93600082397461,-155.0489959716797 19.93600082397461,-155.0489959716797 C19.93600082397461,-155.0489959716797 -19.93600082397461,-155.0489959716797 -19.93600082397461,-155.0489959716797 C-19.93600082397461,-155.0489959716797 -19.93600082397461,155.0489959716797 -19.93600082397461,155.0489959716797z"></path></g></g><g transform="matrix(0.8523867726325989,0,0,1,613.6946411132812,364.04901123046875)" opacity="0.2" style="display: block;"><g opacity="1" transform="matrix(1,0,0,1,0,0)"><path fill="rgb(120,226,232)" fill-opacity="1" d=" M-19.93600082397461,155.0489959716797 C-19.93600082397461,155.0489959716797 19.93600082397461,155.0489959716797 19.93600082397461,155.0489959716797 C19.93600082397461,155.0489959716797 19.93600082397461,-155.0489959716797 19.93600082397461,-155.0489959716797 C19.93600082397461,-155.0489959716797 -19.93600082397461,-155.0489959716797 -19.93600082397461,-155.0489959716797 C-19.93600082397461,-155.0489959716797 -19.93600082397461,155.0489959716797 -19.93600082397461,155.0489959716797z"></path></g></g><g transform="matrix(0.8720055222511292,0,0,1,675.5928344726562,409.7040100097656)" opacity="0.2" style="display: block;"><g opacity="1" transform="matrix(1,0,0,1,0,0)"><path fill="rgb(222,54,79)" fill-opacity="1" d=" M-19.93600082397461,155.0489959716797 C-19.93600082397461,155.0489959716797 19.93600082397461,155.0489959716797 19.93600082397461,155.0489959716797 C19.93600082397461,155.0489959716797 19.93600082397461,-155.0489959716797 19.93600082397461,-155.0489959716797 C19.93600082397461,-155.0489959716797 -19.93600082397461,-155.0489959716797 -19.93600082397461,-155.0489959716797 C-19.93600082397461,-155.0489959716797 -19.93600082397461,155.0489959716797 -19.93600082397461,155.0489959716797z"></path></g></g><g transform="matrix(0.8523867726325989,0,0,1,736.4446411132812,455.95098876953125)" opacity="0.2" style="display: block;"><g opacity="1" transform="matrix(1,0,0,1,0,0)"><path fill="rgb(150,53,82)" fill-opacity="1" d=" M-19.93600082397461,155.0489959716797 C-19.93600082397461,155.0489959716797 19.93600082397461,155.0489959716797 19.93600082397461,155.0489959716797 C19.93600082397461,155.0489959716797 19.93600082397461,-155.0489959716797 19.93600082397461,-155.0489959716797 C19.93600082397461,-155.0489959716797 -19.93600082397461,-155.0489959716797 -19.93600082397461,-155.0489959716797 C-19.93600082397461,-155.0489959716797 -19.93600082397461,155.0489959716797 -19.93600082397461,155.0489959716797z"></path></g></g><g transform="matrix(0.8720055222511292,0,0,1,-27.03218650817871,455.95098876953125)" opacity="0.2" style="display: block;"><g opacity="1" transform="matrix(1,0,0,1,0,0)"><path fill="rgb(150,53,82)" fill-opacity="1" d=" M-19.93600082397461,155.0489959716797 C-19.93600082397461,155.0489959716797 19.93600082397461,155.0489959716797 19.93600082397461,155.0489959716797 C19.93600082397461,155.0489959716797 19.93600082397461,-155.0489959716797 19.93600082397461,-155.0489959716797 C19.93600082397461,-155.0489959716797 -19.93600082397461,-155.0489959716797 -19.93600082397461,-155.0489959716797 C-19.93600082397461,-155.0489959716797 -19.93600082397461,155.0489959716797 -19.93600082397461,155.0489959716797z"></path></g></g></g></svg>