<?xml version="1.0" encoding="utf-8"?>
<!-- Generator: Adobe Illustrator 16.0.0, SVG Export Plug-In . SVG Version: 6.00 Build 0)  -->
<!DOCTYPE svg PUBLIC "-//W3C//DTD SVG 1.1//EN" "http://www.w3.org/Graphics/SVG/1.1/DTD/svg11.dtd">
<svg version="1.1" id="Capa_1" xmlns="http://www.w3.org/2000/svg" xmlns:xlink="http://www.w3.org/1999/xlink" x="0px" y="0px"
	 width="1920px" height="1080px" viewBox="0 0 1920 1080" enable-background="new 0 0 1920 1080" xml:space="preserve">
<g>
	<g>
		<path d="M1498.619,562.179c-5.461-27.582-26.512-49.442-53.869-55.938v-0.018l-12.739-140.207
			c33.052-22.083,41.945-66.78,19.862-99.832c-13.333-19.957-35.735-31.955-59.736-31.991c-12.449,0.077-24.66,3.421-35.412,9.699
			L1012.849,86.305c7.924-38.851-17.147-76.771-56.001-84.694c-38.851-7.924-76.771,17.15-84.694,56.001
			c-0.54,2.647-0.931,5.326-1.169,8.019l-263.717,93.082c-12.33-9.352-27.368-14.438-42.843-14.485
			c-39.751,0.104-71.89,32.414-71.786,72.164c0.063,24.123,12.206,46.61,32.344,59.892L481.51,595.186
			c-39.242,5.687-66.444,42.105-60.761,81.348s42.105,66.444,81.348,60.761c1.214-0.176,2.427-0.383,3.632-0.621l79.281,185.029
			c-27.861,28.241-27.551,73.723,0.69,101.582c28.241,27.86,73.723,27.55,101.581-0.691c3.84-3.891,7.22-8.207,10.081-12.865
			l192.767,13.766c8.502,38.697,46.766,63.178,85.464,54.676c31.343-6.885,54.301-33.747,56.219-65.778l257.617-67.782
			c14.665,36.948,56.505,55.009,93.45,40.347c36.945-14.663,55.009-56.505,40.347-93.451c-7.221-18.191-21.539-32.658-39.654-40.067
			l58.534-204.841C1481.021,638.888,1506.325,601.095,1498.619,562.179z M1392.137,270.183c19.876,0,35.987,16.111,35.987,35.987
			c0,19.877-16.111,35.988-35.987,35.988c-19.877,0-35.987-16.111-35.987-35.988
			C1356.149,286.294,1372.263,270.183,1392.137,270.183z M836.96,409.328l-84.373-65.641l68.179-88.907l116.959,10.796l7.324,95.277
			C904.563,364.278,866.445,381.373,836.96,409.328z M960.289,396.139c79.501,0,143.95,64.449,143.95,143.95
			s-64.449,143.95-143.95,143.95c-79.465-0.09-143.86-64.485-143.95-143.95C816.339,460.586,880.786,396.139,960.289,396.139z
			 M813.35,436.589c-21.284,29.969-32.807,65.771-33,102.528l-235.106,78.345c-0.468-0.504-0.828-1.08-1.296-1.565l186.775-243.617
			L813.35,436.589z M562.394,649.707l221.557-73.774c6.084,29.836,19.672,57.629,39.479,80.756L715.772,800.225L561.277,685.946
			c1.993-6.448,3.055-13.151,3.149-19.901C564.375,660.539,563.693,655.056,562.394,649.707z M849.573,681.735
			c66.82,52.603,161.422,50.947,226.361-3.958l31.525,29.563L798.867,861.637l-54.197-40.054L849.573,681.735z M1101.036,651.884
			c21.669-27.123,34.979-59.964,38.309-94.521l82.537,6.585l-77.679,124.967l-2.375,1.206L1101.036,651.884z M1262.224,567.205
			l94.036,7.521c0,0.468-0.145,0.9-0.145,1.368c0.036,2.213,0.504,4.336,0.702,6.514l-151.147,75.573L1262.224,567.205z
			 M1283.709,532.855l96.859-155.808c3.822,0.672,7.69,1.039,11.57,1.098c1.638,0,3.167-0.378,4.786-0.486l11.84,129.447
			c-17.679,5.005-32.769,16.595-42.159,32.389L1283.709,532.855z M1347.368,362.077l-104.094,167.485l-104.058-8.331
			c-2.285-21.438-8.443-42.283-18.174-61.521l212.614-111.903C1337.546,353.175,1342.161,357.977,1347.368,362.077z
			 M1320.936,313.836h0.018l-219.235,115.394c-29.537-37.769-72.94-62.166-120.559-67.765l-7.197-92.434l346.577,32.245
			c-0.126,1.638-0.504,3.221-0.504,4.894C1320.2,308.739,1320.499,311.299,1320.936,313.836z M996.814,118.585l318.795,146.055
			l-344.311-32.029l-7.197-92.164C976.837,136.363,988.17,128.788,996.814,118.585z M942.295,36.264
			c19.877,0,35.988,16.111,35.988,35.987c0,19.876-16.111,35.988-35.988,35.988c-19.876,0-35.987-16.111-35.987-35.988
			C906.308,52.375,922.419,36.264,942.295,36.264z M911.184,136.903c5.426,2.699,11.177,4.683,17.112,5.902l-0.09,0.072l6.64,86.37
			l-88.169-8.205L911.184,136.903z M876.798,101.743c1.892,4.202,4.187,8.21,6.855,11.966l-79.353,103.446l-169.572-15.763
			c-0.925-4.368-2.256-8.639-3.977-12.757L876.798,101.743z M632.803,237.29l145.642,13.549l-54.233,70.841l-95.366-74.116
			C630.424,244.245,631.746,240.81,632.803,237.29z M564.427,180.214c19.876,0,35.987,16.111,35.987,35.988
			s-16.111,35.987-35.987,35.987s-35.987-16.111-35.987-35.987S544.551,180.214,564.427,180.214z M559.746,287.655
			c1.584,0.144,3.077,0.522,4.679,0.522c14.769-0.012,29.17-4.6,41.224-13.136l96.662,75.178l-183.788,239.73L559.746,287.655z
			 M492.452,702.032c-19.877,0-35.988-16.111-35.988-35.987s16.111-35.987,35.988-35.987c19.876,0,35.987,16.111,35.987,35.987
			S512.326,702.032,492.452,702.032z M538.208,721.142c1.601-1.331,3.328-2.501,4.804-3.977l151.147,111.741l-53.601,71.472
			c-1.422,0-2.754-0.414-4.193-0.414c-6.844,0.097-13.639,1.188-20.171,3.238L538.208,721.142z M636.401,1007.926
			c-19.876,0-35.987-16.111-35.987-35.987s16.111-35.987,35.987-35.987c19.877,0,35.987,16.111,35.987,35.987
			S656.275,1007.926,636.401,1007.926z M684.461,918.839c-2.463-2.344-5.09-4.51-7.863-6.478l46.531-62.061l39.587,29.312
			L684.461,918.839z M891.679,987.503l-183.536-13.1c0-0.863,0.252-1.655,0.252-2.519c-0.102-7.767-1.482-15.464-4.084-22.78
			l90.958-45.542l100.009,73.918C893.829,980.727,892.628,984.077,891.679,987.503z M960.289,1043.913
			c-19.876,0-35.987-16.11-35.987-35.987c0-19.876,16.111-35.987,35.987-35.987s35.987,16.111,35.987,35.987
			C996.276,1027.803,980.163,1043.913,960.289,1043.913z M987.279,941.35c-22.919-9.461-49.118-6.256-69.078,8.457v0.036
			l-86.837-64.274l276.474-138.264L987.279,941.35z M1285.128,908.583l-0.036,0.071l-260.027,68.358
			c-2.414-4.962-5.39-9.629-8.871-13.909l134.125-215.745l143.807,134.827C1289.408,890.301,1286.35,899.273,1285.128,908.583z
			 M1392.137,917.957c0,19.877-16.111,35.988-35.987,35.988c-19.877,0-35.987-16.111-35.987-35.988
			c0-19.876,16.11-35.987,35.987-35.987C1376.025,881.97,1392.137,898.081,1392.137,917.957z M1347.477,846.937
			c-9.967,1.155-19.575,4.406-28.196,9.536l-149.475-140.045l199.083-99.542c8.907,12.792,21.725,22.344,36.527,27.225
			L1347.477,846.937z M1428.124,612.063c-19.876,0-35.987-16.11-35.987-35.987c0-19.876,16.111-35.987,35.987-35.987
			s35.987,16.111,35.987,35.987C1464.111,595.95,1448,612.063,1428.124,612.063z"/>
	</g>
</g>
<path d="M1015,496h-24v-8c0-17.673-14.327-32-32-32s-32,14.327-32,32v8h-24c-4.418,0-8,3.582-8,8v96
	c0.039,13.238,10.762,23.961,24,24h80c13.238-0.039,23.961-10.762,24-24v-96C1023,499.582,1019.418,496,1015,496z M943,488
	c0-8.836,7.164-16,16-16s16,7.164,16,16v8h-32V488z M1007,600c0,4.418-3.582,8-8,8h-80c-4.418,0-8-3.582-8-8v-8h96V600z M1007,576
	h-96v-64h16v16h16v-16h32v16h16v-16h16V576z"/>
</svg>
