<?xml version="1.0" encoding="utf-8"?>
<!-- Generator: Adobe Illustrator 16.0.0, SVG Export Plug-In . SVG Version: 6.00 Build 0)  -->
<!DOCTYPE svg PUBLIC "-//W3C//DTD SVG 1.1//EN" "http://www.w3.org/Graphics/SVG/1.1/DTD/svg11.dtd">
<svg version="1.1" id="Capa_1" xmlns="http://www.w3.org/2000/svg" xmlns:xlink="http://www.w3.org/1999/xlink" x="0px" y="0px"
	 width="512px" height="512px" viewBox="0 0 512 512" enable-background="new 0 0 512 512" xml:space="preserve">
<path d="M475.091,235.516c-15.356,0-28.376,10.203-32.658,24.194h-21.766l-8.285-35.852c-1.035-4.477-5.153-7.749-9.743-7.749
	H382.76c3.975-12.113,6.688-25.707,7.483-41.47l54.951,0.01c4.284,13.976,17.3,24.168,32.654,24.168
	c18.831,0,34.151-15.327,34.151-34.167c0-18.855-15.32-34.194-34.151-34.194c-15.356,0-28.375,10.203-32.656,24.193l-54.981-0.01
	c-0.76-14.486-3.16-28.364-7.146-41.474h19.572c4.592,0,8.706-3.272,9.743-7.749l8.285-35.852h21.769
	c4.284,13.975,17.303,24.167,32.656,24.167c18.848,0,34.18-15.327,34.18-34.167c0-18.84-15.332-34.166-34.18-34.166
	c-15.354,0-28.371,10.191-32.656,24.166h-29.721c-4.564,0-8.409,3.063-9.605,7.244c-0.05,0.156-0.096,0.322-0.138,0.505
	l-8.284,35.852H375.48c-6.895-15.005-16.107-28.737-27.539-40.9c-3.781-4.025-10.109-4.221-14.135-0.438
	c-4.024,3.783-4.222,10.111-0.438,14.135c7.76,8.256,14.344,17.366,19.721,27.203h-31.828c-5.521,0-10,4.477-10,10s4.479,10,10,10
	h40.738c4.565,12.945,7.317,26.839,8.183,41.47l-61.781-0.012c-0.002,0-0.002,0-0.002,0c-5.522,0-10,4.476-10,9.998
	c-0.002,5.523,4.476,10.001,9.998,10.002l61.803,0.012c-0.92,16.052-4.094,29.526-8.719,41.474h-40.219c-5.521,0-10,4.477-10,10
	s4.479,10,10,10h30.562c-6.192,10.726-13.386,20.532-20.731,30.532c-15.658,21.318-31.799,43.313-38.396,75.341H174.421
	c-3.551-17.21-9.784-31.303-16.651-43.269c8.628-2.273,15.018-10.121,15.018-19.456v-2.87c8.003-2.377,15.712-5.578,23.046-9.57
	l2.046,2.048c3.796,3.797,8.852,5.888,14.237,5.888c5.385,0,10.441-2.091,14.237-5.889l20.069-20.083
	c7.846-7.85,7.846-20.624,0-28.474l-2.053-2.054c3.992-7.341,7.193-15.059,9.57-23.07h2.86c11.103,0,20.134-9.035,20.134-20.14
	v-28.391c0-11.105-9.031-20.14-20.134-20.14h-2.86c-2.377-8.011-5.578-15.728-9.57-23.07l2.053-2.054
	c7.845-7.85,7.845-20.623,0-28.474L226.354,52.83c-3.796-3.797-8.852-5.888-14.237-5.888c-5.385,0-10.441,2.091-14.237,5.889
	l-2.046,2.047c-7.335-3.993-15.043-7.194-23.046-9.571v-2.87c0-1.686-0.231-3.316-0.623-4.883
	c19.164-9.502,40.166-14.347,61.275-14.045c0.092,0.001,0.183,0.001,0.274,0c9.801-0.128,19.63,0.846,29.241,2.906
	c5.398,1.154,10.716-2.283,11.873-7.684c1.156-5.4-2.283-10.716-7.684-11.873c-11.028-2.363-22.321-3.493-33.562-3.349
	c-26.553-0.361-52.854,6.32-76.412,19.317c-1.455-0.335-2.962-0.53-4.517-0.53h-28.373c-11.102,0-20.134,9.035-20.134,20.14v2.87
	c-8.003,2.377-15.711,5.578-23.046,9.571l-2.046-2.047c-3.796-3.797-8.852-5.888-14.237-5.888c-5.385,0-10.441,2.091-14.237,5.889
	L30.512,72.917c-7.845,7.85-7.845,20.623,0,28.474l2.053,2.054c-3.992,7.342-7.193,15.059-9.57,23.07h-2.86
	C9.032,126.514,0,135.549,0,146.654v28.391c0,11.105,9.032,20.14,20.134,20.14h2.86c2.377,8.011,5.578,15.729,9.57,23.07
	l-2.053,2.054c-7.846,7.85-7.846,20.624,0,28.474l20.069,20.083c3.796,3.797,8.852,5.888,14.237,5.888
	c5.385,0,10.441-2.091,14.237-5.889l2.046-2.047c7.334,3.992,15.043,7.193,23.046,9.57v2.87c0,11.105,9.032,20.14,20.134,20.14
	h10.439c8.367,12.812,16.698,28.429,20.535,48.716c-8.038,5.842-13.277,15.308-13.277,25.979c0,8.573,3.379,16.366,8.866,22.134
	c-5.487,5.764-8.866,13.55-8.866,22.115c0,15.036,10.395,27.686,24.377,31.16v19.989c0,21.511,17.492,39.011,38.992,39.011h56.437
	c21.516,0,39.021-17.5,39.021-39.011V449.5c13.967-3.477,24.349-16.125,24.349-31.158c0-8.564-3.376-16.351-8.859-22.115
	c5.483-5.768,8.859-13.561,8.859-22.134c0-10.679-5.243-20.15-13.283-25.992c5.438-28.896,19.985-48.712,35.341-69.618
	c9.676-13.172,19.493-26.557,27.331-42.372h20.144l8.285,35.852c1.035,4.479,5.152,7.749,9.743,7.749h29.722
	c4.283,13.976,17.302,24.166,32.655,24.166c18.848,0,34.179-15.327,34.179-34.166C509.27,250.855,493.938,235.516,475.091,235.516z
	 M477.849,150.457c7.804,0,14.151,6.368,14.151,14.194c0,7.812-6.349,14.167-14.151,14.167c-7.802,0-14.149-6.355-14.149-14.167
	C463.698,156.825,470.046,150.457,477.849,150.457z M475.091,45.399c7.818,0,14.179,6.355,14.179,14.166
	c0,7.812-6.359,14.167-14.179,14.167c-7.803,0-14.151-6.355-14.151-14.167C460.939,51.754,467.288,45.399,475.091,45.399z
	 M152.788,268.668v10.59c0,0.059-0.087,0.141-0.134,0.141h-12.602c-0.022,0-0.044,0-0.067,0h-15.704
	c-0.047,0-0.134-0.082-0.134-0.141v-10.59c0-4.676-3.24-8.727-7.801-9.755c-11.199-2.524-21.794-6.925-31.489-13.08
	c-1.648-1.047-3.508-1.558-5.356-1.558c-2.584,0-5.146,1-7.076,2.931l-7.516,7.52c-0.043,0.044-0.139,0.043-0.182,0l-20.069-20.083
	c-0.038-0.038-0.038-0.16,0-0.198l7.516-7.521c3.308-3.31,3.878-8.471,1.372-12.423c-6.151-9.704-10.55-20.306-13.073-31.514
	c-1.027-4.563-5.079-7.804-9.756-7.804H20.134c-0.047,0-0.134-0.082-0.134-0.14v-28.391c0-0.058,0.087-0.14,0.134-0.14h10.583
	c4.677,0,8.729-3.241,9.756-7.804c2.523-11.207,6.922-21.81,13.073-31.514c2.506-3.953,1.936-9.114-1.372-12.423l-7.516-7.52
	c-0.039-0.039-0.039-0.161,0-0.199L64.727,66.97c0.043-0.043,0.139-0.042,0.182,0l7.516,7.521c3.312,3.313,8.479,3.883,12.433,1.374
	c9.696-6.155,20.291-10.556,31.488-13.08c4.563-1.028,7.802-5.08,7.802-9.755v-10.59c0-0.058,0.087-0.14,0.134-0.14h28.373
	c0.047,0,0.134,0.082,0.134,0.14v10.59c0,4.676,3.24,8.728,7.802,9.755c11.197,2.523,21.792,6.924,31.488,13.08
	c3.952,2.51,9.121,1.94,12.433-1.374l7.516-7.521c0.043-0.043,0.139-0.042,0.182,0l20.069,20.082c0.039,0.039,0.039,0.161,0,0.199
	l-7.516,7.52c-3.308,3.31-3.878,8.471-1.372,12.423c6.151,9.704,10.55,20.307,13.073,31.514c1.027,4.563,5.079,7.804,9.756,7.804
	h10.583c0.047,0,0.135,0.082,0.135,0.14v28.391c0,0.058-0.088,0.14-0.135,0.14H246.22c-4.677,0-8.729,3.241-9.756,7.804
	c-2.523,11.208-6.922,21.81-13.073,31.514c-2.506,3.952-1.936,9.113,1.372,12.423l7.516,7.521c0.038,0.038,0.038,0.16,0,0.198
	l-20.069,20.082c-0.043,0.043-0.139,0.043-0.182,0l-7.516-7.521c-3.312-3.313-8.479-3.884-12.433-1.374
	c-9.695,6.155-20.29,10.556-31.489,13.08C156.028,259.941,152.788,263.992,152.788,268.668z M280.805,469.49
	c0,10.481-8.531,19.011-19.021,19.011h-56.437c-10.473,0-18.992-8.528-18.992-19.011v-19.039h94.449L280.805,469.49L280.805,469.49z
	 M293.057,430.451H174.104c-6.686,0-12.125-5.434-12.125-12.11c0-6.678,5.439-12.109,12.125-12.109h118.953
	c6.67,0,12.098,5.433,12.098,12.109C305.152,425.018,299.727,430.451,293.057,430.451z M293.057,386.231H174.104
	c-6.686,0-12.125-5.445-12.125-12.139c0-6.678,5.439-12.109,12.125-12.109h118.953c6.67,0,12.098,5.433,12.098,12.109
	C305.152,380.785,299.727,386.231,293.057,386.231z M475.091,283.876c-7.803,0-14.151-6.354-14.151-14.166
	c0-7.827,6.35-14.194,14.151-14.194c7.818,0,14.179,6.368,14.179,14.194C489.27,277.521,482.909,283.876,475.091,283.876z"/>
<path d="M301.393,40.935l0.058,0.028c1.432,0.716,2.95,1.055,4.446,1.055c3.664,0,7.188-2.034,8.94-5.542
	c2.47-4.94,0.438-10.961-4.501-13.431c-4.939-2.47-10.947-0.468-13.416,4.472C294.45,32.459,296.452,38.465,301.393,40.935
	L301.393,40.935z"/>
<path d="M180.75,122H162v-6.25c0-13.807-11.193-25-25-25s-25,11.193-25,25V122H93.25c-3.452,0-6.25,2.798-6.25,6.25v75
	c0.03,10.342,8.408,18.72,18.75,18.75h62.5c10.342-0.03,18.72-8.408,18.75-18.75v-75C187,124.798,184.202,122,180.75,122z
	 M124.5,115.75c0-6.903,5.597-12.5,12.5-12.5s12.5,5.597,12.5,12.5V122h-25V115.75z M174.5,203.25c0,3.452-2.798,6.25-6.25,6.25
	h-62.5c-3.452,0-6.25-2.798-6.25-6.25V197h75V203.25z M174.5,184.5h-75v-50H112V147h12.5v-12.5h25V147H162v-12.5h12.5V184.5z"/>
</svg>
