<?xml version="1.0" encoding="utf-8"?>
<!-- Generator: Adobe Illustrator 16.0.0, SVG Export Plug-In . SVG Version: 6.00 Build 0)  -->
<!DOCTYPE svg PUBLIC "-//W3C//DTD SVG 1.1//EN" "http://www.w3.org/Graphics/SVG/1.1/DTD/svg11.dtd">
<svg version="1.1" id="Layer_1" xmlns="http://www.w3.org/2000/svg" xmlns:xlink="http://www.w3.org/1999/xlink" x="0px" y="0px"
	 width="80px" height="80px" viewBox="0 0 80 80" enable-background="new 0 0 80 80" xml:space="preserve">
<g id="smartphone-money-pay_in-pay_out-security">
	<path fill="#FFFFFF" d="M71.617,5.772H38.845c-1.937,0.007-3.505,1.575-3.511,3.513v17.006c-8.062-6.48-19.851-5.199-26.33,2.861
		c-6.48,8.061-5.199,19.85,2.861,26.33c6.854,5.51,16.615,5.51,23.469,0v17.006c0.006,1.938,1.574,3.508,3.511,3.512h32.772
		c1.938-0.004,3.506-1.573,3.512-3.512V9.283C75.123,7.348,73.555,5.779,71.617,5.772z M66.607,8.113l-0.585,2.342H44.438
		l-0.585-2.342H66.607z M23.627,57.273c-9.049,0-16.387-7.336-16.387-16.387S14.578,24.5,23.627,24.5
		c9.051,0,16.388,7.336,16.388,16.387C40.004,49.934,32.674,57.264,23.627,57.273z M72.789,72.49c0,0.646-0.524,1.17-1.172,1.17
		H38.845c-0.646,0-1.17-0.522-1.17-1.17V53.234c6.241-7.048,6.241-17.646,0-24.695V9.285c0-0.647,0.522-1.172,1.17-1.172h2.599
		l0.948,3.793c0.129,0.521,0.599,0.889,1.136,0.889h23.408c0.538,0,1.007-0.367,1.137-0.889l0.948-3.793h2.599
		c0.646,0,1.17,0.524,1.17,1.172V72.49L72.789,72.49z"/>
	<path fill="#FFFFFF" d="M31.82,9.285H16.604V6.943c0.001-0.646-0.522-1.171-1.168-1.173c-0.274,0-0.541,0.097-0.751,0.271
		l-7.023,5.854c-0.498,0.413-0.566,1.15-0.153,1.648c0.046,0.057,0.098,0.106,0.153,0.154l7.023,5.852
		c0.21,0.175,0.477,0.27,0.749,0.27c0.169,0,0.337-0.035,0.492-0.105c0.415-0.19,0.68-0.607,0.679-1.064v-2.341h15.217
		c0.646,0,1.17-0.524,1.17-1.17v-4.683C32.992,9.809,32.468,9.285,31.82,9.285z M30.65,13.966H15.435
		c-0.647,0-1.17,0.524-1.17,1.171v1.018l-4.026-3.359l4.026-3.359v1.02c0,0.646,0.522,1.17,1.17,1.17H30.65V13.966z"/>
	<path fill="#FFFFFF" d="M32.57,68.076l-7.023-5.852c-0.496-0.414-1.233-0.348-1.647,0.15c-0.175,0.211-0.271,0.477-0.271,0.75
		v2.343H8.412c-0.646,0-1.172,0.522-1.172,1.17v4.683c0,0.646,0.524,1.17,1.172,1.17h15.215v2.342c0,0.457,0.265,0.871,0.68,1.064
		C24.461,75.966,24.629,76,24.799,76c0.273,0.002,0.539-0.094,0.748-0.269l7.023-5.852c0.498-0.413,0.567-1.151,0.155-1.649
		C32.678,68.176,32.627,68.123,32.57,68.076z M25.969,72.338v-1.02c0-0.646-0.524-1.171-1.17-1.171H9.582v-2.341h15.215
		c0.646,0,1.171-0.523,1.171-1.17v-1.02l4.026,3.359L25.969,72.338z"/>
	<path fill="#FFFFFF" d="M23.627,35.035c1.293,0,2.342,1.047,2.342,2.34h2.341c-0.008-2.129-1.451-3.983-3.511-4.515v-2.508h-2.342
		v2.508c-2.5,0.644-4.004,3.19-3.359,5.689c0.531,2.065,2.396,3.51,4.531,3.508c1.293,0,2.341,1.049,2.341,2.341
		c0,1.293-1.048,2.342-2.341,2.342s-2.342-1.049-2.342-2.342h-2.342c0.01,2.128,1.452,3.983,3.512,4.516v2.508h2.342v-2.508
		c2.498-0.644,4.004-3.189,3.359-5.688c-0.531-2.067-2.396-3.511-4.531-3.508c-1.293,0-2.34-1.048-2.34-2.341
		S22.334,35.035,23.627,35.035z"/>
	<path fill="#FFFFFF" d="M13.697,30.955c-5.478,5.488-5.478,14.375,0,19.863l1.654-1.654c-4.564-4.573-4.564-11.979,0-16.554
		L13.697,30.955z"/>
	<path fill="#FFFFFF" d="M33.56,30.955l-1.655,1.655c4.564,4.574,4.564,11.979,0,16.554l1.655,1.654
		C39.035,45.33,39.035,36.443,33.56,30.955z"/>
	<path fill="#FFFFFF" d="M63.885,33.959l-8.193-3.512c-0.294-0.125-0.627-0.125-0.922,0l-8.193,3.512
		c-0.431,0.185-0.709,0.607-0.709,1.076v4.113c-0.004,2.174,0.857,4.262,2.399,5.795l6.137,6.135c0.457,0.457,1.198,0.457,1.655,0
		l6.136-6.135c1.541-1.533,2.406-3.621,2.399-5.795v-4.113C64.594,34.566,64.315,34.143,63.885,33.959z M62.254,39.148
		c0.004,1.553-0.614,3.043-1.715,4.141l-5.31,5.308l-5.31-5.308c-1.1-1.097-1.719-2.586-1.713-4.141v-3.343l7.021-3.009l7.023,3.009
		v3.343H62.254z"/>
	<path fill="#FFFFFF" d="M53.718,38.89l-1.655,1.655l2.341,2.341c0.457,0.457,1.198,0.457,1.655,0l4.682-4.683l-1.654-1.654
		l-3.854,3.854L53.718,38.89z"/>
</g>
</svg>
