<svg xmlns="http://www.w3.org/2000/svg" width="31" height="28.976" viewBox="0 0 31 28.976"><defs><style>.a{fill:#4eb4ff;fill-rule:evenodd;}</style></defs><path class="a" d="M14.822,28.976h-.009A14.9,14.9,0,0,1,4.335,24.726,14.258,14.258,0,0,1,4.347,4.238,14.9,14.9,0,0,1,14.821,0h.009a15.018,15.018,0,0,1,6.024,1.254,1.213,1.213,0,0,1,.634,1.616,1.264,1.264,0,0,1-1.653.62,12.478,12.478,0,0,0-5.006-1.042h-.007a12.381,12.381,0,0,0-8.7,3.521A11.827,11.827,0,0,0,2.5,14.481a12.194,12.194,0,0,0,12.31,12.047h.007a12.381,12.381,0,0,0,8.7-3.521,11.826,11.826,0,0,0,3.613-8.511V13.262a1.253,1.253,0,0,1,2.5,0V14.5A14.232,14.232,0,0,1,25.3,24.738a14.9,14.9,0,0,1-10.474,4.238"/><path class="a" d="M14.822,18.372a1.263,1.263,0,0,1-.885-.358L9.865,14.035a1.2,1.2,0,0,1,0-1.731,1.273,1.273,0,0,1,1.771,0l3.185,3.114L28.862,1.692a1.273,1.273,0,0,1,1.771,0,1.2,1.2,0,0,1,0,1.731L15.707,18.014a1.263,1.263,0,0,1-.885.358"/></svg>