<svg xmlns="http://www.w3.org/2000/svg" width="150.403" height="162.594" viewBox="0 0 150.403 162.594">
  <path id="Union_12" data-name="Union 12" d="M101.2,145.559c0-10.182,4.194-15.917,10.712-15.917,4.1,0,9.893,2.282,9.893,16.5v1.639H107.58c0,7.023,2.416,7.842,4.148,7.842,1.413,0,2.871-.41,3.464-3.746h6.2c-1.549,9.013-6.564,9.715-9.937,9.715C107.671,161.594,101.2,160.189,101.2,145.559Zm6.382-2.749h7.84c-.182-6.027-1.642-7.2-3.692-7.2C108.218,135.611,107.625,140.586,107.58,142.809ZM83.6,156.912h-.183l-.182,3.569H77.717V119.518h6.2v13.635a5.5,5.5,0,0,1,5.241-3.511c6.52,0,8.889,6.846,8.889,15.859,0,8.954-2.324,16.093-8.842,16.093C86.514,161.594,84.919,160.248,83.6,156.912Zm.046-11.354c0,3.863.5,10.066,4.01,10.066,3.373,0,4.012-5.56,4.012-10.066,0-8.31-2.371-9.948-4.012-9.948C85.968,135.611,83.643,137.249,83.643,145.559Zm-31.039,0c0-9.188,3.19-15.917,10.439-15.917,7.2,0,10.439,6.728,10.439,15.917,0,9.305-3.283,16.034-10.439,16.034C55.841,161.593,52.6,154.864,52.6,145.559Zm6.382,0c0,8.719,2.188,10.066,4.057,10.066,2.644,0,4.057-2.459,4.057-10.066,0-8.076-1.687-9.948-4.057-9.948C61.174,135.611,58.986,137.015,58.986,145.559Zm-31-.059c0-7.608,1.914-15.858,8.843-15.858,2.416,0,3.555.878,5.288,3.16V119.518h6.152v40.963H42.754l-.183-3.568h-.227c-.958,2.809-3.009,4.681-5.607,4.681C30.583,161.593,27.985,154.4,27.985,145.5Zm6.383.118c0,3.862.5,10.065,4.01,10.065,3.373,0,4.011-5.559,4.011-10.065,0-8.311-2.37-9.95-4.011-9.95C36.691,135.669,34.367,137.308,34.367,145.618ZM20.1,160.482l-1.641-7.666H9.794l-1.6,7.666H1.225L10.8,119.518h6.7l9.572,40.964Zm-8.98-14.63h6.017l-3.01-15.332Zm76.783-42.5H69.514c0-.2-8.707-20.862-8.617-20.968H41.077c.106-.014,4.817-10.78,9.48-21.546,4.605-10.633,9.164-21.266,9.194-21.54.345.629,28.151,64.053,28.148,64.054ZM75.889,0h44.553c0,.26-.03,103.407-.03,103.263h0C120.3,103.269,75.889,0,75.889,0ZM.143,103.21C.143,103.066.045.03,0,0H43.087c.062-.014-10.626,25.795-21.354,51.6S.244,103.208.143,103.21ZM41.077,82.385h0Zm18.671-43.09s0,0,0,0Zm86.525-26.67V2.879l-3.455,9.746h-1.927l-3.419-9.746v9.746h-2.727V0h3.6l3.564,9.934L145.436,0H149V12.625Zm-18.8,0V2.406H123.58V0h10.51V2.406H130.2v10.22ZM0,0H0Z" transform="translate(0.902 0.5)" fill="#fff" stroke="rgba(0,0,0,0)" stroke-miterlimit="10" stroke-width="1"/>
</svg>
