<svg xmlns="http://www.w3.org/2000/svg" width="121.485" height="161.594" viewBox="0 0 121.485 161.594">
  <path id="Union_13" data-name="Union 13" d="M104.879,153.291a8.3,8.3,0,1,1,8.3,8.3A8.3,8.3,0,0,1,104.879,153.291Zm.637,0a7.665,7.665,0,1,0,7.665-7.663A7.666,7.666,0,0,0,105.516,153.292Zm-84.7,1.115a16.086,16.086,0,0,1,.872-2.712,59.8,59.8,0,0,0,2.473-10.27,12.808,12.808,0,0,0-3.052.726c-2.665,7.072-6.732,13.563-12.835,13.563-3.343,0-6.782-1.889-6.782-5.715a5.13,5.13,0,0,1,4.263-4.6C6.919,145.4,9,146.513,9,147.579c0,.1-.1.194-.243.29-1.792.975-3.875,1.356-3.875,4.118a2.924,2.924,0,0,0,.387,1.4,1.55,1.55,0,0,0,.679.147c3.68,0,7.071-4.118,9.783-9.4a10.069,10.069,0,0,1-2.374.33c-2.566,0-5.666-1.841-5.666-4.842,0-1.7,1.158-3.343,3.969-3.924a8.113,8.113,0,0,0-.194,1.55c0,1.751.728,3.64,2.858,3.64a13.69,13.69,0,0,0,3.1-.387,71.587,71.587,0,0,0,4.455-15.4,16.517,16.517,0,0,1,8.234-3.778.477.477,0,0,1,.387.146,7.167,7.167,0,0,1,.146,1.5c.1,2.324.194,4.7.194,7.071A82.291,82.291,0,0,1,28.227,151.6c-.774,2.76-1.163,4.165-4.5,4.165C22.27,155.765,20.817,155.327,20.817,154.407Zm4.36-27.17c-.63,2.761-1.55,7.41-3.1,12.158a13.732,13.732,0,0,1,2.422-.146h0c.579-4.019.869-8.137,1.1-12.251,0-.1-.049-.146-.1-.146A.472.472,0,0,0,25.177,127.237Zm92,24.972-1.343,2.208h-.387l-1.285-2.1-.1,3.369h-.826l.124-4.78h.85l1.45,2.315,1.422-2.315h.911l.149,4.78h-.88Zm-7.253,3.473v-3.957h-1.7V150.9h4.33v.826h-1.685v3.957Zm-50.065-3.7c-1.524,1.456-4.038,3.193-5.959,3.193-2.47,0-2.857-3.19-2.869-5.271a31.738,31.738,0,0,1,1.654-9.154,23.786,23.786,0,0,0-5.569,8.573,15.789,15.789,0,0,0-.1,1.984c0,1.308.146,2.035.146,3.439,0,.348-.241.679-1.017.679-1.889,0-4.359-1.017-4.359-3.585a47.5,47.5,0,0,1,2.374-13.32c-3.73,3.05-5.329,7.845-6.443,12.592a33.2,33.2,0,0,0,.146,3.73c0,.387-.436.581-1.066.581-1.743,0-4.359-.969-4.359-3.391,0-3.826,1.745-13.563,4.022-15.5a3.539,3.539,0,0,1,2.172-.54c.389,0,2.327.049,2.327.776a.18.18,0,0,1-.049.144,13.259,13.259,0,0,0-1.84,4.409c1.986-2.516,5.037-5.954,8.717-5.954.389,0,2.374.049,2.374.776a.184.184,0,0,1-.048.144,17.428,17.428,0,0,0-2.52,7.264c1.355-1.745,6.927-7.314,9.686-7.314.243,0,.436.049.436.436a41.829,41.829,0,0,0-2.033,10.849c0,2.035.338,3.827,1.4,4.214a6.288,6.288,0,0,1,2.519-1.692c0-5.328,4.312-13.851,10.608-13.851a4.433,4.433,0,0,1,3.638,2.422.353.353,0,0,1,.048.241c0,.634-.871,1.46-1.4,1.791.726.1,2.083.872,2.083,1.551,0,5.617-3.343,13.415-10.371,13.417A4.472,4.472,0,0,1,59.857,151.984Zm4.506-5.076c0,2.367.627,4.74,3.047,5.127a14.838,14.838,0,0,0,4.65-11.1,4.118,4.118,0,0,1-2.13.828.566.566,0,0,1-.485-.194,4.626,4.626,0,0,0-2.566-1.937A11.671,11.671,0,0,0,64.363,146.907Zm30.042,5.411c0-4.31,2.276-14.288,4.5-16.177a4.993,4.993,0,0,1,2.52-.531c1.015,0,1.984.243,1.984.776a.182.182,0,0,1-.048.146,13.806,13.806,0,0,0-1.654,3.68c1.347-1.212,5.127-4.263,7.111-4.263.244,0,.438.04.438.332a20.971,20.971,0,0,1-1.7,5.182,4.321,4.321,0,0,1-3,1.984.369.369,0,0,1-.387-.33.687.687,0,0,1,.1-.292,25.413,25.413,0,0,0,1.258-3.68,25.188,25.188,0,0,0-4.747,4.893v0a47.555,47.555,0,0,0-1,11.086c0,.29-.533.436-1.066.484C96.826,155.611,94.405,154.595,94.405,152.319ZM75.16,150.291a30.11,30.11,0,0,1,2.956-13.229,1.309,1.309,0,0,1,1.064-.726c1.017,0,3.391,1.745,3.439,2.616a38.176,38.176,0,0,0-2.953,13.755,14.054,14.054,0,0,0,.048,1.5v.006c3.632-4.116,4.993-9.349,7.068-14.484a5.258,5.258,0,0,1,4.164-3.439c.292,0,.485.146.485.438a14.012,14.012,0,0,1-.533,1.743,38.544,38.544,0,0,0-1.55,9.444,5.363,5.363,0,0,0,.969,3.778,6.514,6.514,0,0,1,3.391-1.937c.339,0,.63.106.63.436,0,.921-4.259,5.087-7.071,5.087-2.083,0-2.471-2.519-2.519-4.262-1.113,1.742-3.439,4.554-5.23,4.554C76.758,155.571,75.16,152.907,75.16,150.291Zm29.719,3h0Zm-53.9-50.125C6.054,73.7,0,49.69,0,30.1,0,12.1,12.1,0,30.1,0a30.176,30.176,0,0,1,25.15,13.616A30.177,30.177,0,0,1,80.4,0h.009C98.4,0,110.494,12.1,110.494,30.1c0,19.6-6.054,43.6-50.958,73.064l-4.289,2.769Zm6.166-47.728c.45,2.078-1.621,3.991-6.154,5.687.118.074.237.149.342.211,1.666,1.042,3.946,2.47,3.848,4.771-.106,2.356-2.738,3.951-4.709,4.944-.89.454-1.965,1.228-2.007,2.351a3.65,3.65,0,0,0,1.975,2.924,3.92,3.92,0,0,0,4.021.188C62.836,71.635,73.4,63.487,76.458,58A44.562,44.562,0,0,0,80.5,47.058c.5-1.864,1.021-3.792,1.719-5.923,1.234-3.766,3.722-4.457,5.48-3.9,3.006.948,5.106,5.655,3.43,11.148a9.736,9.736,0,0,0-.587,5.218A4.583,4.583,0,0,0,91.8,52.158c.531-.847,1.116-1.639,1.74-2.482,2.547-3.449,5.185-7.014,3.638-14.252a6.131,6.131,0,0,1,2.837-6.557,5.536,5.536,0,0,1,5.624-.237C105.025,14.1,95.267,4.789,80.4,4.789l-.007,0A25.376,25.376,0,0,0,57.421,19.531L56.05,22.518a6.588,6.588,0,0,0,1.959,4.631c1.958,1.7,5.542,1.877,10.362.511a1.6,1.6,0,1,1,.866,3.073c-6,1.7-10.493,1.3-13.342-1.183a9.3,9.3,0,0,1-2.956-5.986c-4.711,2.875-10.361,7.456-10.255,10.891.037,1.365,1.166,1.858,4.533,2.638,3.324.765,8.336,1.931,7.625,7.774-.415,3.4-3.093,5.362-8.685,6.365a2.689,2.689,0,0,0-.78.237,6.216,6.216,0,0,0,5.362,1.582c.568-.05,1.087-.074,1.561-.074C55.827,52.976,56.889,54.271,57.142,55.438ZM15.086,40.592a1.6,1.6,0,0,0,.95,2.008,15.869,15.869,0,0,0,4.826.679A18.987,18.987,0,0,0,32.44,39.31a1.591,1.591,0,0,0,.307-2.231l.012-.01a1.606,1.606,0,0,0-2.239-.311,15.3,15.3,0,0,1-13.456,2.825,1.594,1.594,0,0,0-1.978,1.009Z" fill="#fff"/>
</svg>
