<svg id="award-1" xmlns="http://www.w3.org/2000/svg" xmlns:xlink="http://www.w3.org/1999/xlink" width="193.991" height="254.098" viewBox="0 0 193.991 254.098">
  <defs>
    <radialGradient id="radial-gradient" cx="0.5" cy="0.5" r="1.371" gradientTransform="translate(0.367) scale(0.267 1)" gradientUnits="objectBoundingBox">
      <stop offset="0" stop-color="#c60600"/>
      <stop offset="1" stop-color="#930600"/>
    </radialGradient>
    <radialGradient id="radial-gradient-4" cx="0.519" cy="0.49" r="0.51" gradientTransform="translate(-0.81) scale(0.951 1)" xlink:href="#radial-gradient"/>
    <radialGradient id="radial-gradient-5" r="0.394" gradientTransform="translate(-0.509) scale(2.017 1)" xlink:href="#radial-gradient"/>
    <radialGradient id="radial-gradient-6" cy="0.502" r="0.492" gradientTransform="translate(-0.016) scale(1.033 1)" xlink:href="#radial-gradient"/>
    <radialGradient id="radial-gradient-7" cy="0.498" r="0.49" gradientTransform="translate(-0.021) scale(1.043 1)" xlink:href="#radial-gradient"/>
    <radialGradient id="radial-gradient-8" cx="0.498" r="0.438" gradientTransform="translate(-0.186) scale(1.372 1)" xlink:href="#radial-gradient"/>
    <radialGradient id="radial-gradient-9" cx="0.501" r="0.412" gradientTransform="translate(-0.335) scale(1.67 1)" xlink:href="#radial-gradient"/>
    <radialGradient id="radial-gradient-10" cx="0.501" cy="0.504" r="0.491" gradientTransform="translate(-0.017) scale(1.033 1)" xlink:href="#radial-gradient"/>
    <radialGradient id="radial-gradient-11" cx="0.501" cy="0.498" r="0.513" gradientTransform="translate(0.025) scale(0.949 1)" xlink:href="#radial-gradient"/>
    <radialGradient id="radial-gradient-12" cx="0.499" r="0.362" gradientTransform="translate(-1.771) scale(4.542 1)" xlink:href="#radial-gradient"/>
    <radialGradient id="radial-gradient-13" cx="0.499" cy="0.502" r="0.491" gradientTransform="translate(-0.017) scale(1.034 1)" xlink:href="#radial-gradient"/>
    <radialGradient id="radial-gradient-14" r="0.647" gradientTransform="translate(0.174) scale(0.652 1)" xlink:href="#radial-gradient"/>
    <radialGradient id="radial-gradient-15" cx="0.499" r="0.492" gradientTransform="translate(-0.016) scale(1.033 1)" xlink:href="#radial-gradient"/>
    <radialGradient id="radial-gradient-16" cx="0.501" r="0.412" gradientTransform="translate(-0.335) scale(1.67 1)" xlink:href="#radial-gradient"/>
    <radialGradient id="radial-gradient-17" cx="0.499" cy="0.499" r="0.508" gradientTransform="translate(0.016) scale(0.968 1)" xlink:href="#radial-gradient"/>
    <radialGradient id="radial-gradient-18" cy="0.498" r="0.49" gradientTransform="translate(-0.021) scale(1.043 1)" xlink:href="#radial-gradient"/>
    <radialGradient id="radial-gradient-19" r="0.5" gradientTransform="translate(0.002)" xlink:href="#radial-gradient"/>
  </defs>
  <path id="Path_616" data-name="Path 616" d="M193.913,5H5V217.5l94.456,36.34,94.456-36.34V5Z" transform="translate(-2.461 -2.461)" fill="#fff"/>
  <path id="Path_617" data-name="Path 617" d="M566.075,400.1l-97-37.315V146H663.071V362.782Zm-91.917-40.809,91.917,35.36,91.917-35.36V151.078H474.158Z" transform="translate(-469.08 -146)" fill="#8d0200"/>
  <path id="Path_618" data-name="Path 618" d="M29.92,380.56v12.188L111.681,424.2l81.761-31.455V380.56l-81.761,31.455Z" transform="translate(-14.726 -187.3)" fill="url(#radial-gradient)"/>
  <path id="Path_619" data-name="Path 619" d="M29.92,347.06v12.188L111.681,390.7l81.761-31.455V347.06l-81.761,31.455Z" transform="translate(-14.726 -170.813)" fill="url(#radial-gradient)"/>
  <path id="Path_620" data-name="Path 620" d="M29.92,313.56v12.188L111.681,357.2l81.761-31.455V313.56l-81.761,31.455Z" transform="translate(-14.726 -154.325)" fill="url(#radial-gradient)"/>
  <path id="Path_621" data-name="Path 621" d="M643.173,185.53s-8.577,1.117-8.674,1.412,6.19,6.236,6.19,6.236-1.59,8.506-1.341,8.684,7.846-3.956,7.846-3.956,7.617,4.139,7.841,3.956-1.336-8.684-1.336-8.684,6.287-5.942,6.191-6.236-8.674-1.412-8.674-1.412-3.717-7.81-4.022-7.81S643.173,185.53,643.173,185.53Z" transform="translate(-550.494 -161.612)" fill="url(#radial-gradient-4)"/>
  <path id="Path_622" data-name="Path 622" d="M623.483,298.2v3.865h-5.459v16.251h-4.89V302.065h-5.4V298.2Z" transform="translate(-537.319 -220.908)"/>
  <path id="Path_623" data-name="Path 623" d="M656.931,298.907a9.648,9.648,0,0,1,3.656,3.667,11.172,11.172,0,0,1,0,10.624,9.755,9.755,0,0,1-3.672,3.682,10.634,10.634,0,0,1-10.263,0,9.79,9.79,0,0,1-3.672-3.682,11.122,11.122,0,0,1,0-10.624,9.751,9.751,0,0,1,3.672-3.667,10.665,10.665,0,0,1,10.294,0Zm-8.958,4.748a7.018,7.018,0,0,0,0,8.43,5.368,5.368,0,0,0,7.577,0,6.973,6.973,0,0,0,0-8.42,5.4,5.4,0,0,0-7.617,0Z" transform="translate(-554.004 -220.604)"/>
  <path id="Path_624" data-name="Path 624" d="M691.845,311.251v7.054H687V298.2h7.882a7.708,7.708,0,0,1,5.459,1.777,6.287,6.287,0,0,1,1.874,4.789,6.6,6.6,0,0,1-.838,3.342,5.779,5.779,0,0,1-2.488,2.306,8.766,8.766,0,0,1-4.007.838Zm5.4-6.485q0-2.641-2.93-2.641h-2.473v5.231h2.473Q697.253,307.356,697.248,304.766Z" transform="translate(-576.334 -220.908)"/>
  <path id="Path_625" data-name="Path 625" d="M555.764,370.744H548.69a2.377,2.377,0,0,0,.584,1.656,1.9,1.9,0,0,0,1.356.508,1.828,1.828,0,0,0,1.148-.35,1.6,1.6,0,0,0,.6-.894h3.311a4.377,4.377,0,0,1-.878,1.93,4.7,4.7,0,0,1-1.716,1.331,5.434,5.434,0,0,1-2.326.508,5.515,5.515,0,0,1-2.656-.63,4.534,4.534,0,0,1-1.823-1.823,6.261,6.261,0,0,1,0-5.586,4.423,4.423,0,0,1,1.818-1.808,6.013,6.013,0,0,1,5.337,0,4.408,4.408,0,0,1,1.782,1.747,5.169,5.169,0,0,1,.63,2.585,4.306,4.306,0,0,1-.1.828Zm-3.611-2.824a1.99,1.99,0,0,0-1.381-.508,2.031,2.031,0,0,0-1.422.508,2.133,2.133,0,0,0-.64,1.523h3.981a1.874,1.874,0,0,0-.538-1.523Z" transform="translate(-506.758 -253.766)"/>
  <path id="Path_626" data-name="Path 626" d="M578.61,360.9a5.936,5.936,0,0,1,2.092,3.509H577.4a3.012,3.012,0,0,0-1.127-1.407,3.144,3.144,0,0,0-1.8-.508,2.742,2.742,0,0,0-2.214,1.016,4.692,4.692,0,0,0,0,5.368,2.768,2.768,0,0,0,2.214,1.016,3.143,3.143,0,0,0,1.8-.508A3.047,3.047,0,0,0,577.4,368H580.7a5.982,5.982,0,0,1-2.092,3.5,6.312,6.312,0,0,1-4.063,1.305,6.4,6.4,0,0,1-3.306-.833,5.642,5.642,0,0,1-2.2-2.331,7.907,7.907,0,0,1,0-6.835,5.642,5.642,0,0,1,2.2-2.331,6.443,6.443,0,0,1,3.306-.833,6.307,6.307,0,0,1,4.063,1.259Z" transform="translate(-517.894 -251.147)"/>
  <path id="Path_627" data-name="Path 627" d="M603.229,365.57a4.636,4.636,0,0,1,1.884,1.818,5.972,5.972,0,0,1,0,5.556,4.647,4.647,0,0,1-1.884,1.823,6.185,6.185,0,0,1-5.439,0,4.641,4.641,0,0,1-1.894-1.823,5.972,5.972,0,0,1,0-5.556,4.631,4.631,0,0,1,1.894-1.818A6.185,6.185,0,0,1,603.229,365.57ZM599,368.292a2.635,2.635,0,0,0-.609,1.874,2.6,2.6,0,0,0,.609,1.864,2.031,2.031,0,0,0,1.523.64,1.991,1.991,0,0,0,1.523-.64,2.62,2.62,0,0,0,.6-1.864,2.656,2.656,0,0,0-.6-1.874,1.981,1.981,0,0,0-1.524-.65,2.031,2.031,0,0,0-1.544.65Z" transform="translate(-531.158 -253.756)"/>
  <path id="Path_628" data-name="Path 628" d="M635.409,366.109a4.57,4.57,0,0,1,1.082,3.225v5.926h-3.113V369.7a2.092,2.092,0,0,0-.508-1.523,1.874,1.874,0,0,0-1.417-.538,1.935,1.935,0,0,0-1.473.574,2.28,2.28,0,0,0-.538,1.62v5.413h-3.128V369.7a2.108,2.108,0,0,0-.508-1.523,1.854,1.854,0,0,0-1.412-.538,1.95,1.95,0,0,0-1.478.569,2.24,2.24,0,0,0-.549,1.625v5.413H619.24V365.058h3.128v1.737a3.006,3.006,0,0,1,1.234-1.356,3.727,3.727,0,0,1,1.945-.508,3.966,3.966,0,0,1,2.067.538,3.418,3.418,0,0,1,1.351,1.549,4.064,4.064,0,0,1,1.457-1.523,3.794,3.794,0,0,1,2.031-.569,3.839,3.839,0,0,1,2.955,1.183Z" transform="translate(-542.984 -253.747)"/>
  <path id="Path_629" data-name="Path 629" d="M673.5,366.109a4.571,4.571,0,0,1,1.077,3.225v5.926h-3.108V369.7a2.092,2.092,0,0,0-.508-1.523,1.884,1.884,0,0,0-1.417-.538,1.93,1.93,0,0,0-1.473.574,2.28,2.28,0,0,0-.538,1.62v5.413h-3.128V369.7a2.087,2.087,0,0,0-.508-1.523,1.838,1.838,0,0,0-1.407-.538,1.945,1.945,0,0,0-1.478.569,2.24,2.24,0,0,0-.548,1.625v5.413H657.34V365.057h3.128v1.737a3.007,3.007,0,0,1,1.234-1.356,3.718,3.718,0,0,1,1.945-.508,3.981,3.981,0,0,1,2.052.538,3.418,3.418,0,0,1,1.351,1.549,4.063,4.063,0,0,1,1.452-1.523,3.8,3.8,0,0,1,2.031-.569A3.839,3.839,0,0,1,673.5,366.109Z" transform="translate(-561.736 -253.746)"/>
  <path id="Path_630" data-name="Path 630" d="M704.48,370.764H697.4a2.377,2.377,0,0,0,.589,1.656,1.879,1.879,0,0,0,1.351.508,1.844,1.844,0,0,0,1.153-.35,1.631,1.631,0,0,0,.6-.894H704.4a4.322,4.322,0,0,1-.878,1.93,4.622,4.622,0,0,1-1.716,1.331,5.415,5.415,0,0,1-2.321.508,5.525,5.525,0,0,1-2.661-.63A4.52,4.52,0,0,1,695.009,373a5.586,5.586,0,0,1-.66-2.778,5.714,5.714,0,0,1,.65-2.788,4.454,4.454,0,0,1,1.818-1.808,6.013,6.013,0,0,1,5.337,0,4.346,4.346,0,0,1,1.782,1.747,5.175,5.175,0,0,1,.635,2.585A4.311,4.311,0,0,1,704.48,370.764Zm-3.611-2.824a2,2,0,0,0-1.381-.508,2.031,2.031,0,0,0-1.427.508,2.174,2.174,0,0,0-.64,1.523h3.986A1.889,1.889,0,0,0,700.869,367.94Z" transform="translate(-579.95 -253.785)"/>
  <path id="Path_631" data-name="Path 631" d="M722.326,365.518a3.84,3.84,0,0,1,2-.548v3.347h-.889a3.1,3.1,0,0,0-1.925.508,2.138,2.138,0,0,0-.685,1.793v4.647H717.7V365.082h3.128v1.935A4.346,4.346,0,0,1,722.326,365.518Z" transform="translate(-591.443 -253.771)"/>
  <path id="Path_632" data-name="Path 632" d="M740.743,366.019a4.84,4.84,0,0,1,1.681,2.986h-3.311a1.732,1.732,0,0,0-.6-1.016,1.793,1.793,0,0,0-1.153-.366,1.671,1.671,0,0,0-1.356.65,3.651,3.651,0,0,0,0,3.783,1.681,1.681,0,0,0,1.356.65,1.792,1.792,0,0,0,1.153-.366,1.747,1.747,0,0,0,.6-1.016h3.311a4.84,4.84,0,0,1-1.681,2.991,5.078,5.078,0,0,1-3.311,1.087,5.536,5.536,0,0,1-2.661-.63,4.57,4.57,0,0,1-1.818-1.823,6.262,6.262,0,0,1,0-5.586,4.423,4.423,0,0,1,1.818-1.808,5.5,5.5,0,0,1,2.666-.63,5.078,5.078,0,0,1,3.306,1.092Z" transform="translate(-598.627 -253.749)"/>
  <path id="Path_633" data-name="Path 633" d="M764.524,370.764H757.45a2.377,2.377,0,0,0,.584,1.656,1.9,1.9,0,0,0,1.356.508,1.844,1.844,0,0,0,1.153-.35,1.6,1.6,0,0,0,.6-.894h3.311a4.323,4.323,0,0,1-.879,1.93,4.662,4.662,0,0,1-1.716,1.331,5.415,5.415,0,0,1-2.321.508,5.525,5.525,0,0,1-2.661-.63A4.489,4.489,0,0,1,755.059,373a5.586,5.586,0,0,1-.66-2.778,5.711,5.711,0,0,1,.65-2.788,4.422,4.422,0,0,1,1.818-1.808,6.013,6.013,0,0,1,5.337,0,4.407,4.407,0,0,1,1.782,1.747,5.169,5.169,0,0,1,.63,2.585A4.306,4.306,0,0,1,764.524,370.764Zm-3.611-2.824a1.976,1.976,0,0,0-1.376-.508,2.031,2.031,0,0,0-1.427.508,2.133,2.133,0,0,0-.64,1.523h3.986A1.874,1.874,0,0,0,760.914,367.94Z" transform="translate(-609.505 -253.785)"/>
  <path id="Path_634" data-name="Path 634" d="M568.3,409.629a5.728,5.728,0,0,1-2.341,2.3,7.47,7.47,0,0,1-3.6.823h-4.88V399.818h4.88a7.587,7.587,0,0,1,3.606.807,5.586,5.586,0,0,1,2.331,2.265,7.394,7.394,0,0,1,0,6.739Zm-3.367-.65a4.164,4.164,0,0,0,0-5.449,3.956,3.956,0,0,0-2.844-.97h-1.478v7.389h1.478a3.956,3.956,0,0,0,2.844-.97Z" transform="translate(-512.588 -270.92)"/>
  <path id="Path_635" data-name="Path 635" d="M592.956,410.744h-7.074a2.356,2.356,0,0,0,.584,1.656,1.884,1.884,0,0,0,1.351.508,1.833,1.833,0,0,0,1.153-.35,1.6,1.6,0,0,0,.6-.894h3.311a4.379,4.379,0,0,1-.879,1.93,4.678,4.678,0,0,1-1.722,1.331,5.393,5.393,0,0,1-2.321.508,5.535,5.535,0,0,1-2.661-.63,4.57,4.57,0,0,1-1.818-1.823,6.281,6.281,0,0,1,0-5.586,4.464,4.464,0,0,1,1.823-1.808,6.013,6.013,0,0,1,5.337,0,4.408,4.408,0,0,1,1.782,1.747,5.169,5.169,0,0,1,.63,2.585,4.3,4.3,0,0,1-.1.828Zm-3.611-2.823a1.99,1.99,0,0,0-1.381-.508,2.057,2.057,0,0,0-1.427.508,2.174,2.174,0,0,0-.64,1.523h3.986A1.874,1.874,0,0,0,589.345,407.921Z" transform="translate(-525.064 -273.452)"/>
  <path id="Path_636" data-name="Path 636" d="M610.036,412.335l2.214-7.145h3.326l-3.621,10.2h-3.875l-3.621-10.2h3.321Z" transform="translate(-535.71 -273.566)"/>
  <path id="Path_637" data-name="Path 637" d="M637.99,410.764H630.91a2.376,2.376,0,0,0,.589,1.656,1.879,1.879,0,0,0,1.351.508,1.843,1.843,0,0,0,1.153-.35,1.63,1.63,0,0,0,.6-.894h3.306a4.323,4.323,0,0,1-.878,1.93,4.622,4.622,0,0,1-1.716,1.331,5.414,5.414,0,0,1-2.321.508,5.524,5.524,0,0,1-2.661-.63A4.52,4.52,0,0,1,628.518,413a5.585,5.585,0,0,1-.66-2.778,5.713,5.713,0,0,1,.65-2.788,4.454,4.454,0,0,1,1.818-1.808,6.013,6.013,0,0,1,5.337,0,4.347,4.347,0,0,1,1.782,1.747,5.174,5.174,0,0,1,.635,2.585,4.3,4.3,0,0,1-.091.807Zm-3.611-2.823a2,2,0,0,0-1.381-.508,2.031,2.031,0,0,0-1.427.508,2.173,2.173,0,0,0-.64,1.523h3.986A1.889,1.889,0,0,0,634.379,407.94Z" transform="translate(-547.225 -273.472)"/>
  <path id="Path_638" data-name="Path 638" d="M654.313,398.64v13.529H651.19V398.64Z" transform="translate(-558.709 -270.342)"/>
  <path id="Path_639" data-name="Path 639" d="M668.564,405.569a4.607,4.607,0,0,1,1.884,1.818,5.972,5.972,0,0,1,0,5.556,4.616,4.616,0,0,1-1.884,1.823,5.774,5.774,0,0,1-2.712.63,5.864,5.864,0,0,1-2.727-.63,4.631,4.631,0,0,1-1.889-1.823,5.972,5.972,0,0,1,0-5.556,4.616,4.616,0,0,1,1.889-1.818,5.805,5.805,0,0,1,2.727-.63A5.713,5.713,0,0,1,668.564,405.569Zm-4.23,2.722a2.61,2.61,0,0,0-.614,1.874,2.579,2.579,0,0,0,.614,1.864,2,2,0,0,0,1.524.64,1.975,1.975,0,0,0,1.523-.64,2.62,2.62,0,0,0,.6-1.864,2.656,2.656,0,0,0-.6-1.874,1.971,1.971,0,0,0-1.524-.65A1.991,1.991,0,0,0,664.333,408.291Z" transform="translate(-563.316 -273.442)"/>
  <path id="Path_640" data-name="Path 640" d="M693.218,405.586a4.332,4.332,0,0,1,1.574,1.808,7.034,7.034,0,0,1,0,5.586,4.342,4.342,0,0,1-1.574,1.823,4.169,4.169,0,0,1-2.26.63,3.662,3.662,0,0,1-2.031-.508,3.046,3.046,0,0,1-1.229-1.442v6.708h-3.1V405.083h3.123v1.843a3.094,3.094,0,0,1,1.229-1.442,3.661,3.661,0,0,1,2.031-.508A4.129,4.129,0,0,1,693.218,405.586Zm-4.86,2.778a2.925,2.925,0,0,0,0,3.626,2.285,2.285,0,0,0,3.235,0,3.047,3.047,0,0,0,0-3.656,2.3,2.3,0,0,0-3.235,0Z" transform="translate(-575.153 -273.459)"/>
  <path id="Path_641" data-name="Path 641" d="M718.07,410.784h-7.059a2.377,2.377,0,0,0,.584,1.656,1.9,1.9,0,0,0,1.356.508,1.844,1.844,0,0,0,1.153-.35,1.6,1.6,0,0,0,.6-.894h3.311a4.321,4.321,0,0,1-.909,1.95,4.663,4.663,0,0,1-1.716,1.331,5.414,5.414,0,0,1-2.321.508,5.525,5.525,0,0,1-2.661-.63,4.49,4.49,0,0,1-1.818-1.823,5.586,5.586,0,0,1-.66-2.778,5.713,5.713,0,0,1,.65-2.788,4.423,4.423,0,0,1,1.818-1.808,6.013,6.013,0,0,1,5.337,0,4.408,4.408,0,0,1,1.782,1.747,5.17,5.17,0,0,1,.63,2.585A4.317,4.317,0,0,1,718.07,410.784Zm-3.611-2.823a1.975,1.975,0,0,0-1.376-.508,2.031,2.031,0,0,0-1.427.508,2.133,2.133,0,0,0-.64,1.523H715A1.874,1.874,0,0,0,714.459,407.96Z" transform="translate(-586.633 -273.492)"/>
  <path id="Path_642" data-name="Path 642" d="M735.946,405.518a3.87,3.87,0,0,1,2.031-.548v3.347h-.9a3.113,3.113,0,0,0-1.93.508,2.138,2.138,0,0,0-.686,1.793v4.647H731.34V405.081h3.123v1.935a4.433,4.433,0,0,1,1.483-1.5Z" transform="translate(-598.157 -273.457)"/>
  <path id="Path_643" data-name="Path 643" d="M753.391,405.9a4.24,4.24,0,0,1,1.452,2.539h-2.925a1.645,1.645,0,0,0-.574-.975,1.752,1.752,0,0,0-1.127-.355,1.229,1.229,0,0,0-.8.229.792.792,0,0,0-.269.675.762.762,0,0,0,.508.716,7.983,7.983,0,0,0,1.579.472,15.647,15.647,0,0,1,1.92.559,3.149,3.149,0,0,1,1.3.924A2.538,2.538,0,0,1,755,412.4a2.6,2.6,0,0,1-.477,1.554,3.088,3.088,0,0,1-1.371,1.061,5.293,5.293,0,0,1-2.118.386,5.459,5.459,0,0,1-3.311-.914,3.865,3.865,0,0,1-1.523-2.615h3.016a1.366,1.366,0,0,0,.559,1.016,2.092,2.092,0,0,0,1.254.345,1.173,1.173,0,0,0,.8-.244.838.838,0,0,0,.274-.65.777.777,0,0,0-.508-.757,9.461,9.461,0,0,0-1.635-.508,12.7,12.7,0,0,1-1.864-.508,3.082,3.082,0,0,1-1.264-.884,2.468,2.468,0,0,1-.508-1.676,2.727,2.727,0,0,1,1.041-2.219,4.529,4.529,0,0,1,2.94-.848A4.7,4.7,0,0,1,753.391,405.9Z" transform="translate(-605.47 -273.439)"/>
  <path id="Path_644" data-name="Path 644" d="M635.71,458.235c0-.777-.335-1.168-1.016-1.168a.934.934,0,0,0-.833.4,2.472,2.472,0,0,0-.29,1.234H631.2a3.8,3.8,0,0,1,1.112-2.758,3.717,3.717,0,0,1,2.585-.924,3.347,3.347,0,0,1,2.468.828,2.89,2.89,0,0,1,.833,2.143,4.569,4.569,0,0,1-1.122,2.869,10.634,10.634,0,0,1-2.686,2.367h3.966v1.96h-7.16v-1.818Q635.71,460.14,635.71,458.235Z" transform="translate(-548.866 -298.086)"/>
  <path id="Path_645" data-name="Path 645" d="M647.251,460.234a6.419,6.419,0,0,1,.95-3.717,4.061,4.061,0,0,1,6.094,0,7.719,7.719,0,0,1,0,7.455,4.051,4.051,0,0,1-6.094,0A6.474,6.474,0,0,1,647.251,460.234Zm5.586,0a5.28,5.28,0,0,0-.32-2.072,1.239,1.239,0,0,0-1.26-.716,1.27,1.27,0,0,0-1.28.726,5.247,5.247,0,0,0-.325,2.062,5.358,5.358,0,0,0,.325,2.082,1.264,1.264,0,0,0,1.28.731,1.234,1.234,0,0,0,1.26-.731,5.364,5.364,0,0,0,.3-2.082Z" transform="translate(-556.766 -298.15)"/>
  <path id="Path_646" data-name="Path 646" d="M669.605,458.235c0-.777-.335-1.168-1.016-1.168a.934.934,0,0,0-.833.4,2.472,2.472,0,0,0-.289,1.234H665.09a3.8,3.8,0,0,1,1.112-2.758,3.717,3.717,0,0,1,2.585-.924,3.347,3.347,0,0,1,2.468.828,2.89,2.89,0,0,1,.833,2.143,4.57,4.57,0,0,1-1.122,2.869,10.633,10.633,0,0,1-2.686,2.367h3.966v1.96H665.07v-1.818Q669.605,460.14,669.605,458.235Z" transform="translate(-565.541 -298.086)"/>
  <path id="Path_647" data-name="Path 647" d="M680.27,457.8V455.52h4.063v10.055h-2.539V457.8Z" transform="translate(-573.021 -298.337)"/>
  <path id="Path_648" data-name="Path 648" d="M546.463,243.1v1.793h-1.092a3.047,3.047,0,0,1-2.113-.665,2.821,2.821,0,0,1-.731-2.219v-3.555H541.39v-1.757h1.138V234.66h2.087v2.031h1.833v1.757h-1.833V242a1.153,1.153,0,0,0,.239.828,1.076,1.076,0,0,0,.8.239Z" transform="translate(-504.669 -189.636)" fill="url(#radial-gradient-5)"/>
  <path id="Path_649" data-name="Path 649" d="M561.557,243.04h-6.008a2.285,2.285,0,0,0,.589,1.615,1.909,1.909,0,0,0,1.361.508,1.96,1.96,0,0,0,1.209-.355,1.6,1.6,0,0,0,.615-.96h2.2a3.555,3.555,0,0,1-2.067,2.6,4.326,4.326,0,0,1-1.854.386,4.387,4.387,0,0,1-2.133-.508,3.59,3.59,0,0,1-1.447-1.452,5.078,5.078,0,0,1,0-4.479,3.554,3.554,0,0,1,1.447-1.457,4.437,4.437,0,0,1,2.133-.508,4.332,4.332,0,0,1,2.123.508,3.555,3.555,0,0,1,1.407,1.386,4,4,0,0,1,.508,2A4.267,4.267,0,0,1,561.557,243.04Zm-2.539-2.438a2,2,0,0,0-1.4-.508,2.032,2.032,0,0,0-1.422.508,2.117,2.117,0,0,0-.635,1.523h3.981A1.848,1.848,0,0,0,559,240.6Z" transform="translate(-510.632 -191.491)" fill="url(#radial-gradient-6)"/>
  <path id="Path_650" data-name="Path 650" d="M578.336,239.325a3.752,3.752,0,0,1,1.325,2.336h-2.2a1.717,1.717,0,0,0-.609-1.016,1.879,1.879,0,0,0-1.2-.376,1.783,1.783,0,0,0-1.381.614,3.194,3.194,0,0,0,0,3.6,1.8,1.8,0,0,0,1.381.615,1.854,1.854,0,0,0,1.2-.381,1.717,1.717,0,0,0,.609-1.016h2.2a3.752,3.752,0,0,1-1.325,2.336,4.062,4.062,0,0,1-2.641.858,4.352,4.352,0,0,1-2.128-.508,3.554,3.554,0,0,1-1.452-1.452,5.077,5.077,0,0,1,0-4.479,3.524,3.524,0,0,1,1.452-1.457,4.4,4.4,0,0,1,2.128-.508A4.062,4.062,0,0,1,578.336,239.325Z" transform="translate(-519.535 -191.518)" fill="url(#radial-gradient-7)"/>
  <path id="Path_651" data-name="Path 651" d="M597.555,236.8a3.753,3.753,0,0,1,.848,2.615v4.769h-2.072v-4.53a2.128,2.128,0,0,0-.508-1.523,1.792,1.792,0,0,0-1.376-.543,1.838,1.838,0,0,0-1.422.579,2.351,2.351,0,0,0-.508,1.656v4.352H590.43V233.24h2.087v4.393a2.611,2.611,0,0,1,1.072-1.295,3.21,3.21,0,0,1,1.727-.467A2.884,2.884,0,0,1,597.555,236.8Z" transform="translate(-528.805 -188.937)" fill="url(#radial-gradient-8)"/>
  <path id="Path_652" data-name="Path 652" d="M613.036,238.872a3.235,3.235,0,0,1,1.686-.452v2.234h-.6q-2.29,0-2.29,2.133v3.951H609.74v-8.2h2.087v1.564A3.392,3.392,0,0,1,613.036,238.872Z" transform="translate(-538.309 -191.486)" fill="url(#radial-gradient-9)"/>
  <path id="Path_653" data-name="Path 653" d="M629.042,243.021h-6.023a2.264,2.264,0,0,0,.594,1.615,1.9,1.9,0,0,0,1.361.508,1.955,1.955,0,0,0,1.2-.355,1.574,1.574,0,0,0,.615-.96H629a3.556,3.556,0,0,1-.7,1.523,3.6,3.6,0,0,1-1.366,1.061,4.667,4.667,0,0,1-3.986-.127,3.556,3.556,0,0,1-1.452-1.452,5.079,5.079,0,0,1,0-4.479,3.524,3.524,0,0,1,1.452-1.457,4.4,4.4,0,0,1,2.128-.508,4.316,4.316,0,0,1,2.123.508,3.519,3.519,0,0,1,1.407,1.386,4.006,4.006,0,0,1,.508,2A3.819,3.819,0,0,1,629.042,243.021Zm-2.539-2.438a1.991,1.991,0,0,0-1.4-.508,2.031,2.031,0,0,0-1.417.508,2.123,2.123,0,0,0-.64,1.523h3.981a1.833,1.833,0,0,0-.543-1.523Z" transform="translate(-543.838 -191.471)" fill="url(#radial-gradient-10)"/>
  <path id="Path_654" data-name="Path 654" d="M642.732,244.784l2.072-6.094h2.219l-3.047,8.2h-2.539l-3.047-8.2h2.234Z" transform="translate(-552.409 -191.619)" fill="url(#radial-gradient-11)"/>
  <path id="Path_655" data-name="Path 655" d="M657.556,232.1a1.326,1.326,0,0,1,.929-.32,1.346,1.346,0,0,1,.934.32,1.107,1.107,0,0,1,0,1.625,1.346,1.346,0,0,1-.934.32,1.325,1.325,0,0,1-.929-.32,1.107,1.107,0,0,1,0-1.625Zm1.965,3.174v8.2h-2.087v-8.2Z" transform="translate(-561.667 -188.217)" fill="url(#radial-gradient-12)"/>
  <path id="Path_656" data-name="Path 656" d="M672.732,243.035h-6a2.24,2.24,0,0,0,.589,1.615,1.9,1.9,0,0,0,1.361.508,1.954,1.954,0,0,0,1.2-.355,1.554,1.554,0,0,0,.615-.96h2.209a3.555,3.555,0,0,1-2.067,2.6,4.667,4.667,0,0,1-3.987-.127,3.554,3.554,0,0,1-1.447-1.452,5.078,5.078,0,0,1,0-4.479,3.515,3.515,0,0,1,1.447-1.457,4.4,4.4,0,0,1,2.128-.508,4.337,4.337,0,0,1,2.128.508,3.555,3.555,0,0,1,1.4,1.386,4.006,4.006,0,0,1,.508,2A3.817,3.817,0,0,1,672.732,243.035Zm-2.539-2.438a2.209,2.209,0,0,0-2.818,0,2.1,2.1,0,0,0-.635,1.523h3.976a1.833,1.833,0,0,0-.533-1.523Z" transform="translate(-565.351 -191.486)" fill="url(#radial-gradient-13)"/>
  <path id="Path_657" data-name="Path 657" d="M694.509,238.66l-2.2,8.2h-2.311l-1.762-5.962-1.8,5.962h-2.311l-2.189-8.2H684l1.331,6.333,1.823-6.333h2.2l1.833,6.333,1.346-6.333Z" transform="translate(-573.839 -191.605)" fill="url(#radial-gradient-14)"/>
  <path id="Path_658" data-name="Path 658" d="M715.972,243.05h-6.008a2.285,2.285,0,0,0,.589,1.615,1.91,1.91,0,0,0,1.361.508,1.96,1.96,0,0,0,1.209-.355,1.6,1.6,0,0,0,.615-.96h2.2a3.555,3.555,0,0,1-.7,1.524,3.622,3.622,0,0,1-1.371,1.061,4.326,4.326,0,0,1-1.849.411,4.388,4.388,0,0,1-2.133-.508,3.59,3.59,0,0,1-1.447-1.452,5.079,5.079,0,0,1,0-4.479,3.554,3.554,0,0,1,1.447-1.457,4.438,4.438,0,0,1,2.133-.508,4.332,4.332,0,0,1,2.123.508,3.555,3.555,0,0,1,1.407,1.386,4,4,0,0,1,.508,2,4.268,4.268,0,0,1-.091.706Zm-2.539-2.438a2,2,0,0,0-1.4-.508,2.031,2.031,0,0,0-1.422.508,2.138,2.138,0,0,0-.635,1.523h3.981a1.848,1.848,0,0,0-.543-1.523Z" transform="translate(-586.633 -191.5)" fill="url(#radial-gradient-15)"/>
  <path id="Path_659" data-name="Path 659" d="M730.126,238.872a3.235,3.235,0,0,1,1.686-.452v2.234h-.6q-2.29,0-2.29,2.133v3.951H726.83v-8.2h2.087v1.564a3.392,3.392,0,0,1,1.209-1.234Z" transform="translate(-595.937 -191.486)" fill="url(#radial-gradient-16)"/>
  <path id="Path_660" data-name="Path 660" d="M740.15,250.51v2.179H737.9V250.51Z" transform="translate(-601.385 -197.437)" fill="url(#radial-gradient-17)"/>
  <path id="Path_661" data-name="Path 661" d="M750.987,239.325a3.753,3.753,0,0,1,1.326,2.336h-2.2a1.716,1.716,0,0,0-.609-1.016,1.88,1.88,0,0,0-1.2-.376,1.783,1.783,0,0,0-1.381.614,3.194,3.194,0,0,0,0,3.6,1.8,1.8,0,0,0,1.381.615,1.854,1.854,0,0,0,1.2-.381,1.717,1.717,0,0,0,.609-1.016h2.2a3.753,3.753,0,0,1-1.326,2.336,4.063,4.063,0,0,1-2.641.858,4.387,4.387,0,0,1-2.133-.508,3.59,3.59,0,0,1-1.447-1.452,5.079,5.079,0,0,1,0-4.479,3.555,3.555,0,0,1,1.447-1.457,4.438,4.438,0,0,1,2.133-.508A4.062,4.062,0,0,1,750.987,239.325Z" transform="translate(-604.508 -191.518)" fill="url(#radial-gradient-18)"/>
  <path id="Path_662" data-name="Path 662" d="M768.563,238.952a3.707,3.707,0,0,1,1.523,1.457,4.885,4.885,0,0,1,0,4.479,3.759,3.759,0,0,1-1.523,1.452,4.774,4.774,0,0,1-4.307,0,3.757,3.757,0,0,1-1.523-1.452,4.885,4.885,0,0,1,0-4.479,3.707,3.707,0,0,1,1.523-1.457,4.86,4.86,0,0,1,4.307,0Zm-3.631,1.915a2.92,2.92,0,0,0,0,3.555,2.082,2.082,0,0,0,2.955,0,2.92,2.92,0,0,0,0-3.555A2.1,2.1,0,0,0,764.932,240.867Z" transform="translate(-613.34 -191.501)" fill="url(#radial-gradient-19)"/>
</svg>
