<svg id="award-1" xmlns="http://www.w3.org/2000/svg" xmlns:xlink="http://www.w3.org/1999/xlink" width="100.306" height="131.386" viewBox="0 0 100.306 131.386">
  <defs>
    <radialGradient id="radial-gradient" cx="0.5" cy="0.5" r="1.371" gradientUnits="objectBoundingBox">
      <stop offset="0" stop-color="#c60600"/>
      <stop offset="1" stop-color="#930600"/>
    </radialGradient>
    <radialGradient id="radial-gradient-4" cx="0.519" cy="0.49" r="0.51" xlink:href="#radial-gradient"/>
    <radialGradient id="radial-gradient-5" r="0.394" xlink:href="#radial-gradient"/>
    <radialGradient id="radial-gradient-6" cy="0.502" r="0.492" xlink:href="#radial-gradient"/>
    <radialGradient id="radial-gradient-7" cy="0.498" r="0.49" xlink:href="#radial-gradient"/>
    <radialGradient id="radial-gradient-8" cx="0.498" r="0.438" xlink:href="#radial-gradient"/>
    <radialGradient id="radial-gradient-9" cx="0.501" r="0.412" xlink:href="#radial-gradient"/>
    <radialGradient id="radial-gradient-10" cx="0.501" cy="0.504" r="0.491" xlink:href="#radial-gradient"/>
    <radialGradient id="radial-gradient-11" cx="0.501" cy="0.498" r="0.513" xlink:href="#radial-gradient"/>
    <radialGradient id="radial-gradient-12" cx="0.499" r="0.362" xlink:href="#radial-gradient"/>
    <radialGradient id="radial-gradient-13" cx="0.499" cy="0.502" r="0.491" xlink:href="#radial-gradient"/>
    <radialGradient id="radial-gradient-14" r="0.647" xlink:href="#radial-gradient"/>
    <radialGradient id="radial-gradient-15" cx="0.499" r="0.492" xlink:href="#radial-gradient"/>
    <radialGradient id="radial-gradient-17" cx="0.499" cy="0.499" r="0.508" xlink:href="#radial-gradient"/>
    <radialGradient id="radial-gradient-19" r="0.5" xlink:href="#radial-gradient"/>
  </defs>
  <path id="Path_616" data-name="Path 616" d="M102.681,5H5V114.875l48.84,18.79,48.84-18.79V5Z" transform="translate(-3.687 -3.687)" fill="#fff"/>
  <path id="Path_617" data-name="Path 617" d="M519.233,277.386,469.08,258.091V146H569.386V258.091Zm-47.527-21.1,47.527,18.284,47.527-18.284V148.626H471.706Z" transform="translate(-469.08 -146)" fill="#8d0200"/>
  <path id="Path_618" data-name="Path 618" d="M29.92,380.56v6.3L72.2,403.126l42.276-16.264v-6.3L72.2,396.824Z" transform="translate(-22.064 -280.632)" fill="url(#radial-gradient)"/>
  <path id="Path_619" data-name="Path 619" d="M29.92,347.06v6.3L72.2,369.626l42.276-16.264v-6.3L72.2,363.324Z" transform="translate(-22.064 -255.928)" fill="url(#radial-gradient)"/>
  <path id="Path_620" data-name="Path 620" d="M29.92,313.56v6.3L72.2,336.126l42.276-16.264v-6.3L72.2,329.824Z" transform="translate(-22.064 -231.225)" fill="url(#radial-gradient)"/>
  <path id="Path_621" data-name="Path 621" d="M638.983,181.759s-4.435.578-4.485.73,3.2,3.225,3.2,3.225-.822,4.4-.693,4.49,4.057-2.046,4.057-2.046,3.939,2.14,4.054,2.046-.691-4.49-.691-4.49,3.251-3.072,3.2-3.225-4.485-.73-4.485-.73-1.922-4.039-2.08-4.039S638.983,181.759,638.983,181.759Z" transform="translate(-591.062 -169.391)" fill="url(#radial-gradient-4)"/>
  <path id="Path_622" data-name="Path 622" d="M615.875,298.2v2h-2.823v8.4h-2.529v-8.4H607.73v-2Z" transform="translate(-571.323 -258.235)"/>
  <path id="Path_623" data-name="Path 623" d="M649.542,298.267a4.989,4.989,0,0,1,1.891,1.9,5.777,5.777,0,0,1,0,5.493,5.044,5.044,0,0,1-1.9,1.9,5.5,5.5,0,0,1-5.307,0,5.063,5.063,0,0,1-1.9-1.9,5.751,5.751,0,0,1,0-5.493,5.042,5.042,0,0,1,1.9-1.9,5.514,5.514,0,0,1,5.323,0Zm-4.632,2.455a3.629,3.629,0,0,0,0,4.359,2.776,2.776,0,0,0,3.918,0,3.605,3.605,0,0,0,0-4.354,2.794,2.794,0,0,0-3.939,0Z" transform="translate(-596.322 -257.78)"/>
  <path id="Path_624" data-name="Path 624" d="M689.505,304.948V308.6H687V298.2h4.075a3.986,3.986,0,0,1,2.823.919,3.251,3.251,0,0,1,.969,2.476,3.413,3.413,0,0,1-.433,1.728,2.988,2.988,0,0,1-1.287,1.192,4.533,4.533,0,0,1-2.072.433ZM692.3,301.6q0-1.365-1.515-1.365h-1.279v2.7h1.279Q692.3,302.934,692.3,301.6Z" transform="translate(-629.778 -258.235)"/>
  <path id="Path_625" data-name="Path 625" d="M550.873,367.951h-3.658a1.229,1.229,0,0,0,.3.856.982.982,0,0,0,.7.263.945.945,0,0,0,.593-.181.83.83,0,0,0,.312-.462h1.712a2.262,2.262,0,0,1-.454,1,2.432,2.432,0,0,1-.887.688,2.808,2.808,0,0,1-1.2.263,2.851,2.851,0,0,1-1.373-.326,2.344,2.344,0,0,1-.943-.943,3.237,3.237,0,0,1,0-2.888,2.287,2.287,0,0,1,.94-.935,3.109,3.109,0,0,1,2.76,0,2.28,2.28,0,0,1,.922.9,2.674,2.674,0,0,1,.326,1.337A2.234,2.234,0,0,1,550.873,367.951Zm-1.867-1.46a1.029,1.029,0,0,0-.714-.263,1.05,1.05,0,0,0-.735.263,1.1,1.1,0,0,0-.331.788h2.059a.969.969,0,0,0-.278-.788Z" transform="translate(-525.533 -307.465)"/>
  <path id="Path_626" data-name="Path 626" d="M573.612,360.293a3.069,3.069,0,0,1,1.082,1.814h-1.709a1.557,1.557,0,0,0-.583-.727,1.625,1.625,0,0,0-.93-.263,1.418,1.418,0,0,0-1.145.525,2.426,2.426,0,0,0,0,2.776,1.431,1.431,0,0,0,1.145.525,1.625,1.625,0,0,0,.93-.263,1.574,1.574,0,0,0,.583-.719h1.709a3.093,3.093,0,0,1-1.082,1.812,3.264,3.264,0,0,1-2.1.675,3.309,3.309,0,0,1-1.709-.431,2.917,2.917,0,0,1-1.14-1.205,4.089,4.089,0,0,1,0-3.534,2.917,2.917,0,0,1,1.14-1.205,3.331,3.331,0,0,1,1.709-.431,3.261,3.261,0,0,1,2.1.651Z" transform="translate(-542.218 -303.541)"/>
  <path id="Path_627" data-name="Path 627" d="M599.357,365.265a2.4,2.4,0,0,1,.974.94,3.088,3.088,0,0,1,0,2.873,2.4,2.4,0,0,1-.974.943,3.2,3.2,0,0,1-2.812,0,2.4,2.4,0,0,1-.979-.943,3.088,3.088,0,0,1,0-2.873,2.4,2.4,0,0,1,.979-.94A3.2,3.2,0,0,1,599.357,365.265Zm-2.185,1.407a1.362,1.362,0,0,0-.315.969,1.344,1.344,0,0,0,.315.964,1.051,1.051,0,0,0,.788.331,1.03,1.03,0,0,0,.788-.331,1.355,1.355,0,0,0,.31-.964,1.374,1.374,0,0,0-.31-.969,1.024,1.024,0,0,0-.788-.336,1.05,1.05,0,0,0-.8.336Z" transform="translate(-562.091 -307.45)"/>
  <path id="Path_628" data-name="Path 628" d="M627.6,365.536a2.363,2.363,0,0,1,.559,1.667v3.064h-1.61v-2.875a1.082,1.082,0,0,0-.263-.788.969.969,0,0,0-.733-.278,1,1,0,0,0-.761.3,1.179,1.179,0,0,0-.278.838v2.8H622.9v-2.867a1.09,1.09,0,0,0-.263-.788.959.959,0,0,0-.73-.278,1.009,1.009,0,0,0-.764.294,1.159,1.159,0,0,0-.284.84v2.8H619.24v-5.267h1.617v.9a1.554,1.554,0,0,1,.638-.7,1.927,1.927,0,0,1,1.006-.263,2.05,2.05,0,0,1,1.069.278,1.766,1.766,0,0,1,.7.8,2.1,2.1,0,0,1,.754-.788,1.962,1.962,0,0,1,1.05-.294A1.985,1.985,0,0,1,627.6,365.536Z" transform="translate(-579.811 -307.437)"/>
  <path id="Path_629" data-name="Path 629" d="M665.7,365.535a2.364,2.364,0,0,1,.557,1.667v3.064h-1.607v-2.875a1.082,1.082,0,0,0-.263-.788.974.974,0,0,0-.733-.278,1,1,0,0,0-.762.3,1.179,1.179,0,0,0-.278.838v2.8H661v-2.867a1.079,1.079,0,0,0-.263-.788.95.95,0,0,0-.727-.278,1.006,1.006,0,0,0-.764.294,1.158,1.158,0,0,0-.284.84v2.8H657.34v-5.267h1.617v.9a1.555,1.555,0,0,1,.638-.7,1.922,1.922,0,0,1,1.006-.263,2.059,2.059,0,0,1,1.061.278,1.768,1.768,0,0,1,.7.8,2.1,2.1,0,0,1,.751-.788,1.964,1.964,0,0,1,1.05-.294A1.985,1.985,0,0,1,665.7,365.535Z" transform="translate(-607.906 -307.436)"/>
  <path id="Path_630" data-name="Path 630" d="M699.586,367.98h-3.66a1.229,1.229,0,0,0,.3.856.972.972,0,0,0,.7.263.953.953,0,0,0,.6-.181.842.842,0,0,0,.312-.462h1.709a2.235,2.235,0,0,1-.454,1,2.389,2.389,0,0,1-.888.688,2.8,2.8,0,0,1-1.2.263,2.857,2.857,0,0,1-1.376-.326,2.337,2.337,0,0,1-.94-.943,2.888,2.888,0,0,1-.341-1.436,2.955,2.955,0,0,1,.336-1.442,2.3,2.3,0,0,1,.94-.935,3.109,3.109,0,0,1,2.76,0,2.247,2.247,0,0,1,.922.9,2.675,2.675,0,0,1,.328,1.337A2.232,2.232,0,0,1,699.586,367.98Zm-1.867-1.46a1.035,1.035,0,0,0-.714-.263,1.051,1.051,0,0,0-.738.263,1.124,1.124,0,0,0-.331.788H698A.977.977,0,0,0,697.719,366.52Z" transform="translate(-635.196 -307.494)"/>
  <path id="Path_631" data-name="Path 631" d="M720.092,365.253a1.985,1.985,0,0,1,1.034-.284v1.73h-.459a1.6,1.6,0,0,0-1,.263,1.105,1.105,0,0,0-.354.927v2.4H717.7v-5.265h1.618v1A2.247,2.247,0,0,1,720.092,365.253Z" transform="translate(-652.417 -307.472)"/>
  <path id="Path_632" data-name="Path 632" d="M736.663,365.491a2.5,2.5,0,0,1,.869,1.544H735.82a.9.9,0,0,0-.31-.525.927.927,0,0,0-.6-.189.865.865,0,0,0-.7.336,1.888,1.888,0,0,0,0,1.956.869.869,0,0,0,.7.336.927.927,0,0,0,.6-.189.9.9,0,0,0,.31-.525h1.712a2.5,2.5,0,0,1-.869,1.547,2.626,2.626,0,0,1-1.712.562,2.862,2.862,0,0,1-1.376-.326,2.363,2.363,0,0,1-.94-.943,3.237,3.237,0,0,1,0-2.888,2.287,2.287,0,0,1,.94-.935,2.844,2.844,0,0,1,1.379-.326,2.625,2.625,0,0,1,1.709.565Z" transform="translate(-663.18 -307.439)"/>
  <path id="Path_633" data-name="Path 633" d="M759.633,367.98h-3.658a1.229,1.229,0,0,0,.3.856.982.982,0,0,0,.7.263.953.953,0,0,0,.6-.181.825.825,0,0,0,.31-.462H759.6a2.237,2.237,0,0,1-.454,1,2.411,2.411,0,0,1-.888.688,2.8,2.8,0,0,1-1.2.263,2.856,2.856,0,0,1-1.376-.326,2.321,2.321,0,0,1-.94-.943,2.89,2.89,0,0,1-.341-1.436,2.954,2.954,0,0,1,.336-1.442,2.287,2.287,0,0,1,.94-.935,3.109,3.109,0,0,1,2.76,0,2.279,2.279,0,0,1,.922.9,2.673,2.673,0,0,1,.326,1.337A2.227,2.227,0,0,1,759.633,367.98Zm-1.867-1.46a1.022,1.022,0,0,0-.712-.263,1.05,1.05,0,0,0-.738.263,1.1,1.1,0,0,0-.331.788h2.061A.969.969,0,0,0,757.767,366.52Z" transform="translate(-679.478 -307.494)"/>
  <path id="Path_634" data-name="Path 634" d="M563.073,404.89a2.961,2.961,0,0,1-1.21,1.187A3.862,3.862,0,0,1,560,406.5H557.48v-6.685H560a3.923,3.923,0,0,1,1.864.417,2.888,2.888,0,0,1,1.205,1.171,3.823,3.823,0,0,1,0,3.484Zm-1.741-.336a2.153,2.153,0,0,0,0-2.817,2.046,2.046,0,0,0-1.47-.5H559.1v3.821h.764A2.046,2.046,0,0,0,561.332,404.553Z" transform="translate(-534.268 -333.168)"/>
  <path id="Path_635" data-name="Path 635" d="M588.066,407.951h-3.658a1.218,1.218,0,0,0,.3.856.974.974,0,0,0,.7.263.949.949,0,0,0,.6-.181.829.829,0,0,0,.312-.462h1.712a2.265,2.265,0,0,1-.454,1,2.419,2.419,0,0,1-.89.688,2.788,2.788,0,0,1-1.2.263,2.862,2.862,0,0,1-1.376-.326,2.363,2.363,0,0,1-.94-.943,3.248,3.248,0,0,1,0-2.888,2.309,2.309,0,0,1,.943-.935,3.109,3.109,0,0,1,2.76,0,2.28,2.28,0,0,1,.922.9,2.673,2.673,0,0,1,.326,1.337,2.229,2.229,0,0,1-.052.428Zm-1.867-1.46a1.029,1.029,0,0,0-.714-.263,1.063,1.063,0,0,0-.738.263,1.124,1.124,0,0,0-.331.788h2.061A.969.969,0,0,0,586.2,406.491Z" transform="translate(-552.961 -336.962)"/>
  <path id="Path_636" data-name="Path 636" d="M607.343,408.885l1.145-3.695h1.72l-1.872,5.275h-2l-1.872-5.275h1.717Z" transform="translate(-568.912 -337.131)"/>
  <path id="Path_637" data-name="Path 637" d="M633.1,407.98h-3.66a1.228,1.228,0,0,0,.3.856.971.971,0,0,0,.7.263.953.953,0,0,0,.6-.181.844.844,0,0,0,.313-.462h1.709a2.236,2.236,0,0,1-.454,1,2.39,2.39,0,0,1-.888.688,2.8,2.8,0,0,1-1.2.263,2.855,2.855,0,0,1-1.376-.326,2.338,2.338,0,0,1-.94-.943,2.888,2.888,0,0,1-.341-1.436,2.952,2.952,0,0,1,.336-1.442,2.3,2.3,0,0,1,.94-.935,3.109,3.109,0,0,1,2.76,0,2.248,2.248,0,0,1,.922.9,2.676,2.676,0,0,1,.328,1.337A2.222,2.222,0,0,1,633.1,407.98Zm-1.867-1.46a1.035,1.035,0,0,0-.714-.263,1.05,1.05,0,0,0-.738.263,1.124,1.124,0,0,0-.331.788h2.061A.977.977,0,0,0,631.229,406.52Z" transform="translate(-586.165 -336.991)"/>
  <path id="Path_638" data-name="Path 638" d="M652.8,398.64v7H651.19v-7Z" transform="translate(-603.371 -332.301)"/>
  <path id="Path_639" data-name="Path 639" d="M664.694,405.264a2.382,2.382,0,0,1,.974.94,3.088,3.088,0,0,1,0,2.873,2.386,2.386,0,0,1-.974.943,2.986,2.986,0,0,1-1.4.326,3.032,3.032,0,0,1-1.41-.326,2.394,2.394,0,0,1-.977-.943,3.087,3.087,0,0,1,0-2.873,2.386,2.386,0,0,1,.977-.94,3,3,0,0,1,1.41-.326A2.955,2.955,0,0,1,664.694,405.264Zm-2.187,1.407a1.349,1.349,0,0,0-.318.969,1.334,1.334,0,0,0,.318.964,1.034,1.034,0,0,0,.788.331,1.022,1.022,0,0,0,.788-.331,1.355,1.355,0,0,0,.313-.964,1.374,1.374,0,0,0-.312-.969,1.091,1.091,0,0,0-1.576,0Z" transform="translate(-610.274 -336.946)"/>
  <path id="Path_640" data-name="Path 640" d="M689.056,405.29a2.241,2.241,0,0,1,.814.935,3.638,3.638,0,0,1,0,2.888,2.245,2.245,0,0,1-.814.943,2.156,2.156,0,0,1-1.168.326,1.894,1.894,0,0,1-1.05-.263,1.575,1.575,0,0,1-.636-.746v3.469h-1.6V405.03h1.615v.953a1.6,1.6,0,0,1,.635-.746,1.893,1.893,0,0,1,1.05-.263A2.134,2.134,0,0,1,689.056,405.29Zm-2.513,1.436a1.512,1.512,0,0,0,0,1.875,1.182,1.182,0,0,0,1.673,0,1.575,1.575,0,0,0,0-1.891,1.189,1.189,0,0,0-1.673,0Z" transform="translate(-628.008 -336.971)"/>
  <path id="Path_641" data-name="Path 641" d="M713.171,408.01h-3.65a1.229,1.229,0,0,0,.3.856.982.982,0,0,0,.7.263.953.953,0,0,0,.6-.181.824.824,0,0,0,.31-.462h1.712a2.235,2.235,0,0,1-.47,1.008,2.409,2.409,0,0,1-.888.688,2.8,2.8,0,0,1-1.2.263,2.857,2.857,0,0,1-1.376-.326,2.322,2.322,0,0,1-.94-.943,2.887,2.887,0,0,1-.341-1.436,2.953,2.953,0,0,1,.336-1.442,2.287,2.287,0,0,1,.94-.935,3.109,3.109,0,0,1,2.76,0,2.28,2.28,0,0,1,.922.9,2.674,2.674,0,0,1,.326,1.337A2.227,2.227,0,0,1,713.171,408.01Zm-1.867-1.46a1.021,1.021,0,0,0-.712-.263,1.05,1.05,0,0,0-.738.263,1.1,1.1,0,0,0-.331.788h2.061A.969.969,0,0,0,711.3,406.55Z" transform="translate(-645.21 -337.021)"/>
  <path id="Path_642" data-name="Path 642" d="M733.722,405.253a2,2,0,0,1,1.05-.284v1.73h-.465a1.61,1.61,0,0,0-1,.263,1.106,1.106,0,0,0-.354.927v2.4H731.34v-5.265h1.615v1A2.292,2.292,0,0,1,733.722,405.253Z" transform="translate(-662.475 -336.969)"/>
  <path id="Path_643" data-name="Path 643" d="M749.918,405.433a2.192,2.192,0,0,1,.751,1.313h-1.512a.851.851,0,0,0-.3-.5.906.906,0,0,0-.583-.184.635.635,0,0,0-.415.118.41.41,0,0,0-.139.349.394.394,0,0,0,.263.37,4.126,4.126,0,0,0,.817.244,8.1,8.1,0,0,1,.993.289,1.629,1.629,0,0,1,.672.478,1.313,1.313,0,0,1,.284.888,1.345,1.345,0,0,1-.247.8,1.6,1.6,0,0,1-.709.549,2.737,2.737,0,0,1-1.1.2,2.822,2.822,0,0,1-1.712-.473,2,2,0,0,1-.788-1.352h1.56a.706.706,0,0,0,.289.525,1.082,1.082,0,0,0,.648.179.607.607,0,0,0,.415-.126.433.433,0,0,0,.142-.336.4.4,0,0,0-.263-.391,4.887,4.887,0,0,0-.845-.263,6.572,6.572,0,0,1-.964-.263,1.594,1.594,0,0,1-.654-.457,1.277,1.277,0,0,1-.263-.867,1.41,1.41,0,0,1,.538-1.147,2.342,2.342,0,0,1,1.52-.439A2.429,2.429,0,0,1,749.918,405.433Z" transform="translate(-673.433 -336.941)"/>
  <path id="Path_644" data-name="Path 644" d="M633.527,456.678c0-.4-.173-.6-.525-.6a.483.483,0,0,0-.431.207,1.277,1.277,0,0,0-.15.638h-1.229a1.964,1.964,0,0,1,.575-1.426,1.922,1.922,0,0,1,1.336-.478,1.731,1.731,0,0,1,1.276.428,1.494,1.494,0,0,1,.431,1.108,2.363,2.363,0,0,1-.58,1.484,5.5,5.5,0,0,1-1.389,1.224h2.051v1.014h-3.7v-.94Q633.527,457.663,633.527,456.678Z" transform="translate(-588.623 -373.87)"/>
  <path id="Path_645" data-name="Path 645" d="M647.247,457.774a3.32,3.32,0,0,1,.491-1.922,2.1,2.1,0,0,1,3.151,0,3.991,3.991,0,0,1,0,3.855,2.095,2.095,0,0,1-3.151,0A3.348,3.348,0,0,1,647.247,457.774Zm2.888,0a2.73,2.73,0,0,0-.165-1.071.641.641,0,0,0-.651-.37.656.656,0,0,0-.662.376,2.711,2.711,0,0,0-.168,1.066,2.769,2.769,0,0,0,.168,1.077.654.654,0,0,0,.662.378.638.638,0,0,0,.651-.378,2.774,2.774,0,0,0,.157-1.077Z" transform="translate(-600.46 -373.965)"/>
  <path id="Path_646" data-name="Path 646" d="M667.415,456.678c0-.4-.173-.6-.525-.6a.483.483,0,0,0-.431.207,1.276,1.276,0,0,0-.15.638h-1.229a1.964,1.964,0,0,1,.575-1.426,1.922,1.922,0,0,1,1.336-.478,1.73,1.73,0,0,1,1.276.428,1.494,1.494,0,0,1,.431,1.108,2.363,2.363,0,0,1-.58,1.484,5.5,5.5,0,0,1-1.389,1.224h2.051v1.014h-3.71v-.94Q667.415,457.663,667.415,456.678Z" transform="translate(-613.607 -373.87)"/>
  <path id="Path_647" data-name="Path 647" d="M680.27,456.7V455.52h2.1v5.2h-1.313V456.7Z" transform="translate(-624.815 -374.246)"/>
  <path id="Path_648" data-name="Path 648" d="M544.013,239.022v.927h-.565a1.575,1.575,0,0,1-1.092-.344,1.458,1.458,0,0,1-.378-1.147v-1.838h-.588v-.909h.588v-1.05h1.079v1.05h.948v.909h-.948v1.838a.6.6,0,0,0,.123.428.557.557,0,0,0,.412.123Z" transform="translate(-522.403 -211.379)" fill="url(#radial-gradient-5)"/>
  <path id="Path_649" data-name="Path 649" d="M557.668,240.813h-3.106a1.181,1.181,0,0,0,.3.835.987.987,0,0,0,.7.263,1.014,1.014,0,0,0,.625-.184.827.827,0,0,0,.318-.5h1.14a1.838,1.838,0,0,1-1.069,1.344,2.236,2.236,0,0,1-.958.2,2.268,2.268,0,0,1-1.1-.263,1.857,1.857,0,0,1-.748-.751,2.627,2.627,0,0,1,0-2.316,1.839,1.839,0,0,1,.748-.754,2.3,2.3,0,0,1,1.1-.263,2.24,2.24,0,0,1,1.1.263,1.838,1.838,0,0,1,.727.717,2.068,2.068,0,0,1,.263,1.035A2.215,2.215,0,0,1,557.668,240.813Zm-1.313-1.26a1.032,1.032,0,0,0-.722-.263,1.05,1.05,0,0,0-.735.263,1.1,1.1,0,0,0-.328.788h2.059a.956.956,0,0,0-.281-.788Z" transform="translate(-531.337 -214.158)" fill="url(#radial-gradient-6)"/>
  <path id="Path_650" data-name="Path 650" d="M575.081,238.918a1.94,1.94,0,0,1,.685,1.208h-1.14a.888.888,0,0,0-.315-.525.971.971,0,0,0-.62-.194.922.922,0,0,0-.714.318,1.652,1.652,0,0,0,0,1.859.932.932,0,0,0,.714.318.958.958,0,0,0,.62-.2.888.888,0,0,0,.315-.525h1.14a1.94,1.94,0,0,1-.685,1.208,2.1,2.1,0,0,1-1.365.444,2.251,2.251,0,0,1-1.1-.263,1.837,1.837,0,0,1-.751-.751,2.625,2.625,0,0,1,0-2.316,1.822,1.822,0,0,1,.751-.754,2.276,2.276,0,0,1,1.1-.263A2.1,2.1,0,0,1,575.081,238.918Z" transform="translate(-544.676 -214.199)" fill="url(#radial-gradient-7)"/>
  <path id="Path_651" data-name="Path 651" d="M594.114,235.083a1.941,1.941,0,0,1,.438,1.352V238.9h-1.071v-2.342a1.1,1.1,0,0,0-.263-.788.926.926,0,0,0-.712-.281.95.95,0,0,0-.735.3,1.216,1.216,0,0,0-.263.856v2.25H590.43V233.24h1.079v2.271a1.35,1.35,0,0,1,.554-.67,1.66,1.66,0,0,1,.893-.242A1.492,1.492,0,0,1,594.114,235.083Z" transform="translate(-558.566 -210.332)" fill="url(#radial-gradient-8)"/>
  <path id="Path_652" data-name="Path 652" d="M611.444,238.653a1.672,1.672,0,0,1,.872-.234v1.155H612q-1.184,0-1.184,1.1v2.043H609.74v-4.238h1.079v.809A1.755,1.755,0,0,1,611.444,238.653Z" transform="translate(-572.805 -214.152)" fill="url(#radial-gradient-9)"/>
  <path id="Path_653" data-name="Path 653" d="M625.146,240.783h-3.114a1.171,1.171,0,0,0,.307.835.984.984,0,0,0,.7.263,1.011,1.011,0,0,0,.622-.184.814.814,0,0,0,.318-.5h1.14a1.84,1.84,0,0,1-.36.788,1.862,1.862,0,0,1-.706.549,2.413,2.413,0,0,1-2.061-.066,1.838,1.838,0,0,1-.751-.751,2.626,2.626,0,0,1,0-2.316,1.823,1.823,0,0,1,.751-.754,2.276,2.276,0,0,1,1.1-.263,2.232,2.232,0,0,1,1.1.263,1.821,1.821,0,0,1,.727.717,2.072,2.072,0,0,1,.263,1.035A1.969,1.969,0,0,1,625.146,240.783Zm-1.313-1.26a1.029,1.029,0,0,0-.722-.263,1.05,1.05,0,0,0-.733.263,1.1,1.1,0,0,0-.331.788h2.059a.948.948,0,0,0-.281-.788Z" transform="translate(-581.09 -214.129)" fill="url(#radial-gradient-10)"/>
  <path id="Path_654" data-name="Path 654" d="M640.635,241.841l1.071-3.151h1.148l-1.576,4.238h-1.313l-1.576-4.238h1.155Z" transform="translate(-593.932 -214.351)" fill="url(#radial-gradient-11)"/>
  <path id="Path_655" data-name="Path 655" d="M657.384,231.943a.685.685,0,0,1,.481-.165.7.7,0,0,1,.483.165.573.573,0,0,1,0,.84.7.7,0,0,1-.483.165.685.685,0,0,1-.481-.165.572.572,0,0,1,0-.84Zm1.016,1.641v4.238h-1.079v-4.238Z" transform="translate(-607.804 -209.253)" fill="url(#radial-gradient-12)"/>
  <path id="Path_656" data-name="Path 656" d="M668.846,240.806h-3.1a1.158,1.158,0,0,0,.3.835.985.985,0,0,0,.7.263,1.011,1.011,0,0,0,.622-.184.8.8,0,0,0,.318-.5h1.142a1.838,1.838,0,0,1-1.069,1.344,2.413,2.413,0,0,1-2.061-.066,1.838,1.838,0,0,1-.748-.751,2.625,2.625,0,0,1,0-2.316,1.818,1.818,0,0,1,.748-.754,2.277,2.277,0,0,1,1.1-.263,2.243,2.243,0,0,1,1.1.263,1.838,1.838,0,0,1,.725.717,2.072,2.072,0,0,1,.263,1.035A1.975,1.975,0,0,1,668.846,240.806Zm-1.313-1.26a1.142,1.142,0,0,0-1.457,0,1.084,1.084,0,0,0-.328.788H667.8a.948.948,0,0,0-.276-.788Z" transform="translate(-613.323 -214.151)" fill="url(#radial-gradient-13)"/>
  <path id="Path_657" data-name="Path 657" d="M688.434,238.66l-1.14,4.238H686.1l-.911-3.083-.932,3.083h-1.195l-1.132-4.238H683l.688,3.274.943-3.274h1.14l.948,3.274.7-3.274Z" transform="translate(-626.039 -214.329)" fill="url(#radial-gradient-14)"/>
  <path id="Path_658" data-name="Path 658" d="M712.086,240.828h-3.106a1.181,1.181,0,0,0,.3.835.987.987,0,0,0,.7.263,1.014,1.014,0,0,0,.625-.184.827.827,0,0,0,.318-.5h1.14a1.838,1.838,0,0,1-.36.788,1.873,1.873,0,0,1-.709.549,2.237,2.237,0,0,1-.956.213,2.269,2.269,0,0,1-1.1-.263,1.856,1.856,0,0,1-.748-.751,2.626,2.626,0,0,1,0-2.316,1.838,1.838,0,0,1,.748-.754,2.3,2.3,0,0,1,1.1-.263,2.24,2.24,0,0,1,1.1.263,1.839,1.839,0,0,1,.727.717,2.07,2.07,0,0,1,.263,1.035,2.2,2.2,0,0,1-.047.365Zm-1.313-1.26a1.031,1.031,0,0,0-.722-.263,1.05,1.05,0,0,0-.735.263,1.105,1.105,0,0,0-.328.788h2.059a.956.956,0,0,0-.281-.788Z" transform="translate(-645.209 -214.173)" fill="url(#radial-gradient-15)"/>
  <path id="Path_659" data-name="Path 659" d="M728.534,238.653a1.672,1.672,0,0,1,.872-.234v1.155h-.312q-1.184,0-1.184,1.1v2.043H726.83v-4.238h1.079v.809a1.754,1.754,0,0,1,.625-.638Z" transform="translate(-659.149 -214.152)" fill="url(#radial-gradient-9)"/>
  <path id="Path_660" data-name="Path 660" d="M739.063,250.51v1.126H737.9V250.51Z" transform="translate(-667.313 -223.068)" fill="url(#radial-gradient-17)"/>
  <path id="Path_661" data-name="Path 661" d="M747.731,238.918a1.94,1.94,0,0,1,.685,1.208h-1.14a.888.888,0,0,0-.315-.525.972.972,0,0,0-.62-.194.922.922,0,0,0-.714.318,1.652,1.652,0,0,0,0,1.859.932.932,0,0,0,.714.318.959.959,0,0,0,.62-.2.888.888,0,0,0,.315-.525h1.14a1.94,1.94,0,0,1-.685,1.208,2.1,2.1,0,0,1-1.365.444,2.268,2.268,0,0,1-1.1-.263,1.856,1.856,0,0,1-.748-.751,2.626,2.626,0,0,1,0-2.316,1.838,1.838,0,0,1,.749-.754,2.294,2.294,0,0,1,1.1-.263A2.1,2.1,0,0,1,747.731,238.918Z" transform="translate(-671.992 -214.199)" fill="url(#radial-gradient-7)"/>
  <path id="Path_662" data-name="Path 662" d="M765.485,238.71a1.916,1.916,0,0,1,.788.754,2.526,2.526,0,0,1,0,2.316,1.943,1.943,0,0,1-.788.751,2.468,2.468,0,0,1-2.227,0,1.942,1.942,0,0,1-.788-.751,2.526,2.526,0,0,1,0-2.316,1.916,1.916,0,0,1,.788-.754,2.513,2.513,0,0,1,2.227,0Zm-1.877.99a1.51,1.51,0,0,0,0,1.838,1.077,1.077,0,0,0,1.528,0,1.51,1.51,0,0,0,0-1.838A1.084,1.084,0,0,0,763.608,239.7Z" transform="translate(-685.224 -214.174)" fill="url(#radial-gradient-19)"/>
</svg>
