<svg xmlns="http://www.w3.org/2000/svg" width="270.01" height="81.347" viewBox="0 0 270.01 81.347">
  <g id="Biz4Commerce_Logo_Svg-01" data-name="Biz4Commerce Logo Svg-01" transform="translate(-13.251 -182.23)">
    <path id="Path_759" data-name="Path 759" d="M985.692,262.845q0-40.3,0-80.6h-.524q-45.687,0-91.375-.014c-.641,0-.748.2-.746.784q.03,11.668.014,23.337c0,.349-.012.7-.014,1.048,0,.327.022.6.49.425a1.771,1.771,0,0,1,.6-.052q8.941.015,17.884.046c.482,0,.56-.161.591-.607.141-2.032.133-4.064.083-6.1-.02-.822.244-1.044,1.04-1.042q25.562.027,51.124.014c1.131,0,1.183.058,1.183,1.187q0,21.764.016,43.526c0,.826-.206,1.107-1.072,1.1-4.969-.038-9.938,0-14.907-.038-.75-.006-.9.21-.895.919.032,5.243.014,10.488.024,15.733,0,.3-.151.643.153.9l.079,0c.5-.016,1-.04,1.494-.04q16.627,0,33.256.006c.323,0,.7-.153.972.167C985.874,263.707,985.692,263.2,985.692,262.845Z" transform="translate(-702.452)" fill="#fff"/>
    <g id="Group_375" data-name="Group 375" transform="translate(85.858 205.269)">
      <path id="Path_760" data-name="Path 760" d="M770.408,371.693c-.691.667-1.385,1.334-2.1,1.975-.2.177-.456.5-.734.274-.175-.143-.062-.49,0-.748.738-3.151,1.76-6.223,2.655-9.329.5-1.732,1.218-3.425.98-5.3a2.285,2.285,0,0,0-2.231-2.1c-2.042-.095-3.554,1.052-5.088,2.141-.6.425-1.143.923-1.8,1.461a4.215,4.215,0,0,1,0-.5c.4-2.494-.889-3.614-3.338-2.935a10.955,10.955,0,0,0-3.622,1.967c-.822.617-1.6,1.288-2.568,2.064a13.452,13.452,0,0,0,.619-2.786c.02-.708-.242-1.286-1.012-1.381a4.1,4.1,0,0,0-1.645.083,16.658,16.658,0,0,0-7.037,4.61c-.115.113-.32.23-.183.427.292.425.52.964,1.036,1.129a1.221,1.221,0,0,0,1.308-.441,11.516,11.516,0,0,1,2.613-2.08c-.782,3.3-1.51,6.392-2.246,9.48-.486,2.034-.99,4.062-1.469,6.1-.206.871.171,1.318,1.068,1.322s1.812-.01,2.719.006c.367.006.516-.062.607-.5.54-2.55,1.205-5.074,1.718-7.628a11.206,11.206,0,0,1,5.539-7.992c.316-.181.708-.558.976-.361s-.014.679-.095,1.02q-1.705,7.1-3.439,14.189c-.2.83.119,1.25.953,1.26s1.7-.04,2.542.016c.6.04.8-.214.905-.746.677-3.282,1.568-6.511,2.459-9.74a9.324,9.324,0,0,1,5.045-5.862.937.937,0,0,1,.714-.159c.359.159.046.476.006.685-.52,2.645-1.461,5.172-2.183,7.763a20.47,20.47,0,0,0-1.135,5.9c.038,1.83,1.153,2.951,2.84,2.824a4.6,4.6,0,0,0,2.2-.905,43.869,43.869,0,0,0,4.076-3.562c.566-.492.51-1.1-.075-1.715A1.082,1.082,0,0,0,770.408,371.693Z" transform="translate(-668.71 -344.356)" fill="#fff"/>
      <path id="Path_761" data-name="Path 761" d="M616.6,371.62c-.744.7-1.421,1.463-2.225,2.1-.2.159-.445.441-.675.3-.27-.161-.123-.514-.06-.784.6-2.566,1.407-5.074,2.131-7.605a29.726,29.726,0,0,0,1.542-6.073c.137-1.955-.883-3.259-2.887-3.054a9.217,9.217,0,0,0-4.467,2.131c-.595.437-1.145.931-1.746,1.425a1.8,1.8,0,0,1,.036-.873c.087-1.427-.448-2.786-2.229-2.7a8.856,8.856,0,0,0-4.82,2.149c-.832.607-1.611,1.288-2.534,2.036a17.694,17.694,0,0,0,.578-2.747c.006-.72-.254-1.286-1.014-1.387a4.023,4.023,0,0,0-1.643.085,16.512,16.512,0,0,0-7.035,4.612c-.117.115-.252.2-.191.433a1.332,1.332,0,0,0,2.344.663,13.447,13.447,0,0,1,2.629-2.062c-.847,3.552-1.641,6.888-2.439,10.226-.425,1.784-.867,3.562-1.282,5.348-.2.873.169,1.318,1.068,1.324s1.812,0,2.719,0c.278,0,.506.05.6-.4.544-2.548,1.226-5.07,1.717-7.628a11.208,11.208,0,0,1,5.539-8.081c.318-.181.714-.56.982-.371.286.2-.01.681-.091,1.02-1.137,4.731-2.294,9.458-3.439,14.187-.212.875.111,1.262,1.026,1.27.818.006,1.641-.04,2.455.016.589.04.806-.2.915-.732.673-3.282,1.574-6.509,2.457-9.738a9.346,9.346,0,0,1,5.118-5.908.909.909,0,0,1,.635-.127c.331.127.063.407.026.6-.5,2.681-1.473,5.231-2.2,7.851a20.631,20.631,0,0,0-1.133,5.9c.038,1.895,1.266,3.056,3.018,2.81a4.766,4.766,0,0,0,1.951-.843,39.187,39.187,0,0,0,4.265-3.741c.552-.5.284-1.107-.194-1.588A.948.948,0,0,0,616.6,371.62Z" transform="translate(-545.825 -344.396)" fill="#fff"/>
      <path id="Path_762" data-name="Path 762" d="M397.309,307.966c.488.062.548-.171.576-.595a29.449,29.449,0,0,1,1.419-7.7c.25-.718.071-.962-.583-1.161-.794-.244-1.562-.579-2.344-.869a13.033,13.033,0,0,0-14.894,2.973,23.176,23.176,0,0,0-7.847,14.723,15.6,15.6,0,0,0,1.08,8.813,9.958,9.958,0,0,0,7.964,5.967,10.962,10.962,0,0,0,7.876-2.044,13.184,13.184,0,0,0,3.892-4.058c.254-.411.6-.849.339-1.439a1.328,1.328,0,0,0-2.373-.252,19.667,19.667,0,0,1-2.655,2.885,6.7,6.7,0,0,1-4.683,1.734c-2.612-.149-4.284-1.711-5.271-4.034a11.831,11.831,0,0,1-.883-5.293,23.122,23.122,0,0,1,3.81-12.853c1.963-2.961,4.479-5.16,8.158-5.636a3.862,3.862,0,0,1,4.346,2.627,14.467,14.467,0,0,1,.258,5.09.93.93,0,0,0,.935,1.117C396.724,307.97,397.021,307.93,397.309,307.966Z" transform="translate(-373.445 -296.526)" fill="#fff"/>
      <path id="Path_763" data-name="Path 763" d="M502.515,356.447a9.374,9.374,0,0,0-6.608,1.574c-4.378,3.1-6.319,7.489-6.575,12.724,0,.379-.024.758,0,1.135a5.83,5.83,0,0,0,4.394,5.539,8.04,8.04,0,0,0,5.092-.454c5.209-2.3,9.629-8.652,8.4-15.457C506.77,358.987,504.7,356.683,502.515,356.447Zm-1.836,15.574a7.4,7.4,0,0,1-1.568,1.963,2.4,2.4,0,0,1-4.118-.994,7.119,7.119,0,0,1-.484-1.746,20.7,20.7,0,0,1-.02-2.266,11.622,11.622,0,0,1,2.03-7.739,7.128,7.128,0,0,1,1.254-1.326c1.5-1.177,3.02-.77,3.84.964a8.721,8.721,0,0,1,.639,3.477A14.179,14.179,0,0,1,500.679,372.021Z" transform="translate(-465.964 -344.313)" fill="#fff"/>
      <path id="Path_764" data-name="Path 764" d="M909.139,356.467a8.157,8.157,0,0,0-7.049,2.655,19.171,19.171,0,0,0-5.513,13.131,13.512,13.512,0,0,0,.008,1.484c.246,2.193,1.159,3.534,3.06,3.852a7.171,7.171,0,0,0,3.669-.429,22.367,22.367,0,0,0,7.1-4.745c.278-.25.833-.474.462-.951-.389-.5-.391-1.363-1.35-1.389-.768-.02-1.113.57-1.617.913-1.453.984-2.784,2.167-4.59,2.51a1.232,1.232,0,0,1-1.451-.49,5.073,5.073,0,0,1-.177-3.628c.052-.228.357-.248.56-.349a53.216,53.216,0,0,0,6.059-3.094c1.988-1.322,3.683-2.852,3.975-5.392A3.43,3.43,0,0,0,909.139,356.467Zm-1.51,4.953a3.017,3.017,0,0,1-.806,1.526,15.09,15.09,0,0,1-4.61,3.266,16.7,16.7,0,0,1,2.181-5.549,4.429,4.429,0,0,1,.726-.754,1.615,1.615,0,0,1,1.931-.363C907.779,359.962,907.736,360.718,907.63,361.419Z" transform="translate(-791.111 -344.343)" fill="#fff"/>
      <path id="Path_765" data-name="Path 765" d="M1153.9,368.941a46.781,46.781,0,0,0,5.91-3.008c1.991-1.314,3.685-2.854,3.973-5.392a3.42,3.42,0,0,0-3.145-4.072,8.161,8.161,0,0,0-7.047,2.657,19.2,19.2,0,0,0-5.509,13.048,13.63,13.63,0,0,0,.01,1.57c.222,1.9.875,3.332,2.814,3.794a6.752,6.752,0,0,0,3.918-.381,22.067,22.067,0,0,0,6.9-4.568c.9-.8.913-.786.26-1.8-.574-.9-1.083-.958-1.961-.284a20.782,20.782,0,0,1-4.05,2.655,3.279,3.279,0,0,1-1.756.365,1.3,1.3,0,0,1-1.179-1.381c0-1-.413-2.084.4-2.973C1153.545,369.047,1153.744,369.013,1153.9,368.941Zm1.705-7.928a4.27,4.27,0,0,1,1.246-1.322,1.512,1.512,0,0,1,1.8-.143,1.6,1.6,0,0,1,.564,1.639,3.914,3.914,0,0,1-1.516,2.463,13.464,13.464,0,0,1-4.011,2.552A18.844,18.844,0,0,1,1155.6,361.013Z" transform="translate(-991.918 -344.345)" fill="#fff"/>
      <path id="Path_766" data-name="Path 766" d="M1000.912,351.823c-.52-1.558-2.137-2.066-3.689-1.087a16.063,16.063,0,0,0-3.632,3.378c-.23.274-.488.81-.81.669-.431-.189-.006-.649.03-.992.026-.256.115-.5.159-.758a1.244,1.244,0,0,0-1.181-1.5,4.714,4.714,0,0,0-1.468.107c-2.977.792-5.132,2.8-7.283,4.818-.1.095-.3.218-.2.345.328.435.607.968,1.141,1.155a1.109,1.109,0,0,0,1.242-.375,10.719,10.719,0,0,1,2.7-2.326c-.109.609-.169,1.03-.26,1.445-1.056,4.783-2.3,9.52-3.54,14.26a.868.868,0,0,0,.885,1.209c1.022.018,2.046-.006,3.068.01.341.006.462-.071.55-.452.665-2.87,1.28-5.759,2.1-8.587a11.59,11.59,0,0,1,6.61-7.888,20.913,20.913,0,0,0,2.62-1.087A1.948,1.948,0,0,0,1000.912,351.823Z" transform="translate(-859.977 -339.409)" fill="#fff"/>
      <path id="Path_767" data-name="Path 767" d="M1074.4,356.534a8.656,8.656,0,0,0-6.188,2.334,18.337,18.337,0,0,0-4.937,7.333,14.294,14.294,0,0,0-1.062,7.507c.492,3.1,2.737,4.63,5.828,3.935a21.487,21.487,0,0,0,8.333-4.419c.117-.091.3-.175.226-.323-.252-.524-.236-1.2-.8-1.548-.542-.343-.988-.054-1.419.27a12.7,12.7,0,0,1-4.027,2.123c-2.213.653-3.122-.147-3.378-2.451a12.31,12.31,0,0,1,.171-3.806,13.857,13.857,0,0,1,2.324-5.872c1.03-1.341,2.189-1.76,3.781-.845a9.513,9.513,0,0,0,1.927.935,2.48,2.48,0,0,0,2.875-.833,2.7,2.7,0,0,0-.361-3.207A3.942,3.942,0,0,0,1074.4,356.534Z" transform="translate(-923.257 -344.43)" fill="#fff"/>
    </g>
    <g id="Group_376" data-name="Group 376" transform="translate(13.251 205.153)">
      <path id="Union_21" data-name="Union 21" d="M-2074.114-9744.953c-.39-.2-.54-.391-.327-.862q1.485-3.286,2.879-6.609c.167-.4.179-.822-.5-.953-1.857-.354-3.623-1.078-5.487-1.441-.531-.1-1.042-.042-1.545-.1-1.145-.284-1.95.371-2.768.978a1.644,1.644,0,0,1-.931.413.772.772,0,0,1-.734-.373c-.194-.29.1-.41.231-.575a47.591,47.591,0,0,1,5.8-5.8c1.118-1.019,2.213-2.062,3.316-3.1,1.793-1.678,3.615-3.326,5.369-5.043,1.123-1.1,2.139-2.3,3.353-3.309a.712.712,0,0,0,.236-.862c-.152-.341-.506-.193-.766-.112a13.084,13.084,0,0,1-5.723.159,8.542,8.542,0,0,0-2.648-.071,1.327,1.327,0,0,0-1.154,1.216c-.1.663.354.982.955,1.118.027,0,.049.031.076.039.481.145.958.326,1.046.9.083.53-.373.786-.71,1.015-.432.294-.877.054-1.282-.207a3.392,3.392,0,0,1-.629-5.187,5.418,5.418,0,0,1,5-1.884c2.061.238,4.112.556,6.177.739a5.171,5.171,0,0,0,3.643-1.065c.405-.3.811-.358,1.125.007.332.386-.044.678-.3.943-4.028,4.181-8.3,8.118-12.446,12.178-1.383,1.356-2.829,2.648-4.264,3.952a.838.838,0,0,0-.317.924c.13.383.516.219.759.187a11.9,11.9,0,0,1,5.59,1c1.071.378,1.113.334,1.562-.744.928-2.223,1.874-4.438,2.807-6.656.145-.347.383-.548.732-.358.285.154.5.3.27.8-.931,2.02-1.751,4.085-2.611,6.134-.054.13-.081.274-.145.4-.457.872-.258,1.294.707,1.344a5.9,5.9,0,0,0,2.655.026,1.836,1.836,0,0,0,1.265-2.392,8.368,8.368,0,0,0-.494-1.191,1.323,1.323,0,0,1,.351-1.717,1.339,1.339,0,0,1,1.825.039,2.576,2.576,0,0,1,.764,2.257,7.754,7.754,0,0,1-5.219,5.537,7.058,7.058,0,0,1-2.753.243,1.067,1.067,0,0,0-1.2.771q-1.426,3.457-2.871,6.9c-.091.219-.175.467-.413.467A.585.585,0,0,1-2074.114-9744.953Zm-17.965-8.358c-1-.781-.936-1.85-.783-2.9.592-4.087,1.933-8,2.967-11.979.273-1.046.693-2.056.973-3.1.111-.41.273-.934-.14-1.282-.5-.42-1.027-.133-1.43.164-.788.58-1.523,1.238-2.262,1.885-.452.393-.8,1.127-1.481.25-.238-.307-.278-.271.582-1.135a16.382,16.382,0,0,1,5.691-3.983,3.843,3.843,0,0,1,1.636-.345c1.4,0,2.012.838,1.624,2.2-.855,3.021-1.739,6.037-2.6,9.058-.653,2.31-1.272,4.628-1.707,6.988-.091.489-.226,1.162.3,1.435a1.477,1.477,0,0,0,1.54-.292,16.6,16.6,0,0,0,2.614-2.29c.437-.486.644-.159.97.1.432.352.191.558-.083.8-1.808,1.563-3.453,3.334-5.708,4.312a4.325,4.325,0,0,1-1.634.5A1.7,1.7,0,0,1-2092.078-9753.312Zm-31.371-.644a1.124,1.124,0,0,1,1.039-.783c3.129-.14,3.923-1.963,4.559-4.082.978-3.25,1.783-6.554,2.625-9.842.732-2.85,1.417-5.714,2.115-8.57a1.2,1.2,0,0,0-1.034-1.647c-.211-.042-.481.066-.506-.308a.734.734,0,0,1,.358-.658,3.337,3.337,0,0,1,1.918-.393,26.98,26.98,0,0,0,3.564-.637c.626-.133.555.189.447.455-1.118,2.746-1.525,5.681-2.321,8.513-.28,1-.219,1.091.771,1.059a9.261,9.261,0,0,0,6.052-2.164c2.333-2.065,3.313-6.256,1.461-8.7a5.292,5.292,0,0,0-3.574-1.874,8.335,8.335,0,0,0-2.518-.2,19.381,19.381,0,0,0-14.514,6.739,13.364,13.364,0,0,0-3.4,9.1,5.034,5.034,0,0,0,2.27,4.242,8.869,8.869,0,0,1,1.53,1.271c.386.431.663.934.231,1.472s-.884,1.057-1.751.629a6.623,6.623,0,0,1-3.478-4.605c-1.206-4.782.477-8.9,3.323-12.62a19.49,19.49,0,0,1,9.329-6.452,22.862,22.862,0,0,1,8.052-1.31,11.1,11.1,0,0,1,5.652,1.334c3.382,2.041,4.316,4.75,2.628,8.235a8.015,8.015,0,0,1-4.65,4.028c-.307.113-.319.266-.324.509a.476.476,0,0,0,.432.55,5.971,5.971,0,0,1,4.89,4.52,7.523,7.523,0,0,1-.55,5.067,11.712,11.712,0,0,1-5.76,5.976,15.075,15.075,0,0,1-4.873,1.6,24.264,24.264,0,0,1-5.279-.037c-1.073-.086-2.147-.172-3.222-.167a30.488,30.488,0,0,0-5.018.344,1.432,1.432,0,0,1-.247.025C-2123.526-9753.338-2123.624-9753.5-2123.449-9753.955Zm12.009-14.668c-.491,2-.9,4.016-1.484,5.988-.67,2.265-1.11,4.635-2.616,6.58-.3.391-.125.663.332.729a27.187,27.187,0,0,0,3.637.4,8.716,8.716,0,0,0,8.852-8.929c0-2.915-1.2-4.482-3.93-5.138a18.325,18.325,0,0,0-4.094-.273h-.016C-2111.194-9769.27-2111.353-9768.978-2111.44-9768.623Zm27.45-13.585a1.939,1.939,0,0,1-1.715-1.926,2.912,2.912,0,0,1,2.361-2.788,2.206,2.206,0,0,1,2,1.928,3.2,3.2,0,0,1-2.62,2.786Z" transform="translate(2128 9786.923)" fill="#fff"/>
    </g>
  </g>
</svg>
