<svg xmlns="http://www.w3.org/2000/svg" width="741.062" height="390.508" viewBox="0 0 741.062 390.508">
  <path id="Union_47" data-name="Union 47" d="M636.8,386.2a30.733,30.733,0,0,1-11.456-11.611,32.193,32.193,0,0,1-4.15-16.125,35.468,35.468,0,0,1,3.653-16,29.717,29.717,0,0,1,10.1-11.672,25.355,25.355,0,0,1,14.492-4.333,23.974,23.974,0,0,1,13,3.732,26.556,26.556,0,0,1,9.412,10.229,30.664,30.664,0,0,1,3.465,14.678H637.177l-.131,3.849q0,12.393,4.024,20.518T655,387.581a28.841,28.841,0,0,0,18.891-7.045,56.945,56.945,0,0,0,13.929-17.262V339.33a4.866,4.866,0,0,0-.931-3.248,10.137,10.137,0,0,0-2.226-1.926,6.788,6.788,0,0,1-1.553-1.2l20.069-4.57v8.665a32.6,32.6,0,0,1,9.038-7.944,18.457,18.457,0,0,1,9.041-2.648A13.823,13.823,0,0,1,728,328.38a12.046,12.046,0,0,1,4.646,4.933l-9.412,5.776a11.949,11.949,0,0,0-3.653-5.054,8.44,8.44,0,0,0-5.391-1.927q-5.689,0-11.267,6.86l-.993,1.2a48.931,48.931,0,0,0-4.515,6.86q-2.051,3.73-4.9,9.624l-2.1,4.333q-14.615,29.478-37.4,29.482A31.57,31.57,0,0,1,636.8,386.2Zm3.779-51.383q-2.911,7.164-3.4,19.072H660.7q0-13.475-2.226-19.853t-9.036-6.376q-5.951,0-8.859,7.156ZM564.231,386.5a12.542,12.542,0,0,1-4.458-9.745V336.8a23.216,23.216,0,0,1,14.983-5.538h.371v46.57a9.793,9.793,0,0,0,2.289,6.916,8.281,8.281,0,0,0,6.381,2.467,18.028,18.028,0,0,0,6.684-1.322,27.32,27.32,0,0,1-15.354,4.574,15.789,15.789,0,0,1-10.9-3.967Zm-66.074,1.564a18.744,18.744,0,0,1-10.217-17.085V338.125a5.146,5.146,0,0,0-.868-3.188,8.128,8.128,0,0,0-2.226-1.987,6.563,6.563,0,0,1-1.61-1.2l20.064-3.37v44.882a10.487,10.487,0,0,0,3.647,8.182A12.857,12.857,0,0,0,515.8,384.7a16.2,16.2,0,0,0,6.935-1.628,20.531,20.531,0,0,0,6.438-4.873v-40.07a5.148,5.148,0,0,0-.868-3.188,8.13,8.13,0,0,0-2.226-1.987,6.558,6.558,0,0,1-1.61-1.2l20.063-3.369v26.592q2.474-6.015,4.087-9.326a38.525,38.525,0,0,1,4.395-6.859,26.9,26.9,0,0,1,6.752-6.074V322.6a5.154,5.154,0,0,0-.93-3.309,9.429,9.429,0,0,0-2.232-1.987,6.845,6.845,0,0,1-1.547-1.2l20.063-4.574v16.85h9.412v1.084h-9.783q-11.4,0-17.837,6.618T546.146,354.13a59.588,59.588,0,0,1-7,13.477q-3.9,5.417-9.971,12.393a29.532,29.532,0,0,1-9.909,7.883,25.457,25.457,0,0,1-11.022,2.587,21.577,21.577,0,0,1-10.087-2.409Zm-71.274-3.007L417.1,389.39V299.74a4.9,4.9,0,0,0-.925-3.248,10.276,10.276,0,0,0-2.232-1.927,6.594,6.594,0,0,1-1.547-1.2l20.063-4.574v49.335q4.452-6.257,8.916-8.963a19.407,19.407,0,0,1,10.28-2.708,22.227,22.227,0,0,1,13.065,4.333,31.115,31.115,0,0,1,9.846,11.732,35.038,35.038,0,0,1,3.716,15.944,30.3,30.3,0,0,1-4.458,16,33.081,33.081,0,0,1-12.009,11.672,32.59,32.59,0,0,1-16.478,4.333,33.86,33.86,0,0,1-18.453-5.415Zm12.2-51.322a22.038,22.038,0,0,0-6.621,6.078v41.154q4.212,8.421,12.877,8.423,9.05,0,13.071-8.6t4.024-22.32q0-10.229-2.477-16.307a16.745,16.745,0,0,0-8.3-8.963,11.512,11.512,0,0,0-5.7-1.443,14.023,14.023,0,0,0-6.876,1.975Zm90.1,49.037,1.364-1.685,1.238-1.326q4.461-5.054,7.306-8.722a56.027,56.027,0,0,0,5.451-8.726v16.125a5.148,5.148,0,0,0,.868,3.188,8.133,8.133,0,0,0,2.226,1.987,6.664,6.664,0,0,1,1.61,1.2l-20.063,4.574Zm-473.83,6.44c-2.5,0-5-1.209-5.628-3.039L.942,295.013a5.38,5.38,0,0,1,0-6.082,7.542,7.542,0,0,1,5.628-3.039H240.488V262.8H27.82a7.238,7.238,0,0,1-5-1.818c-1.256-1.2-1.256-3.039-1.256-4.857,6.889-52.866,24.4-99.053,51.3-137.345h92.581a18.549,18.549,0,0,0,18.767-18.237c0-10.338-8.139-18.237-18.767-18.237h-58.8C129.785,58.618,169.2,25.178,244.872.267A6.22,6.22,0,0,1,253,6.349V285.892H394.354a6.616,6.616,0,0,1,5.628,3.039c.628,1.818,1.256,4.264,0,6.082L351.814,386.17a6.619,6.619,0,0,1-5.628,3.039ZM240.488,234.848V37.951C211.715,114.519,211.715,180.765,240.488,234.848Zm442.625,153.7a6.905,6.905,0,0,1,1.61-1.205,8,8,0,0,0,2.232-1.983,5.186,5.186,0,0,0,.868-3.188V369.533a78.51,78.51,0,0,0,4.338-7.7l1.981-4.091q2.718-5.659,4.7-9.266a55.926,55.926,0,0,1,4.338-6.739v40.432a4.882,4.882,0,0,0,.927,3.248,10.126,10.126,0,0,0,2.226,1.922,6.835,6.835,0,0,1,1.553,1.2Zm-92.632,0a6.641,6.641,0,0,1,1.61-1.2,8.077,8.077,0,0,0,2.232-1.983,5.185,5.185,0,0,0,.868-3.188V299.74a4.9,4.9,0,0,0-.925-3.248,10.7,10.7,0,0,0-2.232-1.927,6.532,6.532,0,0,1-1.552-1.2l20.069-4.574V382.17a4.865,4.865,0,0,0,.925,3.248,10.124,10.124,0,0,0,2.226,1.922,6.764,6.764,0,0,1,1.553,1.2Zm-186.84-172.6V74.933q0-48.412,49.1-48.412,49.222,0,49.219,48.412V215.946q0,48.412-49.219,48.529-49.106,0-49.1-48.529Zm34.23-141.013V215.946q0,15.628,14.875,15.63,14.992,0,14.995-15.63V74.933q0-15.507-14.875-15.626h-.24q-14.761,0-14.755,15.626Zm236.921,185.78V62.947h-32.05V30.164h98.32V62.947H709.016V260.715Zm-71.839,0L578.763,83.042l-24.19,177.673H520.109L555.418,30.164h46.93l35.194,230.551Zm-323.029,0V30.164h52.723q45.6.115,45.6,48.529v65.452q0,22.683-18.75,32.081,18.742,9.4,18.75,32.081V212.3q0,48.3-47.775,48.412Zm34.224-32.783h14.994q14.872,0,14.875-15.63v-3.994q0-11.051-9.31-14.574-2.663-1.058-9.794-1.056H314.148Zm0-68.157h10.765q7.132,0,9.794-.939,9.307-3.645,9.31-14.691V78.693q0-15.742-14.875-15.746H314.148Zm-263.8-53.152a6.082,6.082,0,1,1,0-12.159H165.442a6.185,6.185,0,0,1,6.255,6.082c0,3.039-3.128,6.078-6.255,6.078ZM6.57,67.126a6.082,6.082,0,1,1,0-12.159H89.761c3.756,0,6.25,2.43,6.25,6.078a6.172,6.172,0,0,1-6.25,6.082Zm43.785-38.9c-3.128,0-6.256-3.039-6.256-6.082a6.173,6.173,0,0,1,6.256-6.078H142.93a6.177,6.177,0,0,1,6.256,6.078c0,3.651-2.5,6.082-6.256,6.082Z" transform="translate(0 0.034)" fill="#fff"/>
</svg>
