<svg xmlns="http://www.w3.org/2000/svg" width="100" height="100" viewBox="0 0 1204.789 653.194">
  <path id="Union_23" data-name="Union 23" d="M590.281,646.048a50.784,50.784,0,0,1-18.619-19.424,55.111,55.111,0,0,1-6.75-26.975,60.682,60.682,0,0,1,5.941-26.773,49.341,49.341,0,0,1,16.407-19.525,40.418,40.418,0,0,1,23.562-7.248,38.186,38.186,0,0,1,21.135,6.243,43.969,43.969,0,0,1,15.3,17.111,52.453,52.453,0,0,1,5.637,24.555H590.888l-.2,6.439q0,20.732,6.541,34.324t22.652,13.585q16.914,0,30.7-11.778A94.71,94.71,0,0,0,673.235,607.7V567.644a8.345,8.345,0,0,0-1.511-5.434,16.733,16.733,0,0,0-3.621-3.223,10.874,10.874,0,0,1-2.522-2.016l32.619-7.646v14.5a53.42,53.42,0,0,1,14.7-13.289q7.647-4.43,14.694-4.43a22.019,22.019,0,0,1,10.972,3.223,19.931,19.931,0,0,1,7.553,8.252l-15.3,9.661a19.987,19.987,0,0,0-5.941-8.455,13.486,13.486,0,0,0-8.76-3.223q-9.256,0-18.322,11.475l-1.612,2.016a81.416,81.416,0,0,0-7.344,11.475q-3.328,6.24-7.957,16.1l-3.419,7.248q-23.761,49.312-60.808,49.318A50.234,50.234,0,0,1,590.281,646.048Zm6.144-85.955q-4.734,11.984-5.536,31.9h38.25q0-22.542-3.621-33.211t-14.694-10.666Q601.152,548.119,596.425,560.093ZM472.3,646.547a21.242,21.242,0,0,1-7.249-16.3V563.417q11.076-9.264,24.358-9.264h.607v77.9q0,7.443,3.722,11.569t10.372,4.126a28.613,28.613,0,0,0,10.871-2.211,43.534,43.534,0,0,1-24.965,7.652A25.253,25.253,0,0,1,472.3,646.547Zm-107.419,2.616A31.021,31.021,0,0,1,352.8,637.695a32.277,32.277,0,0,1-4.532-17.111V565.629a8.811,8.811,0,0,0-1.409-5.333,13.349,13.349,0,0,0-3.621-3.324,10.682,10.682,0,0,1-2.617-2.009l32.619-5.636v75.08a17.756,17.756,0,0,0,5.934,13.686,20.552,20.552,0,0,0,14.4,5.441,25.754,25.754,0,0,0,11.275-2.724,33.469,33.469,0,0,0,10.466-8.151v-67.03a8.814,8.814,0,0,0-1.409-5.333,13.354,13.354,0,0,0-3.621-3.324,10.685,10.685,0,0,1-2.617-2.009l32.619-5.636V593.81q4.026-10.063,6.643-15.6a65.114,65.114,0,0,1,7.148-11.475,44.111,44.111,0,0,1,10.972-10.16V539.665a8.786,8.786,0,0,0-1.511-5.535,15.424,15.424,0,0,0-3.628-3.324A11.18,11.18,0,0,1,457.4,528.8l32.619-7.652v28.182h15.3v1.814H489.41q-18.521,0-28.991,11.07T442.906,592.4a100.848,100.848,0,0,1-11.377,22.546q-6.342,9.061-16.212,20.732a48.309,48.309,0,0,1-16.1,13.188,40.462,40.462,0,0,1-17.918,4.328A34.293,34.293,0,0,1,364.882,649.163Zm-115.87-5.03-15.9,7.248V501.417a8.344,8.344,0,0,0-1.511-5.434,16.943,16.943,0,0,0-3.628-3.223,10.822,10.822,0,0,1-2.515-2.009l32.619-7.652v82.53q7.243-10.467,14.492-14.994a30.886,30.886,0,0,1,16.717-4.531,35.453,35.453,0,0,1,21.236,7.248,51.737,51.737,0,0,1,16.009,19.626,60.03,60.03,0,0,1,6.042,26.672,51.76,51.76,0,0,1-7.249,26.773,54.526,54.526,0,0,1-19.53,19.525,51.793,51.793,0,0,1-26.779,7.248A53.9,53.9,0,0,1,249.012,644.133Zm19.833-85.854a36.252,36.252,0,0,0-10.769,10.167V637.29q6.848,14.088,20.939,14.091,14.7,0,21.243-14.394t6.541-37.338q0-17.111-4.026-27.278a27.7,27.7,0,0,0-13.487-14.994,18.343,18.343,0,0,0-9.266-2.414A22.286,22.286,0,0,0,268.845,558.28Zm146.472,82.031,2.219-2.818,2.01-2.218q7.253-8.455,11.882-14.59a94.155,94.155,0,0,0,8.861-14.6v26.975A8.811,8.811,0,0,0,441.7,638.4a13.347,13.347,0,0,0,3.621,3.324,10.862,10.862,0,0,1,2.616,2.009l-32.619,7.652Zm-770.335,10.774c-4.06,0-8.126-2.023-9.145-5.083l-79.305-152.492a9.208,9.208,0,0,1,0-10.174,12.16,12.16,0,0,1,9.151-5.084H-54.028V439.619H-399.768a11.532,11.532,0,0,1-8.126-3.041c-2.043-2.016-2.043-5.084-2.043-8.124,11.195-88.436,39.666-165.7,83.392-229.757h150.512a30.587,30.587,0,0,0,30.515-30.508c0-17.293-13.238-30.508-30.515-30.508h-95.585C-234,98.058-169.931,42.119-46.9.446c7.108-2.016,13.218,3.041,13.218,10.174V478.251h229.8a10.679,10.679,0,0,1,9.151,5.084c1.025,3.041,2.043,7.133,0,10.174L126.965,646a10.694,10.694,0,0,1-9.151,5.083Zm300.99-258.222V63.485C-100.8,191.571-100.8,302.391-54.028,392.863ZM665.581,649.972a10.976,10.976,0,0,1,2.617-2.016,13.254,13.254,0,0,0,3.628-3.317,8.858,8.858,0,0,0,1.409-5.333V618.17a132.083,132.083,0,0,0,7.047-12.884l3.223-6.843q4.42-9.466,7.647-15.5a94.59,94.59,0,0,1,7.047-11.273v67.637a8.345,8.345,0,0,0,1.511,5.434,16.7,16.7,0,0,0,3.621,3.216,11.067,11.067,0,0,1,2.522,2.016Zm-150.6,0a10.817,10.817,0,0,1,2.616-2.016,13.346,13.346,0,0,0,3.628-3.317,8.856,8.856,0,0,0,1.409-5.333V501.417a8.344,8.344,0,0,0-1.511-5.434,17.114,17.114,0,0,0-3.628-3.223,10.815,10.815,0,0,1-2.515-2.009L547.6,483.1V639.306a8.306,8.306,0,0,0,1.511,5.434,16.707,16.707,0,0,0,3.621,3.216,10.972,10.972,0,0,1,2.515,2.016ZM211.22,361.242V125.35q0-80.986,79.831-80.986,80.024,0,80.02,80.986V361.242q0,80.986-80.02,81.181Q211.22,442.424,211.22,361.242ZM266.869,125.35V361.242q0,26.142,24.183,26.146,24.378,0,24.379-26.146V125.35q0-25.94-24.183-26.139h-.391Q266.862,99.211,266.869,125.35ZM652.046,436.133V105.3H599.938V50.459H759.79V105.3h-52.1V436.133Zm-116.793,0L495.931,138.915,456.6,436.133H400.569L457.978,50.459h76.291l57.22,385.674Zm-525.169,0V50.459H95.809q74.126.192,74.126,81.181V241.132q0,37.944-30.481,53.667,30.478,15.726,30.481,53.667v6.681q0,80.794-77.667,80.986Zm55.642-54.84H90.1q24.186,0,24.183-26.146v-6.681q0-18.487-15.139-24.379-4.32-1.77-15.922-1.766h-17.5Zm0-114.015h17.5q11.6,0,15.922-1.571,15.143-6.1,15.139-24.575V131.641q0-26.335-24.183-26.341H65.726Zm-428.87-88.915A10.188,10.188,0,0,1-373.313,168.2a10.19,10.19,0,0,1,10.169-10.174h187.11A10.19,10.19,0,0,1-165.865,168.2c0,5.084-5.085,10.167-10.169,10.167Zm-71.172-66.072a10.208,10.208,0,0,1-10.169-10.174A10.189,10.189,0,0,1-434.316,91.95h135.244c6.11,0,10.169,4.065,10.169,10.167a10.185,10.185,0,0,1-10.169,10.174Zm71.179-65.081c-5.085,0-10.176-5.084-10.176-10.174a10.19,10.19,0,0,1,10.176-10.167h150.5a10.184,10.184,0,0,1,10.169,10.167c0,6.108-4.06,10.174-10.169,10.174Z" transform="translate(445)" fill="#004788"/>
</svg>
