<svg xmlns="http://www.w3.org/2000/svg" width="251.071" height="150.406" viewBox="0 0 251.071 150.406">
  <path id="Union_15" data-name="Union 15" d="M197.73,149.623l-33.215-34.3-46.8,9.7a2.615,2.615,0,0,1-.522.053,2.574,2.574,0,0,1-2.3-3.722l22.1-44.383L114.763,33.909a2.574,2.574,0,0,1,2.666-3.727l46.867,6.96L197.456.838a2.574,2.574,0,0,1,4.45,1.373l6.917,48.622,42.662,20.561a2.575,2.575,0,0,1,.108,4.583L208.915,99.087l-6.786,49.1a2.574,2.574,0,0,1-4.4,1.439Zm2.5-80.652a13.87,13.87,0,0,0-2.564,8.736c0,3.675.856,6.573,2.543,8.613a7.461,7.461,0,0,0,6.111,2.646,7.547,7.547,0,0,0,4.84-1.589,9.338,9.338,0,0,0,2.932-4.871l-4.7-.964c-.5,2.068-1.525,3.118-3.035,3.118a3.349,3.349,0,0,1-2.7-1.416,6.512,6.512,0,0,1-1.159-4h11.833l.021-.656c0-4.19-.841-7.406-2.5-9.557a7.187,7.187,0,0,0-6.009-2.83A6.85,6.85,0,0,0,200.235,68.972ZM182.169,85.279a7.8,7.8,0,0,0,2.541,2.745,5.675,5.675,0,0,0,3.036.943A6.5,6.5,0,0,0,193,85.982c1.483-1.98,2.236-4.846,2.236-8.52s-.735-6.517-2.184-8.409A6.559,6.559,0,0,0,187.7,66.2a5.5,5.5,0,0,0-2.8.759,7.893,7.893,0,0,0-2.389,2.276V58.41h-4.737V88.475h4.388v-3.2Zm-25.329-4.8a13.857,13.857,0,0,0,.687,4.943,5.555,5.555,0,0,0,2.082,2.624,5.615,5.615,0,0,0,3.158.923,6.275,6.275,0,0,0,3.343-.994,7.486,7.486,0,0,0,2.584-2.759v3.261h4.389V66.7h-4.717v9.187a31.3,31.3,0,0,1-.319,5.732,3.907,3.907,0,0,1-1.322,2.133,3.387,3.387,0,0,1-2.194.83,2.655,2.655,0,0,1-1.785-.635,3.008,3.008,0,0,1-.953-1.795,40.434,40.434,0,0,1-.216-5.445V66.7H156.84ZM136.7,63.5h7.322V88.475h4.963V63.5h7.3V58.41H136.7ZM5.4,86.2Q1.869,81.81,1.868,74.357q0-7.873,3.549-12.325a10.065,10.065,0,0,1,8.293-3.864,9.563,9.563,0,0,1,7.1,2.9,12.569,12.569,0,0,1,2.982,6.11l-5.039,1.47a6.815,6.815,0,0,0-1.921-3.832,4.824,4.824,0,0,0-3.39-1.333,5.4,5.4,0,0,0-4.557,2.435q-1.763,2.435-1.763,8.042,0,5.816,1.722,8.273a5.243,5.243,0,0,0,4.472,2.456A4.623,4.623,0,0,0,16.8,83.123a9.916,9.916,0,0,0,2.12-4.965l4.935,1.911Q22.7,85.234,20.01,87.616A9.609,9.609,0,0,1,13.4,90,9.789,9.789,0,0,1,5.4,86.2Zm107.479,1.984a6.658,6.658,0,0,1-1.7-4.776,7.381,7.381,0,0,1,.693-3.3,5.631,5.631,0,0,1,1.953-2.246,12.93,12.93,0,0,1,4.031-1.49,23.051,23.051,0,0,0,4.682-1.449,7.036,7.036,0,0,0-.263-2.425,2.038,2.038,0,0,0-.966-.945,4.358,4.358,0,0,0-1.984-.368,3.22,3.22,0,0,0-2.048.589,4.249,4.249,0,0,0-1.207,2.2l-4.388-.966a8.541,8.541,0,0,1,2.635-4.861,8.24,8.24,0,0,1,5.28-1.48,10.188,10.188,0,0,1,4.682.86,5.087,5.087,0,0,1,2.31,2.341,14.268,14.268,0,0,1,.692,5.386l-.041,6.887a29.333,29.333,0,0,0,.23,4.315,14.661,14.661,0,0,0,.861,3.013h-4.787l-.63-2.435a8.824,8.824,0,0,1-2.656,2.2,6.448,6.448,0,0,1-3.013.735A5.748,5.748,0,0,1,112.875,88.183Zm6.781-8.535a6.743,6.743,0,0,0-2.939,1.3,2.544,2.544,0,0,0-.693,1.848,3.143,3.143,0,0,0,.767,2.153,2.451,2.451,0,0,0,1.921.871,3.532,3.532,0,0,0,2.037-.7,3.746,3.746,0,0,0,1.4-1.669,10.674,10.674,0,0,0,.389-3.506V78.766A24.237,24.237,0,0,1,119.657,79.648ZM84.068,89.013a7.944,7.944,0,0,1-2.6-2.813v3.275H76.972V58.694h4.85V69.78a8.049,8.049,0,0,1,2.446-2.33,5.593,5.593,0,0,1,2.866-.777,6.686,6.686,0,0,1,5.47,2.918q2.236,2.919,2.236,8.609,0,5.67-2.289,8.725a6.624,6.624,0,0,1-5.375,3.055A5.779,5.779,0,0,1,84.068,89.013ZM82.956,72.824a8.647,8.647,0,0,0-1.175,5.018,13.584,13.584,0,0,0,.545,4.388,4.966,4.966,0,0,0,1.553,2.3A3.4,3.4,0,0,0,86,85.317a3.264,3.264,0,0,0,2.729-1.669,9.587,9.587,0,0,0,1.134-5.28q0-3.8-1.144-5.491a3.328,3.328,0,0,0-5.764-.052ZM58.789,87.269q-2.6-3.148-2.6-8.818,0-5.585,2.625-8.944a6.985,6.985,0,0,1,5.753-2.834,7.325,7.325,0,0,1,6.151,2.9q2.562,3.317,2.561,9.784l-.021.672H61.141a6.643,6.643,0,0,0,1.186,4.094,3.419,3.419,0,0,0,2.761,1.449q2.33,0,3.108-3.191L73,83.364a9.517,9.517,0,0,1-3,4.987,7.692,7.692,0,0,1-4.955,1.627A7.607,7.607,0,0,1,58.789,87.269Zm3.486-14.718a6.1,6.1,0,0,0-1.05,3.863h7.244A6.438,6.438,0,0,0,67.355,72.5a3.117,3.117,0,0,0-2.5-1.313A3.155,3.155,0,0,0,62.275,72.552Zm-32.9,14.718q-2.6-3.148-2.6-8.818,0-5.585,2.624-8.944a6.985,6.985,0,0,1,5.753-2.834,7.325,7.325,0,0,1,6.152,2.9q2.562,3.317,2.561,9.784l-.021.672H31.725a6.643,6.643,0,0,0,1.186,4.094,3.419,3.419,0,0,0,2.761,1.449q2.33,0,3.108-3.191l4.808.986a9.517,9.517,0,0,1-3,4.987,7.692,7.692,0,0,1-4.955,1.627A7.607,7.607,0,0,1,29.373,87.269Zm3.486-14.718a6.1,6.1,0,0,0-1.05,3.863h7.244A6.444,6.444,0,0,0,37.94,72.5a3.118,3.118,0,0,0-2.5-1.313A3.155,3.155,0,0,0,32.859,72.552ZM98.535,89.474v-22.3h4.493v3.17A9.522,9.522,0,0,1,105.1,67.4a3.3,3.3,0,0,1,2.11-.724,5.271,5.271,0,0,1,3.171,1.112l-1.512,5.144a3.687,3.687,0,0,0-2.268-.966,2.47,2.47,0,0,0-1.774.745,4.944,4.944,0,0,0-1.1,2.7,50.214,50.214,0,0,0-.336,7.18v6.887Zm-50.747,0V58.694h4.85v30.78Zm136.738-5.829a4.878,4.878,0,0,1-1.517-2.245,13.317,13.317,0,0,1-.533-4.287,8.481,8.481,0,0,1,1.148-4.9,3.251,3.251,0,0,1,5.63.051c.742,1.1,1.118,2.9,1.118,5.363a9.411,9.411,0,0,1-1.108,5.158,3.2,3.2,0,0,1-2.666,1.63A3.336,3.336,0,0,1,184.525,83.645Zm25.142-7.926h-7.075a5.982,5.982,0,0,1,1.026-3.774,3.009,3.009,0,0,1,4.963-.051,6.32,6.32,0,0,1,1.087,3.824h0Z" transform="translate(-1.868)" fill="#fff"/>
</svg>
