<svg xmlns="http://www.w3.org/2000/svg" width="60.018" height="60.002" viewBox="0 0 60.018 60.002">
  <g id="Group_25" data-name="Group 25" transform="translate(117 -3411)">
    <path id="np_checkout_3953055_000000" d="M24.256,46.931H54.232a6.422,6.422,0,0,0,6.231-4.86L66.2,19.611a2.127,2.127,0,0,0-2.141-2.655h-6.98a17.647,17.647,0,0,1,.557,4.282,17.129,17.129,0,1,1-34.258,0,17.648,17.648,0,0,1,.557-4.282H19.1L17.683,11.2A6.424,6.424,0,0,0,11.431,6.25H8.39a2.141,2.141,0,1,0,0,4.282h3.04a2.141,2.141,0,0,1,2.141,1.649l7.451,31.945-2.548,2.548a6.424,6.424,0,0,0,4.539,10.963,6.423,6.423,0,1,0,12.461,2.141,5.976,5.976,0,0,0-.407-2.141h7.9a6.423,6.423,0,1,0,12.076,0h4.732a2.141,2.141,0,1,0,0-4.282H23.014a2.142,2.142,0,0,1-1.52-3.661ZM49.072,57.637a2.141,2.141,0,1,1-2.141,2.141,2.14,2.14,0,0,1,2.141-2.141Zm-19.955,0a2.141,2.141,0,1,1-2.141,2.141,2.14,2.14,0,0,1,2.141-2.141Z" transform="translate(-123.249 3404.75)" fill="#fff"/>
    <path id="np_checkout_3953055_000000-2" data-name="np_checkout_3953055_000000" d="M50.347,35.068a12.848,12.848,0,1,0-9.084-3.763A12.848,12.848,0,0,0,50.347,35.068ZM42.4,20.7a2.139,2.139,0,0,1,3.04,0l2.762,2.783,5.909-5.931a2.15,2.15,0,1,1,3.04,3.04l-7.43,7.43a2.139,2.139,0,0,1-3.04,0L42.4,23.742a2.139,2.139,0,0,1,0-3.04Z" transform="translate(-133.088 3403.766)" fill="#376cf4"/>
  </g>
</svg>
