<svg id="Component_7_3" data-name="Component 7 – 3" xmlns="http://www.w3.org/2000/svg" width="60" height="60" viewBox="0 0 60 60">
  <circle id="Ellipse_3" data-name="Ellipse 3" cx="20.5" cy="20.5" r="20.5" transform="translate(10 10)"/>
  <path id="np_close_1891117_000000" d="M32.5,2.5a30,30,0,1,0,30,30A30.028,30.028,0,0,0,32.5,2.5Zm6.19,31.515,5.368,5.368a1.526,1.526,0,0,1,0,2.211L41.6,44.056a1.526,1.526,0,0,1-2.211,0l-5.368-5.368a2.137,2.137,0,0,0-3.094,0l-5.371,5.371a1.526,1.526,0,0,1-2.211,0L20.88,41.6a1.526,1.526,0,0,1,0-2.211l5.368-5.368a2.137,2.137,0,0,0,0-3.094l-5.307-5.371a1.526,1.526,0,0,1,0-2.211L23.4,20.88a1.526,1.526,0,0,1,2.211,0l5.368,5.368a2.137,2.137,0,0,0,3.094,0l5.368-5.368a1.526,1.526,0,0,1,2.211,0l2.462,2.462a1.526,1.526,0,0,1,0,2.211l-5.368,5.368a2.087,2.087,0,0,0-.059,3.094Z" transform="translate(-2.5 -2.5)" fill="#fff"/>
</svg>
