<svg xmlns="http://www.w3.org/2000/svg" width="50" height="50" viewBox="0 0 68.751 64.367">
  <path id="Union_19" data-name="Union 19" d="M-1962.018,62.757l-.26-12.784a1.63,1.63,0,0,1,.394-1.077h0l-.011-.011,19.662-23.575,5.149-6.179a3.992,3.992,0,0,1,3.464-1.314,6.37,6.37,0,0,1,3.484,1.5l6.619,5.521h0c2.344,1.956,2.971,4.944,1.418,6.8l-5.148,6.179-19.566,23.46-.011-.011a1.625,1.625,0,0,1-.92.57l-12.3,2.5a1.657,1.657,0,0,1-.329.033A1.643,1.643,0,0,1-1962.018,62.757Zm3.246-2.034,6.973-1.422-7.121-5.834Zm.459-11,10.016,8.2,17.473-20.949-9.942-8.293Zm23.751-28.475-4.1,4.916,9.942,8.287,4.1-4.913c.233-.279.025-1.314-1.005-2.169l-6.62-5.521a3.1,3.1,0,0,0-1.651-.748.848.848,0,0,0-.167-.017A.837.837,0,0,0-1934.562,21.243Zm-45.02,36.729h0l-1.15-1.15a5.642,5.642,0,0,1,0-7.953l3.286-3.286a23.584,23.584,0,0,1-2.289-5.521h-4.634A5.641,5.641,0,0,1-1990,34.429v-1.61a5.641,5.641,0,0,1,5.634-5.631h4.634a23.6,23.6,0,0,1,2.289-5.521l-3.284-3.289a5.648,5.648,0,0,1,0-7.956l1.15-1.15a5.643,5.643,0,0,1,7.954,0l3.286,3.286a23.474,23.474,0,0,1,5.521-2.289V5.634A5.639,5.639,0,0,1-1957.181,0h1.608a5.642,5.642,0,0,1,5.634,5.634v4.64a23.68,23.68,0,0,1,5.518,2.292h0l3.275-3.278a5.645,5.645,0,0,1,7.959,0h0l1.15,1.15a5.614,5.614,0,0,1,1.435,5.409,8.634,8.634,0,0,0-2.8-.753c-.126-.011-.252-.011-.378-.011a2.339,2.339,0,0,0-.575-2.323l-1.15-1.15a2.354,2.354,0,0,0-3.314,0l-4.171,4.171c-.006.008-.016.011-.022.016a1.667,1.667,0,0,1-.474.315c-.041.016-.076.03-.117.044a1.456,1.456,0,0,1-1.1,0,1.565,1.565,0,0,1-.156-.071c-.062-.028-.126-.055-.186-.088a20.407,20.407,0,0,0-6.88-2.848h0c-.028-.006-.049-.016-.077-.025a1.808,1.808,0,0,1-.233-.074l0,0c-.044-.02-.074-.041-.126-.069s-.1-.054-.153-.088-.085-.068-.126-.1-.08-.066-.117-.1q-.1-.119-.2-.247a1.342,1.342,0,0,1-.068-.123c-.03-.052-.057-.1-.083-.156s-.03-.1-.046-.151a1.576,1.576,0,0,1-.044-.153,1.477,1.477,0,0,1-.021-.219c0-.042-.011-.074-.011-.11v-5.9a2.351,2.351,0,0,0-.69-1.663,2.363,2.363,0,0,0-1.665-.685h-1.608a2.349,2.349,0,0,0-2.347,2.347v5.916c0,.027-.008.055-.008.082a1.718,1.718,0,0,1-.025.239v0a1.4,1.4,0,0,1-.041.137,1.2,1.2,0,0,1-.052.17,1.022,1.022,0,0,1-.074.145c-.025.044-.043.09-.074.134a1.578,1.578,0,0,1-.1.126c-.033.038-.066.085-.1.121s-.079.068-.117.1a1.546,1.546,0,0,1-.124.1,1.757,1.757,0,0,1-.162.09.93.93,0,0,1-.115.063,2.024,2.024,0,0,1-.252.082v0a.208.208,0,0,1-.058.019A20.451,20.451,0,0,0-1967.711,16a1.162,1.162,0,0,1-.192.088h0a1.6,1.6,0,0,1-.154.071,1.636,1.636,0,0,1-.548.11,1.625,1.625,0,0,1-.548-.11c-.041-.014-.079-.027-.117-.044a1.661,1.661,0,0,1-.474-.316h0c-.006-.008-.016-.008-.022-.016l-4.174-4.174a2.347,2.347,0,0,0-3.308,0l-1.15,1.15a2.349,2.349,0,0,0,0,3.314l4.158,4.157.008.011a1.6,1.6,0,0,1,.356.531.109.109,0,0,1,.008.03,1.668,1.668,0,0,1,.115.589v.028a1.621,1.621,0,0,1-.115.591l-.011.022a1.983,1.983,0,0,1-.134.263,20.391,20.391,0,0,0-2.848,6.877v.008a1.652,1.652,0,0,1-.194.482l0,0a.312.312,0,0,1-.028.054,1.611,1.611,0,0,1-.321.362c-.024.02-.043.038-.068.055a1.62,1.62,0,0,1-.413.23.739.739,0,0,1-.08.025,1.633,1.633,0,0,1-.488.085h-5.91a2.352,2.352,0,0,0-2.347,2.347v1.61a2.352,2.352,0,0,0,2.347,2.347l5.9,0a1.332,1.332,0,0,1,.156.017,1.4,1.4,0,0,1,.158.016,1.471,1.471,0,0,1,.219.066v0c.028.011.058.016.085.028a1.868,1.868,0,0,1,.208.109h0c.022.014.047.025.069.038a1.653,1.653,0,0,1,.17.134c.025.022.052.041.076.066a1.6,1.6,0,0,1,.126.145l0,0c.025.033.055.063.08.1a1.29,1.29,0,0,1,.093.17c.019.036.044.071.06.11a1.452,1.452,0,0,1,.077.235c.006.025.016.047.022.071a20.464,20.464,0,0,0,2.848,6.877,1.523,1.523,0,0,1,.137.26l.011.022a1.615,1.615,0,0,1,.109.591v.03a1.64,1.64,0,0,1-.109.586.091.091,0,0,0-.008.03,1.651,1.651,0,0,1-.353.531v.006h-.006l-4.163,4.163a2.351,2.351,0,0,0,0,3.312l1.15,1.15a2.354,2.354,0,0,0,3.314,0l4.171-4.172a1.568,1.568,0,0,1,.534-.353.045.045,0,0,1,.028-.008,1.577,1.577,0,0,1,.585-.11h.033a1.6,1.6,0,0,1,.585.115h0c.008,0,.017.014.027.014a1.5,1.5,0,0,1,.255.131h0a20.66,20.66,0,0,0,2.75,1.478v0l.071,3.566a23.571,23.571,0,0,1-3.445-1.6l-3.292,3.281a5.632,5.632,0,0,1-3.98,1.639A5.633,5.633,0,0,1-1979.582,57.972Zm8.208-21.584a15.245,15.245,0,0,1,3.281-12.538,15.25,15.25,0,0,1,11.744-5.48,15.236,15.236,0,0,1,11.717,5.538l-2.158,2.588a11.958,11.958,0,0,0-8.43-4.779,11.964,11.964,0,0,0-9.2,3.043,11.971,11.971,0,0,0-3.919,8.866h0a11.972,11.972,0,0,0,1.811,6.307,11.971,11.971,0,0,0,4.86,4.406l-2.152,2.58A15.233,15.233,0,0,1-1971.374,36.388Zm9.7,7.95v0Z" transform="translate(1990)" fill="#fff"/>
</svg>
