<svg xmlns="http://www.w3.org/2000/svg" width="52.734" height="59.999" viewBox="0 0 52.734 59.999">
  <g id="Group_4666" data-name="Group 4666" transform="translate(-1172 -8482)">
    <path id="Path_4124" data-name="Path 4124" d="M40.311,37.087c6.4,0,9.34-5.409,10.68-11.793.623-.75,3.652-4.542,3.869-7.479a2.837,2.837,0,0,0-2.8-3.267c.063-3.1-.023-5.822-.023-7.58C52.03-.165,40.311,0,40.311,0S28.59-.165,28.59,6.97c0,1.758-.089,4.476-.023,7.575a2.861,2.861,0,0,0-2.9,3.272c.244,3.272,4,7.638,4,7.638l0-.019c1.352,6.321,4.3,11.651,10.65,11.651Z" transform="translate(1158.107 8482.001)" fill="#376cf4"/>
    <g id="Group_4665" data-name="Group 4665" transform="translate(1172 8520.655)">
      <path id="Path_4123" data-name="Path 4123" d="M43.707,68.551l1.887,3.593-1.887,6.012,3.776,8.013,3.776-8.013-1.887-6.012,1.887-3.593Z" transform="translate(-21.116 -66.076)" fill="#252525"/>
      <path id="Path_4125" data-name="Path 4125" d="M21.629,64.426C7.78,69.008,6.226,83,6.055,85.77H28.112C23.793,76.967,21.629,64.426,21.629,64.426Z" transform="translate(-6.055 -64.426)" fill="#252525"/>
      <path id="Path_4126" data-name="Path 4126" d="M57.184,85.77H79.241C79.068,83,77.516,69.008,63.665,64.426,63.667,64.426,61.5,76.967,57.184,85.77Z" transform="translate(-26.507 -64.426)" fill="#252525"/>
    </g>
  </g>
</svg>
