<svg id="ecommerce-development-companies" xmlns="http://www.w3.org/2000/svg" width="150.666" height="131.386" viewBox="0 0 150.666 131.386">
  <ellipse id="Ellipse_1" data-name="Ellipse 1" cx="62.606" cy="62.559" rx="62.606" ry="62.559" transform="translate(12.727 3.134)" fill="#fff"/>
  <path id="Ellipse_1_-_Outline" data-name="Ellipse 1 - Outline" d="M61.7-4.035A65.693,65.693,0,1,1-4.035,61.658,65.791,65.791,0,0,1,61.7-4.035Zm0,125.118A59.425,59.425,0,1,0,2.233,61.658,59.516,59.516,0,0,0,61.7,121.083Z" transform="translate(13.628 4.035)" fill="#4385f4"/>
  <path id="Ellipse_2" data-name="Ellipse 2" d="M54.206-.51c.525,0,1.057.008,1.58.022a.4.4,0,0,1,.385.407A.4.4,0,0,1,55.764.3C55.248.29,54.724.282,54.206.282A.4.4,0,0,1,53.83.01a.4.4,0,0,1-.372.277C52.94.294,52.417.309,51.9.331a.4.4,0,0,1-.412-.379.4.4,0,0,1,.379-.412C52.391-.483,52.922-.5,53.447-.5a.4.4,0,0,1,.382.272A.4.4,0,0,1,54.206-.51Zm4.7.2h.034c.523.045,1.052.1,1.572.157a.4.4,0,1,1-.09.787c-.513-.059-1.034-.111-1.55-.155a.4.4,0,0,1,.033-.791ZM48.756-.24a.4.4,0,0,1,.039.79C48.28.6,47.759.661,47.247.727a.4.4,0,1,1-.1-.786c.52-.067,1.048-.127,1.57-.179ZM63.573.294A.4.4,0,0,1,63.641.3c.517.09,1.04.188,1.553.293a.4.4,0,1,1-.158.776c-.506-.1-1.021-.2-1.531-.289a.4.4,0,0,1,.067-.786ZM44.1.428a.4.4,0,0,1,.073.785c-.508.1-1.021.2-1.526.31a.4.4,0,0,1-.169-.774c.512-.112,1.033-.218,1.548-.315A.4.4,0,0,1,44.1.428ZM68.17,1.3a.4.4,0,0,1,.1.013c.507.134,1.019.278,1.521.427a.4.4,0,0,1-.225.76c-.5-.147-1-.288-1.5-.421a.4.4,0,0,1,.1-.779Zm-28.654.2a.4.4,0,0,1,.107.778c-.5.139-1,.288-1.493.442a.4.4,0,1,1-.236-.756c.5-.156,1.011-.307,1.516-.448A.4.4,0,0,1,39.516,1.5ZM72.662,2.7a.4.4,0,0,1,.134.024c.493.178.991.366,1.479.558a.4.4,0,0,1-.29.737c-.481-.189-.971-.375-1.457-.55a.4.4,0,0,1,.134-.769Zm-37.617.261a.4.4,0,0,1,.14.767c-.483.182-.971.374-1.449.57a.4.4,0,0,1-.3-.733c.485-.2.98-.394,1.471-.579A.4.4,0,0,1,35.044,2.963ZM77.014,4.491a.4.4,0,0,1,.166.037c.476.22.955.451,1.424.685a.4.4,0,1,1-.353.709c-.463-.231-.935-.458-1.4-.675a.4.4,0,0,1,.167-.756Zm-46.3.321a.4.4,0,0,1,.172.753c-.466.224-.935.457-1.394.694a.4.4,0,0,1-.363-.7c.466-.241.942-.477,1.415-.7A.4.4,0,0,1,30.717,4.812ZM81.194,6.651a.394.394,0,0,1,.2.052c.455.261.912.532,1.36.805a.4.4,0,0,1-.414.676c-.441-.27-.892-.537-1.34-.794a.4.4,0,0,1,.2-.74ZM26.568,7.03a.4.4,0,0,1,.2.737c-.445.263-.892.536-1.329.812a.4.4,0,1,1-.423-.67c.443-.28.9-.557,1.348-.824A.394.394,0,0,1,26.568,7.03Zm58.6,2.135a.394.394,0,0,1,.226.071c.431.3.863.609,1.285.92a.4.4,0,0,1-.47.637c-.416-.307-.842-.612-1.266-.907a.4.4,0,0,1,.226-.721ZM22.626,9.6a.4.4,0,0,1,.231.718c-.42.3-.842.611-1.254.924a.4.4,0,0,1-.479-.631c.418-.317.846-.633,1.272-.938A.394.394,0,0,1,22.626,9.6Zm66.29,2.414a.394.394,0,0,1,.253.091c.4.335.807.681,1.2,1.027a.4.4,0,0,1-.524.595c-.388-.342-.786-.682-1.184-1.012a.4.4,0,0,1,.253-.7Zm-70,.485a.4.4,0,0,1,.258.7c-.393.336-.786.682-1.169,1.029a.4.4,0,1,1-.532-.587c.389-.352.788-.7,1.186-1.044A.4.4,0,0,1,18.92,12.5ZM92.4,15.173a.4.4,0,0,1,.278.114c.373.369.746.748,1.108,1.127a.4.4,0,1,1-.573.547c-.357-.374-.724-.747-1.092-1.11a.4.4,0,0,1,.278-.678Zm-76.924.533a.4.4,0,0,1,.282.674c-.363.368-.725.747-1.077,1.125a.4.4,0,0,1-.58-.539c.357-.384.724-.768,1.092-1.142A.4.4,0,0,1,15.478,15.706ZM95.6,18.622a.4.4,0,0,1,.3.139c.34.4.679.809,1.007,1.218a.4.4,0,0,1-.618.5c-.323-.4-.657-.807-.992-1.2a.4.4,0,0,1,.3-.653ZM12.325,19.2a.4.4,0,0,1,.3.649c-.33.4-.658.807-.976,1.214a.4.4,0,1,1-.625-.487c.322-.413.656-.828.99-1.232A.4.4,0,0,1,12.325,19.2ZM98.5,22.333a.4.4,0,0,1,.323.166c.3.427.606.865.9,1.3a.4.4,0,0,1-.658.441c-.287-.429-.585-.86-.885-1.281a.4.4,0,0,1,.322-.626Zm-89.011.616a.4.4,0,0,1,.325.621c-.294.425-.586.86-.867,1.294a.4.4,0,0,1-.664-.432c.286-.44.582-.881.88-1.313A.4.4,0,0,1,9.484,22.949Zm91.572,3.331a.4.4,0,0,1,.342.2c.266.452.529.914.782,1.373a.4.4,0,0,1-.694.382c-.249-.453-.508-.908-.771-1.353a.4.4,0,0,1,.341-.6Zm-94.078.652a.4.4,0,0,1,.344.592c-.256.449-.509.908-.752,1.364a.4.4,0,1,1-.7-.372c.246-.463.5-.928.763-1.384A.4.4,0,0,1,6.978,26.931Zm96.287,3.5a.4.4,0,0,1,.358.226c.226.473.448.957.66,1.436a.4.4,0,1,1-.725.32c-.209-.473-.428-.949-.65-1.415a.4.4,0,0,1,.357-.567Zm-98.439.682a.4.4,0,0,1,.36.562c-.216.469-.428.949-.63,1.424a.4.4,0,1,1-.729-.31c.205-.482.42-.969.64-1.445A.4.4,0,0,1,4.827,31.116Zm100.278,3.649a.4.4,0,0,1,.371.257c.184.491.363.992.532,1.488a.4.4,0,0,1-.75.256c-.167-.489-.343-.982-.524-1.466a.4.4,0,0,1,.371-.535ZM3.048,35.472a.4.4,0,0,1,.373.53c-.174.486-.344.982-.5,1.474a.4.4,0,0,1-.753-.245c.162-.5.334-1,.511-1.5A.4.4,0,0,1,3.048,35.472ZM106.56,39.24a.4.4,0,0,1,.381.29c.14.505.275,1.02.4,1.529a.4.4,0,1,1-.769.189c-.124-.5-.256-1.009-.394-1.506a.4.4,0,0,1,.382-.5Zm-104.9.727a.4.4,0,0,1,.383.5c-.131.5-.257,1.008-.373,1.512A.4.4,0,0,1,.9,41.8c.118-.511.246-1.027.379-1.534A.4.4,0,0,1,1.657,39.967Zm105.961,3.857a.4.4,0,0,1,.389.324c.1.515.185,1.04.265,1.558a.4.4,0,0,1-.783.122c-.079-.511-.167-1.027-.261-1.535a.4.4,0,0,1,.39-.468ZM.662,44.566a.4.4,0,0,1,.391.463c-.087.509-.168,1.027-.24,1.538a.4.4,0,1,1-.784-.111C.1,45.937.184,45.412.272,44.9A.4.4,0,0,1,.662,44.566Zm107.611,3.918a.4.4,0,0,1,.394.358c.05.521.094,1.051.129,1.575a.4.4,0,1,1-.79.053c-.035-.516-.078-1.038-.127-1.552a.4.4,0,0,1,.356-.432Zm-108.2.75H.105a.4.4,0,0,1,.362.427C.425,50.177.389,50.7.361,51.216a.4.4,0,0,1-.417.374.4.4,0,0,1-.374-.417c.028-.524.064-1.055.108-1.577A.4.4,0,0,1,.072,49.234Zm108.451,3.948a.4.4,0,0,1,.4.392c0,.194,0,.391,0,.586,0,.331,0,.666-.009,1a.4.4,0,0,1-.792-.014c.006-.326.009-.656.009-.982,0-.192,0-.386,0-.577a.4.4,0,0,1,.392-.4ZM-.114,53.936a.4.4,0,0,1,.4.395c0,.517.011,1.042.027,1.558a.4.4,0,0,1-.383.408.4.4,0,0,1-.408-.383c-.017-.524-.026-1.055-.027-1.58a.4.4,0,0,1,.395-.4Zm108.485,3.949h.03a.4.4,0,0,1,.365.425c-.039.523-.087,1.053-.141,1.574a.4.4,0,1,1-.788-.082c.054-.514.1-1.036.139-1.552A.4.4,0,0,1,108.371,57.886ZM.1,58.637A.4.4,0,0,1,.5,59c.046.515.1,1.036.16,1.549a.4.4,0,1,1-.787.093c-.061-.52-.116-1.049-.163-1.572a.4.4,0,0,1,.359-.43Zm107.713,3.922a.4.4,0,0,1,.391.46c-.084.518-.178,1.041-.277,1.556a.4.4,0,0,1-.778-.15c.1-.507.19-1.023.273-1.533A.4.4,0,0,1,107.816,62.558ZM.723,63.3a.4.4,0,0,1,.39.327c.09.509.189,1.024.294,1.529a.4.4,0,0,1-.776.161c-.107-.513-.207-1.036-.3-1.552a.4.4,0,0,1,.39-.465Zm106.135,3.864a.4.4,0,0,1,.384.494c-.129.508-.268,1.022-.412,1.526a.4.4,0,0,1-.762-.217c.142-.5.278-1,.406-1.5A.4.4,0,0,1,106.857,67.165ZM1.746,67.893a.4.4,0,0,1,.382.293c.134.5.278,1,.427,1.5a.4.4,0,0,1-.759.228c-.151-.5-.3-1.013-.433-1.52a.4.4,0,0,1,.383-.5ZM105.5,71.67a.4.4,0,0,1,.374.527c-.173.495-.356.994-.543,1.484a.4.4,0,0,1-.74-.283c.185-.483.365-.975.535-1.462A.4.4,0,0,1,105.5,71.67ZM3.166,72.379a.4.4,0,0,1,.372.26c.177.485.364.975.556,1.455a.4.4,0,1,1-.736.293c-.194-.487-.384-.984-.564-1.476a.4.4,0,0,1,.372-.532Zm100.589,3.66a.4.4,0,0,1,.361.559c-.216.478-.441.959-.671,1.431a.4.4,0,0,1-.712-.347c.226-.465.448-.939.661-1.41A.4.4,0,0,1,103.755,76.039Zm-98.783.684a.4.4,0,0,1,.359.228c.219.468.448.939.681,1.4a.4.4,0,0,1-.707.356c-.236-.468-.468-.947-.691-1.422a.4.4,0,0,1,.359-.564Zm96.664,3.516a.4.4,0,0,1,.345.59c-.256.457-.523.917-.792,1.367a.4.4,0,0,1-.68-.407c.266-.443.528-.9.781-1.347A.4.4,0,0,1,101.636,80.24ZM7.15,80.894a.4.4,0,0,1,.343.2c.259.447.528.9.8,1.336a.4.4,0,1,1-.674.417c-.276-.446-.549-.9-.811-1.356a.4.4,0,0,1,.342-.595Zm92.01,3.346a.4.4,0,0,1,.327.619c-.295.433-.6.869-.908,1.293a.4.4,0,1,1-.642-.464c.3-.419.6-.848.895-1.275A.4.4,0,0,1,99.159,84.241Zm-89.479.62a.4.4,0,0,1,.325.169c.3.423.6.848.912,1.262a.4.4,0,1,1-.635.473c-.313-.421-.625-.852-.926-1.281a.4.4,0,0,1,.324-.623Zm86.666,3.152a.4.4,0,0,1,.307.646c-.331.406-.673.814-1.016,1.21a.4.4,0,1,1-.6-.518c.338-.391.675-.792,1-1.193A.4.4,0,0,1,96.347,88.013Zm-83.8.58a.4.4,0,0,1,.3.142c.332.4.674.793,1.018,1.179a.4.4,0,0,1-.592.526c-.348-.392-.7-.794-1.033-1.2a.4.4,0,0,1,.3-.651Zm80.674,2.935a.4.4,0,0,1,.284.672c-.365.376-.741.753-1.116,1.118a.4.4,0,1,1-.553-.568c.37-.36.74-.731,1.1-1.1A.4.4,0,0,1,93.219,91.528Zm-77.5.537a.4.4,0,0,1,.281.116c.365.366.74.732,1.115,1.087a.4.4,0,0,1-.545.575c-.381-.361-.761-.732-1.132-1.1a.4.4,0,0,1,.28-.676Zm74.08,2.7a.4.4,0,0,1,.26.7c-.4.344-.8.686-1.208,1.018a.4.4,0,1,1-.5-.613c.4-.327.8-.665,1.191-1A.4.4,0,0,1,89.8,94.762Zm-70.617.49a.394.394,0,0,1,.255.093c.4.333.8.665,1.2.987a.4.4,0,0,1-.493.62c-.41-.326-.822-.663-1.222-1a.4.4,0,0,1,.256-.7Zm66.933,2.438a.4.4,0,0,1,.233.717c-.424.308-.859.615-1.292.91a.4.4,0,0,1-.447-.654c.427-.292.855-.593,1.273-.9A.394.394,0,0,1,86.117,97.689Zm-63.209.438a.394.394,0,0,1,.228.072c.422.3.855.594,1.285.879a.4.4,0,1,1-.438.66c-.437-.29-.876-.59-1.3-.892a.4.4,0,0,1,.229-.72Zm59.286,2.16a.4.4,0,0,1,.2.736c-.449.27-.909.538-1.366.8a.4.4,0,1,1-.389-.69c.45-.254.9-.517,1.346-.784A.394.394,0,0,1,82.194,100.287Zm-55.328.384a.394.394,0,0,1,.2.054c.446.26.9.518,1.356.765a.4.4,0,1,1-.379.7c-.46-.251-.923-.512-1.376-.776a.4.4,0,0,1,.2-.738Zm51.2,1.865a.4.4,0,0,1,.174.752c-.471.23-.952.457-1.429.674a.4.4,0,1,1-.327-.721c.47-.213.944-.437,1.409-.664A.394.394,0,0,1,78.061,102.536Zm-47.032.326a.4.4,0,0,1,.169.038c.467.221.945.437,1.418.644a.4.4,0,1,1-.317.726c-.48-.21-.965-.43-1.439-.654a.4.4,0,0,1,.169-.754Zm42.719,1.555a.4.4,0,0,1,.143.766c-.489.189-.988.373-1.483.547a.4.4,0,1,1-.263-.747c.487-.172.979-.353,1.461-.539A.4.4,0,0,1,73.749,104.418Zm-38.381.266a.4.4,0,0,1,.137.025c.485.179.979.353,1.469.518a.4.4,0,0,1-.253.751c-.5-.167-1-.344-1.49-.526a.4.4,0,0,1,.137-.768Zm33.922,1.233a.4.4,0,0,1,.11.777c-.5.145-1.017.285-1.525.416a.4.4,0,0,1-.2-.767c.5-.129,1.006-.266,1.5-.409A.4.4,0,0,1,69.29,105.917Zm-29.441.2a.4.4,0,0,1,.1.014c.5.136,1.006.267,1.508.388a.4.4,0,0,1-.186.77c-.51-.123-1.024-.256-1.53-.394a.4.4,0,0,1,.1-.778Zm24.868.9a.4.4,0,0,1,.076.785c-.514.1-1.037.2-1.555.281a.4.4,0,0,1-.13-.782c.51-.085,1.025-.178,1.532-.277A.4.4,0,0,1,64.716,107.021Zm-20.28.14a.4.4,0,0,1,.071.006c.508.092,1.025.178,1.536.256a.4.4,0,1,1-.119.783c-.519-.079-1.043-.166-1.559-.26a.4.4,0,0,1,.07-.786Zm15.628.564a.4.4,0,0,1,.042.79c-.521.056-1.051.1-1.574.146a.4.4,0,0,1-.062-.79c.516-.04,1.037-.089,1.551-.144ZM49.1,107.8l.037,0c.514.048,1.036.089,1.552.122a.4.4,0,0,1-.051.791c-.524-.034-1.053-.075-1.575-.124a.4.4,0,0,1,.036-.791Zm6.27.225a.4.4,0,0,1,.008.792c-.388.008-.781.012-1.17.012l-.412,0a.4.4,0,1,1,.006-.792h.406c.383,0,.771,0,1.153-.012Z" transform="translate(21.127 11.533)" fill="#4385f4"/>
  <path id="Path_578" data-name="Path 578" d="M159.517,116.314a2.195,2.195,0,0,1-.7,1.638,2.324,2.324,0,0,1-1.731.608,2.858,2.858,0,0,1-1.4-.374,2.7,2.7,0,0,1-.936-.842l.936-.842a1.022,1.022,0,0,0,.187.234,1.767,1.767,0,0,0,1.263.561,1.271,1.271,0,0,0,.8-.281.893.893,0,0,0,.281-.749c0-.374-.234-.608-.7-.749-.889-.281-1.4-.421-1.45-.468a2.574,2.574,0,0,1-.889-.7,2.112,2.112,0,0,1-.328-1.17,2.159,2.159,0,0,1,2.246-2.152,2.6,2.6,0,0,1,1.31.328,2.064,2.064,0,0,1,.842.7l-.842.842a2.344,2.344,0,0,0-.374-.328,1.6,1.6,0,0,0-.889-.328,1.32,1.32,0,0,0-.7.187.819.819,0,0,0,0,1.31,5.277,5.277,0,0,0,1.123.374,2.611,2.611,0,0,1,1.357.749A1.706,1.706,0,0,1,159.517,116.314Zm-6.036,2.152-1.31.187v-4.866a1.435,1.435,0,0,0-.281-.983,1.235,1.235,0,0,0-.889-.328,1.252,1.252,0,0,0-1.076.561,1.751,1.751,0,0,0-.234.842v4.539l-1.31.234v-4.913a1.435,1.435,0,0,0-.281-.983.846.846,0,0,0-.8-.328h-.14a1.011,1.011,0,0,0-1.029.608,2.427,2.427,0,0,0-.234,1.123v4.258l-1.357.234v-7.112l1.217-.234v.936a1.463,1.463,0,0,1,.421-.515,1.783,1.783,0,0,1,1.217-.515,1.649,1.649,0,0,1,1.825,1.076,2.1,2.1,0,0,1,1.965-1.123,2.151,2.151,0,0,1,1.825.8,3.288,3.288,0,0,1,.468,1.872Zm-9.873-7.206-.608,1.45h-.234a1.03,1.03,0,0,0-.374.047l-.421.14a1.652,1.652,0,0,0-.7.8,3.135,3.135,0,0,0-.328,1.451v3.322l-1.31.234v-7.159l1.217-.234v1.5c.14-.281.328-.515.468-.8a1.905,1.905,0,0,1,.8-.561,2.724,2.724,0,0,1,.889-.14A2.287,2.287,0,0,1,143.608,111.261Zm-5.989,7.206-1.31.187v-7.112l1.31-.187Zm.281-8.843-.889,1.123-.842-1.123.889-1.123Zm-2.995.749h-3.7v2.573h2.9v1.31h-2.9v4.211l-1.451.234v-9.639h4.866ZM126.763,115a2.623,2.623,0,0,0-.7-1.825,2.265,2.265,0,0,0-3.322-.047,2.376,2.376,0,0,0-.608,1.638,2.617,2.617,0,0,0,.608,1.825,2.027,2.027,0,0,0,1.591.7,2.539,2.539,0,0,0,1.684-.655,2.254,2.254,0,0,0,.749-1.638Zm1.17,3.462-1.263.187v-1.217l-.281.328a3.075,3.075,0,0,1-.8.561,3.4,3.4,0,0,1-3.837-.8,3.561,3.561,0,0,1-.983-2.573,4,4,0,0,1,.983-2.667,3.236,3.236,0,0,1,2.433-1.123,3.813,3.813,0,0,1,1.451.281,4.239,4.239,0,0,1,.749.515c.047.094.14.187.187.281v-3.182l1.31-.187Zm-9.358-3.509a2.4,2.4,0,0,0-.7-1.731,2.21,2.21,0,0,0-3.275.047,2.539,2.539,0,0,0-.655,1.684,2.369,2.369,0,0,0,.655,1.684,2.07,2.07,0,0,0,1.684.7,2.027,2.027,0,0,0,1.591-.7,2.375,2.375,0,0,0,.7-1.684Zm1.357,0a3.68,3.68,0,0,1-1.076,2.62,3.574,3.574,0,0,1-5.1.094l-.094-.094a3.529,3.529,0,0,1-1.076-2.667,3.958,3.958,0,0,1,1.029-2.667,3.342,3.342,0,0,1,2.527-1.123,3.683,3.683,0,0,1,3.79,3.837Zm-9.966,0a2.4,2.4,0,0,0-.7-1.731,2.21,2.21,0,0,0-3.275.047,2.539,2.539,0,0,0-.655,1.684,2.369,2.369,0,0,0,.655,1.684,2.07,2.07,0,0,0,1.684.7,2.027,2.027,0,0,0,1.591-.7,2.375,2.375,0,0,0,.7-1.684Zm1.357,0a3.68,3.68,0,0,1-1.076,2.62,3.573,3.573,0,0,1-5.1.094c-.047-.047-.094-.047-.094-.094a3.528,3.528,0,0,1-1.076-2.667,3.958,3.958,0,0,1,1.029-2.667,3.342,3.342,0,0,1,2.527-1.123,3.683,3.683,0,0,1,3.79,3.837Zm-8.7,2.573a4.216,4.216,0,0,1-.515.328,10.047,10.047,0,0,1-1.217.655,3.858,3.858,0,0,1-1.45.328,5.264,5.264,0,0,1-3.743-1.4,4.572,4.572,0,0,1-1.5-3.509,5.275,5.275,0,0,1,1.357-3.556,4.177,4.177,0,0,1,3.275-1.5,5.091,5.091,0,0,1,1.684.281,5.3,5.3,0,0,1,1.872,1.076l-.842.983a3.233,3.233,0,0,0-1.4-.8,4.523,4.523,0,0,0-1.357-.187,2.75,2.75,0,0,0-2.246,1.076,3.878,3.878,0,0,0-.889,2.62,3.424,3.424,0,0,0,1.029,2.527,3.705,3.705,0,0,0,2.667.983,2.438,2.438,0,0,0,1.357-.421c.374-.281.561-.421.608-.468v-2.106H98.315l.421-1.31h3.837Z" transform="translate(-51.337 -57.874)" fill="#4385f4"/>
  <path id="Path_579" data-name="Path 579" d="M149.665,53.1s-1.263-.14-1.263.983v4.96h8.329v1.5a.729.729,0,0,1-.7.749H148.4V67.7h9.077s5.474-.842,5.521-6.41V53.1Zm12.867-8H146.389c-5.849,1.4-5.989,6.223-5.989,6.223V67.7h6.223V52.82a1.507,1.507,0,0,1,1.263-1.5h14.645Z" transform="translate(-75.923 -24.139)" fill="#4385f4"/>
  <path id="Path_580" data-name="Path 580" d="M305.338,166.8H288.4v26.343h16.938L299.91,180.79Z" transform="translate(-154.673 -88.895)" fill="#3876df"/>
  <path id="Path_581" data-name="Path 581" d="M2.6,166.8H19.538v26.343H2.6L8.028,180.79Z" transform="translate(-2.6 -88.895)" fill="#3876df"/>
  <path id="Path_582" data-name="Path 582" d="M296.869,147.7l-8.469,8.89v26.343l8.469-8.89Z" transform="translate(-154.673 -78.732)" fill="#2354a6"/>
  <path id="Path_583" data-name="Path 583" d="M20.7,147.7l8.469,8.89v26.343l-8.469-8.89Z" transform="translate(-12.231 -78.732)" fill="#2354a6"/>
  <path id="Path_584" data-name="Path 584" d="M160.328,224a1.147,1.147,0,0,0,.281-.749v-.468a1.063,1.063,0,0,0-.281-.749.96.96,0,0,0-1.357,0,1.147,1.147,0,0,0-.281.749v.468a.962.962,0,0,0,1.638.749Zm-1.778.328a1.562,1.562,0,0,1-.421-1.076v-.561a1.482,1.482,0,0,1,.421-1.076,1.708,1.708,0,0,1,2.246,0,1.562,1.562,0,0,1,.421,1.076v.561a1.482,1.482,0,0,1-.421,1.076,1.594,1.594,0,0,1-1.123.421,1.414,1.414,0,0,1-1.123-.421Zm-3.65,0a1.677,1.677,0,0,1-.421-1.123v-.561a1.677,1.677,0,0,1,.421-1.123,1.594,1.594,0,0,1,1.123-.421,1.538,1.538,0,0,1,.8.187,1.463,1.463,0,0,1,.515.421,1.676,1.676,0,0,1,.187.515c0,.047,0,.094-.047.094-.047.047-.047.047-.094.047H157.1c-.047,0-.094,0-.094-.047a.145.145,0,0,1-.047-.094.858.858,0,0,0-.328-.468.943.943,0,0,0-.515-.14.924.924,0,0,0-.655.281,1.271,1.271,0,0,0-.281.8v.468a1.271,1.271,0,0,0,.281.8.924.924,0,0,0,.655.281.943.943,0,0,0,.515-.14.858.858,0,0,0,.328-.468.163.163,0,0,1,.047-.094c.047,0,.047-.047.094-.047h.281c.047,0,.094,0,.094.047.047.047.047.047.047.094a1.145,1.145,0,0,1-.7.936,1.538,1.538,0,0,1-.8.187,1.594,1.594,0,0,1-1.123-.421Zm-1.918.328c-.047-.047-.047-.047-.047-.094V224.1c0-.047,0-.094.047-.094.047-.047.047-.047.094-.047h.468c.047,0,.094,0,.094.047a.145.145,0,0,1,.047.094v.468a.124.124,0,0,1-.14.14h-.468a.163.163,0,0,1-.094-.047Zm-2.948-.047a1.679,1.679,0,0,1-.468-.328.425.425,0,0,1-.14-.328c0-.047,0-.094.047-.094s.047-.047.094-.047h.328a.046.046,0,0,1,.047.047.629.629,0,0,0,.328.281.926.926,0,0,0,.515.094,1.246,1.246,0,0,0,.561-.14.477.477,0,0,0,.234-.374.665.665,0,0,0-.094-.281.754.754,0,0,0-.328-.187,2.682,2.682,0,0,0-.655-.187,1.78,1.78,0,0,1-.8-.374.89.89,0,0,1-.234-.608.79.79,0,0,1,.14-.468,1.614,1.614,0,0,1,.421-.374,1.824,1.824,0,0,1,1.4,0,1.019,1.019,0,0,1,.421.328.425.425,0,0,1,.14.328c0,.047,0,.094-.047.094-.047.047-.047.047-.094.047h-.234c-.047,0-.094-.047-.14-.047l-.187-.187a.358.358,0,0,0-.234-.094,1.03,1.03,0,0,0-.374-.047,1.067,1.067,0,0,0-.515.14.578.578,0,0,0-.187.374.357.357,0,0,0,.094.234.979.979,0,0,0,.281.187,3.025,3.025,0,0,0,.608.187,2.131,2.131,0,0,1,.889.374.755.755,0,0,1,.281.608.943.943,0,0,1-.14.515,1.831,1.831,0,0,1-.468.374,2.119,2.119,0,0,1-.749.14,4.385,4.385,0,0,1-.749-.187Zm-6.27.047c-.047-.047-.047-.047-.047-.094v-3.135c0-.047,0-.094.047-.094.047-.047.047-.047.094-.047h.281c.047,0,.094,0,.094.047.047.047.047.047.047.094v.234a1.136,1.136,0,0,1,.983-.421,1.08,1.08,0,0,1,1.029.608,1.024,1.024,0,0,1,.468-.421,1.523,1.523,0,0,1,.655-.187,1.278,1.278,0,0,1,.889.374,1.481,1.481,0,0,1,.328,1.076v1.918c0,.047,0,.094-.047.094a.145.145,0,0,1-.094.047h-.234c-.047,0-.094,0-.094-.047-.047-.047-.047-.047-.047-.094v-1.872a.808.808,0,0,0-1.357-.749,1.031,1.031,0,0,0-.234.749v1.872a.124.124,0,0,1-.14.14H146.1c-.047,0-.094,0-.094-.047-.047-.047-.047-.047-.047-.094v-1.872a.808.808,0,0,0-1.357-.749,1.031,1.031,0,0,0-.234.749v1.872a.124.124,0,0,1-.14.14h-.281c-.094-.094-.14-.094-.187-.094Zm-2.48,0c-.047-.047-.047-.047-.047-.094v-3.135c0-.047,0-.094.047-.094.047-.047.047-.047.094-.047h.281c.047,0,.094,0,.094.047a.145.145,0,0,1,.047.094v.281a.95.95,0,0,1,.936-.468h.281c.047,0,.094,0,.094.047a.145.145,0,0,1,.047.094v.234a.124.124,0,0,1-.14.14h-.374a.746.746,0,0,0-.561.187.643.643,0,0,0-.187.561v1.965c0,.047,0,.094-.047.094a.145.145,0,0,1-.094.047h-.281a.354.354,0,0,1-.187.047Zm-3.229,0c-.047-.047-.047-.047-.047-.094v-2.761h-.561c-.047,0-.094,0-.094-.047-.047-.047-.047-.047-.047-.094v-.187c0-.047,0-.094.047-.094.047-.047.047-.047.094-.047h.561v-.328a1.4,1.4,0,0,1,.281-.842.986.986,0,0,1,.842-.281h.983c.047,0,.094,0,.094.047.047.047.047.047.047.094v.187c0,.047,0,.094-.047.094-.047.047-.047.047-.094.047h-.983a.475.475,0,0,0-.515.655v.281h1.5c.047,0,.094,0,.094.047.047.047.047.047.047.094v3.135c0,.047,0,.094-.047.094-.047.047-.047.047-.094.047h-.281a.124.124,0,0,1-.14-.14h0v-2.761h-1.076v2.761c0,.047,0,.094-.047.094-.047.047-.047.047-.094.047H138.2c-.047,0-.094-.047-.14-.047Zm-2.246-.749a1.414,1.414,0,0,0,.234-.749v-.515a1.261,1.261,0,0,0-.234-.7.8.8,0,0,0-.7-.281.952.952,0,0,0-.7.281,1.577,1.577,0,0,0-.234.8v.187c0,.842.328,1.263.936,1.263a.667.667,0,0,0,.7-.281Zm-1.872.374a2.017,2.017,0,0,1-.374-1.123v-.421a1.9,1.9,0,0,1,.374-1.123,1.143,1.143,0,0,1,1.029-.468,1.224,1.224,0,0,1,1.076.468v-1.544c0-.047,0-.094.047-.094.047-.047.047-.047.094-.047h.281a.124.124,0,0,1,.14.14h0v4.4a.124.124,0,0,1-.14.14h-.281c-.047,0-.094,0-.094-.047-.047-.047-.047-.047-.047-.094v-.281a1.4,1.4,0,0,1-1.076.515,1.15,1.15,0,0,1-1.029-.421ZM132.02,224a1.147,1.147,0,0,0,.281-.749v-.468a1.063,1.063,0,0,0-.281-.749.96.96,0,0,0-1.357,0,1.147,1.147,0,0,0-.281.749v.515a1.063,1.063,0,0,0,.281.749A1.125,1.125,0,0,0,132.02,224Zm-1.825.328a1.562,1.562,0,0,1-.421-1.076v-.561a1.482,1.482,0,0,1,.421-1.076,1.708,1.708,0,0,1,2.246,0,1.562,1.562,0,0,1,.421,1.076v.561a1.482,1.482,0,0,1-.421,1.076A1.708,1.708,0,0,1,130.195,224.332ZM128.23,224a1.147,1.147,0,0,0,.281-.749v-.468a1.063,1.063,0,0,0-.281-.749.924.924,0,0,0-.655-.281.849.849,0,0,0-.655.281,1.147,1.147,0,0,0-.281.749v.515a1.062,1.062,0,0,0,.281.749.924.924,0,0,0,.655.281,1.248,1.248,0,0,0,.655-.328Zm-1.778.328a1.562,1.562,0,0,1-.421-1.076v-.561a1.482,1.482,0,0,1,.421-1.076,1.708,1.708,0,0,1,2.246,0,1.562,1.562,0,0,1,.421,1.076v.561a1.482,1.482,0,0,1-.421,1.076,1.708,1.708,0,0,1-2.246,0Zm-2.152-.421a1.787,1.787,0,0,0,.281-.749v-.468a.952.952,0,0,0-.281-.7.8.8,0,0,0-.7-.281.952.952,0,0,0-.7.281,1.577,1.577,0,0,0-.234.8v.374a1.577,1.577,0,0,0,.234.8.667.667,0,0,0,.7.281.915.915,0,0,0,.7-.328Zm-1.544,2.059a1.024,1.024,0,0,1-.468-.421.754.754,0,0,1-.14-.421c0-.047,0-.094.047-.094.047-.047.047-.047.094-.047h.281c.047,0,.094,0,.094.047l.094.094a.819.819,0,0,0,.842.515,1.373,1.373,0,0,0,.749-.187.863.863,0,0,0,.234-.749v-.468a1.224,1.224,0,0,1-1.076.468,1.1,1.1,0,0,1-1.029-.468,2.016,2.016,0,0,1-.374-1.123v-.374a1.9,1.9,0,0,1,.374-1.123,1.143,1.143,0,0,1,1.029-.468,1.331,1.331,0,0,1,1.076.515v-.328c0-.047,0-.094.047-.094.047-.047.047-.047.094-.047H125c.047,0,.094,0,.094.047a.145.145,0,0,1,.047.094v3.275a1.365,1.365,0,0,1-1.544,1.544,1.835,1.835,0,0,1-.842-.187Z" transform="translate(-66.185 -117.136)" fill="#4a4a4a"/>
  <rect id="Rectangle_92" data-name="Rectangle 92" width="133.681" height="26.343" transform="translate(8.376 68.968)" fill="#4385f4"/>
  <g id="Group_246" data-name="Group 246" transform="translate(40.146 74.022)">
    <path id="Path_585" data-name="Path 585" d="M90.038,164.115v-4.632H88.4V158.5h4.445v.983H91.207v4.632Z" transform="translate(-88.4 -158.5)" fill="#fff"/>
  </g>
  <g id="Group_247" data-name="Group 247" transform="translate(44.732 73.928)">
    <path id="Path_586" data-name="Path 586" d="M103.628,161.2a2.72,2.72,0,1,1-2.714-2.9A2.609,2.609,0,0,1,103.628,161.2Zm-4.211,0c0,1.17.608,1.918,1.5,1.918.936,0,1.5-.749,1.5-1.918s-.608-1.918-1.5-1.918S99.417,160.031,99.417,161.2Z" transform="translate(-98.2 -158.3)" fill="#fff"/>
    <path id="Path_587" data-name="Path 587" d="M113.74,158.5a1.83,1.83,0,0,1,1.965,1.918,1.868,1.868,0,0,1-2.012,1.918H112.57v1.778H111.4V158.5Zm-1.17,2.9h.842a.961.961,0,0,0,1.076-.983c0-.655-.374-.983-1.076-.983h-.842Z" transform="translate(-105.224 -158.406)" fill="#fff"/>
  </g>
  <g id="Group_248" data-name="Group 248" transform="translate(57.599 74.022)">
    <path id="Path_588" data-name="Path 588" d="M129.4,164.115h-3.7V158.5h3.7v.983H126.87v1.357h2.386v.889H126.87v1.4H129.4Z" transform="translate(-125.7 -158.5)" fill="#fff"/>
  </g>
  <g id="Group_249" data-name="Group 249" transform="translate(62.138 73.928)">
    <path id="Path_589" data-name="Path 589" d="M135.4,165.583V164.6h2.574v.983Z" transform="translate(-135.4 -161.652)" fill="#fff"/>
    <path id="Path_590" data-name="Path 590" d="M142.5,161.2a2.576,2.576,0,0,1,2.667-2.9,2.313,2.313,0,0,1,2.48,2.106h-1.17a1.273,1.273,0,0,0-1.31-1.123c-.889,0-1.451.749-1.451,1.918,0,1.217.562,1.918,1.451,1.918a1.241,1.241,0,0,0,1.31-1.076H147.6a2.278,2.278,0,0,1-2.48,2.059A2.589,2.589,0,0,1,142.5,161.2Z" transform="translate(-139.178 -158.3)" fill="#fff"/>
    <path id="Path_591" data-name="Path 591" d="M160.028,161.2a2.72,2.72,0,1,1-2.714-2.9A2.609,2.609,0,0,1,160.028,161.2Zm-4.211,0c0,1.17.608,1.918,1.5,1.918.936,0,1.5-.749,1.5-1.918s-.608-1.918-1.5-1.918S155.817,160.031,155.817,161.2Z" transform="translate(-145.616 -158.3)" fill="#fff"/>
    <path id="Path_592" data-name="Path 592" d="M173.742,164.115h-1.029v-3.79h-.047l-1.544,3.743h-.749l-1.544-3.743h0v3.79H167.8V158.5h1.357l1.591,3.977h.047l1.591-3.977h1.357v5.615Z" transform="translate(-152.64 -158.406)" fill="#fff"/>
    <path id="Path_593" data-name="Path 593" d="M188.389,164.115H187.36v-3.79h-.047l-1.544,3.743h-.749l-1.544-3.743h-.047v3.79H182.4V158.5h1.357l1.591,3.977h.047l1.591-3.977h1.357v5.615Z" transform="translate(-160.408 -158.406)" fill="#fff"/>
    <path id="Path_594" data-name="Path 594" d="M200.9,164.115h-3.7V158.5h3.7v.983H198.37v1.357h2.386v.889H198.37v1.4H200.9Z" transform="translate(-168.283 -158.406)" fill="#fff"/>
    <path id="Path_595" data-name="Path 595" d="M208.07,164.115H206.9V158.5h2.293c1.31,0,2.012.7,2.012,1.778a1.639,1.639,0,0,1-1.029,1.591l1.17,2.246h-1.31l-1.029-2.059h-.983v2.059Zm0-2.9H209.1a.827.827,0,0,0,.936-.889.848.848,0,0,0-.936-.889H208.07Z" transform="translate(-173.445 -158.406)" fill="#fff"/>
    <path id="Path_596" data-name="Path 596" d="M217.4,161.2a2.576,2.576,0,0,1,2.667-2.9,2.313,2.313,0,0,1,2.48,2.106h-1.123a1.273,1.273,0,0,0-1.31-1.123c-.889,0-1.451.749-1.451,1.918,0,1.217.562,1.918,1.451,1.918a1.241,1.241,0,0,0,1.31-1.076h1.123a2.278,2.278,0,0,1-2.48,2.059A2.6,2.6,0,0,1,217.4,161.2Z" transform="translate(-179.032 -158.3)" fill="#fff"/>
    <path id="Path_597" data-name="Path 597" d="M233.7,164.115H230V158.5h3.7v.983H231.17v1.357h2.386v.889H231.17v1.4H233.7Z" transform="translate(-185.736 -158.406)" fill="#fff"/>
  </g>
  <g id="Group_250" data-name="Group 250" transform="translate(26.577 83.52)">
    <path id="Path_598" data-name="Path 598" d="M61.552,178.847a2.465,2.465,0,0,1,2.667,2.761,2.5,2.5,0,0,1-2.667,2.807H59.4V178.8h2.152Zm-.983,4.632h.842c1.029,0,1.638-.655,1.638-1.872,0-1.17-.561-1.825-1.638-1.825H60.57Z" transform="translate(-59.4 -178.8)" fill="#fff"/>
    <path id="Path_599" data-name="Path 599" d="M75,184.515H71.3V178.9H75v.983H72.47v1.357h2.386v.889H72.47v1.4H75Z" transform="translate(-65.732 -178.853)" fill="#fff"/>
    <path id="Path_600" data-name="Path 600" d="M82.172,184.515,80.3,178.9h1.31l1.263,4.4h.047l1.263-4.4h1.263l-1.872,5.615Z" transform="translate(-70.521 -178.853)" fill="#fff"/>
    <path id="Path_601" data-name="Path 601" d="M96.3,184.515H92.6V178.9h3.7v.983H93.77v1.357h2.386v.889H93.77v1.4H96.3Z" transform="translate(-77.066 -178.853)" fill="#fff"/>
  </g>
  <g id="Group_251" data-name="Group 251" transform="translate(46.697 83.567)">
    <path id="Path_602" data-name="Path 602" d="M106,184.515h-3.6V178.9h1.17v4.632H106Z" transform="translate(-102.4 -178.9)" fill="#fff"/>
  </g>
  <g id="Group_252" data-name="Group 252" transform="translate(50.534 83.473)">
    <path id="Path_603" data-name="Path 603" d="M116.028,181.6a2.72,2.72,0,1,1-2.714-2.9A2.609,2.609,0,0,1,116.028,181.6Zm-4.211,0c0,1.17.608,1.918,1.5,1.918.936,0,1.5-.749,1.5-1.918s-.608-1.918-1.5-1.918S111.817,180.431,111.817,181.6Z" transform="translate(-110.6 -178.7)" fill="#fff"/>
    <path id="Path_604" data-name="Path 604" d="M126.14,178.9a1.83,1.83,0,0,1,1.965,1.918,1.868,1.868,0,0,1-2.012,1.918H124.97v1.778H123.8V178.9Zm-1.123,2.9h.842a.961.961,0,0,0,1.076-.983c0-.655-.374-.983-1.076-.983h-.842Z" transform="translate(-117.624 -178.806)" fill="#fff"/>
    <path id="Path_605" data-name="Path 605" d="M140.389,184.515H139.36v-3.79h-.047l-1.544,3.743h-.749l-1.544-3.743h-.047v3.79H134.4V178.9h1.357l1.591,3.977h.047l1.591-3.977h1.357v5.615Z" transform="translate(-123.264 -178.806)" fill="#fff"/>
    <path id="Path_606" data-name="Path 606" d="M152.9,184.515h-3.7V178.9h3.7v.983H150.37v1.357h2.386v.889H150.37v1.4H152.9Z" transform="translate(-131.139 -178.806)" fill="#fff"/>
    <path id="Path_607" data-name="Path 607" d="M158.9,184.515V178.9h.983l2.62,3.65h.047V178.9h1.123v5.615h-.983l-2.62-3.65h-.047v3.65Z" transform="translate(-136.3 -178.806)" fill="#fff"/>
    <path id="Path_608" data-name="Path 608" d="M172.038,184.515v-4.632H170.4V178.9h4.445v.983h-1.638v4.632Z" transform="translate(-142.419 -178.806)" fill="#fff"/>
    <path id="Path_609" data-name="Path 609" d="M184.6,181.6a2.576,2.576,0,0,1,2.667-2.9,2.313,2.313,0,0,1,2.48,2.106h-1.123a1.273,1.273,0,0,0-1.31-1.123c-.889,0-1.451.749-1.451,1.918,0,1.217.561,1.918,1.451,1.918a1.241,1.241,0,0,0,1.31-1.076h1.123a2.278,2.278,0,0,1-2.48,2.059A2.6,2.6,0,0,1,184.6,181.6Z" transform="translate(-149.975 -178.7)" fill="#fff"/>
    <path id="Path_610" data-name="Path 610" d="M202.128,181.6a2.72,2.72,0,1,1-2.714-2.9A2.609,2.609,0,0,1,202.128,181.6Zm-4.211,0c0,1.17.608,1.918,1.5,1.918.936,0,1.5-.749,1.5-1.918s-.608-1.918-1.5-1.918S197.917,180.431,197.917,181.6Z" transform="translate(-156.413 -178.7)" fill="#fff"/>
    <path id="Path_611" data-name="Path 611" d="M215.789,184.515H214.76v-3.79h-.047l-1.544,3.743h-.749l-1.544-3.743h-.047v3.79H209.8V178.9h1.357l1.591,3.977h.047l1.591-3.977h1.357v5.615Z" transform="translate(-163.384 -178.806)" fill="#fff"/>
  </g>
  <g id="Group_253" data-name="Group 253" transform="translate(103.875 83.567)">
    <path id="Path_612" data-name="Path 612" d="M226.94,178.9a1.83,1.83,0,0,1,1.965,1.918,1.868,1.868,0,0,1-2.012,1.918H225.77v1.778H224.6V178.9Zm-1.17,2.9h.842a.961.961,0,0,0,1.076-.983c0-.655-.374-.983-1.076-.983h-.842Z" transform="translate(-224.6 -178.9)" fill="#fff"/>
  </g>
  <g id="Group_254" data-name="Group 254" transform="translate(107.946 83.567)">
    <path id="Path_613" data-name="Path 613" d="M236.9,183.158h-1.965l-.421,1.357H233.3l1.965-5.615h1.357l1.965,5.615h-1.263Zm-1.731-.889h1.451l-.7-2.293h-.047Z" transform="translate(-233.3 -178.9)" fill="#fff"/>
    <path id="Path_614" data-name="Path 614" d="M245.8,184.515V178.9h.983l2.62,3.65h.047V178.9h1.123v5.615h-.983l-2.62-3.65h-.047v3.65Z" transform="translate(-239.951 -178.9)" fill="#fff"/>
    <path id="Path_615" data-name="Path 615" d="M259.165,184.515v-2.106L257.2,178.9h1.263l1.263,2.386h.047l1.263-2.386H262.3l-1.965,3.509v2.106Z" transform="translate(-246.017 -178.9)" fill="#fff"/>
  </g>
</svg>
