<svg xmlns="http://www.w3.org/2000/svg" width="25" height="25" viewBox="0 0 40 40">
  <path id="Union_17" data-name="Union 17" d="M-1986.853,40A3.15,3.15,0,0,1-1990,36.854V3.146A3.15,3.15,0,0,1-1986.853,0h33.707A3.149,3.149,0,0,1-1950,3.146V36.854A3.149,3.149,0,0,1-1953.146,40Zm-1.349-3.146a1.348,1.348,0,0,0,1.349,1.348h33.707a1.348,1.348,0,0,0,1.348-1.348V10.785h-36.4Zm0-33.707V8.989h36.4V3.146a1.348,1.348,0,0,0-1.348-1.348h-33.707A1.348,1.348,0,0,0-1988.2,3.146Zm3.6,32.359a.9.9,0,0,1-.635-.264.9.9,0,0,1-.264-.634V14.383a.9.9,0,0,1,.264-.637.9.9,0,0,1,.635-.262h12.36a.9.9,0,0,1,.635.262.9.9,0,0,1,.264.637V34.608a.9.9,0,0,1-.264.634.9.9,0,0,1-.635.264Zm1.6-1.8h9.155l-4.578-7.49Zm5.63-9.214,4.228,6.921V17.575Zm-6.333,6.921,4.228-6.919-4.228-6.919Zm5.28-8.643,4.578-7.49H-1983Zm21.808,12.445-1.748-1.749-1.747,1.747a.9.9,0,0,1-.919.218.9.9,0,0,1-.606-.726l-.794-5.561a.9.9,0,0,1,.253-.763.9.9,0,0,1,.763-.255v0l5.562.794a.9.9,0,0,1,.724.6.9.9,0,0,1-.216.921l-1.747,1.747,1.747,1.747a.9.9,0,0,1,0,1.272.9.9,0,0,1-.636.262A.9.9,0,0,1-1956.619,35.215Zm-3.495-2.543,2.225-2.225-2.6-.371Zm-7.64-8.4a.9.9,0,0,1-.9-.9.9.9,0,0,1,.9-.9h12.361a.9.9,0,0,1,.9.9.9.9,0,0,1-.9.9Zm0-4.495a.9.9,0,0,1-.895-.9.9.9,0,0,1,.895-.9h12.361a.9.9,0,0,1,.9.9.9.9,0,0,1-.9.9Zm0-4.494a.9.9,0,0,1-.9-.9.9.9,0,0,1,.9-.9h12.361a.9.9,0,0,1,.9.9.9.9,0,0,1-.9.9Zm11.236-9.888a1.124,1.124,0,0,1,2.248,0,1.08,1.08,0,0,1-1.124,1.124A1.08,1.08,0,0,1-1956.518,5.393Zm-4.493,0a1.123,1.123,0,0,1,2.247,0,1.08,1.08,0,0,1-1.123,1.124A1.08,1.08,0,0,1-1961.011,5.393Zm-4.495,0a1.123,1.123,0,1,1,2.246,0,1.08,1.08,0,0,1-1.123,1.124A1.079,1.079,0,0,1-1965.505,5.393Z" transform="translate(1990)"/>
</svg>
