<svg xmlns="http://www.w3.org/2000/svg" width="62.202" height="59.999" viewBox="0 0 62.202 59.999">
  <g id="np_experience_2389079_000000" transform="translate(-2.472 -4.127)">
    <g id="Group_4656" data-name="Group 4656">
      <path id="Path_4113" data-name="Path 4113" d="M24.016,45.657A7.658,7.658,0,1,1,16.357,38a7.658,7.658,0,0,1,7.659,7.657" transform="translate(-2.152 -11.704)" fill="#252525"/>
      <path id="Path_4114" data-name="Path 4114" d="M17.086,64.5H11.393a8.081,8.081,0,0,0-8.051,7.2L2.49,78.311A1.655,1.655,0,0,0,3.8,80.144,48.72,48.72,0,0,0,14.2,81.192q2.259,0,4.321-.2l.721-5.89a11.546,11.546,0,0,1,4.124-7.527A7.941,7.941,0,0,0,17.086,64.5Z" transform="translate(0 -20.86)" fill="#252525"/>
      <path id="Path_4115" data-name="Path 4115" d="M83.215,45.657A7.658,7.658,0,1,1,75.558,38a7.657,7.657,0,0,1,7.657,7.657" transform="translate(-22.606 -11.704)" fill="#252525"/>
      <path id="Path_4116" data-name="Path 4116" d="M85.694,71.7a8.13,8.13,0,0,0-8.051-7.2H71.95A8.072,8.072,0,0,0,65.6,67.576,11.282,11.282,0,0,1,69.725,75.1l.721,5.89c1.375.13,2.879.2,4.321.2a52.882,52.882,0,0,0,10.405-1.048,1.712,1.712,0,0,0,1.309-1.833Z" transform="translate(-21.812 -20.86)" fill="#252525"/>
      <path id="Path_4117" data-name="Path 4117" d="M46.621,70.4H40.928a8.078,8.078,0,0,0-8.051,7.133l-.785,6.612A1.617,1.617,0,0,0,33.4,85.975a48.72,48.72,0,0,0,10.405,1.048,52.881,52.881,0,0,0,10.405-1.048,1.712,1.712,0,0,0,1.309-1.833l-.785-6.612A8.192,8.192,0,0,0,46.621,70.4Z" transform="translate(-10.228 -22.898)" fill="#252525"/>
      <path id="Path_4118" data-name="Path 4118" d="M53.615,51.558A7.657,7.657,0,1,1,45.958,43.9a7.657,7.657,0,0,1,7.657,7.659" transform="translate(-12.379 -13.742)" fill="#252525"/>
    </g>
    <path id="Path_4119" data-name="Path 4119" d="M36.722,17.721a1.705,1.705,0,0,1,.524,1.636L36,24.463a1.65,1.65,0,0,0,2.488,1.767L43,23.481a1.6,1.6,0,0,1,1.7,0l4.515,2.748a1.663,1.663,0,0,0,2.488-1.767l-1.242-5.106a1.705,1.705,0,0,1,.524-1.636l3.993-3.4a1.63,1.63,0,0,0-.915-2.879l-5.236-.458A1.7,1.7,0,0,1,47.457,10l-2.03-4.842a1.662,1.662,0,0,0-3.076,0l-2.03,4.776a1.545,1.545,0,0,1-1.375.982l-5.236.458a1.639,1.639,0,0,0-.915,2.879Z" transform="translate(-10.276)" fill="#376cf4"/>
  </g>
</svg>
