<svg xmlns="http://www.w3.org/2000/svg" width="25" height="25" viewBox="0 0 35.994 40">
  <path id="np_fast_848423_000000" d="M40.154,13.743,39.007,14.9A16.622,16.622,0,0,1,26.851,41.462c-.38.024-.755.037-1.129.037a16.561,16.561,0,0,1-12.342-5.48,1.031,1.031,0,0,1,1.53-1.382A14.565,14.565,0,0,0,36.843,15.474a1.032,1.032,0,0,1,.058-1.4l1.8-1.8a.73.73,0,0,0-1.031-1.031L35.8,13.116h0a1.031,1.031,0,0,1-1.348.093A14.53,14.53,0,0,0,27.366,10.4a1.028,1.028,0,0,1-.918-1.021V6.051A1.029,1.029,0,0,1,27.479,5h.944a.73.73,0,0,0,0-1.459H23.012a.73.73,0,1,0,0,1.459h.944a1.028,1.028,0,0,1,1.031,1.031V9.375a1.029,1.029,0,0,1-.915,1.021A14.578,14.578,0,0,0,15.3,14.7a1.034,1.034,0,1,1-1.476-1.448,16.665,16.665,0,0,1,9.1-4.771V7.066A2.792,2.792,0,0,1,23.012,1.5h5.411a2.792,2.792,0,0,1,.087,5.567v1.4a16.6,16.6,0,0,1,6.445,2.561l1.237-1.237a2.792,2.792,0,1,1,3.95,3.946ZM6.34,19.59a1.031,1.031,0,0,0,1.031,1.031h7.158a1.031,1.031,0,1,0,0-2.062H7.375a1.03,1.03,0,0,0-1.031,1.026Zm11.72,5a1.034,1.034,0,0,0-1.031-1.031H9.874a1.031,1.031,0,0,0,0,2.062h7.155a1.031,1.031,0,0,0,1.031-1.031ZM7.376,30.621H14.53a1.031,1.031,0,1,0,0-2.062H7.376a1.031,1.031,0,0,0,0,2.062ZM31.437,20.608l-2.643,2.643a3.484,3.484,0,1,1-1.459-1.459l2.643-2.643a1.032,1.032,0,0,1,1.459,1.459Zm-4.3,4.264a1.415,1.415,0,1,0-1.416,1.414,1.415,1.415,0,0,0,1.416-1.414ZM25.717,37.14a12.272,12.272,0,1,0-8.66-20.949,1.033,1.033,0,0,0,1.461,1.461,10.214,10.214,0,1,1,0,14.433,1.033,1.033,0,0,0-1.461,1.459,12.243,12.243,0,0,0,8.66,3.6Z" transform="translate(-6.34 -1.499)"/>
</svg>
