<svg xmlns="http://www.w3.org/2000/svg" width="858.166" height="161.308" viewBox="0 0 858.166 161.308">
  <path id="Path_4130" data-name="Path 4130" d="M15.768-156.8h99.426v28.032H45.333v38.106h62.853v28.032H45.333V0H15.768ZM229.512-25.842A60.122,60.122,0,0,1,209.474-4.6Q196.881,3.5,178.7,3.5A59.113,59.113,0,0,1,156.038-.766,54.543,54.543,0,0,1,137.97-12.7a54.543,54.543,0,0,1-11.936-18.067,59.7,59.7,0,0,1-4.27-22.886,58.708,58.708,0,0,1,4.161-22.009,56.114,56.114,0,0,1,11.607-18.177,56.116,56.116,0,0,1,17.63-12.374,53.91,53.91,0,0,1,22.448-4.6,58.447,58.447,0,0,1,22.995,4.271,46.91,46.91,0,0,1,16.863,11.826A50.889,50.889,0,0,1,227.76-76.869a68.9,68.9,0,0,1,3.5,22.338V-51.9a14.745,14.745,0,0,0-.219,2.409,12.306,12.306,0,0,0-.219,2.409H150.015a30.178,30.178,0,0,0,3.614,11.278,27.36,27.36,0,0,0,6.789,7.884,26.393,26.393,0,0,0,8.869,4.6,34.6,34.6,0,0,0,9.855,1.424q9.855,0,16.316-4.49a32.761,32.761,0,0,0,10.184-11.279Zm-26.061-41.61A18.578,18.578,0,0,0,201.59-73.8a22.359,22.359,0,0,0-4.818-6.57,25.219,25.219,0,0,0-7.884-5.037,29.138,29.138,0,0,0-11.279-1.971A26.277,26.277,0,0,0,161.4-82.125a27.748,27.748,0,0,0-9.855,14.673ZM316.893-11.388h-1.752A48.4,48.4,0,0,1,302.987-.876Q295.869,3.5,284.7,3.5A44.425,44.425,0,0,1,269.042.766,40.731,40.731,0,0,1,256.23-6.789,33.792,33.792,0,0,1,247.689-18.4a35.761,35.761,0,0,1-3.066-14.892,33.537,33.537,0,0,1,3.285-15,34.117,34.117,0,0,1,9.2-11.5,41.491,41.491,0,0,1,13.907-7.336,57.673,57.673,0,0,1,17.41-2.519A75.459,75.459,0,0,1,305.724-68,83.909,83.909,0,0,1,316.893-64.6V-67.89A17.521,17.521,0,0,0,310.1-82.016Q303.315-87.6,293.241-87.6q-14.892,0-25.185,12.483L247.251-89.352q17.082-21.462,46.647-21.462,24.966,0,38.106,11.716t13.14,34.711V0H316.893Zm0-32.193a59.313,59.313,0,0,0-10.4-3.832,45.6,45.6,0,0,0-11.716-1.424q-10.293,0-15.878,4.49a13.69,13.69,0,0,0-5.584,11.06,12.405,12.405,0,0,0,5.365,10.512,20.347,20.347,0,0,0,12.374,3.942,26.233,26.233,0,0,0,10.512-2.08,26.092,26.092,0,0,0,8.213-5.475,24.077,24.077,0,0,0,5.256-7.884A24.074,24.074,0,0,0,316.893-43.581Zm60.663-39.2H358.722V-107.31h18.834v-32.85h28.689v32.85h26.28v24.528h-26.28v41.61a29.365,29.365,0,0,0,.767,6.9,11.108,11.108,0,0,0,2.957,5.365q3.066,3.5,8.76,3.5a18.429,18.429,0,0,0,5.913-.767,18.488,18.488,0,0,0,4.161-2.08l8.1,25.185A47.3,47.3,0,0,1,426.065.548a63.159,63.159,0,0,1-12.812,1.2A39.832,39.832,0,0,1,398.69-.766a31.028,31.028,0,0,1-10.841-6.9Q377.556-17.52,377.556-35.7ZM527.79-14.016h-1.752A36.361,36.361,0,0,1,512.46-1.2,39.7,39.7,0,0,1,492.969,3.5Q472.6,3.5,462.638-8.979t-9.965-33.288V-107.31h28.689v61.539q0,11.607,5.147,17.191t15,5.585a20.9,20.9,0,0,0,10.4-2.519,24.287,24.287,0,0,0,7.665-6.789A30.723,30.723,0,0,0,524.4-42.376a45.247,45.247,0,0,0,1.643-12.374v-52.56h28.689V0H527.79Zm51.465-93.294h26.937v14.892h1.752a27.73,27.73,0,0,1,5.256-7.227,37.257,37.257,0,0,1,7.336-5.694,35.972,35.972,0,0,1,8.76-3.723,34.511,34.511,0,0,1,9.307-1.314,37.755,37.755,0,0,1,9.746,1.095,26.151,26.151,0,0,1,6.9,2.847l-7.665,26.061a27.212,27.212,0,0,0-5.8-2.08,33.679,33.679,0,0,0-7.775-.767,24.6,24.6,0,0,0-10.731,2.3,23.591,23.591,0,0,0-8.213,6.461,30.509,30.509,0,0,0-5.256,9.745,38.222,38.222,0,0,0-1.862,12.155V0H579.255ZM763.434-25.842A60.122,60.122,0,0,1,743.4-4.6Q730.8,3.5,712.626,3.5A59.113,59.113,0,0,1,689.96-.766,54.543,54.543,0,0,1,671.892-12.7a54.542,54.542,0,0,1-11.935-18.067,59.7,59.7,0,0,1-4.271-22.886,58.709,58.709,0,0,1,4.161-22.009,56.113,56.113,0,0,1,11.607-18.177,56.115,56.115,0,0,1,17.629-12.374,53.91,53.91,0,0,1,22.448-4.6,58.447,58.447,0,0,1,22.995,4.271,46.91,46.91,0,0,1,16.863,11.826,50.889,50.889,0,0,1,10.293,17.848,68.9,68.9,0,0,1,3.5,22.338V-51.9a14.745,14.745,0,0,0-.219,2.409,12.306,12.306,0,0,0-.219,2.409H683.937a30.178,30.178,0,0,0,3.614,11.278,27.36,27.36,0,0,0,6.789,7.884,26.393,26.393,0,0,0,8.87,4.6,34.6,34.6,0,0,0,9.855,1.424q9.855,0,16.315-4.49a32.76,32.76,0,0,0,10.183-11.279Zm-26.061-41.61a18.579,18.579,0,0,0-1.862-6.351,22.359,22.359,0,0,0-4.818-6.57,25.219,25.219,0,0,0-7.884-5.037,29.138,29.138,0,0,0-11.279-1.971,26.277,26.277,0,0,0-16.206,5.256,27.748,27.748,0,0,0-9.855,14.673ZM827.163,3.5A61.385,61.385,0,0,1,808.439.876a51.643,51.643,0,0,1-14.235-6.9,45.121,45.121,0,0,1-10.184-9.855,47.466,47.466,0,0,1-6.351-11.279l25.623-10.95q3.723,8.322,9.964,12.373a25,25,0,0,0,13.906,4.052q7.884,0,12.483-2.847t4.6-6.789a8.383,8.383,0,0,0-3.832-7.118q-3.832-2.737-13.25-4.927l-15.111-3.285a52.912,52.912,0,0,1-10.4-3.5,40.7,40.7,0,0,1-9.745-6.132,31.085,31.085,0,0,1-7.227-8.979,25.359,25.359,0,0,1-2.847-12.264,28.454,28.454,0,0,1,3.395-14.016,31.629,31.629,0,0,1,9.307-10.4,44.568,44.568,0,0,1,13.906-6.57,61.939,61.939,0,0,1,17.191-2.3,60.387,60.387,0,0,1,27.375,6.022,37.081,37.081,0,0,1,17.739,19.163L846-75.555a18.974,18.974,0,0,0-8.979-9.2A27.054,27.054,0,0,0,825.192-87.6a21.993,21.993,0,0,0-10.731,2.518q-4.6,2.519-4.6,6.461,0,3.723,3.833,5.913a44.5,44.5,0,0,0,10.4,3.942l16.425,3.942q16.425,3.942,24.419,12.592a29.164,29.164,0,0,1,7.993,20.476A28.691,28.691,0,0,1,869.649-18.4a35.794,35.794,0,0,1-9.307,11.279A45.613,45.613,0,0,1,845.888.657,58.267,58.267,0,0,1,827.163,3.5Z" transform="translate(-15.268 157.304)" fill="none" stroke="#a1a1a1" stroke-width="1" opacity="0.5"/>
</svg>
