<svg xmlns="http://www.w3.org/2000/svg" width="25" height="25" viewBox="0 0 39.993 40">
  <path id="Union_15" data-name="Union 15" d="M-1958.509,36.58l-.986-4.709a8.708,8.708,0,0,1-4.451-1.606h-3.437V36.1h2.88a1.025,1.025,0,0,1,1.025,1.025,1.025,1.025,0,0,1-1.025,1.025h-16.489a1.026,1.026,0,0,1-1.025-1.025,1.026,1.026,0,0,1,1.025-1.025h2.881V30.265h-10.864A1.025,1.025,0,0,1-1990,29.24V6.538a1.026,1.026,0,0,1,1.025-1.025l3.483,0V1.025A1.025,1.025,0,0,1-1984.467,0h23.433a1.026,1.026,0,0,1,1.025,1.025V5.514h3.491a1.026,1.026,0,0,1,1.025,1.025v8.513a8.772,8.772,0,0,1,5.391,8.085,8.736,8.736,0,0,1-2.689,6.308l2.273,4.231h0a4.312,4.312,0,0,1-2.317,6.058,3.911,3.911,0,0,1-1.428.266A4.349,4.349,0,0,1-1958.509,36.58Zm1.1-4.77.911,4.35a2.259,2.259,0,0,0,2.965,1.647h0a2.062,2.062,0,0,0,1.211-3.161l-2.106-3.92c-.013.008-.027,0-.043-.012A10.553,10.553,0,0,1-1957.412,31.811Zm-18.647,4.286h6.627V30.265h-6.627Zm10.416-12.961a6.789,6.789,0,0,0,6.781,6.781,6.79,6.79,0,0,0,6.781-6.781,6.789,6.789,0,0,0-6.781-6.781A6.789,6.789,0,0,0-1965.642,23.135Zm-22.307,5.08,21.958,0a8.707,8.707,0,0,1-1.626-5.078,8.692,8.692,0,0,1,.786-3.623h-13.211a1.025,1.025,0,0,1-1.025-1.025,1.025,1.025,0,0,1,1.025-1.025h1.98V13.474a1.025,1.025,0,0,1,1.025-1.025,1.026,1.026,0,0,1,1.025,1.025v3.987h2.241V10.036a1.025,1.025,0,0,1,1.025-1.025,1.026,1.026,0,0,1,1.025,1.025v7.425h2.241V8.316a1.025,1.025,0,0,1,1.025-1.025,1.026,1.026,0,0,1,1.025,1.025v9.145h1.9a8.744,8.744,0,0,1,6.667-3.084,8.75,8.75,0,0,1,1.319.1V7.563h-2.466l0,1.217a1.026,1.026,0,0,1-1.025,1.025,1.025,1.025,0,0,1-1.025-1.025V2.052h-21.38v20.34h8.794a1.026,1.026,0,0,1,1.025,1.025,1.026,1.026,0,0,1-1.025,1.025h-9.821a1.025,1.025,0,0,1-1.025-1.025V7.563h-2.458Zm16.246-4.738a1.111,1.111,0,0,1,2.222,0,1.067,1.067,0,0,1-1.111,1.111A1.068,1.068,0,0,1-1971.7,23.477Zm9.57-11.109a1.111,1.111,0,0,1,2.222,0,1.067,1.067,0,0,1-1.111,1.111A1.067,1.067,0,0,1-1962.134,12.367Zm-14.332-5.588V4.548h2.228V6.78Zm-4.462,0V4.548h2.229V6.78Z" transform="translate(1990)"/>
</svg>
