<svg xmlns="http://www.w3.org/2000/svg" width="193.991" height="169.167" viewBox="0 0 193.991 169.167">
  <g id="ecommerce-development-companies" transform="translate(0 4.035)">
    <ellipse id="Ellipse_1" data-name="Ellipse 1" cx="80.609" cy="80.548" rx="80.609" ry="80.548" transform="translate(16.387 0)" fill="#fff"/>
    <path id="Ellipse_1_-_Outline" data-name="Ellipse 1 - Outline" d="M80.609-4.035A84.583,84.583,0,1,1-4.035,80.548,84.709,84.709,0,0,1,80.609-4.035Zm0,161.1A76.513,76.513,0,1,0,4.035,80.548,76.63,76.63,0,0,0,80.609,157.062Z" transform="translate(16.387 0)" fill="#4385f4"/>
    <path id="Ellipse_2" data-name="Ellipse 2" d="M69.94-.51c.676,0,1.361.01,2.035.029a.51.51,0,0,1,.5.524.51.51,0,0,1-.524.5C71.282.52,70.607.51,69.94.51a.51.51,0,0,1-.484-.35.51.51,0,0,1-.48.357c-.666.009-1.34.028-2,.056a.51.51,0,0,1-.043-1.019C67.6-.475,68.287-.494,68.962-.5a.511.511,0,0,1,.491.35A.51.51,0,0,1,69.94-.51Zm6.053.258.044,0c.673.058,1.354.126,2.024.2A.51.51,0,1,1,77.946.966c-.661-.076-1.332-.143-2-.2a.51.51,0,0,1,.043-1.018ZM62.922-.163a.51.51,0,0,1,.05,1.018c-.663.066-1.333.143-1.993.227a.51.51,0,1,1-.13-1.012c.669-.086,1.35-.164,2.022-.231ZM82,.525a.513.513,0,0,1,.088.008c.666.116,1.338.243,2,.377a.51.51,0,1,1-.2,1c-.652-.133-1.315-.258-1.971-.372A.51.51,0,0,1,82,.525ZM56.925.7a.51.51,0,0,1,.094,1.011c-.654.123-1.315.257-1.965.4a.51.51,0,0,1-.218-1c.659-.144,1.33-.28,1.994-.4A.513.513,0,0,1,56.925.7ZM87.92,1.821a.511.511,0,0,1,.131.017c.653.173,1.312.358,1.959.55a.51.51,0,0,1-.29.978c-.638-.189-1.287-.371-1.93-.542a.51.51,0,0,1,.13-1Zm-36.894.255a.51.51,0,0,1,.137,1c-.641.179-1.288.371-1.923.569a.51.51,0,1,1-.3-.974c.645-.2,1.3-.4,1.951-.577A.51.51,0,0,1,51.025,2.075ZM93.7,3.626a.509.509,0,0,1,.173.03c.635.229,1.276.471,1.9.719a.51.51,0,0,1-.374.949c-.619-.244-1.25-.482-1.876-.708a.51.51,0,0,1,.173-.99Zm-48.434.336a.51.51,0,0,1,.18.987c-.622.234-1.25.481-1.866.734A.51.51,0,0,1,43.2,4.74c.625-.256,1.262-.507,1.893-.745A.509.509,0,0,1,45.268,3.962ZM99.306,5.929a.508.508,0,0,1,.214.047c.613.284,1.23.58,1.834.881a.51.51,0,1,1-.455.913c-.6-.3-1.2-.589-1.807-.869a.51.51,0,0,1,.215-.973ZM39.7,6.343a.51.51,0,0,1,.221.97c-.6.288-1.2.588-1.795.894a.51.51,0,0,1-.468-.906c.6-.31,1.213-.615,1.821-.907A.508.508,0,0,1,39.7,6.343Zm64.991,2.368a.508.508,0,0,1,.253.068c.586.336,1.175.685,1.75,1.037a.51.51,0,0,1-.533.87c-.568-.347-1.148-.691-1.725-1.022a.51.51,0,0,1,.254-.953ZM34.354,9.2a.51.51,0,0,1,.26.949c-.573.339-1.148.691-1.711,1.046a.51.51,0,1,1-.545-.862c.571-.36,1.155-.718,1.736-1.061A.508.508,0,0,1,34.354,9.2Zm75.455,2.749a.508.508,0,0,1,.29.091c.554.385,1.111.784,1.654,1.184a.51.51,0,0,1-.606.821c-.535-.4-1.084-.788-1.63-1.167a.51.51,0,0,1,.291-.929Zm-80.531.559a.51.51,0,0,1,.3.925c-.541.387-1.084.787-1.614,1.19a.51.51,0,0,1-.617-.812c.538-.408,1.089-.815,1.638-1.207A.508.508,0,0,1,29.279,12.506Zm85.353,3.108a.508.508,0,0,1,.326.118c.519.431,1.039.876,1.546,1.323a.51.51,0,1,1-.674.765c-.5-.44-1.012-.878-1.524-1.3a.51.51,0,0,1,.326-.9Zm-90.124.625a.51.51,0,0,1,.332.9c-.506.432-1.012.878-1.506,1.324a.51.51,0,1,1-.685-.756c.5-.453,1.014-.905,1.528-1.344A.508.508,0,0,1,24.508,16.24Zm94.612,3.444a.508.508,0,0,1,.358.147c.48.475.96.963,1.427,1.451a.51.51,0,0,1-.737.7c-.46-.481-.933-.962-1.406-1.43a.51.51,0,0,1,.358-.873Zm-99.044.686a.51.51,0,0,1,.363.868c-.467.474-.933.962-1.386,1.449a.51.51,0,0,1-.747-.694c.46-.494.933-.989,1.406-1.47A.508.508,0,0,1,20.076,20.37Zm103.166,3.753a.509.509,0,0,1,.389.179c.438.514.874,1.042,1.3,1.568a.51.51,0,1,1-.8.639c-.416-.519-.846-1.039-1.278-1.546a.51.51,0,0,1,.388-.841Zm-107.226.743a.51.51,0,0,1,.393.835c-.424.513-.847,1.039-1.256,1.563a.51.51,0,1,1-.8-.627c.415-.532.844-1.066,1.275-1.586A.509.509,0,0,1,16.016,24.866ZM126.965,28.9a.509.509,0,0,1,.416.214c.392.55.781,1.113,1.156,1.674a.51.51,0,0,1-.848.567c-.37-.553-.753-1.108-1.14-1.65a.51.51,0,0,1,.415-.806ZM12.358,29.7a.51.51,0,0,1,.419.8c-.379.547-.754,1.108-1.117,1.666a.51.51,0,0,1-.855-.556c.368-.566.749-1.135,1.133-1.69A.509.509,0,0,1,12.358,29.7Zm117.9,4.288a.51.51,0,0,1,.44.251c.343.582.681,1.177,1.007,1.768a.51.51,0,0,1-.894.492c-.321-.583-.655-1.169-.992-1.742a.51.51,0,0,1,.439-.769ZM9.132,34.823a.51.51,0,0,1,.443.763c-.33.578-.655,1.169-.968,1.756a.51.51,0,1,1-.9-.479c.317-.6.648-1.2.982-1.782A.51.51,0,0,1,9.132,34.823Zm123.976,4.51a.51.51,0,0,1,.461.29c.291.61.577,1.232.85,1.849a.51.51,0,1,1-.933.412c-.269-.608-.551-1.222-.837-1.822a.51.51,0,0,1,.46-.73ZM6.362,40.211a.51.51,0,0,1,.463.723c-.278.6-.551,1.221-.812,1.833a.51.51,0,1,1-.939-.4c.264-.621.541-1.247.824-1.861A.51.51,0,0,1,6.362,40.211Zm129.114,4.7a.51.51,0,0,1,.478.331c.237.632.467,1.277.685,1.916a.51.51,0,0,1-.965.329c-.215-.63-.442-1.265-.675-1.888a.51.51,0,0,1,.478-.689Zm-131.4.911a.51.51,0,0,1,.48.682c-.224.626-.443,1.265-.649,1.9a.51.51,0,0,1-.97-.316c.209-.642.43-1.29.658-1.926A.51.51,0,0,1,4.071,45.819ZM137.349,50.67a.51.51,0,0,1,.491.374c.18.651.354,1.313.515,1.968a.51.51,0,1,1-.99.244c-.159-.646-.33-1.3-.508-1.94a.51.51,0,0,1,.492-.646ZM2.279,51.606a.51.51,0,0,1,.494.64c-.169.643-.33,1.3-.48,1.947a.51.51,0,0,1-.994-.23c.152-.658.316-1.323.488-1.976A.51.51,0,0,1,2.279,51.606Zm136.432,4.967a.51.51,0,0,1,.5.417c.123.664.238,1.339.342,2.006a.51.51,0,0,1-1.008.157c-.1-.658-.215-1.323-.337-1.977a.51.51,0,0,1,.5-.6ZM1,57.528a.51.51,0,0,1,.5.6c-.112.655-.216,1.322-.309,1.981a.51.51,0,0,1-1.01-.143c.094-.669.2-1.345.313-2.01A.51.51,0,0,1,1,57.528Zm138.555,5.045a.51.51,0,0,1,.507.461c.065.671.121,1.353.166,2.027a.51.51,0,1,1-1.018.069c-.045-.664-.1-1.336-.164-2a.51.51,0,0,1,.459-.557ZM.24,63.538l.043,0a.51.51,0,0,1,.466.55c-.055.663-.1,1.336-.137,2a.51.51,0,1,1-1.019-.055c.036-.675.083-1.358.139-2.03A.51.51,0,0,1,.24,63.538Zm139.637,5.084a.51.51,0,0,1,.51.5c0,.25,0,.5,0,.754,0,.426,0,.857-.011,1.283a.51.51,0,0,1-1.02-.018c.007-.419.011-.845.011-1.264,0-.247,0-.5,0-.743a.51.51,0,0,1,.5-.515ZM0,69.593a.51.51,0,0,1,.51.508c0,.666.014,1.341.035,2.006a.51.51,0,0,1-.494.526.51.51,0,0,1-.526-.494C-.5,71.465-.508,70.78-.51,70.1A.51.51,0,0,1,0,69.593Zm139.681,5.085h.039a.51.51,0,0,1,.47.547c-.051.674-.112,1.356-.182,2.027a.51.51,0,1,1-1.015-.106c.069-.662.129-1.334.179-2A.51.51,0,0,1,139.681,74.678Zm-139.4.967a.51.51,0,0,1,.507.465c.059.663.129,1.334.207,1.994a.51.51,0,1,1-1.013.12c-.079-.67-.15-1.351-.21-2.024a.51.51,0,0,1,.463-.553Zm138.688,5.049a.51.51,0,0,1,.5.592c-.109.666-.229,1.34-.357,2a.51.51,0,0,1-1-.193c.126-.653.244-1.317.351-1.974A.51.51,0,0,1,138.966,80.694ZM1.077,81.65a.51.51,0,0,1,.5.421c.116.655.244,1.318.379,1.969a.51.51,0,0,1-1,.207c-.137-.661-.267-1.333-.385-2a.51.51,0,0,1,.5-.6Zm136.655,4.975a.51.51,0,0,1,.495.636c-.166.654-.345,1.316-.53,1.965a.51.51,0,0,1-.981-.28c.183-.64.358-1.291.522-1.936A.51.51,0,0,1,137.732,86.625ZM2.394,87.563a.51.51,0,0,1,.492.378c.173.642.358,1.291.549,1.928a.51.51,0,0,1-.977.294c-.194-.646-.382-1.3-.557-1.957a.51.51,0,0,1,.493-.643Zm133.59,4.862a.51.51,0,0,1,.481.678c-.223.637-.458,1.28-.7,1.911a.51.51,0,0,1-.953-.365c.238-.621.47-1.255.689-1.883A.51.51,0,0,1,135.984,92.426ZM4.223,93.339a.51.51,0,0,1,.479.335c.228.625.469,1.255.716,1.873a.51.51,0,1,1-.947.378c-.25-.627-.494-1.267-.726-1.9a.51.51,0,0,1,.479-.685Zm129.515,4.713a.51.51,0,0,1,.465.72c-.278.615-.568,1.235-.863,1.842a.51.51,0,0,1-.917-.446c.291-.6.577-1.209.851-1.816A.51.51,0,0,1,133.737,98.052ZM6.548,98.932a.51.51,0,0,1,.462.294c.282.6.577,1.209.876,1.8a.51.51,0,0,1-.911.459c-.3-.6-.6-1.219-.889-1.83a.51.51,0,0,1,.462-.726Zm124.46,4.528a.51.51,0,0,1,.444.759c-.33.589-.673,1.181-1.02,1.761a.51.51,0,0,1-.875-.524c.342-.571.68-1.155,1.006-1.735A.51.51,0,0,1,131.008,103.46ZM9.352,104.3a.51.51,0,0,1,.442.255c.333.576.68,1.155,1.029,1.721a.51.51,0,0,1-.868.536c-.355-.574-.706-1.162-1.045-1.746a.51.51,0,0,1,.441-.766Zm118.468,4.309a.51.51,0,0,1,.421.8c-.38.558-.773,1.118-1.169,1.665a.51.51,0,1,1-.826-.6c.39-.539.778-1.091,1.152-1.641A.509.509,0,0,1,127.82,108.612Zm-115.209.8a.509.509,0,0,1,.418.217c.382.545.777,1.092,1.174,1.625a.51.51,0,0,1-.818.609c-.4-.542-.8-1.1-1.192-1.649a.51.51,0,0,1,.417-.8ZM124.2,113.468a.51.51,0,0,1,.395.832c-.426.523-.867,1.048-1.308,1.558a.51.51,0,1,1-.772-.667c.435-.5.869-1.02,1.289-1.536A.509.509,0,0,1,124.2,113.468Zm-107.9.747a.509.509,0,0,1,.391.182c.427.51.868,1.021,1.31,1.518a.51.51,0,1,1-.762.678c-.448-.5-.9-1.023-1.329-1.54a.51.51,0,0,1,.391-.838Zm103.872,3.779a.51.51,0,0,1,.366.865c-.47.485-.954.969-1.437,1.44a.51.51,0,1,1-.711-.731c.477-.464.953-.942,1.417-1.419A.508.508,0,0,1,120.172,117.995Zm-99.783.691a.508.508,0,0,1,.361.15c.47.471.953.942,1.436,1.4a.51.51,0,0,1-.7.741c-.49-.464-.98-.942-1.457-1.42a.51.51,0,0,1,.361-.87Zm95.382,3.472a.51.51,0,0,1,.334.9c-.51.442-1.033.883-1.556,1.311a.51.51,0,0,1-.646-.789c.515-.421,1.031-.856,1.533-1.292A.508.508,0,0,1,115.77,122.158Zm-90.923.63a.508.508,0,0,1,.329.12c.509.429,1.031.857,1.551,1.271a.51.51,0,0,1-.635.8c-.528-.42-1.058-.854-1.574-1.289a.51.51,0,0,1,.329-.9Zm86.18,3.138a.51.51,0,0,1,.3.923c-.546.4-1.106.791-1.663,1.172a.51.51,0,0,1-.575-.842c.549-.375,1.1-.764,1.639-1.155A.508.508,0,0,1,111.027,125.927Zm-81.385.564a.508.508,0,0,1,.294.093c.544.384,1.1.765,1.655,1.132a.51.51,0,1,1-.564.85c-.563-.373-1.127-.76-1.679-1.149a.51.51,0,0,1,.294-.927Zm76.335,2.781a.51.51,0,0,1,.263.947c-.579.348-1.17.693-1.758,1.024a.51.51,0,1,1-.5-.889c.58-.326,1.163-.666,1.733-1.009A.508.508,0,0,1,105.976,129.272Zm-71.238.494a.508.508,0,0,1,.256.07c.575.335,1.162.667,1.747.985a.51.51,0,1,1-.488.9c-.593-.323-1.189-.659-1.772-1a.51.51,0,0,1,.257-.951Zm65.917,2.4a.51.51,0,0,1,.224.968c-.607.3-1.226.589-1.84.867a.51.51,0,1,1-.421-.929c.606-.275,1.216-.562,1.814-.855A.508.508,0,0,1,100.655,132.168Zm-60.556.42a.508.508,0,0,1,.217.049c.6.284,1.216.563,1.826.83a.51.51,0,1,1-.408.935c-.619-.27-1.242-.554-1.853-.842a.51.51,0,0,1,.218-.971Zm55,2a.51.51,0,0,1,.184.986c-.63.243-1.272.48-1.909.7a.51.51,0,1,1-.339-.962c.627-.221,1.26-.455,1.881-.694A.509.509,0,0,1,95.1,134.591Zm-49.418.342a.509.509,0,0,1,.177.032c.624.231,1.26.455,1.891.667a.51.51,0,1,1-.326.967c-.64-.215-1.285-.443-1.919-.677a.51.51,0,0,1,.177-.989Zm43.676,1.588a.51.51,0,0,1,.141,1c-.649.187-1.309.367-1.963.535a.51.51,0,0,1-.254-.988c.644-.166,1.3-.343,1.935-.527A.51.51,0,0,1,89.361,136.521Zm-37.907.262a.51.51,0,0,1,.135.018c.642.175,1.295.343,1.941.5a.51.51,0,0,1-.24.991c-.656-.159-1.319-.33-1.97-.507a.51.51,0,0,1,.134-1Zm32.019,1.16a.51.51,0,0,1,.1,1.011c-.662.13-1.336.252-2,.362a.51.51,0,0,1-.167-1.006c.656-.109,1.32-.229,1.973-.357A.513.513,0,0,1,83.472,137.943Zm-26.111.18a.513.513,0,0,1,.092.008c.654.119,1.32.23,1.978.329a.51.51,0,1,1-.153,1.008c-.668-.1-1.343-.214-2.007-.334a.51.51,0,0,1,.09-1.012Zm20.122.726a.51.51,0,0,1,.054,1.017c-.671.072-1.353.135-2.026.188a.51.51,0,0,1-.079-1.017c.664-.052,1.336-.114,2-.185Zm-14.119.1.048,0c.662.062,1.334.115,2,.157a.51.51,0,0,1-.065,1.018c-.674-.043-1.356-.1-2.028-.16a.51.51,0,0,1,.047-1.018Zm8.073.289a.51.51,0,0,1,.01,1.02c-.5.01-1.006.016-1.506.016l-.53,0a.51.51,0,1,1,.008-1.02l.522,0c.493,0,.993-.005,1.485-.016Z" transform="translate(27.055 10.668)" fill="#4385f4"/>
    <path id="Path_578" data-name="Path 578" d="M178.3,118.561a2.826,2.826,0,0,1-.9,2.109,2.992,2.992,0,0,1-2.229.783,3.68,3.68,0,0,1-1.807-.482,3.479,3.479,0,0,1-1.2-1.084l1.2-1.084a1.316,1.316,0,0,0,.241.3,2.275,2.275,0,0,0,1.627.723,1.636,1.636,0,0,0,1.024-.361,1.15,1.15,0,0,0,.361-.964c0-.482-.3-.783-.9-.964-1.145-.361-1.807-.542-1.868-.6a3.315,3.315,0,0,1-1.145-.9,2.719,2.719,0,0,1-.422-1.506,2.78,2.78,0,0,1,2.892-2.771,3.342,3.342,0,0,1,1.687.422,2.657,2.657,0,0,1,1.084.9l-1.084,1.084a3.018,3.018,0,0,0-.482-.422,2.054,2.054,0,0,0-1.145-.422,1.7,1.7,0,0,0-.9.241,1.054,1.054,0,0,0,0,1.687,6.794,6.794,0,0,0,1.446.482,3.362,3.362,0,0,1,1.747.964A2.2,2.2,0,0,1,178.3,118.561Zm-7.772,2.771-1.687.241v-6.266a1.848,1.848,0,0,0-.361-1.265,1.59,1.59,0,0,0-1.145-.422,1.612,1.612,0,0,0-1.386.723,2.255,2.255,0,0,0-.3,1.084v5.844l-1.687.3v-6.326a1.848,1.848,0,0,0-.361-1.265,1.09,1.09,0,0,0-1.024-.422H162.4a1.3,1.3,0,0,0-1.325.783,3.124,3.124,0,0,0-.3,1.446v5.482l-1.747.3v-9.157l1.566-.3v1.2a1.884,1.884,0,0,1,.542-.663,2.3,2.3,0,0,1,1.566-.663,2.123,2.123,0,0,1,2.35,1.386,2.705,2.705,0,0,1,2.53-1.446,2.769,2.769,0,0,1,2.35,1.024,4.233,4.233,0,0,1,.6,2.41Zm-12.712-9.278-.783,1.868h-.3a1.326,1.326,0,0,0-.482.06l-.542.181a2.127,2.127,0,0,0-.9,1.024,4.037,4.037,0,0,0-.422,1.868v4.277l-1.687.3v-9.218l1.566-.3v1.928c.181-.361.422-.663.6-1.024a2.453,2.453,0,0,1,1.024-.723,3.507,3.507,0,0,1,1.145-.181A2.944,2.944,0,0,1,157.817,112.055Zm-7.711,9.278-1.687.241v-9.157l1.687-.241Zm.361-11.386-1.145,1.446-1.084-1.446,1.145-1.446Zm-3.856.964h-4.759v3.313h3.735v1.687h-3.735v5.422l-1.868.3V109.223h6.266Zm-10.483,5.964a3.377,3.377,0,0,0-.9-2.35,2.916,2.916,0,0,0-4.277-.06,3.06,3.06,0,0,0-.783,2.109,3.37,3.37,0,0,0,.783,2.35,2.609,2.609,0,0,0,2.048.9,3.269,3.269,0,0,0,2.169-.843,2.9,2.9,0,0,0,.964-2.109Zm1.506,4.458-1.627.241v-1.566l-.361.422a3.959,3.959,0,0,1-1.024.723,4.382,4.382,0,0,1-4.94-1.024,4.584,4.584,0,0,1-1.265-3.313,5.153,5.153,0,0,1,1.265-3.434,4.166,4.166,0,0,1,3.133-1.446,4.909,4.909,0,0,1,1.868.361,5.459,5.459,0,0,1,.964.663c.06.121.181.241.241.361v-4.1l1.687-.241Zm-12.049-4.518a3.094,3.094,0,0,0-.9-2.229,2.846,2.846,0,0,0-4.217.06,3.269,3.269,0,0,0-.843,2.169,3.051,3.051,0,0,0,.843,2.169,2.665,2.665,0,0,0,2.169.9,2.609,2.609,0,0,0,2.048-.9,3.057,3.057,0,0,0,.9-2.169Zm1.747,0a4.738,4.738,0,0,1-1.386,3.374,4.6,4.6,0,0,1-6.567.121l-.12-.12a4.543,4.543,0,0,1-1.386-3.434,5.1,5.1,0,0,1,1.325-3.434,4.3,4.3,0,0,1,3.253-1.446,4.742,4.742,0,0,1,4.88,4.94Zm-12.832,0a3.094,3.094,0,0,0-.9-2.229,2.846,2.846,0,0,0-4.217.06,3.269,3.269,0,0,0-.843,2.169,3.051,3.051,0,0,0,.843,2.169,2.665,2.665,0,0,0,2.169.9,2.609,2.609,0,0,0,2.048-.9,3.057,3.057,0,0,0,.9-2.169Zm1.747,0a4.738,4.738,0,0,1-1.386,3.374,4.6,4.6,0,0,1-6.567.121c-.06-.06-.12-.06-.12-.12a4.543,4.543,0,0,1-1.386-3.434,5.1,5.1,0,0,1,1.325-3.434,4.3,4.3,0,0,1,3.253-1.446,4.742,4.742,0,0,1,4.88,4.94Zm-11.206,3.313a5.429,5.429,0,0,1-.663.422,12.937,12.937,0,0,1-1.566.843,4.967,4.967,0,0,1-1.868.422,6.777,6.777,0,0,1-4.82-1.807,5.886,5.886,0,0,1-1.928-4.518,6.792,6.792,0,0,1,1.747-4.579,5.378,5.378,0,0,1,4.217-1.928,6.554,6.554,0,0,1,2.169.361,6.826,6.826,0,0,1,2.41,1.386l-1.084,1.265a4.162,4.162,0,0,0-1.807-1.024,5.824,5.824,0,0,0-1.747-.241,3.541,3.541,0,0,0-2.892,1.386,4.993,4.993,0,0,0-1.145,3.374,4.409,4.409,0,0,0,1.325,3.253,4.771,4.771,0,0,0,3.434,1.265,3.139,3.139,0,0,0,1.747-.542c.482-.361.723-.542.783-.6v-2.711H99.5l.542-1.687h4.94Z" transform="translate(-39.013 -47.351)" fill="#4385f4"/>
    <path id="Path_579" data-name="Path 579" d="M152.329,55.4s-1.627-.181-1.627,1.265v6.386h10.724v1.928a.938.938,0,0,1-.9.964H150.7V74.2H162.39s7.049-1.084,7.109-8.254V55.4ZM168.9,45.1H148.111c-7.531,1.807-7.711,8.013-7.711,8.013V74.2h8.013V55.041a1.941,1.941,0,0,1,1.627-1.928H168.9Z" transform="translate(-57.382 -22.146)" fill="#4385f4"/>
    <path id="Path_580" data-name="Path 580" d="M310.209,166.8H288.4v33.918h21.809l-6.989-15.9Z" transform="translate(-116.218 -70.527)" fill="#3876df"/>
    <path id="Path_581" data-name="Path 581" d="M2.6,166.8H24.409v33.918H2.6l6.988-15.9Z" transform="translate(-2.6 -70.527)" fill="#3876df"/>
    <path id="Path_582" data-name="Path 582" d="M299.3,147.7l-10.9,11.447v33.918l10.9-11.447Z" transform="translate(-116.218 -62.934)" fill="#2354a6"/>
    <path id="Path_583" data-name="Path 583" d="M20.7,147.7l10.9,11.447v33.918L20.7,181.618Z" transform="translate(-9.796 -62.934)" fill="#2354a6"/>
    <path id="Path_584" data-name="Path 584" d="M171.321,225.192a1.477,1.477,0,0,0,.361-.964v-.6a1.368,1.368,0,0,0-.361-.964,1.236,1.236,0,0,0-1.747,0,1.477,1.477,0,0,0-.361.964v.6a1.238,1.238,0,0,0,2.109.964Zm-2.289.422a2.011,2.011,0,0,1-.542-1.386V223.5a1.909,1.909,0,0,1,.542-1.386,2.2,2.2,0,0,1,2.892,0,2.011,2.011,0,0,1,.542,1.386v.723a1.909,1.909,0,0,1-.542,1.386,2.052,2.052,0,0,1-1.446.542,1.82,1.82,0,0,1-1.446-.542Zm-4.7,0a2.159,2.159,0,0,1-.542-1.446v-.723a2.159,2.159,0,0,1,.542-1.446,2.052,2.052,0,0,1,1.446-.542,1.98,1.98,0,0,1,1.024.241,1.883,1.883,0,0,1,.663.542,2.157,2.157,0,0,1,.241.663c0,.06,0,.121-.06.121-.06.06-.06.06-.121.06h-.361c-.06,0-.12,0-.12-.06a.187.187,0,0,1-.06-.121,1.1,1.1,0,0,0-.422-.6,1.214,1.214,0,0,0-.663-.181,1.189,1.189,0,0,0-.843.361,1.636,1.636,0,0,0-.361,1.024v.6a1.636,1.636,0,0,0,.361,1.024,1.189,1.189,0,0,0,.843.361,1.214,1.214,0,0,0,.663-.181,1.1,1.1,0,0,0,.422-.6.21.21,0,0,1,.06-.12c.06,0,.06-.06.12-.06h.361c.06,0,.121,0,.121.06.06.06.06.06.06.12a1.474,1.474,0,0,1-.9,1.2,1.98,1.98,0,0,1-1.024.241,2.052,2.052,0,0,1-1.446-.542Zm-2.47.422c-.06-.06-.06-.06-.06-.12v-.6c0-.06,0-.12.06-.12.06-.06.06-.06.12-.06h.6c.06,0,.12,0,.12.06a.187.187,0,0,1,.06.12v.6a.16.16,0,0,1-.181.181h-.6a.21.21,0,0,1-.12-.06Zm-3.8-.06a2.162,2.162,0,0,1-.6-.422.547.547,0,0,1-.181-.422c0-.06,0-.12.06-.12s.06-.06.12-.06h.422a.059.059,0,0,1,.06.06.81.81,0,0,0,.422.361,1.192,1.192,0,0,0,.663.12,1.6,1.6,0,0,0,.723-.181.614.614,0,0,0,.3-.482.857.857,0,0,0-.12-.361.971.971,0,0,0-.422-.241,3.453,3.453,0,0,0-.843-.241,2.292,2.292,0,0,1-1.024-.482,1.145,1.145,0,0,1-.3-.783,1.018,1.018,0,0,1,.181-.6,2.077,2.077,0,0,1,.542-.482,2.349,2.349,0,0,1,1.807,0,1.312,1.312,0,0,1,.542.422.547.547,0,0,1,.181.422c0,.06,0,.12-.06.12-.06.06-.06.06-.12.06h-.3c-.06,0-.12-.06-.181-.06l-.241-.241a.461.461,0,0,0-.3-.12,1.326,1.326,0,0,0-.482-.06,1.374,1.374,0,0,0-.663.181.744.744,0,0,0-.241.482.46.46,0,0,0,.12.3,1.261,1.261,0,0,0,.361.241,3.9,3.9,0,0,0,.783.241,2.743,2.743,0,0,1,1.145.482.971.971,0,0,1,.361.783,1.214,1.214,0,0,1-.181.663,2.357,2.357,0,0,1-.6.482,2.728,2.728,0,0,1-.964.181,5.641,5.641,0,0,1-.964-.241Zm-8.073.06c-.06-.06-.06-.06-.06-.12v-4.036c0-.06,0-.121.06-.121.06-.06.06-.06.12-.06h.361c.06,0,.12,0,.12.06.06.06.06.06.06.121v.3a1.462,1.462,0,0,1,1.265-.542,1.39,1.39,0,0,1,1.325.783,1.319,1.319,0,0,1,.6-.542,1.961,1.961,0,0,1,.843-.241,1.646,1.646,0,0,1,1.145.482,1.907,1.907,0,0,1,.422,1.386v2.47c0,.06,0,.121-.06.121a.187.187,0,0,1-.12.06h-.3c-.06,0-.121,0-.121-.06-.06-.06-.06-.06-.06-.121v-2.41a1.04,1.04,0,0,0-1.747-.964,1.327,1.327,0,0,0-.3.964v2.41a.16.16,0,0,1-.181.181h-.361c-.06,0-.12,0-.12-.06-.06-.06-.06-.06-.06-.121v-2.41a1.04,1.04,0,0,0-1.747-.964,1.327,1.327,0,0,0-.3.964v2.41a.16.16,0,0,1-.181.181h-.361c-.121-.121-.181-.121-.241-.121Zm-3.193,0c-.06-.06-.06-.06-.06-.12v-4.036c0-.06,0-.121.06-.121.06-.06.06-.06.12-.06h.361c.06,0,.12,0,.12.06a.187.187,0,0,1,.06.121v.361a1.224,1.224,0,0,1,1.2-.6h.361c.06,0,.12,0,.12.06a.186.186,0,0,1,.06.12v.3a.16.16,0,0,1-.181.181h-.482a.96.96,0,0,0-.723.241.828.828,0,0,0-.241.723v2.53c0,.06,0,.12-.06.12a.187.187,0,0,1-.121.06h-.361a.456.456,0,0,1-.241.06Zm-4.157,0c-.06-.06-.06-.06-.06-.12V222.36h-.723c-.06,0-.12,0-.12-.06-.06-.06-.06-.06-.06-.12v-.241c0-.06,0-.12.06-.12.06-.06.06-.06.12-.06h.723v-.422a1.8,1.8,0,0,1,.361-1.084,1.27,1.27,0,0,1,1.084-.361h1.265c.06,0,.12,0,.12.06.06.06.06.06.06.12v.241c0,.06,0,.12-.06.12-.06.06-.06.06-.12.06h-1.265a.612.612,0,0,0-.663.843v.361h1.928c.06,0,.12,0,.12.06.06.06.06.06.06.121v4.036c0,.06,0,.121-.06.121-.06.06-.06.06-.12.06h-.361a.16.16,0,0,1-.181-.181h0V222.36h-1.386v3.554c0,.06,0,.121-.06.121-.06.06-.06.06-.12.06h-.361c-.06,0-.121-.06-.181-.06Zm-2.892-.964a1.821,1.821,0,0,0,.3-.964v-.663a1.623,1.623,0,0,0-.3-.9,1.034,1.034,0,0,0-.9-.361,1.226,1.226,0,0,0-.9.361,2.031,2.031,0,0,0-.3,1.024v.241c0,1.084.422,1.627,1.2,1.627a.859.859,0,0,0,.9-.361Zm-2.41.482a2.6,2.6,0,0,1-.482-1.446v-.542a2.451,2.451,0,0,1,.482-1.446,1.472,1.472,0,0,1,1.325-.6,1.577,1.577,0,0,1,1.386.6v-1.988c0-.06,0-.12.06-.12.06-.06.06-.06.12-.06h.361a.16.16,0,0,1,.181.181h0v5.663a.16.16,0,0,1-.181.181h-.361c-.06,0-.12,0-.12-.06-.06-.06-.06-.06-.06-.12v-.361a1.8,1.8,0,0,1-1.386.663,1.481,1.481,0,0,1-1.325-.542Zm-2.47-.361a1.477,1.477,0,0,0,.361-.964v-.6a1.368,1.368,0,0,0-.361-.964,1.236,1.236,0,0,0-1.747,0,1.477,1.477,0,0,0-.361.964v.663a1.368,1.368,0,0,0,.361.964,1.448,1.448,0,0,0,1.747-.06Zm-2.35.422a2.011,2.011,0,0,1-.542-1.386V223.5a1.909,1.909,0,0,1,.542-1.386,2.2,2.2,0,0,1,2.892,0,2.011,2.011,0,0,1,.542,1.386v.723a1.909,1.909,0,0,1-.542,1.386A2.2,2.2,0,0,1,132.523,225.613Zm-2.53-.422a1.477,1.477,0,0,0,.361-.964v-.6a1.368,1.368,0,0,0-.361-.964,1.189,1.189,0,0,0-.843-.361,1.094,1.094,0,0,0-.843.361,1.477,1.477,0,0,0-.361.964v.663a1.368,1.368,0,0,0,.361.964,1.189,1.189,0,0,0,.843.361,1.606,1.606,0,0,0,.843-.422Zm-2.289.422a2.011,2.011,0,0,1-.542-1.386V223.5a1.909,1.909,0,0,1,.542-1.386,2.2,2.2,0,0,1,2.892,0,2.011,2.011,0,0,1,.542,1.386v.723a1.909,1.909,0,0,1-.542,1.386,2.2,2.2,0,0,1-2.892,0Zm-2.771-.542a2.3,2.3,0,0,0,.361-.964v-.6a1.226,1.226,0,0,0-.361-.9,1.034,1.034,0,0,0-.9-.361,1.226,1.226,0,0,0-.9.361,2.031,2.031,0,0,0-.3,1.024v.482a2.031,2.031,0,0,0,.3,1.024.859.859,0,0,0,.9.361,1.178,1.178,0,0,0,.9-.422Zm-1.988,2.651a1.319,1.319,0,0,1-.6-.542.971.971,0,0,1-.181-.542c0-.06,0-.12.06-.12.06-.06.06-.06.121-.06h.361c.06,0,.12,0,.12.06l.12.12a1.054,1.054,0,0,0,1.084.663,1.768,1.768,0,0,0,.964-.241,1.112,1.112,0,0,0,.3-.964v-.6a1.576,1.576,0,0,1-1.386.6,1.413,1.413,0,0,1-1.325-.6,2.6,2.6,0,0,1-.482-1.446v-.482a2.451,2.451,0,0,1,.482-1.446,1.472,1.472,0,0,1,1.325-.6,1.714,1.714,0,0,1,1.386.663v-.422c0-.06,0-.12.06-.12.06-.06.06-.06.121-.06h.361c.06,0,.12,0,.12.06a.187.187,0,0,1,.06.12v4.217a1.757,1.757,0,0,1-1.988,1.988,2.363,2.363,0,0,1-1.084-.241Z" transform="translate(-50.106 -91.627)" fill="#4a4a4a"/>
    <rect id="Rectangle_92" data-name="Rectangle 92" width="172.122" height="33.918" transform="translate(10.784 84.766)" fill="#4385f4"/>
    <g id="Group_246" data-name="Group 246" transform="translate(51.691 91.272)">
      <path id="Path_585" data-name="Path 585" d="M90.509,165.729v-5.964H88.4V158.5h5.723v1.265H92.015v5.964Z" transform="translate(-88.4 -158.5)" fill="#fff"/>
    </g>
    <g id="Group_247" data-name="Group 247" transform="translate(57.595 91.152)">
      <path id="Path_586" data-name="Path 586" d="M105.188,162.035c0,2.289-1.325,3.735-3.494,3.735s-3.494-1.446-3.494-3.735,1.325-3.735,3.494-3.735S105.188,159.746,105.188,162.035Zm-5.422,0c0,1.506.783,2.47,1.928,2.47,1.2,0,1.928-.964,1.928-2.47s-.783-2.47-1.928-2.47S99.766,160.529,99.766,162.035Z" transform="translate(-98.2 -158.3)" fill="#fff"/>
      <path id="Path_587" data-name="Path 587" d="M114.412,158.5a2.356,2.356,0,0,1,2.53,2.47,2.4,2.4,0,0,1-2.591,2.47h-1.446v2.289H111.4V158.5Zm-1.506,3.735h1.084a1.237,1.237,0,0,0,1.386-1.265c0-.843-.482-1.265-1.386-1.265h-1.084Z" transform="translate(-103.448 -158.38)" fill="#fff"/>
    </g>
    <g id="Group_248" data-name="Group 248" transform="translate(74.162 91.272)">
      <path id="Path_588" data-name="Path 588" d="M130.459,165.729H125.7V158.5h4.759v1.265h-3.253v1.747h3.073v1.145h-3.073v1.807h3.253Z" transform="translate(-125.7 -158.5)" fill="#fff"/>
    </g>
    <g id="Group_249" data-name="Group 249" transform="translate(80.006 91.152)">
      <path id="Path_589" data-name="Path 589" d="M135.4,165.865V164.6h3.314v1.265Z" transform="translate(-135.4 -160.805)" fill="#fff"/>
      <path id="Path_590" data-name="Path 590" d="M142.5,162.035c0-2.35,1.325-3.735,3.434-3.735a2.979,2.979,0,0,1,3.193,2.711h-1.506a1.639,1.639,0,0,0-1.687-1.446c-1.145,0-1.868.964-1.868,2.47,0,1.566.723,2.47,1.868,2.47a1.6,1.6,0,0,0,1.687-1.386h1.446a2.933,2.933,0,0,1-3.193,2.651C143.825,165.77,142.5,164.325,142.5,162.035Z" transform="translate(-138.223 -158.3)" fill="#fff"/>
      <path id="Path_591" data-name="Path 591" d="M161.588,162.035c0,2.289-1.325,3.735-3.494,3.735s-3.494-1.446-3.494-3.735,1.325-3.735,3.494-3.735A3.389,3.389,0,0,1,161.588,162.035Zm-5.422,0c0,1.506.783,2.47,1.928,2.47,1.2,0,1.928-.964,1.928-2.47s-.783-2.47-1.928-2.47S156.166,160.529,156.166,162.035Z" transform="translate(-143.033 -158.3)" fill="#fff"/>
      <path id="Path_592" data-name="Path 592" d="M175.451,165.729h-1.325v-4.88h-.06l-1.988,4.82h-.964l-1.988-4.82h0v4.88H167.8V158.5h1.747l2.048,5.121h.06L173.7,158.5h1.747v7.229Z" transform="translate(-148.28 -158.38)" fill="#fff"/>
      <path id="Path_593" data-name="Path 593" d="M190.111,165.729h-1.325v-4.88h-.06l-1.988,4.82h-.964l-1.988-4.82h-.06v4.88H182.4V158.5h1.747l2.048,5.121h.06L188.3,158.5h1.747v7.229Z" transform="translate(-154.085 -158.38)" fill="#fff"/>
      <path id="Path_594" data-name="Path 594" d="M201.959,165.729H197.2V158.5h4.759v1.265h-3.253v1.747h3.073v1.145h-3.073v1.807h3.253Z" transform="translate(-159.968 -158.38)" fill="#fff"/>
      <path id="Path_595" data-name="Path 595" d="M208.406,165.729H206.9V158.5h2.952c1.687,0,2.591.9,2.591,2.289a2.11,2.11,0,0,1-1.325,2.048l1.506,2.892h-1.687l-1.325-2.651h-1.265v2.651Zm0-3.735h1.325a1.065,1.065,0,0,0,1.2-1.145,1.092,1.092,0,0,0-1.2-1.145h-1.325Z" transform="translate(-163.824 -158.38)" fill="#fff"/>
      <path id="Path_596" data-name="Path 596" d="M217.4,162.035c0-2.35,1.325-3.735,3.434-3.735a2.979,2.979,0,0,1,3.193,2.711h-1.446a1.639,1.639,0,0,0-1.687-1.446c-1.145,0-1.868.964-1.868,2.47,0,1.566.723,2.47,1.868,2.47a1.6,1.6,0,0,0,1.687-1.386h1.446a2.933,2.933,0,0,1-3.193,2.651C218.725,165.77,217.4,164.325,217.4,162.035Z" transform="translate(-167.999 -158.3)" fill="#fff"/>
      <path id="Path_597" data-name="Path 597" d="M234.759,165.729H230V158.5h4.759v1.265h-3.253v1.747h3.073v1.145h-3.073v1.807h3.253Z" transform="translate(-173.008 -158.38)" fill="#fff"/>
    </g>
    <g id="Group_250" data-name="Group 250" transform="translate(34.22 103.502)">
      <path id="Path_598" data-name="Path 598" d="M62.171,178.86c2.169,0,3.434,1.265,3.434,3.554s-1.265,3.615-3.434,3.615H59.4V178.8h2.771Zm-1.265,5.964h1.084c1.325,0,2.109-.843,2.109-2.41,0-1.506-.723-2.35-2.109-2.35H60.906Z" transform="translate(-59.4 -178.8)" fill="#fff"/>
      <path id="Path_599" data-name="Path 599" d="M76.059,186.129H71.3V178.9h4.759v1.265H72.806v1.747h3.073v1.145H72.806v1.807h3.253Z" transform="translate(-64.131 -178.84)" fill="#fff"/>
      <path id="Path_600" data-name="Path 600" d="M82.71,186.129,80.3,178.9h1.687l1.627,5.663h.06L85.3,178.9h1.627l-2.41,7.229Z" transform="translate(-67.709 -178.84)" fill="#fff"/>
      <path id="Path_601" data-name="Path 601" d="M97.359,186.129H92.6V178.9h4.759v1.265H94.106v1.747h3.073v1.145H94.106v1.807h3.253Z" transform="translate(-72.598 -178.84)" fill="#fff"/>
    </g>
    <g id="Group_251" data-name="Group 251" transform="translate(60.125 103.562)">
      <path id="Path_602" data-name="Path 602" d="M107.039,186.129H102.4V178.9h1.506v5.964h3.133Z" transform="translate(-102.4 -178.9)" fill="#fff"/>
    </g>
    <g id="Group_252" data-name="Group 252" transform="translate(65.065 103.442)">
      <path id="Path_603" data-name="Path 603" d="M117.589,182.435c0,2.289-1.325,3.735-3.494,3.735s-3.494-1.446-3.494-3.735,1.325-3.735,3.494-3.735S117.589,180.146,117.589,182.435Zm-5.422,0c0,1.506.783,2.47,1.928,2.47,1.2,0,1.928-.964,1.928-2.47s-.783-2.47-1.928-2.47S112.166,180.929,112.166,182.435Z" transform="translate(-110.6 -178.7)" fill="#fff"/>
      <path id="Path_604" data-name="Path 604" d="M126.812,178.9a2.356,2.356,0,0,1,2.53,2.47,2.4,2.4,0,0,1-2.591,2.47h-1.446v2.289H123.8V178.9Zm-1.446,3.735h1.084a1.237,1.237,0,0,0,1.386-1.265c0-.843-.482-1.265-1.386-1.265h-1.084Z" transform="translate(-115.848 -178.78)" fill="#fff"/>
      <path id="Path_605" data-name="Path 605" d="M142.111,186.129h-1.325v-4.88h-.06l-1.988,4.82h-.964l-1.988-4.82h-.06v4.88H134.4V178.9h1.747l2.048,5.121h.06L140.3,178.9h1.747v7.229Z" transform="translate(-120.062 -178.78)" fill="#fff"/>
      <path id="Path_606" data-name="Path 606" d="M153.959,186.129H149.2V178.9h4.759v1.265h-3.253v1.747h3.073v1.145h-3.073v1.807h3.253Z" transform="translate(-125.945 -178.78)" fill="#fff"/>
      <path id="Path_607" data-name="Path 607" d="M158.9,186.129V178.9h1.265l3.374,4.7h.06v-4.7h1.446v7.229H163.78l-3.374-4.7h-.06v4.7Z" transform="translate(-129.801 -178.78)" fill="#fff"/>
      <path id="Path_608" data-name="Path 608" d="M172.509,186.129v-5.964H170.4V178.9h5.723v1.265h-2.109v5.964Z" transform="translate(-134.373 -178.78)" fill="#fff"/>
      <path id="Path_609" data-name="Path 609" d="M184.6,182.435c0-2.35,1.325-3.735,3.434-3.735a2.979,2.979,0,0,1,3.193,2.711h-1.446a1.639,1.639,0,0,0-1.687-1.446c-1.145,0-1.868.964-1.868,2.47,0,1.566.723,2.47,1.868,2.47a1.6,1.6,0,0,0,1.687-1.386h1.446a2.933,2.933,0,0,1-3.193,2.651C185.925,186.17,184.6,184.725,184.6,182.435Z" transform="translate(-140.018 -178.7)" fill="#fff"/>
      <path id="Path_610" data-name="Path 610" d="M203.689,182.435c0,2.289-1.325,3.735-3.494,3.735s-3.494-1.446-3.494-3.735,1.325-3.735,3.494-3.735S203.689,180.146,203.689,182.435Zm-5.422,0c0,1.506.783,2.47,1.928,2.47,1.2,0,1.928-.964,1.928-2.47s-.783-2.47-1.928-2.47S198.266,180.929,198.266,182.435Z" transform="translate(-144.828 -178.7)" fill="#fff"/>
      <path id="Path_611" data-name="Path 611" d="M217.511,186.129h-1.325v-4.88h-.06l-1.988,4.82h-.964l-1.988-4.82h-.06v4.88H209.8V178.9h1.747l2.048,5.121h.06L215.7,178.9h1.747v7.229Z" transform="translate(-150.036 -178.78)" fill="#fff"/>
    </g>
    <g id="Group_253" data-name="Group 253" transform="translate(133.745 103.562)">
      <path id="Path_612" data-name="Path 612" d="M227.612,178.9a2.356,2.356,0,0,1,2.53,2.47,2.4,2.4,0,0,1-2.591,2.47h-1.446v2.289H224.6V178.9Zm-1.506,3.735h1.084a1.237,1.237,0,0,0,1.386-1.265c0-.843-.482-1.265-1.386-1.265h-1.084Z" transform="translate(-224.6 -178.9)" fill="#fff"/>
    </g>
    <g id="Group_254" data-name="Group 254" transform="translate(138.987 103.562)">
      <path id="Path_613" data-name="Path 613" d="M237.939,184.382h-2.53l-.542,1.747H233.3l2.53-7.229h1.747l2.53,7.229h-1.627Zm-2.229-1.145h1.868l-.9-2.952h-.06Z" transform="translate(-233.3 -178.9)" fill="#fff"/>
      <path id="Path_614" data-name="Path 614" d="M245.8,186.129V178.9h1.265l3.374,4.7h.06v-4.7h1.446v7.229H250.68l-3.374-4.7h-.06v4.7Z" transform="translate(-238.269 -178.9)" fill="#fff"/>
      <path id="Path_615" data-name="Path 615" d="M259.73,186.129v-2.711L257.2,178.9h1.627l1.627,3.073h.06l1.627-3.073h1.627l-2.53,4.518v2.711Z" transform="translate(-242.801 -178.9)" fill="#fff"/>
    </g>
  </g>
</svg>
