<svg xmlns="http://www.w3.org/2000/svg" width="57.356" height="59.999" viewBox="0 0 57.356 59.999">
  <g id="Group_4658" data-name="Group 4658" transform="translate(-638.5 -8538)">
    <path id="np_user-friendly_627103_000000" d="M37.883,23.306V19.278h-2.29a2.42,2.42,0,0,1-2.421-2.421V4.973a2.42,2.42,0,0,1,2.421-2.416H52.4a2.422,2.422,0,0,1,2.423,2.423V16.874a2.422,2.422,0,0,1-2.423,2.4H45.147L38.641,23.7a.486.486,0,0,1-.758-.4ZM45.224,8.926a1.484,1.484,0,1,0,.435-1.05,1.483,1.483,0,0,0-.435,1.05Zm-4.844,0a1.486,1.486,0,1,0,1.487-1.484A1.483,1.483,0,0,0,40.38,8.926Zm3.915,6.185c3.125,0,4.812-2.991,4.293-3.125s-1.43.714-4.293.714S40.5,11.853,40,11.986,41.17,15.1,44.295,15.1Z" transform="translate(623.18 8535.442)" fill="#376cf4"/>
    <path id="np_user-friendly_627103_000000-2" data-name="np_user-friendly_627103_000000" d="M62,74.473H47.517l2.769-15.107a62.1,62.1,0,0,1,10.34,6.758A3.8,3.8,0,0,1,62,69.066ZM41.49,66.8l-1.131,7.677h4.908L44.133,66.8l1.455-2.334-2.144-2.749L49.2,57.526V54.92a8.7,8.7,0,0,0,1.055-2.915c.417-.032.961-.632,1.549-2.7.778-2.752,0-3.231-.7-3.2,1.759-8.055-2.769-8.082-2.769-8.082a4.564,4.564,0,0,0-5.014-2.979,30.566,30.566,0,0,1-6.835-.057,2.167,2.167,0,0,0,.771,1.65c-4.046,2.465-3.117,7.9-2.757,9.485-.689,0-1.4.524-.632,3.206.588,2.08,1.139,2.663,1.549,2.7a8.7,8.7,0,0,0,1.057,2.915v2.6l5.7,4.17-2.156,2.752Zm-6.153-7.425A65.132,65.132,0,0,0,28.11,63.8a16.137,16.137,0,0,1-2.149-.892l-.153-.094a1.26,1.26,0,0,1-.58-1.074V59.492s4.982.151,7.341-2.263c0,0-3.441-.973-2.821-7.235s-.771-11.755-5.8-11.293c0,0-2.181-2.623-6.526-.973-1.492.568-5.489,2-5.286,10.673s-3.08,8.719-3.08,8.719,1.694,2.465,7.45,2.416v2.169a1.268,1.268,0,0,1-.583,1.074l-.126.077a36.91,36.91,0,0,1-5.407,1.9,18.906,18.906,0,0,0-3.409,1.265,4.11,4.11,0,0,0-2.327,3.3v5.135l33.457,0Z" transform="translate(633.851 8523.525)" fill="#252525"/>
  </g>
</svg>
