<svg xmlns="http://www.w3.org/2000/svg" width="250.605" height="49.044" viewBox="0 0 250.605 49.044">
  <g id="Group_259" data-name="Group 259" transform="translate(-281 -3596)" opacity="0.5">
    <path id="Path_829" data-name="Path 829" d="M4.6.48C9.76.48,13.24-3,13.24-8.24V-27.6H7.04V-8.92A3.18,3.18,0,0,1,3.6-5.52,5.448,5.448,0,0,1,.84-6.28V-.24A9.833,9.833,0,0,0,4.6.48ZM37.08-10.8A9.8,9.8,0,0,0,26.96-20.88a10.517,10.517,0,0,0-10.72,10.8C16.24-4.12,20.56.48,28.28.48a17.191,17.191,0,0,0,7.28-1.56V-6.24A15.354,15.354,0,0,1,28.84-4.6c-3.48,0-5.6-1.44-6.32-3.72H36.8A12.147,12.147,0,0,0,37.08-10.8ZM26.96-15.84a4.1,4.1,0,0,1,4.12,3.68h-8.6A4.692,4.692,0,0,1,26.96-15.84Zm23.24.76V-20.4H46.64v-4.44H40.8v4.44H38.12v5.32H40.8v8.64c0,4.6,2.8,6.92,6.8,6.92A9.488,9.488,0,0,0,50.2.12V-5.32A4.183,4.183,0,0,1,48.64-5a1.807,1.807,0,0,1-2-2.04v-8.04ZM74.48.48a15.6,15.6,0,0,0,7.4-1.84v-6.2A10.784,10.784,0,0,1,75.4-5.52c-5.44,0-9.08-3.56-9.08-8.28s3.64-8.28,9.08-8.28a10.784,10.784,0,0,1,6.48,2.04v-6.2a15.6,15.6,0,0,0-7.4-1.84A14.1,14.1,0,0,0,59.96-13.8,14.1,14.1,0,0,0,74.48.48ZM95.2.48c6.28,0,11-4.6,11-10.68s-4.72-10.68-11-10.68-11,4.6-11,10.68S88.92.48,95.2.48Zm0-5.68a4.879,4.879,0,0,1-5-5,4.879,4.879,0,0,1,5-5,4.879,4.879,0,0,1,5,5A4.879,4.879,0,0,1,95.2-5.2ZM119.16.48c6.28,0,11-4.6,11-10.68s-4.72-10.68-11-10.68-11,4.6-11,10.68S112.88.48,119.16.48Zm0-5.68a4.879,4.879,0,0,1-5-5,4.879,4.879,0,0,1,5-5,4.879,4.879,0,0,1,5,5A4.879,4.879,0,0,1,119.16-5.2Zm26.08-15.68a8.537,8.537,0,0,0-6.16,2.48v-2h-5.84v28h5.84V-2A8.537,8.537,0,0,0,145.24.48c5.6,0,9.84-4.6,9.84-10.68S150.84-20.88,145.24-20.88ZM144.08-5.2a4.856,4.856,0,0,1-5-5,4.856,4.856,0,0,1,5-5,4.856,4.856,0,0,1,5,5A4.856,4.856,0,0,1,144.08-5.2Zm33.76-5.6a9.8,9.8,0,0,0-10.12-10.08A10.517,10.517,0,0,0,157-10.08C157-4.12,161.32.48,169.04.48a17.191,17.191,0,0,0,7.28-1.56V-6.24A15.354,15.354,0,0,1,169.6-4.6c-3.48,0-5.6-1.44-6.32-3.72h14.28A12.148,12.148,0,0,0,177.84-10.8Zm-10.12-5.04a4.1,4.1,0,0,1,4.12,3.68h-8.6A4.692,4.692,0,0,1,167.72-15.84Zm18.96-2.6V-20.4h-5.84V0h5.84V-10.28c0-3.36,1.68-4.4,4.88-4.4v-6.04A6.057,6.057,0,0,0,186.68-18.44Z" transform="translate(340.045 3630)" fill="#fff"/>
    <path id="np_jet_134340_000000" d="M44.065,42.508S33.01,19,49.825.781C31.609,17.519,8.1,6.542,8.1,6.542L3.661,10.979c4.9,4.9,10.587,18.528,10.587,18.528l-12.3-.623L.78,35.19l8.875,5.761,5.761,8.875,6.306-1.168-.545-12.3S34.8,42.118,39.7,46.945Z" transform="translate(280.22 3595.219)" fill="#fff"/>
  </g>
</svg>
