<svg xmlns="http://www.w3.org/2000/svg" width="34.289" height="30.003" viewBox="0 0 34.289 30.003">
  <g id="Group_4690" data-name="Group 4690" transform="translate(-895 -13229)">
    <path id="np_email_5127340_000000" d="M12.143,15a2.143,2.143,0,1,0,2.143,2.143A2.143,2.143,0,0,0,12.143,15Z" transform="translate(885 13214)" fill-rule="evenodd"/>
    <path id="np_email_5127340_000000-2" data-name="np_email_5127340_000000" d="M42.849,18.833c-2.49,3.106-6.237,7.767-8.728,10.827l3.112,3.114A2.143,2.143,0,1,1,34.2,35.8L31.279,32.88a6.555,6.555,0,0,1-4.058,1.408h-.012a6.557,6.557,0,0,1-4.135-1.47L20.088,35.8a2.143,2.143,0,0,1-3.03-3.03l3.276-3.278-3.476-4.636a2.143,2.143,0,0,1,3.429-2.572l5.1,6.806a2.273,2.273,0,0,0,1.82.909h.008a2.271,2.271,0,0,0,1.746-.819L39.643,15.958A8.558,8.558,0,0,0,35.7,15H18.573a2.143,2.143,0,0,0-2.143,2.143,4.288,4.288,0,0,1-4.286,4.286A2.143,2.143,0,0,0,10,23.573V36.409A8.594,8.594,0,0,0,18.595,45H35.7a8.594,8.594,0,0,0,8.594-8.594V23.595a8.538,8.538,0,0,0-1.44-4.761Z" transform="translate(885 13214)" fill="#fff" fill-rule="evenodd"/>
  </g>
</svg>
