<svg xmlns="http://www.w3.org/2000/svg" width="34.42" height="60" viewBox="0 0 34.42 60">
  <g id="Group_4668" data-name="Group 4668" transform="translate(-1227 -8559)">
    <path id="Path_4127" data-name="Path 4127" d="M56.164,52.078c-.132.046-.263.1-.392.145-.5.164-.971.306-1.269.411-.081.027-.164.062-.242.1-.062.056-.126.116-.183.177-.234.247-.554.608-.9.984-.32.352-.669.758-1.094,1.153a4.717,4.717,0,0,1-1.906,1.177,4.549,4.549,0,0,1-2.226.032c-.516-.089-1.038-.207-1.546-.341-.027-.005-.043-.011-.073-.019V66.417a1.433,1.433,0,1,1-2.866,0V55.884l-.108.027c-.47.126-.992.269-1.548.368a4.182,4.182,0,0,1-4.108-1.212c-.4-.368-.764-.755-1.11-1.134-.36-.4-.677-.782-.884-1-.054-.059-.11-.11-.167-.161-.089-.038-.18-.075-.266-.1-.3-.1-.761-.237-1.253-.4-.126-.04-.25-.094-.376-.14v27.2a1.218,1.218,0,0,0,1.691,1.11l9.557-4.1,9.557,4.1a1.22,1.22,0,0,0,1.707-1.11Z" transform="translate(1199.3 8538.459)" fill="#252525"/>
    <path id="Path_4128" data-name="Path 4128" d="M42.22,6.254a2.816,2.816,0,0,0-1.5.433c-.427.215-.855.481-1.274.737s-.833.5-1.159.691a4.6,4.6,0,0,0-.532.3c.1-.03-.234.035-.61.051s-.844.022-1.333.035-.992.038-1.465.091a2.867,2.867,0,0,0-1.522.441,2.9,2.9,0,0,0-1.022,1.2c-.245.414-.46.863-.677,1.306s-.427.89-.6,1.229a5.955,5.955,0,0,0-.288.535c.07-.083-.177.151-.484.368s-.71.481-1.113.761-.825.575-1.2.879a2.864,2.864,0,0,0-1.25,2.764c.013.481.067.973.124,1.465s.129.976.167,1.355.008.712.022.6-.059.231-.2.586-.336.79-.527,1.245-.374.914-.522,1.374a2.891,2.891,0,0,0-.22,1.578,2.812,2.812,0,0,0,.632,1.43c.269.4.589.79.9,1.172s.621.761.855,1.059a5.2,5.2,0,0,0,.366.484c-.043-.1.059.231.129.6s.142.85.226,1.336.167.973.288,1.438a2.9,2.9,0,0,0,.659,1.444A2.813,2.813,0,0,0,30.4,36.1c.441.185.911.36,1.376.513s.914.282,1.272.406.677.282.589.223.167.142.425.417.57.653.9,1.019.675.723,1.024,1.048a2.835,2.835,0,0,0,1.317.85,2.8,2.8,0,0,0,1.562,0c.47-.083.96-.215,1.433-.341s.93-.258,1.3-.349.715-.116.608-.116.22.024.586.116.82.226,1.293.352.957.234,1.427.315a2.8,2.8,0,0,0,1.565.005,2.889,2.889,0,0,0,1.339-.852c.352-.328.68-.7,1.011-1.067s.651-.726.909-1,.53-.479.438-.419.207-.108.565-.231.825-.261,1.29-.414.925-.32,1.363-.505a2.762,2.762,0,0,0,1.984-2.3c.121-.465.207-.968.29-1.454s.167-.949.237-1.323.175-.7.132-.6.132-.2.366-.5.538-.661.85-1.046.61-.772.882-1.169a2.958,2.958,0,0,0,.664-1.454,2.9,2.9,0,0,0-.231-1.57c-.148-.457-.331-.911-.519-1.368s-.4-.9-.54-1.25-.22-.683-.207-.575.005-.229.043-.608.1-.866.156-1.358.118-.995.132-1.476A2.84,2.84,0,0,0,58,16.467a2.887,2.887,0,0,0-1.022-1.207c-.371-.3-.79-.594-1.194-.874s-.8-.54-1.1-.758-.565-.452-.495-.371-.108-.2-.28-.543-.392-.758-.608-1.2-.425-.893-.669-1.3a2.908,2.908,0,0,0-1.04-1.2,2.809,2.809,0,0,0-1.5-.444c-.473-.051-.979-.07-1.468-.083s-.957-.011-1.333-.027-.715-.089-.61-.059-.2-.1-.53-.29S45.419,7.66,45,7.4s-.852-.495-1.28-.707a2.8,2.8,0,0,0-1.5-.444Zm-.07,8.6a1.442,1.442,0,0,1,1.242.624l2.368,3.43,4.014,1.153a1.438,1.438,0,0,1,.739,2.245l-2.53,3.334.137,4.18a1.432,1.432,0,0,1-1.9,1.4l-3.949-1.374-3.925,1.427a1.431,1.431,0,0,1-1.928-1.374l.094-4.18-2.562-3.29a1.436,1.436,0,0,1,.72-2.256l4-1.218,2.35-3.463a1.437,1.437,0,0,1,1.132-.634Zm.075,3.979-1.46,2.151a1.45,1.45,0,0,1-.774.573l-2.5.75,1.6,2.051a1.447,1.447,0,0,1,.3.911l-.065,2.592,2.444-.887a1.45,1.45,0,0,1,.965,0l2.454.847L45.1,25.223a1.428,1.428,0,0,1,.285-.919l1.578-2.073-2.487-.712a1.429,1.429,0,0,1-.785-.559Z" transform="translate(1201.997 8552.746)" fill="#376cf4"/>
  </g>
</svg>
