<svg xmlns="http://www.w3.org/2000/svg" width="25" height="25" viewBox="0 0 40 40">
  <path id="np_user_1008092_000000" d="M23.5,3.5A20.02,20.02,0,1,0,37.636,9.364,19.995,19.995,0,0,0,23.5,3.5ZM12.722,37.694a18.592,18.592,0,0,1,6.171-2.834,1.377,1.377,0,0,0,1.042-1.337v-3.14a1.717,1.717,0,0,0-.336-1.02,8.465,8.465,0,0,1-1.445-3.9,1.078,1.078,0,0,0-.43-.758,3.216,3.216,0,0,1-1.381-2.628.618.618,0,0,1,.193-.455A.648.648,0,0,1,17,21.435a1.073,1.073,0,0,0,1.117-1.062l.034-3.011h0a5.253,5.253,0,0,1,.361-1.941c.736-1.811,2.6-3.763,4.96-3.763h.533v.99a1.078,1.078,0,0,0,.964,1.072,5.34,5.34,0,0,1,3.651,2.305,2.962,2.962,0,0,1,.554,1.72v2.581A1.078,1.078,0,0,0,30.252,21.4a.648.648,0,0,1,.452.188.626.626,0,0,1,.181.43A3.218,3.218,0,0,1,29.555,24.6a1.088,1.088,0,0,0-.43.749,8.391,8.391,0,0,1-1.5,4.012,1.726,1.726,0,0,0-.348,1.037v3.149A1.377,1.377,0,0,0,28.3,34.881a18.575,18.575,0,0,1,5.973,2.813,17.8,17.8,0,0,1-21.556,0Zm23.226-1.436a1.1,1.1,0,0,0-.1-.094,20.7,20.7,0,0,0-6.452-3.179v-2.4a10.484,10.484,0,0,0,1.794-4.508,5.376,5.376,0,0,0,1.836-4.031,2.766,2.766,0,0,0-.813-1.966,2.806,2.806,0,0,0-.9-.6v-1.72a5.071,5.071,0,0,0-.968-3.011,7.746,7.746,0,0,0-4.2-3.011V10.6a1.076,1.076,0,0,0-1.075-1.075H23.453c-3.35,0-5.948,2.644-6.951,5.1a7.393,7.393,0,0,0-.521,2.727l-.022,2.125a2.807,2.807,0,0,0-.938.585,2.763,2.763,0,0,0-.86,2,5.363,5.363,0,0,0,1.91,4.091,10.323,10.323,0,0,0,1.72,4.36v2.448A20.733,20.733,0,0,0,11.165,36.2a1.385,1.385,0,0,0-.1.094,17.849,17.849,0,1,1,24.891,0Z" transform="translate(-3.5 -3.5)"/>
</svg>
