<svg xmlns="http://www.w3.org/2000/svg" width="50" height="50" viewBox="0 0 54.055 64">
  <path id="np_secured_1662344_000000" d="M38.917,5a2.118,2.118,0,0,0-.822.2L13.2,17.2A2.135,2.135,0,0,0,12,19.112v9.624A43.746,43.746,0,0,0,38.161,68.811a2.141,2.141,0,0,0,1.734,0A43.742,43.742,0,0,0,66.055,28.736V19.112a2.135,2.135,0,0,0-1.2-1.911L39.961,5.2A2.15,2.15,0,0,0,38.916,5Zm.111,4.49,22.76,10.98v8.268a39.4,39.4,0,0,1-22.76,35.718,39.4,39.4,0,0,1-22.76-35.718V20.468Zm12.6,16.825a2.142,2.142,0,0,0-1.267.6l-14.869,14.2L29.16,34.782a2.134,2.134,0,1,0-3.023,3l7.824,7.824a2.135,2.135,0,0,0,2.978.044L53.3,30a2.134,2.134,0,0,0-1.667-3.69Z" transform="translate(-12 -4.994)" fill="#fff"/>
</svg>
