<svg xmlns="http://www.w3.org/2000/svg" width="646.723" height="164.812" viewBox="0 0 646.723 164.812">
  <path id="Path_2163" data-name="Path 2163" d="M63.729,3.5A64.805,64.805,0,0,1,44.457.657,55.672,55.672,0,0,1,27.594-7.884,59.111,59.111,0,0,1,14.235-21.791,67.32,67.32,0,0,1,5.256-40.953L33.069-51.9A42.464,42.464,0,0,0,43.8-32.3q7.665,7.774,20.148,7.774a32.517,32.517,0,0,0,8.87-1.2,26.272,26.272,0,0,0,7.665-3.5,17,17,0,0,0,5.366-5.8,16.246,16.246,0,0,0,1.971-8.1,19.476,19.476,0,0,0-1.533-7.884,18.435,18.435,0,0,0-5.146-6.57,45.683,45.683,0,0,0-9.417-5.913,142.242,142.242,0,0,0-14.344-5.913l-9.636-3.5A74.075,74.075,0,0,1,34.931-78.84a56.131,56.131,0,0,1-11.717-8.979,44.279,44.279,0,0,1-8.65-12.374,36.937,36.937,0,0,1-3.395-16.1,41.245,41.245,0,0,1,3.614-17.191A42.015,42.015,0,0,1,25.076-147.5a48.259,48.259,0,0,1,15.987-9.417,60.039,60.039,0,0,1,20.7-3.395,59.444,59.444,0,0,1,20.476,3.176,50.354,50.354,0,0,1,14.673,8.1,45.112,45.112,0,0,1,9.745,10.84,52.256,52.256,0,0,1,5.475,11.169L86.067-116.07A27.753,27.753,0,0,0,78.074-127.9q-5.8-5.256-15.877-5.256-9.636,0-15.987,4.49t-6.351,11.716q0,7.008,6.132,11.936t19.491,9.526L75.336-92.2a112.9,112.9,0,0,1,17.191,7.555A53.867,53.867,0,0,1,105.886-74.46a41.425,41.425,0,0,1,8.541,13.469,47.552,47.552,0,0,1,2.957,17.41q0,12.264-4.928,21.134A45.19,45.19,0,0,1,99.864-7.884,54.76,54.76,0,0,1,82.563.657,66.289,66.289,0,0,1,63.729,3.5Zm74.46-110.814h26.937v14.016h1.752A37.632,37.632,0,0,1,180.566-106a38.71,38.71,0,0,1,19.162-4.818q12.264,0,20.586,5.694A31.917,31.917,0,0,1,232.14-91.1a44.013,44.013,0,0,1,14.235-13.906q9.2-5.8,22.338-5.8a42.215,42.215,0,0,1,17.082,3.175,31.808,31.808,0,0,1,11.935,8.869,38.725,38.725,0,0,1,7.117,13.688,60.1,60.1,0,0,1,2.409,17.411V0H278.568V-62.415q0-21.9-17.958-21.9A19.846,19.846,0,0,0,250.536-81.8a22.457,22.457,0,0,0-7.337,6.789,33.494,33.494,0,0,0-4.6,10.184,47.29,47.29,0,0,0-1.643,12.7V0H208.269V-62.415q0-21.9-18.834-21.9A18.241,18.241,0,0,0,179.8-81.8a22.177,22.177,0,0,0-7.008,6.789,33.271,33.271,0,0,0-4.38,10.184,50.474,50.474,0,0,0-1.533,12.7V0H138.189ZM346.9-122.859a18.222,18.222,0,0,1-7.117-1.424,18.249,18.249,0,0,1-5.913-3.942,18.581,18.581,0,0,1-3.942-5.8,17.984,17.984,0,0,1-1.423-7.227,17.984,17.984,0,0,1,1.423-7.227,18.581,18.581,0,0,1,3.942-5.8,18.249,18.249,0,0,1,5.913-3.942,18.222,18.222,0,0,1,7.117-1.423,18.1,18.1,0,0,1,13.14,5.365,17.563,17.563,0,0,1,5.475,13.031,17.563,17.563,0,0,1-5.475,13.03A18.1,18.1,0,0,1,346.9-122.859ZM332.661,0V-107.31H361.35V0ZM387.63,0V-156.8h28.689V0ZM541.368-25.842A60.122,60.122,0,0,1,521.33-4.6q-12.593,8.1-30.77,8.1A59.113,59.113,0,0,1,467.893-.766,54.543,54.543,0,0,1,449.826-12.7a54.543,54.543,0,0,1-11.936-18.067,59.7,59.7,0,0,1-4.271-22.886,58.708,58.708,0,0,1,4.161-22.009,56.114,56.114,0,0,1,11.607-18.177,56.116,56.116,0,0,1,17.63-12.374,53.91,53.91,0,0,1,22.447-4.6,58.448,58.448,0,0,1,23,4.271,46.91,46.91,0,0,1,16.863,11.826,50.889,50.889,0,0,1,10.293,17.848,68.9,68.9,0,0,1,3.5,22.338V-51.9a14.745,14.745,0,0,0-.219,2.409,12.306,12.306,0,0,0-.219,2.409H461.871a30.179,30.179,0,0,0,3.613,11.278,27.36,27.36,0,0,0,6.789,7.884,26.393,26.393,0,0,0,8.87,4.6A34.6,34.6,0,0,0,491-21.9q9.855,0,16.315-4.49A32.761,32.761,0,0,0,517.5-37.668Zm-26.061-41.61a18.576,18.576,0,0,0-1.862-6.351,22.358,22.358,0,0,0-4.818-6.57,25.219,25.219,0,0,0-7.884-5.037,29.138,29.138,0,0,0-11.279-1.971,26.277,26.277,0,0,0-16.206,5.256A27.748,27.748,0,0,0,463.4-67.452ZM605.1,3.5A61.385,61.385,0,0,1,586.372.876a51.643,51.643,0,0,1-14.235-6.9,45.121,45.121,0,0,1-10.184-9.855A47.466,47.466,0,0,1,555.6-27.156l25.623-10.95q3.723,8.322,9.964,12.373A25,25,0,0,0,605.1-21.681q7.884,0,12.483-2.847t4.6-6.789a8.383,8.383,0,0,0-3.832-7.118q-3.832-2.737-13.25-4.927l-15.111-3.285a52.912,52.912,0,0,1-10.4-3.5,40.7,40.7,0,0,1-9.745-6.132,31.085,31.085,0,0,1-7.227-8.979,25.359,25.359,0,0,1-2.847-12.264,28.454,28.454,0,0,1,3.395-14.016,31.629,31.629,0,0,1,9.307-10.4,44.568,44.568,0,0,1,13.906-6.57,61.939,61.939,0,0,1,17.191-2.3,60.387,60.387,0,0,1,27.375,6.022,37.081,37.081,0,0,1,17.739,19.163L623.931-75.555a18.974,18.974,0,0,0-8.979-9.2A27.054,27.054,0,0,0,603.126-87.6a21.993,21.993,0,0,0-10.731,2.518q-4.6,2.519-4.6,6.461,0,3.723,3.833,5.913a44.5,44.5,0,0,0,10.4,3.942l16.425,3.942q16.425,3.942,24.419,12.592a29.164,29.164,0,0,1,7.993,20.476A28.691,28.691,0,0,1,647.583-18.4a35.794,35.794,0,0,1-9.307,11.279A45.613,45.613,0,0,1,623.821.657,58.267,58.267,0,0,1,605.1,3.5Z" transform="translate(-4.645 160.808)" fill="none" stroke="#a1a1a1" stroke-width="1" opacity="0.5"/>
</svg>
