<svg xmlns="http://www.w3.org/2000/svg" width="150.8" height="184.961" viewBox="0 0 150.8 184.961">
  <path id="Union_11" data-name="Union 11" d="M129.069,184.961v-5.412l14.555-16.81H129.069l1.64-5.453H150.8v5.453l-14.551,16.81H150.8v5.412Zm-25.621,0v-5.412L118,162.739H103.448l1.637-5.453h20.09v5.453l-14.555,16.81h14.558v5.412Zm-16.239,0V165.445l2.705-2.706H79.255v-5.453h21.32v5.453H92.621v22.222Zm-16.031,0V157.286H76.59v27.675Zm-12.136,0a7.4,7.4,0,0,1-7.38-7.375v-20.3h5.412V177.5a2.083,2.083,0,0,0,2.05,2.05h8.365l1.64,5.412Zm-33.624,0V157.286h15.17a7.4,7.4,0,0,1,7.38,7.257v4.838a7.4,7.4,0,0,1-7.38,7.257H32.962l1.641-5.453h5.863a2.03,2.03,0,0,0,2.05-2.049v-4.346a2.031,2.031,0,0,0-2.05-2.05H30.83v22.222ZM0,184.961l1.64-5.415H15.048A2.056,2.056,0,0,0,17.1,177.5v-1.6a2.031,2.031,0,0,0-2.05-2.05H7.38A7.4,7.4,0,0,1,0,166.466v-1.8a7.4,7.4,0,0,1,7.38-7.38H20.5l-1.641,5.453H7.46a2.056,2.056,0,0,0-2.05,2.05v1.558a2.057,2.057,0,0,0,2.05,2.05h7.708a7.4,7.4,0,0,1,7.38,7.38v1.8a7.4,7.4,0,0,1-7.376,7.38Zm47.966-20.295v0Zm27.76-29.786V107.066h31.279A8.088,8.088,0,0,0,115.07,99V81.346H82.584V53.533h60.3v57.908a23.481,23.481,0,0,1-23.439,23.439Zm-44.289,0A23.48,23.48,0,0,1,8,111.44V88.776H35.816V99a8.087,8.087,0,0,0,8.061,8.062H68.3v27.814ZM8,81.346V23.438A23.481,23.481,0,0,1,31.442,0H75.153V27.813H43.877a8.088,8.088,0,0,0-8.061,8.062V53.533H75.155V81.346ZM115.067,46.1V35.875a8.089,8.089,0,0,0-8.061-8.062H82.583V0h36.859A23.482,23.482,0,0,1,142.88,23.439V46.1Z" fill="#fff"/>
</svg>
