<svg xmlns="http://www.w3.org/2000/svg" width="58.952" height="59.999" viewBox="0 0 58.952 59.999">
  <g id="Group_4676" data-name="Group 4676" transform="translate(-866 -8544)">
    <path id="Path_4120" data-name="Path 4120" d="M25.945,40.211h7.369q.284.758.6,1.484a1.051,1.051,0,0,0,.968.621h1.695a5.263,5.263,0,0,0,10.316,0h1.663a1.051,1.051,0,0,0,.968-.621q.316-.726.6-1.484H57.5a1.051,1.051,0,0,0,1.053-.821c0-.105,2.105-10.1-6.579-15.717-1.516-10.011-9.148-17.559-9.474-17.9a1.055,1.055,0,0,0-1.474,0c-.358.347-7.99,7.9-9.474,17.9-8.759,5.621-6.653,15.612-6.653,15.717a1.052,1.052,0,0,0,1.053.821ZM52.263,27.052v-.579c2.105,5.316.274,9.548,0,11.633H50.8a40.633,40.633,0,0,0,1.463-11.053ZM47,31.789a3.157,3.157,0,0,1-3.158,3.158H39.63a3.157,3.157,0,0,1-3.158-3.158V27.578A3.157,3.157,0,0,1,39.63,24.42h4.211A3.157,3.157,0,0,1,47,27.578ZM31.208,26.473v.579a40.632,40.632,0,0,0,1.463,11.053H31.208c-.242-2.095-2.105-4.211,0-11.633Z" transform="translate(853.74 8538.523)" fill="#376cf4"/>
    <g id="Group_4662" data-name="Group 4662" transform="translate(866 8582.945)">
      <path id="Path_4121" data-name="Path 4121" d="M8.513,88.281,6.25,92.492H65.2l-2.263-4.211Z" transform="translate(-6.25 -71.438)" fill="#252525"/>
      <path id="Path_4122" data-name="Path 4122" d="M52.727,63.281H42.379a7.369,7.369,0,0,1-13.306,0H18.725L6.25,78.019H65.2ZM32.567,70.65a1.053,1.053,0,0,1-2.105,0V67.492a1.053,1.053,0,0,1,2.105,0Zm4.211,3.158a1.053,1.053,0,0,1-2.105,0V69.6a1.053,1.053,0,0,1,2.105,0Zm4.211-3.158a1.053,1.053,0,0,1-2.105,0V67.492a1.053,1.053,0,0,1,2.105,0Z" transform="translate(-6.25 -63.281)" fill="#252525"/>
    </g>
  </g>
</svg>
