<svg xmlns="http://www.w3.org/2000/svg" width="50" height="50" viewBox="0 0 46.934 64">
  <path id="np_support_4637529_000000" d="M39.092,41.526A23.49,23.49,0,0,0,15.625,64.993a2.13,2.13,0,0,0,2.133,2.133H60.425a2.13,2.13,0,0,0,2.133-2.133A23.49,23.49,0,0,0,39.092,41.526ZM20.012,62.859a19.2,19.2,0,0,1,38.161,0Zm31.88-38.4a12.81,12.81,0,1,0-3.752,9.048,12.8,12.8,0,0,0,3.752-9.048Zm-21.334,0a8.533,8.533,0,1,1,8.533,8.533,8.534,8.534,0,0,1-8.533-8.533Zm32-2.133v4.267a4.252,4.252,0,0,1-2.3,3.763,10.655,10.655,0,0,1-10.5,9.037,2.133,2.133,0,1,1,0-4.267,6.4,6.4,0,0,0,6.221-4.957,4.266,4.266,0,0,1-1.955-3.576V22.325a4.241,4.241,0,0,1,1.317-3.069,17.061,17.061,0,0,0-32.5,0,4.24,4.24,0,0,1,1.317,3.069v4.267a4.267,4.267,0,0,1-8.533,0V22.325a4.259,4.259,0,0,1,3.061-4.072,21.325,21.325,0,0,1,40.811,0,4.259,4.259,0,0,1,3.061,4.072Z" transform="translate(-15.625 -3.126)" fill="#fff"/>
</svg>
