<svg xmlns="http://www.w3.org/2000/svg" width="28.279" height="30.004" viewBox="0 0 28.279 30.004">
  <g id="Group_4691" data-name="Group 4691" transform="translate(-1005 -13319)">
    <path id="Path_4143" data-name="Path 4143" d="M31.461,49.038c.161.015.318.015.5.015s.341,0,.5-.015a4.908,4.908,0,0,0,4.418-4.9,4.41,4.41,0,0,0-.053-.675,4.8,4.8,0,0,0-.957-2.306.459.459,0,0,0-.277-.168l-5.907-1.072a.391.391,0,0,0-.072,0c-.012,0-.019-.007-.029-.007s-.015,0-.022,0a.254.254,0,0,0-.048.012.451.451,0,0,0-.353.277L27.9,42.151a1.225,1.225,0,0,1-1.5.464,14.4,14.4,0,0,1-7.648-7.648,1.226,1.226,0,0,1,.469-1.5l2.014-1.3.012-.012a.445.445,0,0,0,.192-.311s0-.007,0-.012a.254.254,0,0,0,.012-.048.575.575,0,0,0-.015-.064V31.7l-1.077-5.945a.469.469,0,0,0-.176-.286,4.776,4.776,0,0,0-2.265-.93,4.215,4.215,0,0,0-.69-.056,4.9,4.9,0,0,0-4.9,4.418c-.015.161-.015.319-.015.5a4.37,4.37,0,0,0,.015.461,19.556,19.556,0,0,0,19.135,19.18Z" transform="translate(992.689 13299.951)" fill="#fff"/>
    <path id="Path_4144" data-name="Path 4144" d="M53.678,10a7.858,7.858,0,0,0-5.816,13.141L46.4,25.673h6.5a7.67,7.67,0,0,0,.779.041,7.857,7.857,0,0,0,0-15.714Zm-3.455,9.193a1.337,1.337,0,1,1,1.339-1.335,1.338,1.338,0,0,1-1.339,1.335Zm3.455,0a1.337,1.337,0,1,1,1.335-1.335,1.336,1.336,0,0,1-1.335,1.335Zm3.455,0a1.337,1.337,0,1,1,1.335-1.335,1.34,1.34,0,0,1-1.335,1.335Z" transform="translate(971.747 13309)"/>
  </g>
</svg>
