<svg xmlns="http://www.w3.org/2000/svg" width="15" height="15" viewBox="0 0 29.969 29.969">
  <path id="Icon_awesome-check-circle" data-name="Icon awesome-check-circle" d="M30.531,15.547A14.984,14.984,0,1,1,15.547.563,14.984,14.984,0,0,1,30.531,15.547ZM13.814,23.481,24.931,12.364a.967.967,0,0,0,0-1.367L23.564,9.629a.967.967,0,0,0-1.367,0L13.13,18.7,8.9,14.463a.967.967,0,0,0-1.367,0L6.163,15.83a.967.967,0,0,0,0,1.367l6.284,6.284A.967.967,0,0,0,13.814,23.481Z" transform="translate(-0.563 -0.563)" fill="#fff"/>
</svg>
