<?xml version="1.0" encoding="UTF-8"?>
<svg width="100pt" height="100pt" version="1.1" viewBox="0 0 100 100" xmlns="http://www.w3.org/2000/svg">
 <path d="m50 22.41c-4.9961 0-9.7891 1.9844-13.32 5.5195-3.5352 3.5312-5.5195 8.3242-5.5195 13.32s1.9844 9.7891 5.5195 13.32c3.5312 3.5352 8.3242 5.5195 13.32 5.5195s9.7891-1.9844 13.32-5.5195c3.5352-3.5312 5.5195-8.3242 5.5195-13.32-0.007813-4.9961-1.9961-9.7812-5.5273-13.312s-8.3164-5.5195-13.312-5.5273zm0 31.68c-5.1914 0-9.875-3.1289-11.863-7.9258-1.9883-4.7969-0.88672-10.32 2.7852-13.992s9.1953-4.7734 13.992-2.7852c4.7969 1.9883 7.9258 6.6719 7.9258 11.863-0.011719 7.0859-5.7539 12.828-12.84 12.84zm0-48.891c-11.5-0.023438-22.57 4.3828-30.914 12.301-8.3398 7.918-13.312 18.746-13.891 30.234-0.57422 11.484 3.2969 22.754 10.805 31.465 0.125 0.17969 0.26953 0.34375 0.42969 0.49219 8.4883 9.6289 20.703 15.145 33.539 15.145s25.055-5.5156 33.543-15.145c0.125-0.12891 0.24219-0.26562 0.34766-0.41016 7.5352-8.6992 11.43-19.961 10.879-31.453s-5.5078-22.332-13.836-30.27c-8.332-7.9375-19.398-12.363-30.902-12.359zm0 83.621c-9.9102 0.003907-19.441-3.7969-26.629-10.621 17.879-9.3398 35.371-9.3398 53.262 0h-0.003906c-7.1875 6.8203-16.719 10.621-26.629 10.621zm30.77-15.211c-20.43-11.141-41.121-11.141-61.551 0-5.9219-7.6992-8.7383-17.344-7.8984-27.02 0.83984-9.6797 5.2773-18.688 12.438-25.254 7.1602-6.5664 16.523-10.207 26.238-10.207s19.074 3.6406 26.234 10.207c7.1602 6.5664 11.598 15.574 12.438 25.254 0.84375 9.6758-1.9766 19.32-7.8984 27.02z"/>
</svg>
