<?xml version="1.0" encoding="UTF-8"?>
<svg width="100pt" height="100pt" version="1.1" viewBox="0 0 100 100" xmlns="http://www.w3.org/2000/svg">
 <g fill-rule="evenodd">
  <path d="m71.809 58.457 17.508 8.6055c2.0781 0.89062 2.9688 2.6719 2.9688 5.043v10.684c0 0.59375 0 1.1875-0.59375 1.4844-20.18 20.773-63.203 20.773-83.383 0-0.29688-0.29688-0.59375-0.89063-0.59375-1.4844v-10.684c0-2.375 1.1875-4.1562 2.9688-5.043l17.508-8.6055c1.1875-0.59375 2.6719-0.29688 3.2656 1.1875l13.945 29.672 2.9688-25.223c0.29688-1.7812-3.5625-4.4492-5.043-5.6367-0.59375-0.59375-0.29688-1.4844 0.59375-1.4844h2.0781 0.59375c2.375 0.59375 4.7461 0.59375 7.1211 0h0.59375 1.7812c0.89062 0 1.1875 0.89062 0.59375 1.4844-1.4844 1.1875-5.043 3.8594-5.043 5.6367l2.9688 25.223 13.945-29.672c0.59375-1.4844 2.0781-1.7812 3.2656-1.1875z"/>
  <path d="m73.59 27.301c0 15.074-10.496 27.297-23.441 27.297-12.945 0-23.441-12.223-23.441-27.297 0-15.078 10.496-27.301 23.441-27.301 12.945 0 23.441 12.223 23.441 27.301"/>
 </g>
</svg>
