<svg xmlns="http://www.w3.org/2000/svg" width="797.473" height="163.006" viewBox="0 0 797.473 163.006"><path d="M1340.006,599.454a4.115,4.115,0,1,0,2.275,5.358A4.121,4.121,0,0,0,1340.006,599.454Z" transform="translate(-1200.823 -490.722)"/><path d="M1510.057,655.647a4.114,4.114,0,0,0-2.092,7.957,3.986,3.986,0,0,0,1.048.139,4.115,4.115,0,0,0,1.044-8.1Z" transform="translate(-1297.496 -522.666)"/><path d="M1452.593,639.307a4.114,4.114,0,1,0-2.413,7.866,4,4,0,0,0,1.2.182,4.115,4.115,0,0,0,1.208-8.048Z" transform="translate(-1264.83 -513.378)"/><path d="M1395.867,620.6a4.116,4.116,0,1,0,2.508,5.25A4.117,4.117,0,0,0,1395.867,620.6Z" transform="translate(-1232.583 -502.741)"/><path d="M1285.162,575.834a4.116,4.116,0,1,0,2.027,5.458A4.111,4.111,0,0,0,1285.162,575.834Z" transform="translate(-1169.637 -477.29)"/><path d="M1079.6,455.207a4.111,4.111,0,1,0,.845,5.757A4.109,4.109,0,0,0,1079.6,455.207Z" transform="translate(-1052.698 -408.663)"/><path d="M1128.478,489.241h0a4.083,4.083,0,0,0-5.7,1.212,4.114,4.114,0,1,0,5.7-1.212Z" transform="translate(-1080.51 -428.028)"/><path d="M1231.488,549.669a4.116,4.116,0,1,0,1.762,5.544A4.109,4.109,0,0,0,1231.488,549.669Z" transform="translate(-1139.112 -462.408)"/><path d="M1179.19,520.891a4.117,4.117,0,1,0,1.477,5.631A4.114,4.114,0,0,0,1179.19,520.891Z" transform="translate(-1109.364 -446.041)"/><path d="M1924.019,706.641a4.008,4.008,0,1,0,.026,8.014h.022a4.009,4.009,0,1,0-.048-8.014Z" transform="translate(-1532.753 -551.649)"/><path d="M1864.264,706.013a4.115,4.115,0,0,0-.247,8.226,1.249,1.249,0,0,0,.126,0,4.116,4.116,0,0,0,.121-8.23Z" transform="translate(-1498.797 -551.292)"/><path d="M1983.757,705.341a4.115,4.115,0,0,0,.169,8.226c.056,0,.117,0,.173,0a4.114,4.114,0,1,0-.342-8.221Z" transform="translate(-1566.696 -550.91)"/><path d="M2043.4,701.143h0a4.4,4.4,0,0,0-3.777,4.559,4.151,4.151,0,0,0,4.1,3.832c.108,0,.221.029.329.02a4.185,4.185,0,0,0,3.777-4.506A4.348,4.348,0,0,0,2043.4,701.143Z" transform="translate(-1600.592 -548.533)"/><path d="M1804.577,703.134a4.113,4.113,0,1,0-.545,8.208c.091.009.186.013.277.013a4.115,4.115,0,0,0,.268-8.221Z" transform="translate(-1464.879 -549.656)"/><path d="M1568.136,669.65a4.116,4.116,0,0,0-1.772,8.039,4.19,4.19,0,0,0,.888.1,4.116,4.116,0,0,0,.884-8.135Z" transform="translate(-1330.509 -530.627)"/><path d="M1626.721,681.37a4.115,4.115,0,0,0-1.46,8.1,4.269,4.269,0,0,0,.736.065,4.115,4.115,0,0,0,.724-8.165Z" transform="translate(-1363.805 -537.287)"/><path d="M1685.719,690.833a4.117,4.117,0,0,0-1.152,8.152,4.4,4.4,0,0,0,.58.039,4.116,4.116,0,0,0,.572-8.191Z" transform="translate(-1397.333 -542.665)"/><path d="M1745.03,698.077a4.115,4.115,0,1,0-.845,8.187,3.566,3.566,0,0,0,.428.022,4.115,4.115,0,0,0,.416-8.208Z" transform="translate(-1431.04 -546.782)"/><path d="M1030.2,417.166a4.118,4.118,0,1,0,2.911,1.209A4.148,4.148,0,0,0,1030.2,417.166Z" transform="translate(-1026.09 -387.563)"/><path d="M2432.346,349.67a3.032,3.032,0,0,0-3.174-.648l-51.3,19.422a3.032,3.032,0,1,0,2.147,5.671l39.294-14.878c-71.3,74.657-185.472,125.9-314.9,141.026a3.032,3.032,0,1,0,.7,6.023c130.342-15.237,245.49-66.822,317.809-142.044l-12.883,38.7a3.032,3.032,0,1,0,5.754,1.915l17.325-52.042A3.027,3.027,0,0,0,2432.346,349.67Z" transform="translate(-1635.806 -348.825)"/></svg>