<?xml version="1.0" encoding="utf-8"?>
<!-- Generator: Adobe Illustrator 23.0.5, SVG Export Plug-In . SVG Version: 6.00 Build 0)  -->
<svg version="1.1" id="Layer_1" xmlns="http://www.w3.org/2000/svg" xmlns:xlink="http://www.w3.org/1999/xlink" x="0px" y="0px"
	 viewBox="0 0 30.1 30.2" style="enable-background:new 0 0 30.1 30.2;" xml:space="preserve">
<style type="text/css">
	.st0{fill:#FF9630;}
</style>
<path class="st0" d="M15.1,30.2c-4,0-7.8-1.6-10.6-4.4l-0.3-0.4V26l0.1,2.3c0,0.7-0.5,1.4-1.3,1.4H2.8c-0.7,0-1.3-0.6-1.3-1.3
	l-0.3-6.2c0-0.7,0.5-1.4,1.3-1.4h0l6.2-0.3h0.1c0.7,0,1.3,0.6,1.3,1.3c0,0.7-0.6,1.3-1.3,1.3L6,23.4l0.4,0.3c0,0,0.1,0,0.1,0.1
	c4.7,4.7,12.4,4.7,17.2,0c2.1-2.1,3.3-4.8,3.5-7.7c0.1-0.8,0.7-1.4,1.5-1.4c0,0,0.1,0,0.1,0c0.8,0.1,1.4,0.8,1.4,1.6
	C29.6,24.1,23,30.3,15.1,30.2L15.1,30.2z M3.9,23.5l0,0.8l0.3-0.4c0,0,0-0.1,0.1-0.1l0.3-0.4L3.9,23.5z"/>
<path class="st0" d="M1.4,16.3c-0.8,0-1.4-0.7-1.4-1.5c0,0,0,0,0,0C0.2,6.5,7.1-0.1,15.4,0.1C19,0.2,22.5,1.6,25.2,4l0.4,0.4
	l-0.3-2.9c-0.1-0.7,0.5-1.4,1.2-1.5c0,0,0.1,0,0.1,0c0.7,0,1.3,0.5,1.3,1.2l0.6,6.1c0.1,0.7-0.5,1.4-1.2,1.5l-6.1,0.6
	c0,0-0.1,0-0.1,0c-0.7,0-1.3-0.6-1.3-1.3c0-0.7,0.5-1.3,1.2-1.3l2.6-0.3l-0.3-0.3c-5-4.5-12.7-4.1-17.1,0.9C4.1,9.2,3,12,2.9,14.9
	C2.9,15.7,2.3,16.3,1.4,16.3L1.4,16.3z"/>
<path class="st0" d="M8.7,16.8c-0.7,0-1.3-0.4-1.6-1.1C7,15.6,7,15.5,7,15.4c0-0.1,0-0.2,0-0.3c0-0.1,0-0.2,0-0.3
	c0-0.1,0.1-0.2,0.1-0.3c0-0.1,0.1-0.2,0.2-0.3c0.1-0.1,0.1-0.2,0.2-0.3c0.1-0.1,0.2-0.2,0.3-0.2c0.1-0.1,0.2-0.1,0.3-0.2
	c0.1,0,0.2-0.1,0.3-0.1c0.1,0,0.2,0,0.3,0c0.2,0,0.4,0,0.7,0.1c0.1,0,0.2,0.1,0.3,0.2c0.1,0.1,0.2,0.1,0.3,0.2
	c0.1,0.1,0.2,0.2,0.2,0.3c0.1,0.1,0.1,0.2,0.2,0.3c0,0.1,0.1,0.2,0.1,0.3c0,0.1,0,0.2,0,0.3c0,0.1,0,0.2,0,0.3
	c0,0.1-0.1,0.2-0.1,0.3c0,0.1-0.1,0.2-0.2,0.3c-0.1,0.1-0.1,0.2-0.2,0.3c-0.1,0.1-0.2,0.2-0.3,0.2c-0.1,0.1-0.2,0.1-0.3,0.2
	c-0.1,0-0.2,0.1-0.3,0.1C8.9,16.8,8.8,16.8,8.7,16.8z"/>
<path class="st0" d="M15.1,16.8c-1,0-1.7-0.8-1.7-1.7c0-1,0.8-1.7,1.7-1.7c1,0,1.7,0.8,1.7,1.7l0,0C16.8,16,16,16.8,15.1,16.8z"/>
<path class="st0" d="M21.5,16.8c-0.1,0-0.2,0-0.3,0c-0.1,0-0.2-0.1-0.3-0.1c-0.1,0-0.2-0.1-0.3-0.2c-0.1-0.1-0.2-0.1-0.3-0.2
	c-0.1-0.1-0.2-0.2-0.2-0.3c-0.1-0.1-0.1-0.2-0.2-0.3c0-0.1-0.1-0.2-0.1-0.3c0-0.1,0-0.2,0-0.3c0-0.5,0.2-0.9,0.5-1.2
	c0.1-0.1,0.2-0.2,0.3-0.2c0.1-0.1,0.2-0.1,0.3-0.2c0.1,0,0.2-0.1,0.3-0.1c0.2,0,0.5,0,0.7,0c0.1,0,0.2,0.1,0.3,0.1
	c0.1,0,0.2,0.1,0.3,0.2c0.1,0.1,0.2,0.1,0.3,0.2c0.3,0.3,0.5,0.8,0.5,1.2c0,0.1,0,0.2,0,0.3c-0.1,0.3-0.2,0.6-0.5,0.9
	c-0.1,0.1-0.2,0.2-0.3,0.2c-0.1,0.1-0.2,0.1-0.3,0.2C21.9,16.7,21.7,16.8,21.5,16.8L21.5,16.8z"/>
</svg>
