<?xml version="1.0" encoding="utf-8"?>
<!-- Generator: Adobe Illustrator 23.0.5, SVG Export Plug-In . SVG Version: 6.00 Build 0)  -->
<svg version="1.1" id="Layer_1" xmlns="http://www.w3.org/2000/svg" xmlns:xlink="http://www.w3.org/1999/xlink" x="0px" y="0px"
	 viewBox="0 0 31.4 30.7" style="enable-background:new 0 0 31.4 30.7;" xml:space="preserve">
<style type="text/css">
	.st0{fill:#FF9630;}
</style>
<g transform="translate(0)">
	<path class="st0" d="M20.8,4.1c-0.6,0-1-0.5-1-1c0-0.1,0-0.3,0.1-0.4l0.8-2.1c0.2-0.5,0.8-0.8,1.3-0.5c0.5,0.2,0.8,0.8,0.6,1.3
		l-0.8,2.1C21.6,3.9,21.2,4.1,20.8,4.1z"/>
	<path class="st0" d="M10.6,4.3c-0.4,0-0.8-0.2-0.9-0.6L8.8,1.6C8.6,1,8.8,0.4,9.3,0.2c0.5-0.2,1.1,0,1.3,0.5l0.9,2.1
		c0.2,0.5,0,1.1-0.5,1.3C10.9,4.2,10.7,4.3,10.6,4.3L10.6,4.3z"/>
	<path class="st0" d="M27.9,11.4c-0.6,0-1-0.5-1-1c0-0.4,0.2-0.8,0.6-0.9l2.1-0.9c0.5-0.2,1.1,0,1.3,0.5c0.2,0.5,0,1.1-0.5,1.3
		l-2.1,0.9C28.2,11.4,28.1,11.4,27.9,11.4z"/>
	<path class="st0" d="M8.4,27.2C6,27.2,4,25.3,4,22.9c0-1.1,0.5-2.2,1.3-3.1L6,19.2c0.2-0.2,0.3-0.5,0.2-0.7
		C5.1,15,6.1,11.2,8.7,8.6c3.9-3.9,10.1-3.9,14,0c3.9,3.9,3.9,10.3,0,14.2c-1.9,1.9-4.4,2.9-7.1,2.9c-1,0-1.9-0.2-2.8-0.4l-0.1,0
		c-0.1,0-0.1,0-0.2,0c-0.2,0-0.4,0.1-0.5,0.2L11.4,26C10.6,26.8,9.5,27.2,8.4,27.2z M15.7,7.9c-2,0-4,0.8-5.4,2.2
		c-2,2-2.8,5-1.9,7.7c0.3,1,0,2.2-0.8,3l-0.6,0.6c-0.8,0.8-0.8,2.1,0,2.9s2.1,0.8,2.9,0l0,0l0.6-0.6c0.6-0.6,1.3-0.9,2.1-0.9
		c0.3,0,0.6,0,0.9,0.1c0.7,0.2,1.4,0.3,2.2,0.3c4.3,0,7.7-3.4,7.8-7.6c0-2.1-0.8-4.1-2.3-5.5C19.7,8.7,17.7,7.9,15.7,7.9L15.7,7.9z"
		/>
	<path class="st0" d="M30.3,22.5c-0.1,0-0.3,0-0.4-0.1l-2.1-0.8c-0.5-0.2-0.8-0.8-0.6-1.3c0.2-0.5,0.8-0.8,1.3-0.6c0,0,0,0,0.1,0
		l2.1,0.8c0.5,0.2,0.8,0.8,0.6,1.3C31.1,22.3,30.7,22.5,30.3,22.5L30.3,22.5z"/>
	<path class="st0" d="M3.2,11.6c-0.1,0-0.3,0-0.4-0.1l-2.1-0.8c-0.6-0.2-0.9-0.9-0.6-1.5C0.3,8.7,1,8.4,1.5,8.6l0,0l2.1,0.8
		c0.6,0.2,0.9,0.9,0.6,1.5C4.1,11.4,3.7,11.6,3.2,11.6L3.2,11.6z"/>
	<path class="st0" d="M13.3,18.8c-0.6,0-1.4-0.4-1.4-0.9v-3.6c0-0.6,0.5-1,1-1c0.6,0,1,0.5,1,1v2.5H17c0.6,0,1,0.5,1,1
		c0,0.6-0.5,1-1,1l0,0L13.3,18.8z"/>
	<path class="st0" d="M21.8,30.7c-0.4,0-0.8-0.2-0.9-0.6L20,28c-0.2-0.5,0-1.1,0.5-1.3c0.5-0.2,1.1,0,1.3,0.5l0.9,2.1
		c0.2,0.5,0,1.1-0.5,1.3C22.1,30.7,22,30.7,21.8,30.7z"/>
</g>
</svg>
