<svg xmlns="http://www.w3.org/2000/svg" xmlns:xlink="http://www.w3.org/1999/xlink" width="440.495" height="406.067" viewBox="0 0 440.495 406.067"><defs><style>.a{fill:url(#a);}.b{fill:url(#b);}.c{fill:#ffc893;}</style><radialGradient id="a" cx="0.5" cy="0.5" fx="0.9970489007234573" fy="0.5000079870223999" r="0.502" gradientTransform="matrix(0.243, -0.995, 0.966, 0.039, 28.689, 25.416)" gradientUnits="objectBoundingBox"><stop offset="0.08"/><stop offset="0.187" stop-color="#373737"/><stop offset="0.303" stop-color="#6c6c6c"/><stop offset="0.421" stop-color="#999"/><stop offset="0.538" stop-color="#bebebe"/><stop offset="0.655" stop-color="#dadada"/><stop offset="0.771" stop-color="#efefef"/><stop offset="0.887" stop-color="#fbfbfb"/><stop offset="1" stop-color="#fff"/></radialGradient><radialGradient id="b" cx="0.5" cy="0.5" fx="0.28176987171173096" fy="0.5085178017616272" r="1.158" gradientTransform="matrix(-0.432, 0.073, 0.014, 0.426, 23.792, 0.796)" xlink:href="#a"/></defs><path class="a" d="M658.946,259.842c-31.82-3.143-64.1,60.024-72.11,141.085s11.3,149.322,43.12,152.465,64.1-60.024,72.11-141.085S690.766,262.984,658.946,259.842Z" transform="translate(-384.27 -259.73)"/><path class="b" d="M121.633,811.449c-2.566-34.887,61.636-68.043,143.4-74.055s150.124,17.394,152.69,52.281-61.636,68.043-143.4,74.055S124.2,846.336,121.633,811.449Z" transform="translate(-121.558 -529.954)"/><path class="c" d="M426.79,518.79,244.145,582.914l387.4,123.692L474.612,331.724Z" transform="translate(-191.045 -300.539)"/></svg>