<?xml version="1.0" encoding="utf-8"?>
<!-- Generator: Adobe Illustrator 23.0.5, SVG Export Plug-In . SVG Version: 6.00 Build 0)  -->
<svg version="1.1" id="Layer_1" xmlns="http://www.w3.org/2000/svg" xmlns:xlink="http://www.w3.org/1999/xlink" x="0px" y="0px"
	 viewBox="0 0 30 30.9" style="enable-background:new 0 0 30 30.9;" xml:space="preserve">
<style type="text/css">
	.st0{fill:#FF9630;}
</style>
<path class="st0" d="M17.6,24.9c-6.9,0-12.5-5.6-12.5-12.5C5.1,5.6,10.7,0,17.6,0C24.5,0,30,5.6,30,12.5
	C30,19.3,24.5,24.9,17.6,24.9z M17.6,2.6c-5.4,0-9.8,4.4-9.8,9.8s4.4,9.8,9.8,9.8s9.8-4.4,9.8-9.8l0,0C27.4,7,23,2.6,17.6,2.6
	L17.6,2.6z"/>
<path class="st0" d="M1.5,30.9c-0.8,0-1.5-0.7-1.5-1.5c0-0.4,0.2-0.8,0.5-1.1l4.9-4.9c0.6-0.6,1.6-0.6,2.2,0s0.6,1.6,0,2.2l-4.9,4.9
	C2.3,30.7,1.9,30.9,1.5,30.9z"/>
<path class="st0" d="M17.3,15.9c-0.3,0-0.6-0.1-0.8-0.3l-3.2-3.2c-0.5-0.5-0.5-1.2,0-1.7c0.5-0.5,1.2-0.5,1.7,0c0,0,0,0,0,0l2.4,2.4
	l2.8-2.8c0.5-0.5,1.2-0.5,1.7,0c0.5,0.5,0.5,1.2,0,1.7c0,0,0,0,0,0l-3.6,3.6C17.9,15.7,17.6,15.9,17.3,15.9z"/>
</svg>
