<svg xmlns="http://www.w3.org/2000/svg" width="30.032" height="30.903" viewBox="0 0 30.032 30.903"><path d="M814.906,1385.235a12.457,12.457,0,1,1,12.457-12.457A12.471,12.471,0,0,1,814.906,1385.235Zm0-22.3a9.844,9.844,0,1,0,9.844,9.844A9.855,9.855,0,0,0,814.906,1362.934Z" transform="translate(-797.331 -1360.321)"/><path d="M783.5,1460.168a1.536,1.536,0,0,1-1.086-2.623l4.868-4.868a1.536,1.536,0,0,1,2.172,2.173l-4.868,4.868A1.526,1.526,0,0,1,783.5,1460.168Z" transform="translate(-781.963 -1429.266)"/><path d="M838.06,1405.762a1.185,1.185,0,0,1-.843-.349l-3.226-3.226a1.192,1.192,0,1,1,1.685-1.686l2.383,2.383,2.777-2.778a1.192,1.192,0,1,1,1.685,1.686l-3.62,3.62A1.178,1.178,0,0,1,838.06,1405.762Z" transform="translate(-820.731 -1389.905)"/></svg>