<svg xmlns="http://www.w3.org/2000/svg" width="30.101" height="30.248" viewBox="0 0 30.101 30.248"><path d="M3028.379,1824.459a14.882,14.882,0,0,1-10.622-4.406l-.334-.364v.5l.1,2.34a1.365,1.365,0,0,1-1.285,1.408l-.08,0a1.338,1.338,0,0,1-1.334-1.262l-.343-6.156a1.336,1.336,0,0,1,1.259-1.409l6.156-.342.075,0a1.336,1.336,0,0,1,.073,2.67l-2.688.149.377.334c.037.032.052.046.068.061a12.14,12.14,0,0,0,20.694-7.744,1.469,1.469,0,0,1,1.46-1.364c.034,0,.068,0,.1,0a1.465,1.465,0,0,1,1.36,1.562,15.055,15.055,0,0,1-15.032,14.02Zm-11.161-6.756.046.849.34-.435c.022-.029.047-.056.071-.084l.34-.374Z" transform="translate(-3013.314 -1794.211)"/><path d="M3011.762,1772.861a1.465,1.465,0,0,1-1.431-1.5,15.069,15.069,0,0,1,25.182-10.82l.4.361-.282-2.914a1.336,1.336,0,0,1,1.2-1.458,1.291,1.291,0,0,1,.13-.006,1.33,1.33,0,0,1,1.328,1.208l.593,6.137a1.336,1.336,0,0,1-1.2,1.458l-6.137.593a1.241,1.241,0,0,1-.13.007,1.336,1.336,0,0,1-.127-2.666l2.589-.25-.348-.315a12.14,12.14,0,0,0-20.267,8.734,1.473,1.473,0,0,1-1.463,1.431Z" transform="translate(-3010.331 -1756.526)"/><path d="M3036.845,1807.629a1.724,1.724,0,0,1-1.591-1.064,1.822,1.822,0,0,1-.1-.318,1.721,1.721,0,0,1-.035-.339,1.688,1.688,0,0,1,.034-.337,1.821,1.821,0,0,1,.1-.325,1.739,1.739,0,0,1,.156-.293,1.678,1.678,0,0,1,.215-.261,1.605,1.605,0,0,1,.264-.218,1.582,1.582,0,0,1,.294-.155,1.648,1.648,0,0,1,.322-.1,1.677,1.677,0,0,1,.339-.035,1.761,1.761,0,0,1,.659.134,1.588,1.588,0,0,1,.295.155,1.652,1.652,0,0,1,.26.214,1.556,1.556,0,0,1,.215.263,1.591,1.591,0,0,1,.158.295,1.788,1.788,0,0,1,.1.326,1.66,1.66,0,0,1,.035.335,1.688,1.688,0,0,1-.035.337,1.814,1.814,0,0,1-.1.321,1.648,1.648,0,0,1-.158.3,1.564,1.564,0,0,1-.212.26,1.691,1.691,0,0,1-.266.219,1.724,1.724,0,0,1-.3.157,1.817,1.817,0,0,1-.32.1A1.569,1.569,0,0,1,3036.845,1807.629Z" transform="translate(-3028.179 -1790.837)"/><path d="M3059.674,1807.628a1.722,1.722,0,1,1,1.722-1.722A1.724,1.724,0,0,1,3059.674,1807.628Z" transform="translate(-3044.614 -1790.836)"/><path d="M3082.494,1807.628a1.633,1.633,0,0,1-.333-.034,1.8,1.8,0,0,1-.33-.1,1.834,1.834,0,0,1-.293-.157,1.7,1.7,0,0,1-.258-.213,1.574,1.574,0,0,1-.215-.262,1.613,1.613,0,0,1-.158-.3,1.638,1.638,0,0,1-.1-.322,1.682,1.682,0,0,1-.035-.339,1.72,1.72,0,0,1,.505-1.216,1.646,1.646,0,0,1,.264-.218,1.839,1.839,0,0,1,.3-.157,1.8,1.8,0,0,1,.321-.1,1.641,1.641,0,0,1,.673,0,1.733,1.733,0,0,1,.325.1,1.826,1.826,0,0,1,.3.158,1.768,1.768,0,0,1,.261.216,1.732,1.732,0,0,1,.5,1.217,1.871,1.871,0,0,1-.033.341,1.743,1.743,0,0,1-.47.876,1.822,1.822,0,0,1-.264.217,1.856,1.856,0,0,1-.3.157,1.762,1.762,0,0,1-.657.129Z" transform="translate(-3061.042 -1790.836)"/></svg>