<svg xmlns="http://www.w3.org/2000/svg" width="31.351" height="30.703" viewBox="0 0 31.351 30.703"><g transform="translate(0)"><path d="M1871.8,1871.706a1.026,1.026,0,0,1-.95-1.413l.846-2.081a1.026,1.026,0,0,1,1.9.774l-.846,2.08A1.023,1.023,0,0,1,1871.8,1871.706Z" transform="translate(-1851.043 -1867.573)"/><path d="M1819.1,1872.41a1.025,1.025,0,0,1-.946-.628l-.873-2.069a1.026,1.026,0,1,1,1.891-.8l.873,2.069a1.026,1.026,0,0,1-.945,1.425Z" transform="translate(-1808.498 -1868.141)"/><path d="M1906.618,1911.885a1.026,1.026,0,0,1-.4-1.972l2.069-.873a1.026,1.026,0,0,1,.8,1.891l-2.069.873A1.042,1.042,0,0,1,1906.618,1911.885Z" transform="translate(-1878.691 -1900.439)"/><path d="M1798.912,1916.644a4.318,4.318,0,0,1-3.055-7.373l.643-.643a.72.72,0,0,0,.19-.715,9.977,9.977,0,0,1,2.514-9.929,9.954,9.954,0,0,1,14.026-.025,10.017,10.017,0,0,1-7.079,17.092,9.8,9.8,0,0,1-2.8-.449l-.051-.017a.514.514,0,0,0-.17-.038.72.72,0,0,0-.523.2l-.643.637A4.288,4.288,0,0,1,1798.912,1916.644Zm7.317-19.317a7.634,7.634,0,0,0-5.436,2.245,7.731,7.731,0,0,0-1.95,7.693,2.966,2.966,0,0,1-.753,2.951l-.643.643a2.072,2.072,0,0,0,2.931,2.93l.643-.643a2.968,2.968,0,0,1,2.112-.872,3.03,3.03,0,0,1,.861.125,7.614,7.614,0,0,0,2.164.312,7.7,7.7,0,0,0,5.487-13.159A7.63,7.63,0,0,0,1806.229,1897.328Z" transform="translate(-1790.545 -1889.418)"/><path d="M1910.236,1965.818a1.027,1.027,0,0,1-.386-.076l-2.081-.846a1.026,1.026,0,1,1,.773-1.9l2.081.846a1.026,1.026,0,0,1-.387,1.977Z" transform="translate(-1879.912 -1943.29)"/><path d="M1778.129,1912.131a1.12,1.12,0,0,1-.423-.083l-2.08-.846a1.124,1.124,0,1,1,.847-2.083l2.081.846a1.125,1.125,0,0,1-.424,2.166Z" transform="translate(-1774.925 -1900.5)"/><path d="M1834.371,1937.7c-.589,0-1.366-.372-1.366-.9v-3.628a1.029,1.029,0,0,1,2.059,0v2.473H1838a1.029,1.029,0,0,1,0,2.059Z" transform="translate(-1821.048 -1918.85)"/><path d="M1873.641,2000.81a1.024,1.024,0,0,1-.946-.627l-.873-2.07a1.026,1.026,0,1,1,1.891-.8l.873,2.069a1.026,1.026,0,0,1-.546,1.344A1.009,1.009,0,0,1,1873.641,2000.81Z" transform="translate(-1851.81 -1970.106)"/></g></svg>