<svg xmlns="http://www.w3.org/2000/svg" width="26.191" height="30.676" viewBox="0 0 26.191 30.676"><defs><style>.a{fill:#ff9630;}</style></defs><path class="a" d="M3825.623,1120.2a1.247,1.247,0,0,1-1.151-.763l-1.808-4.273-.151.045a12.722,12.722,0,0,1-2.214.424l-.244.021v3.3a1.076,1.076,0,1,1-2.149,0v-3.268l-.1-.048-.064-.012a11.626,11.626,0,0,1-2.2-.467l-.139-.054-1.811,4.294a1.137,1.137,0,1,1-2.093-.888l1.828-4.319-.135-.078a11.921,11.921,0,0,1,9.4-21.742,1.249,1.249,0,1,1-.724,2.39,9.411,9.411,0,1,0,6.282,6.279,1.249,1.249,0,1,1,2.389-.725,11.925,11.925,0,0,1-5.452,13.786l-.135.078,1.815,4.288a1.251,1.251,0,0,1-.664,1.637A1.232,1.232,0,0,1,3825.623,1120.2Z" transform="translate(-3807.213 -1089.526)"/><path class="a" d="M3852.97,1097.652a1.249,1.249,0,0,1-.883-2.132l7.555-7.555a.948.948,0,0,1,.137-.1l.059-.04-.089-.017-.082-.023v-4.448c0-.688.87-1.249,1.552-1.249s1.552.56,1.552,1.249v3.54h3.268a1.195,1.195,0,1,1,0,2.387h-4.459l-.039.2c-.014.021-.029.063-.042.086a.909.909,0,0,1-.09.136l-7.555,7.578A1.257,1.257,0,0,1,3852.97,1097.652Z" transform="translate(-3841.095 -1082.086)"/></svg>