<svg xmlns="http://www.w3.org/2000/svg" width="176" height="153" viewBox="0 0 176 153"><defs><style>.a{opacity:0.15;}.b{fill:#fff;}</style></defs><g class="a" transform="translate(175.667 165.333) rotate(180)"><path class="b" d="M97.336,153h0V136.7h.008c11.264,0,21.048-3.5,29.083-10.41s13.9-14.674,17.433-23.086,4.405-16.177,2.6-23.086S139.479,69.71,131.067,69.71a32.919,32.919,0,0,1-12.989-2.546,33.428,33.428,0,0,1-10.895-7.639A34.715,34.715,0,0,1,99.8,48.265a36.007,36.007,0,0,1-2.462-13.41A36,36,0,0,1,99.8,21.445a34.726,34.726,0,0,1,7.386-11.26,33.428,33.428,0,0,1,10.895-7.639A32.919,32.919,0,0,1,131.067,0a56.883,56.883,0,0,1,13.477,1.5,38.431,38.431,0,0,1,11,4.5,33.556,33.556,0,0,1,8.525,7.5,40.678,40.678,0,0,1,6.049,10.5,82.135,82.135,0,0,1,5.688,25.151,100.01,100.01,0,0,1-2.179,27.47,115.9,115.9,0,0,1-9.593,27.443,127.751,127.751,0,0,1-16.555,25.066,74.369,74.369,0,0,1-10.647,10.447,62.223,62.223,0,0,1-11.906,7.462,60.327,60.327,0,0,1-13.166,4.477A68.371,68.371,0,0,1,97.336,153ZM0,153H0V136.7H.008a43.434,43.434,0,0,0,28.97-10.41c8.113-6.909,13.978-14.676,17.431-23.086s4.331-16.177,2.6-23.086S42.144,69.71,33.732,69.71a32.92,32.92,0,0,1-12.989-2.546,33.437,33.437,0,0,1-10.9-7.639A34.709,34.709,0,0,1,2.462,48.265,36.013,36.013,0,0,1,0,34.855a36.011,36.011,0,0,1,2.462-13.41,34.719,34.719,0,0,1,7.386-11.26,33.437,33.437,0,0,1,10.9-7.639A32.92,32.92,0,0,1,33.732,0,56.883,56.883,0,0,1,47.209,1.5a38.431,38.431,0,0,1,11,4.5,33.556,33.556,0,0,1,8.525,7.5,40.678,40.678,0,0,1,6.049,10.5,82.136,82.136,0,0,1,5.688,25.151,100.013,100.013,0,0,1-2.179,27.47A115.9,115.9,0,0,1,66.7,104.056a127.752,127.752,0,0,1-16.555,25.066A74.366,74.366,0,0,1,39.5,139.569a62.226,62.226,0,0,1-11.907,7.462,60.328,60.328,0,0,1-13.166,4.477A68.368,68.368,0,0,1,0,153Z" transform="translate(-0.333 12.333)"/></g></svg>