<svg xmlns="http://www.w3.org/2000/svg" width="50.32" height="30" viewBox="0 0 50.32 30">
  <path id="Icon_awesome-arrow-right" data-name="Icon awesome-arrow-right"
    d="M12.627,4.657l1.525-1.525a1.642,1.642,0,0,1,2.329,0L29.836,16.479a1.642,1.642,0,0,1,0,2.329L16.481,32.163a1.642,1.642,0,0,1-2.329,0l-1.525-1.525a1.651,1.651,0,0,1,.027-2.356L20.933,20.4H-18.351A1.645,1.645,0,0,1-20,18.746v-2.2A1.645,1.645,0,0,1-18.351,14.9H20.933L12.655,7.013A1.639,1.639,0,0,1,12.627,4.657Z"
    transform="translate(20 -2.647)" fill="#758083" />
</svg>