<svg xmlns="http://www.w3.org/2000/svg" width="50.321" height="30" viewBox="0 0 50.321 30">
  <path id="Icon_awesome-arrow-right" data-name="Icon awesome-arrow-right" d="M-2.307,4.657-3.832,3.132a1.642,1.642,0,0,0-2.329,0L-19.516,16.479a1.642,1.642,0,0,0,0,2.329L-6.161,32.163a1.642,1.642,0,0,0,2.329,0l1.525-1.525a1.651,1.651,0,0,0-.027-2.356L-10.612,20.4H28.672a1.645,1.645,0,0,0,1.649-1.649v-2.2A1.645,1.645,0,0,0,28.672,14.9H-10.612l8.278-7.886A1.639,1.639,0,0,0-2.307,4.657Z" transform="translate(20 -2.647)" fill="#758083"/>
</svg>
