<svg xmlns="http://www.w3.org/2000/svg" width="165.159" height="26.149" viewBox="0 0 165.159 26.149">
  <g id="Group_27526" data-name="Group 27526" transform="translate(-974.346 -9214)">
    <path id="Icon_awesome-star" data-name="Icon awesome-star" d="M13.636.909,10.3,7.67,2.841,8.758a1.635,1.635,0,0,0-.9,2.788l5.4,5.26-1.277,7.43a1.633,1.633,0,0,0,2.369,1.721L15.1,22.448l6.674,3.508a1.634,1.634,0,0,0,2.369-1.721l-1.277-7.43,5.4-5.26a1.635,1.635,0,0,0-.9-2.788L19.9,7.67,16.567.909a1.635,1.635,0,0,0-2.931,0Z" transform="translate(1076.655 9214.001)" fill="#fff"/>
    <path id="Icon_awesome-star-2" data-name="Icon awesome-star" d="M13.636.909,10.3,7.67,2.841,8.758a1.635,1.635,0,0,0-.9,2.788l5.4,5.26-1.277,7.43a1.633,1.633,0,0,0,2.369,1.721L15.1,22.448l6.674,3.508a1.634,1.634,0,0,0,2.369-1.721l-1.277-7.43,5.4-5.26a1.635,1.635,0,0,0-.9-2.788L19.9,7.67,16.567.909a1.635,1.635,0,0,0-2.931,0Z" transform="translate(1042.072 9214.001)" fill="#fff"/>
    <path id="Icon_awesome-star-3" data-name="Icon awesome-star" d="M13.636.909,10.3,7.67,2.841,8.758a1.635,1.635,0,0,0-.9,2.788l5.4,5.26-1.277,7.43a1.633,1.633,0,0,0,2.369,1.721L15.1,22.448l6.674,3.508a1.634,1.634,0,0,0,2.369-1.721l-1.277-7.43,5.4-5.26a1.635,1.635,0,0,0-.9-2.788L19.9,7.67,16.567.909a1.635,1.635,0,0,0-2.931,0Z" transform="translate(1007.488 9214.001)" fill="#fff"/>
    <path id="Icon_awesome-star-4" data-name="Icon awesome-star" d="M13.636.909,10.3,7.67,2.841,8.758a1.635,1.635,0,0,0-.9,2.788l5.4,5.26-1.277,7.43a1.633,1.633,0,0,0,2.369,1.721L15.1,22.448l6.674,3.508a1.634,1.634,0,0,0,2.369-1.721l-1.277-7.43,5.4-5.26a1.635,1.635,0,0,0-.9-2.788L19.9,7.67,16.567.909a1.635,1.635,0,0,0-2.931,0Z" transform="translate(972.904 9214.001)" fill="#fff"/>
    <g id="Group_27505" data-name="Group 27505" transform="translate(0 13.074)">
      <path id="Icon_awesome-star-5" data-name="Icon awesome-star" d="M15.1,0V1a.614.614,0,0,0-.565.352L10.966,8.584,2.984,9.747a.635.635,0,0,0-.35,1.082l5.774,5.627L7.043,24.4a.605.605,0,0,0,.133.508.656.656,0,0,0,.493.235.619.619,0,0,0,.293-.077l7.14-3.753,7.14,3.753a.62.62,0,0,0,.291.075.659.659,0,0,0,.5-.236.6.6,0,0,0,.132-.505l-1.366-7.948,5.775-5.627a.635.635,0,0,0-.351-1.082L19.237,8.584,15.671,1.353A.624.624,0,0,0,15.1,1V0m0,0a1.622,1.622,0,0,1,1.469.91L19.9,7.67l7.461,1.088a1.635,1.635,0,0,1,.9,2.788l-5.4,5.26,1.277,7.43a1.634,1.634,0,0,1-2.369,1.721L15.1,22.448,8.427,25.956a1.633,1.633,0,0,1-2.369-1.721l1.277-7.43-5.4-5.26a1.635,1.635,0,0,1,.9-2.788L10.3,7.67,13.636.909A1.609,1.609,0,0,1,15.1,0Z" transform="translate(1110.743 9200.927)" fill="#fff"/>
      <path id="Subtraction_1" data-name="Subtraction 1" d="M-7462.773,10736.074a1.669,1.669,0,0,1-1.258-.591,1.6,1.6,0,0,1-.352-1.32l1.275-7.43-5.4-5.261a1.624,1.624,0,0,1-.414-1.676,1.624,1.624,0,0,1,1.319-1.113l7.459-1.086,3.336-6.762a1.6,1.6,0,0,1,1.461-.91c.049,0,.1,0,.158.008v22.521l-.154-.08-6.675,3.509A1.606,1.606,0,0,1-7462.773,10736.074Z" transform="translate(8581.185 -1509)" fill="#fff"/>
    </g>
  </g>
</svg>
